<svg xmlns="http://www.w3.org/2000/svg" xmlns:xlink="http://www.w3.org/1999/xlink" viewBox="0 0 841.89 1190.55" xmlns:v="https://vecta.io/nano"><style><![CDATA[.R{fill:#e30613}.S{fill:#4e4d4d}.T{opacity:.3}.U{fill:#471621}.V{stroke:#4e4d4d}.W{fill:#cdcccc}.X{stroke-width:19.607}.Y{stroke-width:7.843}.Z{stroke-miterlimit:10}]]></style><path d="M155.5 638.63l263.11-8.1 263.11-8.1 9.26 74.93c2.37 25.22 5 50.52 10.64 75.26 5.42 23.78 13.64 46.91 24.33 68.83 10.92 22.4 25.09 42.92 38.17 64.07l.87 1.4c-.28-.45-.89-.58-1.36-.7-1.1-.27-2.25-.28-3.38-.28-1.07 0-2.14.05-3.2.11-1.78.11-3.55.3-5.33.43-.21.02-.42.03-.64.04-7.69.17-15.29-.14-22.94-.93-14.97-1.56-29.8-4.45-44.84-5.33-12.64-.74-25.37-.02-37.85 2.09-12.69 2.15-24.54 7.09-36.92 9.8-27.04 5.92-54.69 8.77-82.32 9.93-59.98 2.51-119.89-3-179.64-7.51-32.38-2.44-64.89-4.81-97.39-4.18-6.55.13-20.48-8.6-55.51-9.25-40.68-.76-70.55 1.16-90.21 9.25" class="R"/><ellipse cx="410.5" cy="914" rx="41.5" ry="17" stroke-width="21" class="S V"/><path d="M502.49 318.17c-44.29-15.33-94.08-13.13-137.7 1.89s-81.31 42.21-111.54 74.71c-73.98 79.54-103.2 193.23-76.34 297.05 16.13 62.35 52.59 121.81 107.97 161.05S415.32 908.96 480.65 890c48.91-14.2 89.26-46.81 119.31-84.94 58.7-74.49 81.18-172.88 60.46-264.59S585.99 347.34 503 318.67" fill="#fff"/><use xlink:href="#B" class="S"/><ellipse cx="513.32" cy="941.5" rx="89.86" ry="53.58" fill="#fff" class="V X"/><path d="M667.42 540.46c-20.72-91.7-74.43-193.13-157.42-221.8l-.51-.49c-24.58-8.5-50.84-11.6-76.81-10.12 5.31.69 10.62 1.54 15.91 2.59 45.21 8.98 89.29 32.13 119.81 67.65l.19.68c57.21 66.5 52.55 181.07 24.29 270.65-28.25 89.58-97.16 163.2-185.3 197.97-29.3 11.56-61.19 18.91-93.46 19.27 52.25 28.99 116.59 39.67 173.53 23.14 48.91-14.2 89.26-46.81 119.31-84.94 58.69-74.5 81.18-172.89 60.46-264.6z" class="W"/><use xlink:href="#B" class="S"/><path d="M542.37 583.19H292.69c-8.63 0-15.69-7.06-15.69-15.69v-98.97c0-8.63 7.06-15.69 15.69-15.69h249.68c8.63 0 15.69 7.06 15.69 15.69v98.97c-.01 8.63-7.06 15.69-15.69 15.69z" fill="#020203" stroke="#020203" class="Y Z"/><path d="M588.88 936.1c-5.49-17.81-24.5-40.09-58.35-52.09l-.2-.13c-10.03-3.56-20.95-6.31-31.91-8.23l6.59 1.79c18.67 5.37 36.38 13.13 47.95 21.92l.06.14c21.7 16.46 15.73 36.14.72 49.45-15.01 13.32-46.53 20.42-84.77 19.11-12.71-.44-26.36-1.83-39.93-4.48 20.93 9.47 47.58 16.75 72.08 18.64 21.04 1.62 39.13-.7 53.09-4.85 27.27-8.11 40.16-23.46 34.67-41.27z" class="W"/><g class="V X"><ellipse cx="509.31" cy="939.49" rx="89.86" ry="53.58" fill="none"/><ellipse cx="327.95" cy="941.5" rx="89.86" ry="53.58" fill="#fff"/></g><path d="M404.35 936.1c-5.49-17.81-24.5-40.09-58.35-52.09l-.2-.13c-10.03-3.56-20.95-6.31-31.91-8.23l6.59 1.79c18.67 5.37 36.38 13.13 47.95 21.92l.06.14c21.7 16.46 15.73 36.14.72 49.45s-46.53 20.42-84.77 19.11c-12.71-.44-26.36-1.83-39.93-4.48 20.93 9.47 47.58 16.75 72.08 18.64 21.04 1.62 39.13-.7 53.09-4.85 27.27-8.11 40.16-23.46 34.67-41.27z" class="W"/><ellipse cx="323.94" cy="939.49" rx="89.86" ry="53.58" fill="none" class="V X"/><g fill="#ffcc07"><circle cx="382.8" cy="524.81" r="11.58"/><circle cx="313.32" cy="524.81" r="11.58"/><circle cx="333.91" cy="501.66" r="11.58"/><circle cx="362.21" cy="501.66" r="11.58"/><circle cx="521.74" cy="524.81" r="11.58"/><circle cx="452.27" cy="524.81" r="11.58"/><circle cx="472.85" cy="501.66" r="11.58"/><circle cx="501.16" cy="501.66" r="11.58"/></g><path d="M754.87 221.42c-12.69-17.44-38.49-30.58-65.86-36.45-27.38-5.87-56.08-5.07-82.11-.54-63.84 11.11-105.32 80.22-124.85 121.1l-2.22 2.19.36.49c28.55-18.84 72.23-43.14 108.42-40.35 27.27 2.11 54.02 9.22 81.22 12.78s57.1 2.97 75.92-8.51c19.26-11.75 21.8-33.26 9.12-50.71z" fill="#fff"/><use xlink:href="#C" class="S"/><path d="M748.4 206.67c-1.44 7.59-5.25 14.9-11.64 21.1-16.04 15.57-43.95 21.54-69.9 22.61s-51.95-1.72-77.77.91c-11.81 1.2-24.02 6-35.93 12.79 2.84 3.61 5.14 7.74 6.8 12.24 11.25-4.61 22.53-7.44 33.25-7.37 25.87.17 51.47 5.77 77.33 7.51s54.09-1.19 71.32-14.98c17.52-14 19.03-37.08 6.54-54.81z" class="W"/><g class="S"><use xlink:href="#C"/><path d="M765.2 215.41c-3.71-5.06-7.78-9.68-12.57-13.73-5.13-4.33-10.63-8.25-16.45-11.6-11.81-6.8-24.83-11.81-38.02-15.19-29.74-7.6-60.92-7.34-91.06-2.52-11.58 1.85-22.5 5.32-33.15 10.23-10.23 4.72-19.54 10.93-28.41 17.82-16.97 13.18-31.12 29.61-43.57 47.04-10.61 14.86-19.81 30.71-27.91 47.06l-2.51 5.16 1.84-2.38-2.22 2.19c-1.85 1.82-2.89 4.22-3.24 6.75-.32 2.37-.1 5.5 1.4 7.5l.36.49c1.82 2.43 3.9 4.69 7.03 5.41 2.99.68 6.42.56 9.06-1.19 12.69-8.37 25.79-16.16 39.45-22.85 4.15-2.03 8.35-3.95 12.61-5.75l-2.81 1.19c12.35-5.19 25.23-9.38 38.53-11.19l-3.13.42c4.91-.65 9.86-.97 14.82-.8 6.04.2 12.08.98 18.06 1.77l-3.13-.42c32.07 4.34 63.64 13.3 96.18 13.56 7.46.06 14.87-.42 22.26-1.41 6.86-.92 13.65-2.23 20.17-4.61 7.55-2.75 14.29-6.31 20.46-11.48 5.71-4.79 9.74-10.99 12.54-17.82 5.87-14.3 2.24-31.4-6.59-43.65-1.84-2.55-3.9-4.54-7.03-5.41-2.82-.78-6.57-.43-9.06 1.19-2.51 1.62-4.72 4.03-5.41 7.03-.66 2.92-.64 6.53 1.19 9.06 1.93 2.67 3.58 5.52 4.88 8.55l-1.19-2.81c1.29 3.06 2.2 6.25 2.66 9.54l-.42-3.13a33.44 33.44 0 0 1 0 8.77l.42-3.13c-.38 2.66-1.09 5.24-2.12 7.72l1.19-2.81c-1.09 2.55-2.5 4.92-4.18 7.12l1.84-2.38c-1.92 2.45-4.14 4.61-6.59 6.52l2.38-1.84c-3.38 2.58-7.12 4.62-11.03 6.28l2.81-1.19c-6.89 2.88-14.2 4.56-21.58 5.57l3.13-.42c-16.01 2.13-32.33 1.27-48.29-.86l3.13.42c-14.87-2.01-29.57-5.02-44.34-7.67-8.14-1.47-16.3-2.76-24.5-3.85-6.69-.89-13.47-1.76-20.23-1.78-12.84-.04-25.78 2.58-37.97 6.48-12.74 4.07-25.08 9.53-36.95 15.66-11.71 6.05-23.01 12.86-34.01 20.11l16.1 4.22-.36-.49-1.84 14.26c1.79-1.77 3.52-3.45 4.64-5.78l2.82-5.73c2.07-4.12 4.21-8.21 6.43-12.26 4.89-8.94 10.15-17.68 15.84-26.14 3.47-5.17 7.11-10.23 10.92-15.17l-1.84 2.38c8.1-10.47 16.99-20.35 26.88-29.15 2.82-2.5 5.71-4.91 8.69-7.22l-2.38 1.84c9.05-6.99 18.87-12.99 29.41-17.47l-2.81 1.19c10.59-4.46 21.57-6.88 32.93-8.43l-3.13.42c19.51-2.62 39.35-3.01 58.89-.42l-3.13-.42c14.12 1.91 28 5.4 41.16 10.92l-2.81-1.19c8.94 3.78 17.53 8.46 25.24 14.39l-2.38-1.84c4.7 3.65 9.04 7.76 12.69 12.47l-1.84-2.38.88 1.17c1.87 2.55 3.87 4.54 7.03 5.41 2.82.78 6.57.43 9.06-1.19 2.51-1.62 4.72-4.03 5.41-7.03.62-2.94.61-6.59-1.23-9.1z"/></g><path d="M262.96 465.94c0-14.37 11.75-26.12 26.12-26.12h256.91c14.37 0 26.12 11.75 26.12 26.12v101.29c0 4.4 3.56 7.97 7.97 7.98l92.86.17c4.7.01 8.39-4.04 7.96-8.72-2.5-27.18-.49-14.88-4.55-36.3-9.67-51.02-23.05-105.77-55.01-147.84-30.89-40.66-80.38-69.64-129.05-83.54a232.88 232.88 0 0 0-69.25-8.88c-23.28.54-46.39 4.55-68.72 11.06-66.3 19.33-107.97 61.95-120.17 75.91-53.68 61.4-74.01 120.97-79.72 188.76-.39 4.64 3.28 8.63 7.95 8.64l92.61.16a7.98 7.98 0 0 0 7.99-7.98V465.94z" class="R"/><g fill="#020203" stroke="#020203" class="Y Z"><path d="M262.96 502.16h14.47v24.29h-14.47z"/><path d="M164.69 526.45h98.27v-24.29H170.9c-2.2 0-4.15.79-4.75 1.93-3.43 6.57-4.15 12.9-5.12 20.05-.16 1.25 1.4 2.31 3.66 2.31zm508.81 0H565.09v-24.29h101.27c2.42 0 4.72.71 5.23 1.93 3.36 8.1 3.41 10.9 3.93 19.05.08 1.27.47 3.31-2.02 3.31z"/></g><g class="R"><path d="M152.03 639.79c-2.33 22.15-8.1 54.36-9.25 64.77 107.56-41.64 181.47-39.53 210.25-36.53 0 0 53.69 5.17 62.86-8.63.13-.2.2-.41.25-.66 3.33-18.19-192.09-73.89-252.54-43.24-12.79 6.49-9.25 2.32-11.57 24.29z"/><path d="M682.89 631.7c2.46 22.14 8.32 53.86 8.1 64.77-122.4-24.15-185.67-32.59-214.44-29.59 0 0-53.69 5.17-62.86-8.63-.13-.2-.2-.41-.25-.66-3.33-18.19 212.66-100.75 259.05-51.33 10.19 10.86 9.24 15.03 10.4 25.44z"/></g><path d="M682.89 631.57c-1.16-10.43-.21-14.61-10.41-25.49-4.84-5.16-11.53-8.88-19.62-11.4l16.94 56.79c1.99 7.18-4.62 14.26-12.39 13.27-129.68-16.46-203.75-7.15-233.59-.67 0 0 9.05-1.17 0 0-1.31 1.52-10.59-7.67-10.39-6.57.05.25.12.47.25.66 9.17 13.82 62.86 8.65 62.86 8.65 28.78-3.01 92.05 5.45 214.44 29.64.22-10.92-5.63-42.7-8.09-64.88z" class="T U"/><g class="T U"><path d="M666.69 576.18c-2.89-21.4-9.78-61.31-15.09-82.07-22.31-63.73-49.01-128.88-109.95-162.11-14.43-6.96-29.66-12.55-45.4-16.58-24.86-6.38-50.7-8.71-76.41-7.43 5.15.48 10.29 1.07 15.42 1.82 48.5 7.08 96.08 26.99 129.4 58.39l.22.61c47.07 44.31 55.24 139.58 45.15 206.22"/></g><path d="M411.3 654.26c-13.14 12.14-62.81 8.86-62.81 8.86-28.53-2.12-99.77-2.02-202.41 39.44 104.47-39.39 176.29-37.3 204.56-34.35 0 0 53.69 5.17 62.86-8.63.13-.2.2-.41.25-.66.25-1.37-.62-2.93-2.45-4.66z" class="T U"/><g class="R"><path d="M405.31 704.04c1.62-1.51 19.3-18.48 13.52-36.5-.37-1.15-3.88-11.74-10.14-12.7-8.27-1.26-38.87 11.11-47.32 80.94"/><path d="M421.51 718.44c-8.1-9.25-22.52-33.05-14.2-50.04.53-1.09 5.54-11.05 11.87-11.1 8.36-.06 41.65 22.97 35.12 86.93"/></g><path d="M418.26 668.22c-.22-.67-1.52-4.57-3.8-7.89 3.95 19.15-11.12 37.52-12.6 39.27l-37 33.92 39.87-28.8c1.62-1.51 19.3-18.48 13.53-36.5z" class="T U"/><circle cx="411.1" cy="653.67" r="19.66" class="R"/><g class="U"><path d="M422.48 637.66c2.29 3.21 3.65 7.14 3.65 11.38a19.66 19.66 0 0 1-19.66 19.66 19.52 19.52 0 0 1-11.38-3.65c3.56 5 9.4 8.28 16.01 8.28a19.66 19.66 0 0 0 19.66-19.66c0-6.61-3.27-12.45-8.28-16.01zm18.04 35.85c4.89 15.37 7.39 35.19 4.83 60.22l-29.25-23c2 3.05 4 5.67 5.71 7.62l32.79 25.79c3.54-34.57-4.57-57.16-14.08-70.63z" class="T"/></g><defs ><path id="B" d="M505.62 306.83c-61.97-21.24-131.48-10.13-187.8 21.59-51.07 28.76-93.22 73.72-121.22 125-27.42 50.23-41.96 107.49-41.25 164.74.71 56.94 16.58 113.81 46.54 162.33 15.15 24.53 33.88 47.08 55.74 65.91 23.13 19.92 49.21 35.47 77.7 46.43 27.46 10.57 57.01 16.39 86.45 16.72 30.2.34 59.85-5.63 87.56-17.54 53.57-23.02 96.62-67.69 125.61-117.54 29.84-51.33 45.58-110.86 44.77-170.25-.77-55.94-16.89-111.55-40.83-161.84-22.31-46.86-54.55-92.08-99.54-119.47-10.46-6.37-21.65-11.56-33.21-15.59-5.82-2.03-13.12 2.3-14.47 8.22-1.49 6.56 1.99 12.3 8.22 14.47 2.65.92 5.27 1.92 7.87 2.97 2.52 1.01-2.47-1.1.01 0l2.1.93 4.15 1.95c5.29 2.58 10.44 5.45 15.43 8.58a174.26 174.26 0 0 1 7.1 4.7l3.16 2.25 1.88 1.39c.69.51 3.56 2.06.72.53 2.29 1.23 4.42 3.53 6.39 5.21 2.31 1.96 4.58 3.98 6.81 6.04 9.11 8.44 17.49 17.65 25.2 27.37l1.02 1.29c1.78 2.24-1.55-2.05.18.23l2.99 3.98c1.82 2.46 3.59 4.95 5.33 7.46 3.67 5.31 7.18 10.74 10.53 16.26 6.8 11.2 12.96 22.79 18.54 34.65l3.76 8.21 1.9 4.34 1.01 2.37c-1.19-2.89-.05-.11.14.36a432.5 432.5 0 0 1 7.14 18.42c8.92 24.63 16.08 50.2 19.97 76.13l.4 2.77c.08.57.37 2.3-.04-.36.29 1.84.47 3.7.68 5.55a296.39 296.39 0 0 1 1.05 11.12 316.56 316.56 0 0 1 .89 20.42c.16 14.22-.66 28.46-2.43 42.57-.01.11-.4 3.14-.15 1.19.25-1.94-.15 1.08-.17 1.19l-.83 5.5c-.56 3.51-1.19 7.01-1.87 10.5a320.17 320.17 0 0 1-4.66 20.34c-3.64 13.78-8.19 27.32-13.63 40.49l-.72 1.72c1.17-2.71-.09.18-.28.62l-2.27 5.11-4.4 9.27c-3.17 6.42-6.57 12.74-10.17 18.94-3.62 6.22-7.44 12.31-11.47 18.27-1.93 2.86-3.92 5.68-5.94 8.48l-2.8 3.79-1.71 2.26c-.8 1.05-.77 1 .11-.14l-.87 1.12c-8.45 10.76-17.62 20.96-27.5 30.42a263.89 263.89 0 0 1-15.65 13.86l-3.56 2.85c-2.41 1.93 1.96-1.47-.5.39l-2.18 1.65c-2.68 2-5.41 3.94-8.17 5.83-11.46 7.81-23.91 15.34-36.91 20.33 2.77-1.06-.15.06-.6.24l-1.72.69-5.2 1.98c-3.5 1.28-7.04 2.45-10.62 3.53-6.44 1.94-12.98 3.53-19.59 4.78-3.29.62-6.61 1.23-9.94 1.62 3.15-.37.04-.02-.51.05l-2.73.31-5.48.5c-7.03.55-14.09.75-21.14.61-6.78-.13-13.54-.58-20.28-1.31l-2.76-.32-.55-.06c-1.53-.18-3.06-.44-4.59-.68a239.63 239.63 0 0 1-10.96-1.99c-13.96-2.87-27.68-6.96-40.94-12.18l-4.31-1.74c-2.91-1.19 2.26 1.01-.61-.26l-2.12-.93c-3.25-1.44-6.46-2.95-9.64-4.53a242.87 242.87 0 0 1-18.58-10.23c-6.02-3.66-11.87-7.6-17.54-11.78-1.24-.91-2.52-1.8-3.7-2.78 2.23 1.83-.18-.14-.54-.43l-2.17-1.73c-2.75-2.22-5.45-4.49-8.1-6.81-10.41-9.13-20.08-19.09-28.95-29.73l-2.88-3.51-1.7-2.13-.39-.48c-2.25-2.83-4.36-5.79-6.45-8.74-3.83-5.4-7.46-10.94-10.91-16.59-7.16-11.76-13.49-24.03-18.94-36.67-.04-.1-1.19-2.81-.46-1.06s-.4-.97-.44-1.07l-1.99-4.97a324.79 324.79 0 0 1-3.57-9.6 299.98 299.98 0 0 1-6.01-19.03c-3.72-13.26-6.48-26.76-8.43-40.39-.31-2.19 0 .11.06.46-.15-.88-.23-1.78-.34-2.67l-.56-4.9c-.36-3.41-.66-6.83-.91-10.26-.5-6.84-.76-13.69-.81-20.55-.09-13.54.69-27.09 2.31-40.53l.28-2.21c.37-3.05-.39 2.63.05-.41l.65-4.42a314.45 314.45 0 0 1 1.8-10.56 318.45 318.45 0 0 1 4.43-20.05c3.3-13 7.41-25.8 12.3-38.3l2-4.99 1.03-2.48-.14.33 4.41-9.82a324.9 324.9 0 0 1 9.37-18.42c6.52-11.87 13.79-23.33 21.76-34.28l3.24-4.37 1.1-1.45c1.85-2.46-1.53 1.92.38-.5l6.87-8.49c4.52-5.39 9.21-10.63 14.08-15.71 9.74-10.17 20.15-19.71 31.18-28.46l2.23-1.75c-2.24 1.74.28-.2.62-.46l3.79-2.82c3.06-2.24 6.16-4.41 9.31-6.52a264.61 264.61 0 0 1 18.63-11.43 257.26 257.26 0 0 1 18.75-9.49l5.27-2.32c-2.33 1-.3.13.29-.11l2.23-.9a231.65 231.65 0 0 1 10.86-4.03c7.36-2.53 14.85-4.69 22.44-6.46 3.65-.85 7.32-1.61 11-2.28l5.04-.86 3.04-.46c2.84-.44-1.67.18.93-.13 15.64-1.88 31.4-2.33 47.11-.87l5.1.54c.39.05 3.79.5.94.1l3.04.45a191.13 191.13 0 0 1 11.09 2.04c7.36 1.58 14.6 3.61 21.72 6.05 5.83 2 13.12-2.28 14.47-8.22 1.45-6.53-2.02-12.32-8.25-14.46h0z"/><path id="C" d="M765.02 215.49c-3.7-5.05-7.77-9.67-12.55-13.71-5.12-4.33-10.61-8.24-16.42-11.58-11.79-6.79-24.79-11.79-37.95-15.16-29.69-7.59-60.81-7.33-90.91-2.52-11.56 1.85-22.46 5.31-33.1 10.21-10.22 4.71-19.5 10.91-28.37 17.79-16.94 13.16-31.07 29.56-43.49 46.96-10.59 14.83-19.78 30.65-27.86 46.97l-2.5 5.15 1.84-2.38-2.22 2.19c-1.85 1.82-2.89 4.22-3.24 6.75-.32 2.37-.1 5.5 1.4 7.5l.36.49c1.82 2.43 3.9 4.69 7.03 5.41 2.99.68 6.42.56 9.06-1.19 12.67-8.35 25.75-16.13 39.38-22.81a241.78 241.78 0 0 1 12.59-5.74l-2.81 1.19c12.33-5.18 25.18-9.36 38.46-11.17l-3.13.42c4.9-.65 9.85-.97 14.79-.8 6.03.2 12.06.97 18.03 1.77l-3.13-.42c32.01 4.33 63.52 13.28 96.01 13.53a157.22 157.22 0 0 0 22.22-1.41c6.85-.92 13.63-2.23 20.13-4.6 7.54-2.75 14.27-6.3 20.43-11.47 5.71-4.78 9.72-10.97 12.52-17.8 5.88-14.27 2.25-31.34-6.57-43.57-1.84-2.55-3.9-4.54-7.03-5.41-2.82-.78-6.57-.43-9.06 1.19-2.51 1.62-4.72 4.03-5.41 7.03-.66 2.92-.64 6.53 1.19 9.06 1.92 2.67 3.57 5.51 4.87 8.53l-1.19-2.81c1.28 3.06 2.19 6.24 2.65 9.52l-.42-3.13c.38 2.91.39 5.84 0 8.75l.42-3.13a31.65 31.65 0 0 1-2.12 7.7l1.19-2.81c-1.09 2.54-2.49 4.91-4.17 7.11l1.84-2.38c-1.91 2.44-4.13 4.6-6.58 6.5l2.38-1.84c-3.38 2.57-7.11 4.61-11.01 6.27l2.81-1.19c-6.88 2.87-14.18 4.55-21.54 5.56l3.13-.42c-15.98 2.13-32.27 1.27-48.2-.86l3.13.42c-14.84-2.01-29.52-5.01-44.25-7.66-8.13-1.46-16.28-2.76-24.47-3.84-6.68-.89-13.44-1.76-20.19-1.78-12.81-.04-25.73 2.58-37.9 6.46-12.71 4.06-25.03 9.52-36.88 15.64-11.69 6.04-22.97 12.84-33.95 20.07l16.1 4.22-.36-.49-1.84 14.26c1.79-1.77 3.51-3.45 4.63-5.77l2.81-5.72c2.07-4.12 4.2-8.2 6.41-12.24 4.89-8.92 10.13-17.65 15.81-26.09 3.47-5.16 7.1-10.22 10.9-15.14l-1.84 2.38c8.08-10.45 16.96-20.32 26.84-29.1 2.81-2.5 5.7-4.9 8.67-7.21l-2.38 1.84c9.04-6.98 18.83-12.97 29.35-17.44l-2.81 1.19c10.57-4.45 21.53-6.87 32.87-8.42l-3.13.42c19.48-2.62 39.28-3 58.78-.42l-3.13-.42c14.1 1.9 27.95 5.39 41.08 10.9l-2.81-1.19c8.93 3.78 17.5 8.44 25.2 14.36l-2.38-1.84c4.69 3.64 9.02 7.74 12.66 12.44l-1.84-2.38.88 1.17c1.87 2.55 3.87 4.54 7.03 5.41 2.82.78 6.57.43 9.06-1.19 2.51-1.62 4.72-4.03 5.41-7.03.64-2.89.63-6.55-1.21-9.05z"/></defs></svg>