<svg xmlns="http://www.w3.org/2000/svg" xmlns:xlink="http://www.w3.org/1999/xlink" viewBox="0 0 841.89 1190.55" xmlns:v="https://vecta.io/nano"><style><![CDATA[.Z{fill:none}.a{stroke-miterlimit:10}.b{fill:#4e4d4d}.c{fill:#cdcccc}.d{stroke:#4e4d4d}.e{stroke-width:19.607}.f{stroke-linecap:round}]]></style><path d="M536.02 339.91c-38.3-13.25-81.35-11.35-119.06 1.63s-70.31 36.5-96.45 64.6c-63.97 68.77-89.23 167.07-66.01 256.85 13.94 53.91 45.47 105.32 93.35 139.25s112.8 48.49 169.28 32.1c42.29-12.28 77.18-40.47 103.16-73.44 50.75-64.41 70.19-149.48 52.28-228.78-17.91-79.29-64.36-166.99-136.11-191.78" fill="#fff"/><use xlink:href="#B" class="b"/><ellipse cx="545.38" cy="878.87" rx="77.69" ry="46.33" fill="#fff" class="d e"/><path d="M678.62 532.12c-17.91-79.29-64.36-166.99-136.11-191.78l-.44-.43c-21.25-7.35-43.96-10.03-66.41-8.75 4.59.6 9.18 1.33 13.76 2.24 39.09 7.77 77.2 27.78 103.59 58.49l.17.59c49.46 57.5 45.43 156.56 21.01 234.01S530.16 767.6 453.95 797.67c-25.34 9.99-52.9 16.35-80.81 16.66 45.18 25.07 100.81 34.3 150.04 20.01 42.29-12.28 77.18-40.47 103.16-73.44 50.76-64.41 70.2-149.49 52.28-228.78z" class="c"/><use xlink:href="#B" class="b"/><path d="M568.38 569.06H356.75c-8.63 0-15.69-7.06-15.69-15.69v-81.33c0-8.63 7.06-15.69 15.69-15.69h211.63c8.63 0 15.69 7.06 15.69 15.69v81.33c0 8.63-7.06 15.69-15.69 15.69z" fill="#020203" stroke="#020203" stroke-width="7.843" class="a"/><use xlink:href="#C" class="c"/><g class="d e"><ellipse cx="541.92" cy="877.14" rx="77.69" ry="46.33" class="Z"/><ellipse cx="385.1" cy="878.87" rx="77.69" ry="46.33" fill="#fff"/></g><use xlink:href="#C" x="-161.28" class="c"/><ellipse cx="381.64" cy="877.14" rx="77.69" ry="46.33" class="Z d e"/><g fill="#ffcc07"><circle cx="432.53" cy="518.58" r="10.01"/><circle cx="372.46" cy="518.58" r="10.01"/><circle cx="390.26" cy="498.56" r="10.01"/><circle cx="414.73" cy="498.56" r="10.01"/><circle cx="552.67" cy="518.58" r="10.01"/><circle cx="492.6" cy="518.58" r="10.01"/><circle cx="510.4" cy="498.56" r="10.01"/><circle cx="534.87" cy="498.56" r="10.01"/></g><path d="M658.33 379.18c-124.21-40.12-247.15-43.85-368.85-12.59a13.61 13.61 0 0 0-7.02 4.44c-18.11 21.64-27.55 49.47-26.11 77.01.26 5.02 4.98 8.62 9.86 7.43 146.45-35.51 277.8-33.48 398.93 10.49 4.92 1.79 10.18-1.56 10.7-6.77 2.64-26.61 2.13-52.72-9.87-73.76-1.69-2.95-4.4-5.2-7.64-6.25z" fill="#f4e600"/><path d="M481.69 366.67c-.34 15.31-1.53 30.63-2.37 45.92m-41.35-45.92l-.95 44.6m87.08-37.98c-.3 13.59-1.65 27.06-2.27 40.62m42.02-35.38c.38 23.46.38 14.18-.95 40.68m38.07-34.08c1.22 13.2 1.42 26.17.36 39.39m35.25-34.04c3.9 14.13 5.65 28.66 4.49 43.31m-274.99-61.05c-6.36 21.26-5.87 23.65-5.31 48.35m-30.96-44.66c-8.07 16.29-9.56 33.24-8.07 52.06m-27.54-41.41c-10.83 17.47-11.66 34.77-12.21 54.66m119.55-73.73l-1.62 48.56" stroke="#015438" stroke-width="3" class="Z a f"/><path d="M754.24 256.26c-10.97-15.08-33.28-26.44-56.95-31.52s-48.49-4.39-71-.47c-55.2 9.6-91.07 69.36-107.95 104.71l-1.92 1.89.31.42c24.68-16.29 62.45-37.3 93.75-34.89 23.58 1.82 46.71 7.97 70.22 11.05 23.52 3.08 49.37 2.57 65.64-7.36 16.66-10.15 18.87-28.75 7.9-43.83z" fill="#fff"/><use xlink:href="#D" class="b"/><path d="M746.05 243.5c-1.25 6.56-4.54 12.89-10.07 18.25-13.87 13.46-38 18.62-60.44 19.55-22.43.93-44.92-1.49-67.24.79-10.21 1.04-20.77 5.19-31.07 11.06 2.46 3.12 4.45 6.69 5.88 10.58 9.73-3.98 19.48-6.43 28.75-6.37 22.37.15 44.5 4.99 66.87 6.5 22.36 1.51 46.77-1.03 61.67-12.96 15.15-12.11 16.45-32.06 5.65-47.4z" class="c"/><use xlink:href="#D" class="b"/><path d="M665.95 385.38c-1.46-2.62-3.72-4.71-6.44-5.9 7.22 19.13 8.22 41.44 7.19 64.2-.25 5.54-5.33 9.35-10.34 7.71C559.38 419.67 457.48 417.21 348 439c114.16-16.43 218.78-9.03 316.61 27.41 4.91 1.83 10.84-1.17 11.39-6.41 2.81-26.76 1.82-53.37-10.05-74.62z" fill="#cac80b"/><g class="Z"><g stroke="#808181"><ellipse transform="matrix(.98 -.1989 .1989 .98 -75.7925 34.9169)" cx="135.87" cy="394.65" rx="87.07" ry="114.44" stroke-width="7"/><g class="a"><path d="M171.81 288.3c7.38 4.92 14.34 10.96 20.72 17.97M73.72 295.64c7.6-7.51 16.36-13.36 26.09-17.17l-.42-2.29"/><path d="M111.63 274.95a71.44 71.44 0 0 1 16.5-1.4l-.46-2.53-28.28 5.16.42 2.29c3.8-1.48 7.73-2.69 11.82-3.52zm-60.67 56.1c3.29-8.35 7.4-16.06 12.26-22.95m15.37 174.46l-.16-.88c-5.74-6.44-10.99-13.66-15.61-21.57M51.79 436.8a159.29 159.29 0 0 1-6.82-23.92l-.03-.15m.01 0a159.78 159.78 0 0 1-3.03-24.77m20.89 72.15c-4.23-7.24-7.94-15.04-11.02-23.31"/><path d="M78.59 482.56l.53-.1-.69-.78.16.88z"/><use xlink:href="#E"/><use xlink:href="#E" x="-4.471" y="-24.51"/><path d="M132.13 295.53l-4.01-21.98a71.44 71.44 0 0 0-16.5 1.4c-4.09.83-8.02 2.03-11.82 3.52l4.05 22.22 28.28-5.16z"/><use xlink:href="#E" x="14.872" y="-78.682"/><use xlink:href="#E" x="19.342" y="-54.171"/><use xlink:href="#E" x="-8.941" y="-49.021"/><path d="M99.8 278.47c-9.73 3.8-18.49 9.66-26.09 17.17l1.86 10.21 28.28-5.16-4.05-22.22z"/><use xlink:href="#E" x="89.301" y="9.033"/><use xlink:href="#E" x="61.031" y="14.191"/><use xlink:href="#E" x="117.584" y="3.883"/><use xlink:href="#E" x="4.467" y="24.501"/><path d="M211.04 407.76l18.89-3.44c-.17-8.14-.99-16.46-2.51-24.87l-20.85 3.8 4.47 24.51z"/><use xlink:href="#E" x="32.75" y="19.351"/><use xlink:href="#E" x="80.363" y="-39.979"/><use xlink:href="#E" x="69.969" y="63.202"/><path d="M78.43 481.68l-4.31-23.63-11.3 2.06c4.62 7.91 9.87 15.13 15.61 21.57zm141.93-22.8l.95-2.35-1.33.24.38 2.11z"/><use xlink:href="#E" x="71.423" y="-89"/><use xlink:href="#E" x="43.152" y="-83.842"/><path d="M171.81 288.3c-4.25-2.83-8.63-5.29-13.12-7.35l1.72 9.43 11.4-2.08z"/><use xlink:href="#E" x="47.623" y="-59.331"/><use xlink:href="#E" x="52.093" y="-34.821"/><path d="M63.21 308.1l12.37-2.26-1.86-10.21c-3.81 3.77-7.31 7.94-10.51 12.47z"/><use xlink:href="#E" x="104.173" y="-69.649"/><use xlink:href="#E" x="108.643" y="-45.138"/><use xlink:href="#E" x="75.892" y="-64.489"/><use xlink:href="#E" x="113.113" y="-20.627"/><use xlink:href="#E" x="23.81" y="-29.67"/><use xlink:href="#E" x="28.281" y="-5.16"/><use xlink:href="#E" x="84.833" y="-15.468"/><use xlink:href="#E" x="56.561" y="-10.32"/><path d="M160.41 290.38l-1.72-9.43c-9.82-4.5-20.13-7.08-30.57-7.4l4.01 21.98 28.28-5.15zm-49.07 211.53l1.03 5.67c9.83 4.61 20.15 7.28 30.62 7.69l-3.38-18.51-28.27 5.15z"/><path d="M139.61 496.75l3.38 18.51c5.69.23 11.42-.21 17.14-1.37 3.87-.79 7.61-1.91 11.23-3.29l-3.47-19.01-28.28 5.16zm-65.49-38.7l4.31 23.63.69.78 27.74-5.06-4.47-24.51-28.27 5.16z"/><path d="M106.87 477.4l-27.74 5.06c7.61 8.39 16.06 15.39 25.05 20.75l7.17-1.31-4.48-24.5z"/><path d="M104.17 503.21l8.2 4.36-1.03-5.67-7.17 1.31zm106.87-95.45l4.47 24.51 12.76-2.33c1.28-8.25 1.83-16.83 1.65-25.62l-18.88 3.44z"/><use xlink:href="#E" x="65.5" y="38.702"/><use xlink:href="#E" x="122.052" y="28.384"/><use xlink:href="#E" x="93.77" y="33.544"/><use xlink:href="#E" x="126.521" y="52.895"/><use xlink:href="#E" x="98.242" y="58.054"/><path d="M228.27 429.94l-12.76 2.33 4.47 24.51 1.33-.24c3.16-8.32 5.51-17.25 6.96-26.6z"/><use xlink:href="#E" x="74.43" y="87.715"/><use xlink:href="#E" x="102.709" y="82.555"/><use xlink:href="#E" x="46.159" y="92.873"/><use xlink:href="#E" x="41.688" y="68.363"/><use xlink:href="#E" x="8.939" y="49.011"/><path d="M219.98 456.77l-28.28 5.16 4.47 24.51 9.42-1.72c5.93-7.56 10.9-16.26 14.77-25.84l-.38-2.11zm-59.57-166.39l4.47 24.51 28.28-5.16-.63-3.46c-6.38-7.01-13.34-13.05-20.72-17.97l-11.4 2.08z"/><path d="M197.5 493.75c2.87-2.78 5.56-5.81 8.09-9.04l-9.42 1.72 1.33 7.32z"/><path d="M167.89 491.59l3.47 19.01c9.73-3.7 18.52-9.45 26.15-16.85l-1.33-7.32-28.29 5.16zm27.34-182.24l-2.7-3.08.63 3.46 2.07-.38zM80.05 330.36l-4.47-24.51-12.37 2.26c-4.85 6.89-8.97 14.6-12.26 22.95l.81 4.46 28.29-5.16zm122.05 28.38l19.02-3.47c-2.88-8.29-6.39-16.12-10.41-23.42l-13.08 2.39 4.47 24.5z"/><path d="M197.63 334.23l13.08-2.39c-4.54-8.23-9.74-15.77-15.48-22.5l-2.07.38 4.47 24.51z"/><use xlink:href="#E" x="37.218" y="43.852"/><path d="M51.79 436.8c3.08 8.28 6.79 16.08 11.02 23.31l11.3-2.06-4.47-24.51-17.85 3.26z"/><path d="M65.18 409.04l-20.23 3.69.03.15c1.69 8.33 3.99 16.33 6.82 23.92l17.85-3.26-4.47-24.5zm141.39-25.79l20.85-3.8-.64-3.47a160.12 160.12 0 0 0-5.66-20.7l-19.02 3.47 4.47 24.5zm-154.8-47.74l-2.63.48c-2.86 8.31-4.93 17.18-6.13 26.44l13.23-2.41-4.47-24.51z"/><path d="M50.96 331.05l-1.82 4.94 2.63-.48-.81-4.46zm9.75 53.48l-18.79 3.43a159.78 159.78 0 0 0 3.03 24.77l20.23-3.69-4.47-24.51z"/><path d="M56.24 360.02l-13.23 2.41c-1.07 8.24-1.46 16.78-1.08 25.52l18.79-3.43-4.48-24.5z"/></g></g><g transform="matrix(.98 -.1989 .1989 .98 -75.7476 34.9136)"><ellipse cx="135.88" cy="394.42" rx="92.76" ry="121.91" stroke="#e52521" stroke-width="7"/><ellipse cx="135.88" cy="394.42" rx="92.76" ry="121.91" stroke-width="8" stroke="#343434"/></g><path d="M207.99 735.08l-29.77-146.66c-7.33-36.13 2.42-73.45 25.9-101.87 21.73-26.29 31.4-67.53 22.66-110.58-13.39-65.98-64.95-111.21-115.15-101.02s-80.04 71.94-66.65 137.92c8.59 42.3 32.86 76.07 62.4 92.17 36.54 19.92 61.82 55.64 70.1 96.43l27.25 134.26 3.26-.65z" stroke="#343434" stroke-width="13" class="a"/></g><path d="M214.26 740.93l-15.07 3.06c-1.7.34-3.35-.75-3.69-2.45l-19.4-95.58c-.34-1.7.75-3.35 2.45-3.69l15.07-3.06c1.7-.34 3.35.75 3.69 2.45l19.4 95.58c.34 1.69-.76 3.34-2.45 3.69z" fill="#754d24"/><path d="M216.5 736.24l-15.72-77.44 11.31 75.3a4.15 4.15 0 0 1-3.49 4.72l-13.24 1.99c.57 2.09 2.66 3.41 4.81 2.97l13.08-2.65a4.15 4.15 0 0 0 3.25-4.89z" fill="#603914"/><path d="M212.55 731.15l-16.21 3.23m18.05 1.18l-16.21 3.23" stroke="#020203" class="Z a f"/><ellipse transform="matrix(.6178 -.7863 .7863 .6178 -445.7757 456.1059)" cx="246.34" cy="686.65" rx="39.64" ry="76.18" fill="#fff" stroke="#4f4e4e" stroke-width="15"/><path d="M301.82 734.06c-13.36 6.18-37.66 8.07-65.78-3.26h0c-8.2-3.65-16.65-7.8-24.65-12.29l5.2 2.52c13.5 6.56 27.77 11.03 42.49 13.31h0c22.8 3.05 30.2-10.23 28.13-24.8s-17.73-34.48-42.65-53.44c-8.81-6.84-18.03-12.94-27.62-18.26 19.62 6.5 38.36 15.7 55.88 27.41 11.54 8.02 21.88 18.12 30.7 29.98 12.43 18.3 12 32.73-1.7 38.83z" fill="#cecbcb"/><ellipse transform="matrix(.5821 -.8131 .8131 .5821 -456.0599 486.9088)" cx="245.65" cy="687.12" rx="39.75" ry="75.97" stroke="#4f4e4e" stroke-width="15" class="Z"/><defs ><path id="B" d="M539.15 328.57c-53.97-18.5-114.56-8.8-163.61 18.82-44.38 25-81.05 64.09-105.38 108.65-23.84 43.67-36.5 93.46-35.88 143.25.62 49.51 14.41 98.97 40.46 141.16 13.16 21.32 29.44 40.95 48.44 57.31 20.22 17.42 42.98 30.98 67.88 40.56 23.87 9.19 49.58 14.23 75.17 14.51 26.41.3 52.28-4.97 76.51-15.38 46.55-20.01 83.99-58.88 109.18-102.2 25.94-44.62 39.64-96.39 38.93-148.01-.67-48.66-14.7-97-35.52-140.74-19.41-40.76-47.51-80.05-86.64-103.87-9.16-5.58-18.97-10.11-29.1-13.64-5.82-2.03-13.12 2.3-14.47 8.22-1.49 6.56 1.99 12.3 8.22 14.47 2.29.8 4.56 1.66 6.81 2.57 2.28.92-2.62-1.16-.37-.16l1.81.8c1.21.54 2.4 1.11 3.59 1.69 4.58 2.23 9.03 4.71 13.34 7.42 2.08 1.3 4.12 2.66 6.14 4.06l2.74 1.95 1.63 1.2c.67.5 3.04 2.63.3.21 3.75 3.31 7.74 6.32 11.42 9.73 7.88 7.29 15.12 15.26 21.79 23.67.3.37.59.75.88 1.12 1.6 2.02-1.65-2.18-.09-.12l2.58 3.44 4.61 6.45c3.18 4.59 6.21 9.28 9.11 14.06 5.88 9.69 11.21 19.71 16.03 29.96l3.25 7.1 1.64 3.75c.29.68.54 1.4.88 2.05-1.51-2.98-.31-.73-.04-.07 2.18 5.26 4.23 10.57 6.17 15.92 7.71 21.3 13.91 43.4 17.27 65.82l.35 2.39c.13.9.67 1.64-.09-.73.47 1.44.42 3.29.59 4.8.36 3.2.66 6.4.91 9.61.45 5.88.7 11.77.77 17.66a272.79 272.79 0 0 1-2.1 36.81l-.1.82c.22-2.07-.08.57-.12.82l-.72 4.76c-.49 3.03-1.03 6.06-1.62 9.08-1.15 5.91-2.5 11.77-4.03 17.59-3.14 11.91-7.08 23.62-11.79 35.01-.2.49-.39 1.01-.62 1.49 1.4-2.94.18-.44-.08.15l-1.96 4.42c-1.22 2.69-2.49 5.36-3.8 8.02a270.65 270.65 0 0 1-8.79 16.37c-3.13 5.38-6.43 10.65-9.92 15.79-1.67 2.47-3.39 4.91-5.14 7.33l-2.42 3.28-1.48 1.95c-1.43 1.9 1.47-1.87-.41.52-7.31 9.3-15.23 18.12-23.78 26.3a223.22 223.22 0 0 1-13.54 11.98l-3.07 2.46c-2.16 1.73 2.1-1.57-.11.09l-1.89 1.42c-2.32 1.73-4.68 3.41-7.07 5.04-5.01 3.42-10.18 6.61-15.49 9.54-2.55 1.41-5.13 2.76-7.74 4.04-2.71 1.34-5.76 3.21-8.69 4 2.99-.8.59-.25-.14.05l-1.49.6-4.5 1.71c-3.03 1.1-6.09 2.12-9.18 3.05a166.59 166.59 0 0 1-16.94 4.13l-4.68.82c-.73.12-3.42.93-3.92.58l1.56-.21-1.57.19-2.36.27c-1.58.17-3.16.31-4.74.44a185.81 185.81 0 0 1-18.28.53c-5.86-.12-11.71-.5-17.53-1.13l-2.39-.28-.8-.1c-1.31-.17-1.06-.13.74.11-1.19.12-2.76-.39-3.97-.58a204.73 204.73 0 0 1-9.48-1.72c-12.07-2.48-23.93-6.02-35.4-10.53l-3.72-1.5c-2.6-1.06 2.42 1.07-.15-.07l-1.84-.8c-2.81-1.24-5.59-2.55-8.34-3.91a214.39 214.39 0 0 1-16.07-8.85c-5.2-3.17-10.26-6.57-15.17-10.18-1.04-.77-2.26-1.52-3.2-2.4 2.28 2.14.4.3-.14-.12l-1.87-1.49c-2.38-1.92-4.71-3.88-7.01-5.89-9-7.89-17.37-16.51-25.03-25.7l-2.49-3.04-1.47-1.84c-.42-.54-2.24-2.46-.09-.09-2.07-2.28-3.8-5.04-5.58-7.56-3.31-4.67-6.45-9.46-9.43-14.35-6.19-10.17-11.66-20.78-16.38-31.71-.1-.23-1.03-2.61-.32-.73.71 1.89-.2-.5-.3-.73l-1.72-4.3a275.56 275.56 0 0 1-3.08-8.3c-1.91-5.43-3.65-10.91-5.2-16.45-3.22-11.47-5.59-23.13-7.29-34.92-.3-2.11.15.62.11.82.12-.61-.22-1.68-.29-2.31l-.48-4.24c-.31-2.95-.57-5.91-.79-8.87-.43-5.91-.66-11.84-.7-17.77a275.35 275.35 0 0 1 2-35.04l.24-1.91c.33-2.74-.41 2.8-.01.07l.56-3.82c.47-3.05.99-6.1 1.56-9.13a277.75 277.75 0 0 1 3.83-17.34c2.86-11.24 6.41-22.31 10.63-33.12l1.73-4.32c.27-.66.49-1.56.89-2.15-.13.2-1.1 2.57-.28.67l3.81-8.49c2.53-5.39 5.23-10.71 8.1-15.93 5.64-10.26 11.92-20.17 18.81-29.64l2.8-3.78.95-1.25c1.66-2.2-1.63 2.06.08-.11l5.94-7.34a269.73 269.73 0 0 1 12.17-13.58c8.42-8.8 17.42-17.04 26.96-24.61.64-.5 1.26-1.04 1.93-1.51-2.58 1.83-.27.22.21-.15l3.28-2.44a263.85 263.85 0 0 1 8.05-5.64c5.23-3.51 10.6-6.81 16.11-9.88 5.29-2.95 10.7-5.69 16.21-8.2 1.5-.68 3-1.46 4.55-2.01-3.19 1.12 1.17-.47 1.8-.72a207.15 207.15 0 0 1 9.39-3.49c6.37-2.19 12.84-4.06 19.4-5.58 3.15-.74 6.33-1.39 9.51-1.97l4.36-.74 2.63-.4c2.71-.42-2.12.24.39-.06 13.53-1.61 27.15-2.01 40.73-.75l4.41.46c.6.07 3.62.32.39.03.88.08 1.76.25 2.63.39 3.21.5 6.41 1.08 9.59 1.77a165.41 165.41 0 0 1 18.78 5.23c5.83 2 13.12-2.28 14.47-8.22 1.49-6.54-1.97-12.33-8.21-14.47h0z"/><path id="C" d="M610.72 874.21c-4.75-15.4-21.18-34.66-50.45-45.04l-.17-.11c-8.67-3.07-18.11-5.45-27.59-7.11 1.91.49 3.81 1 5.7 1.55 16.15 4.65 31.45 11.36 41.46 18.95l.05.12c18.76 14.23 13.6 31.25.62 42.76-12.98 11.52-40.23 17.66-73.3 16.52-10.99-.38-22.8-1.58-34.53-3.87 18.1 8.19 41.14 14.48 62.32 16.12 18.19 1.4 33.84-.6 45.91-4.2 23.58-7.03 34.72-20.3 29.98-35.69z"/><path id="D" d="M764.4 250.32c-3.29-4.49-6.87-8.6-11.12-12.2-4.54-3.83-9.4-7.31-14.55-10.28-10.33-5.94-21.74-10.34-33.29-13.28-25.95-6.59-53.08-6.34-79.37-2.13-10.08 1.62-19.56 4.67-28.84 8.94-8.97 4.12-17.09 9.58-24.87 15.62-14.81 11.5-27.13 25.85-37.98 41.07-9.13 12.8-17.05 26.44-24.02 40.52l-2.17 4.46 1.84-2.38-1.92 1.89c-1.85 1.82-2.89 4.22-3.24 6.75-.32 2.37-.1 5.5 1.4 7.5.1.14.21.28.31.42 1.82 2.43 3.9 4.69 7.03 5.41 2.99.68 6.42.56 9.06-1.19 10.91-7.19 22.17-13.9 33.91-19.65 3.58-1.75 7.2-3.41 10.86-4.97l-2.81 1.19c10.7-4.51 21.85-8.15 33.38-9.72l-3.13.42c4.26-.56 8.57-.84 12.87-.7 5.24.18 10.48.85 15.68 1.55l-3.13-.42c27.71 3.76 55 11.48 83.12 11.74 7.06.06 14.03-.48 21.02-1.44 5.47-.75 10.9-1.9 16.1-3.78 6.82-2.47 12.84-5.66 18.41-10.31 2.59-2.16 4.64-4.7 6.67-7.4 2.02-2.7 3.35-5.62 4.63-8.73 5.2-12.68 1.99-28.01-5.85-38.9-1.84-2.55-3.9-4.54-7.03-5.41-2.82-.78-6.57-.43-9.06 1.19-2.51 1.62-4.72 4.03-5.41 7.03-.66 2.92-.64 6.53 1.19 9.06 1.68 2.33 3.12 4.82 4.25 7.46l-1.19-2.81c1.08 2.58 1.84 5.26 2.24 8.03l-.42-3.13a29.24 29.24 0 0 1 .02 7.65l.42-3.13c-.33 2.31-.95 4.55-1.84 6.71l1.19-2.81c-.95 2.22-2.18 4.28-3.65 6.19l1.84-2.38c-1.6 2.03-3.44 3.84-5.48 5.44l2.38-1.84c-2.96 2.28-6.23 4.08-9.67 5.54l2.81-1.19c-6 2.51-12.37 3.96-18.79 4.83l3.13-.42c-13.79 1.81-27.83 1.07-41.57-.77l3.13.42c-12.8-1.73-25.47-4.32-38.18-6.61a473.06 473.06 0 0 0-21.5-3.37c-5.77-.77-11.62-1.53-17.45-1.55-11.2-.05-22.53 2.21-33.17 5.6-11.18 3.56-22.01 8.35-32.43 13.73-10.1 5.22-19.85 11.1-29.34 17.35l16.1 4.22c-.1-.14-.21-.28-.31-.42l-1.84 14.26c1.6-1.57 3.18-3.08 4.17-5.14l2.44-4.96c1.77-3.53 3.6-7.04 5.5-10.5 4.26-7.79 8.84-15.42 13.79-22.79 2.97-4.42 6.08-8.75 9.33-12.97l-1.84 2.38c7-9.06 14.68-17.61 23.24-25.23a144.8 144.8 0 0 1 7.63-6.34l-2.38 1.84c7.78-6 16.2-11.15 25.24-15l-2.81 1.19c9.3-3.92 18.94-6.02 28.92-7.36l-3.13.42c16.8-2.22 33.88-2.52 50.7-.27l-3.13-.42c12.1 1.66 23.97 4.67 35.24 9.39l-2.81-1.19c7.76 3.29 15.21 7.35 21.89 12.51l-2.38-1.84c3.99 3.11 7.66 6.6 10.77 10.6l-1.84-2.38.8 1.06c1.87 2.55 3.87 4.54 7.03 5.41 2.82.78 6.57.43 9.06-1.19 2.51-1.62 4.72-4.03 5.41-7.03.63-2.9.62-6.55-1.21-9.06z"/><path id="E" d="M60.702 384.543l28.274-5.156 4.469 24.506-28.274 5.156z"/></defs></svg>