<svg xmlns="http://www.w3.org/2000/svg" viewBox="0 0 226.37 338.11"><defs><style>.cls-1,.cls-13,.cls-15,.cls-4{fill:#fff;}.cls-2{fill:#4e4d4d;}.cls-3{fill:#cccbcb;}.cls-13,.cls-14,.cls-15,.cls-16,.cls-4,.cls-5{stroke:#4e4d4d;}.cls-13,.cls-14,.cls-15,.cls-16,.cls-4,.cls-5,.cls-6{stroke-miterlimit:10;}.cls-4,.cls-5{stroke-width:11.57px;}.cls-14,.cls-16,.cls-5{fill:none;}.cls-6{stroke:#000;stroke-width:4.63px;}.cls-7{fill:#ffcb03;}.cls-8{fill:#fd0;}.cls-9{fill:#ffec00;}.cls-10{fill:#f29100;}.cls-11{fill:#eb680f;}.cls-12{fill:#1d1d1b;}.cls-13,.cls-14{stroke-width:11.02px;}.cls-15,.cls-16{stroke-width:11.27px;}</style></defs><g id="Layer_2" data-name="Layer 2"><g id="Laag_1" data-name="Laag 1"><path class="cls-1" d="M136.05,69.52c-17.05-5.9-36.21-5.06-53,.73S51.74,86.5,40.11,99C11.63,129.63.38,173.39,10.72,213.36c6.2,24,20.24,46.89,41.56,62S102.5,297,127.65,289.65c18.82-5.47,34.36-18,45.93-32.7a122.21,122.21,0,0,0,23.27-101.86c-8-35.3-28.65-74.35-60.6-85.38"/><path class="cls-2" d="M137.9,62.83c-24.4-8.36-51.82-4-74,8.46-20.06,11.26-36.67,28.92-47.66,49A132.26,132.26,0,0,0,0,184.69a124.84,124.84,0,0,0,18.24,64,111.22,111.22,0,0,0,21.81,25.84,104.68,104.68,0,0,0,30.62,18.37,97.85,97.85,0,0,0,34.15,6.67,85.5,85.5,0,0,0,35.09-7.08c20.92-9,37.78-26.52,49.13-46a130.26,130.26,0,0,0,17.64-66.78c-.29-22-6.64-43.89-16.08-63.69-8.76-18.37-21.48-36-39.08-46.75A69.86,69.86,0,0,0,138.1,63c-3.44-1.2-7.75,1.36-8.54,4.84a7.11,7.11,0,0,0,4.85,8.54c.84.29,1.67.6,2.5.93.28.11,1.64.68.41.16s.41.19.7.33c1.62.74,3.21,1.56,4.76,2.44s3,1.79,4.44,2.76c.7.48,1.39,1,2.08,1.47l1.09.82c.86.64-.57-.45-.59-.46a8.19,8.19,0,0,1,.67.53,84,84,0,0,1,8,7.4q2,2.06,3.8,4.22c.58.69,1.15,1.38,1.71,2.08l.9,1.12c.46.58-.62-.76-.54-.69a6.22,6.22,0,0,1,.66.87,128.9,128.9,0,0,1,12.18,19.81c.9,1.79,1.76,3.59,2.59,5.42.39.85.77,1.71,1.15,2.57.09.23.82,1.94.31.73-.44-1-.09-.22,0,0l.36.87q2.24,5.46,4.07,11.07a148.13,148.13,0,0,1,6.32,26.5l-.25-1.84a122.35,122.35,0,0,1-.05,32l.25-1.85a124.87,124.87,0,0,1-6.15,25.19c-.37,1-.75,2-1.15,3-.17.44-.34.89-.52,1.33-.1.25-.2.5-.31.75-.41,1-.07.16.15-.34-.87,2-1.74,4-2.7,5.93A123.7,123.7,0,0,1,174.94,243q-1.75,2.79-3.65,5.47c-.6.84-1.2,1.67-1.82,2.5-.14.18-1.33,1.73-.58.78s.07-.1-.09.11l-.61.77a114.45,114.45,0,0,1-8.37,9.37,118,118,0,0,1-9.49,8.39c.08-.06,1.37-1,.46-.36l-.64.47-1.12.83c-.92.65-1.84,1.3-2.78,1.92-1.77,1.18-3.59,2.29-5.44,3.34-2.09,1.18-4.24,2.26-6.43,3.26l-1.47.64c2-.92-.06,0-.58.22-1.13.44-2.27.86-3.42,1.25a75.72,75.72,0,0,1-14.08,3.27l1.84-.24a85.83,85.83,0,0,1-22.53-.11l1.84.25a94.7,94.7,0,0,1-13.12-2.76q-3.24-.93-6.4-2.07c-.95-.35-1.9-.71-2.85-1.09l-1.5-.62c2.06.78-.07,0-.58-.27A93.38,93.38,0,0,1,59.78,272c-1.81-1.14-3.59-2.35-5.31-3.62l-1.3-1c-.92-.69.36.27.44.34-.2-.17-.42-.33-.63-.5-.9-.71-1.78-1.43-2.65-2.17a102.36,102.36,0,0,1-9.45-9.18c-1.46-1.62-2.88-3.28-4.24-5-.33-.42-1.33-1.87-.13-.15-.3-.43-.64-.84-1-1.27-.62-.84-1.24-1.7-1.85-2.56a111.92,111.92,0,0,1-6.8-11.06q-1.53-2.85-2.91-5.78c-.44-.95-.87-1.9-1.28-2.85-.11-.24-.21-.48-.31-.72-.31-.7.36.84.32.76-.29-.58-.5-1.21-.74-1.81a118.24,118.24,0,0,1-7.28-27.87l.25,1.85a122.83,122.83,0,0,1,0-32.28l-.25,1.84a125.56,125.56,0,0,1,6.47-26.26c.37-1,.77-2.08,1.17-3.11.2-.49.39-1,.59-1.45.1-.24.21-.48.3-.73-.73,2-.27.64-.09.22q1.32-3.06,2.8-6a124.59,124.59,0,0,1,6.78-12q1.82-2.82,3.78-5.55c.7-1,1.45-1.88,2.13-2.85,0,.08-1.06,1.35-.35.46l.49-.62L40,109.61A121.18,121.18,0,0,1,49.44,99.4q2.56-2.5,5.3-4.85c.83-.71,1.67-1.42,2.53-2.11l1.28-1c.9-.72-.33.26-.42.33.33-.24.65-.51,1-.75a106.24,106.24,0,0,1,12.15-7.91q3.48-1.93,7.09-3.57c.63-.29,1.31-.52,1.91-.85-1.48.82-.93.39-.49.21l1.17-.47c1.24-.49,2.49-1,3.75-1.39a88.16,88.16,0,0,1,17-4.06l-1.85.24a84.12,84.12,0,0,1,21.85-.09l-1.84-.25a75.74,75.74,0,0,1,14.33,3.36c3.44,1.18,7.74-1.35,8.54-4.85a7.11,7.11,0,0,0-4.85-8.53Z"/><path class="cls-3" d="M199.55,155.09c-8-35.3-28.66-74.35-60.61-85.38l-.19-.19a77,77,0,0,0-29.57-3.9c2,.27,4.09.59,6.12,1,17.41,3.46,34.37,12.37,46.12,26l.08.26c22,25.6,20.23,69.71,9.35,104.19a122.07,122.07,0,0,1-71.33,76.21,101.89,101.89,0,0,1-36,7.42c20.12,11.16,44.88,15.27,66.8,8.91,18.83-5.47,34.36-18,45.93-32.7A122.22,122.22,0,0,0,199.55,155.09Z"/><path class="cls-2" d="M137.9,62.83c-24.4-8.36-51.82-4-74,8.46-20.06,11.26-36.67,28.92-47.66,49A132.26,132.26,0,0,0,0,184.69a124.84,124.84,0,0,0,18.24,64,111.22,111.22,0,0,0,21.81,25.84,104.68,104.68,0,0,0,30.62,18.37,97.85,97.85,0,0,0,34.15,6.67,85.5,85.5,0,0,0,35.09-7.08c20.92-9,37.78-26.52,49.13-46a130.26,130.26,0,0,0,17.64-66.78c-.29-22-6.64-43.89-16.08-63.69-8.76-18.37-21.48-36-39.08-46.75A69.86,69.86,0,0,0,138.1,63c-3.44-1.2-7.75,1.36-8.54,4.84a7.11,7.11,0,0,0,4.85,8.54c.84.29,1.67.6,2.5.93.28.11,1.64.68.41.16s.41.19.7.33c1.62.74,3.21,1.56,4.76,2.44s3,1.79,4.44,2.76c.7.48,1.39,1,2.08,1.47l1.09.82c.86.64-.57-.45-.59-.46a8.19,8.19,0,0,1,.67.53,84,84,0,0,1,8,7.4q2,2.06,3.8,4.22c.58.69,1.15,1.38,1.71,2.08l.9,1.12c.46.58-.62-.76-.54-.69a6.22,6.22,0,0,1,.66.87,128.9,128.9,0,0,1,12.18,19.81c.9,1.79,1.76,3.59,2.59,5.42.39.85.77,1.71,1.15,2.57.09.23.82,1.94.31.73-.44-1-.09-.22,0,0l.36.87q2.24,5.46,4.07,11.07a148.13,148.13,0,0,1,6.32,26.5l-.25-1.84a122.35,122.35,0,0,1-.05,32l.25-1.85a124.87,124.87,0,0,1-6.15,25.19c-.37,1-.75,2-1.15,3-.17.44-.34.89-.52,1.33-.1.25-.2.5-.31.75-.41,1-.07.16.15-.34-.87,2-1.74,4-2.7,5.93A123.7,123.7,0,0,1,174.94,243q-1.75,2.79-3.65,5.47c-.6.84-1.2,1.67-1.82,2.5-.14.18-1.33,1.73-.58.78s.07-.1-.09.11l-.61.77a114.45,114.45,0,0,1-8.37,9.37,118,118,0,0,1-9.49,8.39c.08-.06,1.37-1,.46-.36l-.64.47-1.12.83c-.92.65-1.84,1.3-2.78,1.92-1.77,1.18-3.59,2.29-5.44,3.34-2.09,1.18-4.24,2.26-6.43,3.26l-1.47.64c2-.92-.06,0-.58.22-1.13.44-2.27.86-3.42,1.25a75.72,75.72,0,0,1-14.08,3.27l1.84-.24a85.83,85.83,0,0,1-22.53-.11l1.84.25a94.7,94.7,0,0,1-13.12-2.76q-3.24-.93-6.4-2.07c-.95-.35-1.9-.71-2.85-1.09l-1.5-.62c2.06.78-.07,0-.58-.27A93.38,93.38,0,0,1,59.78,272c-1.81-1.14-3.59-2.35-5.31-3.62l-1.3-1c-.92-.69.36.27.44.34-.2-.17-.42-.33-.63-.5-.9-.71-1.78-1.43-2.65-2.17a102.36,102.36,0,0,1-9.45-9.18c-1.46-1.62-2.88-3.28-4.24-5-.33-.42-1.33-1.87-.13-.15-.3-.43-.64-.84-1-1.27-.62-.84-1.24-1.7-1.85-2.56a111.92,111.92,0,0,1-6.8-11.06q-1.53-2.85-2.91-5.78c-.44-.95-.87-1.9-1.28-2.85-.11-.24-.21-.48-.31-.72-.31-.7.36.84.32.76-.29-.58-.5-1.21-.74-1.81a118.24,118.24,0,0,1-7.28-27.87l.25,1.85a122.83,122.83,0,0,1,0-32.28l-.25,1.84a125.56,125.56,0,0,1,6.47-26.26c.37-1,.77-2.08,1.17-3.11.2-.49.39-1,.59-1.45.1-.24.21-.48.3-.73-.73,2-.27.64-.09.22q1.32-3.06,2.8-6a124.59,124.59,0,0,1,6.78-12q1.82-2.82,3.78-5.55c.7-1,1.45-1.88,2.13-2.85,0,.08-1.06,1.35-.35.46l.49-.62L40,109.61A121.18,121.18,0,0,1,49.44,99.4q2.56-2.5,5.3-4.85c.83-.71,1.67-1.42,2.53-2.11l1.28-1c.9-.72-.33.26-.42.33.33-.24.65-.51,1-.75a106.24,106.24,0,0,1,12.15-7.91q3.48-1.93,7.09-3.57c.63-.29,1.31-.52,1.91-.85-1.48.82-.93.39-.49.21l1.17-.47c1.24-.49,2.49-1,3.75-1.39a88.16,88.16,0,0,1,17-4.06l-1.85.24a84.12,84.12,0,0,1,21.85-.09l-1.84-.25a75.74,75.74,0,0,1,14.33,3.36c3.44,1.18,7.74-1.35,8.54-4.85a7.11,7.11,0,0,0-4.85-8.53Z"/><ellipse class="cls-4" cx="140.22" cy="311.7" rx="34.59" ry="20.63"/><path class="cls-3" d="M167.53,309.62c-2.11-6.85-9.43-15.43-22.46-20.05l-.08-.05a76.72,76.72,0,0,0-12.28-3.17c.85.22,1.69.45,2.54.69,7.19,2.07,14,5.06,18.46,8.44l0,0c8.35,6.34,6.05,13.92.28,19s-17.92,7.86-32.64,7.36A98.83,98.83,0,0,1,106,320.2a87,87,0,0,0,27.75,7.18,57,57,0,0,0,20.43-1.87C164.68,322.39,169.64,316.48,167.53,309.62Z"/><ellipse class="cls-5" cx="138.68" cy="310.93" rx="34.59" ry="20.63"/><ellipse class="cls-4" cx="68.86" cy="311.7" rx="34.59" ry="20.63"/><path class="cls-3" d="M96.17,309.62c-2.11-6.85-9.43-15.43-22.46-20.05l-.08-.05a76.72,76.72,0,0,0-12.28-3.17c.85.22,1.69.45,2.54.69,7.18,2.07,14,5.06,18.46,8.44l0,0c8.35,6.34,6,13.92.27,19S64.73,322.43,50,321.93a98.83,98.83,0,0,1-15.37-1.73,87,87,0,0,0,27.74,7.18,57.06,57.06,0,0,0,20.44-1.87C93.32,322.39,98.28,316.48,96.17,309.62Z"/><ellipse class="cls-5" cx="67.32" cy="310.93" rx="34.59" ry="20.63"/><path class="cls-1" d="M215.09,17.29c-5.74-5.91-16.2-9.47-26.87-10.2a83.09,83.09,0,0,0-31.06,4.25c-23.52,7.66-35.44,36-40.6,52.54l-.72.95L116,65c9.77-8.67,25-20.23,38.78-21.14,10.43-.68,20.92.55,31.39.42s21.74-2,28.23-7.34S220.84,23.19,215.09,17.29Z"/><path class="cls-2" d="M220,12.38c-7.89-8-19.62-11.15-30.48-12.13A80.53,80.53,0,0,0,170.91,1a87.6,87.6,0,0,0-16.22,3.85c-16.91,5.82-28.7,20.41-36.39,36-2,4.11-3.84,8.35-5.47,12.63q-1,2.64-1.91,5.31c-.26.78-.52,1.57-.77,2.35-.06.19-.13.38-.18.57-.21.79,1-1.78.48-1.17-.22.24-.4.54-.6.8a6.3,6.3,0,0,0-.83,4.42,6.78,6.78,0,0,0,1.91,4l.17.16a7.08,7.08,0,0,0,9.81,0c2.5-2.21,5.08-4.32,7.69-6.41-1.67,1.33-.37.29,0,0l1.13-.84,2.14-1.54c1.51-1.06,3.05-2.09,4.62-3.06s3-1.84,4.61-2.67c.84-.45,1.69-.87,2.54-1.28.36-.18.73-.35,1.09-.51s2.23-.71.18-.1c1.61-.48,3.15-1.21,4.77-1.68a37.73,37.73,0,0,1,5.13-1.08L153,51c6.66-.82,13.51-.34,20.19-.07a149.92,149.92,0,0,0,19.77,0c12.51-1.13,27.54-4.78,32.42-17.9,2.69-7.25-.25-15.26-5.35-20.61a7,7,0,0,0-9.81,0,7.07,7.07,0,0,0,0,9.81L211,23c.94,1-.93-1.35-.18-.24a18.3,18.3,0,0,1,1.12,1.83c.29.57.39,1.52-.12-.39.09.32.24.64.34,1a14.5,14.5,0,0,1,.45,1.95l-.25-1.84a12.78,12.78,0,0,1,0,3.27l.25-1.85a12.42,12.42,0,0,1-.33,1.61c-.09.35-.71,1.95-.21.75s-.24.37-.44.71-.34.49-.49.74c-.43.68,1-1.14.41-.54s-.83.94-1.3,1.38c-.2.18-.39.36-.6.53-.88.75.23,0,.45-.33a10.06,10.06,0,0,1-2.81,1.77c-.48.25-1,.5-1.47.73-.22.1-.45.19-.67.3,1.82-.87.89-.38.43-.21a35,35,0,0,1-3.5,1.16,56.68,56.68,0,0,1-7.63,1.55l1.85-.25c-12.58,1.67-25.22-.21-37.84.12a48.14,48.14,0,0,0-17,3.28,82.72,82.72,0,0,0-15.7,8.51A151.84,151.84,0,0,0,111.1,60.09h9.81l-.16-.17,1.08,8.41c1.42-1.87,1.93-4.26,2.69-6.47s1.59-4.48,2.47-6.69l.66-1.62c.48-1.16-.42,1-.24.56s.28-.64.41-1c.53-1.21,1.08-2.42,1.65-3.62q1.72-3.64,3.72-7.16c1.37-2.4,2.84-4.75,4.42-7,.41-.58.82-1.16,1.24-1.72l.6-.79c.43-.59-.67.88-.59.76a4.92,4.92,0,0,1,.41-.52c.88-1.11,1.79-2.19,2.75-3.24a56.08,56.08,0,0,1,6-5.75l.76-.61c.56-.47-.87.69-.76.59a2.88,2.88,0,0,1,.39-.3c.61-.45,1.22-.89,1.85-1.32,1.13-.75,2.28-1.46,3.47-2.12q1.08-.59,2.19-1.11l1-.48c1-.44-1.62.64-.29.13,1.76-.67,3.54-1.25,5.35-1.77a92.38,92.38,0,0,1,13.05-2.78l-1.84.25a72.32,72.32,0,0,1,18.88-.16l-1.85-.25A56.39,56.39,0,0,1,203,17.45c.49.2.24.09-.75-.32l.72.32c.47.21.93.43,1.39.67q1.33.68,2.61,1.47c.41.25.82.52,1.21.8s1.55,1.47,0,0c.65.64,1.38,1.18,2,1.83A6.94,6.94,0,0,0,220,12.38Z"/><path class="cls-3" d="M210.59,11.35A15.14,15.14,0,0,1,207.34,20c-5.22,6.75-15.45,10.52-25.19,12.34s-19.73,2.17-29.34,4.57a35.6,35.6,0,0,0-12.88,6.78,17.1,17.1,0,0,1,3.23,4.26,33.35,33.35,0,0,1,12.17-4.59C165.11,42,175.09,42.7,185,42s20.37-3.39,26.14-9.54S216.27,17.37,210.59,11.35Z"/><path class="cls-2" d="M220,12.38c-7.89-8-19.62-11.15-30.48-12.13A80.53,80.53,0,0,0,170.91,1a87.6,87.6,0,0,0-16.22,3.85c-16.91,5.82-28.7,20.41-36.39,36-2,4.11-3.84,8.35-5.47,12.63q-1,2.64-1.91,5.31c-.26.78-.52,1.57-.77,2.35-.06.19-.13.38-.18.57-.21.79,1-1.78.48-1.17-.22.24-.4.54-.6.8a6.3,6.3,0,0,0-.83,4.42,6.78,6.78,0,0,0,1.91,4l.17.16a7.08,7.08,0,0,0,9.81,0c2.5-2.21,5.08-4.32,7.69-6.41-1.67,1.33-.37.29,0,0l1.13-.84,2.14-1.54c1.51-1.06,3.05-2.09,4.62-3.06s3-1.84,4.61-2.67c.84-.45,1.69-.87,2.54-1.28.36-.18.73-.35,1.09-.51s2.23-.71.18-.1c1.61-.48,3.15-1.21,4.77-1.68a37.73,37.73,0,0,1,5.13-1.08L153,51c6.66-.82,13.51-.34,20.19-.07a149.92,149.92,0,0,0,19.77,0c12.51-1.13,27.54-4.78,32.42-17.9,2.69-7.25-.25-15.26-5.35-20.61a7,7,0,0,0-9.81,0,7.07,7.07,0,0,0,0,9.81L211,23c.94,1-.93-1.35-.18-.24a18.3,18.3,0,0,1,1.12,1.83c.29.57.39,1.52-.12-.39.09.32.24.64.34,1a14.5,14.5,0,0,1,.45,1.95l-.25-1.84a12.78,12.78,0,0,1,0,3.27l.25-1.85a12.42,12.42,0,0,1-.33,1.61c-.09.35-.71,1.95-.21.75s-.24.37-.44.71-.34.49-.49.74c-.43.68,1-1.14.41-.54s-.83.94-1.3,1.38c-.2.18-.39.36-.6.53-.88.75.23,0,.45-.33a10.06,10.06,0,0,1-2.81,1.77c-.48.25-1,.5-1.47.73-.22.1-.45.19-.67.3,1.82-.87.89-.38.43-.21a35,35,0,0,1-3.5,1.16,56.68,56.68,0,0,1-7.63,1.55l1.85-.25c-12.58,1.67-25.22-.21-37.84.12a48.14,48.14,0,0,0-17,3.28,82.72,82.72,0,0,0-15.7,8.51A151.84,151.84,0,0,0,111.1,60.09h9.81l-.16-.17,1.08,8.41c1.42-1.87,1.93-4.26,2.69-6.47s1.59-4.48,2.47-6.69l.66-1.62c.48-1.16-.42,1-.24.56s.28-.64.41-1c.53-1.21,1.08-2.42,1.65-3.62q1.72-3.64,3.72-7.16c1.37-2.4,2.84-4.75,4.42-7,.41-.58.82-1.16,1.24-1.72l.6-.79c.43-.59-.67.88-.59.76a4.92,4.92,0,0,1,.41-.52c.88-1.11,1.79-2.19,2.75-3.24a56.08,56.08,0,0,1,6-5.75l.76-.61c.56-.47-.87.69-.76.59a2.88,2.88,0,0,1,.39-.3c.61-.45,1.22-.89,1.85-1.32,1.13-.75,2.28-1.46,3.47-2.12q1.08-.59,2.19-1.11l1-.48c1-.44-1.62.64-.29.13,1.76-.67,3.54-1.25,5.35-1.77a92.38,92.38,0,0,1,13.05-2.78l-1.84.25a72.32,72.32,0,0,1,18.88-.16l-1.85-.25A56.39,56.39,0,0,1,203,17.45c.49.2.24.09-.75-.32l.72.32c.47.21.93.43,1.39.67q1.33.68,2.61,1.47c.41.25.82.52,1.21.8s1.55,1.47,0,0c.65.64,1.38,1.18,2,1.83A6.94,6.94,0,0,0,220,12.38Z"/><rect class="cls-6" x="49.18" y="121.36" width="108.19" height="50.18" rx="5.4"/><circle class="cls-7" cx="89.9" cy="149.07" r="4.46"/><circle class="cls-7" cx="63.16" cy="149.07" r="4.46"/><circle class="cls-7" cx="71.08" cy="140.15" r="4.46"/><circle class="cls-7" cx="81.98" cy="140.15" r="4.46"/><circle class="cls-7" cx="143.39" cy="149.07" r="4.46"/><circle class="cls-7" cx="116.65" cy="149.07" r="4.46"/><circle class="cls-7" cx="124.57" cy="140.15" r="4.46"/><circle class="cls-7" cx="135.47" cy="140.15" r="4.46"/><g id="Laag_2" data-name="Laag 2"><path class="cls-8" d="M151.62,243.32c-3.7,9.76-11.16,15.06-14.66,17.48-10.53,7.27-21.22,8-28.15,8.44S71.75,271.42,61.54,253a24.18,24.18,0,0,1-2.9-15.18c2.34-14.52,20.18-26.57,36.15-26.63,17.82-.07,26.11,14.85,40.44,9.83,7.05-2.47,9.27-7.57,13.05-6.21,5.88,2.11,7.67,17.06,3.34,28.48"/><path class="cls-9" d="M133,249.16a19.58,19.58,0,0,1-7.65,9.12c-5.5,3.8-11.08,4.2-14.7,4.41S91.31,263.83,86,254.23a12.59,12.59,0,0,1-1.52-7.93c1.23-7.58,10.54-13.87,18.88-13.9,9.3,0,13.63,7.75,21.11,5.13,3.69-1.29,4.85-3.95,6.82-3.24,3.07,1.1,4,8.91,1.74,14.87"/><path class="cls-8" d="M127.69,251.94c-5.57,3.79-11.23,4.18-14.9,4.39-3.3.19-16.63.95-23.17-6a13.68,13.68,0,0,0,.69,1.78c4.48,9.55,18,8.46,21.11,8.22a21.5,21.5,0,0,0,16.75-8.75Z"/><path class="cls-8" d="M74.35,189.58c-1.51,1.2-2,1.25-2.86,1.9-4,3.08-3.35,10.25-3.26,11.29a18.91,18.91,0,0,0,2.29,7.42c5.73,10.24,22.25,16.22,33.6,11a21,21,0,0,0,5.37-3.65c.36-.33,8.39-8,7.33-19.05s-11-20.67-20.77-20.92a24,24,0,0,0-14.28,5A45.56,45.56,0,0,0,78,186a17.86,17.86,0,0,1-3.63,3.59"/><path class="cls-8" d="M74.35,189.58c-1.51,1.2-2,1.25-2.86,1.9-4,3.08-3.35,10.25-3.26,11.29a18.91,18.91,0,0,0,2.29,7.42c5.73,10.24,22.25,16.22,33.6,11a21,21,0,0,0,5.37-3.65c.36-.33,8.39-8,7.33-19.05s-11-20.67-20.77-20.92a24,24,0,0,0-14.28,5A45.56,45.56,0,0,0,78,186a17.86,17.86,0,0,1-3.63,3.59"/><path class="cls-10" d="M60.05,197.92a8.3,8.3,0,0,1,4.68-2.58c2.48-.56,4.43.06,6.72.77,2.9.89,5.31,1.64,5.94,3.57.3.93,0,1.91-.64,3.87s-1.15,3.55-2.68,4.9a6,6,0,0,1-3.55,1.73c-3.2.2-3.71-3.44-9-5.64-1.65-.67-2.72-.76-3.15-1.78-.8-1.91,1.56-4.66,1.72-4.84"/><path class="cls-10" d="M59.06,191.52a9.82,9.82,0,0,0,.88,5.54,12.37,12.37,0,0,0,4.61,5.25c2.75,1.93,8.64,4.82,11.27,2.31a4.51,4.51,0,0,0,1.12-4.44c-.42-1-1.19-.93-2-1.89-1.73-2.15.35-4.79-.9-6.68-1.65-2.5-6.63.33-9.17-2.85-1.11-1.39-1-2.75-1.87-2.92-1.41-.27-3.5,2.71-4,5.68"/><path class="cls-11" d="M75.87,204.23c-2.62,2.51-8.52-.38-11.27-2.31A12.37,12.37,0,0,1,60,196.67a10.13,10.13,0,0,1-1-4.57,10,10,0,0,0,.91,5.07,12.21,12.21,0,0,0,4.51,5.25c2.69,1.93,8.46,4.81,11,2.29a3.77,3.77,0,0,0,.44-.52Z"/><path class="cls-1" d="M78.3,193.38c.52,1.69,2.76,2.59,4.54,2.42,2.9-.27,4.2-3.35,4.43-3.89.36-.84.91-2.14.32-3.18-.86-1.5-3.51-1.35-4.77-1.07a6.25,6.25,0,0,0-4.16,3.23,3.55,3.55,0,0,0-.36,2.49"/><path class="cls-12" d="M78.83,193a2.15,2.15,0,0,0,2.26,1.21,3,3,0,0,0,2.22-1.94,1.87,1.87,0,0,0,.16-1.59c-.43-.75-1.75-.67-2.39-.53A3.1,3.1,0,0,0,79,191.75a1.74,1.74,0,0,0-.17,1.24"/><path class="cls-11" d="M69,193.34a.86.86,0,0,0,.37,1,1.21,1.21,0,0,0,1.18,0c.17-.08.42-.21.47-.44s-.35-.67-.58-.8a1.3,1.3,0,0,0-1.06-.06.72.72,0,0,0-.38.33"/></g><ellipse class="cls-13" cx="168.92" cy="236.2" rx="36.5" ry="17.75" transform="translate(-79.16 85.26) rotate(-23.11)"/><path class="cls-3" d="M136.88,249.16c1.45-6.59,7.55-16.65,19.17-25.59l.07-.07a111.44,111.44,0,0,1,11-7.43q-1.14.77-2.28,1.56c-6.44,4.53-12.48,9.69-16.33,14.26l0,.06c-7.21,8.57-4.56,14.05,1.11,16.13s17-.33,30.46-6.46a131.79,131.79,0,0,0,14-7.42,125.26,125.26,0,0,1-25,16.8,64.66,64.66,0,0,1-18.88,6.36C140.4,258.8,135.43,255.75,136.88,249.16Z"/><ellipse class="cls-14" cx="168.92" cy="236.2" rx="36.5" ry="17.75" transform="translate(-84.89 95.12) rotate(-25.36)"/><ellipse class="cls-15" cx="39.03" cy="231.38" rx="18.46" ry="36.7" transform="translate(-170.48 125.71) rotate(-53.66)"/><path class="cls-3" d="M67.54,251.12c-6.09,2.59-17.21,3.28-30-1.34l-.09,0a92.37,92.37,0,0,1-11.28-5c.78.35,1.56.69,2.35,1,6.75,2.81,13.82,4.92,19.38,5.51l0,0C58.36,252.37,61.62,247,60.67,241S52.43,226.83,41.07,219a109.67,109.67,0,0,0-12.65-7.49,103.45,103.45,0,0,1,25.5,11.3A55,55,0,0,1,68,235.08C73.8,242.56,73.64,248.52,67.54,251.12Z"/><ellipse class="cls-16" cx="39.03" cy="231.38" rx="18.46" ry="36.7" transform="translate(-170.48 125.71) rotate(-53.66)"/></g></g></svg>