<?xml version="1.0" encoding="utf-8"?>
<!-- Generator: Adobe Illustrator 27.8.1, SVG Export Plug-In . SVG Version: 6.00 Build 0)  -->
<svg version="1.1" xmlns="http://www.w3.org/2000/svg" xmlns:xlink="http://www.w3.org/1999/xlink" x="0px" y="0px"
	 viewBox="0 0 841.89 1190.55" style="enable-background:new 0 0 841.89 1190.55;" xml:space="preserve">
<style type="text/css">
	.st0{display:none;}
	.st1{display:inline;fill:#C8C8C8;stroke:#000000;stroke-miterlimit:10;}
	.st2{display:inline;}
	.st3{fill:#FFFFFF;}
	.st4{display:inline;fill:#FFFFFF;}
	.st5{fill:#E30613;}
	.st6{fill:#4E4D4D;stroke:#4E4D4D;stroke-width:21;stroke-miterlimit:10;}
	.st7{display:none;fill:#CDCCCC;}
	.st8{fill:#4E4D4D;}
	.st9{fill:#FFFFFF;stroke:#4E4D4D;stroke-width:19.6069;stroke-miterlimit:10;}
	.st10{fill:#CDCCCC;}
	.st11{fill:#020203;stroke:#020203;stroke-width:7.8427;stroke-miterlimit:10;}
	.st12{fill:none;stroke:#4E4D4D;stroke-width:19.6069;stroke-miterlimit:10;}
	.st13{fill:#FFCC07;}
	.st14{opacity:0.3;fill:#471621;}
	.st15{opacity:0.3;}
	.st16{fill:#471621;}
</style>
<g id="background" class="st0">
	<rect x="1" y="-1" class="st1" width="846" height="1195"/>
</g>
<g id="Layer_3" class="st0">
	<g class="st2">
		<path class="st3" d="M506.21,1014.31c-36.45,0-69.89-10.65-91.32-28.46c-21.43,17.81-54.87,28.46-91.32,28.46
			c-64.7,0-115.38-32.73-115.38-74.52c0-7.91,1.82-15.63,5.37-22.94c-5.74-0.8-12.36-1.36-20.14-1.5
			c-5.35-0.1-10.45-0.15-15.16-0.15c-33.53,0-55.58,2.65-69.39,8.34l-24.25,9.98l44.02-229.87l0.07-0.65
			c0.49-4.4,1.63-11.73,3.08-21.01c2.13-13.62,4.78-30.57,6.16-43.68c0.45-4.3,0.67-7.52,0.84-10.11c0.37-5.56,0.66-9.96,3.33-14.39
			c1.28-2.13,2.8-3.75,4.46-5.06c0.14-8.47,0.59-16.98,1.37-25.47c-0.66-0.57-1.29-1.18-1.89-1.82c-4.17-4.55-6.27-10.68-5.75-16.82
			c6.56-77.88,32.21-138.6,83.17-196.9c11.89-13.6,56.18-59.58,126.88-80.19c24.57-7.16,48.91-11.07,72.35-11.62
			c1.91-0.04,3.81-0.07,5.72-0.07c12.92,0,25.9,1.03,38.71,3.06c14.54-26.76,30.3-49.48,46.94-67.65
			c24.59-26.85,51.24-43.85,79.19-50.52c19.76-4.72,39.39-7.11,58.34-7.11c14.06,0,27.75,1.34,40.67,3.98
			c36.65,7.5,67.89,26.25,83.57,50.17c19.2,29.29,13.45,65.05-13.66,85.05c-16.71,12.32-40.31,18.57-70.14,18.57
			c-8.21,0-16.84-0.49-25.66-1.45c-13.24-1.45-26.38-3.72-39.09-5.91c-17.89-3.09-34.79-6.01-51.93-6.83
			c-0.92-0.04-1.87-0.07-2.81-0.07c-8.95,0-18.98,1.94-30.01,5.8c36.91,17.67,68.23,42.23,90.09,70.99
			c33.39,43.95,47.44,99.88,57.65,153.78c0.46,2.43,0.84,4.42,1.16,6.09c1.65,8.6,1.78,9.3,2.26,15.8c0.22,3,0.56,7.52,1.31,15.76
			c0.57,6.19-1.51,12.37-5.69,16.96c-0.68,0.74-1.4,1.43-2.16,2.07c0.43,6.04,0.7,12.12,0.81,18.19c6.76,8.87,7.88,15.54,8.68,24.15
			c0.1,1.04,0.2,2.14,0.33,3.33c0.76,5.95,1.56,11.91,2.35,17.86l0.31,2.32c0.41,2.81,0.82,5.62,1.23,8.41
			c2.38,16.2,4.43,30.21,4.3,37.99c2.35,24.96,4.93,49.32,10.29,72.86c5.14,22.53,12.96,44.66,23.25,65.77
			c9.19,18.84,31.2,53.18,37.72,63.25c2.9,4.5,3.12,10.19,0.57,14.86c-2.55,4.68-7.44,7.58-12.77,7.58c0,0-0.67,0-0.67,0l-0.7-0.06
			c-0.8-0.07-4.28-0.19-10.56-0.19l-1.01,0c-1.42,0.03-2.86,0.05-4.29,0.05c-6.75,0-13.58-0.36-20.32-1.06
			c-6.21-0.65-12.37-1.51-18.33-2.34c-8.94-1.25-17.38-2.44-25.87-2.93c-2.93-0.17-5.91-0.26-8.85-0.26
			c-8.6,0-17.29,0.73-25.81,2.17c-6.22,1.05-12.44,2.94-19.02,4.95c-3.16,0.96-6.38,1.94-9.67,2.85c1.64,5.12,2.47,10.37,2.47,15.65
			C621.59,981.58,570.91,1014.31,506.21,1014.31z"/>
	</g>
	<path class="st4" d="M751.3,906.54"/>
</g>
<g id="Elas">
	<path class="st5" d="M155.5,638.63c87.7-2.7,175.43-4.9,263.11-8.1c87.23-3.18,174.46-6.37,263.11-8.1
		c3.02,24.94,6.91,49.98,9.26,74.93c2.37,25.22,5,50.52,10.64,75.26c5.42,23.78,13.64,46.91,24.33,68.83
		c10.92,22.4,25.09,42.92,38.17,64.07c0.29,0.47,0.58,0.94,0.87,1.4c-0.28-0.45-0.89-0.58-1.36-0.7c-1.1-0.27-2.25-0.28-3.38-0.28
		c-1.07,0-2.14,0.05-3.2,0.11c-1.78,0.11-3.55,0.3-5.33,0.43c-0.21,0.02-0.42,0.03-0.64,0.04c-7.69,0.17-15.29-0.14-22.94-0.93
		c-14.97-1.56-29.8-4.45-44.84-5.33c-12.64-0.74-25.37-0.02-37.85,2.09c-12.69,2.15-24.54,7.09-36.92,9.8
		c-27.04,5.92-54.69,8.77-82.32,9.93c-59.98,2.51-119.89-3-179.64-7.51c-32.38-2.44-64.89-4.81-97.39-4.18
		c-6.55,0.13-20.48-8.6-55.51-9.25c-40.68-0.76-70.55,1.16-90.21,9.25"/>
	<path class="st5" d="M134.69,726.53"/>
	<g id="Elas_00000102531572609040720950000018404664884731958198_">
		<ellipse id="Opvulling" class="st6" cx="410.5" cy="914" rx="41.5" ry="17"/>
		<ellipse class="st7" cx="419" cy="995.8" rx="323.72" ry="65.38"/>
		<g>
			<path class="st3" d="M502.49,318.17c-44.29-15.33-94.08-13.13-137.7,1.89c-43.62,15.02-81.31,42.21-111.54,74.71
				c-73.98,79.54-103.2,193.23-76.34,297.05c16.13,62.35,52.59,121.81,107.97,161.05S415.32,908.96,480.65,890
				c48.91-14.2,89.26-46.81,119.31-84.94c58.7-74.49,81.18-172.88,60.46-264.59S585.99,347.34,503,318.67"/>
			<g>
				<path class="st8" d="M505.62,306.83c-61.97-21.24-131.48-10.13-187.8,21.59c-51.07,28.76-93.22,73.72-121.22,125
					c-27.42,50.23-41.96,107.49-41.25,164.74c0.71,56.94,16.58,113.81,46.54,162.33c15.15,24.53,33.88,47.08,55.74,65.91
					c23.13,19.92,49.21,35.47,77.7,46.43c27.46,10.57,57.01,16.39,86.45,16.72c30.2,0.34,59.85-5.63,87.56-17.54
					c53.57-23.02,96.62-67.69,125.61-117.54c29.84-51.33,45.58-110.86,44.77-170.25c-0.77-55.94-16.89-111.55-40.83-161.84
					c-22.31-46.86-54.55-92.08-99.54-119.47c-10.46-6.37-21.65-11.56-33.21-15.59c-5.82-2.03-13.12,2.3-14.47,8.22
					c-1.49,6.56,1.99,12.3,8.22,14.47c2.65,0.92,5.27,1.92,7.87,2.97c2.52,1.01-2.47-1.1,0.01,0c0.7,0.31,1.4,0.61,2.1,0.93
					c1.39,0.63,2.78,1.28,4.15,1.95c5.29,2.58,10.44,5.45,15.43,8.58c2.4,1.51,4.77,3.07,7.1,4.7c1.06,0.74,2.12,1.49,3.16,2.25
					c0.63,0.46,1.26,0.92,1.88,1.39c0.69,0.51,3.56,2.06,0.72,0.53c2.29,1.23,4.42,3.53,6.39,5.21c2.31,1.96,4.58,3.98,6.81,6.04
					c9.11,8.44,17.49,17.65,25.2,27.37c0.34,0.43,0.68,0.86,1.02,1.29c1.78,2.24-1.55-2.05,0.18,0.23c1,1.32,2,2.64,2.99,3.98
					c1.82,2.46,3.59,4.95,5.33,7.46c3.67,5.31,7.18,10.74,10.53,16.26c6.8,11.2,12.96,22.79,18.54,34.65
					c1.28,2.72,2.53,5.46,3.76,8.21c0.64,1.44,1.27,2.89,1.9,4.34c0.34,0.79,0.69,1.58,1.01,2.37c-1.19-2.89-0.05-0.11,0.14,0.36
					c2.52,6.08,4.9,12.23,7.14,18.42c8.92,24.63,16.08,50.2,19.97,76.13c0.14,0.92,0.27,1.85,0.4,2.77c0.08,0.57,0.37,2.3-0.04-0.36
					c0.29,1.84,0.47,3.7,0.68,5.55c0.42,3.7,0.77,7.41,1.05,11.12c0.52,6.8,0.81,13.61,0.89,20.42c0.16,14.22-0.66,28.46-2.43,42.57
					c-0.01,0.11-0.4,3.14-0.15,1.19c0.25-1.94-0.15,1.08-0.17,1.19c-0.26,1.84-0.54,3.67-0.83,5.5c-0.56,3.51-1.19,7.01-1.87,10.5
					c-1.33,6.83-2.89,13.62-4.66,20.34c-3.64,13.78-8.19,27.32-13.63,40.49c-0.24,0.57-0.47,1.15-0.72,1.72
					c1.17-2.71-0.09,0.18-0.28,0.62c-0.74,1.71-1.5,3.41-2.27,5.11c-1.42,3.11-2.88,6.2-4.4,9.27c-3.17,6.42-6.57,12.74-10.17,18.94
					c-3.62,6.22-7.44,12.31-11.47,18.27c-1.93,2.86-3.92,5.68-5.94,8.48c-0.92,1.27-1.86,2.54-2.8,3.79
					c-0.57,0.76-1.14,1.5-1.71,2.26c-0.8,1.05-0.77,1,0.11-0.14c-0.29,0.37-0.58,0.75-0.87,1.12c-8.45,10.76-17.62,20.96-27.5,30.42
					c-5.03,4.82-10.25,9.45-15.65,13.86c-1.18,0.96-2.37,1.9-3.56,2.85c-2.41,1.93,1.96-1.47-0.5,0.39
					c-0.73,0.55-1.45,1.1-2.18,1.65c-2.68,2-5.41,3.94-8.17,5.83c-11.46,7.81-23.91,15.34-36.91,20.33c2.77-1.06-0.15,0.06-0.6,0.24
					c-0.57,0.23-1.14,0.46-1.72,0.69c-1.72,0.68-3.46,1.34-5.2,1.98c-3.5,1.28-7.04,2.45-10.62,3.53
					c-6.44,1.94-12.98,3.53-19.59,4.78c-3.29,0.62-6.61,1.23-9.94,1.62c3.15-0.37,0.04-0.02-0.51,0.05
					c-0.91,0.11-1.82,0.21-2.73,0.31c-1.82,0.19-3.65,0.36-5.48,0.5c-7.03,0.55-14.09,0.75-21.14,0.61
					c-6.78-0.13-13.54-0.58-20.28-1.31c-0.92-0.1-1.84-0.21-2.76-0.32c-0.53-0.06-3.67-0.42-0.55-0.06
					c-1.53-0.18-3.06-0.44-4.59-0.68c-3.67-0.58-7.32-1.24-10.96-1.99c-13.96-2.87-27.68-6.96-40.94-12.18
					c-1.44-0.57-2.87-1.15-4.31-1.74c-2.91-1.19,2.26,1.01-0.61-0.26c-0.71-0.31-1.42-0.62-2.12-0.93
					c-3.25-1.44-6.46-2.95-9.64-4.53c-6.34-3.14-12.54-6.55-18.58-10.23c-6.02-3.66-11.87-7.6-17.54-11.78
					c-1.24-0.91-2.52-1.8-3.7-2.78c2.23,1.83-0.18-0.14-0.54-0.43c-0.72-0.57-1.45-1.15-2.17-1.73c-2.75-2.22-5.45-4.49-8.1-6.81
					c-10.41-9.13-20.08-19.09-28.95-29.73c-0.97-1.16-1.93-2.33-2.88-3.51c-0.57-0.71-1.13-1.42-1.7-2.13
					c-0.3-0.38-2.22-2.78-0.39-0.48c-2.25-2.83-4.36-5.79-6.45-8.74c-3.83-5.4-7.46-10.94-10.91-16.59
					c-7.16-11.76-13.49-24.03-18.94-36.67c-0.04-0.1-1.19-2.81-0.46-1.06c0.73,1.75-0.4-0.97-0.44-1.07
					c-0.68-1.65-1.34-3.31-1.99-4.97c-1.24-3.18-2.43-6.38-3.57-9.6c-2.21-6.27-4.22-12.62-6.01-19.03
					c-3.72-13.26-6.48-26.76-8.43-40.39c-0.31-2.19,0,0.11,0.06,0.46c-0.15-0.88-0.23-1.78-0.34-2.67c-0.2-1.63-0.38-3.26-0.56-4.9
					c-0.36-3.41-0.66-6.83-0.91-10.26c-0.5-6.84-0.76-13.69-0.81-20.55c-0.09-13.54,0.69-27.09,2.31-40.53
					c0.09-0.74,0.19-1.48,0.28-2.21c0.37-3.05-0.39,2.63,0.05-0.41c0.21-1.47,0.42-2.95,0.65-4.42c0.54-3.53,1.14-7.05,1.8-10.56
					c1.26-6.73,2.74-13.42,4.43-20.05c3.3-13,7.41-25.8,12.3-38.3c0.65-1.67,1.32-3.33,2-4.99c0.34-0.83,0.67-1.66,1.03-2.48
					c-0.15,0.34-1,2.32-0.14,0.33c1.43-3.29,2.89-6.57,4.41-9.82c2.93-6.24,6.05-12.38,9.37-18.42
					c6.52-11.87,13.79-23.33,21.76-34.28c1.07-1.47,2.15-2.92,3.24-4.37c0.36-0.48,0.73-0.96,1.1-1.45c1.85-2.46-1.53,1.92,0.38-0.5
					c2.25-2.86,4.53-5.7,6.87-8.49c4.52-5.39,9.21-10.63,14.08-15.71c9.74-10.17,20.15-19.71,31.18-28.46
					c0.74-0.59,1.48-1.17,2.23-1.75c-2.24,1.74,0.28-0.2,0.62-0.46c1.26-0.95,2.52-1.89,3.79-2.82c3.06-2.24,6.16-4.41,9.31-6.52
					c6.05-4.06,12.26-7.88,18.63-11.43c6.12-3.42,12.37-6.58,18.75-9.49c1.75-0.79,3.5-1.56,5.27-2.32c-2.33,1-0.3,0.13,0.29-0.11
					c0.74-0.3,1.48-0.61,2.23-0.9c3.59-1.43,7.2-2.78,10.86-4.03c7.36-2.53,14.85-4.69,22.44-6.46c3.65-0.85,7.32-1.61,11-2.28
					c1.68-0.31,3.36-0.59,5.04-0.86c1.01-0.16,2.03-0.3,3.04-0.46c2.84-0.44-1.67,0.18,0.93-0.13c15.64-1.88,31.4-2.33,47.11-0.87
					c1.7,0.16,3.4,0.34,5.1,0.54c0.39,0.05,3.79,0.5,0.94,0.1c1.02,0.14,2.03,0.29,3.04,0.45c3.71,0.57,7.41,1.25,11.09,2.04
					c7.36,1.58,14.6,3.61,21.72,6.05c5.83,2,13.12-2.28,14.47-8.22C515.32,314.76,511.85,308.97,505.62,306.83L505.62,306.83z"/>
			</g>
		</g>
		<g>
			<path class="st9" d="M483.37,865.98"/>
			<path class="st9" d="M573.22,919.56"/>
			<ellipse class="st9" cx="513.32" cy="941.5" rx="89.86" ry="53.58"/>
		</g>
		<g>
			<path class="st10" d="M667.42,540.46c-20.72-91.7-74.43-193.13-157.42-221.8l-0.51-0.49c-24.58-8.5-50.84-11.6-76.81-10.12
				c5.31,0.69,10.62,1.54,15.91,2.59c45.21,8.98,89.29,32.13,119.81,67.65l0.19,0.68c57.21,66.5,52.55,181.07,24.29,270.65
				c-28.25,89.58-97.16,163.2-185.3,197.97c-29.3,11.56-61.19,18.91-93.46,19.27c52.25,28.99,116.59,39.67,173.53,23.14
				c48.91-14.2,89.26-46.81,119.31-84.94C665.65,730.56,688.14,632.17,667.42,540.46z"/>
		</g>
		<g>
			<g>
				<path class="st8" d="M505.62,306.83c-61.97-21.24-131.48-10.13-187.8,21.59c-51.07,28.76-93.22,73.72-121.22,125
					c-27.42,50.23-41.96,107.49-41.25,164.74c0.71,56.94,16.58,113.81,46.54,162.33c15.15,24.53,33.88,47.08,55.74,65.91
					c23.13,19.92,49.21,35.47,77.7,46.43c27.46,10.57,57.01,16.39,86.45,16.72c30.2,0.34,59.85-5.63,87.56-17.54
					c53.57-23.02,96.62-67.69,125.61-117.54c29.84-51.33,45.58-110.86,44.77-170.25c-0.77-55.94-16.89-111.55-40.83-161.84
					c-22.31-46.86-54.55-92.08-99.54-119.47c-10.46-6.37-21.65-11.56-33.21-15.59c-5.82-2.03-13.12,2.3-14.47,8.22
					c-1.49,6.56,1.99,12.3,8.22,14.47c2.65,0.92,5.27,1.92,7.87,2.97c2.52,1.01-2.47-1.1,0.01,0c0.7,0.31,1.4,0.61,2.1,0.93
					c1.39,0.63,2.78,1.28,4.15,1.95c5.29,2.58,10.44,5.45,15.43,8.58c2.4,1.51,4.77,3.07,7.1,4.7c1.06,0.74,2.12,1.49,3.16,2.25
					c0.63,0.46,1.26,0.92,1.88,1.39c0.69,0.51,3.56,2.06,0.72,0.53c2.29,1.23,4.42,3.53,6.39,5.21c2.31,1.96,4.58,3.98,6.81,6.04
					c9.11,8.44,17.49,17.65,25.2,27.37c0.34,0.43,0.68,0.86,1.02,1.29c1.78,2.24-1.55-2.05,0.18,0.23c1,1.32,2,2.64,2.99,3.98
					c1.82,2.46,3.59,4.95,5.33,7.46c3.67,5.31,7.18,10.74,10.53,16.26c6.8,11.2,12.96,22.79,18.54,34.65
					c1.28,2.72,2.53,5.46,3.76,8.21c0.64,1.44,1.27,2.89,1.9,4.34c0.34,0.79,0.69,1.58,1.01,2.37c-1.19-2.89-0.05-0.11,0.14,0.36
					c2.52,6.08,4.9,12.23,7.14,18.42c8.92,24.63,16.08,50.2,19.97,76.13c0.14,0.92,0.27,1.85,0.4,2.77c0.08,0.57,0.37,2.3-0.04-0.36
					c0.29,1.84,0.47,3.7,0.68,5.55c0.42,3.7,0.77,7.41,1.05,11.12c0.52,6.8,0.81,13.61,0.89,20.42c0.16,14.22-0.66,28.46-2.43,42.57
					c-0.01,0.11-0.4,3.14-0.15,1.19c0.25-1.94-0.15,1.08-0.17,1.19c-0.26,1.84-0.54,3.67-0.83,5.5c-0.56,3.51-1.19,7.01-1.87,10.5
					c-1.33,6.83-2.89,13.62-4.66,20.34c-3.64,13.78-8.19,27.32-13.63,40.49c-0.24,0.57-0.47,1.15-0.72,1.72
					c1.17-2.71-0.09,0.18-0.28,0.62c-0.74,1.71-1.5,3.41-2.27,5.11c-1.42,3.11-2.88,6.2-4.4,9.27c-3.17,6.42-6.57,12.74-10.17,18.94
					c-3.62,6.22-7.44,12.31-11.47,18.27c-1.93,2.86-3.92,5.68-5.94,8.48c-0.92,1.27-1.86,2.54-2.8,3.79
					c-0.57,0.76-1.14,1.5-1.71,2.26c-0.8,1.05-0.77,1,0.11-0.14c-0.29,0.37-0.58,0.75-0.87,1.12c-8.45,10.76-17.62,20.96-27.5,30.42
					c-5.03,4.82-10.25,9.45-15.65,13.86c-1.18,0.96-2.37,1.9-3.56,2.85c-2.41,1.93,1.96-1.47-0.5,0.39
					c-0.73,0.55-1.45,1.1-2.18,1.65c-2.68,2-5.41,3.94-8.17,5.83c-11.46,7.81-23.91,15.34-36.91,20.33c2.77-1.06-0.15,0.06-0.6,0.24
					c-0.57,0.23-1.14,0.46-1.72,0.69c-1.72,0.68-3.46,1.34-5.2,1.98c-3.5,1.28-7.04,2.45-10.62,3.53
					c-6.44,1.94-12.98,3.53-19.59,4.78c-3.29,0.62-6.61,1.23-9.94,1.62c3.15-0.37,0.04-0.02-0.51,0.05
					c-0.91,0.11-1.82,0.21-2.73,0.31c-1.82,0.19-3.65,0.36-5.48,0.5c-7.03,0.55-14.09,0.75-21.14,0.61
					c-6.78-0.13-13.54-0.58-20.28-1.31c-0.92-0.1-1.84-0.21-2.76-0.32c-0.53-0.06-3.67-0.42-0.55-0.06
					c-1.53-0.18-3.06-0.44-4.59-0.68c-3.67-0.58-7.32-1.24-10.96-1.99c-13.96-2.87-27.68-6.96-40.94-12.18
					c-1.44-0.57-2.87-1.15-4.31-1.74c-2.91-1.19,2.26,1.01-0.61-0.26c-0.71-0.31-1.42-0.62-2.12-0.93
					c-3.25-1.44-6.46-2.95-9.64-4.53c-6.34-3.14-12.54-6.55-18.58-10.23c-6.02-3.66-11.87-7.6-17.54-11.78
					c-1.24-0.91-2.52-1.8-3.7-2.78c2.23,1.83-0.18-0.14-0.54-0.43c-0.72-0.57-1.45-1.15-2.17-1.73c-2.75-2.22-5.45-4.49-8.1-6.81
					c-10.41-9.13-20.08-19.09-28.95-29.73c-0.97-1.16-1.93-2.33-2.88-3.51c-0.57-0.71-1.13-1.42-1.7-2.13
					c-0.3-0.38-2.22-2.78-0.39-0.48c-2.25-2.83-4.36-5.79-6.45-8.74c-3.83-5.4-7.46-10.94-10.91-16.59
					c-7.16-11.76-13.49-24.03-18.94-36.67c-0.04-0.1-1.19-2.81-0.46-1.06c0.73,1.75-0.4-0.97-0.44-1.07
					c-0.68-1.65-1.34-3.31-1.99-4.97c-1.24-3.18-2.43-6.38-3.57-9.6c-2.21-6.27-4.22-12.62-6.01-19.03
					c-3.72-13.26-6.48-26.76-8.43-40.39c-0.31-2.19,0,0.11,0.06,0.46c-0.15-0.88-0.23-1.78-0.34-2.67c-0.2-1.63-0.38-3.26-0.56-4.9
					c-0.36-3.41-0.66-6.83-0.91-10.26c-0.5-6.84-0.76-13.69-0.81-20.55c-0.09-13.54,0.69-27.09,2.31-40.53
					c0.09-0.74,0.19-1.48,0.28-2.21c0.37-3.05-0.39,2.63,0.05-0.41c0.21-1.47,0.42-2.95,0.65-4.42c0.54-3.53,1.14-7.05,1.8-10.56
					c1.26-6.73,2.74-13.42,4.43-20.05c3.3-13,7.41-25.8,12.3-38.3c0.65-1.67,1.32-3.33,2-4.99c0.34-0.83,0.67-1.66,1.03-2.48
					c-0.15,0.34-1,2.32-0.14,0.33c1.43-3.29,2.89-6.57,4.41-9.82c2.93-6.24,6.05-12.38,9.37-18.42
					c6.52-11.87,13.79-23.33,21.76-34.28c1.07-1.47,2.15-2.92,3.24-4.37c0.36-0.48,0.73-0.96,1.1-1.45c1.85-2.46-1.53,1.92,0.38-0.5
					c2.25-2.86,4.53-5.7,6.87-8.49c4.52-5.39,9.21-10.63,14.08-15.71c9.74-10.17,20.15-19.71,31.18-28.46
					c0.74-0.59,1.48-1.17,2.23-1.75c-2.24,1.74,0.28-0.2,0.62-0.46c1.26-0.95,2.52-1.89,3.79-2.82c3.06-2.24,6.16-4.41,9.31-6.52
					c6.05-4.06,12.26-7.88,18.63-11.43c6.12-3.42,12.37-6.58,18.75-9.49c1.75-0.79,3.5-1.56,5.27-2.32c-2.33,1-0.3,0.13,0.29-0.11
					c0.74-0.3,1.48-0.61,2.23-0.9c3.59-1.43,7.2-2.78,10.86-4.03c7.36-2.53,14.85-4.69,22.44-6.46c3.65-0.85,7.32-1.61,11-2.28
					c1.68-0.31,3.36-0.59,5.04-0.86c1.01-0.16,2.03-0.3,3.04-0.46c2.84-0.44-1.67,0.18,0.93-0.13c15.64-1.88,31.4-2.33,47.11-0.87
					c1.7,0.16,3.4,0.34,5.1,0.54c0.39,0.05,3.79,0.5,0.94,0.1c1.02,0.14,2.03,0.29,3.04,0.45c3.71,0.57,7.41,1.25,11.09,2.04
					c7.36,1.58,14.6,3.61,21.72,6.05c5.83,2,13.12-2.28,14.47-8.22C515.32,314.76,511.85,308.97,505.62,306.83L505.62,306.83z"/>
			</g>
		</g>
		<path class="st11" d="M542.37,583.19H292.69c-8.63,0-15.69-7.06-15.69-15.69v-98.97c0-8.63,7.06-15.69,15.69-15.69h249.68
			c8.63,0,15.69,7.06,15.69,15.69v98.97C558.05,576.13,551,583.19,542.37,583.19z"/>
		<g>
			<path class="st10" d="M588.88,936.1c-5.49-17.81-24.5-40.09-58.35-52.09l-0.2-0.13c-10.03-3.56-20.95-6.31-31.91-8.23
				c2.21,0.57,4.41,1.16,6.59,1.79c18.67,5.37,36.38,13.13,47.95,21.92l0.06,0.14c21.7,16.46,15.73,36.14,0.72,49.45
				c-15.01,13.32-46.53,20.42-84.77,19.11c-12.71-0.44-26.36-1.83-39.93-4.48c20.93,9.47,47.58,16.75,72.08,18.64
				c21.04,1.62,39.13-0.7,53.09-4.85C581.48,969.26,594.37,953.91,588.88,936.1z"/>
		</g>
		<g>
			<path class="st12" d="M479.36,863.98"/>
			<path class="st12" d="M569.22,917.56"/>
			<ellipse class="st12" cx="509.31" cy="939.49" rx="89.86" ry="53.58"/>
		</g>
		<g>
			<path class="st9" d="M297.99,865.98"/>
			<path class="st9" d="M387.85,919.56"/>
			<ellipse class="st9" cx="327.95" cy="941.5" rx="89.86" ry="53.58"/>
		</g>
		<g>
			<path class="st10" d="M404.35,936.1c-5.49-17.81-24.5-40.09-58.35-52.09l-0.2-0.13c-10.03-3.56-20.95-6.31-31.91-8.23
				c2.21,0.57,4.41,1.16,6.59,1.79c18.67,5.37,36.38,13.13,47.95,21.92l0.06,0.14c21.7,16.46,15.73,36.14,0.72,49.45
				s-46.53,20.42-84.77,19.11c-12.71-0.44-26.36-1.83-39.93-4.48c20.93,9.47,47.58,16.75,72.08,18.64
				c21.04,1.62,39.13-0.7,53.09-4.85C396.95,969.26,409.84,953.91,404.35,936.1z"/>
		</g>
		<g>
			<path class="st12" d="M293.99,863.98"/>
			<path class="st12" d="M383.84,917.56"/>
			<ellipse class="st12" cx="323.94" cy="939.49" rx="89.86" ry="53.58"/>
		</g>
		<g>
			<circle class="st13" cx="382.8" cy="524.81" r="11.58"/>
			<circle class="st13" cx="313.32" cy="524.81" r="11.58"/>
			<circle class="st13" cx="333.91" cy="501.66" r="11.58"/>
			<circle class="st13" cx="362.21" cy="501.66" r="11.58"/>
			<circle class="st13" cx="521.74" cy="524.81" r="11.58"/>
			<circle class="st13" cx="452.27" cy="524.81" r="11.58"/>
			<circle class="st13" cx="472.85" cy="501.66" r="11.58"/>
			<circle class="st13" cx="501.16" cy="501.66" r="11.58"/>
		</g>
		<g>
			<g>
				<path class="st3" d="M754.87,221.42c-12.69-17.44-38.49-30.58-65.86-36.45c-27.38-5.87-56.08-5.07-82.11-0.54
					c-63.84,11.11-105.32,80.22-124.85,121.1l-2.22,2.19l0.36,0.49c28.55-18.84,72.23-43.14,108.42-40.35
					c27.27,2.11,54.02,9.22,81.22,12.78c27.2,3.56,57.1,2.97,75.92-8.51C765.01,260.38,767.55,238.87,754.87,221.42z"/>
				<g>
					<path class="st8" d="M765.02,215.49c-3.7-5.05-7.77-9.67-12.55-13.71c-5.12-4.33-10.61-8.24-16.42-11.58
						c-11.79-6.79-24.79-11.79-37.95-15.16c-29.69-7.59-60.81-7.33-90.91-2.52c-11.56,1.85-22.46,5.31-33.1,10.21
						c-10.22,4.71-19.5,10.91-28.37,17.79c-16.94,13.16-31.07,29.56-43.49,46.96c-10.59,14.83-19.78,30.65-27.86,46.97
						c-0.85,1.71-1.68,3.43-2.5,5.15c0.61-0.79,1.23-1.59,1.84-2.38c-0.74,0.73-1.48,1.46-2.22,2.19c-1.85,1.82-2.89,4.22-3.24,6.75
						c-0.32,2.37-0.1,5.5,1.4,7.5c0.12,0.16,0.24,0.32,0.36,0.49c1.82,2.43,3.9,4.69,7.03,5.41c2.99,0.68,6.42,0.56,9.06-1.19
						c12.67-8.35,25.75-16.13,39.38-22.81c4.14-2.03,8.34-3.95,12.59-5.74c-0.94,0.4-1.87,0.79-2.81,1.19
						c12.33-5.18,25.18-9.36,38.46-11.17c-1.04,0.14-2.08,0.28-3.13,0.42c4.9-0.65,9.85-0.97,14.79-0.8
						c6.03,0.2,12.06,0.97,18.03,1.77c-1.04-0.14-2.08-0.28-3.13-0.42c32.01,4.33,63.52,13.28,96.01,13.53
						c7.45,0.06,14.84-0.42,22.22-1.41c6.85-0.92,13.63-2.23,20.13-4.6c7.54-2.75,14.27-6.3,20.43-11.47
						c5.71-4.78,9.72-10.97,12.52-17.8C777.47,244.79,773.84,227.72,765.02,215.49c-1.84-2.55-3.9-4.54-7.03-5.41
						c-2.82-0.78-6.57-0.43-9.06,1.19c-2.51,1.62-4.72,4.03-5.41,7.03c-0.66,2.92-0.64,6.53,1.19,9.06
						c1.92,2.67,3.57,5.51,4.87,8.53c-0.4-0.94-0.79-1.87-1.19-2.81c1.28,3.06,2.19,6.24,2.65,9.52c-0.14-1.04-0.28-2.08-0.42-3.13
						c0.38,2.91,0.39,5.84,0,8.75c0.14-1.04,0.28-2.08,0.42-3.13c-0.38,2.65-1.09,5.23-2.12,7.7c0.4-0.94,0.79-1.87,1.19-2.81
						c-1.09,2.54-2.49,4.91-4.17,7.11c0.61-0.79,1.23-1.59,1.84-2.38c-1.91,2.44-4.13,4.6-6.58,6.5c0.79-0.61,1.59-1.23,2.38-1.84
						c-3.38,2.57-7.11,4.61-11.01,6.27c0.94-0.4,1.87-0.79,2.81-1.19c-6.88,2.87-14.18,4.55-21.54,5.56
						c1.04-0.14,2.08-0.28,3.13-0.42c-15.98,2.13-32.27,1.27-48.2-0.86c1.04,0.14,2.08,0.28,3.13,0.42
						c-14.84-2.01-29.52-5.01-44.25-7.66c-8.13-1.46-16.28-2.76-24.47-3.84c-6.68-0.89-13.44-1.76-20.19-1.78
						c-12.81-0.04-25.73,2.58-37.9,6.46c-12.71,4.06-25.03,9.52-36.88,15.64c-11.69,6.04-22.97,12.84-33.95,20.07
						c5.37,1.41,10.73,2.81,16.1,4.22c-0.12-0.16-0.24-0.32-0.36-0.49c-0.61,4.75-1.23,9.5-1.84,14.26
						c1.79-1.77,3.51-3.45,4.63-5.77c0.92-1.91,1.86-3.82,2.81-5.72c2.07-4.12,4.2-8.2,6.41-12.24
						c4.89-8.92,10.13-17.65,15.81-26.09c3.47-5.16,7.1-10.22,10.9-15.14c-0.61,0.79-1.23,1.59-1.84,2.38
						c8.08-10.45,16.96-20.32,26.84-29.1c2.81-2.5,5.7-4.9,8.67-7.21c-0.79,0.61-1.59,1.23-2.38,1.84
						c9.04-6.98,18.83-12.97,29.35-17.44c-0.94,0.4-1.87,0.79-2.81,1.19c10.57-4.45,21.53-6.87,32.87-8.42
						c-1.04,0.14-2.08,0.28-3.13,0.42c19.48-2.62,39.28-3,58.78-0.42c-1.04-0.14-2.08-0.28-3.13-0.42
						c14.1,1.9,27.95,5.39,41.08,10.9c-0.94-0.4-1.87-0.79-2.81-1.19c8.93,3.78,17.5,8.44,25.2,14.36
						c-0.79-0.61-1.59-1.23-2.38-1.84c4.69,3.64,9.02,7.74,12.66,12.44c-0.61-0.79-1.23-1.59-1.84-2.38
						c0.3,0.39,0.59,0.78,0.88,1.17c1.87,2.55,3.87,4.54,7.03,5.41c2.82,0.78,6.57,0.43,9.06-1.19c2.51-1.62,4.72-4.03,5.41-7.03
						C766.87,221.65,766.86,217.99,765.02,215.49z"/>
				</g>
			</g>
		</g>
		<g>
			<path class="st10" d="M748.4,206.67c-1.44,7.59-5.25,14.9-11.64,21.1c-16.04,15.57-43.95,21.54-69.9,22.61
				c-25.95,1.07-51.95-1.72-77.77,0.91c-11.81,1.2-24.02,6-35.93,12.79c2.84,3.61,5.14,7.74,6.8,12.24
				c11.25-4.61,22.53-7.44,33.25-7.37c25.87,0.17,51.47,5.77,77.33,7.51c25.86,1.74,54.09-1.19,71.32-14.98
				C759.38,247.48,760.89,224.4,748.4,206.67z"/>
		</g>
		<g>
			<g>
				<g>
					<path class="st8" d="M765.02,215.49c-3.7-5.05-7.77-9.67-12.55-13.71c-5.12-4.33-10.61-8.24-16.42-11.58
						c-11.79-6.79-24.79-11.79-37.95-15.16c-29.69-7.59-60.81-7.33-90.91-2.52c-11.56,1.85-22.46,5.31-33.1,10.21
						c-10.22,4.71-19.5,10.91-28.37,17.79c-16.94,13.16-31.07,29.56-43.49,46.96c-10.59,14.83-19.78,30.65-27.86,46.97
						c-0.85,1.71-1.68,3.43-2.5,5.15c0.61-0.79,1.23-1.59,1.84-2.38c-0.74,0.73-1.48,1.46-2.22,2.19c-1.85,1.82-2.89,4.22-3.24,6.75
						c-0.32,2.37-0.1,5.5,1.4,7.5c0.12,0.16,0.24,0.32,0.36,0.49c1.82,2.43,3.9,4.69,7.03,5.41c2.99,0.68,6.42,0.56,9.06-1.19
						c12.67-8.35,25.75-16.13,39.38-22.81c4.14-2.03,8.34-3.95,12.59-5.74c-0.94,0.4-1.87,0.79-2.81,1.19
						c12.33-5.18,25.18-9.36,38.46-11.17c-1.04,0.14-2.08,0.28-3.13,0.42c4.9-0.65,9.85-0.97,14.79-0.8
						c6.03,0.2,12.06,0.97,18.03,1.77c-1.04-0.14-2.08-0.28-3.13-0.42c32.01,4.33,63.52,13.28,96.01,13.53
						c7.45,0.06,14.84-0.42,22.22-1.41c6.85-0.92,13.63-2.23,20.13-4.6c7.54-2.75,14.27-6.3,20.43-11.47
						c5.71-4.78,9.72-10.97,12.52-17.8C777.47,244.79,773.84,227.72,765.02,215.49c-1.84-2.55-3.9-4.54-7.03-5.41
						c-2.82-0.78-6.57-0.43-9.06,1.19c-2.51,1.62-4.72,4.03-5.41,7.03c-0.66,2.92-0.64,6.53,1.19,9.06
						c1.92,2.67,3.57,5.51,4.87,8.53c-0.4-0.94-0.79-1.87-1.19-2.81c1.28,3.06,2.19,6.24,2.65,9.52c-0.14-1.04-0.28-2.08-0.42-3.13
						c0.38,2.91,0.39,5.84,0,8.75c0.14-1.04,0.28-2.08,0.42-3.13c-0.38,2.65-1.09,5.23-2.12,7.7c0.4-0.94,0.79-1.87,1.19-2.81
						c-1.09,2.54-2.49,4.91-4.17,7.11c0.61-0.79,1.23-1.59,1.84-2.38c-1.91,2.44-4.13,4.6-6.58,6.5c0.79-0.61,1.59-1.23,2.38-1.84
						c-3.38,2.57-7.11,4.61-11.01,6.27c0.94-0.4,1.87-0.79,2.81-1.19c-6.88,2.87-14.18,4.55-21.54,5.56
						c1.04-0.14,2.08-0.28,3.13-0.42c-15.98,2.13-32.27,1.27-48.2-0.86c1.04,0.14,2.08,0.28,3.13,0.42
						c-14.84-2.01-29.52-5.01-44.25-7.66c-8.13-1.46-16.28-2.76-24.47-3.84c-6.68-0.89-13.44-1.76-20.19-1.78
						c-12.81-0.04-25.73,2.58-37.9,6.46c-12.71,4.06-25.03,9.52-36.88,15.64c-11.69,6.04-22.97,12.84-33.95,20.07
						c5.37,1.41,10.73,2.81,16.1,4.22c-0.12-0.16-0.24-0.32-0.36-0.49c-0.61,4.75-1.23,9.5-1.84,14.26
						c1.79-1.77,3.51-3.45,4.63-5.77c0.92-1.91,1.86-3.82,2.81-5.72c2.07-4.12,4.2-8.2,6.41-12.24
						c4.89-8.92,10.13-17.65,15.81-26.09c3.47-5.16,7.1-10.22,10.9-15.14c-0.61,0.79-1.23,1.59-1.84,2.38
						c8.08-10.45,16.96-20.32,26.84-29.1c2.81-2.5,5.7-4.9,8.67-7.21c-0.79,0.61-1.59,1.23-2.38,1.84
						c9.04-6.98,18.83-12.97,29.35-17.44c-0.94,0.4-1.87,0.79-2.81,1.19c10.57-4.45,21.53-6.87,32.87-8.42
						c-1.04,0.14-2.08,0.28-3.13,0.42c19.48-2.62,39.28-3,58.78-0.42c-1.04-0.14-2.08-0.28-3.13-0.42
						c14.1,1.9,27.95,5.39,41.08,10.9c-0.94-0.4-1.87-0.79-2.81-1.19c8.93,3.78,17.5,8.44,25.2,14.36
						c-0.79-0.61-1.59-1.23-2.38-1.84c4.69,3.64,9.02,7.74,12.66,12.44c-0.61-0.79-1.23-1.59-1.84-2.38
						c0.3,0.39,0.59,0.78,0.88,1.17c1.87,2.55,3.87,4.54,7.03,5.41c2.82,0.78,6.57,0.43,9.06-1.19c2.51-1.62,4.72-4.03,5.41-7.03
						C766.87,221.65,766.86,217.99,765.02,215.49z"/>
				</g>
			</g>
		</g>
	</g>
	<g>
		<g>
			<g>
				<path class="st8" d="M765.2,215.41c-3.71-5.06-7.78-9.68-12.57-13.73c-5.13-4.33-10.63-8.25-16.45-11.6
					c-11.81-6.8-24.83-11.81-38.02-15.19c-29.74-7.6-60.92-7.34-91.06-2.52c-11.58,1.85-22.5,5.32-33.15,10.23
					c-10.23,4.72-19.54,10.93-28.41,17.82c-16.97,13.18-31.12,29.61-43.57,47.04c-10.61,14.86-19.81,30.71-27.91,47.06
					c-0.85,1.71-1.68,3.43-2.51,5.16c0.61-0.79,1.23-1.59,1.84-2.38c-0.74,0.73-1.48,1.46-2.22,2.19c-1.85,1.82-2.89,4.22-3.24,6.75
					c-0.32,2.37-0.1,5.5,1.4,7.5c0.12,0.16,0.24,0.32,0.36,0.49c1.82,2.43,3.9,4.69,7.03,5.41c2.99,0.68,6.42,0.56,9.06-1.19
					c12.69-8.37,25.79-16.16,39.45-22.85c4.15-2.03,8.35-3.95,12.61-5.75c-0.94,0.4-1.87,0.79-2.81,1.19
					c12.35-5.19,25.23-9.38,38.53-11.19c-1.04,0.14-2.08,0.28-3.13,0.42c4.91-0.65,9.86-0.97,14.82-0.8
					c6.04,0.2,12.08,0.98,18.06,1.77c-1.04-0.14-2.08-0.28-3.13-0.42c32.07,4.34,63.64,13.3,96.18,13.56
					c7.46,0.06,14.87-0.42,22.26-1.41c6.86-0.92,13.65-2.23,20.17-4.61c7.55-2.75,14.29-6.31,20.46-11.48
					c5.71-4.79,9.74-10.99,12.54-17.82C777.66,244.76,774.03,227.66,765.2,215.41c-1.84-2.55-3.9-4.54-7.03-5.41
					c-2.82-0.78-6.57-0.43-9.06,1.19c-2.51,1.62-4.72,4.03-5.41,7.03c-0.66,2.92-0.64,6.53,1.19,9.06c1.93,2.67,3.58,5.52,4.88,8.55
					c-0.4-0.94-0.79-1.87-1.19-2.81c1.29,3.06,2.2,6.25,2.66,9.54c-0.14-1.04-0.28-2.08-0.42-3.13c0.38,2.92,0.39,5.85,0,8.77
					c0.14-1.04,0.28-2.08,0.42-3.13c-0.38,2.66-1.09,5.24-2.12,7.72c0.4-0.94,0.79-1.87,1.19-2.81c-1.09,2.55-2.5,4.92-4.18,7.12
					c0.61-0.79,1.23-1.59,1.84-2.38c-1.92,2.45-4.14,4.61-6.59,6.52c0.79-0.61,1.59-1.23,2.38-1.84c-3.38,2.58-7.12,4.62-11.03,6.28
					c0.94-0.4,1.87-0.79,2.81-1.19c-6.89,2.88-14.2,4.56-21.58,5.57c1.04-0.14,2.08-0.28,3.13-0.42
					c-16.01,2.13-32.33,1.27-48.29-0.86c1.04,0.14,2.08,0.28,3.13,0.42c-14.87-2.01-29.57-5.02-44.34-7.67
					c-8.14-1.47-16.3-2.76-24.5-3.85c-6.69-0.89-13.47-1.76-20.23-1.78c-12.84-0.04-25.78,2.58-37.97,6.48
					c-12.74,4.07-25.08,9.53-36.95,15.66c-11.71,6.05-23.01,12.86-34.01,20.11c5.37,1.41,10.73,2.81,16.1,4.22
					c-0.12-0.16-0.24-0.32-0.36-0.49c-0.61,4.75-1.23,9.5-1.84,14.26c1.79-1.77,3.52-3.45,4.64-5.78c0.92-1.92,1.86-3.83,2.82-5.73
					c2.07-4.12,4.21-8.21,6.43-12.26c4.89-8.94,10.15-17.68,15.84-26.14c3.47-5.17,7.11-10.23,10.92-15.17
					c-0.61,0.79-1.23,1.59-1.84,2.38c8.1-10.47,16.99-20.35,26.88-29.15c2.82-2.5,5.71-4.91,8.69-7.22
					c-0.79,0.61-1.59,1.23-2.38,1.84c9.05-6.99,18.87-12.99,29.41-17.47c-0.94,0.4-1.87,0.79-2.81,1.19
					c10.59-4.46,21.57-6.88,32.93-8.43c-1.04,0.14-2.08,0.28-3.13,0.42c19.51-2.62,39.35-3.01,58.89-0.42
					c-1.04-0.14-2.08-0.28-3.13-0.42c14.12,1.91,28,5.4,41.16,10.92c-0.94-0.4-1.87-0.79-2.81-1.19
					c8.94,3.78,17.53,8.46,25.24,14.39c-0.79-0.61-1.59-1.23-2.38-1.84c4.7,3.65,9.04,7.76,12.69,12.47
					c-0.61-0.79-1.23-1.59-1.84-2.38c0.3,0.39,0.59,0.78,0.88,1.17c1.87,2.55,3.87,4.54,7.03,5.41c2.82,0.78,6.57,0.43,9.06-1.19
					c2.51-1.62,4.72-4.03,5.41-7.03C767.05,221.57,767.04,217.92,765.2,215.41z"/>
			</g>
		</g>
	</g>
	<g>
		<path class="st5" d="M262.96,465.94c0-14.37,11.75-26.12,26.12-26.12h256.91c14.37,0,26.12,11.75,26.12,26.12v101.29
			c0,4.4,3.56,7.97,7.97,7.98l92.86,0.17c4.7,0.01,8.39-4.04,7.96-8.72c-2.5-27.18-0.49-14.88-4.55-36.3
			c-9.67-51.02-23.05-105.77-55.01-147.84c-30.89-40.66-80.38-69.64-129.05-83.54c-22.49-6.42-45.87-9.42-69.25-8.88
			c-23.28,0.54-46.39,4.55-68.72,11.06c-66.3,19.33-107.97,61.95-120.17,75.91c-53.68,61.4-74.01,120.97-79.72,188.76
			c-0.39,4.64,3.28,8.63,7.95,8.64l92.61,0.16c4.41,0.01,7.99-3.57,7.99-7.98V465.94z"/>
	</g>
	<g>
		<rect x="262.96" y="502.16" class="st11" width="14.47" height="24.29"/>
		<path class="st11" d="M164.69,526.45h98.27v-24.29H170.9c-2.2,0-4.15,0.79-4.75,1.93c-3.43,6.57-4.15,12.9-5.12,20.05
			C160.87,525.39,162.43,526.45,164.69,526.45z"/>
		<path class="st11" d="M673.5,526.45H565.09v-24.29h101.27c2.42,0,4.72,0.71,5.23,1.93c3.36,8.1,3.41,10.9,3.93,19.05
			C675.6,524.41,675.99,526.45,673.5,526.45z"/>
	</g>
	<path class="st5" d="M152.03,639.79c-2.33,22.15-8.1,54.36-9.25,64.77c107.56-41.64,181.47-39.53,210.25-36.53
		c0,0,53.69,5.17,62.86-8.63c0.13-0.2,0.2-0.41,0.25-0.66c3.33-18.19-192.09-73.89-252.54-43.24
		C150.81,621.99,154.35,617.82,152.03,639.79z"/>
	<path class="st5" d="M682.89,631.7c2.46,22.14,8.32,53.86,8.1,64.77c-122.4-24.15-185.67-32.59-214.44-29.59
		c0,0-53.69,5.17-62.86-8.63c-0.13-0.2-0.2-0.41-0.25-0.66c-3.33-18.19,212.66-100.75,259.05-51.33
		C682.68,617.12,681.73,621.29,682.89,631.7z"/>
	<path class="st14" d="M682.89,631.57c-1.16-10.43-0.21-14.61-10.41-25.49c-4.84-5.16-11.53-8.88-19.62-11.4
		c5.49,18.99,12.59,41.11,16.94,56.79c1.99,7.18-4.62,14.26-12.39,13.27c-129.68-16.46-203.75-7.15-233.59-0.67c0,0,9.05-1.17,0,0
		c-1.31,1.52-10.59-7.67-10.39-6.57c0.05,0.25,0.12,0.47,0.25,0.66c9.17,13.82,62.86,8.65,62.86,8.65
		c28.78-3.01,92.05,5.45,214.44,29.64C691.2,685.53,685.35,653.75,682.89,631.57z"/>
	<path class="st5" d="M383.34,659.45"/>
	<g class="st15">
		<path class="st16" d="M666.69,576.18c-2.89-21.4-9.78-61.31-15.09-82.07C629.29,430.38,602.59,365.23,541.65,332
			c-14.43-6.96-29.66-12.55-45.4-16.58c-24.86-6.38-50.7-8.71-76.41-7.43c5.15,0.48,10.29,1.07,15.42,1.82
			c48.5,7.08,96.08,26.99,129.4,58.39l0.22,0.61c47.07,44.31,55.24,139.58,45.15,206.22"/>
	</g>
	<path class="st14" d="M411.3,654.26c-13.14,12.14-62.81,8.86-62.81,8.86c-28.53-2.12-99.77-2.02-202.41,39.44
		c104.47-39.39,176.29-37.3,204.56-34.35c0,0,53.69,5.17,62.86-8.63c0.13-0.2,0.2-0.41,0.25-0.66
		C414,657.55,413.13,655.99,411.3,654.26z"/>
	<path class="st5" d="M405.31,704.04c1.62-1.51,19.3-18.48,13.52-36.5c-0.37-1.15-3.88-11.74-10.14-12.7
		c-8.27-1.26-38.87,11.11-47.32,80.94"/>
	<path class="st5" d="M421.51,718.44c-8.1-9.25-22.52-33.05-14.2-50.04c0.53-1.09,5.54-11.05,11.87-11.1
		c8.36-0.06,41.65,22.97,35.12,86.93"/>
	<path class="st14" d="M418.26,668.22c-0.22-0.67-1.52-4.57-3.8-7.89c3.95,19.15-11.12,37.52-12.6,39.27l-37,33.92l39.87-28.8
		C406.35,703.21,424.03,686.24,418.26,668.22z"/>
	<circle class="st5" cx="411.1" cy="653.67" r="19.66"/>
	<path class="st14" d="M422.48,637.66c2.29,3.21,3.65,7.14,3.65,11.38c0,10.86-8.8,19.66-19.66,19.66c-4.25,0-8.17-1.36-11.38-3.65
		c3.56,5,9.4,8.28,16.01,8.28c10.86,0,19.66-8.8,19.66-19.66C430.76,647.06,427.49,641.22,422.48,637.66z"/>
	<path class="st14" d="M440.52,673.51c4.89,15.37,7.39,35.19,4.83,60.22l-29.25-23c2,3.05,4,5.67,5.71,7.62l32.79,25.79
		C458.14,709.57,450.03,686.98,440.52,673.51z"/>
</g>
</svg>
