<?xml version="1.0" encoding="utf-8"?>
<!-- Generator: Adobe Illustrator 27.8.1, SVG Export Plug-In . SVG Version: 6.00 Build 0)  -->
<svg version="1.1" xmlns="http://www.w3.org/2000/svg" xmlns:xlink="http://www.w3.org/1999/xlink" x="0px" y="0px"
	 viewBox="0 0 841.89 1190.55" style="enable-background:new 0 0 841.89 1190.55;" xml:space="preserve">
<style type="text/css">
	.st0{display:none;}
	.st1{display:inline;fill:#C8C8C8;stroke:#000000;stroke-miterlimit:10;}
	.st2{display:inline;}
	.st3{fill:#FFFFFF;}
	.st4{display:none;fill:#CDCCCC;}
	.st5{fill:#4E4D4D;}
	.st6{fill:#FFFFFF;stroke:#4E4D4D;stroke-width:19.6069;stroke-miterlimit:10;}
	.st7{fill:#CDCCCC;}
	.st8{fill:#020203;stroke:#020203;stroke-width:7.8427;stroke-miterlimit:10;}
	.st9{fill:none;stroke:#4E4D4D;stroke-width:19.6069;stroke-miterlimit:10;}
	.st10{fill:#FFCC07;}
	.st11{fill:#F4E600;}
	.st12{fill:none;stroke:#015438;stroke-width:3;stroke-linecap:round;stroke-miterlimit:10;}
	.st13{fill:#CAC80B;}
	.st14{fill:none;stroke:#808181;stroke-width:7;stroke-miterlimit:10;}
	.st15{fill:none;stroke:#808181;stroke-miterlimit:10;}
	.st16{fill:none;stroke:#E52521;stroke-width:7;stroke-miterlimit:10;}
	.st17{fill:none;stroke:#343434;stroke-width:8;stroke-miterlimit:10;}
	.st18{fill:none;stroke:#343434;stroke-width:13;stroke-miterlimit:10;}
	.st19{fill:#754D24;}
	.st20{fill:#603914;}
	.st21{fill:none;stroke:#020203;stroke-linecap:round;stroke-miterlimit:10;}
	.st22{fill:#FFFFFF;stroke:#4F4E4E;stroke-width:15;stroke-miterlimit:10;}
	.st23{fill:#CECBCB;}
	.st24{fill:none;stroke:#4F4E4E;stroke-width:15;stroke-miterlimit:10;}
</style>
<g id="background" class="st0">
	<rect x="1" y="-1" class="st1" width="846" height="1195"/>
</g>
<g id="Shadow_00000014599182220886497210000014135309126344849039_" class="st0">
	<g id="Shadow" class="st2">
		<g>
			<g>
				<path class="st3" d="M464.67,994.34c-75.5,0-146.59-5.98-200.18-16.85c-61.28-12.42-91.07-29.19-91.07-51.24
					c0-22.06,29.79-38.82,91.07-51.24c53.59-10.87,124.68-16.85,200.18-16.85s146.59,5.98,200.18,16.85
					c61.28,12.42,91.07,29.19,91.07,51.24c0,22.06-29.79,38.82-91.07,51.24C611.26,988.35,540.17,994.34,464.67,994.34z"/>
			</g>
			<g>
				<path class="st3" d="M472.92,863.82c-46.43,0-94.74-14.92-134.67-42.83c-50.21-35.1-87.03-89.02-103.67-151.84
					c-25.79-97.37,1.79-204.04,71.98-278.37c30.96-32.78,67.82-57.02,106.6-70.09c44.69-15.06,92.06-15.55,133.38-1.39l-7.35,21.45
					c-36.09-12.37-79.38-11.85-118.78,1.42c-35.27,11.89-68.94,34.08-97.35,64.17c-64.85,68.68-90.35,167.15-66.54,257
					c15.27,57.64,48.92,107.03,94.74,139.06c50.49,35.29,115.54,47.66,169.76,32.28c48.47-13.75,82.93-47.02,103.3-72.5
					c51.27-64.15,70.93-149.68,52.6-228.81c-9.96-42.99-27.5-84.8-49.38-117.72c-24.98-37.58-55.36-63.33-87.87-74.45l7.34-21.46
					c37.27,12.76,71.65,41.58,99.41,83.36c23.35,35.13,42.03,79.58,52.58,125.15c19.89,85.83-1.41,178.57-56.98,248.09
					c-32.18,40.26-71.89,67.98-114.83,80.16C509.84,861.42,491.53,863.82,472.92,863.82z"/>
			</g>
			<g>
				<g>
					<path class="st3" d="M508.32,818.78"/>
				</g>
				<g>
					<path class="st3" d="M586.02,865.1"/>
				</g>
				<g>
					<ellipse class="st3" cx="543.26" cy="878.68" rx="98.07" ry="63.06"/>
				</g>
			</g>
			<g>
				<g>
					<path class="st3" d="M351.21,804.26"/>
				</g>
				<g>
					<path class="st3" d="M435.53,854.54"/>
				</g>
				<g>
					<ellipse class="st3" cx="379.32" cy="875.12" rx="95.66" ry="61.61"/>
				</g>
			</g>
			<g>
				<path class="st3" d="M669.68,482.98c-2.25,0-4.47-0.39-6.61-1.16c-64.41-23.31-130.8-34.64-202.98-34.64
					c-59.88,0-124.29,8.23-191.46,24.45c-1.5,0.36-3.03,0.54-4.56,0.54c-10.3,0-18.8-8.09-19.34-18.41
					c-1.6-30.28,8.93-61.27,28.88-85.02c3.38-4.02,7.85-6.84,12.93-8.14c54.96-14.07,110.8-21.2,165.97-21.2
					c69.9,0,140.91,11.45,211.05,34.03c5.93,1.91,10.91,5.97,14.04,11.43c14.64,25.59,13.77,56.53,11.37,80.64
					C687.97,475.47,679.68,482.98,669.68,482.98C669.68,482.98,669.68,482.98,669.68,482.98z"/>
			</g>
			<g>
				<g>
					<path class="st3" d="M476.38,358.72l6.95-8.13c12.31-31.16,26.78-58.13,43.04-80.2c24.66-33.48,52.68-54.36,83.27-62.08
						c19.4-4.89,38.65-7.37,57.23-7.37c10.27,0,20.36,0.78,29.97,2.31c32.48,5.18,60.66,19.65,75.37,38.71
						c8.96,11.62,12.87,25.32,11.01,38.59c-1.77,12.61-8.8,23.99-19.78,32.06c-15.24,11.2-37.67,16.89-66.66,16.89c0,0,0,0,0,0
						c-5.43,0-11.08-0.21-16.8-0.62c-11.79-0.85-23.55-2.38-34.93-3.87c-16.13-2.1-31.37-4.09-46.81-4.33c-0.3,0-0.6-0.01-0.91-0.01
						c-25.23,0-59.41,16.49-98.83,47.7l-8.87,7.02L476.38,358.72z"/>
				</g>
			</g>
			<g>
				<g>
					<path class="st3" d="M146.69,526.87c-25.13,0-50.33-11.43-70.95-32.17c-20.21-20.33-34.79-48.52-41.05-79.36
						c-6.97-34.33-3.28-68.8,10.38-97.07c14.17-29.31,37.29-48.57,65.13-54.22c5.43-1.1,10.99-1.66,16.53-1.66
						c25.13,0,50.33,11.43,70.95,32.17c20.21,20.33,34.79,48.52,41.05,79.36c6.97,34.33,3.28,68.8-10.38,97.07
						c-14.17,29.31-37.29,48.57-65.13,54.22C157.8,526.31,152.23,526.87,146.69,526.87z"/>
				</g>
				<g>
					<path class="st3" d="M146.69,526.87c-25.13,0-50.33-11.43-70.95-32.17c-20.21-20.33-34.79-48.52-41.05-79.36
						c-6.97-34.33-3.28-68.8,10.38-97.07c14.17-29.31,37.29-48.57,65.13-54.22c5.43-1.1,10.99-1.66,16.53-1.66
						c25.13,0,50.33,11.43,70.95,32.17c20.21,20.33,34.79,48.52,41.05,79.36c6.97,34.33,3.28,68.8-10.38,97.07
						c-14.17,29.31-37.29,48.57-65.13,54.22C157.8,526.31,152.23,526.87,146.69,526.87z"/>
				</g>
				<g>
					<path class="st3" d="M174.51,665.04c-2.06-7.26-4.14-14.63-6.21-21.99c-2.07-7.35-4.14-14.71-6.2-21.95
						c-1-3.51-1.91-7.08-2.8-10.53c-2.68-10.44-5.22-20.31-9.77-28.66c-2.39-4.38-4.65-8.85-6.83-13.18
						c-4.95-9.8-9.63-19.06-15.63-27.24c-6.7-9.13-16.1-16.69-30.48-24.53c-31.44-17.14-58.01-59.02-67.68-106.7
						c-6.9-33.98-2.08-68.28,13.57-96.59c15.39-27.83,40.08-47.01,67.75-52.62c5.44-1.1,11.02-1.66,16.58-1.66
						c25.16,0,50.41,11.39,71.1,32.07c20.33,20.32,34.97,48.48,41.22,79.29c9.78,48.16,2.79,91.98-19.16,120.21
						c-11.86,15.25-19.87,32.76-23.17,50.62c-3.28,17.73-0.47,35.52,2.51,54.35c0.34,2.16,0.69,4.33,1.02,6.5l21.37,138.81
						l-24.14,4.9L174.51,665.04z"/>
				</g>
				<g>
					<g>
						<path class="st3" d="M199.39,755.59c-6.85,0-12.81-4.88-14.18-11.59l-19.4-95.58c-1.59-7.82,3.48-15.47,11.3-17.06l15.08-3.06
							c0.95-0.19,1.92-0.29,2.88-0.29c6.85,0,12.82,4.88,14.18,11.59l19.4,95.58c1.59,7.82-3.48,15.47-11.3,17.06l-15.08,3.06
							C201.33,755.5,200.36,755.59,199.39,755.59z"/>
					</g>
				</g>
			</g>
			<g>
				<g>
					<path class="st3" d="M279.79,761.01c-20.73,0-45.33-10.16-67.49-27.88c-18.46-14.76-33.2-33.12-41.51-51.7
						c-9.16-20.49-9.59-39.27-1.22-52.9c7.29-11.88,20.41-18.42,36.94-18.42c20.73,0,45.33,10.16,67.49,27.88
						c18.46,14.76,33.2,33.12,41.51,51.7c9.16,20.49,9.59,39.27,1.22,52.9C309.44,754.47,296.32,761.01,279.79,761.01z"/>
				</g>
			</g>
		</g>
	</g>
</g>
<g id="Elas_00000175322372406297268850000017179355434375751589_">
	<g id="Elas">
		<ellipse class="st4" cx="463.83" cy="925.82" rx="279.9" ry="56.53"/>
		<g>
			<path class="st3" d="M536.02,339.91c-38.3-13.25-81.35-11.35-119.06,1.63s-70.31,36.5-96.45,64.6
				c-63.97,68.77-89.23,167.07-66.01,256.85c13.94,53.91,45.47,105.32,93.35,139.25c47.88,33.93,112.8,48.49,169.28,32.1
				c42.29-12.28,77.18-40.47,103.16-73.44c50.75-64.41,70.19-149.48,52.28-228.78c-17.91-79.29-64.36-166.99-136.11-191.78"/>
			<g>
				<path class="st5" d="M539.15,328.57c-53.97-18.5-114.56-8.8-163.61,18.82c-44.38,25-81.05,64.09-105.38,108.65
					c-23.84,43.67-36.5,93.46-35.88,143.25c0.62,49.51,14.41,98.97,40.46,141.16c13.16,21.32,29.44,40.95,48.44,57.31
					c20.22,17.42,42.98,30.98,67.88,40.56c23.87,9.19,49.58,14.23,75.17,14.51c26.41,0.3,52.28-4.97,76.51-15.38
					c46.55-20.01,83.99-58.88,109.18-102.2c25.94-44.62,39.64-96.39,38.93-148.01c-0.67-48.66-14.7-97-35.52-140.74
					c-19.41-40.76-47.51-80.05-86.64-103.87c-9.16-5.58-18.97-10.11-29.1-13.64c-5.82-2.03-13.12,2.3-14.47,8.22
					c-1.49,6.56,1.99,12.3,8.22,14.47c2.29,0.8,4.56,1.66,6.81,2.57c2.28,0.92-2.62-1.16-0.37-0.16c0.6,0.27,1.21,0.53,1.81,0.8
					c1.21,0.54,2.4,1.11,3.59,1.69c4.58,2.23,9.03,4.71,13.34,7.42c2.08,1.3,4.12,2.66,6.14,4.06c0.92,0.64,1.83,1.29,2.74,1.95
					c0.54,0.4,1.09,0.8,1.63,1.2c0.67,0.5,3.04,2.63,0.3,0.21c3.75,3.31,7.74,6.32,11.42,9.73c7.88,7.29,15.12,15.26,21.79,23.67
					c0.3,0.37,0.59,0.75,0.88,1.12c1.6,2.02-1.65-2.18-0.09-0.12c0.87,1.14,1.73,2.28,2.58,3.44c1.57,2.13,3.11,4.28,4.61,6.45
					c3.18,4.59,6.21,9.28,9.11,14.06c5.88,9.69,11.21,19.71,16.03,29.96c1.11,2.36,2.19,4.72,3.25,7.1c0.55,1.25,1.1,2.5,1.64,3.75
					c0.29,0.68,0.54,1.4,0.88,2.05c-1.51-2.98-0.31-0.73-0.04-0.07c2.18,5.26,4.23,10.57,6.17,15.92
					c7.71,21.3,13.91,43.4,17.27,65.82c0.12,0.8,0.23,1.6,0.35,2.39c0.13,0.9,0.67,1.64-0.09-0.73c0.47,1.44,0.42,3.29,0.59,4.8
					c0.36,3.2,0.66,6.4,0.91,9.61c0.45,5.88,0.7,11.77,0.77,17.66c0.13,12.3-0.57,24.61-2.1,36.81c-0.03,0.25-0.32,2.9-0.1,0.82
					c0.22-2.07-0.08,0.57-0.12,0.82c-0.23,1.59-0.47,3.17-0.72,4.76c-0.49,3.03-1.03,6.06-1.62,9.08
					c-1.15,5.91-2.5,11.77-4.03,17.59c-3.14,11.91-7.08,23.62-11.79,35.01c-0.2,0.49-0.39,1.01-0.62,1.49
					c1.4-2.94,0.18-0.44-0.08,0.15c-0.64,1.48-1.29,2.95-1.96,4.42c-1.22,2.69-2.49,5.36-3.8,8.02c-2.74,5.56-5.68,11.02-8.79,16.37
					c-3.13,5.38-6.43,10.65-9.92,15.79c-1.67,2.47-3.39,4.91-5.14,7.33c-0.8,1.1-1.61,2.19-2.42,3.28c-0.49,0.65-0.99,1.3-1.48,1.95
					c-1.43,1.9,1.47-1.87-0.41,0.52c-7.31,9.3-15.23,18.12-23.78,26.3c-4.35,4.17-8.86,8.17-13.54,11.98
					c-1.02,0.83-2.05,1.64-3.07,2.46c-2.16,1.73,2.1-1.57-0.11,0.09c-0.63,0.47-1.26,0.95-1.89,1.42c-2.32,1.73-4.68,3.41-7.07,5.04
					c-5.01,3.42-10.18,6.61-15.49,9.54c-2.55,1.41-5.13,2.76-7.74,4.04c-2.71,1.34-5.76,3.21-8.69,4c2.99-0.8,0.59-0.25-0.14,0.05
					c-0.49,0.2-0.99,0.4-1.49,0.6c-1.49,0.59-2.99,1.16-4.5,1.71c-3.03,1.1-6.09,2.12-9.18,3.05c-5.57,1.67-11.22,3.05-16.94,4.13
					c-1.56,0.29-3.11,0.57-4.68,0.82c-0.73,0.12-3.42,0.93-3.92,0.58c0.52-0.07,1.04-0.14,1.56-0.21c-0.52,0.07-1.05,0.13-1.57,0.19
					c-0.79,0.09-1.58,0.18-2.36,0.27c-1.58,0.17-3.16,0.31-4.74,0.44c-6.08,0.48-12.18,0.65-18.28,0.53
					c-5.86-0.12-11.71-0.5-17.53-1.13c-0.8-0.09-1.59-0.18-2.39-0.28c-0.27-0.03-0.53-0.07-0.8-0.1c-1.31-0.17-1.06-0.13,0.74,0.11
					c-1.19,0.12-2.76-0.39-3.97-0.58c-3.17-0.5-6.33-1.07-9.48-1.72c-12.07-2.48-23.93-6.02-35.4-10.53c-1.25-0.49-2.48-1-3.72-1.5
					c-2.6-1.06,2.42,1.07-0.15-0.07c-0.61-0.27-1.23-0.53-1.84-0.8c-2.81-1.24-5.59-2.55-8.34-3.91
					c-5.48-2.72-10.84-5.67-16.07-8.85c-5.2-3.17-10.26-6.57-15.17-10.18c-1.04-0.77-2.26-1.52-3.2-2.4c2.28,2.14,0.4,0.3-0.14-0.12
					c-0.63-0.49-1.25-0.99-1.87-1.49c-2.38-1.92-4.71-3.88-7.01-5.89c-9-7.89-17.37-16.51-25.03-25.7c-0.84-1-1.67-2.02-2.49-3.04
					c-0.49-0.61-0.98-1.22-1.47-1.84c-0.42-0.54-2.24-2.46-0.09-0.09c-2.07-2.28-3.8-5.04-5.58-7.56
					c-3.31-4.67-6.45-9.46-9.43-14.35c-6.19-10.17-11.66-20.78-16.38-31.71c-0.1-0.23-1.03-2.61-0.32-0.73
					c0.71,1.89-0.2-0.5-0.3-0.73c-0.59-1.43-1.16-2.86-1.72-4.3c-1.07-2.75-2.1-5.52-3.08-8.3c-1.91-5.43-3.65-10.91-5.2-16.45
					c-3.22-11.47-5.59-23.13-7.29-34.92c-0.3-2.11,0.15,0.62,0.11,0.82c0.12-0.61-0.22-1.68-0.29-2.31
					c-0.17-1.41-0.33-2.82-0.48-4.24c-0.31-2.95-0.57-5.91-0.79-8.87c-0.43-5.91-0.66-11.84-0.7-17.77
					c-0.08-11.71,0.59-23.42,2-35.04c0.08-0.64,0.16-1.28,0.24-1.91c0.33-2.74-0.41,2.8-0.01,0.07c0.18-1.27,0.36-2.55,0.56-3.82
					c0.47-3.05,0.99-6.1,1.56-9.13c1.09-5.82,2.37-11.6,3.83-17.34c2.86-11.24,6.41-22.31,10.63-33.12
					c0.56-1.44,1.14-2.88,1.73-4.32c0.27-0.66,0.49-1.56,0.89-2.15c-0.13,0.2-1.1,2.57-0.28,0.67c1.24-2.85,2.49-5.68,3.81-8.49
					c2.53-5.39,5.23-10.71,8.1-15.93c5.64-10.26,11.92-20.17,18.81-29.64c0.92-1.27,1.86-2.53,2.8-3.78
					c0.31-0.42,0.63-0.83,0.95-1.25c1.66-2.2-1.63,2.06,0.08-0.11c1.95-2.47,3.92-4.93,5.94-7.34c3.9-4.66,7.96-9.19,12.17-13.58
					c8.42-8.8,17.42-17.04,26.96-24.61c0.64-0.5,1.26-1.04,1.93-1.51c-2.58,1.83-0.27,0.22,0.21-0.15c1.09-0.82,2.18-1.64,3.28-2.44
					c2.65-1.93,5.33-3.81,8.05-5.64c5.23-3.51,10.6-6.81,16.11-9.88c5.29-2.95,10.7-5.69,16.21-8.2c1.5-0.68,3-1.46,4.55-2.01
					c-3.19,1.12,1.17-0.47,1.8-0.72c3.1-1.24,6.23-2.4,9.39-3.49c6.37-2.19,12.84-4.06,19.4-5.58c3.15-0.74,6.33-1.39,9.51-1.97
					c1.45-0.26,2.91-0.51,4.36-0.74c0.87-0.14,1.75-0.26,2.63-0.4c2.71-0.42-2.12,0.24,0.39-0.06c13.53-1.61,27.15-2.01,40.73-0.75
					c1.47,0.14,2.94,0.29,4.41,0.46c0.6,0.07,3.62,0.32,0.39,0.03c0.88,0.08,1.76,0.25,2.63,0.39c3.21,0.5,6.41,1.08,9.59,1.77
					c6.36,1.37,12.62,3.12,18.78,5.23c5.83,2,13.12-2.28,14.47-8.22C548.85,336.5,545.39,330.71,539.15,328.57L539.15,328.57z"/>
			</g>
		</g>
		<g>
			<path class="st6" d="M519.49,813.58"/>
			<path class="st6" d="M597.18,859.9"/>
			<ellipse class="st6" cx="545.38" cy="878.87" rx="77.69" ry="46.33"/>
		</g>
		<g>
			<path class="st7" d="M678.62,532.12c-17.91-79.29-64.36-166.99-136.11-191.78l-0.44-0.43c-21.25-7.35-43.96-10.03-66.41-8.75
				c4.59,0.6,9.18,1.33,13.76,2.24c39.09,7.77,77.2,27.78,103.59,58.49l0.17,0.59c49.46,57.5,45.43,156.56,21.01,234.01
				S530.16,767.6,453.95,797.67c-25.34,9.99-52.9,16.35-80.81,16.66c45.18,25.07,100.81,34.3,150.04,20.01
				c42.29-12.28,77.18-40.47,103.16-73.44C677.1,696.49,696.54,611.41,678.62,532.12z"/>
		</g>
		<g>
			<g>
				<path class="st5" d="M539.15,328.57c-53.97-18.5-114.56-8.8-163.61,18.82c-44.38,25-81.05,64.09-105.38,108.65
					c-23.84,43.67-36.5,93.46-35.88,143.25c0.62,49.51,14.41,98.97,40.46,141.16c13.16,21.32,29.44,40.95,48.44,57.31
					c20.22,17.42,42.98,30.98,67.88,40.56c23.87,9.19,49.58,14.23,75.17,14.51c26.41,0.3,52.28-4.97,76.51-15.38
					c46.55-20.01,83.99-58.88,109.18-102.2c25.94-44.62,39.64-96.39,38.93-148.01c-0.67-48.66-14.7-97-35.52-140.74
					c-19.41-40.76-47.51-80.05-86.64-103.87c-9.16-5.58-18.97-10.11-29.1-13.64c-5.82-2.03-13.12,2.3-14.47,8.22
					c-1.49,6.56,1.99,12.3,8.22,14.47c2.29,0.8,4.56,1.66,6.81,2.57c2.28,0.92-2.62-1.16-0.37-0.16c0.6,0.27,1.21,0.53,1.81,0.8
					c1.21,0.54,2.4,1.11,3.59,1.69c4.58,2.23,9.03,4.71,13.34,7.42c2.08,1.3,4.12,2.66,6.14,4.06c0.92,0.64,1.83,1.29,2.74,1.95
					c0.54,0.4,1.09,0.8,1.63,1.2c0.67,0.5,3.04,2.63,0.3,0.21c3.75,3.31,7.74,6.32,11.42,9.73c7.88,7.29,15.12,15.26,21.79,23.67
					c0.3,0.37,0.59,0.75,0.88,1.12c1.6,2.02-1.65-2.18-0.09-0.12c0.87,1.14,1.73,2.28,2.58,3.44c1.57,2.13,3.11,4.28,4.61,6.45
					c3.18,4.59,6.21,9.28,9.11,14.06c5.88,9.69,11.21,19.71,16.03,29.96c1.11,2.36,2.19,4.72,3.25,7.1c0.55,1.25,1.1,2.5,1.64,3.75
					c0.29,0.68,0.54,1.4,0.88,2.05c-1.51-2.98-0.31-0.73-0.04-0.07c2.18,5.26,4.23,10.57,6.17,15.92
					c7.71,21.3,13.91,43.4,17.27,65.82c0.12,0.8,0.23,1.6,0.35,2.39c0.13,0.9,0.67,1.64-0.09-0.73c0.47,1.44,0.42,3.29,0.59,4.8
					c0.36,3.2,0.66,6.4,0.91,9.61c0.45,5.88,0.7,11.77,0.77,17.66c0.13,12.3-0.57,24.61-2.1,36.81c-0.03,0.25-0.32,2.9-0.1,0.82
					c0.22-2.07-0.08,0.57-0.12,0.82c-0.23,1.59-0.47,3.17-0.72,4.76c-0.49,3.03-1.03,6.06-1.62,9.08
					c-1.15,5.91-2.5,11.77-4.03,17.59c-3.14,11.91-7.08,23.62-11.79,35.01c-0.2,0.49-0.39,1.01-0.62,1.49
					c1.4-2.94,0.18-0.44-0.08,0.15c-0.64,1.48-1.29,2.95-1.96,4.42c-1.22,2.69-2.49,5.36-3.8,8.02c-2.74,5.56-5.68,11.02-8.79,16.37
					c-3.13,5.38-6.43,10.65-9.92,15.79c-1.67,2.47-3.39,4.91-5.14,7.33c-0.8,1.1-1.61,2.19-2.42,3.28c-0.49,0.65-0.99,1.3-1.48,1.95
					c-1.43,1.9,1.47-1.87-0.41,0.52c-7.31,9.3-15.23,18.12-23.78,26.3c-4.35,4.17-8.86,8.17-13.54,11.98
					c-1.02,0.83-2.05,1.64-3.07,2.46c-2.16,1.73,2.1-1.57-0.11,0.09c-0.63,0.47-1.26,0.95-1.89,1.42c-2.32,1.73-4.68,3.41-7.07,5.04
					c-5.01,3.42-10.18,6.61-15.49,9.54c-2.55,1.41-5.13,2.76-7.74,4.04c-2.71,1.34-5.76,3.21-8.69,4c2.99-0.8,0.59-0.25-0.14,0.05
					c-0.49,0.2-0.99,0.4-1.49,0.6c-1.49,0.59-2.99,1.16-4.5,1.71c-3.03,1.1-6.09,2.12-9.18,3.05c-5.57,1.67-11.22,3.05-16.94,4.13
					c-1.56,0.29-3.11,0.57-4.68,0.82c-0.73,0.12-3.42,0.93-3.92,0.58c0.52-0.07,1.04-0.14,1.56-0.21c-0.52,0.07-1.05,0.13-1.57,0.19
					c-0.79,0.09-1.58,0.18-2.36,0.27c-1.58,0.17-3.16,0.31-4.74,0.44c-6.08,0.48-12.18,0.65-18.28,0.53
					c-5.86-0.12-11.71-0.5-17.53-1.13c-0.8-0.09-1.59-0.18-2.39-0.28c-0.27-0.03-0.53-0.07-0.8-0.1c-1.31-0.17-1.06-0.13,0.74,0.11
					c-1.19,0.12-2.76-0.39-3.97-0.58c-3.17-0.5-6.33-1.07-9.48-1.72c-12.07-2.48-23.93-6.02-35.4-10.53c-1.25-0.49-2.48-1-3.72-1.5
					c-2.6-1.06,2.42,1.07-0.15-0.07c-0.61-0.27-1.23-0.53-1.84-0.8c-2.81-1.24-5.59-2.55-8.34-3.91
					c-5.48-2.72-10.84-5.67-16.07-8.85c-5.2-3.17-10.26-6.57-15.17-10.18c-1.04-0.77-2.26-1.52-3.2-2.4c2.28,2.14,0.4,0.3-0.14-0.12
					c-0.63-0.49-1.25-0.99-1.87-1.49c-2.38-1.92-4.71-3.88-7.01-5.89c-9-7.89-17.37-16.51-25.03-25.7c-0.84-1-1.67-2.02-2.49-3.04
					c-0.49-0.61-0.98-1.22-1.47-1.84c-0.42-0.54-2.24-2.46-0.09-0.09c-2.07-2.28-3.8-5.04-5.58-7.56
					c-3.31-4.67-6.45-9.46-9.43-14.35c-6.19-10.17-11.66-20.78-16.38-31.71c-0.1-0.23-1.03-2.61-0.32-0.73
					c0.71,1.89-0.2-0.5-0.3-0.73c-0.59-1.43-1.16-2.86-1.72-4.3c-1.07-2.75-2.1-5.52-3.08-8.3c-1.91-5.43-3.65-10.91-5.2-16.45
					c-3.22-11.47-5.59-23.13-7.29-34.92c-0.3-2.11,0.15,0.62,0.11,0.82c0.12-0.61-0.22-1.68-0.29-2.31
					c-0.17-1.41-0.33-2.82-0.48-4.24c-0.31-2.95-0.57-5.91-0.79-8.87c-0.43-5.91-0.66-11.84-0.7-17.77
					c-0.08-11.71,0.59-23.42,2-35.04c0.08-0.64,0.16-1.28,0.24-1.91c0.33-2.74-0.41,2.8-0.01,0.07c0.18-1.27,0.36-2.55,0.56-3.82
					c0.47-3.05,0.99-6.1,1.56-9.13c1.09-5.82,2.37-11.6,3.83-17.34c2.86-11.24,6.41-22.31,10.63-33.12
					c0.56-1.44,1.14-2.88,1.73-4.32c0.27-0.66,0.49-1.56,0.89-2.15c-0.13,0.2-1.1,2.57-0.28,0.67c1.24-2.85,2.49-5.68,3.81-8.49
					c2.53-5.39,5.23-10.71,8.1-15.93c5.64-10.26,11.92-20.17,18.81-29.64c0.92-1.27,1.86-2.53,2.8-3.78
					c0.31-0.42,0.63-0.83,0.95-1.25c1.66-2.2-1.63,2.06,0.08-0.11c1.95-2.47,3.92-4.93,5.94-7.34c3.9-4.66,7.96-9.19,12.17-13.58
					c8.42-8.8,17.42-17.04,26.96-24.61c0.64-0.5,1.26-1.04,1.93-1.51c-2.58,1.83-0.27,0.22,0.21-0.15c1.09-0.82,2.18-1.64,3.28-2.44
					c2.65-1.93,5.33-3.81,8.05-5.64c5.23-3.51,10.6-6.81,16.11-9.88c5.29-2.95,10.7-5.69,16.21-8.2c1.5-0.68,3-1.46,4.55-2.01
					c-3.19,1.12,1.17-0.47,1.8-0.72c3.1-1.24,6.23-2.4,9.39-3.49c6.37-2.19,12.84-4.06,19.4-5.58c3.15-0.74,6.33-1.39,9.51-1.97
					c1.45-0.26,2.91-0.51,4.36-0.74c0.87-0.14,1.75-0.26,2.63-0.4c2.71-0.42-2.12,0.24,0.39-0.06c13.53-1.61,27.15-2.01,40.73-0.75
					c1.47,0.14,2.94,0.29,4.41,0.46c0.6,0.07,3.62,0.32,0.39,0.03c0.88,0.08,1.76,0.25,2.63,0.39c3.21,0.5,6.41,1.08,9.59,1.77
					c6.36,1.37,12.62,3.12,18.78,5.23c5.83,2,13.12-2.28,14.47-8.22C548.85,336.5,545.39,330.71,539.15,328.57L539.15,328.57z"/>
			</g>
		</g>
		<path class="st8" d="M568.38,569.06H356.75c-8.63,0-15.69-7.06-15.69-15.69v-81.33c0-8.63,7.06-15.69,15.69-15.69h211.63
			c8.63,0,15.69,7.06,15.69,15.69v81.33C584.07,562,577.01,569.06,568.38,569.06z"/>
		<g>
			<path class="st7" d="M610.72,874.21c-4.75-15.4-21.18-34.66-50.45-45.04l-0.17-0.11c-8.67-3.07-18.11-5.45-27.59-7.11
				c1.91,0.49,3.81,1,5.7,1.55c16.15,4.65,31.45,11.36,41.46,18.95l0.05,0.12c18.76,14.23,13.6,31.25,0.62,42.76
				c-12.98,11.52-40.23,17.66-73.3,16.52c-10.99-0.38-22.8-1.58-34.53-3.87c18.1,8.19,41.14,14.48,62.32,16.12
				c18.19,1.4,33.84-0.6,45.91-4.2C604.32,902.87,615.46,889.6,610.72,874.21z"/>
		</g>
		<g>
			<path class="st9" d="M516.02,811.84"/>
			<path class="st9" d="M593.72,858.17"/>
			<ellipse class="st9" cx="541.92" cy="877.14" rx="77.69" ry="46.33"/>
		</g>
		<g>
			<path class="st6" d="M359.2,813.58"/>
			<path class="st6" d="M436.9,859.9"/>
			<ellipse class="st6" cx="385.1" cy="878.87" rx="77.69" ry="46.33"/>
		</g>
		<g>
			<path class="st7" d="M449.44,874.21c-4.75-15.4-21.18-34.66-50.45-45.04l-0.17-0.11c-8.67-3.07-18.11-5.45-27.59-7.11
				c1.91,0.49,3.81,1,5.7,1.55c16.15,4.65,31.45,11.36,41.46,18.95l0.05,0.12c18.76,14.23,13.6,31.25,0.62,42.76
				c-12.98,11.52-40.23,17.66-73.3,16.52c-10.99-0.38-22.8-1.58-34.53-3.87c18.1,8.19,41.14,14.48,62.32,16.12
				c18.19,1.4,33.84-0.6,45.91-4.2C443.04,902.87,454.18,889.6,449.44,874.21z"/>
		</g>
		<g>
			<path class="st9" d="M355.74,811.84"/>
			<path class="st9" d="M433.43,858.17"/>
			<ellipse class="st9" cx="381.64" cy="877.14" rx="77.69" ry="46.33"/>
		</g>
		<g>
			<circle class="st10" cx="432.53" cy="518.58" r="10.01"/>
			<circle class="st10" cx="372.46" cy="518.58" r="10.01"/>
			<circle class="st10" cx="390.26" cy="498.56" r="10.01"/>
			<circle class="st10" cx="414.73" cy="498.56" r="10.01"/>
			<circle class="st10" cx="552.67" cy="518.58" r="10.01"/>
			<circle class="st10" cx="492.6" cy="518.58" r="10.01"/>
			<circle class="st10" cx="510.4" cy="498.56" r="10.01"/>
			<circle class="st10" cx="534.87" cy="498.56" r="10.01"/>
		</g>
		<path class="st11" d="M658.33,379.18c-124.21-40.12-247.15-43.85-368.85-12.59c-2.75,0.71-5.2,2.27-7.02,4.44
			c-18.11,21.64-27.55,49.47-26.11,77.01c0.26,5.02,4.98,8.62,9.86,7.43c146.45-35.51,277.8-33.48,398.93,10.49
			c4.92,1.79,10.18-1.56,10.7-6.77c2.64-26.61,2.13-52.72-9.87-73.76C664.28,382.48,661.57,380.23,658.33,379.18z"/>
		<path class="st12" d="M481.69,366.67c-0.34,15.31-1.53,30.63-2.37,45.92"/>
		<path class="st12" d="M437.97,366.67c-0.32,14.87-0.63,29.73-0.95,44.6"/>
		<path class="st12" d="M524.1,373.29c-0.3,13.59-1.65,27.06-2.27,40.62"/>
		<path class="st12" d="M563.85,378.53c0.38,23.46,0.38,14.18-0.95,40.68"/>
		<path class="st12" d="M600.97,385.13c1.22,13.2,1.42,26.17,0.36,39.39"/>
		<path class="st12" d="M636.58,390.48c3.9,14.13,5.65,28.66,4.49,43.31"/>
		<path class="st12" d="M366.08,372.74c-6.36,21.26-5.87,23.65-5.31,48.35"/>
		<path class="st12" d="M329.81,376.43c-8.07,16.29-9.56,33.24-8.07,52.06"/>
		<path class="st12" d="M294.2,387.08c-10.83,17.47-11.66,34.77-12.21,54.66"/>
		<path class="st12" d="M401.54,368.01c-0.36,16.19-1.18,32.37-1.62,48.56"/>
		<g>
			<g>
				<path class="st3" d="M754.24,256.26c-10.97-15.08-33.28-26.44-56.95-31.52c-23.67-5.08-48.49-4.39-71-0.47
					c-55.2,9.6-91.07,69.36-107.95,104.71l-1.92,1.89l0.31,0.42c24.68-16.29,62.45-37.3,93.75-34.89
					c23.58,1.82,46.71,7.97,70.22,11.05c23.52,3.08,49.37,2.57,65.64-7.36C763,289.94,765.21,271.34,754.24,256.26z"/>
				<g>
					<path class="st5" d="M764.4,250.32c-3.29-4.49-6.87-8.6-11.12-12.2c-4.54-3.83-9.4-7.31-14.55-10.28
						c-10.33-5.94-21.74-10.34-33.29-13.28c-25.95-6.59-53.08-6.34-79.37-2.13c-10.08,1.62-19.56,4.67-28.84,8.94
						c-8.97,4.12-17.09,9.58-24.87,15.62c-14.81,11.5-27.13,25.85-37.98,41.07c-9.13,12.8-17.05,26.44-24.02,40.52
						c-0.73,1.48-1.46,2.97-2.17,4.46c0.61-0.79,1.23-1.59,1.84-2.38c-0.64,0.63-1.28,1.26-1.92,1.89
						c-1.85,1.82-2.89,4.22-3.24,6.75c-0.32,2.37-0.1,5.5,1.4,7.5c0.1,0.14,0.21,0.28,0.31,0.42c1.82,2.43,3.9,4.69,7.03,5.41
						c2.99,0.68,6.42,0.56,9.06-1.19c10.91-7.19,22.17-13.9,33.91-19.65c3.58-1.75,7.2-3.41,10.86-4.97
						c-0.94,0.4-1.87,0.79-2.81,1.19c10.7-4.51,21.85-8.15,33.38-9.72c-1.04,0.14-2.08,0.28-3.13,0.42
						c4.26-0.56,8.57-0.84,12.87-0.7c5.24,0.18,10.48,0.85,15.68,1.55c-1.04-0.14-2.08-0.28-3.13-0.42
						c27.71,3.76,55,11.48,83.12,11.74c7.06,0.06,14.03-0.48,21.02-1.44c5.47-0.75,10.9-1.9,16.1-3.78
						c6.82-2.47,12.84-5.66,18.41-10.31c2.59-2.16,4.64-4.7,6.67-7.4c2.02-2.7,3.35-5.62,4.63-8.73
						C775.45,276.54,772.24,261.21,764.4,250.32c-1.84-2.55-3.9-4.54-7.03-5.41c-2.82-0.78-6.57-0.43-9.06,1.19
						c-2.51,1.62-4.72,4.03-5.41,7.03c-0.66,2.92-0.64,6.53,1.19,9.06c1.68,2.33,3.12,4.82,4.25,7.46c-0.4-0.94-0.79-1.87-1.19-2.81
						c1.08,2.58,1.84,5.26,2.24,8.03c-0.14-1.04-0.28-2.08-0.42-3.13c0.34,2.55,0.35,5.1,0.02,7.65c0.14-1.04,0.28-2.08,0.42-3.13
						c-0.33,2.31-0.95,4.55-1.84,6.71c0.4-0.94,0.79-1.87,1.19-2.81c-0.95,2.22-2.18,4.28-3.65,6.19c0.61-0.79,1.23-1.59,1.84-2.38
						c-1.6,2.03-3.44,3.84-5.48,5.44c0.79-0.61,1.59-1.23,2.38-1.84c-2.96,2.28-6.23,4.08-9.67,5.54c0.94-0.4,1.87-0.79,2.81-1.19
						c-6,2.51-12.37,3.96-18.79,4.83c1.04-0.14,2.08-0.28,3.13-0.42c-13.79,1.81-27.83,1.07-41.57-0.77
						c1.04,0.14,2.08,0.28,3.13,0.42c-12.8-1.73-25.47-4.32-38.18-6.61c-7.14-1.29-14.31-2.41-21.5-3.37
						c-5.77-0.77-11.62-1.53-17.45-1.55c-11.2-0.05-22.53,2.21-33.17,5.6c-11.18,3.56-22.01,8.35-32.43,13.73
						c-10.1,5.22-19.85,11.1-29.34,17.35c5.37,1.41,10.73,2.81,16.1,4.22c-0.1-0.14-0.21-0.28-0.31-0.42
						c-0.61,4.75-1.23,9.5-1.84,14.26c1.6-1.57,3.18-3.08,4.17-5.14c0.8-1.66,1.61-3.32,2.44-4.96c1.77-3.53,3.6-7.04,5.5-10.5
						c4.26-7.79,8.84-15.42,13.79-22.79c2.97-4.42,6.08-8.75,9.33-12.97c-0.61,0.79-1.23,1.59-1.84,2.38
						c7-9.06,14.68-17.61,23.24-25.23c2.47-2.2,5.01-4.31,7.63-6.34c-0.79,0.61-1.59,1.23-2.38,1.84c7.78-6,16.2-11.15,25.24-15
						c-0.94,0.4-1.87,0.79-2.81,1.19c9.3-3.92,18.94-6.02,28.92-7.36c-1.04,0.14-2.08,0.28-3.13,0.42
						c16.8-2.22,33.88-2.52,50.7-0.27c-1.04-0.14-2.08-0.28-3.13-0.42c12.1,1.66,23.97,4.67,35.24,9.39
						c-0.94-0.4-1.87-0.79-2.81-1.19c7.76,3.29,15.21,7.35,21.89,12.51c-0.79-0.61-1.59-1.23-2.38-1.84
						c3.99,3.11,7.66,6.6,10.77,10.6c-0.61-0.79-1.23-1.59-1.84-2.38c0.27,0.35,0.54,0.71,0.8,1.06c1.87,2.55,3.87,4.54,7.03,5.41
						c2.82,0.78,6.57,0.43,9.06-1.19c2.51-1.62,4.72-4.03,5.41-7.03C766.24,256.48,766.23,252.83,764.4,250.32z"/>
				</g>
			</g>
		</g>
		<g>
			<path class="st7" d="M746.05,243.5c-1.25,6.56-4.54,12.89-10.07,18.25c-13.87,13.46-38,18.62-60.44,19.55
				c-22.43,0.93-44.92-1.49-67.24,0.79c-10.21,1.04-20.77,5.19-31.07,11.06c2.46,3.12,4.45,6.69,5.88,10.58
				c9.73-3.98,19.48-6.43,28.75-6.37c22.37,0.15,44.5,4.99,66.87,6.5c22.36,1.51,46.77-1.03,61.67-12.96
				C755.55,278.79,756.85,258.84,746.05,243.5z"/>
		</g>
		<g>
			<g>
				<g>
					<path class="st5" d="M764.4,250.32c-3.29-4.49-6.87-8.6-11.12-12.2c-4.54-3.83-9.4-7.31-14.55-10.28
						c-10.33-5.94-21.74-10.34-33.29-13.28c-25.95-6.59-53.08-6.34-79.37-2.13c-10.08,1.62-19.56,4.67-28.84,8.94
						c-8.97,4.12-17.09,9.58-24.87,15.62c-14.81,11.5-27.13,25.85-37.98,41.07c-9.13,12.8-17.05,26.44-24.02,40.52
						c-0.73,1.48-1.46,2.97-2.17,4.46c0.61-0.79,1.23-1.59,1.84-2.38c-0.64,0.63-1.28,1.26-1.92,1.89
						c-1.85,1.82-2.89,4.22-3.24,6.75c-0.32,2.37-0.1,5.5,1.4,7.5c0.1,0.14,0.21,0.28,0.31,0.42c1.82,2.43,3.9,4.69,7.03,5.41
						c2.99,0.68,6.42,0.56,9.06-1.19c10.91-7.19,22.17-13.9,33.91-19.65c3.58-1.75,7.2-3.41,10.86-4.97
						c-0.94,0.4-1.87,0.79-2.81,1.19c10.7-4.51,21.85-8.15,33.38-9.72c-1.04,0.14-2.08,0.28-3.13,0.42
						c4.26-0.56,8.57-0.84,12.87-0.7c5.24,0.18,10.48,0.85,15.68,1.55c-1.04-0.14-2.08-0.28-3.13-0.42
						c27.71,3.76,55,11.48,83.12,11.74c7.06,0.06,14.03-0.48,21.02-1.44c5.47-0.75,10.9-1.9,16.1-3.78
						c6.82-2.47,12.84-5.66,18.41-10.31c2.59-2.16,4.64-4.7,6.67-7.4c2.02-2.7,3.35-5.62,4.63-8.73
						C775.45,276.54,772.24,261.21,764.4,250.32c-1.84-2.55-3.9-4.54-7.03-5.41c-2.82-0.78-6.57-0.43-9.06,1.19
						c-2.51,1.62-4.72,4.03-5.41,7.03c-0.66,2.92-0.64,6.53,1.19,9.06c1.68,2.33,3.12,4.82,4.25,7.46c-0.4-0.94-0.79-1.87-1.19-2.81
						c1.08,2.58,1.84,5.26,2.24,8.03c-0.14-1.04-0.28-2.08-0.42-3.13c0.34,2.55,0.35,5.1,0.02,7.65c0.14-1.04,0.28-2.08,0.42-3.13
						c-0.33,2.31-0.95,4.55-1.84,6.71c0.4-0.94,0.79-1.87,1.19-2.81c-0.95,2.22-2.18,4.28-3.65,6.19c0.61-0.79,1.23-1.59,1.84-2.38
						c-1.6,2.03-3.44,3.84-5.48,5.44c0.79-0.61,1.59-1.23,2.38-1.84c-2.96,2.28-6.23,4.08-9.67,5.54c0.94-0.4,1.87-0.79,2.81-1.19
						c-6,2.51-12.37,3.96-18.79,4.83c1.04-0.14,2.08-0.28,3.13-0.42c-13.79,1.81-27.83,1.07-41.57-0.77
						c1.04,0.14,2.08,0.28,3.13,0.42c-12.8-1.73-25.47-4.32-38.18-6.61c-7.14-1.29-14.31-2.41-21.5-3.37
						c-5.77-0.77-11.62-1.53-17.45-1.55c-11.2-0.05-22.53,2.21-33.17,5.6c-11.18,3.56-22.01,8.35-32.43,13.73
						c-10.1,5.22-19.85,11.1-29.34,17.35c5.37,1.41,10.73,2.81,16.1,4.22c-0.1-0.14-0.21-0.28-0.31-0.42
						c-0.61,4.75-1.23,9.5-1.84,14.26c1.6-1.57,3.18-3.08,4.17-5.14c0.8-1.66,1.61-3.32,2.44-4.96c1.77-3.53,3.6-7.04,5.5-10.5
						c4.26-7.79,8.84-15.42,13.79-22.79c2.97-4.42,6.08-8.75,9.33-12.97c-0.61,0.79-1.23,1.59-1.84,2.38
						c7-9.06,14.68-17.61,23.24-25.23c2.47-2.2,5.01-4.31,7.63-6.34c-0.79,0.61-1.59,1.23-2.38,1.84c7.78-6,16.2-11.15,25.24-15
						c-0.94,0.4-1.87,0.79-2.81,1.19c9.3-3.92,18.94-6.02,28.92-7.36c-1.04,0.14-2.08,0.28-3.13,0.42
						c16.8-2.22,33.88-2.52,50.7-0.27c-1.04-0.14-2.08-0.28-3.13-0.42c12.1,1.66,23.97,4.67,35.24,9.39
						c-0.94-0.4-1.87-0.79-2.81-1.19c7.76,3.29,15.21,7.35,21.89,12.51c-0.79-0.61-1.59-1.23-2.38-1.84
						c3.99,3.11,7.66,6.6,10.77,10.6c-0.61-0.79-1.23-1.59-1.84-2.38c0.27,0.35,0.54,0.71,0.8,1.06c1.87,2.55,3.87,4.54,7.03,5.41
						c2.82,0.78,6.57,0.43,9.06-1.19c2.51-1.62,4.72-4.03,5.41-7.03C766.24,256.48,766.23,252.83,764.4,250.32z"/>
				</g>
			</g>
		</g>
		<path class="st13" d="M665.95,385.38c-1.46-2.62-3.72-4.71-6.44-5.9c7.22,19.13,8.22,41.44,7.19,64.2
			c-0.25,5.54-5.33,9.35-10.34,7.71C559.38,419.67,457.48,417.21,348,439c114.16-16.43,218.78-9.03,316.61,27.41
			c4.91,1.83,10.84-1.17,11.39-6.41C678.81,433.24,677.82,406.63,665.95,385.38z"/>
		<g>
			
				<ellipse transform="matrix(0.98 -0.1989 0.1989 0.98 -75.7925 34.9169)" class="st14" cx="135.87" cy="394.65" rx="87.07" ry="114.44"/>
			<g>
				<path class="st15" d="M171.81,288.3c7.38,4.92,14.34,10.96,20.72,17.97"/>
				<path class="st15" d="M73.72,295.64c7.6-7.51,16.36-13.36,26.09-17.17l-0.42-2.29"/>
				<path class="st15" d="M111.63,274.95c5.5-1.12,11.02-1.57,16.5-1.4l-0.46-2.53l-28.28,5.16l0.42,2.29
					C103.61,276.99,107.54,275.78,111.63,274.95z"/>
				<path class="st15" d="M50.96,331.05c3.29-8.35,7.4-16.06,12.26-22.95"/>
				<path class="st15" d="M78.59,482.56l-0.16-0.88c-5.74-6.44-10.99-13.66-15.61-21.57"/>
				<path class="st15" d="M51.79,436.8c-2.83-7.6-5.13-15.59-6.82-23.92c-0.01-0.05-0.02-0.1-0.03-0.15"/>
				<path class="st15" d="M44.95,412.73c-1.69-8.36-2.68-16.65-3.03-24.77"/>
				<path class="st15" d="M62.81,460.11c-4.23-7.24-7.94-15.04-11.02-23.31"/>
				<path class="st15" d="M78.59,482.56l0.53-0.1c-0.23-0.26-0.46-0.52-0.69-0.78L78.59,482.56z"/>
				<path class="st15" d="M24.95,188.47"/>
				
					<rect x="62.71" y="381.75" transform="matrix(0.9838 -0.1794 0.1794 0.9838 -69.4785 20.2277)" class="st15" width="28.74" height="24.91"/>
				
					<rect x="58.24" y="357.24" transform="matrix(0.9838 -0.1794 0.1794 0.9838 -65.1542 19.0282)" class="st15" width="28.74" height="24.91"/>
				<path class="st15" d="M132.13,295.53l-4.01-21.98c-5.48-0.17-11,0.28-16.5,1.4c-4.09,0.83-8.02,2.03-11.82,3.52l4.05,22.22
					L132.13,295.53z"/>
				
					<rect x="77.58" y="303.07" transform="matrix(0.9838 -0.1794 0.1794 0.9838 -55.1204 21.6187)" class="st15" width="28.74" height="24.91"/>
				
					<rect x="82.05" y="327.58" transform="matrix(0.9838 -0.1794 0.1794 0.9838 -59.4445 22.8181)" class="st15" width="28.74" height="24.91"/>
				
					<rect x="53.77" y="332.73" transform="matrix(0.9838 -0.1794 0.1794 0.9838 -60.8296 17.8285)" class="st15" width="28.74" height="24.91"/>
				<path class="st15" d="M99.8,278.47c-9.73,3.8-18.49,9.66-26.09,17.17l1.86,10.21l28.28-5.16L99.8,278.47z"/>
				
					<rect x="152.01" y="390.78" transform="matrix(0.9838 -0.1794 0.1794 0.9838 -69.6499 36.3969)" class="st15" width="28.74" height="24.91"/>
				
					<rect x="123.74" y="395.94" transform="matrix(0.9838 -0.1794 0.1794 0.9838 -71.0345 31.4072)" class="st15" width="28.74" height="24.91"/>
				
					<rect x="180.29" y="385.63" transform="matrix(0.9838 -0.1794 0.1794 0.9838 -68.2656 41.3868)" class="st15" width="28.74" height="24.91"/>
				
					<rect x="67.18" y="406.25" transform="matrix(0.9838 -0.1794 0.1794 0.9838 -73.8042 21.4278)" class="st15" width="28.74" height="24.91"/>
				<path class="st15" d="M211.04,407.76l18.89-3.44c-0.17-8.14-0.99-16.46-2.51-24.87l-20.85,3.8L211.04,407.76z"/>
				
					<rect x="95.46" y="401.1" transform="matrix(0.9838 -0.1794 0.1794 0.9838 -72.4188 26.4173)" class="st15" width="28.74" height="24.91"/>
				
					<rect x="143.07" y="341.77" transform="matrix(0.9838 -0.1794 0.1794 0.9838 -61.0007 33.9976)" class="st15" width="28.74" height="24.91"/>
				
					<rect x="132.68" y="444.95" transform="matrix(0.9838 -0.1794 0.1794 0.9838 -79.6832 33.8063)" class="st15" width="28.74" height="24.91"/>
				<path class="st15" d="M78.43,481.68l-4.31-23.63l-11.3,2.06C67.44,468.02,72.69,475.24,78.43,481.68z"/>
				<path class="st15" d="M220.36,458.88c0.32-0.78,0.64-1.56,0.95-2.35l-1.33,0.24L220.36,458.88z"/>
				
					<rect x="134.13" y="292.75" transform="matrix(0.9838 -0.1794 0.1794 0.9838 -52.3519 31.5986)" class="st15" width="28.74" height="24.91"/>
				
					<rect x="105.86" y="297.91" transform="matrix(0.9838 -0.1794 0.1794 0.9838 -53.7364 26.6088)" class="st15" width="28.74" height="24.91"/>
				<path class="st15" d="M171.81,288.3c-4.25-2.83-8.63-5.29-13.12-7.35l1.72,9.43L171.81,288.3z"/>
				
					<rect x="110.33" y="322.42" transform="matrix(0.9838 -0.1794 0.1794 0.9838 -58.0603 27.808)" class="st15" width="28.74" height="24.91"/>
				
					<rect x="114.8" y="346.93" transform="matrix(0.9838 -0.1794 0.1794 0.9838 -62.3849 29.0077)" class="st15" width="28.74" height="24.91"/>
				<path class="st15" d="M63.21,308.1l12.37-2.26l-1.86-10.21C69.91,299.4,66.41,303.57,63.21,308.1z"/>
				
					<rect x="166.88" y="312.1" transform="matrix(0.9838 -0.1794 0.1794 0.9838 -55.2922 37.7881)" class="st15" width="28.74" height="24.91"/>
				
					<rect x="171.35" y="336.61" transform="matrix(0.9838 -0.1794 0.1794 0.9838 -59.6169 38.9879)" class="st15" width="28.74" height="24.91"/>
				
					<rect x="138.6" y="317.26" transform="matrix(0.9838 -0.1794 0.1794 0.9838 -56.6768 32.7985)" class="st15" width="28.74" height="24.91"/>
				
					<rect x="175.82" y="361.12" transform="matrix(0.9838 -0.1794 0.1794 0.9838 -63.9419 40.1878)" class="st15" width="28.74" height="24.91"/>
				
					<rect x="86.52" y="352.08" transform="matrix(0.9838 -0.1794 0.1794 0.9838 -63.7696 24.018)" class="st15" width="28.74" height="24.91"/>
				
					<rect x="90.99" y="376.59" transform="matrix(0.9838 -0.1794 0.1794 0.9838 -68.0937 25.2174)" class="st15" width="28.74" height="24.91"/>
				
					<rect x="147.54" y="366.28" transform="matrix(0.9838 -0.1794 0.1794 0.9838 -65.3257 35.1975)" class="st15" width="28.74" height="24.91"/>
				
					<rect x="119.27" y="371.43" transform="matrix(0.9838 -0.1794 0.1794 0.9838 -66.7095 30.2073)" class="st15" width="28.74" height="24.91"/>
				<path class="st15" d="M160.41,290.38l-1.72-9.43c-9.82-4.5-20.13-7.08-30.57-7.4l4.01,21.98L160.41,290.38z"/>
				<path class="st15" d="M111.34,501.91l1.03,5.67c9.83,4.61,20.15,7.28,30.62,7.69l-3.38-18.51L111.34,501.91z"/>
				<path class="st15" d="M139.61,496.75l3.38,18.51c5.69,0.23,11.42-0.21,17.14-1.37c3.87-0.79,7.61-1.91,11.23-3.29l-3.47-19.01
					L139.61,496.75z"/>
				<path class="st15" d="M74.12,458.05l4.31,23.63c0.23,0.26,0.46,0.52,0.69,0.78l27.74-5.06l-4.47-24.51L74.12,458.05z"/>
				<path class="st15" d="M106.87,477.4l-27.74,5.06c7.61,8.39,16.06,15.39,25.05,20.75l7.17-1.31L106.87,477.4z"/>
				<path class="st15" d="M104.17,503.21c2.69,1.6,5.42,3.06,8.2,4.36l-1.03-5.67L104.17,503.21z"/>
				<path class="st15" d="M211.04,407.76l4.47,24.51l12.76-2.33c1.28-8.25,1.83-16.83,1.65-25.62L211.04,407.76z"/>
				
					<rect x="128.21" y="420.45" transform="matrix(0.9838 -0.1794 0.1794 0.9838 -75.3599 32.6073)" class="st15" width="28.74" height="24.91"/>
				
					<rect x="184.76" y="410.13" transform="matrix(0.9838 -0.1794 0.1794 0.9838 -72.5907 42.5868)" class="st15" width="28.74" height="24.91"/>
				
					<rect x="156.48" y="415.29" transform="matrix(0.9838 -0.1794 0.1794 0.9838 -73.9761 37.5976)" class="st15" width="28.74" height="24.91"/>
				
					<rect x="189.23" y="434.64" transform="matrix(0.9838 -0.1794 0.1794 0.9838 -76.916 43.787)" class="st15" width="28.74" height="24.91"/>
				
					<rect x="160.95" y="439.8" transform="matrix(0.9838 -0.1794 0.1794 0.9838 -78.299 38.7962)" class="st15" width="28.74" height="24.91"/>
				<path class="st15" d="M228.27,429.94l-12.76,2.33l4.47,24.51l1.33-0.24C224.47,448.22,226.82,439.29,228.27,429.94z"/>
				
					<rect x="137.14" y="469.46" transform="matrix(0.9838 -0.1794 0.1794 0.9838 -84.0079 35.006)" class="st15" width="28.74" height="24.91"/>
				
					<rect x="165.42" y="464.3" transform="matrix(0.9838 -0.1794 0.1794 0.9838 -82.6243 39.9963)" class="st15" width="28.74" height="24.91"/>
				
					<rect x="108.87" y="474.62" transform="matrix(0.9838 -0.1794 0.1794 0.9838 -85.3921 30.0161)" class="st15" width="28.74" height="24.91"/>
				
					<rect x="104.4" y="450.11" transform="matrix(0.9838 -0.1794 0.1794 0.9838 -81.0681 28.8167)" class="st15" width="28.74" height="24.91"/>
				
					<rect x="71.65" y="430.76" transform="matrix(0.9838 -0.1794 0.1794 0.9838 -78.1271 22.6268)" class="st15" width="28.74" height="24.91"/>
				<path class="st15" d="M219.98,456.77l-28.28,5.16l4.47,24.51l9.42-1.72c5.93-7.56,10.9-16.26,14.77-25.84L219.98,456.77z"/>
				<path class="st15" d="M160.41,290.38l4.47,24.51l28.28-5.16l-0.63-3.46c-6.38-7.01-13.34-13.05-20.72-17.97L160.41,290.38z"/>
				<path class="st15" d="M197.5,493.75c2.87-2.78,5.56-5.81,8.09-9.04l-9.42,1.72L197.5,493.75z"/>
				<path class="st15" d="M167.89,491.59l3.47,19.01c9.73-3.7,18.52-9.45,26.15-16.85l-1.33-7.32L167.89,491.59z"/>
				<path class="st15" d="M195.23,309.35c-0.89-1.05-1.79-2.08-2.7-3.08l0.63,3.46L195.23,309.35z"/>
				<path class="st15" d="M80.05,330.36l-4.47-24.51l-12.37,2.26c-4.85,6.89-8.97,14.6-12.26,22.95l0.81,4.46L80.05,330.36z"/>
				<path class="st15" d="M202.1,358.74l19.02-3.47c-2.88-8.29-6.39-16.12-10.41-23.42l-13.08,2.39L202.1,358.74z"/>
				<path class="st15" d="M197.63,334.23l13.08-2.39c-4.54-8.23-9.74-15.77-15.48-22.5l-2.07,0.38L197.63,334.23z"/>
				
					<rect x="99.93" y="425.6" transform="matrix(0.9838 -0.1794 0.1794 0.9838 -76.7441 27.6173)" class="st15" width="28.74" height="24.91"/>
				<path class="st15" d="M51.79,436.8c3.08,8.28,6.79,16.08,11.02,23.31l11.3-2.06l-4.47-24.51L51.79,436.8z"/>
				<path class="st15" d="M65.18,409.04l-20.23,3.69c0.01,0.05,0.02,0.1,0.03,0.15c1.69,8.33,3.99,16.33,6.82,23.92l17.85-3.26
					L65.18,409.04z"/>
				<path class="st15" d="M206.57,383.25l20.85-3.8c-0.21-1.16-0.4-2.31-0.64-3.47c-1.45-7.16-3.36-14.07-5.66-20.7l-19.02,3.47
					L206.57,383.25z"/>
				<path class="st15" d="M51.77,335.51l-2.63,0.48c-2.86,8.31-4.93,17.18-6.13,26.44l13.23-2.41L51.77,335.51z"/>
				<path class="st15" d="M50.96,331.05c-0.64,1.62-1.25,3.27-1.82,4.94l2.63-0.48L50.96,331.05z"/>
				<path class="st15" d="M60.71,384.53l-18.79,3.43c0.35,8.12,1.34,16.41,3.03,24.77l20.23-3.69L60.71,384.53z"/>
				<path class="st15" d="M56.24,360.02l-13.23,2.41c-1.07,8.24-1.46,16.78-1.08,25.52l18.79-3.43L56.24,360.02z"/>
			</g>
			
				<ellipse transform="matrix(0.98 -0.1989 0.1989 0.98 -75.7476 34.9136)" class="st16" cx="135.88" cy="394.42" rx="92.76" ry="121.91"/>
			
				<ellipse transform="matrix(0.98 -0.1989 0.1989 0.98 -75.7476 34.9136)" class="st17" cx="135.88" cy="394.42" rx="92.76" ry="121.91"/>
			<path class="st18" d="M207.99,735.08l-29.77-146.66c-7.33-36.13,2.42-73.45,25.9-101.87c21.73-26.29,31.4-67.53,22.66-110.58
				c-13.39-65.98-64.95-111.21-115.15-101.02c-50.2,10.19-80.04,71.94-66.65,137.92c8.59,42.3,32.86,76.07,62.4,92.17
				c36.54,19.92,61.82,55.64,70.1,96.43l27.25,134.26L207.99,735.08z"/>
			<g>
				<path class="st19" d="M214.26,740.93l-15.07,3.06c-1.7,0.34-3.35-0.75-3.69-2.45l-19.4-95.58c-0.34-1.7,0.75-3.35,2.45-3.69
					l15.07-3.06c1.7-0.34,3.35,0.75,3.69,2.45l19.4,95.58C217.05,738.93,215.95,740.58,214.26,740.93z"/>
			</g>
			<path class="st20" d="M216.5,736.24l-15.72-77.44l11.31,75.3c0.34,2.27-1.22,4.38-3.49,4.72l-13.24,1.99
				c0.57,2.09,2.66,3.41,4.81,2.97l13.08-2.65C215.5,740.68,216.96,738.48,216.5,736.24z"/>
			<path class="st21" d="M212.55,731.15c-5.4,1.08-10.81,2.16-16.21,3.23"/>
			<path class="st21" d="M214.39,735.56c-5.4,1.08-10.81,2.16-16.21,3.23"/>
		</g>
		<g>
			
				<ellipse transform="matrix(0.6178 -0.7863 0.7863 0.6178 -445.7757 456.1059)" class="st22" cx="246.34" cy="686.65" rx="39.64" ry="76.18"/>
			<path class="st23" d="M301.82,734.06c-13.36,6.18-37.66,8.07-65.78-3.26l0,0c-8.2-3.65-16.65-7.8-24.65-12.29l5.2,2.52
				c13.5,6.56,27.77,11.03,42.49,13.31l0,0c22.8,3.05,30.2-10.23,28.13-24.8c-2.07-14.57-17.73-34.48-42.65-53.44
				c-8.81-6.84-18.03-12.94-27.62-18.26c19.62,6.5,38.36,15.7,55.88,27.41c11.54,8.02,21.88,18.12,30.7,29.98
				C315.95,713.53,315.52,727.96,301.82,734.06z"/>
			
				<ellipse transform="matrix(0.5821 -0.8131 0.8131 0.5821 -456.0599 486.9088)" class="st24" cx="245.65" cy="687.12" rx="39.75" ry="75.97"/>
		</g>
	</g>
</g>
</svg>
