<?xml version="1.0" encoding="UTF-8"?><svg xmlns="http://www.w3.org/2000/svg" viewBox="0 0 465.64 573.11"><defs><style>.c{stroke:#fc0;stroke-linecap:round;stroke-linejoin:round;stroke-width:.7px;}.c,.d,.e,.f{fill:none;}.g,.h,.d,.e,.i,.f{stroke-miterlimit:10;}.g,.d,.i{stroke:#000;}.j,.h{fill:#fff;}.k{fill:#fc0;}.l{fill:#ccc;}.m{fill:#c9a308;}.n{fill:#1a1a1a;}.o{fill:#4d4d4d;}.h,.f{stroke:#4d4d4d;stroke-width:19.61px;}.d{stroke-width:2px;}.e{stroke:#666;}.i{stroke-width:7.84px;}</style></defs><g id="a"><g><g><path class="j" d="M312.61,117.83c-28.9-10-61.39-8.57-89.85,1.23-28.46,9.8-53.06,27.55-72.79,48.75-48.27,51.9-67.34,126.09-49.82,193.83,10.52,40.68,34.31,79.48,70.45,105.09,36.14,25.61,85.13,36.6,127.75,24.22,31.91-9.26,58.24-30.54,77.85-55.43,38.3-48.61,52.97-112.81,39.45-172.65-13.52-59.84-48.57-126.02-102.72-144.73"/><path class="o" d="M315.74,106.49c-41.44-14.21-88.05-6.71-125.69,14.5-33.9,19.09-61.98,48.99-80.56,83.03-18.23,33.4-27.95,71.49-27.47,109.56,.47,37.85,11.01,75.73,30.93,107.98,10.06,16.28,22.49,31.33,37.01,43.83,15.67,13.5,33.21,23.93,52.5,31.35,18.24,7.02,37.95,10.84,57.49,11.06,10.03,.11,20.09-.87,29.94-2.73,10.13-1.92,19.8-5.21,29.26-9.27,35.54-15.29,64.2-45.09,83.43-78.17,19.82-34.1,30.31-73.71,29.77-113.15-.51-37.25-11.26-74.19-27.2-107.67-14.86-31.21-36.48-61.19-66.42-79.42-7.12-4.34-14.78-7.84-22.65-10.58-5.82-2.03-13.12,2.3-14.47,8.22-1.49,6.56,1.99,12.3,8.22,14.47,2.04,.71,4.06,1.49,6.06,2.32l-2.81-1.19c8.81,3.74,17.03,8.7,24.61,14.54l-2.38-1.84c10.1,7.84,18.96,17.13,26.79,27.21l-1.84-2.38c12.2,15.8,21.87,33.43,29.63,51.79l-1.19-2.81c8.87,21.12,15.67,43.52,18.76,66.26l-.42-3.13c2.4,18.05,2.36,36.34-.03,54.39l.42-3.13c-2.5,18.43-7.43,36.47-14.65,53.61l1.19-2.81c-6.94,16.33-15.92,31.74-26.76,45.79l1.84-2.38c-9.43,12.16-20.21,23.25-32.36,32.7l2.38-1.84c-9.96,7.68-20.76,14.18-32.34,19.11l2.81-1.19c-10.56,4.44-21.62,7.46-32.97,8.99l3.13-.42c-12.54,1.64-25.24,1.51-37.77-.14l3.13,.42c-14.24-1.93-28.15-5.79-41.39-11.37l2.81,1.19c-12.58-5.36-24.42-12.25-35.26-20.58l2.38,1.84c-11.65-9.02-22.06-19.52-31.09-31.16l1.84,2.38c-10.06-13.04-18.32-27.37-24.74-42.54l1.19,2.81c-6.85-16.33-11.51-33.5-13.88-51.06l.42,3.13c-2.4-18.14-2.34-36.53,.06-54.66l-.42,3.13c2.53-18.71,7.54-37.02,14.87-54.42l-1.19,2.81c7.05-16.62,16.18-32.3,27.2-46.62l-1.84,2.38c10.64-13.74,22.94-26.18,36.68-36.82l-2.38,1.84c11.83-9.1,24.68-16.79,38.42-22.63l-2.81,1.19c12.3-5.17,25.18-8.75,38.4-10.58l-3.13,.42c12.41-1.66,24.97-1.77,37.38-.14l-3.13-.42c8.19,1.12,16.24,2.98,24.05,5.66,5.83,2,13.12-2.28,14.47-8.22,1.49-6.54-1.98-12.33-8.22-14.47h0Z"/></g><ellipse class="h" cx="319.68" cy="528.34" rx="58.63" ry="34.96"/><path class="l" d="M420.23,262.89c-13.52-59.84-48.57-126.02-102.72-144.73l-.33-.32c-16.04-5.55-33.18-7.57-50.12-6.61,3.47,.45,6.93,1,10.38,1.69,29.5,5.86,58.26,20.97,78.18,44.14l.13,.45c37.33,43.39,34.29,118.15,15.85,176.6-18.44,58.45-63.4,106.49-120.91,129.18-19.12,7.54-39.93,12.34-60.98,12.57,34.1,18.92,76.08,25.89,113.23,15.1,31.91-9.26,58.24-30.54,77.85-55.43,38.3-48.61,52.97-112.81,39.45-172.65Z"/><path class="o" d="M315.74,106.49c-41.44-14.21-88.05-6.71-125.69,14.5-33.9,19.09-61.98,48.99-80.56,83.03-18.23,33.4-27.95,71.49-27.47,109.56,.47,37.85,11.01,75.73,30.93,107.98,10.06,16.28,22.49,31.33,37.01,43.83,15.67,13.5,33.21,23.93,52.5,31.35,18.24,7.02,37.95,10.84,57.49,11.06,10.03,.11,20.09-.87,29.94-2.73,10.13-1.92,19.8-5.21,29.26-9.27,35.54-15.29,64.2-45.09,83.43-78.17,19.82-34.1,30.31-73.71,29.77-113.15-.51-37.25-11.26-74.19-27.2-107.67-14.86-31.21-36.48-61.19-66.42-79.42-7.12-4.34-14.78-7.84-22.65-10.58-5.82-2.03-13.12,2.3-14.47,8.22-1.49,6.56,1.99,12.3,8.22,14.47,2.04,.71,4.06,1.49,6.06,2.32l-2.81-1.19c8.81,3.74,17.03,8.7,24.61,14.54l-2.38-1.84c10.1,7.84,18.96,17.13,26.79,27.21l-1.84-2.38c12.2,15.8,21.87,33.43,29.63,51.79l-1.19-2.81c8.87,21.12,15.67,43.52,18.76,66.26l-.42-3.13c2.4,18.05,2.36,36.34-.03,54.39l.42-3.13c-2.5,18.43-7.43,36.47-14.65,53.61l1.19-2.81c-6.94,16.33-15.92,31.74-26.76,45.79l1.84-2.38c-9.43,12.16-20.21,23.25-32.36,32.7l2.38-1.84c-9.96,7.68-20.76,14.18-32.34,19.11l2.81-1.19c-10.56,4.44-21.62,7.46-32.97,8.99l3.13-.42c-12.54,1.64-25.24,1.51-37.77-.14l3.13,.42c-14.24-1.93-28.15-5.79-41.39-11.37l2.81,1.19c-12.58-5.36-24.42-12.25-35.26-20.58l2.38,1.84c-11.65-9.02-22.06-19.52-31.09-31.16l1.84,2.38c-10.06-13.04-18.32-27.37-24.74-42.54l1.19,2.81c-6.85-16.33-11.51-33.5-13.88-51.06l.42,3.13c-2.4-18.14-2.34-36.53,.06-54.66l-.42,3.13c2.53-18.71,7.54-37.02,14.87-54.42l-1.19,2.81c7.05-16.62,16.18-32.3,27.2-46.62l-1.84,2.38c10.64-13.74,22.94-26.18,36.68-36.82l-2.38,1.84c11.83-9.1,24.68-16.79,38.42-22.63l-2.81,1.19c12.3-5.17,25.18-8.75,38.4-10.58l-3.13,.42c12.41-1.66,24.97-1.77,37.38-.14l-3.13-.42c8.19,1.12,16.24,2.98,24.05,5.66,5.83,2,13.12-2.28,14.47-8.22,1.49-6.54-1.98-12.33-8.22-14.47h0Z"/><rect class="i" x="165.48" y="205.72" width="183.39" height="85.05" rx="15.69" ry="15.69"/><path class="l" d="M365.96,524.82c-3.58-11.62-15.98-26.16-38.08-33.99l-.13-.08c-6.54-2.32-13.67-4.11-20.82-5.37,1.44,.37,2.88,.76,4.3,1.17,12.19,3.51,23.74,8.57,31.29,14.3l.04,.09c14.16,10.74,10.26,23.58,.47,32.27s-30.36,13.33-55.32,12.47c-8.3-.29-17.2-1.19-26.06-2.92,13.66,6.18,31.05,10.93,47.03,12.16,13.73,1.06,25.54-.46,34.64-3.17,17.79-5.3,26.21-15.31,22.62-26.93Z"/><ellipse class="f" cx="317.06" cy="527.04" rx="58.63" ry="34.96"/><ellipse class="h" cx="198.72" cy="528.34" rx="58.63" ry="34.96"/><path class="l" d="M245,524.82c-3.58-11.62-15.98-26.16-38.08-33.99l-.13-.08c-6.54-2.32-13.67-4.11-20.82-5.37,1.44,.37,2.88,.76,4.3,1.17,12.19,3.51,23.74,8.57,31.29,14.3l.04,.09c14.16,10.74,10.26,23.58,.47,32.27-9.79,8.69-30.36,13.33-55.32,12.47-8.3-.29-17.2-1.19-26.06-2.92,13.66,6.18,31.05,10.93,47.03,12.16,13.73,1.06,25.54-.46,34.64-3.17,17.79-5.3,26.21-15.31,22.62-26.93Z"/><ellipse class="f" cx="196.1" cy="527.04" rx="58.63" ry="34.96"/><g><circle class="k" cx="234.51" cy="252.67" r="7.56"/><circle class="k" cx="189.17" cy="252.67" r="7.56"/><circle class="k" cx="202.61" cy="237.56" r="7.56"/><circle class="k" cx="221.07" cy="237.56" r="7.56"/><circle class="k" cx="325.17" cy="252.67" r="7.56"/><circle class="k" cx="279.84" cy="252.67" r="7.56"/><circle class="k" cx="293.27" cy="237.56" r="7.56"/><circle class="k" cx="311.74" cy="237.56" r="7.56"/></g></g></g><g id="b"><path class="d" d="M13.9,104.68c-.27,15.17-.55,30.35-.82,45.52-.44,24.42,1.45,54.66,1.32,61.98,1.17,36.17,.33,48.33,1.5,84.5"/><path class="n" d="M440.45,118.45c-134.83,20.03-253.49,48.75-363.55,78.23-14.11-20.37-33.02-55.68-64.25-91.86C140.36,37.65,266.08,17.93,378.9,21.68c27.65,39.76,34.01,65.51,61.55,96.77Z"/><path class="g" d="M446.23,123.82c-134.83,20.03-259.28,44.02-369.35,73.5-14.11-20.37-27.23-50.95-58.46-87.13C146.14,43.01,268.08,21.93,380.9,25.68c26,41,37.78,66.87,65.33,98.14Z"/><path class="g" d="M394.9,178.68c-92.17-21.07-203.07-11.02-290.12,33.05l-3.21-87.28c86.21-32.48,162.33-55.44,255.33-45.77l38,100Z"/><g><path class="n" d="M356.36,78.63c-92.76-9.53-168.75,13.4-254.8,45.82l3.21,87.28c.05-.03,.11-.05,.16-.08,83.87-57.37,152.7-112.88,251.42-133.02Z"/><path class="n" d="M385.89,176.74c3.02,.62,6.02,1.26,9,1.94"/></g><path class="c" d="M19.84,304.45c1.03-1.3,1.61,4.93,.96,21.39-.44,11.13,3.53,23.63,3.76,25.94h0"/><path class="c" d="M20.91,302.35c.41,1.67,.8,11.93,4.13,21.65,3.72,10.84,7.02,23.58,7.59,25.89h0"/><path class="c" d="M19.84,303.33c.69,2.15,3.64,8.93,4.68,20.57s-.19,24.45,.04,26.76h0"/><path class="c" d="M17.64,304.68c.17,1.67-.73,13.94,.96,21.39,2.46,10.86,3.53,23.63,3.76,25.94h0"/><path class="c" d="M15.77,302.94c1.32-1.06,.3,5.42-4.54,22.01-3.27,11.21-2.62,24.94-2.98,27.35h0"/><path class="c" d="M12.27,302.78c.02,1.81-1.95,12.38-.93,23.11,1.14,11.97,1.44,25.78,1.46,28.28h0"/><path class="c" d="M10.32,301.8c.23,2.35,1.73,9.93,.35,22.12s-5.22,25.12-5.46,27.54h0"/><path class="c" d="M16.84,304.14c1.14-1.2,1.17,5.05-.95,21.39-1.43,11.04,1.42,23.85,1.44,26.17h0"/><path class="c" d="M21.62,302.78c.02,1.72-1.96,11.8-.94,22.02,1.14,11.41,1.42,24.56,1.45,26.94h0"/><path class="c" d="M16.84,304.1c.5,2.2,2.83,9.21,2.83,20.9s-2.36,24.34-2.34,26.65h0"/><path class="c" d="M14.62,304.17c.02,1.67-1.96,13.82-.95,21.39,1.48,11.04,1.42,23.85,1.44,26.17h0"/><path class="c" d="M13.58,302.62c-.26,1.74-4.26,14-4.54,22.01-.4,11.68-2.62,24.94-2.98,27.35h0"/><path class="c" d="M16.84,306.47c1.14-1.2,1.17,5.05-.95,21.39-1.43,11.04,1.42,23.85,1.44,26.17h0"/><path class="c" d="M21.62,302.78c.02,1.72-1.96,11.8-.94,22.02,1.14,11.41,1.42,24.56,1.45,26.94h0"/><path class="c" d="M16.84,304.1c.5,2.2,2.83,9.21,2.83,20.9s-2.36,24.34-2.34,26.65h0"/><path class="c" d="M14.62,304.17c.02,1.67-1.96,13.82-.95,21.39,1.48,11.04,1.42,23.85,1.44,26.17h0"/><path class="c" d="M17.52,304.66c1.03-1.3,1.61,4.93,.96,21.39-.44,11.13,3.53,23.63,3.76,25.94h0"/><path class="c" d="M22.16,302.88c.17,1.71-.9,11.92,1.02,22.02,2.15,11.26,3.6,24.33,3.84,26.71h0"/><path class="c" d="M17.51,304.62c.69,2.15,3.64,8.93,4.68,20.57s-.19,24.45,.04,26.76h0"/><path class="c" d="M21.64,306.5c.02,1.67-1.96,13.82-.95,21.39,1.48,11.04,1.42,23.85,1.44,26.17h0"/><path class="c" d="M13.46,302.57c1.32-1.06,.3,5.42-4.54,22.01-3.27,11.21-2.62,24.94-2.98,27.35h0"/><path class="c" d="M9.93,302.78c.02,1.81-1.95,12.38-.93,23.11,1.14,11.97,1.44,25.78,1.46,28.28h0"/><path class="c" d="M13.47,302.53c.12,2.36,1.24,10-.72,22.11-1.88,11.54-6.43,24.83-6.8,27.24h0"/><path class="c" d="M9.86,301.89c.02,2.36,.84,10.05-1.62,22.07-2.34,11.45-7.43,24.55-7.89,26.94H.35"/><path class="c" d="M14.5,304.14c1.14-1.2,1.17,5.05-.95,21.39-1.43,11.04,1.42,23.85,1.44,26.17h0"/><path class="c" d="M19.29,302.78c.02,1.72-1.96,11.8-.94,22.02,1.14,11.41,1.42,24.56,1.45,26.94h0"/><path class="c" d="M14.5,304.1c.5,2.2,2.83,9.21,2.83,20.9s-2.36,24.34-2.34,26.65h0"/><path class="c" d="M12.29,304.17c.02,1.67-1.96,13.82-.95,21.39,1.48,11.04,1.42,23.85,1.44,26.17h0"/><path class="c" d="M11.27,302.24c-.26,1.74-4.26,14-4.54,22.01-.4,11.68-2.62,24.94-2.98,27.35h0"/><path class="c" d="M14.5,304.14c1.14-1.2,1.17,5.05-.95,21.39-1.43,11.04,1.42,23.85,1.44,26.17h0"/><path class="c" d="M15.87,303.8c.26,1.7-.27,11.96,2.19,21.93,2.74,11.13,4.89,24.11,5.25,26.47h0"/><path class="c" d="M14.5,304.1c.5,2.2,2.83,9.21,2.83,20.9s-2.36,24.34-2.34,26.65h0"/><path class="c" d="M12.29,304.17c.02,1.67-1.96,13.82-.95,21.39,1.48,11.04,1.42,23.85,1.44,26.17h0"/><path class="k" d="M23.4,308.35c-5.1,2.45-10.19,2.45-15.29,0v-16.42c5.1-2.32,10.19-2.32,15.29,0v16.42Z"/><path class="m" d="M23.4,308.35c-5.1,2.45-10.19,2.45-15.29,0v-16.42c5.1-2.32,10.19-2.32,15.29,0v16.42Z"/><path class="k" d="M8.26,308.56c-.05-.02-.1-.05-.15-.07v-16.56c5.1-2.32,10.19-2.32,15.29,0l-.7,8.07c-.61,7.05-8.03,11.55-14.44,8.57Z"/><rect class="e" x="8.11" y="297.44" width="15.29" height="0"/><rect class="e" x="8.11" y="302.54" width="15.29" height="0"/></g></svg>