<?xml version="1.0" encoding="UTF-8"?><svg xmlns="http://www.w3.org/2000/svg" xmlns:xlink="http://www.w3.org/1999/xlink" viewBox="0 0 752.5 846.38"><defs><style>.f{fill:#010101;stroke:#010101;stroke-width:5.6px;}.f,.g,.h,.i,.j,.k,.l,.m,.n,.o{stroke-miterlimit:10;}.p,.k,.q,.r{fill:#fff;}.s{fill:#ffcc07;}.t{fill:#cdcccc;}.u{fill:#4e4d4d;}.g{stroke-width:4.67px;}.g,.h,.i,.j,.l,.n,.o{stroke:#1d1d1b;}.g,.h,.i,.m{fill:none;}.h{stroke-width:4.67px;}.i{stroke-width:5px;}.j{fill:url(#e);}.j,.l,.n,.o{stroke-width:6px;}.k,.m{stroke:#4e4d4d;stroke-width:14.01px;}.l{fill:#009fe3;}.n{fill:#3aaa35;}.o{fill:#e30613;}.q{opacity:.7;}.r{opacity:.65;}</style><radialGradient id="e" cx="53.28" cy="125.86" fx="53.28" fy="125.86" r="17.96" gradientTransform="translate(109.54 398.4) rotate(-51.7) scale(1 .57) skewX(-2.07)" gradientUnits="userSpaceOnUse"><stop offset="0" stop-color="#5eb130"/><stop offset=".49" stop-color="#5caf2f"/><stop offset=".66" stop-color="#56a82e"/><stop offset=".79" stop-color="#4c9c2b"/><stop offset=".89" stop-color="#3e8b27"/><stop offset=".97" stop-color="#2b7522"/><stop offset="1" stop-color="#246d21"/></radialGradient></defs><g id="a"/><g id="b"/><g id="c"/><g id="d"><path class="h" d="M185.7,396.3c109.68,79.11,229.23,100.53,224.9,112.53"/><path class="g" d="M459.9,218.91c9.48,159.92-67.76,276.98-47.7,284.02"/><g/><g><ellipse class="l" cx="251.07" cy="142.86" rx="90" ry="108" transform="translate(-37.8 142.86) rotate(-29.64)"/><path class="l" d="M305.25,243.07l-4.34,14.55c-1.35,4.53,3.4,8.47,7.6,6.3l18.71-9.65c4.2-2.17,3.75-8.32-.73-9.85l-14.37-4.9c-2.88-.98-6,.63-6.87,3.55Z"/></g><g><ellipse class="o" cx="458.12" cy="110.93" rx="108" ry="90" transform="translate(318.01 560.99) rotate(-86.32)"/><path class="o" d="M455.89,221.71l-13.53,13.4c-2.65,2.62-.85,7.14,2.87,7.23l26.4,.64c3.72,.09,5.73-4.33,3.22-7.08l-12.87-14.04c-1.62-1.77-4.39-1.84-6.09-.15Z"/></g><g><ellipse class="n" cx="102.02" cy="325.33" rx="90" ry="108" transform="translate(-196.67 160.93) rotate(-43.76)"/><path class="j" d="M186.6,401.56l3.26,18.76c.64,3.67,5.37,4.78,7.57,1.78l15.61-21.29c2.2-3-.28-7.18-3.97-6.69l-18.88,2.53c-2.38,.32-4.01,2.55-3.6,4.91Z"/></g><path class="g" d="M304.97,237.7c21.51,158.75,119.87,258.73,101.53,269.51"/><g><g><path class="p" d="M436.79,508.66c-21.84,.84-43.1,10.22-59.51,24.13-16.41,13.91-28.19,32.11-35.82,51.34-18.68,47.08-12.14,101.43,17.1,142,17.56,24.36,43.47,44.03,74.17,51.7,30.7,7.68,66.18,2.29,91.35-17.01,18.85-14.45,30.86-35.45,37.47-57.1,12.9-42.3,6.01-88.86-18.51-125.2-24.52-36.34-65.03-71.32-105.94-69.73"/><path class="u" d="M436.79,500.25c-29.31,1.2-57.05,15.7-76.53,37.35-18.61,20.68-30.77,47.24-35.35,74.61s-2.43,55.05,6.93,80.84c9.16,25.25,24.65,48.24,45.44,65.37,10.57,8.71,22.09,15.91,34.72,21.24s26.13,8.63,39.96,9.63c26.59,1.93,55-4.9,76.38-21.21,11.4-8.7,20.85-19.48,28.15-31.82,6.98-11.79,12.07-24.83,15.33-38.12,6.67-27.21,5.95-56.26-2.22-83.07-4.09-13.41-9.98-26.39-17.56-38.18-7.59-11.8-16.52-22.91-26.29-32.97-9.72-10-20.57-19.1-32.39-26.53-11.22-7.05-23.73-12.72-36.77-15.3-6.39-1.27-12.95-1.94-19.47-1.71-4.39,.16-8.62,3.75-8.41,8.41s3.7,8.58,8.41,8.41c4.16-.15,8.32,.07,12.45,.61l-2.23-.3c7.75,1.07,15.28,3.28,22.49,6.3l-2.01-.85c10.27,4.35,19.81,10.26,28.64,17.04l-1.7-1.31c12.94,10,24.4,21.86,34.41,34.78l-1.31-1.7c8.51,11.02,15.84,22.79,21.27,35.63l-.85-2.01c5.03,12,8.45,24.61,10.22,37.49l-.3-2.23c1.78,13.23,1.79,26.64,.03,39.87l.3-2.23c-1.7,12.52-4.96,24.82-9.85,36.47l.85-2.01c-3.93,9.31-8.91,18.15-15.07,26.17l1.31-1.7c-5.02,6.49-10.78,12.36-17.25,17.4l1.7-1.31c-6.37,4.9-13.35,8.91-20.74,12.07l2.01-.85c-8.91,3.76-18.29,6.24-27.87,7.55l2.23-.3c-10.31,1.36-20.77,1.36-31.08-.03l2.23,.3c-10.16-1.4-20.07-4.19-29.53-8.16l2.01,.85c-10.27-4.35-19.9-10.07-28.73-16.88l1.7,1.31c-9.45-7.34-17.91-15.87-25.23-25.34l1.31,1.7c-7.53-9.8-13.75-20.54-18.57-31.92l.85,2.01c-5.12-12.2-8.6-25.03-10.39-38.14l.3,2.23c-1.79-13.44-1.8-27.08,0-40.53l-.3,2.23c1.78-13.03,5.24-25.78,10.32-37.91l-.85,2.01c4.63-10.96,10.54-21.37,17.81-30.8l-1.31,1.7c6.01-7.74,12.91-14.77,20.66-20.77l-1.7,1.31c7.16-5.5,14.97-10.08,23.28-13.62l-2.01,.85c7.79-3.27,15.95-5.58,24.32-6.72l-2.23,.3c2.69-.35,5.39-.59,8.1-.7,4.39-.18,8.62-3.74,8.41-8.41-.2-4.4-3.7-8.6-8.41-8.41h0Z"/></g><ellipse class="k" cx="547.97" cy="780.19" rx="41.9" ry="24.98" transform="translate(-245.8 252.09) rotate(-21.28)"/><g><path class="p" d="M503.04,414.95c-9.08-4.14-22.45-3.56-34.81,.3-12.36,3.86-23.74,10.71-33.19,18.46-23.18,18.99-24.17,56.26-22.73,77.16l-.4,1.39,.26,.11c7.21-14.08,19.27-33.8,34.48-40.91,11.46-5.35,23.85-8.57,35.61-13.32,11.76-4.75,23.67-11.79,28.64-20.69,5.08-9.11,1.22-18.36-7.86-22.5Z"/><path class="u" d="M507.28,407.69c-6.4-2.86-13.19-4.1-20.21-4s-14,1.29-20.65,3.32c-13.27,4.05-25.23,11.11-36.04,19.7-17.02,13.55-23.8,35.01-26.08,55.88-1.02,9.38-1.05,18.86-.41,28.27l.3-2.23-.4,1.39c-.52,1.82-.3,3.76,.42,5.47,.64,1.52,1.86,3.33,3.44,4.02l.26,.11c2.05,.9,4.22,1.58,6.48,.85,2.02-.65,4.02-1.92,5.02-3.86,4.19-8.16,8.87-16.1,14.48-23.37l-1.31,1.7c3.65-4.7,7.69-9.12,12.39-12.8l-1.7,1.31c3.54-2.73,7.36-4.7,11.47-6.45l-2.01,.85c14.21-5.98,29.37-9.56,43.07-16.74,6.26-3.28,12.48-7.38,17.27-12.61s9.03-12.69,8.44-20.35c-.69-8.93-6.1-16.66-14.24-20.46-2.09-.98-4.17-1.48-6.48-.85-1.95,.54-4.06,2.04-5.02,3.86-1.97,3.72-1.24,9.52,3.02,11.5,1.45,.68,2.82,1.49,4.09,2.47l-1.7-1.31c1.08,.87,2.05,1.83,2.91,2.91l-1.31-1.7c.8,1.06,1.47,2.18,2,3.4l-.85-2.01c.5,1.22,.83,2.47,1.01,3.77l-.3-2.23c.14,1.23,.13,2.45-.02,3.68l.3-2.23c-.22,1.56-.65,3.06-1.27,4.51l.85-2.01c-.79,1.77-1.81,3.4-2.99,4.93l1.31-1.7c-2.03,2.58-4.44,4.81-7.03,6.83l1.7-1.31c-5.46,4.17-11.6,7.37-17.92,10.04l2.01-.85c-6.74,2.82-13.7,5.07-20.6,7.47-3.4,1.18-6.79,2.39-10.13,3.73-3.56,1.42-7.2,2.84-10.57,4.7-11.04,6.1-19.4,16.56-26.21,26.93-3.36,5.12-6.38,10.47-9.18,15.92l11.5-3.02-.26-.11,3.86,9.49c.45-1.59,.72-3.16,.62-4.83-.08-1.27-.14-2.54-.2-3.81-.11-2.7-.16-5.39-.15-8.09,.03-6.15,.41-12.29,1.23-18.39l-.3,2.23c1.12-8.22,3.06-16.36,6.28-24.02l-.85,2.01c2.04-4.78,4.58-9.33,7.75-13.47l-1.31,1.7c3.04-3.93,6.6-7.23,10.52-10.26l-1.7,1.31c7.11-5.47,14.83-10.15,23.11-13.64l-2.01,.85c6.08-2.53,12.4-4.39,18.93-5.31l-2.23,.3c4.76-.64,9.58-.8,14.35-.18l-2.23-.3c2.86,.4,5.67,1.07,8.34,2.18l-2.01-.85c.22,.09,.43,.19,.65,.28,2.13,.95,4.14,1.49,6.48,.85,1.95-.54,4.06-2.04,5.02-3.86,1.03-1.95,1.55-4.31,.85-6.48-.63-1.95-1.91-4.15-3.86-5.02Z"/></g><path class="t" d="M495.35,410.23c1.14,3.38,1.27,7.2,.11,11.15-2.92,9.92-12.8,18.67-23,25-10.2,6.33-21.31,11.12-31.11,18.06-4.48,3.17-8.31,7.88-11.56,13.32,1.97,.81,3.83,1.95,5.52,3.38,3.48-4.41,7.38-8.12,11.71-10.53,10.45-5.81,22.04-9.38,32.85-14.56,10.81-5.18,21.51-12.78,25.31-22.26,3.86-9.62-.78-19.26-9.84-23.56Z"/><path class="t" d="M546.08,577.34c-24.52-36.34-65.03-71.32-105.94-69.73l-.31-.13c-12.12,.46-24.06,3.56-35.09,8.6,2.42-.6,4.87-1.13,7.35-1.57,21.16-3.75,44.23-1.15,63.51,9.12l.2,.26c36.11,19.21,53.48,69.78,56.36,113.49,2.89,43.71-14.6,87.36-47.01,117.38-10.78,9.98-23.39,18.57-37.35,24.19,27.61,3.75,57.37-2.5,79.32-19.31,18.85-14.45,30.86-35.45,37.47-57.1,12.9-42.3,6.01-88.86-18.51-125.2Z"/><path class="u" d="M436.79,500.25c-29.31,1.2-57.05,15.7-76.53,37.35-18.61,20.68-30.77,47.24-35.35,74.61s-2.43,55.05,6.93,80.84c9.16,25.25,24.65,48.24,45.44,65.37,10.57,8.71,22.09,15.91,34.72,21.24s26.13,8.63,39.96,9.63c26.59,1.93,55-4.9,76.38-21.21,11.4-8.7,20.85-19.48,28.15-31.82,6.98-11.79,12.07-24.83,15.33-38.12,6.67-27.21,5.95-56.26-2.22-83.07-4.09-13.41-9.98-26.39-17.56-38.18-7.59-11.8-16.52-22.91-26.29-32.97-9.72-10-20.57-19.1-32.39-26.53-11.22-7.05-23.73-12.72-36.77-15.3-6.39-1.27-12.95-1.94-19.47-1.71-4.39,.16-8.62,3.75-8.41,8.41s3.7,8.58,8.41,8.41c4.16-.15,8.32,.07,12.45,.61l-2.23-.3c7.75,1.07,15.28,3.28,22.49,6.3l-2.01-.85c10.27,4.35,19.81,10.26,28.64,17.04l-1.7-1.31c12.94,10,24.4,21.86,34.41,34.78l-1.31-1.7c8.51,11.02,15.84,22.79,21.27,35.63l-.85-2.01c5.03,12,8.45,24.61,10.22,37.49l-.3-2.23c1.78,13.23,1.79,26.64,.03,39.87l.3-2.23c-1.7,12.52-4.96,24.82-9.85,36.47l.85-2.01c-3.93,9.31-8.91,18.15-15.07,26.17l1.31-1.7c-5.02,6.49-10.78,12.36-17.25,17.4l1.7-1.31c-6.37,4.9-13.35,8.91-20.74,12.07l2.01-.85c-8.91,3.76-18.29,6.24-27.87,7.55l2.23-.3c-10.31,1.36-20.77,1.36-31.08-.03l2.23,.3c-10.16-1.4-20.07-4.19-29.53-8.16l2.01,.85c-10.27-4.35-19.9-10.07-28.73-16.88l1.7,1.31c-9.45-7.34-17.91-15.87-25.23-25.34l1.31,1.7c-7.53-9.8-13.75-20.54-18.57-31.92l.85,2.01c-5.12-12.2-8.6-25.03-10.39-38.14l.3,2.23c-1.79-13.44-1.8-27.08,0-40.53l-.3,2.23c1.78-13.03,5.24-25.78,10.32-37.91l-.85,2.01c4.63-10.96,10.54-21.37,17.81-30.8l-1.31,1.7c6.01-7.74,12.91-14.77,20.66-20.77l-1.7,1.31c7.16-5.5,14.97-10.08,23.28-13.62l-2.01,.85c7.79-3.27,15.95-5.58,24.32-6.72l-2.23,.3c2.69-.35,5.39-.59,8.1-.7,4.39-.18,8.62-3.74,8.41-8.41-.2-4.4-3.7-8.6-8.41-8.41h0Z"/><rect class="f" x="368.17" y="579.49" width="131.06" height="60.78" rx="11.21" ry="11.21" transform="translate(-191.78 199) rotate(-21.28)"/><path class="t" d="M577.88,765.84c-5.4-6.81-17.43-13.27-34.17-12.76l-.11-.02c-4.96,.15-10.17,.81-15.26,1.83,1.05-.13,2.11-.24,3.17-.34,9.02-.83,18.03-.45,24.55,1.41l.05,.05c12.21,3.48,12.95,13.04,8.68,21.37-4.27,8.33-16.76,16.75-33.6,22.65-5.6,1.96-11.77,3.67-18.11,4.81,10.7,.57,23.51-.78,34.47-4.1,9.42-2.86,16.89-6.93,22.25-11.1,10.47-8.14,13.48-16.99,8.08-23.8Z"/><ellipse class="m" cx="545.89" cy="780" rx="41.9" ry="24.98" transform="translate(-245.88 251.32) rotate(-21.28)"/><ellipse class="k" cx="467.42" cy="811.56" rx="41.9" ry="24.98" transform="translate(-262.68 224.99) rotate(-21.28)"/><path class="t" d="M497.34,797.21c-5.4-6.81-17.43-13.27-34.17-12.76l-.11-.02c-4.96,.15-10.17,.81-15.26,1.83,1.05-.13,2.11-.24,3.17-.34,9.02-.83,18.03-.45,24.55,1.41l.05,.05c12.21,3.48,12.95,13.04,8.68,21.37-4.27,8.33-16.76,16.75-33.6,22.65-5.6,1.96-11.77,3.67-18.11,4.81,10.7,.57,23.51-.78,34.47-4.1,9.42-2.86,16.89-6.93,22.25-11.1,10.47-8.14,13.48-16.99,8.08-23.8Z"/><ellipse class="m" cx="465.34" cy="811.37" rx="41.9" ry="24.98" transform="translate(-262.76 224.23) rotate(-21.28)"/><path class="u" d="M507.28,407.69c-6.4-2.86-13.19-4.1-20.21-4s-14,1.29-20.65,3.32c-13.27,4.05-25.23,11.11-36.04,19.7-17.02,13.55-23.8,35.01-26.08,55.88-1.02,9.38-1.05,18.86-.41,28.27l.3-2.23-.4,1.39c-.52,1.82-.3,3.76,.42,5.47,.64,1.52,1.86,3.33,3.44,4.02l.26,.11c2.05,.9,4.22,1.58,6.48,.85,2.02-.65,4.02-1.92,5.02-3.86,4.19-8.16,8.87-16.1,14.48-23.37l-1.31,1.7c3.65-4.7,7.69-9.12,12.39-12.8l-1.7,1.31c3.54-2.73,7.36-4.7,11.47-6.45l-2.01,.85c14.21-5.98,29.37-9.56,43.07-16.74,6.26-3.28,12.48-7.38,17.27-12.61s9.03-12.69,8.44-20.35c-.69-8.93-6.1-16.66-14.24-20.46-2.09-.98-4.17-1.48-6.48-.85-1.95,.54-4.06,2.04-5.02,3.86-1.97,3.72-1.24,9.52,3.02,11.5,1.45,.68,2.82,1.49,4.09,2.47l-1.7-1.31c1.08,.87,2.05,1.83,2.91,2.91l-1.31-1.7c.8,1.06,1.47,2.18,2,3.4l-.85-2.01c.5,1.22,.83,2.47,1.01,3.77l-.3-2.23c.14,1.23,.13,2.45-.02,3.68l.3-2.23c-.22,1.56-.65,3.06-1.27,4.51l.85-2.01c-.79,1.77-1.81,3.4-2.99,4.93l1.31-1.7c-2.03,2.58-4.44,4.81-7.03,6.83l1.7-1.31c-5.46,4.17-11.6,7.37-17.92,10.04l2.01-.85c-6.74,2.82-13.7,5.07-20.6,7.47-3.4,1.18-6.79,2.39-10.13,3.73-3.56,1.42-7.2,2.84-10.57,4.7-11.04,6.1-19.4,16.56-26.21,26.93-3.36,5.12-6.38,10.47-9.18,15.92l11.5-3.02-.26-.11,3.86,9.49c.45-1.59,.72-3.16,.62-4.83-.08-1.27-.14-2.54-.2-3.81-.11-2.7-.16-5.39-.15-8.09,.03-6.15,.41-12.29,1.23-18.39l-.3,2.23c1.12-8.22,3.06-16.36,6.28-24.02l-.85,2.01c2.04-4.78,4.58-9.33,7.75-13.47l-1.31,1.7c3.04-3.93,6.6-7.23,10.52-10.26l-1.7,1.31c7.11-5.47,14.83-10.15,23.11-13.64l-2.01,.85c6.08-2.53,12.4-4.39,18.93-5.31l-2.23,.3c4.76-.64,9.58-.8,14.35-.18l-2.23-.3c2.86,.4,5.67,1.07,8.34,2.18l-2.01-.85c.22,.09,.43,.19,.65,.28,2.13,.95,4.14,1.49,6.48,.85,1.95-.54,4.06-2.04,5.02-3.86,1.03-1.95,1.55-4.31,.85-6.48-.63-1.95-1.91-4.15-3.86-5.02Z"/><g><circle class="s" cx="419.75" cy="618.71" r="5.4"/><circle class="s" cx="389.57" cy="630.47" r="5.4"/><circle class="s" cx="394.59" cy="616.92" r="5.4"/><circle class="s" cx="406.89" cy="612.13" r="5.4"/><circle class="s" cx="480.13" cy="595.19" r="5.4"/><circle class="s" cx="449.94" cy="606.95" r="5.4"/><circle class="s" cx="454.97" cy="593.4" r="5.4"/><circle class="s" cx="467.27" cy="588.61" r="5.4"/></g></g><g><ellipse class="i" cx="380.28" cy="498" rx="15.52" ry="25.57" transform="translate(-166.03 804.85) rotate(-81.96)"/><ellipse class="i" cx="428.32" cy="482.91" rx="25.57" ry="15.52" transform="translate(-214.64 425.8) rotate(-43.35)"/><path class="i" d="M410.88,502.52c10.84,16.69,26.37,25.8,34.71,20.38"/><path class="i" d="M406.26,501.66c10.54,16.22-19.01,37.26-26.21,41.94"/></g><path class="q" d="M40.32,308.3c3.21-28.12,15.59-51.61,32.25-65.33-10.05-.05-19.8,2.47-28.42,7.88-29.63,18.57-34.86,64.05-11.69,101.57,5.94,9.62,13.18,17.78,21.15,24.29-10.89-18.18-16.22-42.65-13.28-68.41Z"/><path class="q" d="M192.73,108.76c12.22-26.09,32.15-45.13,53.25-53.55-10.07-2.92-20.65-3.27-31.04-.54-35.67,9.39-55.46,51.58-44.21,94.23,2.88,10.94,7.53,20.84,13.45,29.36-5.11-20.57-2.64-45.6,8.55-69.5Z"/><path class="r" d="M427.38,48.2c11.16-11.44,23.22-20.97,35.52-28.45-24.33-.75-50.49,12.69-67.42,37.24-15.96,23.14-19.78,50.44-12.34,72.33,4.35-26.42,19.6-55.85,44.24-81.11Z"/></g></svg>