<svg xmlns="http://www.w3.org/2000/svg" xmlns:xlink="http://www.w3.org/1999/xlink" viewBox="0 0 841.89 1190.55" xmlns:v="https://vecta.io/nano"><style><![CDATA[.f{fill:none}.g{opacity:.3}.h{fill:#2d2e83}.i{fill:#fff}.j{stroke-miterlimit:10}.k{fill:#4e4d4d}.l{stroke:#4e4d4d}.m{fill:#cdcccc}.n{fill:#e62336}.o{stroke:#575756}.p{fill:#1957a4}.q{stroke:#4f4e4e}.r{stroke-width:21}.s{stroke-width:10}.t{stroke-width:19.607}.u{stroke-width:11.272}.v{stroke-width:11.024}]]></style><ellipse cx="410.5" cy="914" rx="41.5" ry="17" class="k l r"/><path d="M501.75 303.91c-45.96-15.9-97.62-13.62-142.87 1.96-45.26 15.58-84.37 43.8-115.74 77.52-76.76 82.53-107.08 200.49-79.21 308.21 16.73 64.69 54.56 126.38 112.02 167.1 57.46 40.71 135.36 58.19 203.14 38.51 50.75-14.73 92.61-48.56 123.79-88.13 60.9-77.29 84.23-179.38 62.73-274.53s-77.23-200.39-163.34-230.13" class="i"/><use xlink:href="#B" class="k"/><ellipse cx="512.99" cy="950.66" rx="93.23" ry="55.59" class="i l t"/><path d="M672.87 534.56c-21.5-95.15-77.23-200.39-163.34-230.13l-.53-.51c-25.5-8.82-52.75-12.04-79.7-10.5 5.51.72 11.02 1.6 16.51 2.69 46.91 9.32 92.64 33.34 124.31 70.19l.2.71c59.36 69 54.52 187.87 25.21 280.82s-100.81 169.33-192.26 205.4c-30.41 11.99-63.49 19.62-96.97 19.99 54.22 30.08 120.97 41.16 180.05 24.01 50.75-14.73 92.61-48.56 123.79-88.13 60.9-77.3 84.23-179.39 62.73-274.54z" class="m"/><use xlink:href="#B" class="k"/><path d="M543.72 578.89H283.48c-8.63 0-15.69-7.06-15.69-15.69V459.34c0-8.63 7.06-15.69 15.69-15.69h260.24c8.63 0 15.69 7.06 15.69 15.69v103.87c-.01 8.62-7.06 15.68-15.69 15.68z" fill="#020203" stroke="#020203" stroke-width="7.843" class="j"/><path d="M591.39 945.06c-5.69-18.48-25.42-41.6-60.54-54.04l-.2-.13c-10.4-3.69-21.74-6.54-33.11-8.54l6.84 1.86c19.38 5.57 37.74 13.63 49.76 22.74l.06.14c22.51 17.08 16.32 37.49.75 51.31s-48.28 21.19-87.96 19.83c-13.19-.45-27.35-1.9-41.43-4.65 21.72 9.83 49.37 17.38 74.79 19.34 21.83 1.68 40.6-.72 55.09-5.04 28.27-8.42 41.64-24.34 35.95-42.82z" class="m"/><g class="l"><ellipse cx="508.83" cy="948.58" rx="93.23" ry="55.59" class="f r"/><ellipse cx="321.65" cy="950.66" rx="93.23" ry="55.59" class="i t"/></g><path d="M401.85 945.06c-5.69-18.48-25.42-41.6-60.54-54.04l-.2-.13c-10.4-3.69-21.74-6.54-33.11-8.54l6.84 1.86c19.38 5.57 37.74 13.63 49.76 22.74l.06.14c22.51 17.08 16.32 37.49.75 51.31s-48.28 21.19-87.96 19.83c-13.19-.45-27.35-1.9-41.43-4.65 21.72 9.83 49.37 17.38 74.79 19.34 21.83 1.68 40.6-.72 55.09-5.04 28.27-8.42 41.65-24.34 35.95-42.82z" class="m"/><ellipse cx="317.49" cy="948.58" rx="93.23" ry="55.59" class="f l r"/><g fill="#ffcc07"><circle cx="377.56" cy="518.32" r="12.01"/><circle cx="305.48" cy="518.32" r="12.01"/><circle cx="326.83" cy="494.29" r="12.01"/><circle cx="356.2" cy="494.29" r="12.01"/><circle cx="521.72" cy="518.32" r="12.01"/><circle cx="449.64" cy="518.32" r="12.01"/><circle cx="471" cy="494.29" r="12.01"/><circle cx="500.37" cy="494.29" r="12.01"/></g><path d="M763.61 203.53c-13.16-18.1-39.93-31.73-68.34-37.82s-58.19-5.26-85.2-.56c-66.24 11.52-109.28 83.23-129.54 125.66l-2.3 2.27.38.5c29.62-19.55 74.94-44.76 112.5-41.86 28.3 2.19 56.05 9.57 84.27 13.26 28.22 3.7 59.25 3.08 78.77-8.83 19.98-12.2 22.63-34.52 9.46-52.62z" class="i"/><use xlink:href="#C" class="k"/><path d="M755.79 190.22c-1.5 7.87-5.45 15.46-12.08 21.9-16.65 16.15-45.6 22.35-72.53 23.46-26.92 1.11-53.9-1.78-80.69.95-12.26 1.25-24.92 6.23-37.28 13.27 2.95 3.75 5.34 8.03 7.06 12.7 11.67-4.78 23.38-7.72 34.5-7.65 26.84.18 53.4 5.99 80.24 7.79 26.84 1.81 56.12-1.24 74-15.55 18.17-14.53 19.74-38.47 6.78-56.87z" class="m"/><use xlink:href="#C" class="k"/><g class="p"><path d="M552.7 881.51c-89.94 22.18-192.73 18.34-288.58-1.49-66.86-55.76-122.4-150-122.4-224.4l544.8 4.8c-26.39 111.6-69.01 171.01-133.82 221.09z"/><use xlink:href="#D"/></g><g class="g h"><use xlink:href="#D"/></g><path d="M166.22 752.12c88.53 24.42 345.97 27.31 492.66-5.72 6.59-15.31 12.6-31.91 18.05-50.06l-1.35.25c-169.53 31.22-349.08 62.77-510.22.84-6.89-2.65-15.1-5.71-19.81-6.05 4.06 19.86 11.18 40.42 20.67 60.74zm429.24 91.28c16.77-17.52 31.58-36.89 44.59-59.36-153.12 30.01-312.52 54.01-457.79-1.56 13.91 23.59 30.68 46.18 49.13 66.22 95.43 12.16 246.49 12.06 364.07-5.3z" class="n"/><g class="p"><path d="M156.52 729.05l-1.34-3.65 1.34 3.65zm36.62 70.79l-5.34-8.27 5.34 8.27zm11.83 16.87l-5.79-8.01 5.79 8.01zm-40.61-68.64l-1.58-3.56 1.58 3.56zm60.15 92.95l-6.48-7.64 6.48 7.64zm-6.73-7.94a398.46 398.46 0 0 1-12.52-15.98 396.5 396.5 0 0 0 12.52 15.98zm-18.8-24.67l-5.72-8.37 5.72 8.37zm-41.02-75.58l-1.38-3.61 1.38 3.61zm1.46 3.68l-1.38-3.47 1.38 3.47zm71.97 112.19a353.96 353.96 0 0 1-6.81-7.6l6.81 7.6zm-68.78-104.58l-1.47-3.43 1.47 3.43zm-1.6-3.75l-1.45-3.5 1.45 3.5zm449.44 86.22l-2.77 3.29 2.77-3.29zm21.87-29.9l-2.31 3.54 2.31-3.54zm2.38-3.75l-1.72 2.72 1.72-2.72zm-4.76 7.41l-2.53 3.75 2.53-3.75zm-2.93 4.32l-2.11 3.04 2.11-3.04zm10.12-15.7l-1.69 2.77 1.69-2.77zm2.92-4.92l-2.26 3.84 2.26-3.84zm-26.76 39.06l-2.49 3.05 2.49-3.05zm-14.81 17.09l-3.02 3.2 3.02-3.2zM155.16 725.33c-4.09-11.43-7.33-22.8-9.61-33.96 2.28 11.16 5.52 22.53 9.61 33.96z"/><path d="M607.67 829.9a308.66 308.66 0 0 1-9 10.1 308.66 308.66 0 0 0 9-10.1zm14.04-17.75l-2.47 3.33 2.47-3.33zm2.58-3.58l-2.03 2.82 2.03-2.82zm-5.15 7.03l-5.52 7.1 5.52-7.1zm55.7-112.44l-4.18 12.7 4.18-12.7zm2.1-6.82l-2.02 6.57 2.02-6.57zm-10.99 32.55l-4.54 11.51c1.55-3.76 3.06-7.6 4.54-11.51zm-7.06 17.5l2.32-5.51-2.32 5.51zm11.61-30.07a442.09 442.09 0 0 1-4.34 12.04l4.34-12.04z"/></g><path d="M658.89 746.4v-.01.01zm-503.71-21c-.01-.02-.01-.04-.02-.06.01.01.02.03.02.06zm506.23 15l-.2.48.2-.48zm4.74-12.04l-.2.53.2-.53zm-508.11 4.68l-.08-.21.08.21zm3.1 7.64l-.13-.31.13.31zm-4.56-11.46l-.06-.17.06.17zm520.36-32.89h0v.01zm-517.38 40.54l-.14-.36.14.36zm515.35-33.96c-.03.08-.05.17-.08.25l.08-.25zm-529.35-11.54h0 0zm17.22 53.14l-.17-.39.17.39zm507.87-28.65l-.16.46.16-.46zm-506.18 32.45l-.11-.24.11.24z" class="n"/><g class="g h"><path d="M655.93 660.15l-24.26-.22 24.26.22z"/></g><g class="g h"><path d="M520.22 804.86c29.41-4.17 58.78-9.24 87.98-14.71 6-12.15 11.55-24.73 16.71-37.07-22.39 3.86-46.52 7.05-71.64 9.61-10.43 15.72-21.79 30.05-33.05 42.17z"/></g><g class="g h"><path d="M390.13 878.28c63.44 9.72 95.79 5.83 147.11-9 12.57-3.63 23.92-11.7 34.23-22.63-39.15 4.85-81.15 7.95-123.03 9.46-21.64 10.75-44.39 19.86-58.31 22.17z"/></g><g class="g h"><path d="M596.53 659.79c-2.8 17.85-8.56 36-16.23 53.62l63.53-11.01c4.64-14.16 8.85-28.62 12.1-42.24l-24.26-.21-33.8-.3-1.34.14z"/></g><g class="g h"><path d="M553.27 762.7c25.12-2.56 49.25-5.75 71.64-9.61l2.22-5.34c5.6-13.58 11.42-29.27 16.69-45.35l-63.53 11.01c-7.49 17.21-16.8 33.9-27.02 49.29z"/></g><path d="M624.9 807.71l-.61.86.61-.86zm12.88-19.82l-.65 1.08.65-1.08zm-15.52 23.5l-.55.76.55-.76zm5.15-7.29l-.4.58.4-.58zm8.03-12.36l-.74 1.2.74-1.2zm-2.46 3.92l-.66 1.03.66-1.03zm-2.97 4.58c-.02.04-.05.07-.07.11.03-.04.05-.08.07-.11zm10.04-16.2h0v.01zm-26.43 38.66l-.33.41.33-.41zm-389.04 18.4c-.02-.03-.05-.06-.07-.08.03.03.05.06.07.08zm6.81 7.6h0 0zm387.84-33.22l-.09.12.09-.12zm-23.77 27.92h0 0zm-390.2-26.3l-.29-.39.29.39zm-12-17.07l-.13-.19c.05.06.09.13.13.19zm5.93 8.66l-.2-.29c.06.1.13.2.2.29zm18.84 24.69l-.25-.3.25.3zm389.65-3.49zm3.12-3.73l-.36.43c.13-.14.24-.29.36-.43zm-423-34.59l-.35-.55.35.55zM598.67 840l-.19.21.19-.21z" class="n"/><path d="M495.86 827.75c-10.61 8.42-28.6 19.01-47.43 28.36 41.88-1.51 83.88-4.61 123.03-9.46 14-14.84 26.09-34.96 36.73-56.5-29.2 5.47-58.57 10.54-87.98 14.71-8.3 8.94-16.55 16.7-24.35 22.89z" fill="#be1622"/><path d="M673.19 627.87c-169.53 22.16-349.08 44.56-510.22.6-10.44-2.85-23.89-6.36-23.64-2.85 1.2 16.8.5 22.72 2.4 34.8.1.63 1.12 1.21 2.19 1.73 62.46 22.71 374.21 27.02 529.68-1.86 3.34-.62 6.69-1.26 7.07-2.96 3.55-15.83 4.27-23.68 3.23-30.36-2.58-.2-6.28.32-10.71.9z" class="p"/><path d="M687.73 629.22c-.93-3.25-6.55-2.39-14.54-1.35-169.53 22.16-349.08 44.56-510.22.6-10.44-2.85-23.89-6.36-23.64-2.85 1.2 16.8.5 22.72 2.4 34.8.01.08.05.16.09.24 2.41 73.57 56.95 164.85 122.31 219.36 95.85 19.83 198.64 23.67 288.58 1.49 64.81-50.07 107.42-109.49 133.82-221.09h-.11c3.69-16.75 3.51-23.47 1.31-31.2z" stroke-width="12" class="f j l"/><ellipse transform="matrix(.5353 -.8447 .8447 .5353 -393.5228 766.9034)" cx="500.22" cy="741.09" rx="100.3" ry="154.76" fill="#ededed"/><path d="M487.73 845.53c19.45 6.96 36.81 10.12 50 11.61 7.12 1.46 38.58 7.08 68.46-12.22 18.62-12.03 27.9-28.09 31.84-36.13 1.49-4.87 3.04-11.34 3.43-19.04.33-6.59-.13-13.39-1.35-20.32-1.85-4.21-5.64-11.12-13.81-21.08-9.61-11.73-18.54-19.49-22.06-22.48-4.68-3.97-20.06-16.74-48.08-32.32-22.33-12.42-40.25-19.72-51.61-24.29-37.88-15.27-52.62-18.35-67.77-20.22 0 0-11.88-2.03-27.25-1.6-1.11.03-2.79-.93-3.05-2.14-.42-1.96 3.3-3.98 9.1-7.98 9.56-6.59 10.77-7.12 15.25-9.26 8.09-3.87 12.93-3.38 12.9-3.91-.02-.45-5.28-1.16-12.38-.62-4.48.53-8.84 1.3-13.04 2.29a98.45 98.45 0 0 0-8.15 2.29c-.04.01-.09.03-.13.04a90.94 90.94 0 0 0-3.83 1.35c-.01 0-.01.01-.02.01-1.26.47-2.5.97-3.72 1.5-.08.03-.16.07-.24.11-1.19.51-2.35 1.05-3.5 1.61l-.06.03a91.7 91.7 0 0 0-3.42 1.77l-.32.18c-1.08.6-2.14 1.21-3.18 1.85-.03.02-.05.03-.08.05-1.06.66-2.1 1.34-3.12 2.04l-.38.27c-.98.68-1.94 1.38-2.88 2.11-.03.02-.05.04-.08.06a70.2 70.2 0 0 0-2.81 2.3c-.13.12-.27.23-.4.35-.88.77-1.75 1.56-2.59 2.37l-.05.05c-.86.84-1.69 1.7-2.51 2.58l-.39.43c-.79.87-1.57 1.76-2.32 2.68-4.54 6.04-7.16 12.25-9.35 17.46-1.18 2.81-3.5 8.4-5.08 15.68-.15.98-.27 1.98-.38 2.97-.02.16-.03.32-.05.48-.09.87-.16 1.74-.22 2.62l-.03.5c-.06.97-.1 1.94-.13 2.91v.14a87.3 87.3 0 0 0 .09 6.46c0 .07.01.14.01.21a75.4 75.4 0 0 0 .21 2.97c.01.14.03.29.04.43l.31 2.94.03.27c.41 3.31 1.01 6.64 1.77 10.01.01.06.03.12.04.19.24 1.06.5 2.12.78 3.18l.06.23a124.07 124.07 0 0 0 4.47 13.65c.02.04.03.08.05.13l1.39 3.4c1.92 3.96 3.93 7.74 5.85 11.36 8.72 16.39 17.99 27.17 24.63 34.79 10.62 12.19 21.1 21.49 29.49 28.11l4.33 3.27c.05.04.1.08.16.12l4.45 3.2c.05.04.1.07.16.11l4.01 2.75.99.66 4.32 2.81.8.5c7.85 4.75 21.87 12.54 40.4 19.17z" fill="#b7331b"/><path d="M601.16 849.1c3.85-1.5 7.43-3.9 11.87-6.94 8.09-5.55 13.56-11.75 18.63-20.15 4.74-7.87 9.52-16.34 9.39-25.53-.09-6-2.3-11.78-5.04-17.12-9.91-19.32-25.7-33.35-42.26-46.81-47.85-38.89-108.33-63.55-169.61-69.97a298.34 298.34 0 0 0-32.19-1.63c-8.63.03-18.7 1.25-23.17 8.63-2.09 3.45-2.49 7.65-2.46 11.68.08 10.45 2.73 20.72 6.08 30.62 23.57 69.58 85.18 124.91 156.87 140.91 18.53 4.14 38.03 6.82 56.48 2.33"/><path d="M623.26 826.08c.67-.91 3.44-4.77 4.71-10.71.79-3.67 1.11-8.66-1.56-18.25-1.56-5.62-3.89-13.71-10.34-23.71-8.26-12.81-17.58-19.89-31.96-30.83-2.43-1.84-11.31-8.53-24.04-16.16-17.51-10.5-31.78-16.49-35.92-18.19-14.54-5.97-26-9.09-35.6-11.66-16-4.29-28.1-6.3-35.06-7.43-11.87-1.94-18.05-2.35-22.05-2.51-4.31-.18-1.55.12-17.66.22-6.79.04-10.25 0-14.99 1.39-3.85 1.13-6.9 2.02-9.26 4.71-1.23 1.4-3.59 4.79-2.83 15.52.62 8.74 2.82 15.51 4.61 20.39 1.71 4.66 4.95 12.79 12.42 26.23 5.25 9.42 8.85 15.9 14.94 24.14 4.19 5.68 11.42 15.34 23.18 25.37 9.28 7.92 17.07 12.38 28.43 18.89 6.47 3.71 14.63 8.35 26.18 13.11 13.76 5.67 24.5 8.29 27.94 9.1 4.78 1.11 10.29 2.38 17.83 3.05 1.62.14 9.39.8 19.97 0 3.78-.29 13.56-1.19 25.96-4.55 10.92-2.96 18.53-6.38 24.09-9.37 4.98-2.72 8.26-5.03 11.01-8.75z" fill="#ededed"/><path d="M616.08 773.41c-8.26-12.81-17.58-19.89-31.96-30.83a237.66 237.66 0 0 0-7.62-5.54c-20.53 37.8-48.47 71.46-82 98.73l1.96.82c13.76 5.67 24.5 8.29 27.94 9.1 4.78 1.11 10.29 2.38 17.83 3.05 1.62.14 9.39.8 19.97 0 3.78-.29 13.56-1.19 25.96-4.55 10.92-2.96 18.53-6.38 24.09-9.37 4.99-2.69 8.27-5.01 11.03-8.73.67-.91 3.44-4.77 4.71-10.71.79-3.67 1.11-8.66-1.56-18.25-1.58-5.63-3.9-13.73-10.35-23.72z" class="m"/><ellipse transform="matrix(.5353 -.8447 .8447 .5353 -393.5228 766.9034)" cx="500.22" cy="741.09" rx="100.3" ry="154.76" stroke-width="6" class="f o"/><ellipse transform="matrix(.5926 -.8055 .8055 .5926 -496.0265 469.1687)" cx="215.77" cy="724.92" rx="55.22" ry="109.78" class="i q u"/><path d="M247.07 796.43l.15-.05c31.18 3.33 37.64-12.65 38.08-30.76.42-17.6-10.55-51.66-41.58-78.8-9.6-8.4-19.89-19.49-33.6-26.4 25.23 7.26 41.04 26.51 63.6 40.8 19.38 12.28 31.18 32.45 33.5 46.76 3.7 22.84 9.7 33.64-1.36 47.97-12.1 15.68-51.49 9.82-89.78-4.01" fill="#cdcbcb"/><ellipse transform="matrix(.5926 -.8055 .8055 .5926 -496.0265 469.1687)" cx="215.77" cy="724.92" rx="55.22" ry="109.78" class="f q u"/><path d="M202 709.89c14.04-14.04 29.15-24.7 42.99-31.11-18.92-13.55-40.03-24.13-60.45-29.32-49.36-12.55-75.94 11.07-59.35 52.74 7.75 19.47 23.55 39.44 43.23 56.48 5.93-15.34 17.55-32.76 33.58-48.79z" class="j n o s"/><ellipse transform="matrix(.9197 -.3925 .3925 .9197 -241.7012 296.542)" cx="604.33" cy="739.34" rx="109.19" ry="53.11" class="i q v"/><path d="M644.01 674.54c33.78 12.57 32.44 32.65 23.8 51.87-8.39 18.67-36.75 48.72-82.31 61.2-14.1 3.86-30.26 10.19-47.84 10.37 29.62 5.39 55.55-6.65 85.95-10.02 26.11-2.89 48.38-17.96 57.94-31.77 15.25-22.04 26.84-30.27 22.64-50.99-4.6-22.68-27.27-44.79-75.27-27.99" fill="#cdcbcb"/><ellipse transform="matrix(.9197 -.3925 .3925 .9197 -241.7012 296.542)" cx="604.33" cy="739.34" rx="109.19" ry="53.11" class="f q v"/><use xlink:href="#E" class="j n o s"/><path d="M704.2 705.21c-2.06-10.17-7.77-20.21-17.75-26.69-9.21-4.25-21.32-6.58-36-6.42l-1.49.05c-6.12.89-12.78 2.53-20.02 5.07l15.09-2.67c33.78 12.57 32.44 32.65 23.8 51.87-4.64 10.34-15.42 24.16-31.83 36.55 2.11 6.69 3.58 13.11 4.37 19.08 20.07-10.34 37.82-23.51 50.09-37.98 4.25-5.62 7.87-10.37 10.44-15.13.04-.08.09-.16.13-.24 3.65-6.9 5.12-13.84 3.17-23.49z" fill="#be1622"/><use xlink:href="#E" class="f j o s"/><path d="M254.22 446.31c6.35-18.33 24.3-21.5 41.55-21.5l241.2.05c8.98 0 18.72.26 25.71 5.9 5.41 4.36 8.12 11.16 10.61 17.64l50.25 132.19c1.02 2.65 2.26 5.55 4.84 6.75 2.33 1.09 5.06.44 7.55-.21l39.62-10.5c2.72-.72 5.66-1.59 7.31-3.87 1.75-2.41 1.54-3.28 1.23-6.25-7.33-71.7-21.36-142.9-65.53-199.85-30.11-38.82-72.37-68.07-119.3-82.59-83.23-25.74-178.12-2.91-245.13 52.75S147.78 478.1 142.03 565.03c-.29 4.44-.3 9.47 2.84 12.63 2.06 2.08 5.05 2.87 7.9 3.55 12 2.89 24.09 5.41 36.25 7.56 2.9.51 6.05.97 8.67-.37 2.99-1.53 4.43-4.94 5.63-8.08l45.72-119.28c1.82-4.74 3.63-10.69 5.49-15.42" class="p"/><g class="g h"><path d="M639.67 574.95c1.09 2.62 2.41 5.49 5.02 6.61 2.36 1.02 5.07.3 7.54-.42l22.52-6.79c2.7-.8 5.61-1.74 7.2-4.07 1.68-2.46 1.44-3.32 1.06-6.28-3.2-24.54-7.19-49-12.9-72.8-23.76-73.04-52.08-147.69-115.63-185.57-15.03-7.92-30.89-14.27-47.26-18.84-25.86-7.22-52.69-9.79-79.36-8.22 5.34.53 10.69 1.19 16.02 2.03 50.4 7.92 99.95 30.58 134.82 66.47l.23.7c49.26 50.65 60.32 130.7 50.48 207.21 3.35 8.14 6.76 11.58 10.26 19.97z"/></g><g fill="#f6f6f6"><path d="M622.8 371.82c-5.09-6.71-10.62-13.11-16.53-19.2H238.5c-6.93 6.8-12.02 12.53-15.19 16.31l-2.37 2.89H622.8z" stroke-width="3" class="j o"/><path d="M685.58 558.42l-44 10.8c-4.73-.01-8.56-3.72-8.56-8.31L580.85 434.7c-6.48-16.47-13.87-27.19-29.3-27.19H275.6c-6.41 0-12.39 1.86-17.16 5.72-3.33 2.7-7.83 9.47-9.86 14.9l-42.64 104.89-10.58 24.99c-2.37 5.62-3.85 8.31-8.59 8.31l-44.64-8.88a475.11 475.11 0 0 0-1.55 15.85c-.41 5.03 3.41 9.35 8.24 9.36l45.69 9.78c4.58.01 6-2.79 8.29-8.64l10.22-25.99 41.19-109.08c1.95-5.64 6.31-12.69 9.52-15.49 4.61-4.01 10.38-5.95 16.58-5.95h266.56c14.91 0 22.04 11.15 28.3 28.28l50.4 131.25c0 4.76 3.7 8.63 8.26 8.64l44.75-11.82c4.88.01 8.7-4.37 8.26-9.44l-1.26-15.77z"/></g><g fill="#575756"><path d="M685.18 556.97l-36.01 8.84-7.03 1.73c-.52.1-.8.16-1.3.15-1.54-.03-3.17-.93-4.25-1.97-1.52-1.46-1.6-2.9-2.07-4.8-.44-1.77-1.33-3.49-2.03-5.18l-31.91-77.2-14.83-35.89c-4.03-9.75-7.42-20.48-14.69-28.32-5.21-5.61-12.09-8.26-19.68-8.32-1.37-.01-2.75 0-4.12 0h-22.81-83.72-96.31-63.07c-8.87 0-17.94.37-24.85 6.95-7.47 7.1-10.76 18.24-14.57 27.62l-33.14 81.51-3.95 9.72-3.56 8.44-4.65 11c-1.42 3.36-2.66 6.92-4.45 10.1-3.04 5.42-8.66 2.78-13.52 1.81l-23.4-4.65-12.7-2.52c-1.04-.21-1.78.44-1.9 1.45l-1.28 12.65c-.27 3.07-.58 6 .92 8.81 1.88 3.52 4.98 4.68 8.66 5.29 5.98.99 11.92 2.55 17.85 3.82l22.85 4.89c1.47.31 2.98.78 4.47.96 4.71.56 7.39-3.16 9.06-7.01 5.71-13.2 10.61-26.81 15.69-40.27l16.31-43.19 16.18-42.84c4.42-11.71 8.29-26.79 21.7-30.76 5.57-1.65 12.14-1.02 17.91-1.02H322h96.55 93.46 27.87c7.9 0 15.57-.24 21.85 5.71 8.34 7.91 11.56 20.22 15.61 30.77l14.77 38.47 30.69 79.94c.39 1 .86 2.01 1.17 3.05.69 2.33.72 4.42 2.33 6.48 4.37 5.6 9.82 3.22 15.36 1.75l23.69-6.26c4.83-1.28 9.76-3.01 14.7-3.68 4.92-.67 8.32-5.24 8.37-10.06.05-5.45-.92-11.06-1.31-16.51-.14-1.91-3.14-1.93-3 0l.53 6.92c.27 3.33 1.07 7.02.76 10.33-.31 3.29-2.78 5.94-6.04 6.41-.75.11-1.33.15-2.06.33-6.12 1.51-12.2 3.22-18.3 4.83l-21.7 5.73c-1.69.45-3.38 1.25-5.1.73-3.52-1.06-4.33-3.7-5.08-6.91-.06-.27-.1-.46-.17-.71-.75-2.68-2.04-5.32-3.04-7.91l-6.11-15.92-17.2-44.79-24.53-63.93c-3.58-9.47-8.32-20.42-17.89-25.23-3.91-1.97-8.13-2.54-12.44-2.54h-18.87-83.95-99.68-60.35c-2.15 0-4.27-.02-6.42.26-5.84.77-11.63 3.41-15.51 7.94-3.61 4.2-6.22 9.21-8.16 14.37l-9 23.83-30.82 81.61-6.27 16.1-4.52 11.5c-1.04 2.65-1.99 6.44-4.23 8.42-1.86 1.64-3.61 1.04-5.69.6l-41.07-8.79c-2.41-.51-5.02-.54-6.89-2.33-2.68-2.56-2.21-5.85-1.92-9.18l1.28-12.65-1.9 1.45 36.95 7.35c4.22.84 9.54 2.92 13.38-.04 1.7-1.32 2.73-3.29 3.62-5.2 1.71-3.68 3.2-7.49 4.78-11.23l6.97-16.47 27.86-68.53 13.47-33.14c2-4.91 4.15-9.68 7.47-13.9 4.87-6.18 12.24-8.69 19.93-8.72h48.21 92.48 90.97 43.64c9.03.08 16 4.43 20.92 11.88 3.27 4.96 5.48 10.47 7.74 15.93l11.3 27.33 34.49 83.44 4.66 11.28c1.56 3.77 1.68 7.83 5.54 10.26 4.6 2.9 9.52.63 14.29-.54l23.07-5.66 12.52-3.07c1.83-.46 1.03-3.36-.85-2.9z"/><path d="M260.01 447.9c.83-2.3 1.99-4.55 3.48-6.53 1.06-1.4 3.2-3.43 4.6-4.38 4.1-2.79 7.94-4.05 12.94-5.04 4.54-.9 9.63-1.13 14.75-1.14l24.34.01 96.8.02 96.26.02h23.8c5.9.01 12.05-.06 17.64 2.09 5.55 2.13 8.62 7.03 10.96 12.25 2.88 6.42 5.15 13.17 7.66 19.74l32.47 85.68 8.22 21.56 4.12 10.73c1.41 3.52 3.06 6.86 6.33 9.02 6.66 4.4 15.63.32 22.53-1.51l22.94-6.08c6.69-1.77 14.74-2.79 18.67-9.24 1.68-2.75 1.9-5.49 1.58-8.59l-1.18-11.02c-1.54-13.66-3.36-27.3-5.62-40.87-4.43-26.6-10.63-52.99-20.02-78.3-9.42-25.39-21.94-49.66-38.4-71.23-16.21-21.23-35.65-39.68-57.7-54.77-42.86-29.33-94.31-44.15-146.18-42.7-51.28 1.43-102.14 17.68-145.07 45.71-43.07 28.12-77.64 68.15-101.38 113.63a345.01 345.01 0 0 0-27.78 71.97 343.39 343.39 0 0 0-7.71 37.98c-.94 6.49-1.74 13.01-2.34 19.54-.56 6.14-1.83 13.24.23 19.22 2.62 7.62 9.06 10.09 16.3 11.8 7.55 1.79 15.13 3.44 22.75 4.93l11.44 2.14c3.66.63 7.45 1.19 11.06-.02 7.7-2.59 9.92-10.8 12.53-17.6l34.19-89.24 8.09-21.06c2.47-6.43 4.54-13 7.03-19.43 1.17-3.02-1.29-6.58-4.19-7.38-3.39-.93-6.21 1.16-7.38 4.19-2.49 6.42-4.55 13-7.03 19.43l-8.47 22.06-16.55 43.2-16.68 43.54c-1.1 2.87-2 5.93-3.44 8.66-1.21 2.29-2.26 2.56-4.9 2.26-7.3-.84-14.65-2.7-21.83-4.24l-10.33-2.3c-2.91-.67-7.2-1-9.74-2.73-3.33-2.27-1.72-9.55-1.43-13.17.97-12.35 2.65-24.62 5.01-36.78 4.68-24.12 11.87-47.88 21.72-70.4 19.79-45.26 49.7-86.14 88.62-116.8 38.24-30.13 85.55-49.71 133.89-55.42 49.19-5.81 99.14 2.77 142.72 26.59 22.03 12.04 42.06 27.48 59.28 45.76 17.74 18.84 32 40.62 42.99 64.02 10.93 23.27 18.45 48.06 23.96 73.13 2.89 13.14 5.22 26.4 7.17 39.71l2.51 18.98c.76 6.37 1.16 12.84 2.08 19.19.18 1.22-.1.15.22-.28 2.62-3.5-.46.74-.37.66-.8.71-1.55.98-2.69 1.32-3.59 1.09-7.26 1.94-10.88 2.9l-22.94 6.08-5.21 1.38c-1.43.38-3.15 1.12-4.63 1.14-1.66.02-1.83-1.44-2.46-2.94-3.01-7.17-5.58-14.56-8.35-21.82l-31.69-83.66-8.09-21.19c-2.37-6.18-4.46-12.72-7.98-18.36-3.7-5.93-8.85-10.17-15.41-12.58-5.91-2.16-12.48-2.46-18.72-2.51l-92.97-.03-94.1-.02c-15.68 0-31.37-.01-47.05-.01-11.45 0-23.48-.49-34.4 3.59-10.67 3.99-18.27 11.56-22.13 22.31-1.1 3.05 1.24 6.57 4.19 7.38 3.29.96 6.25-1.09 7.35-4.15h0z"/></g><defs ><path id="B" d="M504.88 292.57c-64.19-22-136.18-10.51-194.52 22.35-52.93 29.81-96.6 76.39-125.61 129.54-28.41 52.05-43.48 111.38-42.74 170.71.74 59.01 17.18 117.92 48.23 168.2 15.7 25.42 35.11 48.78 57.76 68.29 23.94 20.62 50.94 36.72 80.42 48.07 28.45 10.95 59.07 16.99 89.58 17.33 31.25.35 61.94-5.82 90.63-18.14 55.52-23.85 100.13-70.13 130.17-121.8 30.93-53.19 47.24-114.88 46.39-176.42-.8-57.96-17.5-115.6-42.31-167.7-23.11-48.55-56.51-95.42-103.12-123.8-10.82-6.59-22.39-11.96-34.35-16.13-5.82-2.03-13.12 2.3-14.47 8.22-1.49 6.56 1.99 12.3 8.22 14.47 2.75.96 5.47 1.99 8.17 3.08 2.58 1.04-2.43-1.09.11.05l2.18.96c1.45.65 2.88 1.33 4.31 2.02 5.49 2.67 10.83 5.66 16.01 8.9 2.49 1.56 4.95 3.19 7.36 4.87l3.28 2.34 1.95 1.44c.55.41 3.62 2.41.84.62 4.92 3.17 9.42 7.71 13.7 11.67 9.45 8.75 18.14 18.31 26.15 28.4l1.06 1.34c1.83 2.3-1.52-2.02.26.33l3.1 4.13 5.53 7.74a339.7 339.7 0 0 1 10.93 16.87c7.06 11.62 13.45 23.65 19.24 35.95l3.9 8.52 1.97 4.5 1.05 2.46c-1.16-2.8.02.06.19.48a460.02 460.02 0 0 1 7.41 19.11c9.25 25.56 16.69 52.08 20.72 78.99l.39 2.62c.29 1.91.49 3.84.7 5.76a319.2 319.2 0 0 1 1.09 11.54 318.85 318.85 0 0 1 .92 21.19c.16 14.76-.69 29.53-2.52 44.17-.01.06-.41 3.2-.16 1.3s-.17 1.23-.18 1.3l-.87 5.71c-.59 3.64-1.23 7.27-1.94 10.89a330.68 330.68 0 0 1-4.84 21.11 332.27 332.27 0 0 1-14.14 42.01l-.74 1.78c1.1-2.63-.16.36-.33.75l-2.35 5.3-4.56 9.62a325.21 325.21 0 0 1-10.55 19.65 323.58 323.58 0 0 1-11.91 18.95c-2.01 2.97-4.06 5.9-6.17 8.79l-2.9 3.94-1.77 2.34c-.81 1.05-.79 1.04.04-.05l-.91 1.16c-8.77 11.16-18.28 21.75-28.53 31.57-5.22 5-10.64 9.81-16.24 14.38l-3.69 2.95c-2.48 1.99 1.93-1.44-.61.48l-2.27 1.71a255.08 255.08 0 0 1-8.48 6.05c-12.07 8.23-24.88 15.3-38.3 21.1 2.61-1.13-1.81.73-2.51 1.01a206.55 206.55 0 0 1-5.4 2.05 215.03 215.03 0 0 1-11.01 3.66c-6.68 2.01-13.47 3.66-20.32 4.96-3.42.65-6.86 1.26-10.31 1.68 3.06-.37-.14 0-.65.06l-2.84.32-5.69.52a226.23 226.23 0 0 1-21.94.64c-7.03-.14-14.05-.6-21.04-1.36l-2.86-.33c-.49-.06-3.72-.44-.69-.07-1.59-.19-3.18-.45-4.76-.7a255.22 255.22 0 0 1-11.37-2.06c-14.49-2.97-28.72-7.22-42.48-12.63l-4.47-1.81c-2.99-1.23 2.22.99-.74-.32l-2.2-.97a252.78 252.78 0 0 1-10.01-4.7c-6.58-3.26-13.01-6.8-19.28-10.62a246.95 246.95 0 0 1-18.2-12.22l-3.84-2.89c2.22 1.69-.33-.26-.65-.51l-2.25-1.79c-2.85-2.3-5.65-4.66-8.41-7.07-10.8-9.47-20.84-19.81-30.03-30.84l-2.98-3.64-1.76-2.21-.47-.59c-2.29-2.98-4.52-6-6.69-9.07a302.1 302.1 0 0 1-11.32-17.22c-7.43-12.2-13.99-24.93-19.66-38.05-.03-.06-1.22-2.87-.5-1.16s-.45-1.1-.48-1.16l-2.07-5.16a321.53 321.53 0 0 1-3.7-9.96 325.04 325.04 0 0 1-6.24-19.74c-3.86-13.76-6.73-27.76-8.75-41.91-.32-2.22-.02-.02.05.36-.15-.91-.24-1.85-.35-2.77l-.58-5.08c-.37-3.54-.69-7.09-.95-10.64-.51-7.09-.79-14.21-.84-21.32a330.17 330.17 0 0 1 2.4-42.05l.29-2.3c.38-3.14-.38 2.58.07-.54l.67-4.58c.56-3.66 1.19-7.31 1.87-10.96a337.18 337.18 0 0 1 4.59-20.81c3.43-13.49 7.69-26.77 12.76-39.74l2.07-5.18 1.07-2.58c-.16.36-.97 2.25-.1.24l4.58-10.19c3.04-6.47 6.28-12.85 9.72-19.12 6.77-12.32 14.31-24.21 22.57-35.57l3.36-4.54 1.14-1.5c1.91-2.53-1.5 1.89.46-.6l7.12-8.81c4.69-5.59 9.56-11.03 14.6-16.3 10.11-10.55 20.9-20.45 32.36-29.53l2.31-1.81c-2.16 1.68.43-.32.73-.55l3.94-2.93c3.17-2.32 6.39-4.58 9.66-6.76 6.28-4.21 12.73-8.17 19.33-11.86a268.41 268.41 0 0 1 19.45-9.84l5.47-2.41c-2.23.96-.15.07.41-.16l2.31-.94c3.72-1.49 7.48-2.88 11.26-4.19 7.64-2.63 15.41-4.87 23.28-6.7 3.79-.88 7.59-1.67 11.42-2.37l5.23-.89 3.15-.48c2.84-.44-1.52.16 1.09-.15 16.23-1.96 32.59-2.42 48.88-.91a185.78 185.78 0 0 1 5.29.56c.33.04 3.84.5 1.09.12l3.16.46a203.89 203.89 0 0 1 11.5 2.12c7.63 1.64 15.15 3.74 22.53 6.27 5.83 2 13.12-2.28 14.47-8.22 1.5-6.49-1.96-12.28-8.2-14.42h0z"/><path id="C" d="M773.77 197.59c-3.82-5.21-8.02-9.97-12.95-14.14-5.29-4.47-10.95-8.5-16.95-11.95-12.2-7.03-25.65-12.2-39.27-15.68-30.72-7.85-62.94-7.59-94.09-2.61-11.96 1.91-23.24 5.48-34.23 10.55-10.57 4.87-20.18 11.27-29.34 18.39-17.55 13.63-32.19 30.61-45.05 48.64-10.99 15.39-20.52 31.8-28.91 48.74l-2.6 5.34 1.84-2.38-2.3 2.27c-1.85 1.82-2.89 4.22-3.24 6.75-.32 2.37-.1 5.5 1.4 7.5.13.17.25.34.38.5 1.82 2.43 3.9 4.69 7.03 5.41 2.99.68 6.42.56 9.06-1.19 13.15-8.67 26.71-16.74 40.86-23.67 4.3-2.1 8.65-4.1 13.06-5.96l-2.81 1.19c12.79-5.37 26.13-9.72 39.91-11.59l-3.13.42c5.08-.67 10.22-1 15.34-.83 6.25.21 12.51 1.01 18.71 1.84l-3.13-.42c33.17 4.49 65.83 13.76 99.5 14.02 7.71.06 15.36-.43 22.99-1.46 7.08-.95 14.1-2.31 20.83-4.77 7.74-2.82 14.68-6.48 21-11.78 5.86-4.91 10-11.26 12.88-18.27 6.03-14.7 2.3-32.25-6.79-44.86-1.84-2.55-3.9-4.54-7.03-5.41-2.82-.78-6.57-.43-9.06 1.19-2.51 1.62-4.72 4.03-5.41 7.03-.66 2.92-.64 6.53 1.19 9.06 2 2.77 3.7 5.72 5.06 8.85l-1.19-2.81c1.33 3.17 2.28 6.47 2.75 9.88l-.42-3.13c.39 3.02.4 6.06 0 9.08l.42-3.13a33.13 33.13 0 0 1-2.2 7.99l1.19-2.81a33.87 33.87 0 0 1-4.33 7.37l1.84-2.38c-1.99 2.53-4.28 4.77-6.82 6.75l2.38-1.84c-3.51 2.67-7.37 4.78-11.42 6.5l2.81-1.19c-7.14 2.98-14.71 4.72-22.35 5.77l3.13-.42c-16.58 2.21-33.48 1.31-50.02-.89l3.13.42c-15.4-2.08-30.63-5.2-45.92-7.95-8.4-1.51-16.81-2.85-25.27-3.97-6.93-.92-13.95-1.83-20.95-1.85-13.26-.04-26.62 2.67-39.21 6.69-13.16 4.2-25.9 9.85-38.16 16.18-12.13 6.26-23.83 13.32-35.22 20.83l16.1 4.22c-.13-.17-.25-.34-.38-.5l-1.84 14.26c1.83-1.81 3.59-3.52 4.74-5.9l2.92-5.93c2.14-4.27 4.36-8.51 6.66-12.7 5.07-9.26 10.52-18.31 16.4-27.07 3.6-5.36 7.36-10.6 11.31-15.71l-1.84 2.38c8.39-10.84 17.59-21.08 27.84-30.19 2.92-2.59 5.92-5.09 9-7.48l-2.38 1.84c9.38-7.24 19.54-13.46 30.45-18.1l-2.81 1.19c10.97-4.62 22.34-7.13 34.1-8.73l-3.13.42c20.21-2.71 40.75-3.12 60.99-.44l-3.13-.42c14.63 1.98 29 5.59 42.62 11.3l-2.81-1.19c9.26 3.92 18.16 8.76 26.14 14.9l-2.38-1.84c4.87 3.78 9.36 8.03 13.14 12.91l-1.84-2.38c.31.4.61.81.91 1.21 1.87 2.55 3.87 4.54 7.03 5.41 2.82.78 6.57.43 9.06-1.19 2.51-1.62 4.72-4.03 5.41-7.03.65-2.89.64-6.54-1.2-9.05z"/><path id="D" d="M678.28 667.87c-159.04 27.81-480.63 19.3-533.27-5.22-1.35-.63-3.15-1.39-3.28-2.24-1.9-12.08-1.2-18-2.4-34.8-.25-3.52 13.2 0 23.64 2.85 161.15 43.96 340.69 21.56 510.22-.6 7.99-1.04 13.61-1.9 14.54 1.35 2.4 8.4 2.4 15.6-2.35 35.77-.4 1.7-3.76 2.31-7.1 2.89z"/><path id="E" d="M619.23 726.71c-10.33-16.95-20.37-27.99-32.3-37.49 21.58-8.71 42.45-16.89 63.52-17.12 50.93-.55 71.18 28.66 45.24 65.25-12.12 17.1-32.19 32.78-55.32 44.69-2.16-16.3-9.35-35.98-21.14-55.33z"/></defs></svg>