<?xml version="1.0" encoding="utf-8"?>
<!-- Generator: Adobe Illustrator 27.8.1, SVG Export Plug-In . SVG Version: 6.00 Build 0)  -->
<svg version="1.1" id="Laag_2" xmlns="http://www.w3.org/2000/svg" xmlns:xlink="http://www.w3.org/1999/xlink" x="0px" y="0px"
	 viewBox="0 0 80 80" style="enable-background:new 0 0 80 80;" xml:space="preserve">
<style type="text/css">
	.st0{fill:#FFFFFF;}
	.st1{fill:#4E4D4D;}
	.st2{fill:#FFFFFF;stroke:#4E4D4D;stroke-width:2.4375;stroke-miterlimit:10;}
	.st3{fill:#CDCCCC;}
	.st4{fill:#020203;stroke:#020203;stroke-width:0.975;stroke-miterlimit:10;}
	.st5{fill:none;stroke:#4E4D4D;stroke-width:2.4375;stroke-miterlimit:10;}
	.st6{fill:#FFCC07;}
	.st7{fill:#F39323;}
	.st8{fill:#CE7B1A;}
	.st9{fill:#F6A545;}
	.st10{fill:#808181;stroke:#808181;stroke-width:0.4973;stroke-miterlimit:10;}
	.st11{fill:#FFFFFF;stroke:#4F4E4E;stroke-width:2.5332;stroke-miterlimit:10;}
	.st12{fill:#CECCCC;}
	.st13{fill:none;stroke:#4F4E4E;stroke-width:2.5332;stroke-miterlimit:10;}
</style>
<g>
	<g>
		<path class="st0" d="M49.1,16.9c-3.6-1.2-7.6-1.1-11.2,0.2s-6.6,3.4-9,6.1c-6,6.5-8.4,15.7-6.2,24.1c1.3,5.1,4.3,9.9,8.8,13.1
			c4.5,3.2,10.6,4.5,15.9,3c4-1.2,7.2-3.8,9.7-6.9c4.8-6,6.6-14,4.9-21.5S55.8,19.3,49.1,16.9"/>
		<g>
			<path class="st1" d="M49.4,15.5c-10.2-3.4-20.6,3.1-25.5,11.9c-4.6,8.3-4.8,18.9,0.2,27.1c5,8.2,15.6,13.4,25,9.7
				c9.2-3.7,14.7-14,14.8-23.6c0-5.2-1.6-10.5-4-15.1C57.6,21.2,54.2,17.2,49.4,15.5c-1.7-0.6-2.5,2.2-0.7,2.9
				c3.5,1.3,6.1,4.2,8,7.3c2.1,3.5,3.5,7.4,4.1,11.4c1.2,8.4-2.4,17.9-9.6,22.7c-7.5,5-17.3,2.2-22.8-4.4C23,48.9,22,39.7,25,31.9
				c3.5-9.2,13.5-16.9,23.6-13.6C50.5,18.9,51.2,16.1,49.4,15.5L49.4,15.5z"/>
		</g>
	</g>
	<g>
		<path class="st2" d="M47.5,61.8"/>
		<path class="st2" d="M54.8,66.2"/>
		<ellipse class="st2" cx="49.9" cy="67.9" rx="7.3" ry="4.3"/>
	</g>
	<g>
		<g>
			<path class="st0" d="M65.7,5.9c-1.2-1.2-3.4-2-5.7-2.1c-2.2-0.2-4.5,0.2-6.5,0.9c-5,1.6-7.5,7.6-8.6,11.1l-0.2,0.2l0,0
				c2.1-1.8,5.3-4.3,8.2-4.5c2.2-0.1,4.4,0.1,6.6,0.1c2.2,0,4.6-0.4,5.9-1.5C67,8.9,66.9,7.1,65.7,5.9z"/>
			<g>
				<path class="st1" d="M66.7,4.9c-2.1-2-5.1-2.6-7.9-2.6c-2.8,0-6,0.6-8.4,2.3c-1.9,1.3-3.4,3.2-4.6,5.2c-0.6,1-1,2-1.4,3
					c-0.3,0.7-0.6,1.9-0.9,2.4c-0.4,0.5-0.2,1.4,0.2,1.8c0,0,0,0,0,0c0.6,0.6,1.5,0.5,2.1,0c1.7-1.5,3.7-3.1,6-3.8
					c2.6-0.8,5.6-0.1,8.3-0.2c2.3-0.1,5-0.5,6.7-2.2C68.6,9.1,68.3,6.6,66.7,4.9c-1.3-1.4-3.3,0.7-2.1,2.1c1.4,1.6-0.8,2.6-2.2,2.9
					c-2.4,0.6-4.8,0.2-7.2,0.2C53,10,51,10.2,48.9,11.3c-1.9,0.9-3.5,2.3-5.1,3.7c0.7,0,1.4,0,2.1,0c0,0,0,0,0,0
					c0.1,0.6,0.2,1.2,0.2,1.8c0.4-0.6,0.6-1.5,0.9-2.2c0.3-0.8,0.7-1.6,1.1-2.4c0.9-1.7,1.9-3.3,3.4-4.6c1.7-1.5,4.1-2.1,6.3-2.3
					c2.3-0.2,5.2,0,7,1.7C66,8.2,68.1,6.2,66.7,4.9z"/>
			</g>
		</g>
	</g>
	<g>
		<path class="st3" d="M64.8,4.6c0,0.6-0.2,1.2-0.7,1.8c-1.1,1.4-3.3,2.2-5.3,2.6c-2.1,0.4-4.2,0.5-6.2,1c-0.9,0.2-1.8,0.8-2.7,1.4
			c0.3,0.3,0.5,0.6,0.7,0.9c0.8-0.5,1.7-0.9,2.6-1c2.1-0.3,4.2-0.1,6.2-0.3c2.1-0.2,4.3-0.7,5.5-2C66.1,7.8,66,5.9,64.8,4.6z"/>
	</g>
	<g>
		<path class="st3" d="M62.4,34.9c-1.7-7.4-6-15.7-12.8-18l0,0c-2-0.7-4.1-0.9-6.2-0.8c0.4,0.1,0.9,0.1,1.3,0.2
			c3.7,0.7,7.2,2.6,9.7,5.5l0,0.1c4.6,5.4,4.3,14.7,2,22s-7.9,13.2-15,16.1c-2.4,0.9-5,1.5-7.6,1.6c4.2,2.4,9.5,3.2,14.1,1.9
			c4-1.2,7.2-3.8,9.7-6.9C62.3,50.4,64.1,42.4,62.4,34.9z"/>
	</g>
	<g>
		<g>
			<path class="st1" d="M49.4,15.5c-10.2-3.4-20.6,3.1-25.5,11.9c-4.6,8.3-4.8,18.9,0.2,27.1c5,8.2,15.6,13.4,25,9.7
				c9.2-3.7,14.7-14,14.8-23.6c0-5.2-1.6-10.5-4-15.1C57.6,21.2,54.2,17.2,49.4,15.5c-1.7-0.6-2.5,2.2-0.7,2.9
				c3.5,1.3,6.1,4.2,8,7.3c2.1,3.5,3.5,7.4,4.1,11.4c1.2,8.4-2.4,17.9-9.6,22.7c-7.5,5-17.3,2.2-22.8-4.4C23,48.9,22,39.7,25,31.9
				c3.5-9.2,13.5-16.9,23.6-13.6C50.5,18.9,51.2,16.1,49.4,15.5L49.4,15.5z"/>
		</g>
	</g>
	<path class="st4" d="M51.6,41.1H32.7c-1.1,0-1.9-0.9-1.9-1.9v-6.7c0-1.1,0.9-1.9,1.9-1.9h18.9c1.1,0,1.9,0.9,1.9,1.9v6.7
		C53.6,40.3,52.7,41.1,51.6,41.1z"/>
	<g>
		<path class="st3" d="M55.7,67.5c-0.4-1.4-2-3.3-4.7-4.2l0,0c-0.8-0.3-1.7-0.5-2.6-0.7c0.2,0,0.4,0.1,0.5,0.1
			c1.5,0.4,3,1.1,3.9,1.8l0,0c1.8,1.3,1.3,2.9,0.1,4c-1.2,1.1-3.8,1.7-6.9,1.5c-1,0-2.1-0.1-3.2-0.4c1.7,0.8,3.9,1.4,5.8,1.5
			c1.7,0.1,3.2-0.1,4.3-0.4C55.1,70.2,56.1,68.9,55.7,67.5z"/>
	</g>
	<g>
		<path class="st5" d="M47.2,61.7"/>
		<path class="st5" d="M54.5,66"/>
		<ellipse class="st5" cx="49.6" cy="67.8" rx="7.3" ry="4.3"/>
	</g>
	<g>
		<path class="st2" d="M32.5,61.8"/>
		<path class="st2" d="M39.8,66.2"/>
		<ellipse class="st2" cx="34.9" cy="67.9" rx="7.3" ry="4.3"/>
	</g>
	<g>
		<path class="st3" d="M41,67.8c-0.4-1.4-2-3.3-4.7-4.2l0,0c-0.8-0.3-1.7-0.5-2.6-0.7c0.2,0,0.4,0.1,0.5,0.1c1.5,0.4,3,1.1,3.9,1.8
			l0,0c1.8,1.3,1.3,2.9,0.1,4c-1.2,1.1-3.8,1.7-6.9,1.5c-1,0-2.1-0.1-3.2-0.4c1.7,0.8,3.9,1.4,5.8,1.5c1.7,0.1,3.2-0.1,4.3-0.4
			C40.4,70.4,41.5,69.2,41,67.8z"/>
	</g>
	<g>
		<path class="st5" d="M32.1,61.7"/>
		<path class="st5" d="M39.4,66"/>
		<ellipse class="st5" cx="34.6" cy="67.8" rx="7.3" ry="4.3"/>
	</g>
	<g>
		<g>
			<g>
				<path class="st1" d="M66.7,4.9c-2.1-2-5.1-2.6-7.9-2.6c-2.8,0-6,0.6-8.4,2.3c-1.9,1.3-3.4,3.2-4.6,5.2c-0.6,1-1,2-1.4,3
					c-0.3,0.7-0.6,1.9-0.9,2.4c-0.4,0.5-0.2,1.4,0.2,1.8c0,0,0,0,0,0c0.6,0.6,1.5,0.5,2.1,0c1.7-1.5,3.7-3.1,6-3.8
					c2.6-0.8,5.6-0.1,8.3-0.2c2.3-0.1,5-0.5,6.7-2.2C68.6,9.1,68.3,6.6,66.7,4.9c-1.3-1.4-3.3,0.7-2.1,2.1c1.4,1.6-0.8,2.6-2.2,2.9
					c-2.4,0.6-4.8,0.2-7.2,0.2C53,10,51,10.2,48.9,11.3c-1.9,0.9-3.5,2.3-5.1,3.7c0.7,0,1.4,0,2.1,0c0,0,0,0,0,0
					c0.1,0.6,0.2,1.2,0.2,1.8c0.4-0.6,0.6-1.5,0.9-2.2c0.3-0.8,0.7-1.6,1.1-2.4c0.9-1.7,1.9-3.3,3.4-4.6c1.7-1.5,4.1-2.1,6.3-2.3
					c2.3-0.2,5.2,0,7,1.7C66,8.2,68.1,6.2,66.7,4.9z"/>
			</g>
		</g>
	</g>
	<g>
		<circle class="st6" cx="39.3" cy="36.4" r="0.9"/>
		<circle class="st6" cx="33.7" cy="36.4" r="0.9"/>
		<circle class="st6" cx="35.4" cy="34.5" r="0.9"/>
		<circle class="st6" cx="37.7" cy="34.5" r="0.9"/>
		<circle class="st6" cx="50.6" cy="36.4" r="0.9"/>
		<circle class="st6" cx="45" cy="36.4" r="0.9"/>
		<circle class="st6" cx="46.7" cy="34.5" r="0.9"/>
		<circle class="st6" cx="48.9" cy="34.5" r="0.9"/>
	</g>
</g>
<path class="st7" d="M32.3,43.4c-0.9,0-6.9-0.7-6.9,0.2l2.2,4.9c0,0.9,1,2,0.2,2l-4.5,0.5l-0.2,0c-0.2,0-0.4,0.2-0.4,0.4
	c0,1.2,0.1,2.4,0.5,3.5c1.4,5.1,6.1,8.9,11.6,9l4.1,0.1c1.2,0,2.1-0.9,2.1-2.1l0-3.3l0.1-6.1C41.1,47.5,37.1,43.5,32.3,43.4z"/>
<path class="st7" d="M62.7,27.5c0.2-8.5-7.4-15.9-17.4-16.7s-18.6,5.3-19.8,13.7L62.7,27.5z"/>
<path class="st8" d="M47.4,11.2c1,0.7,2.1,1.6,3,2.5c3.8,3.9,5.8,8.7,5.9,13.4l6.3,0.5C62.9,19.7,56.3,12.8,47.4,11.2z"/>
<path class="st8" d="M47.7,10.9c0,0-0.5-0.3-0.5-0.1c-0.7,3.7-2.6,9.3-2.3,13.5C45,22,47,13,48.5,11.5
	C48.4,11.4,47.7,10.9,47.7,10.9z"/>
<path class="st9" d="M44.7,10.7c0.4-0.5,3.2-0.2,3,0.2c-1.8,3.7-2.5,10.2-2.2,14.4l-4.7-0.2C41.2,16.1,43.8,12.3,44.7,10.7z"/>
<path class="st7" d="M63.3,30.6l-40.3-3.2c-1.2-0.1-2-1.1-1.9-2.3l0,0c0.1-1.2,1.1-2,2.3-1.9l40.3,3.2c1.2,0.1,2,1.1,1.9,2.3v0
	C65.5,29.8,64.5,30.7,63.3,30.6z"/>
<path class="st8" d="M63.7,29.6l-40.5-2.4c-0.8,0-1.5-0.5-2-1.2c0.3,0.7,1,1.3,1.8,1.4l40.3,3.2c1.1,0.1,2-0.6,2.2-1.6
	C65.1,29.4,64.4,29.7,63.7,29.6z"/>
<path class="st9" d="M23,50.9c-0.2,0-0.4,0.2-0.4,0.4l0,0c0,1.2,0.1,2.4,0.5,3.5c2.5,1.3,7.6,3.7,17.9,3.7l0.1-6.1
	c-5.1,0.6-12.8,0.3-17.7-1.5L23,50.9z"/>
<path class="st7" d="M51.3,43.4c0.9,0,6.9-0.7,6.9,0.2L56,48.5c0,0.9-1,2-0.2,2l4.5,0.5l0.2,0c0.2,0,0.4,0.2,0.4,0.4
	c0,1.2-0.1,2.4-0.5,3.5c-1.4,5.1-6.1,8.9-11.6,9l-4.1,0.1c-1.2,0-2.1-0.9-2.1-2.1l0-3.3l-0.1-6.1C42.5,47.5,46.4,43.5,51.3,43.4z"/>
<path class="st9" d="M60.6,50.9c0.2,0,0.4,0.2,0.4,0.4l0,0c0,1.2-0.1,2.4-0.5,3.5c-2.5,1.3-7.6,3.7-17.9,3.7l-0.1-6.1
	c5.1,0.6,12.8,0.3,17.7-1.5L60.6,50.9z"/>
<path class="st7" d="M60.6,54.8c0,0.2-0.1,0.3-0.2,0.5C60.5,55.1,60.6,54.9,60.6,54.8z"/>
<path class="st7" d="M61,52.4c0,0.1,0,0.3,0,0.4C61,52.7,61,52.6,61,52.4z"/>
<path class="st7" d="M60.9,53.6c0,0.2-0.1,0.3-0.1,0.5C60.8,53.9,60.9,53.8,60.9,53.6z"/>
<path class="st9" d="M60.8,54.1c0,0.2-0.1,0.4-0.2,0.7C60.7,54.5,60.7,54.3,60.8,54.1z"/>
<path class="st9" d="M61.1,51.2C61.1,51.2,61.1,51.2,61.1,51.2C61.1,51.2,61.1,51.2,61.1,51.2C61.1,51.2,61.1,51.2,61.1,51.2z"/>
<path class="st9" d="M60.5,55.3c0,0.1-0.1,0.3-0.1,0.4c0,0,0,0,0,0C60.4,55.6,60.4,55.4,60.5,55.3z"/>
<path class="st9" d="M43,58.7L43,58.7c0-1.5,0-1.9-0.1-3.6L43,58.7z"/>
<path class="st9" d="M61.1,51.2c0,0.4,0,0.8,0,1.2C61.1,52,61.1,51.6,61.1,51.2z"/>
<path class="st9" d="M61,52.8c0,0.3-0.1,0.5-0.1,0.8C60.9,53.4,61,53.1,61,52.8z"/>
<path class="st10" d="M19.7,30.5c-0.2-0.2-0.5-0.1-0.5,0.2l-0.3,1.2c0,0.2-0.2,0.3-0.4,0.2l-2.1-0.6c-0.2,0-0.3-0.2-0.2-0.4l0.3-1.2
	c0.1-0.2-0.1-0.5-0.4-0.4c-1,0.2-1.7,0.8-1.9,1.6c-0.3,1,0.3,2,1.3,2.7c-0.1,0.1-0.1,0.2-0.2,0.4L12,45.7c-1.2,0.1-2.2,0.7-2.5,1.7
	c-0.2,0.7,0,1.3,0.5,1.9c0.2,0.2,0.5,0.1,0.6-0.1l0.4-1.3c0-0.2,0.2-0.3,0.4-0.2l2.9,0.8c0.2,0,0.3,0.2,0.2,0.4l-0.4,1.3
	c-0.1,0.3,0.2,0.5,0.5,0.4c0.7-0.3,1.2-0.8,1.4-1.4c0.3-1-0.3-2-1.3-2.7l3.2-11.6c0-0.1,0.1-0.3,0.1-0.4c1.2-0.1,2.2-0.7,2.5-1.7
	C20.7,32,20.4,31.1,19.7,30.5z"/>
<g>
	<ellipse transform="matrix(0.7137 -0.7005 0.7005 0.7137 -25.0572 28.0768)" class="st11" cx="21.8" cy="44.7" rx="4.1" ry="8.4"/>
	<path class="st12" d="M27.2,50.5c-1.5,0.2-4.2-0.2-7.1-1.9l0,0c-0.8-0.5-1.7-1.1-2.5-1.7l0.5,0.4c1.4,0.9,2.9,1.7,4.4,2.3l0,0
		c2.4,0.8,3.4-0.2,3.4-1.6c0-1.4-1.5-3.6-3.9-6c-0.9-0.8-1.8-1.6-2.7-2.4c2,1.1,3.9,2.4,5.7,3.9c1.1,1,2.1,2.2,2.9,3.5
		C29,48.9,28.8,50.3,27.2,50.5z"/>
	<ellipse transform="matrix(0.685 -0.7285 0.7285 0.685 -25.7353 29.9208)" class="st13" cx="21.7" cy="44.7" rx="4.1" ry="8.4"/>
</g>
<g>
	<ellipse transform="matrix(0.6533 -0.7571 0.7571 0.6533 -19.3036 60.1421)" class="st11" cx="56" cy="51.1" rx="8.4" ry="4.1"/>
	<path class="st12" d="M50.7,57c-0.4-1.5-0.2-4.2,1.3-7.2l0,0c0.5-0.9,1-1.8,1.5-2.6l-0.3,0.6c-0.8,1.4-1.5,3-1.9,4.6l0,0
		c-0.6,2.5,0.5,3.4,1.9,3.2s3.5-1.8,5.6-4.4c0.8-0.9,1.5-1.9,2.1-2.9c-0.9,2.1-2.1,4.1-3.4,6c-0.9,1.2-2,2.3-3.3,3.2
		C52.4,58.7,51,58.6,50.7,57z"/>
	<ellipse transform="matrix(0.6224 -0.7827 0.7827 0.6224 -18.8338 63.0972)" class="st13" cx="56" cy="51.1" rx="8.4" ry="4.1"/>
</g>
</svg>
