<?xml version="1.0" encoding="UTF-8"?>
<svg id="IconWinter" xmlns="http://www.w3.org/2000/svg" viewBox="0 0 374.92 551.69">
  <defs>
    <style>
      .cls-1 {
        stroke: #000;
        stroke-width: 7.84px;
      }

      .cls-1, .cls-2, .cls-3, .cls-4, .cls-5, .cls-6, .cls-7 {
        stroke-miterlimit: 10;
      }

      .cls-8 {
        fill: #4d4d4d;
      }

      .cls-8, .cls-9, .cls-10, .cls-11, .cls-12, .cls-13, .cls-14, .cls-15 {
        stroke-width: 0px;
      }

      .cls-2 {
        stroke: #b3b3b3;
      }

      .cls-2, .cls-3, .cls-4, .cls-5, .cls-6 {
        fill: none;
      }

      .cls-2, .cls-4, .cls-5, .cls-6 {
        stroke-width: 3px;
      }

      .cls-9 {
        fill: #c1272d;
      }

      .cls-3, .cls-7 {
        stroke: #4d4d4d;
        stroke-width: 19.61px;
      }

      .cls-4 {
        stroke: #a2272d;
      }

      .cls-4, .cls-5 {
        stroke-linecap: round;
      }

      .cls-10 {
        fill: #ccc;
      }

      .cls-11, .cls-7 {
        fill: #fff;
      }

      .cls-5 {
        stroke: #005337;
      }

      .cls-12 {
        fill: #a2272d;
      }

      .cls-13 {
        fill: #005337;
      }

      .cls-6 {
        stroke: #e6e6e6;
      }

      .cls-14 {
        fill: #fc0;
      }

      .cls-15 {
        fill: #006837;
      }
    </style>
  </defs>
  <g>
    <path class="cls-11" d="m239.91,96.42c-28.9-10-61.39-8.57-89.85,1.23-28.46,9.8-53.06,27.55-72.79,48.75-48.27,51.9-67.34,126.09-49.82,193.83,10.52,40.68,34.31,79.48,70.45,105.09,36.14,25.61,85.13,36.6,127.75,24.22,31.91-9.26,58.24-30.54,77.85-55.43,38.3-48.61,52.97-112.81,39.45-172.65-13.52-59.84-48.57-126.02-102.72-144.73"/>
    <path class="cls-8" d="m243.04,85.08c-41.44-14.21-88.05-6.71-125.69,14.5-33.9,19.09-61.98,48.99-80.56,83.03-18.23,33.4-27.95,71.49-27.47,109.56.47,37.85,11.01,75.73,30.93,107.98,10.06,16.28,22.49,31.33,37.01,43.83,15.67,13.5,33.21,23.93,52.5,31.35,18.24,7.02,37.95,10.84,57.49,11.06,10.03.11,20.09-.87,29.94-2.73s19.8-5.21,29.26-9.27c35.54-15.29,64.2-45.09,83.43-78.17,19.82-34.1,30.31-73.71,29.77-113.15-.51-37.25-11.26-74.19-27.2-107.67-14.86-31.21-36.48-61.19-66.42-79.42-7.12-4.34-14.78-7.84-22.65-10.58-5.82-2.03-13.12,2.3-14.47,8.22-1.49,6.56,1.99,12.3,8.22,14.47,2.04.71,4.06,1.49,6.06,2.32l-2.81-1.19c8.81,3.74,17.03,8.7,24.61,14.54l-2.38-1.84c10.1,7.84,18.96,17.13,26.79,27.21l-1.84-2.38c12.2,15.8,21.87,33.43,29.63,51.79l-1.19-2.81c8.87,21.12,15.67,43.52,18.76,66.26l-.42-3.13c2.4,18.05,2.36,36.34-.03,54.39l.42-3.13c-2.5,18.43-7.43,36.47-14.65,53.61l1.19-2.81c-6.94,16.33-15.92,31.74-26.76,45.79l1.84-2.38c-9.43,12.16-20.21,23.25-32.36,32.7l2.38-1.84c-9.96,7.68-20.76,14.18-32.34,19.11l2.81-1.19c-10.56,4.44-21.62,7.46-32.97,8.99l3.13-.42c-12.54,1.64-25.24,1.51-37.77-.14l3.13.42c-14.24-1.93-28.15-5.79-41.39-11.37l2.81,1.19c-12.58-5.36-24.42-12.25-35.26-20.58l2.38,1.84c-11.65-9.02-22.06-19.52-31.09-31.16l1.84,2.38c-10.06-13.04-18.32-27.37-24.74-42.54l1.19,2.81c-6.85-16.33-11.51-33.5-13.88-51.06l.42,3.13c-2.4-18.14-2.34-36.53.06-54.66l-.42,3.13c2.53-18.71,7.54-37.02,14.87-54.42l-1.19,2.81c7.05-16.62,16.18-32.3,27.2-46.62l-1.84,2.38c10.64-13.74,22.94-26.18,36.68-36.82l-2.38,1.84c11.83-9.1,24.68-16.79,38.42-22.63l-2.81,1.19c12.3-5.17,25.18-8.75,38.4-10.58l-3.13.42c12.41-1.66,24.97-1.77,37.38-.14l-3.13-.42c8.19,1.12,16.24,2.98,24.05,5.66,5.83,2,13.12-2.28,14.47-8.22,1.49-6.54-1.98-12.33-8.22-14.47h0Z"/>
  </g>
  <ellipse class="cls-7" cx="246.97" cy="506.93" rx="58.63" ry="34.96"/>
  <path class="cls-10" d="m347.53,241.47c-13.52-59.84-48.57-126.02-102.72-144.73l-.33-.32c-16.04-5.55-33.18-7.57-50.12-6.61,3.47.45,6.93,1,10.38,1.69,29.5,5.86,58.26,20.97,78.18,44.14l.13.45c37.33,43.39,34.29,118.15,15.85,176.6-18.44,58.45-63.4,106.49-120.91,129.18-19.12,7.54-39.93,12.34-60.98,12.57,34.1,18.92,76.08,25.89,113.23,15.1,31.91-9.26,58.24-30.54,77.85-55.43,38.3-48.61,52.97-112.81,39.45-172.65Z"/>
  <path class="cls-8" d="m243.04,85.08c-41.44-14.21-88.05-6.71-125.69,14.5-33.9,19.09-61.98,48.99-80.56,83.03-18.23,33.4-27.95,71.49-27.47,109.56.47,37.85,11.01,75.73,30.93,107.98,10.06,16.28,22.49,31.33,37.01,43.83,15.67,13.5,33.21,23.93,52.5,31.35,18.24,7.02,37.95,10.84,57.49,11.06,10.03.11,20.09-.87,29.94-2.73s19.8-5.21,29.26-9.27c35.54-15.29,64.2-45.09,83.43-78.17,19.82-34.1,30.31-73.71,29.77-113.15-.51-37.25-11.26-74.19-27.2-107.67-14.86-31.21-36.48-61.19-66.42-79.42-7.12-4.34-14.78-7.84-22.65-10.58-5.82-2.03-13.12,2.3-14.47,8.22-1.49,6.56,1.99,12.3,8.22,14.47,2.04.71,4.06,1.49,6.06,2.32l-2.81-1.19c8.81,3.74,17.03,8.7,24.61,14.54l-2.38-1.84c10.1,7.84,18.96,17.13,26.79,27.21l-1.84-2.38c12.2,15.8,21.87,33.43,29.63,51.79l-1.19-2.81c8.87,21.12,15.67,43.52,18.76,66.26l-.42-3.13c2.4,18.05,2.36,36.34-.03,54.39l.42-3.13c-2.5,18.43-7.43,36.47-14.65,53.61l1.19-2.81c-6.94,16.33-15.92,31.74-26.76,45.79l1.84-2.38c-9.43,12.16-20.21,23.25-32.36,32.7l2.38-1.84c-9.96,7.68-20.76,14.18-32.34,19.11l2.81-1.19c-10.56,4.44-21.62,7.46-32.97,8.99l3.13-.42c-12.54,1.64-25.24,1.51-37.77-.14l3.13.42c-14.24-1.93-28.15-5.79-41.39-11.37l2.81,1.19c-12.58-5.36-24.42-12.25-35.26-20.58l2.38,1.84c-11.65-9.02-22.06-19.52-31.09-31.16l1.84,2.38c-10.06-13.04-18.32-27.37-24.74-42.54l1.19,2.81c-6.85-16.33-11.51-33.5-13.88-51.06l.42,3.13c-2.4-18.14-2.34-36.53.06-54.66l-.42,3.13c2.53-18.71,7.54-37.02,14.87-54.42l-1.19,2.81c7.05-16.62,16.18-32.3,27.2-46.62l-1.84,2.38c10.64-13.74,22.94-26.18,36.68-36.82l-2.38,1.84c11.83-9.1,24.68-16.79,38.42-22.63l-2.81,1.19c12.3-5.17,25.18-8.75,38.4-10.58l-3.13.42c12.41-1.66,24.97-1.77,37.38-.14l-3.13-.42c8.19,1.12,16.24,2.98,24.05,5.66,5.83,2,13.12-2.28,14.47-8.22,1.49-6.54-1.98-12.33-8.22-14.47h0Z"/>
  <rect class="cls-1" x="92.78" y="184.3" width="183.39" height="85.05" rx="15.69" ry="15.69"/>
  <path class="cls-10" d="m293.26,503.41c-3.58-11.62-15.98-26.16-38.08-33.99l-.13-.08c-6.54-2.32-13.67-4.11-20.82-5.37,1.44.37,2.88.76,4.3,1.17,12.19,3.51,23.74,8.57,31.29,14.3l.04.09c14.16,10.74,10.26,23.58.47,32.27s-30.36,13.33-55.32,12.47c-8.3-.29-17.2-1.19-26.06-2.92,13.66,6.18,31.05,10.93,47.03,12.16,13.73,1.06,25.54-.46,34.64-3.17,17.79-5.3,26.21-15.31,22.62-26.93Z"/>
  <ellipse class="cls-3" cx="244.36" cy="505.62" rx="58.63" ry="34.96"/>
  <ellipse class="cls-7" cx="126.01" cy="506.93" rx="58.63" ry="34.96"/>
  <path class="cls-10" d="m172.3,503.41c-3.58-11.62-15.98-26.16-38.08-33.99l-.13-.08c-6.54-2.32-13.67-4.11-20.82-5.37,1.44.37,2.88.76,4.3,1.17,12.19,3.51,23.74,8.57,31.29,14.3l.04.09c14.16,10.74,10.26,23.58.47,32.27-9.79,8.69-30.36,13.33-55.32,12.47-8.3-.29-17.2-1.19-26.06-2.92,13.66,6.18,31.05,10.93,47.03,12.16,13.73,1.06,25.54-.46,34.64-3.17,17.79-5.3,26.21-15.31,22.62-26.93Z"/>
  <ellipse class="cls-3" cx="123.4" cy="505.62" rx="58.63" ry="34.96"/>
  <g>
    <circle class="cls-14" cx="161.81" cy="231.26" r="7.56"/>
    <circle class="cls-14" cx="116.47" cy="231.26" r="7.56"/>
    <circle class="cls-14" cx="129.9" cy="216.15" r="7.56"/>
    <circle class="cls-14" cx="148.37" cy="216.15" r="7.56"/>
    <circle class="cls-14" cx="252.47" cy="231.26" r="7.56"/>
    <circle class="cls-14" cx="207.14" cy="231.26" r="7.56"/>
    <circle class="cls-14" cx="220.57" cy="216.15" r="7.56"/>
    <circle class="cls-14" cx="239.04" cy="216.15" r="7.56"/>
  </g>
  <path class="cls-9" d="m272.69,463.77c-59.32,14.63-120.78,14.08-184,1-44.1-36.78-66.43-81.55-76-131l345,6c-17.16,47.77-42.25,90.97-85,124Z"/>
  <path class="cls-12" d="m363.16,338.28c-106.51,51.59-320.27,36-357.08-9.42-1.19-1.47-2.01-3.21-2.31-5.08-2.63-16.48-2.27-33.48.65-50.91,1.16-6.9,8.55-10.82,14.96-8.01,109.74,48.04,226.5,39.54,339.24-1.28,6.33-2.29,13.2,1.66,14.35,8.29,3.54,20.39,2.29,40.44-4.27,60.13-.92,2.76-2.93,5.02-5.55,6.29Z"/>
  <path class="cls-9" d="m361.73,335c-106.82,52.17-322.81,36.21-358.16-9.79-.91-1.18-1.5-2.58-1.73-4.04-2.8-17.2-2.32-34.96.92-53.2,1.05-5.92,7.38-9.33,12.88-6.9,110.8,49.15,228.82,40.45,342.69-1.12,5.36-1.96,11.25,1.33,12.31,6.94,4.01,21.27,2.84,42.18-4.12,62.7-.8,2.37-2.52,4.31-4.77,5.41Z"/>
  <path class="cls-15" d="m190.69,131.77H58.03c-2.19-9.19,2.73-18.52,7.66-26,27-41,108.83-91.34,179-66,36,13,89.11,70.72,79.27,119.1l-133.27-27.1Z"/>
  <path class="cls-13" d="m244.69,39.77c2.74.99,5.58,2.24,8.48,3.73,5.66-6.79,8.08-15.43,5.75-23.69-4.09-14.49-21.21-22.33-38.25-17.52-15.46,4.37-25.53,17.66-24.2,30.91,16.16-.97,32.48.9,48.21,6.58Z"/>
  <path class="cls-15" d="m246.61,39.73c4.18,1.83,5.27,3.38,8.08,5.04,6.06-6.44,9.15-15.73,7.32-24.12-3.22-14.7-19.84-23.56-37.13-19.78-15.69,3.43-27.73,17.59-27.19,30.89,16.19,0,33,1,48.92,7.96Z"/>
  <path class="cls-13" d="m241.74,45.8c-12.62-5.29-25.75-8.06-38.97-8.81,2.57.99,5.13,2.07,7.66,3.27,32.98,15.62,77.57,73.19,69.15,119.44l35.3,9.06c12.28-47.82-37.84-108.16-73.13-122.97Z"/>
  <path class="cls-13" d="m332.21,126.05c-93.74-30.28-186.51-33.1-278.36-9.5-2.07.53-3.93,1.71-5.3,3.35-13.67,16.33-20.79,37.33-19.7,58.12.2,3.79,3.76,6.5,7.44,5.61,110.52-26.8,209.65-25.27,301.06,7.92,3.71,1.35,7.68-1.18,8.07-5.11,2-20.08,1.61-39.79-7.45-55.66-1.27-2.23-3.32-3.94-5.76-4.73Z"/>
  <path class="cls-15" d="m331.15,127.52c-93.85-29.93-186.64-32.41-278.39-8.47-2.07.54-3.92,1.72-5.29,3.37-13.61,16.38-20.66,37.41-19.49,58.19.21,3.79,3.78,6.49,7.47,5.58,110.42-27.21,209.56-26.04,301.09,6.81,3.72,1.33,7.68-1.2,8.05-5.14,1.92-20.09,1.46-39.79-7.65-55.64-1.28-2.23-3.33-3.92-5.78-4.7Z"/>
  <g>
    <path class="cls-12" d="m178.28,78.22c-.64.09-1.28.18-1.92.27.67.02,1.34.07,2,.1l-.09-.38Z"/>
    <path class="cls-12" d="m284.69,361.89c-8.36,34.48-38.41,57.57-70,73.81-18.32,9.42-64.06,24.04-85,26.29,51,5.06,77,3.03,118.26-4.68,32.68-6.11,55.1-36.31,72.27-63.23,9.18-14.39,19.1-33.33,24.48-49.31l-60,17.12Z"/>
  </g>
  <g>
    <line class="cls-2" x1="224.27" y1="444.38" x2="256.69" y2="439.03"/>
    <line class="cls-2" x1="229.97" y1="429.06" x2="249.93" y2="452.46"/>
    <line class="cls-2" x1="235.58" y1="455.33" x2="246.3" y2="426.15"/>
    <line class="cls-2" x1="227.31" y1="439.29" x2="230.82" y2="443.51"/>
    <line class="cls-2" x1="228.7" y1="447.95" x2="230.82" y2="443.51"/>
    <line class="cls-2" x1="236.36" y1="427.98" x2="234.13" y2="434.14"/>
    <line class="cls-2" x1="228.26" y1="435.01" x2="234.13" y2="434.14"/>
    <line class="cls-2" x1="245.67" y1="453.46" x2="247" y2="449.35"/>
    <line class="cls-2" x1="251.25" y1="448.81" x2="247" y2="449.35"/>
    <line class="cls-2" x1="254.3" y1="444.57" x2="250.49" y2="439.94"/>
    <line class="cls-2" x1="252.44" y1="434.32" x2="250.49" y2="439.94"/>
    <line class="cls-2" x1="233.14" y1="451.53" x2="237.18" y2="451.26"/>
    <line class="cls-2" x1="239.66" y1="454.11" x2="237.18" y2="451.26"/>
    <line class="cls-2" x1="249.78" y1="431.33" x2="244.16" y2="432.25"/>
    <line class="cls-2" x1="240.28" y1="427.76" x2="244.17" y2="432.41"/>
  </g>
  <g>
    <line class="cls-6" x1="110.88" y1="431.05" x2="137" y2="451"/>
    <line class="cls-6" x1="125.93" y1="424.71" x2="122.58" y2="455.28"/>
    <line class="cls-6" x1="110.66" y1="446.79" x2="139.25" y2="434.6"/>
    <line class="cls-6" x1="116.66" y1="429.78" x2="116" y2="435.23"/>
    <line class="cls-6" x1="111.31" y1="436.73" x2="116" y2="435.23"/>
    <line class="cls-6" x1="131.11" y1="428.61" x2="125.09" y2="431.22"/>
    <line class="cls-6" x1="120.43" y1="427.54" x2="125.09" y2="431.22"/>
    <line class="cls-6" x1="118.93" y1="452.86" x2="122.84" y2="451.02"/>
    <line class="cls-6" x1="126.15" y1="453.74" x2="122.84" y2="451.02"/>
    <line class="cls-6" x1="131.32" y1="453.05" x2="132.08" y2="447.1"/>
    <line class="cls-6" x1="137.51" y1="444.67" x2="132.08" y2="447.1"/>
    <line class="cls-6" x1="111.75" y1="442.42" x2="114.72" y2="445.17"/>
    <line class="cls-6" x1="114.34" y1="448.93" x2="114.72" y2="445.17"/>
    <line class="cls-6" x1="137.87" y1="440.68" x2="133.34" y2="437.22"/>
    <line class="cls-6" x1="133.95" y1="431.32" x2="133.23" y2="437.33"/>
  </g>
  <g>
    <line class="cls-6" x1="77.01" y1="375.64" x2="56.95" y2="401.67"/>
    <line class="cls-6" x1="83.29" y1="390.73" x2="52.73" y2="387.24"/>
    <line class="cls-6" x1="61.27" y1="375.35" x2="73.33" y2="404"/>
    <line class="cls-6" x1="78.26" y1="381.43" x2="72.81" y2="380.75"/>
    <line class="cls-6" x1="71.33" y1="376.05" x2="72.81" y2="380.75"/>
    <line class="cls-6" x1="79.36" y1="395.88" x2="76.78" y2="389.85"/>
    <line class="cls-6" x1="80.48" y1="385.21" x2="76.78" y2="389.85"/>
    <line class="cls-6" x1="55.16" y1="383.6" x2="56.99" y2="387.51"/>
    <line class="cls-6" x1="54.25" y1="390.81" x2="56.99" y2="387.51"/>
    <line class="cls-6" x1="54.92" y1="395.98" x2="60.86" y2="396.78"/>
    <line class="cls-6" x1="63.27" y1="402.21" x2="60.86" y2="396.78"/>
    <line class="cls-6" x1="65.64" y1="376.46" x2="62.87" y2="379.42"/>
    <line class="cls-6" x1="59.12" y1="379.03" x2="62.87" y2="379.42"/>
    <line class="cls-6" x1="67.26" y1="402.59" x2="70.74" y2="398.08"/>
    <line class="cls-6" x1="76.63" y1="398.71" x2="70.63" y2="397.97"/>
  </g>
  <g>
    <line class="cls-2" x1="305.3" y1="392.79" x2="272.48" y2="391.12"/>
    <line class="cls-2" x1="296.48" y1="406.54" x2="281.94" y2="379.44"/>
    <line class="cls-2" x1="296.57" y1="379.69" x2="279.9" y2="405.92"/>
    <line class="cls-2" x1="301.25" y1="397.11" x2="298.71" y2="392.25"/>
    <line class="cls-2" x1="301.73" y1="388.35" x2="298.71" y2="392.25"/>
    <line class="cls-2" x1="290" y1="406.25" x2="293.49" y2="400.69"/>
    <line class="cls-2" x1="299.41" y1="401.09" x2="293.49" y2="400.69"/>
    <line class="cls-2" x1="286.32" y1="379.36" x2="284.14" y2="383.09"/>
    <line class="cls-2" x1="279.87" y1="382.73" x2="284.14" y2="383.09"/>
    <line class="cls-2" x1="276" y1="386.22" x2="278.73" y2="391.56"/>
    <line class="cls-2" x1="275.64" y1="396.63" x2="278.73" y2="391.56"/>
    <line class="cls-2" x1="298.15" y1="383.91" x2="294.14" y2="383.32"/>
    <line class="cls-2" x1="292.33" y1="380.01" x2="294.14" y2="383.32"/>
    <line class="cls-2" x1="277.6" y1="400.12" x2="283.29" y2="400.42"/>
    <line class="cls-2" x1="286.12" y1="405.62" x2="283.32" y2="400.26"/>
  </g>
  <g>
    <line class="cls-6" x1="166.44" y1="395.69" x2="200.38" y2="415.31"/>
    <line class="cls-6" x1="183.6" y1="385.94" x2="183.79" y2="425.06"/>
    <line class="cls-6" x1="166.44" y1="415.44" x2="200.69" y2="395.69"/>
    <line class="cls-6" x1="173.41" y1="392.59" x2="173.41" y2="399.74"/>
    <line class="cls-6" x1="167.08" y1="403.03" x2="173.41" y2="399.74"/>
    <line class="cls-6" x1="190.25" y1="389.8" x2="183.54" y2="393.73"/>
    <line class="cls-6" x1="177.52" y1="390.05" x2="183.54" y2="393.73"/>
    <line class="cls-6" x1="177" y1="421.28" x2="183.71" y2="417.36"/>
    <line class="cls-6" x1="189.72" y1="421.03" x2="183.71" y2="417.36"/>
    <line class="cls-6" x1="193.98" y1="418.54" x2="194.04" y2="411.43"/>
    <line class="cls-6" x1="200.08" y1="407.79" x2="194.04" y2="411.43"/>
    <line class="cls-6" x1="167.35" y1="407.77" x2="173.32" y2="411.63"/>
    <line class="cls-6" x1="173.15" y1="418.68" x2="173.32" y2="411.63"/>
    <line class="cls-6" x1="199.93" y1="403.05" x2="194.11" y2="399.61"/>
    <line class="cls-6" x1="193.98" y1="392.59" x2="193.99" y2="399.76"/>
  </g>
  <path class="cls-4" d="m25.19,279.27c-4,17-4,27-2,45"/>
  <path class="cls-4" d="m52.69,290.58c-4,17-4,27-2,45"/>
  <path class="cls-4" d="m81.63,299.79c-.44,18.47-1.57,26.92-2,45"/>
  <path class="cls-4" d="m345.32,282.27c4,17,4,27,2,45"/>
  <path class="cls-4" d="m317.82,293.58c4,17,4,27,2,45"/>
  <path class="cls-4" d="m288.88,302.79c.44,18.47,1.57,26.92,2,45"/>
  <path class="cls-4" d="m115.3,304.75c-.44,18.6-1.58,27.09-2.01,45.3"/>
  <path class="cls-4" d="m147.2,312.74c-.62,16.95-1.3,24.71-1.91,41.3"/>
  <path class="cls-4" d="m185.95,317.05c-.3,15.97-1.41,23.26-1.7,38.89"/>
  <path class="cls-4" d="m225.91,314.42c-.62,16.95-1.3,24.71-1.91,41.3"/>
  <path class="cls-4" d="m260.91,310.42c-.62,16.95-1.3,24.71-1.91,41.3"/>
  <path class="cls-5" d="m198.91,116.61c-.35,15.97-1.48,23.25-1.82,38.88"/>
  <path class="cls-5" d="m165.91,116.61c-.35,15.97-1.48,23.25-1.82,38.88"/>
  <path class="cls-5" d="m230.91,121.61c-.44,19.97-1.46,25.02-1.72,36.66"/>
  <path class="cls-5" d="m260.91,125.56c1.28,16.7,2.39,17.52-.72,36.7"/>
  <path class="cls-5" d="m288.92,130.54c3.27,14.72,1.27,24.72.15,38.93"/>
  <path class="cls-5" d="m315.8,136.58c5.4,19.69,3.4,24.69,2.4,38.85"/>
  <path class="cls-5" d="m111.66,121.2c-4.8,16.05-4.43,17.85-4.01,36.49"/>
  <path class="cls-5" d="m84.28,123.97c-6.09,12.29-7.21,25.09-6.09,39.29"/>
  <path class="cls-5" d="m57.41,132.01c-8.22,13.25-10.21,27.09-9.22,41.25"/>
  <path class="cls-5" d="m138.42,117.62c-.44,19.97-1.46,25.02-1.72,36.66"/>
</svg>