<?xml version="1.0" encoding="UTF-8"?>
<svg xmlns="http://www.w3.org/2000/svg" viewBox="0 0 653.3 965.26">
  <defs>
    <style>
      .cls-1 {
        fill: #eb751b;
      }

      .cls-1, .cls-2, .cls-3, .cls-4, .cls-5, .cls-6 {
        stroke-miterlimit: 10;
      }

      .cls-1, .cls-3, .cls-4, .cls-5, .cls-6 {
        stroke: #4e4d4d;
      }

      .cls-1, .cls-3, .cls-6 {
        stroke-width: 11px;
      }

      .cls-7 {
        fill: #cdcccc;
      }

      .cls-7, .cls-8, .cls-9, .cls-10 {
        stroke-width: 0px;
      }

      .cls-2 {
        fill: #010101;
        stroke: #010101;
        stroke-width: 7.84px;
      }

      .cls-8, .cls-3 {
        fill: #fff;
      }

      .cls-9 {
        fill: #ffcc07;
      }

      .cls-4 {
        fill: #82368c;
      }

      .cls-4, .cls-5 {
        stroke-width: 10px;
      }

      .cls-5 {
        fill: #ffcc0a;
      }

      .cls-10 {
        fill: #4e4d4d;
      }

      .cls-6 {
        fill: none;
      }
    </style>
  </defs>
  <g id="Layer_6" data-name="Layer 6">
    <g>
      <g>
        <path class="cls-8" d="m640.59,47.29c-13.36-18.36-40.51-32.19-69.34-38.37-28.82-6.18-59.04-5.34-86.45-.57-67.21,11.69-110.88,84.45-131.44,127.49l-2.33,2.3.38.51c30.05-19.83,76.04-45.42,114.14-42.48,28.71,2.22,56.87,9.71,85.5,13.46,28.63,3.75,60.11,3.12,79.92-8.96,20.28-12.37,22.96-35.02,9.61-53.38Z"/>
        <path class="cls-10" d="m644.48,45.02c-7.46-10.18-17.54-18.08-28.47-24.25-12.07-6.82-25.27-11.76-38.72-15.07-30.4-7.48-62.45-7.06-93.16-1.78-22.61,3.89-43.16,14.8-60.87,29.11-17.33,14-31.88,31.24-44.5,49.51-10.89,15.76-20.35,32.5-28.66,49.76-.1.21-.23.42-.3.63-.25.69-.45.17.38-.26-.22.11-.46.46-.64.64l-1.67,1.64c-1.29,1.27-1.87,3.89-.7,5.45l.38.51c1.39,1.86,3.94,3.08,6.16,1.61,9.08-5.99,18.36-11.68,27.88-16.94,5.09-2.81,10.26-5.49,15.51-8.01,2.73-1.31,5.48-2.58,8.25-3.79.66-.29,1.32-.57,1.97-.85.13-.06,1.06-.45.47-.2.29-.12.59-.25.88-.37,1.47-.61,2.94-1.2,4.43-1.78,10.71-4.17,21.81-7.53,33.2-9.21.37-.05.73-.11,1.1-.16-.2.03-.79.1.12-.01.66-.08,1.31-.16,1.97-.23,1.38-.15,2.76-.27,4.14-.36,2.71-.17,5.44-.23,8.15-.16,6.22.18,12.88,1,18.77,1.79,27.58,3.71,54.65,10.84,82.43,13.14,12.07,1,24.29,1.15,36.33-.34,11.29-1.4,22.62-4.03,32.58-9.7,9.32-5.3,16.92-13.6,19.97-24.02s1.23-20.57-3.35-29.72c-1.16-2.31-2.52-4.51-4.03-6.6-1.42-1.97-3.92-2.92-6.16-1.61-1.94,1.14-3.04,4.17-1.61,6.16,1.51,2.1,2.87,4.29,4.03,6.6.27.54.53,1.09.78,1.64.36.79.09.19.02.03.13.31.25.61.37.92.45,1.15.84,2.33,1.18,3.52.31,1.1.58,2.22.79,3.35.09.5.17.99.25,1.49-.15-1-.02-.15,0,.11.03.37.07.74.1,1.11.17,2.27.12,4.55-.17,6.8.13-1-.05.24-.12.61-.1.54-.21,1.08-.34,1.61-.27,1.13-.6,2.24-.99,3.34-.1.29-.21.58-.32.86-.05.13-.35.86-.12.32.27-.64-.22.48-.22.48-.1.23-.21.45-.32.67-.53,1.07-1.11,2.11-1.75,3.12-.31.48-.63.96-.96,1.43-.15.21-.3.42-.45.63-.72,1.01.35-.42-.13.17-.79.98-1.63,1.92-2.51,2.82s-1.78,1.72-2.73,2.51c-.2.17-1.35,1.07-.75.62-.58.44-1.17.86-1.77,1.26-2.17,1.47-4.47,2.76-6.84,3.89-.5.24-.99.47-1.5.69.06-.02-1.19.51-.61.27.49-.2-.32.13-.43.17-1.25.5-2.51.97-3.78,1.4-5.23,1.77-10.64,2.97-16.09,3.79-.13.02-1.86.27-1.12.17-.78.1-1.56.2-2.34.28-1.42.16-2.85.3-4.27.41-3.07.25-6.15.4-9.23.47-6.06.14-12.12-.04-18.17-.46-26.54-1.83-52.65-8.57-79.12-12.48-12.22-1.81-24.6-3.5-36.96-2.26-11.51,1.15-22.77,4-33.66,7.85-21.6,7.64-41.9,18.71-61.18,31-2.06,1.31-4.11,2.64-6.15,3.99l6.16,1.61-.38-.51-.7,5.45c1.25-1.24,2.63-2.36,3.4-3.97.88-1.83,1.77-3.65,2.67-5.46,1.97-3.96,4.01-7.89,6.11-11.79,4.63-8.58,9.57-16.99,14.87-25.17,2.87-4.43,5.85-8.8,8.94-13.08,1.56-2.16,3.15-4.3,4.77-6.41.16-.2.31-.4.47-.61-.63.81.16-.2.24-.3.39-.5.79-1.01,1.19-1.51.88-1.11,1.76-2.21,2.66-3.3,6.89-8.43,14.33-16.43,22.4-23.74,2.02-1.83,4.08-3.62,6.18-5.36,1-.83,2.01-1.64,3.03-2.45.2-.16.41-.32.61-.48,1.01-.8-.71.54.32-.25.62-.47,1.24-.94,1.86-1.41,4.36-3.24,8.88-6.26,13.56-9s9.53-5.17,14.5-7.33c-.8.35-.16.07,0,0,.36-.15.72-.3,1.08-.44.6-.24,1.2-.48,1.81-.71,1.33-.51,2.67-1,4.02-1.46,2.59-.89,5.21-1.69,7.85-2.39,6.11-1.62,12.36-2.63,18.61-3.48-.54.07.54-.07.64-.09.44-.06.88-.11,1.32-.17.88-.11,1.76-.22,2.65-.32,1.95-.22,3.91-.43,5.86-.6,3.77-.34,7.54-.61,11.32-.78,15.16-.69,30.65,0,45.31,2.52,7.1,1.22,14.13,2.84,21.03,4.94,3.28,1,6.53,2.1,9.74,3.31,1.51.57,3.01,1.17,4.5,1.78s-.74-.33.7.29c.29.13.59.25.88.38.87.38,1.74.77,2.61,1.17,5.84,2.69,11.51,5.79,16.85,9.37,1.21.81,2.41,1.65,3.59,2.52.35.26.69.52,1.04.78.71.53.26.2.11.08.67.52,1.33,1.06,1.99,1.6,2.22,1.84,4.36,3.8,6.36,5.88.92.95,1.81,1.94,2.68,2.94.47.54.92,1.1,1.37,1.66.14.17.66.87.13.16.23.31.46.61.69.92,1.43,1.96,3.91,2.93,6.16,1.61,1.93-1.13,3.06-4.19,1.61-6.16Z"/>
      </g>
      <path class="cls-7" d="m636.79,48.33c-1.34,6.49-5.18,12.7-11.77,17.88-16.56,13-45.88,17.46-73.25,17.74-27.37.28-54.89-2.76-82.09-1.13-12.44.75-25.21,4.58-37.62,10.12,3.09,3.18,5.62,6.79,7.48,10.7,11.76-3.69,23.61-5.85,34.93-5.53,27.31.78,54.48,6.23,81.84,8.37,27.35,2.14,57.08.3,74.94-11.14,18.14-11.63,19.16-31.45,5.54-47.02Z"/>
      <path class="cls-10" d="m644.48,45.02c-7.46-10.18-17.54-18.08-28.47-24.25-12.07-6.82-25.27-11.76-38.72-15.07-30.4-7.48-62.45-7.06-93.16-1.78-22.61,3.89-43.16,14.8-60.87,29.11-17.33,14-31.88,31.24-44.5,49.51-10.89,15.76-20.35,32.5-28.66,49.76-.1.21-.23.42-.3.63-.25.69-.45.17.38-.26-.22.11-.46.46-.64.64l-1.67,1.64c-1.29,1.27-1.87,3.89-.7,5.45l.38.51c1.39,1.86,3.94,3.08,6.16,1.61,9.08-5.99,18.36-11.68,27.88-16.94,5.09-2.81,10.26-5.49,15.51-8.01,2.73-1.31,5.48-2.58,8.25-3.79.66-.29,1.32-.57,1.97-.85.13-.06,1.06-.45.47-.2.29-.12.59-.25.88-.37,1.47-.61,2.94-1.2,4.43-1.78,10.71-4.17,21.81-7.53,33.2-9.21.37-.05.73-.11,1.1-.16-.2.03-.79.1.12-.01.66-.08,1.31-.16,1.97-.23,1.38-.15,2.76-.27,4.14-.36,2.71-.17,5.44-.23,8.15-.16,6.22.18,12.88,1,18.77,1.79,27.58,3.71,54.65,10.84,82.43,13.14,12.07,1,24.29,1.15,36.33-.34,11.29-1.4,22.62-4.03,32.58-9.7,9.32-5.3,16.92-13.6,19.97-24.02s1.23-20.57-3.35-29.72c-1.16-2.31-2.52-4.51-4.03-6.6-1.42-1.97-3.92-2.92-6.16-1.61-1.94,1.14-3.04,4.17-1.61,6.16,1.51,2.1,2.87,4.29,4.03,6.6.27.54.53,1.09.78,1.64.36.79.09.19.02.03.13.31.25.61.37.92.45,1.15.84,2.33,1.18,3.52.31,1.1.58,2.22.79,3.35.09.5.17.99.25,1.49-.15-1-.02-.15,0,.11.03.37.07.74.1,1.11.17,2.27.12,4.55-.17,6.8.13-1-.05.24-.12.61-.1.54-.21,1.08-.34,1.61-.27,1.13-.6,2.24-.99,3.34-.1.29-.21.58-.32.86-.05.13-.35.86-.12.32.27-.64-.22.48-.22.48-.1.23-.21.45-.32.67-.53,1.07-1.11,2.11-1.75,3.12-.31.48-.63.96-.96,1.43-.15.21-.3.42-.45.63-.72,1.01.35-.42-.13.17-.79.98-1.63,1.92-2.51,2.82s-1.78,1.72-2.73,2.51c-.2.17-1.35,1.07-.75.62-.58.44-1.17.86-1.77,1.26-2.17,1.47-4.47,2.76-6.84,3.89-.5.24-.99.47-1.5.69.06-.02-1.19.51-.61.27.49-.2-.32.13-.43.17-1.25.5-2.51.97-3.78,1.4-5.23,1.77-10.64,2.97-16.09,3.79-.13.02-1.86.27-1.12.17-.78.1-1.56.2-2.34.28-1.42.16-2.85.3-4.27.41-3.07.25-6.15.4-9.23.47-6.06.14-12.12-.04-18.17-.46-26.54-1.83-52.65-8.57-79.12-12.48-12.22-1.81-24.6-3.5-36.96-2.26-11.51,1.15-22.77,4-33.66,7.85-21.6,7.64-41.9,18.71-61.18,31-2.06,1.31-4.11,2.64-6.15,3.99l6.16,1.61-.38-.51-.7,5.45c1.25-1.24,2.63-2.36,3.4-3.97.88-1.83,1.77-3.65,2.67-5.46,1.97-3.96,4.01-7.89,6.11-11.79,4.63-8.58,9.57-16.99,14.87-25.17,2.87-4.43,5.85-8.8,8.94-13.08,1.56-2.16,3.15-4.3,4.77-6.41.16-.2.31-.4.47-.61-.63.81.16-.2.24-.3.39-.5.79-1.01,1.19-1.51.88-1.11,1.76-2.21,2.66-3.3,6.89-8.43,14.33-16.43,22.4-23.74,2.02-1.83,4.08-3.62,6.18-5.36,1-.83,2.01-1.64,3.03-2.45.2-.16.41-.32.61-.48,1.01-.8-.71.54.32-.25.62-.47,1.24-.94,1.86-1.41,4.36-3.24,8.88-6.26,13.56-9s9.53-5.17,14.5-7.33c-.8.35-.16.07,0,0,.36-.15.72-.3,1.08-.44.6-.24,1.2-.48,1.81-.71,1.33-.51,2.67-1,4.02-1.46,2.59-.89,5.21-1.69,7.85-2.39,6.11-1.62,12.36-2.63,18.61-3.48-.54.07.54-.07.64-.09.44-.06.88-.11,1.32-.17.88-.11,1.76-.22,2.65-.32,1.95-.22,3.91-.43,5.86-.6,3.77-.34,7.54-.61,11.32-.78,15.16-.69,30.65,0,45.31,2.52,7.1,1.22,14.13,2.84,21.03,4.94,3.28,1,6.53,2.1,9.74,3.31,1.51.57,3.01,1.17,4.5,1.78s-.74-.33.7.29c.29.13.59.25.88.38.87.38,1.74.77,2.61,1.17,5.84,2.69,11.51,5.79,16.85,9.37,1.21.81,2.41,1.65,3.59,2.52.35.26.69.52,1.04.78.71.53.26.2.11.08.67.52,1.33,1.06,1.99,1.6,2.22,1.84,4.36,3.8,6.36,5.88.92.95,1.81,1.94,2.68,2.94.47.54.92,1.1,1.37,1.66.14.17.66.87.13.16.23.31.46.61.69.92,1.43,1.96,3.91,2.93,6.16,1.61,1.93-1.13,3.06-4.19,1.61-6.16Z"/>
    </g>
  </g>
  <g id="Lolly">
    <path class="cls-1" d="m433.99,156.78c72.98,75.47,87.46,194.19,38.23,286.85-59.36,112.93-202.69,159.26-318.51,108.58C11.83,488.51-38.84,301.74,58.16,175.79c81.08-107.14,235.99-128.85,339.59-50.8,12.83,9.2,25.01,19.84,36.24,31.79Z"/>
    <path class="cls-5" d="m28.93,226.97c3.4-7.86,15.33-4.35,13.88,4.1-11.84,68.87,4.83,141.63,61.68,189.39,49.22,40.54,117.27,50.67,170.84,11.58,24.57-18.79,37.6-47.68,33.32-78.03-.01-.1-.03-.2-.05-.3-4.37-21.59-20.19-41.7-41.75-38.97-.14.02-.27.04-.4.07-30.37,7.2-67.85,8.55-69.29-30.45-2.9-53.57,50.67-89.76,99.9-91.21,47.78-1.45,92.66,23.16,123.06,62.25,60.81,78.18,49.22,180.97-8.69,256.26-21.97,29.3-56.3,44.19-91.69,52.47-3.7.87-5.75-4.12-2.53-6.13,37.83-23.75,70.8-55.45,88.43-97.01,20.27-49.22,30.4-114.37-13.03-156.36-5.79-5.79-17.37-4.34-15.93,4.34,1.45,83.97-49.22,170.84-138.99,182.42-78.18,11.58-156.36-28.96-194-97-27.48-52.07-46.29-112.82-15.15-166.56.06-.1.11-.2.15-.3.08-.19.16-.38.25-.57Z"/>
    <path class="cls-4" d="m433.99,156.78c62.84,65.34,84.56,166.68,52.71,250.66,18.82-111.48-49.22-234.54-169.39-254.81-110.03-18.82-194,72.39-202.69,176.63,0,8.69-13.03-1.45-17.37-7.24-10.13-15.93-14.48-30.4-15.93-47.78-5.79-75.28,33.3-149.12,98.45-180.97,69.49-31.85,154.91-14.48,217.98,31.72,12.83,9.2,25.01,19.84,36.24,31.79Z"/>
    <ellipse class="cls-6" cx="251.73" cy="328.17" rx="246.23" ry="246.61"/>
    <rect class="cls-3" x="236.96" y="574.65" width="24.61" height="385.11" rx="8.5" ry="8.5"/>
  </g>
  <g id="Layer_8" data-name="Layer 8">
    <rect class="cls-2" x="127.05" y="263.99" width="253.05" height="129.37" rx="15.69" ry="15.69"/>
    <g>
      <circle class="cls-9" cx="220.75" cy="341.02" r="11.13"/>
      <circle class="cls-9" cx="153.95" cy="341.02" r="11.13"/>
      <circle class="cls-9" cx="173.74" cy="318.75" r="11.13"/>
      <circle class="cls-9" cx="200.95" cy="318.75" r="11.13"/>
      <circle class="cls-9" cx="354.35" cy="341.02" r="11.13"/>
      <circle class="cls-9" cx="287.55" cy="341.02" r="11.13"/>
      <circle class="cls-9" cx="307.34" cy="318.75" r="11.13"/>
      <circle class="cls-9" cx="334.56" cy="318.75" r="11.13"/>
    </g>
  </g>
</svg>