<?xml version="1.0" encoding="UTF-8"?>
<svg xmlns="http://www.w3.org/2000/svg" viewBox="0 0 740.29 576.76">
  <defs>
    <style>
      .cls-1, .cls-2, .cls-3, .cls-4, .cls-5, .cls-6 {
        stroke-width: 0px;
      }

      .cls-1, .cls-7 {
        fill: none;
      }

      .cls-2, .cls-8 {
        fill: #e99719;
      }

      .cls-3 {
        fill: #cdcccc;
      }

      .cls-9 {
        fill: #010101;
        stroke: #010101;
        stroke-width: 7.84px;
      }

      .cls-9, .cls-10, .cls-11, .cls-8, .cls-12, .cls-7 {
        stroke-miterlimit: 10;
      }

      .cls-4, .cls-12 {
        fill: #fff;
      }

      .cls-10, .cls-11 {
        fill: #ea751b;
      }

      .cls-10, .cls-11, .cls-8, .cls-12, .cls-7 {
        stroke: #4e4d4d;
      }

      .cls-10, .cls-8 {
        stroke-width: 5px;
      }

      .cls-5 {
        fill: #ffcc07;
      }

      .cls-6 {
        fill: #4e4d4d;
      }

      .cls-11 {
        stroke-width: 3px;
      }

      .cls-12 {
        stroke-width: 10px;
      }

      .cls-7 {
        stroke-width: 11px;
      }
    </style>
  </defs>
  <g id="Layer_10" data-name="Layer 10">
    <path class="cls-5" d="m268.47,231.88c-47.49,0-96.26,7.67-139.8,27.25-22.39,10.07-43.61,23.48-58.35,41.67,0,0-54.04,87.22-58.49,111-.69,3.69-9.84,24.06-5.5,25.5,4.23,1.4,14.99-20.02,21-32,11.21-22.33,18.47-41.6,23-55l.09-.22c-1.54,19.17.24,38.65.24,57.89v151.31c0,6.35,5.15,11.5,11.5,11.5h52.68c6.35,0,11.5-5.15,11.5-11.5v-110.09c56.08,8.81,164.08,11.43,203.52,11.43,25.11,0,46.54-2.07,64.75-5.92v104.58c0,6.35,5.15,11.5,11.5,11.5h52.68c6.35,0,11.5-5.15,11.5-11.5v-149.38c11.38-17.27,15.98-38.1,15.98-61.13,0-64.56-97.52-116.9-217.81-116.9Z"/>
  </g>
  <g id="toes">
    <path class="cls-11" d="m420.52,540.62h0c6.87,0,12.45,5.58,12.45,12.45v14.15c0,1.66-1.35,3-3,3h-18.88c-1.66,0-3-1.35-3-3v-14.15c0-6.87,5.58-12.45,12.45-12.45Z"/>
    <path class="cls-11" d="m446.08,540.62h0c6.87,0,12.45,5.58,12.45,12.45v14.15c0,1.66-1.35,3-3,3h-18.88c-1.66,0-3-1.35-3-3v-14.15c0-6.87,5.58-12.45,12.45-12.45Z"/>
    <g>
      <path class="cls-2" d="m471.88,315.15c.51,3.06.83,6.17.94,9.3.87,24.77-3.1,47.33-14.18,66.29l5.61,176.64c0,.2,0,.39,0,.59,1.25-1.82,1.99-4.01,1.99-6.37v-149.38c11.73-17.27,16.48-38.1,16.48-61.13,0-12.54-3.81-24.61-10.83-35.94Z"/>
      <path class="cls-2" d="m400.83,420.89c-18.26,4.76-48.97,14.84-74.34,15.69-39.84,1.33-156.84,12.91-213.81,5.33l7.61,116.08c.08,2.37-.48,4.6-1.5,6.52,2-2.07,3.24-4.87,3.24-7.96l4.25-110.09c56.68,8.81,165.84,13.11,205.7,13.11,23.01,0,50.75-6.91,68-10.09l.85-28.59Z"/>
    </g>
    <path class="cls-11" d="m75.14,538.8h0c6.87,0,12.45,5.58,12.45,12.45v14.15c0,1.66-1.35,3-3,3h-18.88c-1.66,0-3-1.35-3-3v-14.15c0-6.87,5.58-12.45,12.45-12.45Z"/>
    <path class="cls-11" d="m100.71,538.8h0c6.87,0,12.45,5.58,12.45,12.45v14.15c0,1.66-1.35,3-3,3h-18.88c-1.66,0-3-1.35-3-3v-14.15c0-6.87,5.58-12.45,12.45-12.45Z"/>
  </g>
  <g id="Layer_6" data-name="Layer 6">
    <g>
      <g>
        <path class="cls-4" d="m730.13,34.04c-9.23-12.68-27.98-22.23-47.89-26.51-19.91-4.27-40.78-3.69-59.71-.4-46.42,8.08-76.58,58.33-90.79,88.06l-1.61,1.59.26.35c20.76-13.7,52.52-31.37,78.84-29.34,19.83,1.53,39.28,6.71,59.06,9.3,19.78,2.59,41.52,2.16,55.2-6.19,14.01-8.55,15.86-24.19,6.64-36.87Z"/>
        <path class="cls-6" d="m734.01,31.77c-11.02-15.02-29.58-23.46-47.23-27.8-21.23-5.22-43.56-4.93-65.01-1.24-15.86,2.72-30.23,10.39-42.66,20.41-12.07,9.74-22.2,21.76-30.99,34.48-7.54,10.91-14.09,22.5-19.84,34.44-.06.12-.18.3-.21.44-.16.63.3-.34.47-.45-.17.11-.31.3-.45.44l-1.14,1.13c-1.29,1.27-1.87,3.89-.7,5.45l.26.35c1.39,1.86,3.94,3.07,6.16,1.61,6.25-4.12,12.64-8.05,19.2-11.67,3.56-1.96,7.16-3.83,10.82-5.59,1.85-.89,3.72-1.75,5.61-2.58.44-.19.88-.38,1.32-.57.11-.05.9-.38.41-.17-.45.19.18-.07.22-.09,1.01-.42,2.03-.83,3.05-1.23,7.43-2.89,15.13-5.22,23.02-6.39.19-.03.38-.05.57-.08.69-.1-.75.08-.06.01.44-.05.88-.11,1.32-.15,1-.11,2-.19,3-.25,1.84-.11,3.69-.15,5.54-.1,2.14.06,4.28.27,6.4.48,1.13.11,2.25.24,3.37.37.56.07,1.12.13,1.69.21.32.04.64.08.96.12.89.12-1.06-.15.49.06,19.07,2.64,37.81,7.51,57.03,9.08,8.44.69,16.99.78,25.41-.3,7.98-1.03,15.95-2.9,22.97-6.96,6.64-3.83,12.01-9.81,14.21-17.24,2.14-7.22.91-14.93-2.39-21.59-.81-1.63-1.76-3.17-2.82-4.64-1.37-1.91-3.98-3.02-6.16-1.61-1.89,1.22-3.08,4.11-1.61,6.16,1.06,1.47,2.02,3.01,2.82,4.64.18.37.34.74.52,1.11.22.46-.1-.25-.11-.28.08.21.17.42.25.64.3.79.57,1.59.8,2.41.21.74.39,1.5.53,2.26.09.47.3,1.15.07.26.11.4.1.87.13,1.29.05.75.08,1.49.06,2.24,0,.42-.03.85-.06,1.27-.01.16-.03.32-.04.47,0,.11-.02.21-.03.32-.04.35-.02.21.06-.41.13.56-.29,1.61-.43,2.17-.19.77-.43,1.53-.7,2.28-.06.15-.11.3-.17.45-.29.78.07-.1.08-.19-.04.33-.33.72-.48,1.02-.37.73-.77,1.44-1.22,2.12-.24.37-.5.73-.75,1.1-.49.7.43-.5-.12.16-.6.71-1.21,1.39-1.87,2.04-.6.59-1.23,1.13-1.87,1.67-.06.05-.54.43-.12.1.45-.35-.18.13-.29.21-.41.3-.83.58-1.25.86-1.44.94-2.95,1.76-4.51,2.49-.43.2-.87.39-1.3.58.73-.32.09-.04-.26.09-.91.36-1.84.69-2.77.99-3.57,1.16-7.24,1.93-10.95,2.49-.88.13-.18.03,0,0-.27.04-.54.07-.81.1-.47.06-.95.11-1.42.16-1.03.11-2.06.2-3.09.28-2.03.15-4.06.24-6.1.27-4.23.08-8.47-.06-12.69-.37-2.08-.15-4.16-.34-6.24-.57-1.07-.12-2.13-.25-3.2-.38-.17-.02-1.25-.17-.67-.09-.72-.1-1.45-.2-2.17-.31-4.74-.69-9.45-1.51-14.16-2.37-9.33-1.7-18.64-3.56-28.03-4.92-8.46-1.22-16.99-2.36-25.53-1.45-8.01.85-15.83,2.81-23.41,5.51-14.94,5.32-29.01,12.96-42.35,21.47-1.43.91-2.85,1.83-4.26,2.77l6.16,1.61-.26-.35-.7,5.45c.93-.92,1.92-1.76,2.52-2.94.65-1.26,1.23-2.55,1.86-3.81,1.32-2.65,2.68-5.29,4.09-7.89,3.2-5.95,6.62-11.78,10.29-17.45,1.95-3.02,3.97-5.99,6.07-8.9,1.09-1.51,2.19-3.01,3.32-4.49.13-.18.27-.35.4-.52-.08.11-.59.76-.1.12.27-.35.54-.7.82-1.04.58-.74,1.17-1.48,1.77-2.21,4.73-5.82,9.84-11.34,15.38-16.4,1.41-1.29,2.85-2.54,4.31-3.76.69-.57,1.38-1.14,2.09-1.7.18-.14.35-.28.53-.42.12-.09.69-.54.21-.16s.09-.07.21-.16c.22-.17.45-.34.67-.51,3.04-2.28,6.19-4.4,9.46-6.33s6.56-3.56,9.98-5.08c.58-.26-.74.3-.15.06.21-.08.41-.17.62-.26.41-.17.83-.33,1.25-.5.89-.34,1.78-.67,2.68-.99,1.81-.63,3.63-1.19,5.48-1.69,4.17-1.12,8.44-1.82,12.71-2.42.1-.01,1.04-.14.54-.07s.44-.05.54-.07c.61-.08,1.22-.15,1.83-.22,1.3-.15,2.6-.29,3.91-.41,2.63-.25,5.27-.44,7.91-.56,5.27-.25,10.54-.26,15.81,0,2.69.14,5.38.35,8.06.63,2.85.3,4.19.49,7.06.97,4.99.84,9.92,1.97,14.76,3.43,2.23.68,4.45,1.42,6.63,2.24,1.05.39,2.09.8,3.12,1.22.11.04.91.38.42.17s.31.14.42.18c.57.25,1.13.5,1.7.76,4.1,1.88,8.08,4.04,11.83,6.55.84.56,1.67,1.14,2.49,1.74.22.16,1.33,1.02.58.42.43.34.87.69,1.29,1.04,1.56,1.29,3.06,2.66,4.46,4.12.64.66,1.26,1.34,1.85,2.04.29.34.58.69.86,1.04.09.12.53.7.16.2-.42-.58.22.31.25.34,1.39,1.89,3.97,3.03,6.16,1.61,1.87-1.21,3.1-4.13,1.61-6.16Z"/>
      </g>
      <path class="cls-3" d="m727.5,34.76c-.92,4.49-3.58,8.77-8.13,12.35-11.44,8.98-31.69,12.06-50.59,12.25-18.9.2-37.92-1.9-56.7-.78-8.59.52-17.41,3.16-25.99,6.99,2.13,2.19,3.88,4.69,5.17,7.39,8.12-2.55,16.31-4.04,24.13-3.82,18.87.54,37.63,4.31,56.52,5.78,18.89,1.48,39.43.21,51.76-7.7,12.53-8.03,13.24-21.72,3.83-32.48Z"/>
      <path class="cls-6" d="m734.01,31.77c-11.02-15.02-29.58-23.46-47.23-27.8-21.23-5.22-43.56-4.93-65.01-1.24-15.86,2.72-30.23,10.39-42.66,20.41-12.07,9.74-22.2,21.76-30.99,34.48-7.54,10.91-14.09,22.5-19.84,34.44-.06.12-.18.3-.21.44-.16.63.3-.34.47-.45-.17.11-.31.3-.45.44l-1.14,1.13c-1.29,1.27-1.87,3.89-.7,5.45l.26.35c1.39,1.86,3.94,3.07,6.16,1.61,6.25-4.12,12.64-8.05,19.2-11.67,3.56-1.96,7.16-3.83,10.82-5.59,1.85-.89,3.72-1.75,5.61-2.58.44-.19.88-.38,1.32-.57.11-.05.9-.38.41-.17-.45.19.18-.07.22-.09,1.01-.42,2.03-.83,3.05-1.23,7.43-2.89,15.13-5.22,23.02-6.39.19-.03.38-.05.57-.08.69-.1-.75.08-.06.01.44-.05.88-.11,1.32-.15,1-.11,2-.19,3-.25,1.84-.11,3.69-.15,5.54-.1,2.14.06,4.28.27,6.4.48,1.13.11,2.25.24,3.37.37.56.07,1.12.13,1.69.21.32.04.64.08.96.12.89.12-1.06-.15.49.06,19.07,2.64,37.81,7.51,57.03,9.08,8.44.69,16.99.78,25.41-.3,7.98-1.03,15.95-2.9,22.97-6.96,6.64-3.83,12.01-9.81,14.21-17.24,2.14-7.22.91-14.93-2.39-21.59-.81-1.63-1.76-3.17-2.82-4.64-1.37-1.91-3.98-3.02-6.16-1.61-1.89,1.22-3.08,4.11-1.61,6.16,1.06,1.47,2.02,3.01,2.82,4.64.18.37.34.74.52,1.11.22.46-.1-.25-.11-.28.08.21.17.42.25.64.3.79.57,1.59.8,2.41.21.74.39,1.5.53,2.26.09.47.3,1.15.07.26.11.4.1.87.13,1.29.05.75.08,1.49.06,2.24,0,.42-.03.85-.06,1.27-.01.16-.03.32-.04.47,0,.11-.02.21-.03.32-.04.35-.02.21.06-.41.13.56-.29,1.61-.43,2.17-.19.77-.43,1.53-.7,2.28-.06.15-.11.3-.17.45-.29.78.07-.1.08-.19-.04.33-.33.72-.48,1.02-.37.73-.77,1.44-1.22,2.12-.24.37-.5.73-.75,1.1-.49.7.43-.5-.12.16-.6.71-1.21,1.39-1.87,2.04-.6.59-1.23,1.13-1.87,1.67-.06.05-.54.43-.12.1.45-.35-.18.13-.29.21-.41.3-.83.58-1.25.86-1.44.94-2.95,1.76-4.51,2.49-.43.2-.87.39-1.3.58.73-.32.09-.04-.26.09-.91.36-1.84.69-2.77.99-3.57,1.16-7.24,1.93-10.95,2.49-.88.13-.18.03,0,0-.27.04-.54.07-.81.1-.47.06-.95.11-1.42.16-1.03.11-2.06.2-3.09.28-2.03.15-4.06.24-6.1.27-4.23.08-8.47-.06-12.69-.37-2.08-.15-4.16-.34-6.24-.57-1.07-.12-2.13-.25-3.2-.38-.17-.02-1.25-.17-.67-.09-.72-.1-1.45-.2-2.17-.31-4.74-.69-9.45-1.51-14.16-2.37-9.33-1.7-18.64-3.56-28.03-4.92-8.46-1.22-16.99-2.36-25.53-1.45-8.01.85-15.83,2.81-23.41,5.51-14.94,5.32-29.01,12.96-42.35,21.47-1.43.91-2.85,1.83-4.26,2.77l6.16,1.61-.26-.35-.7,5.45c.93-.92,1.92-1.76,2.52-2.94.65-1.26,1.23-2.55,1.86-3.81,1.32-2.65,2.68-5.29,4.09-7.89,3.2-5.95,6.62-11.78,10.29-17.45,1.95-3.02,3.97-5.99,6.07-8.9,1.09-1.51,2.19-3.01,3.32-4.49.13-.18.27-.35.4-.52-.08.11-.59.76-.1.12.27-.35.54-.7.82-1.04.58-.74,1.17-1.48,1.77-2.21,4.73-5.82,9.84-11.34,15.38-16.4,1.41-1.29,2.85-2.54,4.31-3.76.69-.57,1.38-1.14,2.09-1.7.18-.14.35-.28.53-.42.12-.09.69-.54.21-.16s.09-.07.21-.16c.22-.17.45-.34.67-.51,3.04-2.28,6.19-4.4,9.46-6.33s6.56-3.56,9.98-5.08c.58-.26-.74.3-.15.06.21-.08.41-.17.62-.26.41-.17.83-.33,1.25-.5.89-.34,1.78-.67,2.68-.99,1.81-.63,3.63-1.19,5.48-1.69,4.17-1.12,8.44-1.82,12.71-2.42.1-.01,1.04-.14.54-.07s.44-.05.54-.07c.61-.08,1.22-.15,1.83-.22,1.3-.15,2.6-.29,3.91-.41,2.63-.25,5.27-.44,7.91-.56,5.27-.25,10.54-.26,15.81,0,2.69.14,5.38.35,8.06.63,2.85.3,4.19.49,7.06.97,4.99.84,9.92,1.97,14.76,3.43,2.23.68,4.45,1.42,6.63,2.24,1.05.39,2.09.8,3.12,1.22.11.04.91.38.42.17s.31.14.42.18c.57.25,1.13.5,1.7.76,4.1,1.88,8.08,4.04,11.83,6.55.84.56,1.67,1.14,2.49,1.74.22.16,1.33,1.02.58.42.43.34.87.69,1.29,1.04,1.56,1.29,3.06,2.66,4.46,4.12.64.66,1.26,1.34,1.85,2.04.29.34.58.69.86,1.04.09.12.53.7.16.2-.42-.58.22.31.25.34,1.39,1.89,3.97,3.03,6.16,1.61,1.87-1.21,3.1-4.13,1.61-6.16Z"/>
    </g>
    <path class="cls-7" d="m268.47,231.88c-70.73,1.43-153.5,15.06-201.37,71.97,1.58-4.38-56.77,80.45-60.77,133.45,16.53-11,35.18-51.43,41-67-1.49,66.86,4.49,120.73,3.33,188.98,0,6.35,5.15,11.5,11.51,11.5h52.68c6.35,0,11.5-5.15,11.5-11.5v-110.09c89.81,9.75,193.74,17.7,268.27,5.51,5.36,129.51-25.59,116.29,64.18,116.08,6.35,0,11.5-5.15,11.5-11.5v-149.38c59.52-107.14-52.44-175.38-201.83-178.03Z"/>
  </g>
  <g id="Layer_5" data-name="Layer 5">
    <line class="cls-1" x1="385.77" y1="185.32" x2="353.75" y2="195.72"/>
    <g>
      <path class="cls-8" d="m620.38,289.11c-12.42,32.88-34.72,60.9-63.27,80.43l-96.06-132.2,159.32,51.77Z"/>
      <path class="cls-10" d="m557.11,369.54c-27.29,18.69-60.29,29.61-95.85,29.61h-.21v-161.81l96.06,132.2Z"/>
      <path class="cls-8" d="m461.05,237.34l-158.94,51.64c-7.06-18.71-10.92-38.99-10.92-60.17,0-15.48,2.06-30.48,5.93-44.73l163.93,53.26Z"/>
      <path class="cls-10" d="m302.11,288.99l158.94-51.64-95.91,132.02c-28.45-19.55-50.66-47.55-63.03-80.37Z"/>
      <path class="cls-8" d="m461.05,58.48v178.87l-104-143.15c28.74-22.34,64.81-35.67,104-35.72Z"/>
      <path class="cls-10" d="m357.05,94.19l104,143.15-163.93-53.26c9.8-36.16,31.19-67.54,59.93-89.89Z"/>
      <path class="cls-8" d="m625.38,183.95l-164.33,53.39,104.15-143.36c28.85,22.34,50.32,53.75,60.17,89.97Z"/>
      <path class="cls-10" d="m565.21,93.98l-104.15,143.36V58.48h.21c39.15,0,75.21,13.25,103.94,35.51Z"/>
      <path class="cls-8" d="m461.05,237.34v161.81c-35.6-.04-68.62-11.03-95.91-29.8l95.91-132.02Z"/>
      <path class="cls-10" d="m631.34,228.81c0,21.23-3.88,41.55-10.97,60.3l-159.32-51.77,164.33-53.39c3.89,14.3,5.96,29.34,5.96,44.87Z"/>
    </g>
    <line class="cls-1" x1="385.77" y1="312.91" x2="348.74" y2="300.89"/>
  </g>
  <g id="Layer_9" data-name="Layer 9">
    <g>
      <ellipse class="cls-12" cx="462.7" cy="230.45" rx="126.11" ry="99.82"/>
      <rect class="cls-9" x="375.41" y="183.72" width="174.78" height="89.36" rx="15.69" ry="15.69"/>
      <g>
        <circle class="cls-5" cx="440.13" cy="236.93" r="7.69"/>
        <circle class="cls-5" cx="393.99" cy="236.93" r="7.69"/>
        <circle class="cls-5" cx="407.66" cy="221.55" r="7.69"/>
        <circle class="cls-5" cx="426.46" cy="221.55" r="7.69"/>
        <circle class="cls-5" cx="532.42" cy="236.93" r="7.69"/>
        <circle class="cls-5" cx="486.27" cy="236.93" r="7.69"/>
        <circle class="cls-5" cx="499.95" cy="221.55" r="7.69"/>
        <circle class="cls-5" cx="518.74" cy="221.55" r="7.69"/>
      </g>
      <ellipse class="cls-7" cx="461.53" cy="228.05" rx="170.07" ry="170.34"/>
    </g>
  </g>
</svg>