<?xml version="1.0" encoding="utf-8"?>
<!-- Generator: Adobe Illustrator 27.8.1, SVG Export Plug-In . SVG Version: 6.00 Build 0)  -->
<svg version="1.1" id="Laag_1" xmlns="http://www.w3.org/2000/svg" xmlns:xlink="http://www.w3.org/1999/xlink" x="0px" y="0px"
	 viewBox="0 0 640 640" style="enable-background:new 0 0 640 640;" xml:space="preserve">
<style type="text/css">
	.st0{fill:#FFFFFF;}
	.st1{fill:#4D4D4D;}
	.st2{fill:#FFFFFF;stroke:#4D4D4D;stroke-width:19.6069;stroke-miterlimit:10;}
	.st3{fill:#CCCCCC;}
	.st4{stroke:#000000;stroke-width:7.8427;stroke-miterlimit:10;}
	.st5{fill:none;stroke:#4D4D4D;stroke-width:19.6069;stroke-miterlimit:10;}
	.st6{fill:#FFCC00;}
	.st7{fill:#C1272D;}
	.st8{fill:#A2272D;}
	.st9{fill:#006837;}
	.st10{fill:#005337;}
	.st11{fill:none;stroke:#B3B3B3;stroke-width:3;stroke-miterlimit:10;}
	.st12{fill:none;stroke:#E6E6E6;stroke-width:3;stroke-miterlimit:10;}
	.st13{fill:none;stroke:#A2272D;stroke-width:3;stroke-linecap:round;stroke-miterlimit:10;}
	.st14{fill:none;stroke:#005337;stroke-width:3;stroke-linecap:round;stroke-miterlimit:10;}
</style>
<g>
	<path class="st0" d="M369.21,151.65c-28.9-10-61.39-8.57-89.85,1.23s-53.06,27.55-72.79,48.75
		c-48.27,51.9-67.34,126.09-49.82,193.83c10.52,40.68,34.31,79.48,70.45,105.09s85.13,36.6,127.75,24.22
		c31.91-9.26,58.24-30.54,77.85-55.43c38.3-48.61,52.97-112.81,39.45-172.65S423.7,170.68,369.55,151.97"/>
	<g>
		<path class="st1" d="M372.34,140.31c-41.44-14.21-88.05-6.71-125.69,14.5c-33.9,19.09-61.98,48.99-80.56,83.03
			c-18.23,33.4-27.95,71.49-27.47,109.56c0.47,37.85,11.01,75.73,30.93,107.98c10.06,16.28,22.49,31.33,37.01,43.83
			c15.67,13.5,33.21,23.93,52.5,31.35c18.24,7.02,37.95,10.84,57.49,11.06c10.03,0.11,20.09-0.87,29.94-2.73
			c10.13-1.92,19.8-5.21,29.26-9.27c35.54-15.29,64.2-45.09,83.43-78.17c19.82-34.1,30.31-73.71,29.77-113.15
			c-0.51-37.25-11.26-74.19-27.2-107.67c-14.86-31.21-36.48-61.19-66.42-79.42c-7.12-4.34-14.78-7.84-22.65-10.58
			c-5.82-2.03-13.12,2.3-14.47,8.22c-1.49,6.56,1.99,12.3,8.22,14.47c2.04,0.71,4.06,1.49,6.06,2.32c-0.94-0.4-1.87-0.79-2.81-1.19
			c8.81,3.74,17.03,8.7,24.61,14.54c-0.79-0.61-1.59-1.23-2.38-1.84c10.1,7.84,18.96,17.13,26.79,27.21
			c-0.61-0.79-1.23-1.59-1.84-2.38c12.2,15.8,21.87,33.43,29.63,51.79c-0.4-0.94-0.79-1.87-1.19-2.81
			c8.87,21.12,15.67,43.52,18.76,66.26c-0.14-1.04-0.28-2.08-0.42-3.13c2.4,18.05,2.36,36.34-0.03,54.39
			c0.14-1.04,0.28-2.08,0.42-3.13c-2.5,18.43-7.43,36.47-14.65,53.61c0.4-0.94,0.79-1.87,1.19-2.81
			c-6.94,16.33-15.92,31.74-26.76,45.79c0.61-0.79,1.23-1.59,1.84-2.38c-9.43,12.16-20.21,23.25-32.36,32.7
			c0.79-0.61,1.59-1.23,2.38-1.84c-9.96,7.68-20.76,14.18-32.34,19.11c0.94-0.4,1.87-0.79,2.81-1.19
			c-10.56,4.44-21.62,7.46-32.97,8.99c1.04-0.14,2.08-0.28,3.13-0.42c-12.54,1.64-25.24,1.51-37.77-0.14
			c1.04,0.14,2.08,0.28,3.13,0.42c-14.24-1.93-28.15-5.79-41.39-11.37c0.94,0.4,1.87,0.79,2.81,1.19
			c-12.58-5.36-24.42-12.25-35.26-20.58c0.79,0.61,1.59,1.23,2.38,1.84c-11.65-9.02-22.06-19.52-31.09-31.16
			c0.61,0.79,1.23,1.59,1.84,2.38c-10.06-13.04-18.32-27.37-24.74-42.54c0.4,0.94,0.79,1.87,1.19,2.81
			c-6.85-16.33-11.51-33.5-13.88-51.06c0.14,1.04,0.28,2.08,0.42,3.13c-2.4-18.14-2.34-36.53,0.06-54.66
			c-0.14,1.04-0.28,2.08-0.42,3.13c2.53-18.71,7.54-37.02,14.87-54.42c-0.4,0.94-0.79,1.87-1.19,2.81
			c7.05-16.62,16.18-32.3,27.2-46.62c-0.61,0.79-1.23,1.59-1.84,2.38c10.64-13.74,22.94-26.18,36.68-36.82
			c-0.79,0.61-1.59,1.23-2.38,1.84c11.83-9.1,24.68-16.79,38.42-22.63c-0.94,0.4-1.87,0.79-2.81,1.19
			c12.3-5.17,25.18-8.75,38.4-10.58c-1.04,0.14-2.08,0.28-3.13,0.42c12.41-1.66,24.97-1.77,37.38-0.14
			c-1.04-0.14-2.08-0.28-3.13-0.42c8.19,1.12,16.24,2.98,24.05,5.66c5.83,2,13.12-2.28,14.47-8.22
			C382.05,148.24,378.58,142.45,372.34,140.31L372.34,140.31z"/>
	</g>
</g>
<g>
	<path class="st2" d="M356.74,512.89"/>
	<path class="st2" d="M415.37,547.85"/>
	<ellipse class="st2" cx="376.28" cy="562.16" rx="58.63" ry="34.96"/>
</g>
<g>
	<path class="st3" d="M476.83,296.7c-13.52-59.84-48.57-126.02-102.72-144.73l-0.33-0.32c-16.04-5.55-33.18-7.57-50.12-6.6
		c3.47,0.45,6.93,1,10.38,1.69c29.5,5.86,58.26,20.97,78.18,44.14l0.13,0.45c37.33,43.39,34.29,118.15,15.85,176.6
		c-18.44,58.45-63.4,106.49-120.91,129.18c-19.12,7.54-39.93,12.34-60.98,12.57c34.1,18.92,76.08,25.89,113.23,15.1
		c31.91-9.26,58.24-30.54,77.85-55.43C475.68,420.75,490.35,356.54,476.83,296.7z"/>
</g>
<g>
	<g>
		<path class="st1" d="M372.34,140.31c-41.44-14.21-88.05-6.71-125.69,14.5c-33.9,19.09-61.98,48.99-80.56,83.03
			c-18.23,33.4-27.95,71.49-27.47,109.56c0.47,37.85,11.01,75.73,30.93,107.98c10.06,16.28,22.49,31.33,37.01,43.83
			c15.67,13.5,33.21,23.93,52.5,31.35c18.24,7.02,37.95,10.84,57.49,11.06c10.03,0.11,20.09-0.87,29.94-2.73
			c10.13-1.92,19.8-5.21,29.26-9.27c35.54-15.29,64.2-45.09,83.43-78.17c19.82-34.1,30.31-73.71,29.77-113.15
			c-0.51-37.25-11.26-74.19-27.2-107.67c-14.86-31.21-36.48-61.19-66.42-79.42c-7.12-4.34-14.78-7.84-22.65-10.58
			c-5.82-2.03-13.12,2.3-14.47,8.22c-1.49,6.56,1.99,12.3,8.22,14.47c2.04,0.71,4.06,1.49,6.06,2.32c-0.94-0.4-1.87-0.79-2.81-1.19
			c8.81,3.74,17.03,8.7,24.61,14.54c-0.79-0.61-1.59-1.23-2.38-1.84c10.1,7.84,18.96,17.13,26.79,27.21
			c-0.61-0.79-1.23-1.59-1.84-2.38c12.2,15.8,21.87,33.43,29.63,51.79c-0.4-0.94-0.79-1.87-1.19-2.81
			c8.87,21.12,15.67,43.52,18.76,66.26c-0.14-1.04-0.28-2.08-0.42-3.13c2.4,18.05,2.36,36.34-0.03,54.39
			c0.14-1.04,0.28-2.08,0.42-3.13c-2.5,18.43-7.43,36.47-14.65,53.61c0.4-0.94,0.79-1.87,1.19-2.81
			c-6.94,16.33-15.92,31.74-26.76,45.79c0.61-0.79,1.23-1.59,1.84-2.38c-9.43,12.16-20.21,23.25-32.36,32.7
			c0.79-0.61,1.59-1.23,2.38-1.84c-9.96,7.68-20.76,14.18-32.34,19.11c0.94-0.4,1.87-0.79,2.81-1.19
			c-10.56,4.44-21.62,7.46-32.97,8.99c1.04-0.14,2.08-0.28,3.13-0.42c-12.54,1.64-25.24,1.51-37.77-0.14
			c1.04,0.14,2.08,0.28,3.13,0.42c-14.24-1.93-28.15-5.79-41.39-11.37c0.94,0.4,1.87,0.79,2.81,1.19
			c-12.58-5.36-24.42-12.25-35.26-20.58c0.79,0.61,1.59,1.23,2.38,1.84c-11.65-9.02-22.06-19.52-31.09-31.16
			c0.61,0.79,1.23,1.59,1.84,2.38c-10.06-13.04-18.32-27.37-24.74-42.54c0.4,0.94,0.79,1.87,1.19,2.81
			c-6.85-16.33-11.51-33.5-13.88-51.06c0.14,1.04,0.28,2.08,0.42,3.13c-2.4-18.14-2.34-36.53,0.06-54.66
			c-0.14,1.04-0.28,2.08-0.42,3.13c2.53-18.71,7.54-37.02,14.87-54.42c-0.4,0.94-0.79,1.87-1.19,2.81
			c7.05-16.62,16.18-32.3,27.2-46.62c-0.61,0.79-1.23,1.59-1.84,2.38c10.64-13.74,22.94-26.18,36.68-36.82
			c-0.79,0.61-1.59,1.23-2.38,1.84c11.83-9.1,24.68-16.79,38.42-22.63c-0.94,0.4-1.87,0.79-2.81,1.19
			c12.3-5.17,25.18-8.75,38.4-10.58c-1.04,0.14-2.08,0.28-3.13,0.42c12.41-1.66,24.97-1.77,37.38-0.14
			c-1.04-0.14-2.08-0.28-3.13-0.42c8.19,1.12,16.24,2.98,24.05,5.66c5.83,2,13.12-2.28,14.47-8.22
			C382.05,148.24,378.58,142.45,372.34,140.31L372.34,140.31z"/>
	</g>
</g>
<path class="st4" d="M389.79,324.59H237.77c-8.63,0-15.69-7.06-15.69-15.69v-53.68c0-8.63,7.06-15.69,15.69-15.69h152.02
	c8.63,0,15.69,7.06,15.69,15.69v53.68C405.47,317.53,398.41,324.59,389.79,324.59z"/>
<g>
	<path class="st3" d="M422.57,558.64c-3.58-11.62-15.98-26.16-38.08-33.99l-0.13-0.08c-6.54-2.32-13.67-4.11-20.82-5.37
		c1.44,0.37,2.88,0.76,4.3,1.17c12.19,3.51,23.74,8.57,31.29,14.3l0.04,0.09c14.16,10.74,10.26,23.58,0.47,32.27
		c-9.79,8.69-30.36,13.33-55.32,12.47c-8.3-0.29-17.2-1.19-26.06-2.92c13.66,6.18,31.05,10.93,47.03,12.16
		c13.73,1.06,25.54-0.46,34.64-3.17C417.74,580.28,426.15,570.26,422.57,558.64z"/>
</g>
<g>
	<path class="st5" d="M354.12,511.58"/>
	<path class="st5" d="M412.75,546.54"/>
	<ellipse class="st5" cx="373.67" cy="560.86" rx="58.63" ry="34.96"/>
</g>
<g>
	<path class="st2" d="M235.78,512.89"/>
	<path class="st2" d="M294.41,547.85"/>
	<ellipse class="st2" cx="255.32" cy="562.16" rx="58.63" ry="34.96"/>
</g>
<g>
	<path class="st3" d="M301.61,558.64c-3.58-11.62-15.98-26.16-38.08-33.99l-0.13-0.08c-6.54-2.32-13.67-4.11-20.82-5.37
		c1.44,0.37,2.88,0.76,4.3,1.17c12.19,3.51,23.74,8.57,31.29,14.3l0.04,0.09c14.16,10.74,10.26,23.58,0.47,32.27
		c-9.79,8.69-30.36,13.33-55.32,12.47c-8.3-0.29-17.2-1.19-26.06-2.92c13.66,6.18,31.05,10.93,47.03,12.16
		c13.73,1.06,25.54-0.46,34.64-3.17C296.78,580.28,305.19,570.26,301.61,558.64z"/>
</g>
<g>
	<path class="st5" d="M233.16,511.58"/>
	<path class="st5" d="M291.79,546.54"/>
	<ellipse class="st5" cx="252.71" cy="560.86" rx="58.63" ry="34.96"/>
</g>
<g>
	<circle class="st6" cx="291.11" cy="286.49" r="7.56"/>
	<circle class="st6" cx="245.78" cy="286.49" r="7.56"/>
	<circle class="st6" cx="259.21" cy="271.38" r="7.56"/>
	<circle class="st6" cx="277.68" cy="271.38" r="7.56"/>
	<circle class="st6" cx="381.78" cy="286.49" r="7.56"/>
	<circle class="st6" cx="336.44" cy="286.49" r="7.56"/>
	<circle class="st6" cx="349.88" cy="271.38" r="7.56"/>
	<circle class="st6" cx="368.34" cy="271.38" r="7.56"/>
</g>
<path class="st7" d="M402,519c-59.32,14.63-120.78,14.08-184,1c-44.1-36.78-66.43-81.55-76-131l345,6
	C469.84,442.77,444.75,485.97,402,519z"/>
<path class="st8" d="M492.46,393.51c-106.51,51.59-320.27,36-357.08-9.42c-1.19-1.47-2.01-3.21-2.31-5.08
	c-2.63-16.48-2.27-33.48,0.65-50.91c1.16-6.9,8.55-10.82,14.96-8.01c109.74,48.04,226.5,39.54,339.24-1.28
	c6.33-2.29,13.2,1.66,14.35,8.29c3.54,20.39,2.29,40.44-4.27,60.13C497.09,389.98,495.08,392.25,492.46,393.51z"/>
<path class="st7" d="M491.04,390.23c-106.82,52.17-322.81,36.21-358.16-9.79c-0.91-1.18-1.5-2.58-1.73-4.04
	c-2.8-17.2-2.32-34.96,0.92-53.2c1.05-5.92,7.38-9.33,12.88-6.9c110.8,49.15,228.82,40.45,342.69-1.12
	c5.36-1.96,11.25,1.33,12.31,6.94c4.01,21.27,2.84,42.18-4.12,62.7C495.01,387.2,493.29,389.14,491.04,390.23z"/>
<path class="st9" d="M320,187H187.34c-2.19-9.19,2.73-18.52,7.66-26c27-41,108.83-91.34,179-66c36,13,89.11,70.72,79.27,119.1
	L320,187z"/>
<path class="st10" d="M374,95c2.74,0.99,5.58,2.24,8.48,3.73c5.66-6.79,8.08-15.43,5.75-23.69c-4.09-14.49-21.21-22.33-38.25-17.52
	c-15.46,4.37-25.53,17.66-24.2,30.91C341.95,87.45,358.27,89.32,374,95z"/>
<path class="st9" d="M375.92,94.96c4.18,1.83,5.27,3.38,8.08,5.04c6.06-6.44,9.15-15.73,7.32-24.12
	c-3.22-14.7-19.84-23.56-37.13-19.78C338.5,59.54,326.46,73.69,327,87C343.19,87,360,88,375.92,94.96z"/>
<g>
	<path class="st10" d="M371.05,101.03c-12.62-5.29-25.75-8.06-38.97-8.81c2.57,0.99,5.13,2.07,7.66,3.27
		c32.98,15.62,77.57,73.19,69.15,119.44l35.3,9.06C456.46,176.18,406.34,115.84,371.05,101.03z"/>
</g>
<path class="st10" d="M461.52,181.29c-93.74-30.28-186.51-33.1-278.36-9.5c-2.07,0.53-3.93,1.71-5.3,3.35
	c-13.67,16.33-20.79,37.33-19.7,58.12c0.2,3.79,3.76,6.5,7.44,5.61c110.52-26.8,209.65-25.27,301.06,7.92
	c3.71,1.35,7.68-1.18,8.07-5.11c2-20.08,1.61-39.79-7.45-55.66C466.01,183.78,463.97,182.08,461.52,181.29z"/>
<path class="st9" d="M460.45,182.75c-93.85-29.93-186.64-32.41-278.39-8.47c-2.07,0.54-3.92,1.72-5.29,3.37
	c-13.61,16.38-20.66,37.41-19.49,58.19c0.21,3.79,3.78,6.49,7.47,5.58c110.42-27.21,209.56-26.04,301.09,6.81
	c3.72,1.33,7.68-1.2,8.05-5.14c1.92-20.09,1.46-39.79-7.65-55.64C464.95,185.23,462.9,183.54,460.45,182.75z"/>
<g>
	<g>
		<path class="st8" d="M307.59,133.45c-0.64,0.09-1.28,0.18-1.92,0.27c0.67,0.02,1.34,0.07,2,0.1L307.59,133.45z"/>
	</g>
	<g>
		<path class="st8" d="M414,417.12c-8.36,34.48-38.41,57.57-70,73.81c-18.32,9.42-64.06,24.04-85,26.29c51,5.06,77,3.03,118.26-4.68
			c32.68-6.11,55.1-36.31,72.27-63.23c9.18-14.39,19.1-33.33,24.48-49.31L414,417.12z"/>
	</g>
</g>
<g>
	<line class="st11" x1="353.57" y1="499.61" x2="386" y2="494.26"/>
	<line class="st11" x1="359.28" y1="484.3" x2="379.24" y2="507.69"/>
	<line class="st11" x1="364.88" y1="510.56" x2="375.61" y2="481.38"/>
	<line class="st11" x1="356.61" y1="494.53" x2="360.13" y2="498.74"/>
	<line class="st11" x1="358.01" y1="503.19" x2="360.13" y2="498.74"/>
	<line class="st11" x1="365.67" y1="483.21" x2="363.44" y2="489.38"/>
	<line class="st11" x1="357.56" y1="490.24" x2="363.44" y2="489.38"/>
	<line class="st11" x1="374.98" y1="508.7" x2="376.31" y2="504.59"/>
	<line class="st11" x1="380.56" y1="504.04" x2="376.31" y2="504.59"/>
	<line class="st11" x1="383.6" y1="499.81" x2="379.8" y2="495.17"/>
	<line class="st11" x1="381.74" y1="489.56" x2="379.8" y2="495.17"/>
	<line class="st11" x1="362.45" y1="506.77" x2="366.49" y2="506.49"/>
	<line class="st11" x1="368.96" y1="509.34" x2="366.49" y2="506.49"/>
	<line class="st11" x1="379.09" y1="486.56" x2="373.46" y2="487.48"/>
	<line class="st11" x1="369.59" y1="483" x2="373.47" y2="487.64"/>
</g>
<g>
	<line class="st12" x1="240.18" y1="486.28" x2="266.3" y2="506.23"/>
	<line class="st12" x1="255.24" y1="479.94" x2="251.89" y2="510.51"/>
	<line class="st12" x1="239.96" y1="502.03" x2="268.56" y2="489.84"/>
	<line class="st12" x1="245.97" y1="485.01" x2="245.31" y2="490.46"/>
	<line class="st12" x1="240.62" y1="491.97" x2="245.31" y2="490.46"/>
	<line class="st12" x1="260.41" y1="483.85" x2="254.4" y2="486.45"/>
	<line class="st12" x1="249.73" y1="482.77" x2="254.4" y2="486.45"/>
	<line class="st12" x1="248.24" y1="508.1" x2="252.14" y2="506.25"/>
	<line class="st12" x1="255.45" y1="508.97" x2="252.14" y2="506.25"/>
	<line class="st12" x1="260.62" y1="508.28" x2="261.39" y2="502.34"/>
	<line class="st12" x1="266.81" y1="499.91" x2="261.39" y2="502.34"/>
	<line class="st12" x1="241.06" y1="497.65" x2="244.03" y2="500.4"/>
	<line class="st12" x1="243.65" y1="504.16" x2="244.03" y2="500.4"/>
	<line class="st12" x1="267.17" y1="495.92" x2="262.65" y2="492.45"/>
	<line class="st12" x1="263.25" y1="486.56" x2="262.54" y2="492.57"/>
</g>
<g>
	<line class="st12" x1="206.32" y1="430.87" x2="186.25" y2="456.91"/>
	<line class="st12" x1="212.59" y1="445.96" x2="182.04" y2="442.47"/>
	<line class="st12" x1="190.58" y1="430.59" x2="202.64" y2="459.23"/>
	<line class="st12" x1="207.56" y1="436.67" x2="202.12" y2="435.98"/>
	<line class="st12" x1="200.63" y1="431.29" x2="202.12" y2="435.98"/>
	<line class="st12" x1="208.66" y1="451.12" x2="206.08" y2="445.09"/>
	<line class="st12" x1="209.79" y1="440.44" x2="206.08" y2="445.09"/>
	<line class="st12" x1="184.47" y1="438.83" x2="186.3" y2="442.74"/>
	<line class="st12" x1="183.56" y1="446.05" x2="186.3" y2="442.74"/>
	<line class="st12" x1="184.22" y1="451.22" x2="190.17" y2="452.01"/>
	<line class="st12" x1="192.58" y1="457.44" x2="190.17" y2="452.01"/>
	<line class="st12" x1="194.94" y1="431.7" x2="192.18" y2="434.66"/>
	<line class="st12" x1="188.42" y1="434.26" x2="192.18" y2="434.66"/>
	<line class="st12" x1="196.56" y1="457.82" x2="200.05" y2="453.31"/>
	<line class="st12" x1="205.94" y1="453.95" x2="199.93" y2="453.2"/>
</g>
<g>
	<line class="st11" x1="434.61" y1="448.02" x2="401.78" y2="446.36"/>
	<line class="st11" x1="425.78" y1="461.77" x2="411.25" y2="434.67"/>
	<line class="st11" x1="425.88" y1="434.92" x2="409.2" y2="461.15"/>
	<line class="st11" x1="430.56" y1="452.35" x2="428.02" y2="447.48"/>
	<line class="st11" x1="431.03" y1="443.58" x2="428.02" y2="447.48"/>
	<line class="st11" x1="419.31" y1="461.48" x2="422.79" y2="455.93"/>
	<line class="st11" x1="428.72" y1="456.33" x2="422.79" y2="455.93"/>
	<line class="st11" x1="415.62" y1="434.6" x2="413.45" y2="438.33"/>
	<line class="st11" x1="409.18" y1="437.96" x2="413.45" y2="438.33"/>
	<line class="st11" x1="405.3" y1="441.45" x2="408.04" y2="446.79"/>
	<line class="st11" x1="404.94" y1="451.86" x2="408.04" y2="446.79"/>
	<line class="st11" x1="427.45" y1="439.14" x2="423.45" y2="438.56"/>
	<line class="st11" x1="421.63" y1="435.24" x2="423.45" y2="438.56"/>
	<line class="st11" x1="406.9" y1="455.35" x2="412.59" y2="455.65"/>
	<line class="st11" x1="415.43" y1="460.85" x2="412.62" y2="455.49"/>
</g>
<g>
	<line class="st12" x1="295.75" y1="450.92" x2="329.68" y2="470.55"/>
	<line class="st12" x1="312.91" y1="441.17" x2="313.1" y2="480.3"/>
	<line class="st12" x1="295.75" y1="470.67" x2="330" y2="450.92"/>
	<line class="st12" x1="302.71" y1="447.82" x2="302.71" y2="454.97"/>
	<line class="st12" x1="296.38" y1="458.27" x2="302.71" y2="454.97"/>
	<line class="st12" x1="319.55" y1="445.03" x2="312.84" y2="448.96"/>
	<line class="st12" x1="306.83" y1="445.29" x2="312.84" y2="448.96"/>
	<line class="st12" x1="306.3" y1="476.52" x2="313.01" y2="472.59"/>
	<line class="st12" x1="319.03" y1="476.26" x2="313.01" y2="472.59"/>
	<line class="st12" x1="323.29" y1="473.78" x2="323.34" y2="466.66"/>
	<line class="st12" x1="329.38" y1="463.03" x2="323.34" y2="466.66"/>
	<line class="st12" x1="296.65" y1="463.01" x2="302.62" y2="466.87"/>
	<line class="st12" x1="302.46" y1="473.91" x2="302.62" y2="466.87"/>
	<line class="st12" x1="329.24" y1="458.28" x2="323.42" y2="454.85"/>
	<line class="st12" x1="323.29" y1="447.82" x2="323.3" y2="455"/>
</g>
<path class="st13" d="M154.5,334.5c-4,17-4,27-2,45"/>
<path class="st13" d="M181.99,345.81c-4,17-4,27-2,45"/>
<path class="st13" d="M210.94,355.03c-0.44,18.47-1.57,26.92-2,45"/>
<path class="st13" d="M474.62,337.5c4,17,4,27,2,45"/>
<path class="st13" d="M447.13,348.81c4,17,4,27,2,45"/>
<path class="st13" d="M418.19,358.03c0.44,18.47,1.57,26.92,2,45"/>
<path class="st13" d="M244.61,359.98c-0.44,18.6-1.58,27.09-2.01,45.3"/>
<path class="st13" d="M276.51,367.98c-0.62,16.95-1.3,24.71-1.91,41.3"/>
<path class="st13" d="M315.25,372.28c-0.3,15.97-1.41,23.26-1.7,38.89"/>
<path class="st13" d="M355.21,369.65c-0.62,16.95-1.3,24.71-1.91,41.3"/>
<path class="st13" d="M390.21,365.65c-0.62,16.95-1.3,24.71-1.91,41.3"/>
<path class="st14" d="M328.22,171.84c-0.35,15.97-1.48,23.25-1.82,38.88"/>
<path class="st14" d="M295.22,171.84c-0.35,15.97-1.48,23.25-1.82,38.88"/>
<path class="st14" d="M360.22,176.84c-0.44,19.97-1.46,25.02-1.72,36.66"/>
<path class="st14" d="M390.22,180.8c1.28,16.7,2.39,17.52-0.72,36.7"/>
<path class="st14" d="M418.23,185.78c3.27,14.72,1.27,24.72,0.15,38.93"/>
<path class="st14" d="M445.1,191.81c5.4,19.69,3.4,24.69,2.4,38.85"/>
<path class="st14" d="M240.96,176.43c-4.8,16.05-4.43,17.85-4.01,36.49"/>
<path class="st14" d="M213.59,179.21c-6.09,12.29-7.21,25.09-6.09,39.29"/>
<path class="st14" d="M186.72,187.25c-8.22,13.25-10.21,27.09-9.22,41.25"/>
<path class="st14" d="M267.72,172.86c-0.44,19.97-1.46,25.02-1.72,36.66"/>
</svg>
