<svg xmlns="http://www.w3.org/2000/svg" viewBox="0 0 250 250"><defs><style>.a,.e,.g,.k{fill:#fff;}.a{stroke:#1d1d1b;stroke-width:3.92px;}.a,.g,.i,.j,.k,.l{stroke-miterlimit:10;}.b{fill:#cecccc;}.c{fill:#ffcc03;}.d{fill:#1d1d1b;}.f{fill:#4e4d4d;}.g,.j,.k,.l{stroke:#4e4d4d;}.g,.j{stroke-width:6.53px;}.h{fill:#cdcccc;}.i{fill:#010101;stroke:#010101;stroke-width:2.82px;}.j,.l{fill:none;}.k,.l{stroke-width:7.4px;}</style></defs><rect class="a" x="2.1" y="32" width="138.6" height="174.87" rx="11.1"/><rect class="b" x="40.3" y="41.7" width="84.1" height="8.99"/><polygon class="c" points="29.6 55.6 23.4 52.4 17.2 55.7 18.3 48.8 13.3 44 20.2 42.9 23.2 36.6 26.4 42.9 33.3 43.8 28.3 48.7 29.6 55.6"/><path class="d" d="M24.2,50.7H22.8V44.8l-.9.3V43.6l1.1-.5h1.2Z"/><polygon class="c" points="29.6 79.1 23.4 75.9 17.2 79.2 18.3 72.3 13.3 67.5 20.2 66.4 23.2 60.2 26.4 66.4 33.3 67.3 28.3 72.2 29.6 79.1"/><path class="d" d="M21.4,72.9,24,69.5c.1-.2.2-.3.2-.5a.6.6,0,0,0,.1-.4h0c0-.2,0-.4-.2-.5l-.5-.2a.7.7,0,0,0-.6.3,1.6,1.6,0,0,0-.3.6H21.3a2.1,2.1,0,0,1,.3-1.2l.8-.8a2.1,2.1,0,0,1,1.2-.3,2.7,2.7,0,0,1,1.2.3,1.2,1.2,0,0,1,.7.7,1.5,1.5,0,0,1,.3,1h0a3,3,0,0,1-.2,1,3.1,3.1,0,0,1-.5,1l-1.8,2.3h2.5v1.4H21.4Z"/><polygon class="c" points="29.6 102.6 23.4 99.4 17.2 102.8 18.3 95.9 13.3 91.1 20.2 90 23.2 83.7 26.4 89.9 33.3 90.8 28.3 95.8 29.6 102.6"/><path class="d" d="M22.4,97.5a1.6,1.6,0,0,1-.9-.7,2,2,0,0,1-.3-1.1h1.4c.1.1.1.3.2.4s.1.2.3.2h.3l.7-.2a1.4,1.4,0,0,0,.2-.7h0a1.4,1.4,0,0,0-.2-.7c-.1-.2-.3-.2-.5-.2H23V93.1h.6l.4-.2a1.1,1.1,0,0,0,.2-.6h0a1.4,1.4,0,0,0-.2-.6h-.8l-.3.2a.9.9,0,0,0-.1.5H21.3a2.1,2.1,0,0,1,.4-1.2,2,2,0,0,1,.8-.8l1.1-.2a1.7,1.7,0,0,1,1.5.5,1.7,1.7,0,0,1,.6,1.4v.3a1.6,1.6,0,0,1-.3.9,2.2,2.2,0,0,1-.7.6,1,1,0,0,1,.8.5,2.1,2.1,0,0,1,.3,1.2v.2a3.6,3.6,0,0,1-.2,1.1,1.8,1.8,0,0,1-.8.7,2.6,2.6,0,0,1-2.4,0Z"/><polygon class="c" points="29.6 126.1 23.4 123 17.2 126.3 18.3 119.4 13.3 114.6 20.2 113.5 23.2 107.2 26.4 113.4 33.3 114.3 28.3 119.3 29.6 126.1"/><path class="d" d="M20.6,118.8l2.3-5.1h1.7l-2.3,5h3.4v1.4H20.6Zm3.1-2h1.4v4.4H23.7Z"/><polygon class="c" points="29.6 149.7 23.4 146.5 17.2 149.8 18.3 142.9 13.3 138.1 20.2 137 23.2 130.7 26.4 136.9 33.3 137.9 28.3 142.8 29.6 149.7"/><path class="d" d="M22.6,145a1.8,1.8,0,0,1-.8-.7,2.7,2.7,0,0,1-.3-1.2h1.4a.9.9,0,0,0,.3.6c.1.2.3.2.5.2s.5,0,.6-.2a1.4,1.4,0,0,0,.2-.7v-.6a1.2,1.2,0,0,0-.2-.7.5.5,0,0,0-.5-.3l-.5.2c-.2.1-.3.2-.3.4H21.7v-4.3h4V139H23.1v1.4l.4-.3h.6a1.7,1.7,0,0,1,1,.3,1.6,1.6,0,0,1,.6.8,2.7,2.7,0,0,1,.2,1.3v.6a5.1,5.1,0,0,1-.2,1.3,1.8,1.8,0,0,1-.8.7,2.1,2.1,0,0,1-1.2.3A2,2,0,0,1,22.6,145Z"/><polygon class="c" points="29.6 173.2 23.4 170 17.2 173.3 18.3 166.4 13.3 161.6 20.2 160.5 23.2 154.2 26.4 160.5 33.3 161.4 28.3 166.3 29.6 173.2"/><path class="d" d="M22.3,168.2a1.9,1.9,0,0,1-.7-.8,2.1,2.1,0,0,1-.3-1.2h0c0-.3.1-.6.1-.9l.3-.9c0-.1.1-.1.1-.2h.1l1.5-3.3H25l-1.8,3.8-.4-.2a.8.8,0,0,1,.4-.4h.6a2,2,0,0,1,1.1.3,1.4,1.4,0,0,1,.6.7,2.8,2.8,0,0,1,.3,1.3h0a2.4,2.4,0,0,1-.3,1.2,1.6,1.6,0,0,1-.8.8,2.1,2.1,0,0,1-1.2.3A2.7,2.7,0,0,1,22.3,168.2Zm1.8-1.3a.8.8,0,0,0,.2-.7h0a.8.8,0,0,0-.2-.7l-.6-.2-.5.2a.8.8,0,0,0-.2.7h0a.7.7,0,0,0,.2.6l.5.2Z"/><polygon class="c" points="29.6 196.7 23.4 193.5 17.2 196.9 18.3 190 13.3 185.1 20.2 184.1 23.2 177.8 26.4 184 33.3 184.9 28.3 189.8 29.6 196.7"/><path class="d" d="M25.6,185.9l-1.7,6.6H22.4l1.6-6.2H22.7v1.2H21.3V185h4.3Z"/><rect class="b" x="40.3" y="65.2" width="84.1" height="8.99"/><rect class="b" x="40.3" y="88.7" width="84.1" height="8.99"/><rect class="b" x="40.3" y="112.2" width="84.1" height="8.99"/><rect class="b" x="40.3" y="135.8" width="84.1" height="8.99"/><rect class="b" x="40.3" y="182.8" width="84.1" height="8.99"/><rect class="b" x="50.1" y="162.6" width="84.1" height="8.99" transform="translate(15.7 -7.7) rotate(5.2)"/><path class="e" d="M198.1,86.5c-9.6-3.4-20.4-2.9-29.9.4A59.8,59.8,0,0,0,144,103.1a69.9,69.9,0,0,0-16.6,64.5c3.5,13.6,11.4,26.5,23.5,35s28.3,12.2,42.5,8.1c10.6-3.1,19.4-10.2,25.9-18.5a68.7,68.7,0,0,0,13.2-57.4c-4.5-20-16.2-42-34.2-48.2"/><path class="f" d="M199.2,82.7c-13.8-4.7-29.2-2.3-41.7,4.7a70.7,70.7,0,0,0-27,27.8c-12.2,22.5-12.3,50.8,1.3,72.6a60.1,60.1,0,0,0,29.7,24.8c12.5,4.8,26.5,5,38.8-.3s21.3-14.9,27.7-25.9a73.8,73.8,0,0,0,10-37.6c-.1-12.4-3.7-24.8-9-36s-12.2-20.4-22.1-26.5a43.5,43.5,0,0,0-7.6-3.5,3.9,3.9,0,0,0-2.1,7.5l1,.4c.1,0,1.1.5.3.1l1.5.7a24.3,24.3,0,0,1,3.5,2l2.8,1.9.3.2.7.7a10.7,10.7,0,0,1,1.6,1.4,71.5,71.5,0,0,1,5.3,5.7c.7.9-.5-.6.2.4l.7.8,1,1.5a38.7,38.7,0,0,1,2.4,3.7c1.4,2.4,2.7,4.8,3.9,7.3a13,13,0,0,0,.8,1.7,10.4,10.4,0,0,0,.4,1c.5,1.2-.3-.6.2.5l1.5,3.9a92,92,0,0,1,4.3,16.4c.1.8,0,.3,0,.2s.1.8.2,1.2a15,15,0,0,0,.2,2c.1,1.6.2,3.2.2,4.8a86.9,86.9,0,0,1-.5,8.9v.6a5,5,0,0,1-.2,1.2l-.3,2c-.3,1.6-.7,3.1-1.1,4.7a84.5,84.5,0,0,1-2.8,8.5c-.5,1.2.3-.7-.3.5l-.3.8c-.3.7-.7,1.4-1,2.2s-1.4,2.6-2.2,3.9-1.5,2.6-2.3,3.8l-1.2,1.7a8.6,8.6,0,0,1-.7,1l-.5.7h0a61.7,61.7,0,0,1-6,6.6l-3.1,2.8a30.8,30.8,0,0,1-3.1,2.4,42,42,0,0,1-32.3,6.5,55.4,55.4,0,0,1-8.8-2.6,48.2,48.2,0,0,1-7.5-3.8l-3.5-2.3a31.4,31.4,0,0,1-3.2-2.5,72.3,72.3,0,0,1-6.1-6.3,58.8,58.8,0,0,1-4.9-6.9,70.1,70.1,0,0,1-4-7.7c-.5-1.1.3.7-.2-.5l-.3-.7c-.3-.7-.5-1.4-.8-2.2s-.9-2.7-1.3-4c-.8-2.9-1.4-5.9-1.9-8.8.1.1.1.6,0-.2s-.1-.7-.1-1.1-.1-1.3-.2-2-.2-3.1-.2-4.7a60.6,60.6,0,0,1,.5-8.5c0-.1.1-1.3,0-.5s.1-.7.2-1l.3-2.1c.3-1.5.6-2.9,1-4.4s1.6-5.6,2.6-8.4l.3-.7.2-.5.9-2,2-4c1.4-2.5,3-5,4.6-7.4l2.3-2.9c1.1-1.3,2.1-2.5,3.2-3.6a55.1,55.1,0,0,1,6.7-6.1l.5-.4.6-.5,2.1-1.5,3.9-2.4a47.6,47.6,0,0,1,8-3.7,43.8,43.8,0,0,1,19-2.4,39.2,39.2,0,0,1,9,1.9,3.9,3.9,0,0,0,4.8-2.7,3.9,3.9,0,0,0-2.7-4.8Z"/><path class="e" d="M198.1,86.5c-9.6-3.4-20.4-2.9-29.9.4A59.8,59.8,0,0,0,144,103.1a69.9,69.9,0,0,0-16.6,64.5c3.5,13.6,11.4,26.5,23.5,35s28.3,12.2,42.5,8.1c10.6-3.1,19.4-10.2,25.9-18.5a68.7,68.7,0,0,0,13.2-57.4c-4.5-20-16.2-42-34.2-48.2"/><path class="f" d="M199.2,82.7c-13.8-4.7-29.2-2.3-41.7,4.7a70.7,70.7,0,0,0-27,27.8c-12.2,22.5-12.3,50.8,1.3,72.6a60.1,60.1,0,0,0,29.7,24.8c12.5,4.8,26.5,5,38.8-.3s21.3-14.9,27.7-25.9a73.8,73.8,0,0,0,10-37.6c-.1-12.4-3.7-24.8-9-36s-12.2-20.4-22.1-26.5a43.5,43.5,0,0,0-7.6-3.5,3.9,3.9,0,0,0-2.1,7.5l1,.4c.1,0,1.1.5.3.1l1.5.7a24.3,24.3,0,0,1,3.5,2l2.8,1.9.3.2.7.7a10.7,10.7,0,0,1,1.6,1.4,71.5,71.5,0,0,1,5.3,5.7c.7.9-.5-.6.2.4l.7.8,1,1.5a38.7,38.7,0,0,1,2.4,3.7c1.4,2.4,2.7,4.8,3.9,7.3a13,13,0,0,0,.8,1.7,10.4,10.4,0,0,0,.4,1c.5,1.2-.3-.6.2.5l1.5,3.9a92,92,0,0,1,4.3,16.4c.1.8,0,.3,0,.2s.1.8.2,1.2a15,15,0,0,0,.2,2c.1,1.6.2,3.2.2,4.8a86.9,86.9,0,0,1-.5,8.9v.6a5,5,0,0,1-.2,1.2l-.3,2c-.3,1.6-.7,3.1-1.1,4.7a84.5,84.5,0,0,1-2.8,8.5c-.5,1.2.3-.7-.3.5l-.3.8c-.3.7-.7,1.4-1,2.2s-1.4,2.6-2.2,3.9-1.5,2.6-2.3,3.8l-1.2,1.7a8.6,8.6,0,0,1-.7,1l-.5.7h0a61.7,61.7,0,0,1-6,6.6l-3.1,2.8a30.8,30.8,0,0,1-3.1,2.4,42,42,0,0,1-32.3,6.5,55.4,55.4,0,0,1-8.8-2.6,48.2,48.2,0,0,1-7.5-3.8l-3.5-2.3a31.4,31.4,0,0,1-3.2-2.5,72.3,72.3,0,0,1-6.1-6.3,58.8,58.8,0,0,1-4.9-6.9,70.1,70.1,0,0,1-4-7.7c-.5-1.1.3.7-.2-.5l-.3-.7c-.3-.7-.5-1.4-.8-2.2s-.9-2.7-1.3-4c-.8-2.9-1.4-5.9-1.9-8.8.1.1.1.6,0-.2s-.1-.7-.1-1.1-.1-1.3-.2-2-.2-3.1-.2-4.7a60.6,60.6,0,0,1,.5-8.5c0-.1.1-1.3,0-.5s.1-.7.2-1l.3-2.1c.3-1.5.6-2.9,1-4.4s1.6-5.6,2.6-8.4l.3-.7.2-.5.9-2,2-4c1.4-2.5,3-5,4.6-7.4l2.3-2.9c1.1-1.3,2.1-2.5,3.2-3.6a55.1,55.1,0,0,1,6.7-6.1l.5-.4.6-.5,2.1-1.5,3.9-2.4a47.6,47.6,0,0,1,8-3.7,43.8,43.8,0,0,1,19-2.4,39.2,39.2,0,0,1,9,1.9,3.9,3.9,0,0,0,4.8-2.7,3.9,3.9,0,0,0-2.7-4.8Z"/><ellipse class="g" cx="200.5" cy="223.1" rx="19.5" ry="11.6"/><path class="e" d="M242.7,57c-3.2-3.3-9.1-5.4-15.1-5.8a48.5,48.5,0,0,0-17.5,2.4c-13.3,4.4-20,20.4-23,29.7l-.4.5h.1c5.5-4.9,14.1-11.4,21.9-11.9,5.9-.4,11.8.3,17.7.2s12.3-1.1,16-4.1S246,60.3,242.7,57Z"/><path class="f" d="M245.5,54.2c-4.4-4.4-10.9-6.2-17.1-6.8A47.7,47.7,0,0,0,209,49.9c-9.6,3.1-16.4,11.3-20.8,20.2-1.1,2.3-2.2,4.8-3.1,7.2s-.8,2.1-1.1,3.1-.3.8-.5,1.3-.1-.3.2-.3-.3.3-.3.4a3.8,3.8,0,0,0,.6,4.8h.1a4,4,0,0,0,5.5,0l2.5-2.1,2.2-1.8a53.5,53.5,0,0,1,6.4-4.1,19.9,19.9,0,0,1,6-2.4l1.6-.4h5.6c5.7.1,11.4.7,17.1.1s10.5-1.8,14.4-5.3a11.2,11.2,0,0,0,3.7-8,12.2,12.2,0,0,0-3.6-8.4,3.9,3.9,0,0,0-5.5,0,4,4,0,0,0,0,5.6l.5.5c-.4-.5,0,0,0,.1s.7,1.4.4.7a1.4,1.4,0,0,1,.2.6s.2,1.1.2.5,0,.1,0,.3-.1.6,0,.1l-.3,1.2c.2-.7-.3.4-.5.6s0,0-.1.1a1.2,1.2,0,0,1-.5.5c-.6.6-.2.2,0,.1l-.9.6-1.2.6c-.7.4-.3.2-.1.1l-.7.3a18.9,18.9,0,0,1-3.4.9l-1.6.3h-1a23.1,23.1,0,0,1-3.7.3c-5.6.1-11.1-.5-16.6-.3a29.7,29.7,0,0,0-14,3.9,71.4,71.4,0,0,0-12.6,9.2h5.4l.6,4.8c1-1.3,1.4-3.3,1.9-4.8s.7-1.8,1-2.7l.3-.5v-.3c-.2.5.1-.4.2-.4l.3-.8c.9-2,1.9-3.8,2.9-5.7l1.6-2.4.9-1.4.5-.7.3-.4c-.3.4-.3.4,0,.1a31.9,31.9,0,0,1,4.4-4.6l.6-.5c.6-.5.1-.1,0,0l1.3-1a26.9,26.9,0,0,1,2.9-1.6h.2l.7-.3,1.7-.6,4.4-1.1a39.5,39.5,0,0,1,8.5-.9h4.3a22.6,22.6,0,0,1,4.5,1l2.3.8h.2l1,.5,1.8,1.1c.7.4.2.1.1,0l1,1a4,4,0,0,0,5.5,0A4,4,0,0,0,245.5,54.2Z"/><path class="h" d="M240.2,53.6a9.2,9.2,0,0,1-1.8,4.9c-3,3.8-8.7,5.9-14.2,7S213,66.7,207.6,68a22.6,22.6,0,0,0-7.3,3.9,9.2,9.2,0,0,1,1.9,2.4,16.8,16.8,0,0,1,6.8-2.6c5.5-.8,11.2-.4,16.7-.8s11.5-1.9,14.8-5.4S243.4,57,240.2,53.6Z"/><ellipse class="g" cx="160.2" cy="223.1" rx="19.5" ry="11.6"/><path class="h" d="M234,134.8c-4.5-20-16.2-42-34.2-48.2h-.1A41.4,41.4,0,0,0,183,84.3l3.4.5a47,47,0,0,1,26.1,14.7v.2c12.4,14.4,11.4,39.3,5.3,58.8a69.2,69.2,0,0,1-40.3,43,57.9,57.9,0,0,1-20.3,4.2c11.4,6.3,25.4,8.6,37.7,5,10.6-3.1,19.4-10.2,25.9-18.5A68.7,68.7,0,0,0,234,134.8Z"/><path class="i" d="M171.9,140.6l4.1-18.4a5.2,5.2,0,0,0-4.5-6.3l-36.1-5.7c-1.4,1.9-2.6,4-3.8,6a78,78,0,0,0-7.8,22.3l41.2,6.6A6.1,6.1,0,0,0,171.9,140.6Z"/><circle class="c" cx="160.3" cy="131.7" r="2.9"/><circle class="c" cx="143.2" cy="128.5" r="2.9"/><circle class="c" cx="149.3" cy="123.7" r="2.9"/><circle class="c" cx="156.3" cy="125.1" r="2.9"/><path class="f" d="M199.2,82.7c-13.8-4.7-29.2-2.3-41.7,4.7a70.7,70.7,0,0,0-27,27.8c-12.2,22.5-12.3,50.8,1.3,72.6a60.1,60.1,0,0,0,29.7,24.8c12.5,4.8,26.5,5,38.8-.3s21.3-14.9,27.7-25.9a73.8,73.8,0,0,0,10-37.6c-.1-12.4-3.7-24.8-9-36s-12.2-20.4-22.1-26.5a43.5,43.5,0,0,0-7.6-3.5,3.9,3.9,0,0,0-2.1,7.5l1,.4c.1,0,1.1.5.3.1l1.5.7a24.3,24.3,0,0,1,3.5,2l2.8,1.9.3.2.7.7a10.7,10.7,0,0,1,1.6,1.4,71.5,71.5,0,0,1,5.3,5.7c.7.9-.5-.6.2.4l.7.8,1,1.5a38.7,38.7,0,0,1,2.4,3.7c1.4,2.4,2.7,4.8,3.9,7.3a13,13,0,0,0,.8,1.7,10.4,10.4,0,0,0,.4,1c.5,1.2-.3-.6.2.5l1.5,3.9a92,92,0,0,1,4.3,16.4c.1.8,0,.3,0,.2s.1.8.2,1.2a15,15,0,0,0,.2,2c.1,1.6.2,3.2.2,4.8a86.9,86.9,0,0,1-.5,8.9v.6a5,5,0,0,1-.2,1.2l-.3,2c-.3,1.6-.7,3.1-1.1,4.7a84.5,84.5,0,0,1-2.8,8.5c-.5,1.2.3-.7-.3.5l-.3.8c-.3.7-.7,1.4-1,2.2s-1.4,2.6-2.2,3.9-1.5,2.6-2.3,3.8l-1.2,1.7a8.6,8.6,0,0,1-.7,1l-.5.7h0a61.7,61.7,0,0,1-6,6.6l-3.1,2.8a30.8,30.8,0,0,1-3.1,2.4,42,42,0,0,1-32.3,6.5,55.4,55.4,0,0,1-8.8-2.6,48.2,48.2,0,0,1-7.5-3.8l-3.5-2.3a31.4,31.4,0,0,1-3.2-2.5,72.3,72.3,0,0,1-6.1-6.3,58.8,58.8,0,0,1-4.9-6.9,70.1,70.1,0,0,1-4-7.7c-.5-1.1.3.7-.2-.5l-.3-.7c-.3-.7-.5-1.4-.8-2.2s-.9-2.7-1.3-4c-.8-2.9-1.4-5.9-1.9-8.8.1.1.1.6,0-.2s-.1-.7-.1-1.1-.1-1.3-.2-2-.2-3.1-.2-4.7a60.6,60.6,0,0,1,.5-8.5c0-.1.1-1.3,0-.5s.1-.7.2-1l.3-2.1c.3-1.5.6-2.9,1-4.4s1.6-5.6,2.6-8.4l.3-.7.2-.5.9-2,2-4c1.4-2.5,3-5,4.6-7.4l2.3-2.9c1.1-1.3,2.1-2.5,3.2-3.6a55.1,55.1,0,0,1,6.7-6.1l.5-.4.6-.5,2.1-1.5,3.9-2.4a47.6,47.6,0,0,1,8-3.7,43.8,43.8,0,0,1,19-2.4,39.2,39.2,0,0,1,9,1.9,3.9,3.9,0,0,0,4.8-2.7,3.9,3.9,0,0,0-2.7-4.8Z"/><path class="h" d="M215.9,222c-1.2-3.9-5.3-8.8-12.7-11.4h0a41.2,41.2,0,0,0-6.9-1.8l1.4.4a34.7,34.7,0,0,1,10.4,4.8h0c4.7,3.6,3.4,7.9.2,10.7s-10.1,4.5-18.4,4.2a52.8,52.8,0,0,1-8.7-1,47.3,47.3,0,0,0,15.6,4.1,33.9,33.9,0,0,0,11.6-1.1C214.3,229.2,217.1,225.8,215.9,222Z"/><ellipse class="j" cx="199.6" cy="222.7" rx="19.5" ry="11.6"/><path class="h" d="M175.6,222c-1.2-3.9-5.3-8.8-12.6-11.4h-.1a38.8,38.8,0,0,0-6.9-1.8l1.4.4a33.5,33.5,0,0,1,10.4,4.8h.1c4.7,3.6,3.4,7.9.1,10.7s-10.1,4.5-18.4,4.2a54,54,0,0,1-8.7-1,48.5,48.5,0,0,0,15.7,4.1,33.3,33.3,0,0,0,11.5-1.1C174,229.2,176.8,225.8,175.6,222Z"/><ellipse class="j" cx="159.4" cy="222.7" rx="19.5" ry="11.6"/><path class="f" d="M245.5,54.2c-4.4-4.4-10.9-6.2-17.1-6.8A47.7,47.7,0,0,0,209,49.9c-9.6,3.1-16.4,11.3-20.8,20.2-1.1,2.3-2.2,4.8-3.1,7.2s-.8,2.1-1.1,3.1-.3.8-.5,1.3-.1-.3.2-.3-.3.3-.3.4a3.8,3.8,0,0,0,.6,4.8h.1a4,4,0,0,0,5.5,0l2.5-2.1,2.2-1.8a53.5,53.5,0,0,1,6.4-4.1,19.9,19.9,0,0,1,6-2.4l1.6-.4h5.6c5.7.1,11.4.7,17.1.1s10.5-1.8,14.4-5.3a11.2,11.2,0,0,0,3.7-8,12.2,12.2,0,0,0-3.6-8.4,3.9,3.9,0,0,0-5.5,0,4,4,0,0,0,0,5.6l.5.5c-.4-.5,0,0,0,.1s.7,1.4.4.7a1.4,1.4,0,0,1,.2.6s.2,1.1.2.5,0,.1,0,.3-.1.6,0,.1l-.3,1.2c.2-.7-.3.4-.5.6s0,0-.1.1a1.2,1.2,0,0,1-.5.5c-.6.6-.2.2,0,.1l-.9.6-1.2.6c-.7.4-.3.2-.1.1l-.7.3a18.9,18.9,0,0,1-3.4.9l-1.6.3h-1a23.1,23.1,0,0,1-3.7.3c-5.6.1-11.1-.5-16.6-.3a29.7,29.7,0,0,0-14,3.9,71.4,71.4,0,0,0-12.6,9.2h5.4l.6,4.8c1-1.3,1.4-3.3,1.9-4.8s.7-1.8,1-2.7l.3-.5v-.3c-.2.5.1-.4.2-.4l.3-.8c.9-2,1.9-3.8,2.9-5.7l1.6-2.4.9-1.4.5-.7.3-.4c-.3.4-.3.4,0,.1a31.9,31.9,0,0,1,4.4-4.6l.6-.5c.6-.5.1-.1,0,0l1.3-1a26.9,26.9,0,0,1,2.9-1.6h.2l.7-.3,1.7-.6,4.4-1.1a39.5,39.5,0,0,1,8.5-.9h4.3a22.6,22.6,0,0,1,4.5,1l2.3.8h.2l1,.5,1.8,1.1c.7.4.2.1.1,0l1,1a4,4,0,0,0,5.5,0A4,4,0,0,0,245.5,54.2Z"/><ellipse class="k" cx="124.7" cy="175.3" rx="13.1" ry="22.3" transform="translate(-86.1 218.1) rotate(-66)"/><path class="h" d="M143.3,181.4c-.2-3.8-2.6-8.9-8.3-12.4h0a45.3,45.3,0,0,0-5.4-2.7l1.1.6a27.1,27.1,0,0,1,7.7,6h0c3.2,4.1,1.2,7.9-2.1,10.1s-9.5,2.7-16.4,1.2a52.3,52.3,0,0,1-7.1-2.2,37.3,37.3,0,0,0,12.3,6.1,24.9,24.9,0,0,0,9.9.7C140.4,187.9,143.4,185.2,143.3,181.4Z"/><ellipse class="l" cx="124.7" cy="175.3" rx="13.1" ry="22.3" transform="translate(-86.1 218.1) rotate(-66)"/></svg>