<svg xmlns="http://www.w3.org/2000/svg" xmlns:xlink="http://www.w3.org/1999/xlink" viewBox="0 0 841.89 1190.55" xmlns:v="https://vecta.io/nano"><style><![CDATA[.W{stroke:#4f4e4e}.X{stroke-miterlimit:10}.Y{fill:#fff}.Z{fill:#cdcbcb}.a{fill:none}.b{fill:#998675}.c{stroke-width:11}.d{stroke-width:5}.e{fill:#4f4e4e}.f{stroke-width:13}.g{fill:#c7b29a}.h{fill:#020203}]]></style><ellipse transform="matrix(.6657 -.7462 .7462 .6657 -195.5135 489.6158)" cx="448.7" cy="463.02" rx="52.29" ry="30.82" class="W Y d"/><path d="M412.22 498.71c-3.3-8.29-3.06-21.65 5.55-34.65l.03-.1c2.55-3.85-1.99 5.33-3.55 11.6l.02.07c-2.93 11.75 5.04 17.95 14.37 19.46 9.33 1.5 22.76-3.48 36.11-13.39 4.44-3.3 8.93-7.19 13.02-11.56-4.72 8.84-12.14 18.23-20.38 24.99-7.08 5.81-14.26 9.35-20.51 11.16-12.19 3.53-21.36.71-24.66-7.58z" class="Z"/><g class="W"><ellipse transform="matrix(.6657 -.7462 .7462 .6657 -195.925 489.8316)" cx="448.73" cy="463.59" rx="52.29" ry="30.82" class="a f"/><path d="M624.39 784.5c15.59-25.84 31.09-49.58 40.7-78.67 9.79-29.66 15.16-60.64 18.14-91.67 7.83-81.47-.2-166.08-35.55-239.89-10.11-21.1-22.34-41.11-35.36-60.52-6.53-9.73-13.27-19.31-20.07-28.86-6.05-8.49-10.38-19.44-22.61-14.4-14.22 5.86-24.74 18.68-30.66 32.87s-7.7 29.76-8.41 45.12c-2.69 58.12 8.99 115.81 19.46 173.04 16 87.54 29.65 176.87 67.11 257.6" stroke-width="16" class="X b"/></g><path d="M565.76 268.71c-4.58 1.88-8.78 4.49-12.57 7.63 2.68 3.16 4.98 7.3 7.57 10.98l20.57 29.93c13.36 20.15 25.94 40.96 36.41 63.02 36.62 77.14 46.05 166.75 39.55 253.6-2.48 33.09-7.34 66.2-16.66 98.07-5.09 17.4-12.03 33.1-19.8 48.44 15.14-24.86 30.01-47.97 39.38-76.11 9.86-29.63 15.3-60.6 18.36-91.63 8.02-81.45.19-166.08-35-239.97-10.06-21.13-22.24-41.16-35.22-60.6-6.51-9.74-13.22-19.35-20-28.9-6.05-8.51-10.35-19.47-22.59-14.46z" class="Z"/><g fill="#746458"><ellipse transform="matrix(.8204 -.5717 .5717 .8204 -180.8589 401.3177)" cx="548.49" cy="488.6" rx="43.66" ry="78.2"/><path d="M505.19 416.67c-1.8 8.6-6.46 16.93-9.21 25.29-4.02 12.22-4.03 24.66-.04 36.95 4.67 14.4 13.61 27 22.98 38.9 7.48 9.5 15.41 18.83 25.24 25.86 5.26 3.76 11.06 6.88 15.55 11.52 8.74 9.02 11.18 22.23 13.43 34.59 5.89 32.36 13.16 64.47 21.79 96.21 1.37 5.05 2.84 10.2 5.9 14.44 5.55 7.68 15.3 11.02 22.31 17.4 14.28 13.01 14.29 35.16 12.37 54.38-1.76 17.72-4.99 36.87-18.03 49-2.22 2.06-4.81 3.92-7.81 4.35-5.95.85-11.25-4.27-13.51-9.83s-2.51-11.74-4.35-17.46c-3.34-10.4-11.55-18.37-19.29-26.08a688.29 688.29 0 0 1-50.11-55.67c-41.03-50.92-75.59-110.32-80.77-175.5-2.57-32.28 2.19-64.75 9.63-96.27 7.95-33.7 18.99-66.68 32.92-98.38 2.67-6.08 5.58-12.3 10.5-16.77 3.61-3.28 8.21-5.45 13.04-6.16 1.49-.22 3.08-.29 4.43.37 1.68.82 2.66 2.57 3.53 4.22 4.35 8.21 8.98 17.81 8.55 27.35-.38 8.59-5.94 17.57-9.29 25.39-5.19 12.09-7.66 16.02-8.69 24.46-.63 5.21 0 6.32-1.07 11.44z" class="W X c"/></g><path d="M609.52 336.15c-1.41-6.12-3.95-15.01-8.76-24.98-4.82-9.98-8.12-13.19-13.05-21.3-9.36-15.41-7.84-20.97-16.94-43.57-4.03-10.02-8.53-18.55-17.54-35.61-4.61-8.73-6.35-11.62-25.61-45.2l-21-36.26c-8.25-13.43-14.66-23.85-24.47-36.91-4.19-5.58-14.62-19.11-30.32-34.42-17.02-16.6-25.19-20.62-33.64-21.58-3.23-.37-10.43-1.09-17.61 2.97C379.98 50.9 384 83 392.54 100.88c4.78 10.02 11.92 18.7 17.65 28.2 11.42 18.93 17.07 40.72 26.44 60.74 11.22 23.97 27.62 45.09 44.06 65.83 20.69 26.12 41.85 48.59 66.1 68.77 11.77 9.79 21.33 28.12 37.31 27.59 6.7-.22 12.09-3.31 15.6-5.88" class="W X c g"/><path d="M419.14 40.51c-3.23-.37-10.43-1.09-17.61 2.97-10.42 5.89-14.53 17.01-14.96 28.88 2.24-6.57 6.28-12.2 12.71-15.84 7.18-4.06 14.38-3.34 17.61-2.97 8.45.96 16.61 4.98 33.64 21.58 15.7 15.32 26.13 28.85 30.32 34.42 9.81 13.06 16.22 23.49 24.47 36.91 4.05 6.6 5.16 8.63 21 36.26l25.6 45.2c9 17.06 13.5 25.59 17.54 35.61 9.1 22.61 7.58 28.16 16.94 43.57 4.93 8.11 8.23 11.32 13.05 21.3 2.92 6.04 4.99 11.67 6.49 16.54l4.52-4.59c-1.41-6.12-3.95-15.01-8.76-24.98-4.82-9.98-8.12-13.19-13.05-21.3-9.36-15.41-7.84-20.97-16.94-43.57-4.03-10.02-8.53-18.55-17.54-35.61-4.61-8.73-6.35-11.62-25.6-45.2l-21-36.26c-8.25-13.43-14.66-23.85-24.47-36.91-8.14-10.83-19.61-23.97-30.32-34.42-17.03-16.61-25.19-20.63-33.64-21.59z" class="b"/><path d="M609.38 336.34c-1.41-6.12-3.95-15.01-8.76-24.98-4.82-9.98-8.12-13.19-13.05-21.3-9.36-15.41-7.84-20.97-16.94-43.57-4.03-10.02-8.53-18.55-17.54-35.61-4.61-8.73-6.35-11.62-25.6-45.2l-21-36.26c-8.25-13.43-14.66-23.85-24.47-36.91-4.19-5.58-14.62-19.11-30.32-34.42-17.02-16.6-25.19-20.62-33.64-21.58-3.23-.37-10.43-1.09-17.61 2.97-20.6 11.64-16.58 43.74-8.04 61.62 4.78 10.02 11.92 18.7 17.65 28.2 11.42 18.93 17.07 40.72 26.44 60.74 11.22 23.97 27.62 45.09 44.06 65.83 20.69 26.12 41.85 48.59 66.1 68.77 11.77 9.79 21.33 28.12 37.31 27.59 6.7-.22 12.09-3.31 15.6-5.88" class="W X a c"/><path d="M522.74 230.1c-12.65.34-25.12 3.2-37.12 7.3-5.71-6.1-16.44-5.59-24.18 1.25-5.76 5.09-8.24 12.27-6.92 18.25-.48.7-.93 1.42-1.35 2.18-3.34 6-4.42 12.95-5.46 19.74-2.92 19.23-5.86 38.62-4.93 58.05.66 13.93 3.16 43.99 21.61 72.89 11.13 17.44 29.47 36.45 42.12 56.37.73 1.15 3.67 5.81 7.89 12.01 2.44 3.59 7.58 11.12 13.88 19.23 8.26 10.63 12.64 15.66 16.1 18.92 9.85 9.27 24.44 15.62 36.91 10.37 5.32-2.24 9.62-6.32 13.54-10.55a147.48 147.48 0 0 0 18.04-23.92c4.87-8.05 9.04-16.82 9.73-26.2.62-8.39-1.57-16.7-3.36-24.92-5.77-26.6-7.39-53.94-7.72-81.16-.15-11.99-.06-24.12-2.92-35.77-2.45-9.98-7-19.29-11.51-28.52-6.58-13.46-13.22-27.01-22.05-39.11-5.82-7.97-12.73-15.38-21.41-20.07-9.35-5.05-20.26-6.62-30.89-6.34z" class="g"/><path d="M536.81 244.03c-13.26-2.7-26.5-3.29-39.23-2.82-10.88.4-22.18 1.84-28.32 7.67-1.82 1.73-3.09 3.76-4.08 5.92 12.24-.36 24.93.28 37.64 2.87 10.07 2.05 20.29 5.42 28.84 10.81 7.93 5 14.01 11.46 19.03 18.07 7.63 10.04 13.08 20.58 18.49 31.06 3.71 7.18 7.44 14.43 9.16 21.68 2.6 11.02 4.06 20.71 4.44 25.71 3.3 43.93 6.95 71.87-10.6 88.6a28.14 28.14 0 0 1-3.46 2.82c1.85.21 3.68.26 5.49.13 0 0 6.65-.47 13.45-4.26 6.97-3.87 19.11-9.66 23.54-34.89 1.5-8.53 4.95-17.1 4.24-44.1-.35-13.39-.2-23.77-.2-23.77.59-8.12-.91-15.42-2.91-23.89-1.71-7.25-5.45-14.5-9.16-21.68-5.41-10.48-10.86-21.02-18.49-31.06-5.02-6.61-11.1-13.07-19.03-18.07-8.54-5.38-18.76-8.75-28.84-10.8z" class="Z"/><ellipse transform="matrix(.499 -.8666 .8666 .499 -67.7897 601.5557)" cx="486.39" cy="359.41" rx="35.15" ry="27.53" class="b"/><ellipse transform="matrix(.499 -.8666 .8666 .499 -69.6839 603.7305)" cx="487.33" cy="362.14" rx="26.79" ry="17.86" class="h"/><use xlink:href="#B" class="Y"/><use xlink:href="#C" class="e"/><use xlink:href="#B" class="Y"/><use xlink:href="#C" class="e"/><path d="M97.66 546.21c-2.02-10.72 2.09-24.78 9.43-36.9s17.59-22.41 28.29-30.43c26.24-19.66 66.08-10.95 87.91-3.96l1.57-.06.05.3c-16.84 3.98-40.95 11.63-52.47 25.93-8.69 10.77-15.34 23.09-23.47 34.34-8.12 11.25-18.72 22.06-29.47 25-11.02 3.03-19.82-3.49-21.84-14.22z" class="Y"/><use xlink:href="#D" class="e"/><path d="M94.66 536.81c3.29 2.1 7.31 3.24 11.81 3.03 11.3-.51 23.18-8.71 32.58-17.89s17.39-19.73 27.32-28.32c4.54-3.93 10.54-6.76 17.18-8.79.34 2.3 1.07 4.58 2.15 6.75-5.6 2.54-10.56 5.72-14.25 9.69-8.91 9.58-15.73 20.95-24.06 31.08s-19.2 19.5-30.26 21.07c-11.26 1.58-20.28-5.87-22.47-16.62zm164.23 97.6c-32.19-35.56-58.75-87.73-46.36-130.78l-.06-.36c3.66-12.75 10.08-24.62 18.32-35.02-1.27 2.42-2.47 4.88-3.59 7.4-9.52 21.5-12.79 46.69-6.93 69.84l.23.28c10.96 43.39 60.14 75.06 105.81 89.56s96.61 7.35 136.99-19.23c13.42-8.84 25.85-19.98 35.47-33.34-3.24 30.31-17.66 60.29-41.26 79.2-20.28 16.24-45.73 23.51-70.46 24.86-48.32 2.64-95.98-16.85-128.16-52.41z" class="Z"/><path d="M339.53 550.58l-40.74-17.81c-6.55-2.86-9.04-11.45-5.54-19.08l40.45-88.16c5.65-.06 11.26.18 16.76.71 18.98 1.85 36.96 7.17 53.32 15.45L357.8 541.91c-3.5 7.63-11.72 11.54-18.27 8.67z" stroke="#020203" stroke-width="9.559" class="X h"/><g fill="#feca09"><ellipse transform="matrix(.2342 -.9722 .9722 .2342 -237.9566 721.8445)" cx="339.19" cy="511.96" rx="7.73" ry="6.82"/><ellipse transform="matrix(.2342 -.9722 .9722 .2342 -182.7938 706.8978)" cx="357.29" cy="469.47" rx="7.73" ry="6.82"/><ellipse transform="matrix(.2342 -.9722 .9722 .2342 -202.8173 694.7689)" cx="339.58" cy="476.12" rx="7.73" ry="6.82"/><ellipse transform="matrix(.2342 -.9722 .9722 .2342 -225.291 700.8583)" cx="332.2" cy="493.43" rx="7.73" ry="6.82"/><ellipse transform="matrix(.2342 -.9722 .9722 .2342 -147.2882 697.397)" cx="369.01" cy="442.19" rx="7.73" ry="6.82"/><ellipse transform="matrix(.2342 -.9722 .9722 .2342 -142.7041 677.1068)" cx="358.42" cy="429.13" rx="7.73" ry="6.82"/></g><g class="e"><use xlink:href="#C"/><use xlink:href="#D"/></g><ellipse transform="matrix(.4439 -.8961 .8961 .4439 -201.9921 708.1689)" cx="469.53" cy="516.82" rx="52.29" ry="30.82" class="W Y d"/><path d="M443.83 560.91c-5.38-7.12-8.69-20.06-3.84-34.88l.01-.1c1.44-4.39-.51 5.67-.35 12.13l.04.06c.3 12.11 9.62 15.97 19.02 14.95s21.02-9.39 31.26-22.49c3.4-4.36 6.7-9.31 9.49-14.6-2.2 9.77-6.87 20.79-13.02 29.5-5.28 7.48-11.27 12.8-16.81 16.2-10.83 6.63-20.42 6.35-25.8-.77z" class="Z"/><g class="W"><ellipse transform="matrix(.4439 -.8961 .8961 .4439 -202.3714 708.633)" cx="469.71" cy="517.35" rx="52.29" ry="30.82" class="a f"/><ellipse transform="matrix(.8135 -.5816 .5816 .8135 -282.6947 403.1637)" cx="487.18" cy="642.3" rx="49.17" ry="29.04" class="Y d"/></g><path d="M450.62 670.26c-3.04-7.74-2.61-20.07 5.84-31.84l.03-.09c2.5-3.49-1.99 4.87-3.58 10.61l.02.06c-1.1 3.98-.77 7.3.55 9.98 2.89 5.92 9.93 7.63 12.95 8.36 11.59 2.82 22.05-2.16 33.32-7.54 4.79-2.28 11.61-5.94 19.19-11.55-9.67 8.85-18.4 15.38-24.93 19.89-11.15 7.7-15.57 8.68-19.84 9.75-11.76 2.95-20.51.11-23.55-7.63z" class="Z"/><ellipse transform="matrix(.8135 -.5816 .5816 .8135 -283.0089 403.2256)" cx="487.12" cy="642.82" rx="49.17" ry="29.04" class="W a f"/><g class="b"><ellipse transform="matrix(.9914 -.1306 .1306 .9914 -29.7065 65.5853)" cx="485.14" cy="259.26" rx="6.78" ry="5.5"/><ellipse transform="matrix(.8985 -.439 .439 .8985 -56.4942 239.0076)" cx="488.54" cy="241.66" rx="6.3" ry="3.5"/></g><g class="h"><ellipse transform="matrix(.9914 -.1306 .1306 .9914 -29.5245 65.5496)" cx="484.96" cy="257.86" rx="6.78" ry="4.39"/><ellipse transform="matrix(.8985 -.439 .439 .8985 -56.5486 238.9767)" cx="488.44" cy="241.76" rx="5.66" ry="3.16"/></g><g class="X"><path d="M553.83,235.74c-4.23,3.75-3.65,10.14-3.48,15.15c1.19,35.66,13.73,70.05,16.63,105.61" stroke="#020203" stroke-linecap="round" class="a d"/><path d="M642.59 608.92c-4.39-6.62-11.16-9.37-17.63-11.99-3.64-1.48-9.42-3.76-17.24-3.87-6.63-.09-11.61 1.43-17.56 3.24-3.3 1.01-7.46 2.29-12.5 5.01-5.51 2.96-9.24 6.1-12.23 8.63-1.57 1.33-5.2 4.44-8.6 8.36-7.1 8.19-10.01 18.37-14.03 28.23-4.99 12.23-10.3 24.32-14.87 36.71-13.77 37.34-23.2 75.95-33.32 114.37-10.45 39.68-20.21 79.59-27.45 120l-1.28 7.28c-10.2 59.48-14.72 120.31-7.75 180.25 1.38 11.86 3.21 23.7 6.17 35.27 1.05 4.09 2.69 8.67 6.61 10.22 4.44 1.76 9.58-1.62 11.47-6.01 1.93-4.49.74-8.87 1.26-13.48.46-4.08 1.72-8.3 2.33-12.42 2.98-20.18 5.53-40.42 7.64-60.7l10.33-102.96c9.72-75.42 29.83-150.51 67.3-217.1 4.66-8.28 10.73-14.69 16.31-22.36 12.39-17.01 18.72-25.67 25.42-33.21 7.44-8.38 10.11-10.31 13.43-14 0 0 1.45-1.65 2.96-3.57 16.54-21.02 17.17-37.32 17.17-37.32.2-4.8.47-11.92-3.94-18.58z" class="W c g"/></g><path d="M607.65 593.2c-3.24-.04-6.08.3-8.83.87 5.16.79 9.08 2.38 11.52 3.39 8.28 3.43 14.07 8.35 17.63 11.99l3.96 18.58c-2.43 10.79-7.16 24.41-17.17 37.32-5.18 6.68-6.93 6.91-16.39 17.57-6.7 7.54-13.03 16.2-25.42 33.21-5.58 7.67-11.65 14.08-16.31 22.36-37.47 66.6-57.58 141.68-67.3 217.1-4.41 34.21-6.75 68.65-10.33 102.96a1453.7 1453.7 0 0 1-7.64 60.7c-.61 4.12-1.87 8.34-2.33 12.42-.52 4.62.67 9-1.26 13.48-.28.66-.64 1.28-1.06 1.88 1 1.66 2.33 3.03 4.14 3.74 4.44 1.76 9.58-1.62 11.47-6.01 1.93-4.49.74-8.87 1.26-13.48.46-4.08 1.72-8.3 2.33-12.42 2.98-20.18 5.53-40.42 7.64-60.7l10.33-102.96c9.72-75.42 29.83-150.51 67.3-217.1 4.66-8.28 10.73-14.69 16.31-22.36 12.39-17.01 18.72-25.67 25.42-33.21 9.47-10.65 11.21-10.89 16.39-17.57 10.01-12.9 14.75-26.53 17.17-37.32l-3.96-18.58c-3.56-3.64-9.35-8.55-17.63-11.99-3.28-1.37-9.22-3.76-17.24-3.87z" class="b"/><g class="W X a"><path d="M641.89 608.75c-4.39-6.62-11.16-9.37-17.63-11.99-3.64-1.48-9.42-3.76-17.24-3.87-6.63-.09-11.61 1.43-17.56 3.24-3.3 1.01-7.46 2.29-12.5 5.01-5.51 2.96-9.24 6.1-12.23 8.63-1.57 1.33-5.2 4.44-8.6 8.36-7.1 8.19-10.01 18.37-14.03 28.23-4.99 12.23-10.3 24.32-14.87 36.71-13.77 37.34-23.2 75.95-33.32 114.37-10.45 39.68-20.21 79.59-27.45 120l-1.28 7.28c-10.2 59.48-14.72 120.31-7.75 180.25 1.38 11.86 3.21 23.7 6.17 35.27 1.05 4.09 2.69 8.67 6.61 10.22 4.44 1.76 9.58-1.62 11.47-6.01 1.93-4.49.74-8.87 1.26-13.48.46-4.08 1.72-8.3 2.33-12.42 2.98-20.18 5.53-40.42 7.64-60.7l10.34-102.96c9.72-75.42 29.83-150.51 67.3-217.1 4.66-8.28 10.73-14.69 16.31-22.36 12.39-17.01 18.72-25.67 25.42-33.21 7.44-8.38 10.11-10.31 13.43-14 0 0 1.45-1.65 2.96-3.57 16.54-21.02 17.17-37.32 17.17-37.32.19-4.8.47-11.92-3.95-18.58z" class="c"/><path d="M522.76 230.54c-12.65.34-25.12 3.2-37.12 7.3-5.71-6.1-16.44-5.59-24.18 1.25-5.76 5.09-8.24 12.27-6.92 18.25-.48.7-.93 1.42-1.35 2.18-3.34 6-4.42 12.95-5.46 19.74-2.92 19.23-5.86 38.62-4.93 58.05.66 13.93 3.16 43.99 21.61 72.89 11.13 17.44 29.47 36.45 42.12 56.37.73 1.15 3.67 5.81 7.89 12.01 2.44 3.59 7.58 11.12 13.88 19.23 8.26 10.63 12.64 15.66 16.1 18.92 9.85 9.27 24.44 15.62 36.91 10.37 5.32-2.24 9.62-6.32 13.54-10.55a147.48 147.48 0 0 0 18.04-23.92c4.87-8.05 9.04-16.82 9.73-26.2.62-8.39-1.57-16.7-3.36-24.92-5.77-26.6-7.39-53.94-7.72-81.16-.15-11.99-.06-24.12-2.92-35.77-2.45-9.98-7-19.29-11.51-28.52-6.58-13.46-13.22-27.01-22.05-39.11-5.82-7.97-12.73-15.38-21.41-20.07-9.35-5.06-20.26-6.63-30.89-6.34z" stroke-width="9"/></g><defs ><path id="B" d="M214.53 500.35c6.6-22.98 22.13-43.11 41.2-56.91 19.07-13.79 41.48-21.54 63.91-24.62 54.9-7.53 110.92 13.64 146.36 55.32 21.28 25.03 35.4 57.69 35.52 92.31s-14.88 70.89-41.96 92.59c-20.28 16.24-45.73 23.51-70.46 24.86-48.31 2.63-95.96-16.86-128.15-52.42s-58.75-87.73-46.36-130.78"/><path id="C" d="M223.21 502.75c1.06-3.66 2.34-7.24 3.81-10.75l-.91 2.15c3.53-8.28 8.15-16.03 13.63-23.16l-1.41 1.82a117.29 117.29 0 0 1 20.87-20.84l-1.82 1.41c8.72-6.71 18.33-12.17 28.45-16.45l-2.15.91c12.4-5.19 25.48-8.58 38.8-10.39l-2.39.32c14.46-1.92 29.13-1.89 43.59.04l-2.39-.32a167.59 167.59 0 0 1 42.42 11.62l-2.15-.91c12.96 5.5 25.19 12.63 36.34 21.24l-1.82-1.41c10.55 8.2 20.05 17.68 28.23 28.25l-1.41-1.82c8.02 10.43 14.73 21.83 19.86 33.94l-.91-2.15c4.8 11.43 8.16 23.43 9.83 35.72l-.32-2.39c1.48 11.16 1.54 22.44.07 33.6l.32-2.39c-1.52 11.2-4.5 22.17-8.89 32.59l.91-2.15c-3.94 9.27-8.97 18.05-15.12 26.03l1.41-1.82c-5.35 6.9-11.5 13.13-18.42 18.47l1.82-1.41c-7.21 5.52-15.11 10.02-23.47 13.57l2.15-.91c-10.76 4.52-22.12 7.42-33.67 8.97l2.39-.32c-13.94 1.83-28.08 1.74-42.01-.12l2.39.32c-14.29-1.95-28.27-5.78-41.56-11.37l2.15.91c-12.82-5.43-24.92-12.47-35.95-20.97l1.82 1.41c-12.07-9.36-22.48-20.46-31.82-32.51l1.41 1.82c-10.86-14.07-20.21-29.36-27.16-45.73l.91 2.15c-4.71-11.18-8.27-22.86-9.93-34.9l.32 2.39c-1.13-8.45-1.3-17-.17-25.46l-.32 2.39c.52-3.73 1.29-7.42 2.32-11.04 1.29-4.53-1.58-10-6.29-11.07-4.79-1.09-9.69 1.44-11.07 6.29-8.23 28.91-.53 59.56 12.12 85.95 6.35 13.24 14.23 25.74 23.16 37.38 9.1 11.87 18.97 23.05 30.59 32.52 23.06 18.78 50.77 31.71 80.17 36.52 30.93 5.07 63.47 2.38 91.96-11.26 13.64-6.53 26.04-15.96 35.82-27.51 9.87-11.65 17.33-24.85 22.61-39.17 10.49-28.41 10.58-60.07 1.45-88.85-9.14-28.79-26.72-54.94-49.8-74.41-22.27-18.79-49.17-31.98-77.79-37.67-29.86-5.94-61.55-4.4-90.3 5.93-15.8 5.67-30.45 13.78-43.3 24.61-11.34 9.55-21.09 21.39-28.1 34.47-3.59 6.7-6.54 13.82-8.66 21.13-1.31 4.52 1.59 10 6.29 11.07 4.82 1.1 9.68-1.44 11.09-6.28h0z"/><path id="D" d="M106.33 543.82l-.22-1.36.32 2.39c-.43-3.29-.34-6.61.08-9.9l-.32 2.39c.73-5.34 2.3-10.51 4.37-15.48l-.91 2.15c2.85-6.72 6.64-12.95 11.07-18.74l-1.41 1.82c5.99-7.75 13.05-14.61 20.78-20.61l-1.82 1.41c4.11-3.17 8.46-5.83 13.24-7.86l-2.15.91c5.64-2.35 11.59-3.83 17.64-4.65l-2.39.32c9.48-1.24 19.1-.9 28.56.36l-2.39-.32c6.06.82 12.06 2 17.98 3.49 2.59.65 5.17 1.36 7.74 2.11l3.64 1.11c1.57.5 3.1.56 4.71.5l-8.68-6.61c.02.1.04.2.05.3l6.29-11.07c-12.79 3.03-25.55 7.09-37.19 13.29-6 3.2-11.82 7.16-16.61 12.01-2.9 2.94-5.36 6.33-7.79 9.66-2.38 3.26-4.63 6.61-6.83 9.99-4.98 7.64-9.73 15.44-15.29 22.68l1.41-1.82c-4.3 5.54-9.06 10.78-14.59 15.11l1.82-1.41c-2.81 2.17-5.8 4.08-9.06 5.48l2.15-.91c-2 .83-4.06 1.46-6.21 1.77l2.39-.32c-1.64.2-3.27.22-4.91 0l2.39.32c-1.32-.2-2.59-.54-3.83-1.04l2.15.91c-1.29-.55-2.49-1.25-3.61-2.1l1.82 1.41c-1.11-.88-2.1-1.89-2.97-3.01l1.41 1.82a19.52 19.52 0 0 1-2.37-4.11l.91 2.15c-.62-1.47-1.06-2.98-1.37-4.54-.42-2.12-2.33-4.32-4.14-5.38-1.93-1.13-4.77-1.61-6.94-.91-4.93 1.59-7.26 6.11-6.29 11.07 1.48 7.53 6.22 14.84 13.09 18.49 3.74 1.99 7.88 3.07 12.13 3.08 4.71.01 9-1.32 13.27-3.16 3.64-1.57 6.85-3.77 9.97-6.19a77.19 77.19 0 0 0 9.44-8.63c6.05-6.53 11.2-13.85 16.05-21.29 5.16-7.91 10.09-15.99 15.87-23.48l-1.41 1.82c2.63-3.38 5.52-6.37 8.9-9l-1.82 1.41c5.57-4.28 11.84-7.55 18.29-10.28l-2.15.91c8.62-3.62 17.61-6.28 26.69-8.43 2.06-.49 4.39-2.26 5.38-4.14 1.19-2.26 1.34-4.43.91-6.94-.02-.1-.04-.2-.05-.3l-.91-2.15c-.57-1.05-1.34-1.89-2.32-2.53-1.53-1.18-3.47-2-5.45-1.93l-1.57.06 2.39.32c-9.04-2.89-18.3-5.19-27.69-6.61-6.05-.91-12.14-1.61-18.26-1.77s-12.16.3-18.21 1.16c-11.71 1.66-22.93 6.1-32.32 13.32-11.29 8.69-21.32 18.84-28.97 30.94-8.36 13.22-14.11 29.56-11.25 45.31.38 2.11 2.35 4.33 4.14 5.38 1.93 1.13 4.77 1.61 6.94.91 2.18-.7 4.28-2.05 5.38-4.14 1.19-2.23 1.37-4.42.91-6.92z"/></defs></svg>