<?xml version="1.0" encoding="UTF-8"?><svg id="a" xmlns="http://www.w3.org/2000/svg" viewBox="0 0 634.21 920.13"><defs><style>.c{opacity:.24;stroke-linejoin:round;stroke-width:10.9px;}.c,.d,.e,.f{fill:#fff;}.c,.g,.h{stroke-linecap:round;}.c,.g,.i{stroke:#1d1d1b;}.j,.k,.e,.f,.l,.i{stroke-miterlimit:10;}.j,.e,.f,.l{stroke:#4e4d4d;}.j,.g,.h,.l,.i{fill:none;}.j,.f{stroke-width:31.48px;}.k{fill:#010101;stroke:#010101;stroke-width:12.59px;}.m{fill:#ffcc07;}.n{fill:#cdcccc;}.o{fill:#b17f4a;}.p{fill:#4e4d4d;}.e,.l{stroke-width:34.92px;}.g{stroke-width:25px;}.g,.h{stroke-linejoin:bevel;}.h{stroke:#ffcc03;stroke-width:20px;}.i{stroke-width:18px;}</style></defs><g><g><g><path class="d" d="M370.26,189.18c-46.4-16.06-98.56-13.76-144.26,1.98-45.7,15.73-85.19,44.22-116.86,78.27C31.64,352.76,1.03,471.87,29.16,580.64c16.9,65.32,55.09,127.61,113.11,168.72,58.02,41.11,136.67,58.75,205.11,38.89,51.24-14.87,93.51-49.04,124.99-88.99,61.49-78.04,85.05-181.12,63.34-277.19-21.71-96.07-77.98-202.33-164.92-232.36"/><path class="p" d="M375.28,170.97c-66.53-22.81-141.36-10.77-201.8,23.28-54.42,30.65-99.51,78.65-129.34,133.31S-.74,442.33,.03,503.46c.76,60.77,17.67,121.58,49.65,173.37,16.14,26.14,36.11,50.3,59.42,70.38,25.16,21.67,53.32,38.41,84.29,50.33,29.28,11.27,60.92,17.4,92.31,17.75,16.1,.18,32.25-1.39,48.07-4.38s31.79-8.36,46.98-14.89c57.07-24.55,103.07-72.39,133.94-125.5,31.83-54.74,48.67-118.33,47.8-181.67-.82-59.81-18.08-119.11-43.67-172.86-23.85-50.11-58.56-98.25-106.64-127.52-11.43-6.96-23.73-12.59-36.36-16.99-9.34-3.25-21.07,3.7-23.23,13.19-2.4,10.54,3.19,19.75,13.19,23.23,3.28,1.14,6.52,2.39,9.72,3.73l-4.51-1.9c14.15,6.01,27.34,13.97,39.51,23.35l-3.82-2.95c16.21,12.59,30.44,27.5,43.01,43.69l-2.95-3.82c19.59,25.37,35.12,53.67,47.57,83.16l-1.9-4.51c14.24,33.92,25.16,69.88,30.13,106.38l-.67-5.02c3.85,28.97,3.79,58.35-.05,87.32l.67-5.02c-4.01,29.6-11.93,58.56-23.53,86.08l1.9-4.51c-11.14,26.22-25.56,50.95-42.96,73.52l2.95-3.82c-15.14,19.52-32.44,37.33-51.96,52.5l3.82-2.95c-15.98,12.33-33.34,22.77-51.92,30.68l4.51-1.9c-16.96,7.12-34.71,11.97-52.94,14.43l5.02-.67c-20.14,2.63-40.52,2.42-60.64-.22l5.02,.67c-22.86-3.1-45.2-9.29-66.45-18.25l4.51,1.9c-20.2-8.6-39.2-19.67-56.61-33.04l3.82,2.95c-18.71-14.48-35.42-31.34-49.92-50.03l2.95,3.82c-16.14-20.94-29.41-43.95-39.71-68.29l1.9,4.51c-11-26.22-18.48-53.79-22.29-81.97l.67,5.02c-3.85-29.12-3.76-58.65,.09-87.76l-.67,5.02c4.06-30.04,12.11-59.44,23.87-87.37l-1.9,4.51c11.33-26.69,25.98-51.86,43.66-74.84l-2.95,3.82c17.08-22.06,36.83-42.02,58.89-59.11l-3.82,2.95c18.99-14.61,39.63-26.96,61.69-36.33l-4.51,1.9c19.75-8.3,40.43-14.05,61.66-16.98l-5.02,.67c19.92-2.66,40.09-2.84,60.02-.23l-5.02-.67c13.14,1.79,26.07,4.79,38.62,9.09,9.36,3.21,21.06-3.67,23.23-13.19,2.39-10.5-3.17-19.8-13.19-23.23h0Z"/></g><ellipse class="f" cx="381.61" cy="848.26" rx="94.14" ry="56.13"/><g><path class="d" d="M585.36,47.04c-15.63-16.06-44.1-25.76-73.12-27.76-29.02-1.99-58.42,3.07-84.53,11.57-64.02,20.86-96.46,98.06-110.51,143l-1.96,2.58,.45,.45c26.58-23.59,67.91-55.04,105.54-57.52,28.36-1.86,56.92,1.5,85.42,1.15,28.5-.36,59.16-5.39,76.82-19.97,18.07-14.93,17.52-37.43,1.89-53.5Z"/><path class="p" d="M598.71,33.68c-10.61-10.84-24.04-17.9-38.03-23.32s-29.49-8.27-44.69-9.67c-16.79-1.54-33.47-.36-50.13,1.94-14.65,2.02-29.12,5.41-43.18,10.01-23.2,7.59-43.75,21.53-60.46,39.22-15.44,16.34-28.09,35.39-38.32,55.36-9.22,18-16.87,36.91-23.17,56.13-.6,1.82-1.18,3.64-1.75,5.47l1.9-4.51-1.96,2.58-1.9,4.51c-.79,2.51-.9,5.02-.34,7.53,0,1.7,.44,3.29,1.29,4.77,.76,2.34,2.06,4.37,3.91,6.08l.45,.45c1.71,1.84,3.74,3.14,6.08,3.91,2.25,1.18,4.68,1.72,7.28,1.63l5.02-.67c3.2-.9,5.98-2.52,8.33-4.86,7.02-6.23,14.22-12.26,21.65-18l-3.82,2.95c12.34-9.53,25.3-18.35,39.16-25.52,3.87-2,7.82-3.86,11.84-5.56l-4.51,1.9c8.91-3.73,18.21-6.63,27.8-7.92l-5.02,.67c8.54-1.11,17.27-1.11,25.87-1.07,9.26,.05,18.51,.42,27.76,.81,17.52,.73,35.1,1.56,52.61,.21,9.34-.72,18.71-1.91,27.89-3.79,7.22-1.47,14.37-3.46,21.19-6.27,4.55-1.88,9.1-3.77,13.38-6.21s7.87-5.22,11.55-8.19c3.98-3.22,7.03-7.06,10.11-11.15,2.88-3.82,4.69-8.1,6.46-12.54s2.34-9.04,2.81-13.69-.21-9.32-1-13.87-2.68-8.96-4.61-13.22-4.95-8.24-7.96-12.08c-1.1-1.4-2.26-2.73-3.49-4.01-3.32-3.45-8.6-5.53-13.36-5.53s-10.17,2.06-13.36,5.53-5.76,8.33-5.53,13.36,1.96,9.65,5.53,13.36c1.23,1.28,2.4,2.61,3.49,4.01l-2.95-3.82c2.2,2.87,4.05,5.96,5.46,9.28l-1.9-4.51c1.21,2.92,2.05,5.96,2.48,9.1l-.67-5.02c.35,2.83,.35,5.66-.01,8.49l.67-5.02c-.4,2.86-1.17,5.63-2.29,8.29l1.9-4.51c-1.21,2.8-2.78,5.4-4.64,7.82l2.95-3.82c-2.27,2.88-4.91,5.41-7.8,7.65l3.82-2.95c-4.6,3.51-9.71,6.27-15.03,8.52l4.51-1.9c-10.53,4.4-21.77,6.87-33.05,8.4l5.02-.67c-33.92,4.52-68.05-.54-102.08,.29-9.09,.22-18.17,.88-27.09,2.73-6.81,1.41-13.45,3.57-19.89,6.19-8.15,3.31-16.1,6.97-23.78,11.27-6.47,3.63-12.75,7.6-18.86,11.8-13.97,9.61-27.25,20.28-39.93,31.53h26.71l-.45-.45,2.95,22.89c.59-.77,1.2-1.53,1.76-2.32,.06-.09,.14-.17,.2-.26,.34-.5,1.76-4.1,1.94-4.63,.05-.16,.1-.32,.15-.49,.19-.62,.39-1.23,.58-1.84,.78-2.44,1.58-4.87,2.41-7.3,1.82-5.34,3.74-10.65,5.79-15.91,1.26-3.24,2.56-6.46,3.91-9.66l-1.9,4.51c6.88-16.27,14.95-32.09,24.7-46.84,2.87-4.34,5.89-8.58,9.06-12.7l-2.95,3.82c8.37-10.83,17.86-20.82,28.69-29.23l-3.82,2.95c8.22-6.35,17.17-11.72,26.74-15.77l-4.51,1.9c7.66-3.21,15.7-5.53,23.74-7.62,9.34-2.42,18.82-4.3,28.38-5.6l-5.02,.67c17.1-2.28,34.5-2.69,51.62-.4l-5.02-.67c12.28,1.68,24.42,4.69,35.86,9.5l-4.51-1.9c7.12,3.02,13.95,6.73,20.08,11.47l-3.82-2.95c2.25,1.76,4.4,3.65,6.4,5.69,3.37,3.44,8.57,5.53,13.36,5.53s10.17-2.06,13.36-5.53,5.76-8.33,5.53-13.36-1.94-9.69-5.53-13.36Z"/></g><path class="n" d="M573.1,30.89c-.37,8.02-3.2,16.1-8.86,23.42-14.2,18.38-42.02,28.65-68.54,33.58-26.52,4.94-53.68,5.91-79.84,12.43-11.97,2.98-23.81,9.72-35.06,18.46,3.46,3.29,6.43,7.2,8.8,11.58,10.89-6.4,22.08-10.98,33.11-12.49,26.63-3.65,53.78-1.67,80.64-3.7,26.86-2.03,55.45-9.22,71.14-25.95,15.94-17,14.08-40.95-1.39-57.34Z"/><path class="n" d="M543.04,422.06c-21.71-96.07-77.98-202.33-164.92-232.36l-.54-.52c-25.75-8.91-53.27-12.16-80.47-10.6,5.56,.72,11.12,1.61,16.67,2.71,47.36,9.41,93.54,33.66,125.51,70.87l.2,.71c59.93,69.66,55.05,189.69,25.45,283.54-29.6,93.85-101.79,170.97-194.13,207.39-30.7,12.11-64.1,19.81-97.91,20.19,54.74,30.37,122.14,41.56,181.79,24.25,51.24-14.87,93.51-49.04,124.99-88.99,61.49-78.04,85.05-181.12,63.34-277.19Z"/><path class="p" d="M375.28,170.97c-66.53-22.81-141.36-10.77-201.8,23.28-54.42,30.65-99.51,78.65-129.34,133.31S-.74,442.33,.03,503.46c.76,60.77,17.67,121.58,49.65,173.37,16.14,26.14,36.11,50.3,59.42,70.38,25.16,21.67,53.32,38.41,84.29,50.33,29.28,11.27,60.92,17.4,92.31,17.75,16.1,.18,32.25-1.39,48.07-4.38s31.79-8.36,46.98-14.89c57.07-24.55,103.07-72.39,133.94-125.5,31.83-54.74,48.67-118.33,47.8-181.67-.82-59.81-18.08-119.11-43.67-172.86-23.85-50.11-58.56-98.25-106.64-127.52-11.43-6.96-23.73-12.59-36.36-16.99-9.34-3.25-21.07,3.7-23.23,13.19-2.4,10.54,3.19,19.75,13.19,23.23,3.28,1.14,6.52,2.39,9.72,3.73l-4.51-1.9c14.15,6.01,27.34,13.97,39.51,23.35l-3.82-2.95c16.21,12.59,30.44,27.5,43.01,43.69l-2.95-3.82c19.59,25.37,35.12,53.67,47.57,83.16l-1.9-4.51c14.24,33.92,25.16,69.88,30.13,106.38l-.67-5.02c3.85,28.97,3.79,58.35-.05,87.32l.67-5.02c-4.01,29.6-11.93,58.56-23.53,86.08l1.9-4.51c-11.14,26.22-25.56,50.95-42.96,73.52l2.95-3.82c-15.14,19.52-32.44,37.33-51.96,52.5l3.82-2.95c-15.98,12.33-33.34,22.77-51.92,30.68l4.51-1.9c-16.96,7.12-34.71,11.97-52.94,14.43l5.02-.67c-20.14,2.63-40.52,2.42-60.64-.22l5.02,.67c-22.86-3.1-45.2-9.29-66.45-18.25l4.51,1.9c-20.2-8.6-39.2-19.67-56.61-33.04l3.82,2.95c-18.71-14.48-35.42-31.34-49.92-50.03l2.95,3.82c-16.14-20.94-29.41-43.95-39.71-68.29l1.9,4.51c-11-26.22-18.48-53.79-22.29-81.97l.67,5.02c-3.85-29.12-3.76-58.65,.09-87.76l-.67,5.02c4.06-30.04,12.11-59.44,23.87-87.37l-1.9,4.51c11.33-26.69,25.98-51.86,43.66-74.84l-2.95,3.82c17.08-22.06,36.83-42.02,58.89-59.11l-3.82,2.95c18.99-14.61,39.63-26.96,61.69-36.33l-4.51,1.9c19.75-8.3,40.43-14.05,61.66-16.98l-5.02,.67c19.92-2.66,40.09-2.84,60.02-.23l-5.02-.67c13.14,1.79,26.07,4.79,38.62,9.09,9.36,3.21,21.06-3.67,23.23-13.19,2.39-10.5-3.17-19.8-13.19-23.23h0Z"/><rect class="k" x="134.04" y="330.28" width="294.43" height="136.55" rx="25.18" ry="25.18"/><path class="n" d="M455.92,842.61c-5.75-18.65-25.66-42-61.13-54.57l-.21-.14c-10.5-3.72-21.95-6.61-33.43-8.62,2.31,.59,4.62,1.22,6.91,1.88,19.56,5.63,38.11,13.76,50.24,22.96l.06,.14c22.73,17.24,16.47,37.86,.75,51.81-15.72,13.95-48.75,21.4-88.81,20.02-13.32-.46-27.62-1.92-41.83-4.69,21.93,9.92,49.85,17.55,75.51,19.53,22.04,1.7,41-.73,55.62-5.08,28.56-8.5,42.07-24.58,36.32-43.24Z"/><ellipse class="j" cx="377.41" cy="846.16" rx="94.14" ry="56.13"/><ellipse class="f" cx="187.4" cy="848.26" rx="94.14" ry="56.13"/><path class="n" d="M261.72,842.61c-5.75-18.65-25.66-42-61.13-54.57l-.21-.14c-10.5-3.72-21.95-6.61-33.43-8.62,2.31,.59,4.62,1.22,6.91,1.88,19.56,5.63,38.11,13.76,50.24,22.96l.06,.14c22.73,17.24,16.47,37.86,.75,51.81-15.72,13.95-48.75,21.4-88.81,20.02-13.32-.46-27.62-1.92-41.83-4.69,21.93,9.92,49.85,17.55,75.51,19.53,22.04,1.7,41-.73,55.62-5.08,28.56-8.5,42.07-24.58,36.32-43.24Z"/><ellipse class="j" cx="183.21" cy="846.16" rx="94.14" ry="56.13"/><path class="p" d="M598.71,33.68c-10.61-10.84-24.04-17.9-38.03-23.32s-29.49-8.27-44.69-9.67c-16.79-1.54-33.47-.36-50.13,1.94-14.65,2.02-29.12,5.41-43.18,10.01-23.2,7.59-43.75,21.53-60.46,39.22-15.44,16.34-28.09,35.39-38.32,55.36-9.22,18-16.87,36.91-23.17,56.13-.6,1.82-1.18,3.64-1.75,5.47l1.9-4.51-1.96,2.58-1.9,4.51c-.79,2.51-.9,5.02-.34,7.53,0,1.7,.44,3.29,1.29,4.77,.76,2.34,2.06,4.37,3.91,6.08l.45,.45c1.71,1.84,3.74,3.14,6.08,3.91,2.25,1.18,4.68,1.72,7.28,1.63l5.02-.67c3.2-.9,5.98-2.52,8.33-4.86,7.02-6.23,14.22-12.26,21.65-18l-3.82,2.95c12.34-9.53,25.3-18.35,39.16-25.52,3.87-2,7.82-3.86,11.84-5.56l-4.51,1.9c8.91-3.73,18.21-6.63,27.8-7.92l-5.02,.67c8.54-1.11,17.27-1.11,25.87-1.07,9.26,.05,18.51,.42,27.76,.81,17.52,.73,35.1,1.56,52.61,.21,9.34-.72,18.71-1.91,27.89-3.79,7.22-1.47,14.37-3.46,21.19-6.27,4.55-1.88,9.1-3.77,13.38-6.21s7.87-5.22,11.55-8.19c3.98-3.22,7.03-7.06,10.11-11.15,2.88-3.82,4.69-8.1,6.46-12.54s2.34-9.04,2.81-13.69-.21-9.32-1-13.87-2.68-8.96-4.61-13.22-4.95-8.24-7.96-12.08c-1.1-1.4-2.26-2.73-3.49-4.01-3.32-3.45-8.6-5.53-13.36-5.53s-10.17,2.06-13.36,5.53-5.76,8.33-5.53,13.36,1.96,9.65,5.53,13.36c1.23,1.28,2.4,2.61,3.49,4.01l-2.95-3.82c2.2,2.87,4.05,5.96,5.46,9.28l-1.9-4.51c1.21,2.92,2.05,5.96,2.48,9.1l-.67-5.02c.35,2.83,.35,5.66-.01,8.49l.67-5.02c-.4,2.86-1.17,5.63-2.29,8.29l1.9-4.51c-1.21,2.8-2.78,5.4-4.64,7.82l2.95-3.82c-2.27,2.88-4.91,5.41-7.8,7.65l3.82-2.95c-4.6,3.51-9.71,6.27-15.03,8.52l4.51-1.9c-10.53,4.4-21.77,6.87-33.05,8.4l5.02-.67c-33.92,4.52-68.05-.54-102.08,.29-9.09,.22-18.17,.88-27.09,2.73-6.81,1.41-13.45,3.57-19.89,6.19-8.15,3.31-16.1,6.97-23.78,11.27-6.47,3.63-12.75,7.6-18.86,11.8-13.97,9.61-27.25,20.28-39.93,31.53h26.71l-.45-.45,2.95,22.89c.59-.77,1.2-1.53,1.76-2.32,.06-.09,.14-.17,.2-.26,.34-.5,1.76-4.1,1.94-4.63,.05-.16,.1-.32,.15-.49,.19-.62,.39-1.23,.58-1.84,.78-2.44,1.58-4.87,2.41-7.3,1.82-5.34,3.74-10.65,5.79-15.91,1.26-3.24,2.56-6.46,3.91-9.66l-1.9,4.51c6.88-16.27,14.95-32.09,24.7-46.84,2.87-4.34,5.89-8.58,9.06-12.7l-2.95,3.82c8.37-10.83,17.86-20.82,28.69-29.23l-3.82,2.95c8.22-6.35,17.17-11.72,26.74-15.77l-4.51,1.9c7.66-3.21,15.7-5.53,23.74-7.62,9.34-2.42,18.82-4.3,28.38-5.6l-5.02,.67c17.1-2.28,34.5-2.69,51.62-.4l-5.02-.67c12.28,1.68,24.42,4.69,35.86,9.5l-4.51-1.9c7.12,3.02,13.95,6.73,20.08,11.47l-3.82-2.95c2.25,1.76,4.4,3.65,6.4,5.69,3.37,3.44,8.57,5.53,13.36,5.53s10.17-2.06,13.36-5.53,5.76-8.33,5.53-13.36-1.94-9.69-5.53-13.36Z"/><g><circle class="m" cx="244.87" cy="405.67" r="12.13"/><circle class="m" cx="172.08" cy="405.67" r="12.13"/><circle class="m" cx="193.65" cy="381.41" r="12.13"/><circle class="m" cx="223.3" cy="381.41" r="12.13"/><circle class="m" cx="390.43" cy="405.67" r="12.13"/><circle class="m" cx="317.65" cy="405.67" r="12.13"/><circle class="m" cx="339.21" cy="381.41" r="12.13"/><circle class="m" cx="368.86" cy="381.41" r="12.13"/></g></g><line class="g" x1="502.58" y1="366.02" x2="533.08" y2="356.52"/><path class="o" d="M633.4,200.39L345.99,752.37c-3.44,6.61-11.6,9.18-18.21,5.74-6.61-3.44-9.18-11.6-5.74-18.21-.04,.03,298.69-546.21,298.71-546.26,4.52-7.84,16.7-2.16,12.65,6.75h0Z"/><g><ellipse class="e" cx="419.35" cy="618.41" rx="105.05" ry="61.9" transform="translate(-191.89 188.67) rotate(-20.75)"/><path class="n" d="M508.92,576.42c-14.47-14.25-46.17-26.34-89.7-21.68l-.28-.03c-12.89,1.38-26.42,3.94-39.59,7.3,2.74-.51,5.48-.98,8.22-1.42,23.43-3.75,46.89-4.77,63.96-1.94l.13,.1c32,5.31,34.5,26.75,23.91,46.44-10.59,19.69-42.59,41.31-86.05,58.14-14.45,5.6-30.39,10.73-46.83,14.64,27.88-.94,61.13-6.65,89.46-16.44,24.33-8.41,43.52-19.16,57.22-29.69,26.76-20.57,34.03-41.18,19.56-55.42Z"/><ellipse class="l" cx="419.35" cy="618.41" rx="105.05" ry="61.9" transform="translate(-191.89 188.67) rotate(-20.75)"/></g></g><g id="b"><circle class="c" cx="176.33" cy="394.27" r="106.25"/><circle class="i" cx="176.33" cy="394.27" r="106.25"/></g><circle class="c" cx="395.33" cy="394.27" r="106.25"/><circle class="i" cx="395.33" cy="394.27" r="106.25"/><line class="g" x1="66.08" y1="366.02" x2="35.58" y2="356.52"/><g><line class="h" x1="282.08" y1="286.02" x2="304.58" y2="270.52"/><line class="h" x1="293.08" y1="244.02" x2="315.58" y2="228.52"/><line class="h" x1="302.93" y1="271.26" x2="290.08" y2="245.02"/></g></svg>