<svg xmlns="http://www.w3.org/2000/svg" viewBox="0 0 200 200"><defs><style>.a,.d,.i,.k{fill:#fff;}.b{fill:#4e4d4d;}.c{fill:#cdcccc;}.d,.e,.i,.j,.k,.l{stroke:#4e4d4d;}.d,.e,.f,.h,.i,.j,.k,.l{stroke-miterlimit:10;}.d,.e{stroke-width:6.75px;}.e,.j,.l{fill:none;}.f{fill:#010101;stroke:#010101;stroke-width:2.7px;}.g{fill:#ffcc07;}.h{fill:#415f38;stroke:#3c3c3b;stroke-width:4.75px;}.i,.j{stroke-width:6.44px;}.k,.l{stroke-width:6.58px;}</style></defs><path class="a" d="M118.9,41.7a48.4,48.4,0,0,0-31,.4A62.9,62.9,0,0,0,62.8,58.9a72.5,72.5,0,0,0-17.1,66.8c3.6,14,11.8,27.3,24.3,36.2s29.3,12.6,43.9,8.3c11-3.2,20.1-10.5,26.9-19.1a71.4,71.4,0,0,0,13.5-59.5C149.7,71,137.6,48.3,119,41.8"/><path class="b" d="M119.9,37.8c-14.2-4.9-30.2-2.3-43.1,4.9A74.4,74.4,0,0,0,48.9,71.3c-12.6,23.1-12.8,52.3,1.2,75A62.6,62.6,0,0,0,80.5,172c12.7,5,27.3,5.5,40,.1S143,156.6,149.8,145a76.7,76.7,0,0,0,10.3-38.8c-.2-12.9-3.9-25.7-9.4-37.2s-12.5-21.1-22.8-27.4a40.9,40.9,0,0,0-7.9-3.7,4,4,0,0,0-2.1,7.8l1.9.7c-.9-.3.1.1.2.2l.8.3a26,26,0,0,1,3.6,2.1l1.4.9.9.6c.1.1,1,.8.2.2a26.9,26.9,0,0,1,3.2,2.7,77,77,0,0,1,5.4,6c.8.9-.4-.6.3.3l.4.6,1.3,1.8,2.4,3.7a78.8,78.8,0,0,1,4,7.6l.9,2,.3.7c.5,1.2-.2-.7.2.4s1.1,2.8,1.6,4.2a83.2,83.2,0,0,1,4.4,16.8c.1.1.2,1.4.1.6s.1.8.2,1.2.1,1.5.2,2.2.2,3.2.2,4.9a76.9,76.9,0,0,1-.6,9.5c.1-.7,0,0,0,.1s-.1.8-.2,1.2a20,20,0,0,1-.4,2.4c-.3,1.6-.7,3.1-1.1,4.7a65.1,65.1,0,0,1-3,8.8c.3-.7-.2.6-.2.6l-.3.7c-.4.8-.7,1.5-1.1,2.2s-1.5,2.9-2.3,4.3l-2.4,3.8-1.4,2.1-.5.6-.5.7h-.1a55.8,55.8,0,0,1-6.1,6.7l-3.2,2.9-.9.8c-1.1.8.6-.4-.5.3l-1.9,1.4a41.1,41.1,0,0,1-16.7,7h-1.3l-2.4.3h-4.8l-4.4-.3H94.4l-2.8-.5a47.9,47.9,0,0,1-8.9-2.7l-.6-.2-.9-.4-2-.9L75,160.3a55.8,55.8,0,0,1-13.3-11.6,31.5,31.5,0,0,1-2.2-2.9,48.1,48.1,0,0,1-2.7-4.1,70.5,70.5,0,0,1-4.2-8.2c0,.2.2.6-.1-.1s-.3-.7-.4-1.1a14.3,14.3,0,0,1-.8-2.2c-.5-1.4-1-2.9-1.4-4.4a68.7,68.7,0,0,1-1.8-8.8c.1.8-.1-.4-.1-.5a2.2,2.2,0,0,0-.1-.8c-.1-.8-.1-1.5-.2-2.3s-.2-3.1-.2-4.7a68,68,0,0,1,.6-9s.1-1.3,0-.4.1-.8.2-1.2l.3-1.9c.3-1.6.6-3.1,1-4.6a86.3,86.3,0,0,1,2.8-8.6l.4-1,.2-.5.8-1.8,2.1-4.2a91,91,0,0,1,5.1-8l.5-.6c0-.1.8-1.1.3-.5l1.5-1.8c1.1-1.3,2.1-2.5,3.2-3.6a59.5,59.5,0,0,1,7-6.3l.5-.4.6-.5,2-1.4c1.4-.9,2.8-1.8,4.3-2.6l4-2.1,1.2-.5.5-.2L89,46a39.6,39.6,0,0,1,4.6-1.3l2.6-.6,1.1-.2h.9a43.5,43.5,0,0,1,10.2-.2,38.7,38.7,0,0,1,9.4,2,4,4,0,1,0,2.1-7.8Z"/><path class="c" d="M155.9,91.6c-4.6-20.6-16.7-43.3-35.4-49.8h-.1a45.6,45.6,0,0,0-17.2-2.3l3.5.6c10.2,2,20.1,7.2,27,15.2v.2c12.9,14.9,11.8,40.6,5.5,60.8a71.6,71.6,0,0,1-41.7,44.5,59.6,59.6,0,0,1-21,4.3c11.8,6.5,26.2,8.9,39,5.2,11-3.2,20.1-10.5,26.8-19.1A71.1,71.1,0,0,0,155.9,91.6Z"/><path class="b" d="M119.9,37.8c-14.2-4.9-30.2-2.3-43.1,4.9A74.4,74.4,0,0,0,48.9,71.3c-12.6,23.1-12.8,52.3,1.2,75A62.6,62.6,0,0,0,80.5,172c12.7,5,27.3,5.5,40,.1S143,156.6,149.8,145a76.7,76.7,0,0,0,10.3-38.8c-.2-12.9-3.9-25.7-9.4-37.2s-12.5-21.1-22.8-27.4a40.9,40.9,0,0,0-7.9-3.7,4,4,0,0,0-2.1,7.8l1.9.7c-.9-.3.1.1.2.2l.8.3a26,26,0,0,1,3.6,2.1l1.4.9.9.6c.1.1,1,.8.2.2a26.9,26.9,0,0,1,3.2,2.7,77,77,0,0,1,5.4,6c.8.9-.4-.6.3.3l.4.6,1.3,1.8,2.4,3.7a78.8,78.8,0,0,1,4,7.6l.9,2,.3.7c.5,1.2-.2-.7.2.4s1.1,2.8,1.6,4.2a83.2,83.2,0,0,1,4.4,16.8c.1.1.2,1.4.1.6s.1.8.2,1.2.1,1.5.2,2.2.2,3.2.2,4.9a76.9,76.9,0,0,1-.6,9.5c.1-.7,0,0,0,.1s-.1.8-.2,1.2a20,20,0,0,1-.4,2.4c-.3,1.6-.7,3.1-1.1,4.7a65.1,65.1,0,0,1-3,8.8c.3-.7-.2.6-.2.6l-.3.7c-.4.8-.7,1.5-1.1,2.2s-1.5,2.9-2.3,4.3l-2.4,3.8-1.4,2.1-.5.6-.5.7h-.1a55.8,55.8,0,0,1-6.1,6.7l-3.2,2.9-.9.8c-1.1.8.6-.4-.5.3l-1.9,1.4a41.1,41.1,0,0,1-16.7,7h-1.3l-2.4.3h-4.8l-4.4-.3H94.4l-2.8-.5a47.9,47.9,0,0,1-8.9-2.7l-.6-.2-.9-.4-2-.9L75,160.3a55.8,55.8,0,0,1-13.3-11.6,31.5,31.5,0,0,1-2.2-2.9,48.1,48.1,0,0,1-2.7-4.1,70.5,70.5,0,0,1-4.2-8.2c0,.2.2.6-.1-.1s-.3-.7-.4-1.1a14.3,14.3,0,0,1-.8-2.2c-.5-1.4-1-2.9-1.4-4.4a68.7,68.7,0,0,1-1.8-8.8c.1.8-.1-.4-.1-.5a2.2,2.2,0,0,0-.1-.8c-.1-.8-.1-1.5-.2-2.3s-.2-3.1-.2-4.7a68,68,0,0,1,.6-9s.1-1.3,0-.4.1-.8.2-1.2l.3-1.9c.3-1.6.6-3.1,1-4.6a86.3,86.3,0,0,1,2.8-8.6l.4-1,.2-.5.8-1.8,2.1-4.2a91,91,0,0,1,5.1-8l.5-.6c0-.1.8-1.1.3-.5l1.5-1.8c1.1-1.3,2.1-2.5,3.2-3.6a59.5,59.5,0,0,1,7-6.3l.5-.4.6-.5,2-1.4c1.4-.9,2.8-1.8,4.3-2.6l4-2.1,1.2-.5.5-.2L89,46a39.6,39.6,0,0,1,4.6-1.3l2.6-.6,1.1-.2h.9a43.5,43.5,0,0,1,10.2-.2,38.7,38.7,0,0,1,9.4,2,4,4,0,1,0,2.1-7.8Z"/><ellipse class="d" cx="121.3" cy="183.1" rx="20.2" ry="12"/><path class="c" d="M137.2,181.9c-1.2-4-5.5-9.1-13.1-11.7h0a42.1,42.1,0,0,0-7.2-1.8l1.5.4a33.8,33.8,0,0,1,10.8,4.9h0c4.8,3.7,3.5,8.2.1,11.1s-10.4,4.6-19,4.3a57.6,57.6,0,0,1-9-1,48.4,48.4,0,0,0,16.2,4.2,30.9,30.9,0,0,0,11.9-1.1C135.6,189.3,138.5,185.9,137.2,181.9Z"/><ellipse class="e" cx="120.4" cy="182.6" rx="20.2" ry="12"/><ellipse class="d" cx="79.6" cy="183.1" rx="20.2" ry="12"/><path class="c" d="M95.6,181.9c-1.3-4-5.5-9.1-13.1-11.7h-.1a39.9,39.9,0,0,0-7.2-1.8l1.5.4a33.8,33.8,0,0,1,10.8,4.9h0c4.9,3.7,3.5,8.2.2,11.1s-10.5,4.6-19.1,4.3a56.4,56.4,0,0,1-8.9-1,47.8,47.8,0,0,0,16.2,4.2,31.1,31.1,0,0,0,11.9-1.1C93.9,189.3,96.8,185.9,95.6,181.9Z"/><ellipse class="e" cx="78.7" cy="182.6" rx="20.2" ry="12"/><path class="a" d="M165,11.2c-3.4-3.4-9.5-5.5-15.7-5.9a47.5,47.5,0,0,0-18.1,2.4c-13.8,4.5-20.7,21.1-23.7,30.7l-.4.6h0c5.7-5.1,14.6-11.9,22.7-12.4,6.1-.4,12.2.3,18.3.3s12.7-1.2,16.5-4.3S168.3,14.7,165,11.2Z"/><path class="b" d="M167.9,8.3c-4.7-4.6-11.4-6.4-17.7-7a48.7,48.7,0,0,0-20.4,2.6c-9.9,3.4-16.7,11.8-21.2,20.9-1.2,2.4-2.3,4.9-3.3,7.4s-.7,2-1,3a8.8,8.8,0,0,0-.5,1.5c-.3.9-.2-.2.1-.3s-.3.4-.3.5a3.9,3.9,0,0,0,.6,4.9h.1a4.1,4.1,0,0,0,5.7,0l2.5-2.1,1.5-1.2c0-.1.6-.5.1-.1l.9-.7a45.9,45.9,0,0,1,6.6-4.2l1.4-.8.9-.4c.2-.1,1-.4.4-.2l3.5-1.1,1.6-.3h5.7c5.9,0,11.8.7,17.6.1s11.1-1.8,15.2-5.6a11.6,11.6,0,0,0,3.7-8.3,13.7,13.7,0,0,0-3.7-8.6,4.3,4.3,0,0,0-5.8,0,4.3,4.3,0,0,0,0,5.8c.2.2.4.3.5.5s0,.1.1.2a2.1,2.1,0,0,1,.4.6c.1.3.3.9.1.1l.3,1.3c-.2-1.2-.2,1.3,0,.1l-.3,1.3c.2-.8-.2.2-.4.5s.3-.2-.1.2l-.5.5c-.1.1-.8.6-.3.3l-.6.4-1.2.7-.9.4h0l-3.5,1-1.6.3h-.7c.5-.1-.4,0-.5,0a23.1,23.1,0,0,1-3.7.3c-5.7.2-11.4-.5-17-.3a30.6,30.6,0,0,0-14.7,4,73,73,0,0,0-13.2,9.6h5.6l.7,4.9c1-1.4,1.4-3.4,2-5.1a27.7,27.7,0,0,1,1-2.6c.1-.3.7-1.7.2-.7l.6-1.3a65.4,65.4,0,0,1,3-5.9l1.8-2.8.9-1.3a1,1,0,0,1,.4-.5,2.1,2.1,0,0,1,.4-.6c-.3.4-.3.5-.2.2s2.9-3.3,4.6-4.8l.7-.5c.1-.2.7-.6,0-.1l1.4-.9,2.9-1.7.8-.3c-.8.3-.3.1-.1,0l1.7-.6,4.8-1.3a36.5,36.5,0,0,1,8.8-1,26.5,26.5,0,0,1,9.3,1.3l2.1.7.5.2,1,.6a11.8,11.8,0,0,1,1.9,1.1c.2.1.5.5,0,0a9.4,9.4,0,0,1,1,1,4.2,4.2,0,0,0,5.8,0A4.3,4.3,0,0,0,167.9,8.3Z"/><path class="c" d="M162.4,7.7a9.2,9.2,0,0,1-1.9,5.1c-3.1,3.9-9,6.1-14.7,7.2s-11.6,1.2-17.2,2.6a21.9,21.9,0,0,0-7.5,4,7.9,7.9,0,0,1,1.9,2.5,18.3,18.3,0,0,1,7.1-2.7c5.7-.8,11.5-.4,17.3-.8s11.9-2,15.3-5.6S165.7,11.3,162.4,7.7Z"/><path class="b" d="M167.9,8.3c-4.7-4.6-11.4-6.4-17.7-7a48.7,48.7,0,0,0-20.4,2.6c-9.9,3.4-16.7,11.8-21.2,20.9-1.2,2.4-2.3,4.9-3.3,7.4s-.7,2-1,3a8.8,8.8,0,0,0-.5,1.5c-.3.9-.2-.2.1-.3s-.3.4-.3.5a3.9,3.9,0,0,0,.6,4.9h.1a4.1,4.1,0,0,0,5.7,0l2.5-2.1,1.5-1.2c0-.1.6-.5.1-.1l.9-.7a45.9,45.9,0,0,1,6.6-4.2l1.4-.8.9-.4c.2-.1,1-.4.4-.2l3.5-1.1,1.6-.3h5.7c5.9,0,11.8.7,17.6.1s11.1-1.8,15.2-5.6a11.6,11.6,0,0,0,3.7-8.3,13.7,13.7,0,0,0-3.7-8.6,4.3,4.3,0,0,0-5.8,0,4.3,4.3,0,0,0,0,5.8c.2.2.4.3.5.5s0,.1.1.2a2.1,2.1,0,0,1,.4.6c.1.3.3.9.1.1l.3,1.3c-.2-1.2-.2,1.3,0,.1l-.3,1.3c.2-.8-.2.2-.4.5s.3-.2-.1.2l-.5.5c-.1.1-.8.6-.3.3l-.6.4-1.2.7-.9.4h0l-3.5,1-1.6.3h-.7c.5-.1-.4,0-.5,0a23.1,23.1,0,0,1-3.7.3c-5.7.2-11.4-.5-17-.3a30.6,30.6,0,0,0-14.7,4,73,73,0,0,0-13.2,9.6h5.6l.7,4.9c1-1.4,1.4-3.4,2-5.1a27.7,27.7,0,0,1,1-2.6c.1-.3.7-1.7.2-.7l.6-1.3a65.4,65.4,0,0,1,3-5.9l1.8-2.8.9-1.3a1,1,0,0,1,.4-.5,2.1,2.1,0,0,1,.4-.6c-.3.4-.3.5-.2.2s2.9-3.3,4.6-4.8l.7-.5c.1-.2.7-.6,0-.1l1.4-.9,2.9-1.7.8-.3c-.8.3-.3.1-.1,0l1.7-.6,4.8-1.3a36.5,36.5,0,0,1,8.8-1,26.5,26.5,0,0,1,9.3,1.3l2.1.7.5.2,1,.6a11.8,11.8,0,0,1,1.9,1.1c.2.1.5.5,0,0a9.4,9.4,0,0,1,1,1,4.2,4.2,0,0,0,5.8,0A4.3,4.3,0,0,0,167.9,8.3Z"/><rect class="f" x="68.1" y="72" width="63.2" height="29.29" rx="5.4"/><circle class="g" cx="91.9" cy="88.1" r="2.6"/><circle class="g" cx="76.3" cy="88.1" r="2.6"/><circle class="g" cx="80.9" cy="82.9" r="2.6"/><circle class="g" cx="87.3" cy="82.9" r="2.6"/><circle class="g" cx="123.1" cy="88.1" r="2.6"/><circle class="g" cx="107.5" cy="88.1" r="2.6"/><circle class="g" cx="112.2" cy="82.9" r="2.6"/><circle class="g" cx="118.5" cy="82.9" r="2.6"/><rect class="h" x="60" y="115.3" width="79.5" height="31.21" rx="7.7"/><path class="a" d="M68.9,124.9h2.3v12.7H68.9Zm.9,0h6.1v2.2H69.8Zm0,5.4h5.4v2.2H69.8Z"/><path class="a" d="M79.6,137.6H77.2V124.9h2.4Z"/><path class="a" d="M81.6,124.9h2.3l3.9,9.1-.2.3v-9.4h2.1v12.7H87.4l-3.9-8.8.2-.3v9.1H81.6Z"/><path class="a" d="M94.1,137.6H91.7V124.9h2.4Z"/><path class="a" d="M97.7,137.4a3,3,0,0,1-1.3-.9,2.7,2.7,0,0,1-.8-1.6l2.1-.9a2.4,2.4,0,0,0,.8,1.1,1.7,1.7,0,0,0,1.2.4,2.1,2.1,0,0,0,1.2-.3,1,1,0,0,0,.4-.9v-.6a.8.8,0,0,0-.2-.7l-.6-.4-1.1-.4h-.2l-1.7-.6a3.5,3.5,0,0,1-1.1-1,3.6,3.6,0,0,1-.5-1.9v-.4a4.1,4.1,0,0,1,.5-1.9,3,3,0,0,1,1.3-1.2,6.7,6.7,0,0,1,2.2-.4,4.1,4.1,0,0,1,1.6.3,2.7,2.7,0,0,1,1.2.9,4.8,4.8,0,0,1,.8,1.6l-2.1.9a2.1,2.1,0,0,0-.7-1.1,1.8,1.8,0,0,0-1-.4,1.8,1.8,0,0,0-1.1.3,1.1,1.1,0,0,0-.4.9v.4a1,1,0,0,0,.3.8,1,1,0,0,0,.6.5l1.1.4h.2a.1.1,0,0,1,.1.1h.1l1.5.6a2.7,2.7,0,0,1,1.1,1,3.4,3.4,0,0,1,.4,1.8v.6a2.9,2.9,0,0,1-1.8,3.1,7.2,7.2,0,0,1-2.2.4A3.8,3.8,0,0,1,97.7,137.4Z"/><path class="a" d="M105.3,124.9h2.3v12.7h-2.3Zm1.1,5.3h5.9v2.2h-5.9Zm4.4-5.3h2.3v12.7h-2.3Z"/><path class="a" d="M115.3,124.9h2.2v12.7h-2.2Zm.9,0h6.2v2.2h-6.2Zm0,5.3h5.5v2.2h-5.5Zm0,5.2h6.2v2.2h-6.2Z"/><path class="a" d="M124,124.9h2.3v12.7H124Zm1.4,10.5h2.3a1.7,1.7,0,0,0,1.3-.4,1.6,1.6,0,0,0,.4-1.2v-5.1a1.6,1.6,0,0,0-.4-1.2,1.7,1.7,0,0,0-1.3-.4h-2.3v-2.2h2.4a4.6,4.6,0,0,1,2.1.4,2.9,2.9,0,0,1,1.4,1.3,3.9,3.9,0,0,1,.5,2v5.3a4.2,4.2,0,0,1-.5,2,2.7,2.7,0,0,1-1.3,1.3,5.1,5.1,0,0,1-2.2.4h-2.4Z"/><ellipse class="i" cx="149" cy="129" rx="21.3" ry="10.4" transform="translate(-26.2 219.1) rotate(-68.1)"/><path class="c" d="M141.1,147.5c-2.1-3.3-3.8-9.9-2.7-18.4h0c.4-2.5.9-5.1,1.5-7.6l-.3,1.6a51.4,51.4,0,0,0-.8,12.6h0c.5,6.5,3.9,7.7,7.1,6.2s6.9-7.1,9.9-15.2a69.9,69.9,0,0,0,2.7-8.8,78,78,0,0,1-3.3,17.2,40,40,0,0,1-5.2,10.4C146.5,150.1,143.2,150.9,141.1,147.5Z"/><ellipse class="j" cx="149" cy="129" rx="21.3" ry="10.4" transform="translate(-22.6 225.9) rotate(-70.4)"/><ellipse class="k" cx="50.2" cy="129" rx="10.8" ry="21.4" transform="matrix(0.93, -0.36, 0.36, 0.93, -42.95, 26.61)"/><path class="c" d="M58,147.6c-3.8-.6-9.5-3.8-14.4-10.1h0a62.5,62.5,0,0,1-4-6l.9,1.2a40.3,40.3,0,0,0,7.8,8.8h0c4.8,3.9,8.1,2.2,9.5-1s.4-9.6-2.7-17a78.4,78.4,0,0,0-3.9-7.6,58.9,58.9,0,0,1,9,13.5,30.9,30.9,0,0,1,3,10.5C63.7,145.4,61.8,148.3,58,147.6Z"/><ellipse class="l" cx="50.2" cy="129" rx="10.8" ry="21.4" transform="matrix(0.93, -0.36, 0.36, 0.93, -42.95, 26.61)"/></svg>