<?xml version="1.0" encoding="utf-8"?>
<!-- Generator: Adobe Illustrator 27.8.1, SVG Export Plug-In . SVG Version: 6.00 Build 0)  -->
<svg version="1.1" xmlns="http://www.w3.org/2000/svg" xmlns:xlink="http://www.w3.org/1999/xlink" x="0px" y="0px"
	 viewBox="0 0 841.89 1190.55" style="enable-background:new 0 0 841.89 1190.55;" xml:space="preserve">
<style type="text/css">
	.st0{display:none;}
	.st1{display:inline;fill:#C8C8C8;stroke:#000000;stroke-miterlimit:10;}
	.st2{display:inline;}
	.st3{fill:#FFFFFF;}
	.st4{fill:#4E4D4D;stroke:#4E4D4D;stroke-width:21;stroke-miterlimit:10;}
	.st5{display:none;fill:#CDCCCC;}
	.st6{fill:#4E4D4D;}
	.st7{fill:#FFFFFF;stroke:#4E4D4D;stroke-width:19.6069;stroke-miterlimit:10;}
	.st8{fill:#CDCCCC;}
	.st9{fill:#020203;stroke:#020203;stroke-width:7.8427;stroke-miterlimit:10;}
	.st10{fill:none;stroke:#4E4D4D;stroke-width:21;stroke-miterlimit:10;}
	.st11{fill:#FFCC07;}
	.st12{fill:#1957A4;}
	.st13{opacity:0.3;}
	.st14{fill:#2D2E83;}
	.st15{fill:#E62336;}
	.st16{fill:#BE1622;}
	.st17{fill:none;stroke:#4E4D4D;stroke-width:12;stroke-miterlimit:10;}
	.st18{fill:#EDEDED;}
	.st19{fill:#B7331B;}
	.st20{fill:none;stroke:#575756;stroke-width:6;stroke-miterlimit:10;}
	.st21{fill:#FFFFFF;stroke:#4F4E4E;stroke-width:11.272;stroke-miterlimit:10;}
	.st22{fill:#CDCBCB;}
	.st23{fill:none;stroke:#4F4E4E;stroke-width:11.272;stroke-miterlimit:10;}
	.st24{fill:#E62336;stroke:#575756;stroke-width:10;stroke-miterlimit:10;}
	.st25{fill:#FFFFFF;stroke:#4F4E4E;stroke-width:11.0242;stroke-miterlimit:10;}
	.st26{fill:none;stroke:#4F4E4E;stroke-width:11.0242;stroke-miterlimit:10;}
	.st27{fill:none;stroke:#575756;stroke-width:10;stroke-miterlimit:10;}
	.st28{fill:#F6F6F6;stroke:#575756;stroke-width:3;stroke-miterlimit:10;}
	.st29{fill:#F6F6F6;}
	.st30{fill:#575756;}
</style>
<g id="background" class="st0">
	<rect x="1" y="-1" class="st1" width="846" height="1195"/>
</g>
<g id="Schadow" class="st0">
	<g class="st2">
		<path class="st3" d="M321.01,1027.25c-1.8,0-3.64-0.03-5.45-0.08c-29.51-0.92-57.23-9.22-78.04-23.38
			c-22.77-15.48-34.93-36.17-34.24-58.26c0.77-24.86,18.05-46.62,45.34-60.13c-0.01-0.01-2.72-2.41-3.2-2.85l-1.8-1.64
			c-0.46-0.42-0.92-0.84-1.38-1.26c-0.34-0.31-2.69-2.51-3.14-2.93c-0.38-0.36-2.7-2.58-3.12-2.99c0,0-2.66-2.61-3.09-3.03
			c-0.4-0.4-2.64-2.64-3.05-3.07c-0.45-0.46-2.64-2.71-3.03-3.12c0,0-2.64-2.77-3.02-3.18c-0.48-0.51-1.76-1.88-1.76-1.88
			c-0.41-0.44-0.81-0.87-1.21-1.31c-0.44-0.48-1.81-1.99-1.81-1.99l-1.13-1.25c-0.53-0.58-1.04-1.17-1.56-1.75
			c-0.44-0.5-0.9-1.01-1.35-1.52c-0.45-0.51-1.71-1.97-1.71-1.97l-1.18-1.36c-0.52-0.6-1.02-1.2-1.53-1.79
			c-0.49-0.57-0.91-1.07-1.33-1.56c-0.53-0.63-1.05-1.26-1.58-1.89l-1.23-1.49c-0.54-0.66-1.68-2.06-1.68-2.06l-1.11-1.37
			c-0.54-0.67-1.07-1.33-1.6-2l-1.15-1.45c-0.54-0.68-1.07-1.37-1.6-2.05l-1.11-1.44c-0.53-0.69-1.07-1.4-1.61-2.1l-1.06-1.41
			c-0.54-0.71-1.08-1.43-1.61-2.16l-1.02-1.38c-0.54-0.73-1.08-1.47-1.62-2.21l-0.97-1.35c-0.54-0.75-1.08-1.51-1.62-2.27
			l-0.93-1.32c-0.54-0.77-1.09-1.55-1.63-2.34l-0.87-1.27c-0.55-0.8-1.1-1.6-1.64-2.4l-0.83-1.23c-0.55-0.82-1.11-1.65-1.65-2.48
			l-0.77-1.17c-0.56-0.84-1.11-1.7-1.67-2.55l-0.7-1.09c-0.57-0.89-1.13-1.77-1.69-2.66l-0.63-1.01c-0.58-0.93-1.15-1.84-1.72-2.76
			l-0.56-0.92c-0.58-0.95-1.16-1.91-1.74-2.87l-0.5-0.83c-0.58-0.98-1.17-1.97-1.75-2.96l-0.44-0.77c-0.58-1-1.18-2.03-1.77-3.07
			l-0.36-0.64c-0.59-1.04-1.19-2.11-1.79-3.19l-0.26-0.46c-0.63-1.14-1.25-2.27-1.86-3.39l-0.17-0.33
			c-0.62-1.16-1.26-2.35-1.89-3.54l-0.08-0.15c-1.01-1.93-2.02-3.89-3.01-5.87c-20.81-18.59-36.56-39.68-44.51-59.65
			c-6.22-15.64-7.58-29.84-4.03-42.2c2.77-9.66,8.6-17.76,16.77-23.51c-0.15-4.15-0.33-8.86-0.77-15.11
			c-0.3-4.21,1.17-8.39,4.03-11.47c2.65-2.85,6.13-4.54,10.37-5.04c0.02-6.16,0.2-12.33,0.55-18.5c-1.81-1-3.64-2.29-5.32-3.98
			c-7.96-8.01-7.23-18.9-6.93-23.55c2.99-45.23,14.9-90.54,34.44-131.05c20.52-42.53,48.35-78.57,82.73-107.12
			c50.93-42.3,117.65-66.57,183.06-66.57c13.64,0,27.2,1.05,40.44,3.12c14.49-26.49,30.36-49.03,47.25-67.1
			c25.27-27.03,52.85-44.03,81.97-50.51c19.72-4.39,39.33-6.62,58.29-6.62c14.35,0,28.32,1.3,41.52,3.85
			c37.04,7.17,68.8,25.02,84.96,47.75c9.91,13.93,13.88,30.13,11.19,45.61c-2.55,14.7-11.12,27.78-24.13,36.84
			c-16.61,11.58-40.16,17.45-69.99,17.45c0,0,0,0-0.01,0c-8.42,0-17.28-0.48-26.35-1.43c-13.4-1.4-26.72-3.58-39.61-5.69
			c-18.19-2.98-35.38-5.8-52.82-6.62c-0.99-0.05-2.02-0.07-3.04-0.07c-11.43,0-24.48,2.87-39,8.56
			c35.38,17.16,66.96,42.55,90.95,73.47c47.96,61.84,61.51,139.39,68.43,207.1l0.05,0.46c0.47,4.49,0.56,9.39-3.91,15.54
			c-2.1,2.9-4.67,4.87-7.18,6.25c0.45,8.59,0.58,17.22,0.38,25.85c10.08,1.91,13.1,9.56,13.83,12.14c0.09,0.31,0.18,0.63,0.27,0.96
			c0,0,0.21,0.79,0.26,1.01l0.31,1.29l0.14,0.62l0.18,0.9l0.87,0.76l0,5.97c0.07,1.23,0.11,2.5,0.09,3.78l0,0.12
			c0,0.34-0.01,0.69-0.02,1.03l0,0.14c-0.01,0.34-0.02,0.68-0.04,1.03l-0.01,0.15l-0.07,1.24c-0.02,0.27-0.08,1.11-0.08,1.11
			s-0.06,0.66-0.08,0.97l1.24,0.01l-4.08,17.27c-0.51,2.15-1.03,4.31-1.57,6.48c10.13,5.93,17.22,14.34,20.42,24.46
			c3.46,10.96,4,28.83-13.12,51.74c-11.62,15.55-28.93,30.12-50.35,42.43c-0.49,15.76-4.78,30.11-12.79,42.74
			c-11.54,18.21-29.98,31.16-53.47,37.61c-5.14,4.73-10.48,9.38-16.08,14.02c8.87,3.81,16.95,8.45,23.96,13.78
			c18.61,14.19,28.86,32.72,28.86,52.17c0,22.1-12.8,42.4-36.03,57.17c-21.24,13.5-49.21,20.94-78.73,20.94
			c-39.54,0-75.22-13.42-95.95-34.84C395.55,1013.82,360.5,1027.25,321.01,1027.25z"/>
	</g>
</g>
<g id="Elas">
	<ellipse id="Opvulling" class="st4" cx="410.5" cy="914" rx="41.5" ry="17"/>
	<g id="Elas_00000175281627188676380080000001909873184743145608_">
		<ellipse class="st5" cx="415.12" cy="1007" rx="335.89" ry="67.83"/>
		<g>
			<path class="st3" d="M501.75,303.91c-45.96-15.9-97.62-13.62-142.87,1.96c-45.26,15.58-84.37,43.8-115.74,77.52
				c-76.76,82.53-107.08,200.49-79.21,308.21c16.73,64.69,54.56,126.38,112.02,167.1c57.46,40.71,135.36,58.19,203.14,38.51
				c50.75-14.73,92.61-48.56,123.79-88.13c60.9-77.29,84.23-179.38,62.73-274.53s-77.23-200.39-163.34-230.13"/>
			<g>
				<path class="st6" d="M504.88,292.57c-64.19-22-136.18-10.51-194.52,22.35c-52.93,29.81-96.6,76.39-125.61,129.54
					c-28.41,52.05-43.48,111.38-42.74,170.71c0.74,59.01,17.18,117.92,48.23,168.2c15.7,25.42,35.11,48.78,57.76,68.29
					c23.94,20.62,50.94,36.72,80.42,48.07c28.45,10.95,59.07,16.99,89.58,17.33c31.25,0.35,61.94-5.82,90.63-18.14
					c55.52-23.85,100.13-70.13,130.17-121.8c30.93-53.19,47.24-114.88,46.39-176.42c-0.8-57.96-17.5-115.6-42.31-167.7
					c-23.11-48.55-56.51-95.42-103.12-123.8c-10.82-6.59-22.39-11.96-34.35-16.13c-5.82-2.03-13.12,2.3-14.47,8.22
					c-1.49,6.56,1.99,12.3,8.22,14.47c2.75,0.96,5.47,1.99,8.17,3.08c2.58,1.04-2.43-1.09,0.11,0.05c0.72,0.32,1.45,0.64,2.18,0.96
					c1.45,0.65,2.88,1.33,4.31,2.02c5.49,2.67,10.83,5.66,16.01,8.9c2.49,1.56,4.95,3.19,7.36,4.87c1.1,0.77,2.2,1.55,3.28,2.34
					c0.65,0.48,1.3,0.96,1.95,1.44c0.55,0.41,3.62,2.41,0.84,0.62c4.92,3.17,9.42,7.71,13.7,11.67c9.45,8.75,18.14,18.31,26.15,28.4
					c0.35,0.45,0.7,0.9,1.06,1.34c1.83,2.3-1.52-2.02,0.26,0.33c1.04,1.37,2.08,2.74,3.1,4.13c1.88,2.55,3.73,5.13,5.53,7.74
					c3.81,5.51,7.45,11.14,10.93,16.87c7.06,11.62,13.45,23.65,19.24,35.95c1.33,2.83,2.63,5.67,3.9,8.52c0.66,1.5,1.32,3,1.97,4.5
					c0.35,0.82,0.71,1.64,1.05,2.46c-1.16-2.8,0.02,0.06,0.19,0.48c2.61,6.31,5.08,12.68,7.41,19.11
					c9.25,25.56,16.69,52.08,20.72,78.99c0.11,0.74,0.84,5.58,0.39,2.62c0.29,1.91,0.49,3.84,0.7,5.76
					c0.43,3.84,0.8,7.69,1.09,11.54c0.54,7.05,0.85,14.12,0.92,21.19c0.16,14.76-0.69,29.53-2.52,44.17
					c-0.01,0.06-0.41,3.2-0.16,1.3c0.25-1.9-0.17,1.23-0.18,1.3c-0.27,1.9-0.56,3.81-0.87,5.71c-0.59,3.64-1.23,7.27-1.94,10.89
					c-1.38,7.09-3,14.13-4.84,21.11c-3.77,14.3-8.5,28.34-14.14,42.01c-0.25,0.6-0.49,1.19-0.74,1.78c1.1-2.63-0.16,0.36-0.33,0.75
					c-0.77,1.77-1.55,3.54-2.35,5.3c-1.47,3.23-2.99,6.44-4.56,9.62c-3.29,6.67-6.81,13.22-10.55,19.65
					c-3.75,6.45-7.72,12.77-11.91,18.95c-2.01,2.97-4.06,5.9-6.17,8.79c-0.96,1.32-1.93,2.63-2.9,3.94
					c-0.59,0.78-1.18,1.56-1.77,2.34c-0.81,1.05-0.79,1.04,0.04-0.05c-0.3,0.39-0.6,0.77-0.91,1.16
					c-8.77,11.16-18.28,21.75-28.53,31.57c-5.22,5-10.64,9.81-16.24,14.38c-1.22,1-2.46,1.97-3.69,2.95
					c-2.48,1.99,1.93-1.44-0.61,0.48c-0.76,0.57-1.51,1.14-2.27,1.71c-2.78,2.07-5.61,4.09-8.48,6.05
					c-12.07,8.23-24.88,15.3-38.3,21.1c2.61-1.13-1.81,0.73-2.51,1.01c-1.79,0.71-3.59,1.39-5.4,2.05
					c-3.64,1.32-7.31,2.54-11.01,3.66c-6.68,2.01-13.47,3.66-20.32,4.96c-3.42,0.65-6.86,1.26-10.31,1.68
					c3.06-0.37-0.14,0-0.65,0.06c-0.94,0.11-1.89,0.22-2.84,0.32c-1.89,0.2-3.79,0.37-5.69,0.52c-7.3,0.57-14.62,0.78-21.94,0.64
					c-7.03-0.14-14.05-0.6-21.04-1.36c-0.96-0.1-1.91-0.21-2.86-0.33c-0.49-0.06-3.72-0.44-0.69-0.07c-1.59-0.19-3.18-0.45-4.76-0.7
					c-3.81-0.6-7.6-1.29-11.37-2.06c-14.49-2.97-28.72-7.22-42.48-12.63c-1.49-0.59-2.98-1.2-4.47-1.81
					c-2.99-1.23,2.22,0.99-0.74-0.32c-0.73-0.32-1.47-0.64-2.2-0.97c-3.37-1.49-6.7-3.06-10.01-4.7
					c-6.58-3.26-13.01-6.8-19.28-10.62c-6.24-3.8-12.32-7.88-18.2-12.22c-1.29-0.95-2.57-1.92-3.84-2.89
					c2.22,1.69-0.33-0.26-0.65-0.51c-0.75-0.59-1.5-1.19-2.25-1.79c-2.85-2.3-5.65-4.66-8.41-7.07
					c-10.8-9.47-20.84-19.81-30.03-30.84c-1-1.21-2-2.42-2.98-3.64c-0.59-0.73-1.18-1.47-1.76-2.21c-0.27-0.34-2.21-2.85-0.47-0.59
					c-2.29-2.98-4.52-6-6.69-9.07c-3.97-5.61-7.74-11.35-11.32-17.22c-7.43-12.2-13.99-24.93-19.66-38.05
					c-0.03-0.06-1.22-2.87-0.5-1.16c0.72,1.71-0.45-1.1-0.48-1.16c-0.7-1.71-1.39-3.43-2.07-5.16c-1.29-3.3-2.52-6.62-3.7-9.96
					c-2.29-6.51-4.37-13.1-6.24-19.74c-3.86-13.76-6.73-27.76-8.75-41.91c-0.32-2.22-0.02-0.02,0.05,0.36
					c-0.15-0.91-0.24-1.85-0.35-2.77c-0.21-1.69-0.4-3.39-0.58-5.08c-0.37-3.54-0.69-7.09-0.95-10.64
					c-0.51-7.09-0.79-14.21-0.84-21.32c-0.1-14.05,0.71-28.1,2.4-42.05c0.09-0.77,0.19-1.53,0.29-2.3c0.38-3.14-0.38,2.58,0.07-0.54
					c0.22-1.53,0.44-3.06,0.67-4.58c0.56-3.66,1.19-7.31,1.87-10.96c1.31-6.98,2.84-13.92,4.59-20.81
					c3.43-13.49,7.69-26.77,12.76-39.74c0.68-1.73,1.37-3.46,2.07-5.18c0.35-0.86,0.7-1.72,1.07-2.58c-0.16,0.36-0.97,2.25-0.1,0.24
					c1.48-3.42,2.99-6.82,4.58-10.19c3.04-6.47,6.28-12.85,9.72-19.12c6.77-12.32,14.31-24.21,22.57-35.57
					c1.11-1.52,2.23-3.03,3.36-4.54c0.38-0.5,0.76-1,1.14-1.5c1.91-2.53-1.5,1.89,0.46-0.6c2.34-2.97,4.7-5.91,7.12-8.81
					c4.69-5.59,9.56-11.03,14.6-16.3c10.11-10.55,20.9-20.45,32.36-29.53c0.77-0.61,1.54-1.21,2.31-1.81
					c-2.16,1.68,0.43-0.32,0.73-0.55c1.3-0.99,2.62-1.96,3.94-2.93c3.17-2.32,6.39-4.58,9.66-6.76c6.28-4.21,12.73-8.17,19.33-11.86
					c6.35-3.54,12.84-6.83,19.45-9.84c1.81-0.82,3.64-1.62,5.47-2.41c-2.23,0.96-0.15,0.07,0.41-0.16c0.77-0.32,1.54-0.63,2.31-0.94
					c3.72-1.49,7.48-2.88,11.26-4.19c7.64-2.63,15.41-4.87,23.28-6.7c3.79-0.88,7.59-1.67,11.42-2.37c1.74-0.32,3.49-0.61,5.23-0.89
					c1.05-0.17,2.1-0.32,3.15-0.48c2.84-0.44-1.52,0.16,1.09-0.15c16.23-1.96,32.59-2.42,48.88-0.91c1.77,0.16,3.53,0.35,5.29,0.56
					c0.33,0.04,3.84,0.5,1.09,0.12c1.05,0.15,2.11,0.3,3.16,0.46c3.85,0.6,7.69,1.3,11.5,2.12c7.63,1.64,15.15,3.74,22.53,6.27
					c5.83,2,13.12-2.28,14.47-8.22C514.58,300.5,511.12,294.71,504.88,292.57L504.88,292.57z"/>
			</g>
		</g>
		<g>
			<path class="st7" d="M481.91,872.31"/>
			<path class="st7" d="M575.14,927.9"/>
			<ellipse class="st7" cx="512.99" cy="950.66" rx="93.23" ry="55.59"/>
		</g>
		<g>
			<path class="st8" d="M672.87,534.56c-21.5-95.15-77.23-200.39-163.34-230.13l-0.53-0.51c-25.5-8.82-52.75-12.04-79.7-10.5
				c5.51,0.72,11.02,1.6,16.51,2.69c46.91,9.32,92.64,33.34,124.31,70.19l0.2,0.71c59.36,69,54.52,187.87,25.21,280.82
				c-29.31,92.95-100.81,169.33-192.26,205.4c-30.41,11.99-63.49,19.62-96.97,19.99c54.22,30.08,120.97,41.16,180.05,24.01
				c50.75-14.73,92.61-48.56,123.79-88.13C671.04,731.8,694.37,629.71,672.87,534.56z"/>
		</g>
		<g>
			<g>
				<path class="st6" d="M504.88,292.57c-64.19-22-136.18-10.51-194.52,22.35c-52.93,29.81-96.6,76.39-125.61,129.54
					c-28.41,52.05-43.48,111.38-42.74,170.71c0.74,59.01,17.18,117.92,48.23,168.2c15.7,25.42,35.11,48.78,57.76,68.29
					c23.94,20.62,50.94,36.72,80.42,48.07c28.45,10.95,59.07,16.99,89.58,17.33c31.25,0.35,61.94-5.82,90.63-18.14
					c55.52-23.85,100.13-70.13,130.17-121.8c30.93-53.19,47.24-114.88,46.39-176.42c-0.8-57.96-17.5-115.6-42.31-167.7
					c-23.11-48.55-56.51-95.42-103.12-123.8c-10.82-6.59-22.39-11.96-34.35-16.13c-5.82-2.03-13.12,2.3-14.47,8.22
					c-1.49,6.56,1.99,12.3,8.22,14.47c2.75,0.96,5.47,1.99,8.17,3.08c2.58,1.04-2.43-1.09,0.11,0.05c0.72,0.32,1.45,0.64,2.18,0.96
					c1.45,0.65,2.88,1.33,4.31,2.02c5.49,2.67,10.83,5.66,16.01,8.9c2.49,1.56,4.95,3.19,7.36,4.87c1.1,0.77,2.2,1.55,3.28,2.34
					c0.65,0.48,1.3,0.96,1.95,1.44c0.55,0.41,3.62,2.41,0.84,0.62c4.92,3.17,9.42,7.71,13.7,11.67c9.45,8.75,18.14,18.31,26.15,28.4
					c0.35,0.45,0.7,0.9,1.06,1.34c1.83,2.3-1.52-2.02,0.26,0.33c1.04,1.37,2.08,2.74,3.1,4.13c1.88,2.55,3.73,5.13,5.53,7.74
					c3.81,5.51,7.45,11.14,10.93,16.87c7.06,11.62,13.45,23.65,19.24,35.95c1.33,2.83,2.63,5.67,3.9,8.52c0.66,1.5,1.32,3,1.97,4.5
					c0.35,0.82,0.71,1.64,1.05,2.46c-1.16-2.8,0.02,0.06,0.19,0.48c2.61,6.31,5.08,12.68,7.41,19.11
					c9.25,25.56,16.69,52.08,20.72,78.99c0.11,0.74,0.84,5.58,0.39,2.62c0.29,1.91,0.49,3.84,0.7,5.76
					c0.43,3.84,0.8,7.69,1.09,11.54c0.54,7.05,0.85,14.12,0.92,21.19c0.16,14.76-0.69,29.53-2.52,44.17
					c-0.01,0.06-0.41,3.2-0.16,1.3c0.25-1.9-0.17,1.23-0.18,1.3c-0.27,1.9-0.56,3.81-0.87,5.71c-0.59,3.64-1.23,7.27-1.94,10.89
					c-1.38,7.09-3,14.13-4.84,21.11c-3.77,14.3-8.5,28.34-14.14,42.01c-0.25,0.6-0.49,1.19-0.74,1.78c1.1-2.63-0.16,0.36-0.33,0.75
					c-0.77,1.77-1.55,3.54-2.35,5.3c-1.47,3.23-2.99,6.44-4.56,9.62c-3.29,6.67-6.81,13.22-10.55,19.65
					c-3.75,6.45-7.72,12.77-11.91,18.95c-2.01,2.97-4.06,5.9-6.17,8.79c-0.96,1.32-1.93,2.63-2.9,3.94
					c-0.59,0.78-1.18,1.56-1.77,2.34c-0.81,1.05-0.79,1.04,0.04-0.05c-0.3,0.39-0.6,0.77-0.91,1.16
					c-8.77,11.16-18.28,21.75-28.53,31.57c-5.22,5-10.64,9.81-16.24,14.38c-1.22,1-2.46,1.97-3.69,2.95
					c-2.48,1.99,1.93-1.44-0.61,0.48c-0.76,0.57-1.51,1.14-2.27,1.71c-2.78,2.07-5.61,4.09-8.48,6.05
					c-12.07,8.23-24.88,15.3-38.3,21.1c2.61-1.13-1.81,0.73-2.51,1.01c-1.79,0.71-3.59,1.39-5.4,2.05
					c-3.64,1.32-7.31,2.54-11.01,3.66c-6.68,2.01-13.47,3.66-20.32,4.96c-3.42,0.65-6.86,1.26-10.31,1.68
					c3.06-0.37-0.14,0-0.65,0.06c-0.94,0.11-1.89,0.22-2.84,0.32c-1.89,0.2-3.79,0.37-5.69,0.52c-7.3,0.57-14.62,0.78-21.94,0.64
					c-7.03-0.14-14.05-0.6-21.04-1.36c-0.96-0.1-1.91-0.21-2.86-0.33c-0.49-0.06-3.72-0.44-0.69-0.07c-1.59-0.19-3.18-0.45-4.76-0.7
					c-3.81-0.6-7.6-1.29-11.37-2.06c-14.49-2.97-28.72-7.22-42.48-12.63c-1.49-0.59-2.98-1.2-4.47-1.81
					c-2.99-1.23,2.22,0.99-0.74-0.32c-0.73-0.32-1.47-0.64-2.2-0.97c-3.37-1.49-6.7-3.06-10.01-4.7
					c-6.58-3.26-13.01-6.8-19.28-10.62c-6.24-3.8-12.32-7.88-18.2-12.22c-1.29-0.95-2.57-1.92-3.84-2.89
					c2.22,1.69-0.33-0.26-0.65-0.51c-0.75-0.59-1.5-1.19-2.25-1.79c-2.85-2.3-5.65-4.66-8.41-7.07
					c-10.8-9.47-20.84-19.81-30.03-30.84c-1-1.21-2-2.42-2.98-3.64c-0.59-0.73-1.18-1.47-1.76-2.21c-0.27-0.34-2.21-2.85-0.47-0.59
					c-2.29-2.98-4.52-6-6.69-9.07c-3.97-5.61-7.74-11.35-11.32-17.22c-7.43-12.2-13.99-24.93-19.66-38.05
					c-0.03-0.06-1.22-2.87-0.5-1.16c0.72,1.71-0.45-1.1-0.48-1.16c-0.7-1.71-1.39-3.43-2.07-5.16c-1.29-3.3-2.52-6.62-3.7-9.96
					c-2.29-6.51-4.37-13.1-6.24-19.74c-3.86-13.76-6.73-27.76-8.75-41.91c-0.32-2.22-0.02-0.02,0.05,0.36
					c-0.15-0.91-0.24-1.85-0.35-2.77c-0.21-1.69-0.4-3.39-0.58-5.08c-0.37-3.54-0.69-7.09-0.95-10.64
					c-0.51-7.09-0.79-14.21-0.84-21.32c-0.1-14.05,0.71-28.1,2.4-42.05c0.09-0.77,0.19-1.53,0.29-2.3c0.38-3.14-0.38,2.58,0.07-0.54
					c0.22-1.53,0.44-3.06,0.67-4.58c0.56-3.66,1.19-7.31,1.87-10.96c1.31-6.98,2.84-13.92,4.59-20.81
					c3.43-13.49,7.69-26.77,12.76-39.74c0.68-1.73,1.37-3.46,2.07-5.18c0.35-0.86,0.7-1.72,1.07-2.58c-0.16,0.36-0.97,2.25-0.1,0.24
					c1.48-3.42,2.99-6.82,4.58-10.19c3.04-6.47,6.28-12.85,9.72-19.12c6.77-12.32,14.31-24.21,22.57-35.57
					c1.11-1.52,2.23-3.03,3.36-4.54c0.38-0.5,0.76-1,1.14-1.5c1.91-2.53-1.5,1.89,0.46-0.6c2.34-2.97,4.7-5.91,7.12-8.81
					c4.69-5.59,9.56-11.03,14.6-16.3c10.11-10.55,20.9-20.45,32.36-29.53c0.77-0.61,1.54-1.21,2.31-1.81
					c-2.16,1.68,0.43-0.32,0.73-0.55c1.3-0.99,2.62-1.96,3.94-2.93c3.17-2.32,6.39-4.58,9.66-6.76c6.28-4.21,12.73-8.17,19.33-11.86
					c6.35-3.54,12.84-6.83,19.45-9.84c1.81-0.82,3.64-1.62,5.47-2.41c-2.23,0.96-0.15,0.07,0.41-0.16c0.77-0.32,1.54-0.63,2.31-0.94
					c3.72-1.49,7.48-2.88,11.26-4.19c7.64-2.63,15.41-4.87,23.28-6.7c3.79-0.88,7.59-1.67,11.42-2.37c1.74-0.32,3.49-0.61,5.23-0.89
					c1.05-0.17,2.1-0.32,3.15-0.48c2.84-0.44-1.52,0.16,1.09-0.15c16.23-1.96,32.59-2.42,48.88-0.91c1.77,0.16,3.53,0.35,5.29,0.56
					c0.33,0.04,3.84,0.5,1.09,0.12c1.05,0.15,2.11,0.3,3.16,0.46c3.85,0.6,7.69,1.3,11.5,2.12c7.63,1.64,15.15,3.74,22.53,6.27
					c5.83,2,13.12-2.28,14.47-8.22C514.58,300.5,511.12,294.71,504.88,292.57L504.88,292.57z"/>
			</g>
		</g>
		<path class="st9" d="M543.72,578.89H283.48c-8.63,0-15.69-7.06-15.69-15.69V459.34c0-8.63,7.06-15.69,15.69-15.69h260.24
			c8.63,0,15.69,7.06,15.69,15.69v103.87C559.4,571.83,552.35,578.89,543.72,578.89z"/>
		<g>
			<path class="st8" d="M591.39,945.06c-5.69-18.48-25.42-41.6-60.54-54.04l-0.2-0.13c-10.4-3.69-21.74-6.54-33.11-8.54
				c2.29,0.59,4.57,1.21,6.84,1.86c19.38,5.57,37.74,13.63,49.76,22.74l0.06,0.14c22.51,17.08,16.32,37.49,0.75,51.31
				c-15.57,13.82-48.28,21.19-87.96,19.83c-13.19-0.45-27.35-1.9-41.43-4.65c21.72,9.83,49.37,17.38,74.79,19.34
				c21.83,1.68,40.6-0.72,55.09-5.04C583.71,979.46,597.08,963.54,591.39,945.06z"/>
		</g>
		<g>
			<path class="st10" d="M477.75,870.23"/>
			<path class="st10" d="M570.98,925.82"/>
			<ellipse class="st10" cx="508.83" cy="948.58" rx="93.23" ry="55.59"/>
		</g>
		<g>
			<path class="st7" d="M290.57,872.31"/>
			<path class="st7" d="M383.8,927.9"/>
			<ellipse class="st7" cx="321.65" cy="950.66" rx="93.23" ry="55.59"/>
		</g>
		<g>
			<path class="st8" d="M401.85,945.06c-5.69-18.48-25.42-41.6-60.54-54.04l-0.2-0.13c-10.4-3.69-21.74-6.54-33.11-8.54
				c2.29,0.59,4.57,1.21,6.84,1.86c19.38,5.57,37.74,13.63,49.76,22.74l0.06,0.14c22.51,17.08,16.32,37.49,0.75,51.31
				c-15.57,13.82-48.28,21.19-87.96,19.83c-13.19-0.45-27.35-1.9-41.43-4.65c21.72,9.83,49.37,17.38,74.79,19.34
				c21.83,1.68,40.6-0.72,55.09-5.04C394.17,979.46,407.55,963.54,401.85,945.06z"/>
		</g>
		<g>
			<path class="st10" d="M286.41,870.23"/>
			<path class="st10" d="M379.65,925.82"/>
			<ellipse class="st10" cx="317.49" cy="948.58" rx="93.23" ry="55.59"/>
		</g>
		<g>
			<circle class="st11" cx="377.56" cy="518.32" r="12.01"/>
			<circle class="st11" cx="305.48" cy="518.32" r="12.01"/>
			<circle class="st11" cx="326.83" cy="494.29" r="12.01"/>
			<circle class="st11" cx="356.2" cy="494.29" r="12.01"/>
			<circle class="st11" cx="521.72" cy="518.32" r="12.01"/>
			<circle class="st11" cx="449.64" cy="518.32" r="12.01"/>
			<circle class="st11" cx="471" cy="494.29" r="12.01"/>
			<circle class="st11" cx="500.37" cy="494.29" r="12.01"/>
		</g>
		<g>
			<g>
				<path class="st3" d="M763.61,203.53c-13.16-18.1-39.93-31.73-68.34-37.82c-28.41-6.09-58.19-5.26-85.2-0.56
					c-66.24,11.52-109.28,83.23-129.54,125.66l-2.3,2.27l0.38,0.5c29.62-19.55,74.94-44.76,112.5-41.86
					c28.3,2.19,56.05,9.57,84.27,13.26c28.22,3.7,59.25,3.08,78.77-8.83C774.13,243.95,776.78,221.63,763.61,203.53z"/>
				<g>
					<path class="st6" d="M773.77,197.59c-3.82-5.21-8.02-9.97-12.95-14.14c-5.29-4.47-10.95-8.5-16.95-11.95
						c-12.2-7.03-25.65-12.2-39.27-15.68c-30.72-7.85-62.94-7.59-94.09-2.61c-11.96,1.91-23.24,5.48-34.23,10.55
						c-10.57,4.87-20.18,11.27-29.34,18.39c-17.55,13.63-32.19,30.61-45.05,48.64c-10.99,15.39-20.52,31.8-28.91,48.74
						c-0.88,1.77-1.74,3.55-2.6,5.34c0.61-0.79,1.23-1.59,1.84-2.38c-0.77,0.76-1.53,1.51-2.3,2.27c-1.85,1.82-2.89,4.22-3.24,6.75
						c-0.32,2.37-0.1,5.5,1.4,7.5c0.13,0.17,0.25,0.34,0.38,0.5c1.82,2.43,3.9,4.69,7.03,5.41c2.99,0.68,6.42,0.56,9.06-1.19
						c13.15-8.67,26.71-16.74,40.86-23.67c4.3-2.1,8.65-4.1,13.06-5.96c-0.94,0.4-1.87,0.79-2.81,1.19
						c12.79-5.37,26.13-9.72,39.91-11.59c-1.04,0.14-2.08,0.28-3.13,0.42c5.08-0.67,10.22-1,15.34-0.83
						c6.25,0.21,12.51,1.01,18.71,1.84c-1.04-0.14-2.08-0.28-3.13-0.42c33.17,4.49,65.83,13.76,99.5,14.02
						c7.71,0.06,15.36-0.43,22.99-1.46c7.08-0.95,14.1-2.31,20.83-4.77c7.74-2.82,14.68-6.48,21-11.78
						c5.86-4.91,10-11.26,12.88-18.27C786.59,227.75,782.86,210.2,773.77,197.59c-1.84-2.55-3.9-4.54-7.03-5.41
						c-2.82-0.78-6.57-0.43-9.06,1.19c-2.51,1.62-4.72,4.03-5.41,7.03c-0.66,2.92-0.64,6.53,1.19,9.06c2,2.77,3.7,5.72,5.06,8.85
						c-0.4-0.94-0.79-1.87-1.19-2.81c1.33,3.17,2.28,6.47,2.75,9.88c-0.14-1.04-0.28-2.08-0.42-3.13c0.39,3.02,0.4,6.06,0,9.08
						c0.14-1.04,0.28-2.08,0.42-3.13c-0.4,2.75-1.13,5.42-2.2,7.99c0.4-0.94,0.79-1.87,1.19-2.81c-1.13,2.64-2.58,5.1-4.33,7.37
						c0.61-0.79,1.23-1.59,1.84-2.38c-1.99,2.53-4.28,4.77-6.82,6.75c0.79-0.61,1.59-1.23,2.38-1.84c-3.51,2.67-7.37,4.78-11.42,6.5
						c0.94-0.4,1.87-0.79,2.81-1.19c-7.14,2.98-14.71,4.72-22.35,5.77c1.04-0.14,2.08-0.28,3.13-0.42
						c-16.58,2.21-33.48,1.31-50.02-0.89c1.04,0.14,2.08,0.28,3.13,0.42c-15.4-2.08-30.63-5.2-45.92-7.95
						c-8.4-1.51-16.81-2.85-25.27-3.97c-6.93-0.92-13.95-1.83-20.95-1.85c-13.26-0.04-26.62,2.67-39.21,6.69
						c-13.16,4.2-25.9,9.85-38.16,16.18c-12.13,6.26-23.83,13.32-35.22,20.83c5.37,1.41,10.73,2.81,16.1,4.22
						c-0.13-0.17-0.25-0.34-0.38-0.5c-0.61,4.75-1.23,9.5-1.84,14.26c1.83-1.81,3.59-3.52,4.74-5.9c0.96-1.99,1.93-3.96,2.92-5.93
						c2.14-4.27,4.36-8.51,6.66-12.7c5.07-9.26,10.52-18.31,16.4-27.07c3.6-5.36,7.36-10.6,11.31-15.71
						c-0.61,0.79-1.23,1.59-1.84,2.38c8.39-10.84,17.59-21.08,27.84-30.19c2.92-2.59,5.92-5.09,9-7.48
						c-0.79,0.61-1.59,1.23-2.38,1.84c9.38-7.24,19.54-13.46,30.45-18.1c-0.94,0.4-1.87,0.79-2.81,1.19
						c10.97-4.62,22.34-7.13,34.1-8.73c-1.04,0.14-2.08,0.28-3.13,0.42c20.21-2.71,40.75-3.12,60.99-0.44
						c-1.04-0.14-2.08-0.28-3.13-0.42c14.63,1.98,29,5.59,42.62,11.3c-0.94-0.4-1.87-0.79-2.81-1.19
						c9.26,3.92,18.16,8.76,26.14,14.9c-0.79-0.61-1.59-1.23-2.38-1.84c4.87,3.78,9.36,8.03,13.14,12.91
						c-0.61-0.79-1.23-1.59-1.84-2.38c0.31,0.4,0.61,0.81,0.91,1.21c1.87,2.55,3.87,4.54,7.03,5.41c2.82,0.78,6.57,0.43,9.06-1.19
						c2.51-1.62,4.72-4.03,5.41-7.03C775.62,203.75,775.61,200.1,773.77,197.59z"/>
				</g>
			</g>
		</g>
		<g>
			<path class="st8" d="M755.79,190.22c-1.5,7.87-5.45,15.46-12.08,21.9c-16.65,16.15-45.6,22.35-72.53,23.46
				c-26.92,1.11-53.9-1.78-80.69,0.95c-12.26,1.25-24.92,6.23-37.28,13.27c2.95,3.75,5.34,8.03,7.06,12.7
				c11.67-4.78,23.38-7.72,34.5-7.65c26.84,0.18,53.4,5.99,80.24,7.79c26.84,1.81,56.12-1.24,74-15.55
				C767.18,232.56,768.75,208.62,755.79,190.22z"/>
		</g>
		<g>
			<g>
				<g>
					<path class="st6" d="M773.77,197.59c-3.82-5.21-8.02-9.97-12.95-14.14c-5.29-4.47-10.95-8.5-16.95-11.95
						c-12.2-7.03-25.65-12.2-39.27-15.68c-30.72-7.85-62.94-7.59-94.09-2.61c-11.96,1.91-23.24,5.48-34.23,10.55
						c-10.57,4.87-20.18,11.27-29.34,18.39c-17.55,13.63-32.19,30.61-45.05,48.64c-10.99,15.39-20.52,31.8-28.91,48.74
						c-0.88,1.77-1.74,3.55-2.6,5.34c0.61-0.79,1.23-1.59,1.84-2.38c-0.77,0.76-1.53,1.51-2.3,2.27c-1.85,1.82-2.89,4.22-3.24,6.75
						c-0.32,2.37-0.1,5.5,1.4,7.5c0.13,0.17,0.25,0.34,0.38,0.5c1.82,2.43,3.9,4.69,7.03,5.41c2.99,0.68,6.42,0.56,9.06-1.19
						c13.15-8.67,26.71-16.74,40.86-23.67c4.3-2.1,8.65-4.1,13.06-5.96c-0.94,0.4-1.87,0.79-2.81,1.19
						c12.79-5.37,26.13-9.72,39.91-11.59c-1.04,0.14-2.08,0.28-3.13,0.42c5.08-0.67,10.22-1,15.34-0.83
						c6.25,0.21,12.51,1.01,18.71,1.84c-1.04-0.14-2.08-0.28-3.13-0.42c33.17,4.49,65.83,13.76,99.5,14.02
						c7.71,0.06,15.36-0.43,22.99-1.46c7.08-0.95,14.1-2.31,20.83-4.77c7.74-2.82,14.68-6.48,21-11.78
						c5.86-4.91,10-11.26,12.88-18.27C786.59,227.75,782.86,210.2,773.77,197.59c-1.84-2.55-3.9-4.54-7.03-5.41
						c-2.82-0.78-6.57-0.43-9.06,1.19c-2.51,1.62-4.72,4.03-5.41,7.03c-0.66,2.92-0.64,6.53,1.19,9.06c2,2.77,3.7,5.72,5.06,8.85
						c-0.4-0.94-0.79-1.87-1.19-2.81c1.33,3.17,2.28,6.47,2.75,9.88c-0.14-1.04-0.28-2.08-0.42-3.13c0.39,3.02,0.4,6.06,0,9.08
						c0.14-1.04,0.28-2.08,0.42-3.13c-0.4,2.75-1.13,5.42-2.2,7.99c0.4-0.94,0.79-1.87,1.19-2.81c-1.13,2.64-2.58,5.1-4.33,7.37
						c0.61-0.79,1.23-1.59,1.84-2.38c-1.99,2.53-4.28,4.77-6.82,6.75c0.79-0.61,1.59-1.23,2.38-1.84c-3.51,2.67-7.37,4.78-11.42,6.5
						c0.94-0.4,1.87-0.79,2.81-1.19c-7.14,2.98-14.71,4.72-22.35,5.77c1.04-0.14,2.08-0.28,3.13-0.42
						c-16.58,2.21-33.48,1.31-50.02-0.89c1.04,0.14,2.08,0.28,3.13,0.42c-15.4-2.08-30.63-5.2-45.92-7.95
						c-8.4-1.51-16.81-2.85-25.27-3.97c-6.93-0.92-13.95-1.83-20.95-1.85c-13.26-0.04-26.62,2.67-39.21,6.69
						c-13.16,4.2-25.9,9.85-38.16,16.18c-12.13,6.26-23.83,13.32-35.22,20.83c5.37,1.41,10.73,2.81,16.1,4.22
						c-0.13-0.17-0.25-0.34-0.38-0.5c-0.61,4.75-1.23,9.5-1.84,14.26c1.83-1.81,3.59-3.52,4.74-5.9c0.96-1.99,1.93-3.96,2.92-5.93
						c2.14-4.27,4.36-8.51,6.66-12.7c5.07-9.26,10.52-18.31,16.4-27.07c3.6-5.36,7.36-10.6,11.31-15.71
						c-0.61,0.79-1.23,1.59-1.84,2.38c8.39-10.84,17.59-21.08,27.84-30.19c2.92-2.59,5.92-5.09,9-7.48
						c-0.79,0.61-1.59,1.23-2.38,1.84c9.38-7.24,19.54-13.46,30.45-18.1c-0.94,0.4-1.87,0.79-2.81,1.19
						c10.97-4.62,22.34-7.13,34.1-8.73c-1.04,0.14-2.08,0.28-3.13,0.42c20.21-2.71,40.75-3.12,60.99-0.44
						c-1.04-0.14-2.08-0.28-3.13-0.42c14.63,1.98,29,5.59,42.62,11.3c-0.94-0.4-1.87-0.79-2.81-1.19
						c9.26,3.92,18.16,8.76,26.14,14.9c-0.79-0.61-1.59-1.23-2.38-1.84c4.87,3.78,9.36,8.03,13.14,12.91
						c-0.61-0.79-1.23-1.59-1.84-2.38c0.31,0.4,0.61,0.81,0.91,1.21c1.87,2.55,3.87,4.54,7.03,5.41c2.82,0.78,6.57,0.43,9.06-1.19
						c2.51-1.62,4.72-4.03,5.41-7.03C775.62,203.75,775.61,200.1,773.77,197.59z"/>
				</g>
			</g>
		</g>
	</g>
	<g id="Shirt">
		<path class="st12" d="M552.7,881.51c-89.94,22.18-192.73,18.34-288.58-1.49c-66.86-55.76-122.4-150-122.4-224.4l544.8,4.8
			C660.13,772.02,617.51,831.43,552.7,881.51z"/>
		<g>
			<path class="st12" d="M678.28,667.87c-159.04,27.81-480.63,19.3-533.27-5.22c-1.35-0.63-3.15-1.39-3.28-2.24
				c-1.9-12.08-1.2-18-2.4-34.8c-0.25-3.52,13.2,0,23.64,2.85c161.15,43.96,340.69,21.56,510.22-0.6c7.99-1.04,13.61-1.9,14.54,1.35
				c2.4,8.4,2.4,15.6-2.35,35.77C684.98,666.68,681.62,667.29,678.28,667.87z"/>
		</g>
		<g class="st13">
			<path class="st14" d="M678.28,667.87c-159.04,27.81-480.63,19.3-533.27-5.22c-1.35-0.63-3.15-1.39-3.28-2.24
				c-1.9-12.08-1.2-18-2.4-34.8c-0.25-3.52,13.2,0,23.64,2.85c161.15,43.96,340.69,21.56,510.22-0.6c7.99-1.04,13.61-1.9,14.54,1.35
				c2.4,8.4,2.4,15.6-2.35,35.77C684.98,666.68,681.62,667.29,678.28,667.87z"/>
		</g>
		<path class="st15" d="M166.22,752.12c88.53,24.42,345.97,27.31,492.66-5.72c6.59-15.31,12.6-31.91,18.05-50.06
			c-0.44,0.08-0.89,0.16-1.35,0.25c-169.53,31.22-349.08,62.77-510.22,0.84c-6.89-2.65-15.1-5.71-19.81-6.05
			C149.61,711.24,156.73,731.8,166.22,752.12z"/>
		<path class="st15" d="M595.46,843.4c16.77-17.52,31.58-36.89,44.59-59.36c-153.12,30.01-312.52,54.01-457.79-1.56
			c13.91,23.59,30.68,46.18,49.13,66.22C326.82,860.86,477.88,860.76,595.46,843.4z"/>
		<g>
			<path class="st12" d="M156.52,729.05c-0.45-1.22-0.9-2.43-1.34-3.65C155.62,726.61,156.06,727.83,156.52,729.05z"/>
			<path class="st12" d="M193.14,799.84c-1.82-2.74-3.6-5.5-5.34-8.27C189.54,794.34,191.32,797.1,193.14,799.84z"/>
			<path class="st12" d="M204.97,816.71c-1.96-2.65-3.89-5.32-5.79-8.01C201.08,811.39,203.01,814.06,204.97,816.71z"/>
			<path class="st12" d="M164.36,748.07c-0.54-1.19-1.06-2.38-1.58-3.56C163.3,745.69,163.83,746.88,164.36,748.07z"/>
			<path class="st12" d="M224.51,841.02c-2.19-2.51-4.35-5.06-6.48-7.64C220.16,835.96,222.32,838.51,224.51,841.02z"/>
			<path class="st12" d="M217.78,833.08c-4.3-5.2-8.47-10.54-12.52-15.98C209.3,822.54,213.48,827.87,217.78,833.08z"/>
			<path class="st12" d="M198.98,808.41c-1.94-2.77-3.85-5.56-5.72-8.37C195.13,802.85,197.04,805.64,198.98,808.41z"/>
			<path class="st12" d="M157.96,732.83c-0.47-1.2-0.93-2.41-1.38-3.61C157.03,730.42,157.49,731.63,157.96,732.83z"/>
			<path class="st12" d="M159.42,736.51c-0.47-1.16-0.93-2.31-1.38-3.47C158.49,734.2,158.95,735.35,159.42,736.51z"/>
			<path class="st12" d="M231.39,848.7c-2.3-2.49-4.57-5.03-6.81-7.6C226.83,843.67,229.1,846.21,231.39,848.7z"/>
			<path class="st12" d="M162.61,744.12c-0.5-1.14-0.99-2.29-1.47-3.43C161.62,741.83,162.12,742.97,162.61,744.12z"/>
			<path class="st12" d="M161.01,740.37c-0.49-1.17-0.97-2.34-1.45-3.5C160.04,738.04,160.52,739.2,161.01,740.37z"/>
			<path class="st12" d="M610.45,826.59c-0.92,1.1-1.84,2.2-2.77,3.29C608.61,828.8,609.53,827.7,610.45,826.59z"/>
			<path class="st12" d="M632.32,796.69c-0.76,1.19-1.53,2.37-2.31,3.54C630.79,799.06,631.56,797.88,632.32,796.69z"/>
			<path class="st12" d="M634.7,792.94c-0.57,0.91-1.14,1.82-1.72,2.72C633.56,794.76,634.13,793.85,634.7,792.94z"/>
			<path class="st12" d="M629.94,800.35c-0.84,1.26-1.68,2.51-2.53,3.75C628.26,802.86,629.11,801.61,629.94,800.35z"/>
			<path class="st12" d="M627.01,804.67c-0.7,1.02-1.41,2.03-2.11,3.04C625.61,806.71,626.31,805.69,627.01,804.67z"/>
			<path class="st12" d="M637.13,788.97c-0.56,0.93-1.12,1.85-1.69,2.77C636.01,790.82,636.57,789.9,637.13,788.97z"/>
			<path class="st12" d="M640.05,784.05c-0.75,1.29-1.5,2.57-2.26,3.84C638.54,786.62,639.3,785.34,640.05,784.05z"/>
			<path class="st12" d="M613.29,823.11c-0.82,1.02-1.65,2.04-2.49,3.05C611.64,825.15,612.47,824.13,613.29,823.11z"/>
			<path class="st12" d="M598.48,840.2c-1,1.07-2,2.14-3.02,3.2C596.47,842.34,597.48,841.28,598.48,840.2z"/>
			<path class="st12" d="M155.16,725.33c-4.09-11.43-7.33-22.8-9.61-33.96C147.83,702.53,151.07,713.9,155.16,725.33z"/>
			<path class="st12" d="M607.67,829.9c-2.93,3.44-5.93,6.8-9,10.1C601.74,836.7,604.74,833.34,607.67,829.9z"/>
			<path class="st12" d="M621.71,812.15c-0.82,1.12-1.64,2.23-2.47,3.33C620.07,814.38,620.89,813.27,621.71,812.15z"/>
			<path class="st12" d="M624.29,808.57c-0.67,0.95-1.35,1.89-2.03,2.82C622.94,810.46,623.62,809.52,624.29,808.57z"/>
			<path class="st12" d="M619.14,815.6c-1.81,2.4-3.65,4.77-5.52,7.1C615.49,820.37,617.33,818,619.14,815.6z"/>
			<path class="st12" d="M674.84,703.16c-1.36,4.32-2.76,8.55-4.18,12.7C672.08,711.71,673.47,707.48,674.84,703.16z"/>
			<path class="st12" d="M676.94,696.34c-0.66,2.21-1.34,4.4-2.02,6.57C675.6,700.74,676.27,698.55,676.94,696.34z"/>
			<path class="st12" d="M665.95,728.89c-1.48,3.91-2.99,7.75-4.54,11.51C662.96,736.64,664.47,732.8,665.95,728.89z"/>
			<path class="st12" d="M658.89,746.39c0.78-1.82,1.56-3.66,2.32-5.51C660.45,742.73,659.67,744.57,658.89,746.39z"/>
			<path class="st12" d="M670.5,716.32c-1.41,4.1-2.86,8.11-4.34,12.04C667.63,724.42,669.08,720.41,670.5,716.32z"/>
			<polygon class="st15" points="658.89,746.4 658.89,746.39 658.89,746.4 			"/>
			<path class="st15" d="M155.18,725.4c-0.01-0.02-0.01-0.04-0.02-0.06C155.17,725.35,155.18,725.37,155.18,725.4z"/>
			<path class="st15" d="M661.41,740.4c-0.07,0.16-0.13,0.32-0.2,0.48C661.28,740.72,661.34,740.56,661.41,740.4z"/>
			<path class="st15" d="M666.15,728.36c-0.07,0.18-0.13,0.36-0.2,0.53C666.02,728.71,666.09,728.53,666.15,728.36z"/>
			<path class="st15" d="M158.04,733.04c-0.03-0.07-0.05-0.14-0.08-0.21C157.99,732.9,158.01,732.97,158.04,733.04z"/>
			<path class="st15" d="M161.14,740.68c-0.04-0.1-0.09-0.21-0.13-0.31C161.06,740.48,161.1,740.58,161.14,740.68z"/>
			<path class="st15" d="M156.58,729.22c-0.02-0.06-0.04-0.11-0.06-0.17C156.54,729.1,156.56,729.16,156.58,729.22z"/>
			<polygon class="st15" points="676.94,696.33 676.94,696.33 676.94,696.34 			"/>
			<path class="st15" d="M159.56,736.87c-0.05-0.12-0.1-0.24-0.14-0.36C159.47,736.63,159.51,736.75,159.56,736.87z"/>
			<path class="st15" d="M674.91,702.91c-0.03,0.08-0.05,0.17-0.08,0.25C674.86,703.08,674.89,702.99,674.91,702.91z"/>
			<polygon class="st15" points="145.56,691.37 145.56,691.37 145.56,691.37 			"/>
			<path class="st15" d="M162.78,744.51c-0.06-0.13-0.11-0.26-0.17-0.39C162.67,744.25,162.72,744.38,162.78,744.51z"/>
			<path class="st15" d="M670.65,715.86c-0.05,0.15-0.1,0.3-0.16,0.46C670.55,716.16,670.6,716.01,670.65,715.86z"/>
			<path class="st15" d="M164.47,748.31c-0.04-0.08-0.07-0.16-0.11-0.24C164.4,748.15,164.44,748.23,164.47,748.31z"/>
			<g class="st13">
				<polygon class="st14" points="655.93,660.15 631.67,659.93 655.93,660.15 				"/>
			</g>
			<g class="st13">
				<path class="st14" d="M520.22,804.86c29.41-4.17,58.78-9.24,87.98-14.71c6-12.15,11.55-24.73,16.71-37.07
					c-22.39,3.86-46.52,7.05-71.64,9.61C542.84,778.41,531.48,792.74,520.22,804.86z"/>
			</g>
			<g class="st13">
				<path class="st14" d="M390.13,878.28c63.44,9.72,95.79,5.83,147.11-9c12.57-3.63,23.92-11.7,34.23-22.63
					c-39.15,4.85-81.15,7.95-123.03,9.46C426.8,866.86,404.05,875.97,390.13,878.28z"/>
			</g>
			<g class="st13">
				<path class="st14" d="M596.53,659.79c-2.8,17.85-8.56,36-16.23,53.62c21.27-3.47,42.46-7.2,63.53-11.01
					c4.64-14.16,8.85-28.62,12.1-42.24l-24.26-0.21l-33.8-0.3L596.53,659.79z"/>
			</g>
			<g class="st13">
				<path class="st14" d="M553.27,762.7c25.12-2.56,49.25-5.75,71.64-9.61c0.75-1.79,1.49-3.57,2.22-5.34
					c5.6-13.58,11.42-29.27,16.69-45.35c-21.07,3.81-42.26,7.54-63.53,11.01C572.8,730.62,563.49,747.31,553.27,762.7z"/>
			</g>
			<path class="st15" d="M624.9,807.71c-0.2,0.29-0.41,0.57-0.61,0.86C624.49,808.28,624.7,808,624.9,807.71z"/>
			<path class="st15" d="M637.78,787.89c-0.22,0.36-0.43,0.72-0.65,1.08C637.35,788.61,637.57,788.25,637.78,787.89z"/>
			<path class="st15" d="M622.26,811.39c-0.18,0.25-0.37,0.5-0.55,0.76C621.89,811.9,622.08,811.65,622.26,811.39z"/>
			<path class="st15" d="M627.41,804.1c-0.13,0.19-0.27,0.38-0.4,0.58C627.15,804.48,627.28,804.29,627.41,804.1z"/>
			<path class="st15" d="M635.44,791.74c-0.25,0.4-0.5,0.8-0.74,1.2C634.95,792.54,635.2,792.14,635.44,791.74z"/>
			<path class="st15" d="M632.98,795.66c-0.22,0.34-0.44,0.69-0.66,1.03C632.54,796.35,632.76,796,632.98,795.66z"/>
			<path class="st15" d="M630.01,800.24c-0.02,0.04-0.05,0.07-0.07,0.11C629.97,800.31,629.99,800.27,630.01,800.24z"/>
			<polygon class="st15" points="640.05,784.04 640.05,784.04 640.05,784.05 			"/>
			<path class="st15" d="M613.62,822.7c-0.11,0.14-0.22,0.27-0.33,0.41C613.4,822.97,613.51,822.83,613.62,822.7z"/>
			<path class="st15" d="M224.58,841.1c-0.02-0.03-0.05-0.06-0.07-0.08C224.54,841.05,224.56,841.08,224.58,841.1z"/>
			<polygon class="st15" points="231.39,848.7 231.39,848.7 231.39,848.7 			"/>
			<path class="st15" d="M619.23,815.48c-0.03,0.04-0.06,0.08-0.09,0.12C619.17,815.56,619.2,815.52,619.23,815.48z"/>
			<polygon class="st15" points="595.46,843.4 595.46,843.4 595.46,843.4 			"/>
			<path class="st15" d="M205.26,817.1c-0.1-0.13-0.19-0.26-0.29-0.39C205.07,816.84,205.16,816.97,205.26,817.1z"/>
			<path class="st15" d="M193.26,800.03c-0.04-0.06-0.08-0.13-0.13-0.19C193.18,799.9,193.22,799.97,193.26,800.03z"/>
			<path class="st15" d="M199.19,808.69c-0.07-0.1-0.14-0.19-0.2-0.29C199.05,808.5,199.12,808.6,199.19,808.69z"/>
			<path class="st15" d="M218.03,833.38c-0.08-0.1-0.17-0.2-0.25-0.3C217.86,833.18,217.95,833.28,218.03,833.38z"/>
			<path class="st15" d="M607.68,829.89c0,0-0.01,0.01-0.01,0.01C607.67,829.89,607.67,829.89,607.68,829.89z"/>
			<path class="st15" d="M610.8,826.16c-0.12,0.14-0.24,0.29-0.36,0.43C610.57,826.45,610.68,826.3,610.8,826.16z"/>
			<path class="st15" d="M187.8,791.57c-0.12-0.18-0.23-0.37-0.35-0.55C187.57,791.2,187.68,791.38,187.8,791.57z"/>
			<path class="st15" d="M598.67,840c-0.06,0.07-0.13,0.14-0.19,0.21C598.54,840.14,598.61,840.07,598.67,840z"/>
			<path class="st16" d="M495.86,827.75c-10.61,8.42-28.6,19.01-47.43,28.36c41.88-1.51,83.88-4.61,123.03-9.46
				c14-14.84,26.09-34.96,36.73-56.5c-29.2,5.47-58.57,10.54-87.98,14.71C511.91,813.8,503.66,821.56,495.86,827.75z"/>
		</g>
		<path class="st12" d="M673.19,627.87c-169.53,22.16-349.08,44.56-510.22,0.6c-10.44-2.85-23.89-6.36-23.64-2.85
			c1.2,16.8,0.5,22.72,2.4,34.8c0.1,0.63,1.12,1.21,2.19,1.73c62.46,22.71,374.21,27.02,529.68-1.86c3.34-0.62,6.69-1.26,7.07-2.96
			c3.55-15.83,4.27-23.68,3.23-30.36C681.32,626.77,677.62,627.29,673.19,627.87z"/>
		<path class="st17" d="M687.73,629.22c-0.93-3.25-6.55-2.39-14.54-1.35c-169.53,22.16-349.08,44.56-510.22,0.6
			c-10.44-2.85-23.89-6.36-23.64-2.85c1.2,16.8,0.5,22.72,2.4,34.8c0.01,0.08,0.05,0.16,0.09,0.24
			c2.41,73.57,56.95,164.85,122.31,219.36c95.85,19.83,198.64,23.67,288.58,1.49c64.81-50.07,107.42-109.49,133.82-221.09l-0.11,0
			C690.11,643.67,689.93,636.95,687.73,629.22z"/>
	</g>
	<g id="Bal">
		
			<ellipse transform="matrix(0.5353 -0.8447 0.8447 0.5353 -393.5228 766.9034)" class="st18" cx="500.22" cy="741.09" rx="100.3" ry="154.76"/>
		<path class="st19" d="M487.73,845.53c19.45,6.96,36.81,10.12,50,11.61c7.12,1.46,38.58,7.08,68.46-12.22
			c18.62-12.03,27.9-28.09,31.84-36.13c1.49-4.87,3.04-11.34,3.43-19.04c0.33-6.59-0.13-13.39-1.35-20.32
			c-1.85-4.21-5.64-11.12-13.81-21.08c-9.61-11.73-18.54-19.49-22.06-22.48c-4.68-3.97-20.06-16.74-48.08-32.32
			c-22.33-12.42-40.25-19.72-51.61-24.29c-37.88-15.27-52.62-18.35-67.77-20.22c0,0-11.88-2.03-27.25-1.6
			c-1.11,0.03-2.79-0.93-3.05-2.14c-0.42-1.96,3.3-3.98,9.1-7.98c9.56-6.59,10.77-7.12,15.25-9.26c8.09-3.87,12.93-3.38,12.9-3.91
			c-0.02-0.45-5.28-1.16-12.38-0.62c-4.48,0.53-8.84,1.3-13.04,2.29c0,0-0.01,0-0.01,0c-2.78,0.66-5.5,1.42-8.14,2.29
			c-0.04,0.01-0.09,0.03-0.13,0.04c-1.3,0.43-2.57,0.87-3.83,1.35c-0.01,0-0.01,0.01-0.02,0.01c-1.26,0.47-2.5,0.97-3.72,1.5
			c-0.08,0.03-0.16,0.07-0.24,0.11c-1.19,0.51-2.35,1.05-3.5,1.61c-0.02,0.01-0.04,0.02-0.06,0.03c-1.16,0.57-2.3,1.16-3.42,1.77
			c-0.11,0.06-0.22,0.12-0.32,0.18c-1.08,0.6-2.14,1.21-3.18,1.85c-0.03,0.02-0.05,0.03-0.08,0.05c-1.06,0.66-2.1,1.34-3.12,2.04
			c-0.13,0.09-0.25,0.18-0.38,0.27c-0.98,0.68-1.94,1.38-2.88,2.11c-0.03,0.02-0.05,0.04-0.08,0.06c-0.96,0.74-1.9,1.52-2.81,2.3
			c-0.13,0.12-0.27,0.23-0.4,0.35c-0.88,0.77-1.75,1.56-2.59,2.37c-0.02,0.02-0.03,0.03-0.05,0.05c-0.86,0.84-1.69,1.7-2.51,2.58
			c-0.13,0.14-0.26,0.28-0.39,0.43c-0.79,0.87-1.57,1.76-2.32,2.68c0,0,0,0,0,0c-4.54,6.04-7.16,12.25-9.35,17.46
			c-1.18,2.81-3.5,8.4-5.08,15.68c0,0,0,0,0,0c-0.15,0.98-0.27,1.98-0.38,2.97c-0.02,0.16-0.03,0.32-0.05,0.48
			c-0.09,0.87-0.16,1.74-0.22,2.62c-0.01,0.17-0.02,0.33-0.03,0.5c-0.06,0.97-0.1,1.94-0.13,2.91c0,0.05,0,0.09,0,0.14
			c-0.05,2.13-0.02,4.29,0.09,6.46c0,0.07,0.01,0.14,0.01,0.21c0.05,0.99,0.12,1.97,0.21,2.97c0.01,0.14,0.03,0.29,0.04,0.43
			c0.09,0.98,0.19,1.96,0.31,2.94c0.01,0.09,0.02,0.18,0.03,0.27c0.41,3.31,1.01,6.64,1.77,10.01c0.01,0.06,0.03,0.12,0.04,0.19
			c0.24,1.06,0.5,2.12,0.78,3.18c0.02,0.08,0.04,0.15,0.06,0.23c1.19,4.52,2.68,9.08,4.47,13.65c0.02,0.04,0.03,0.08,0.05,0.13
			c0.45,1.13,0.91,2.27,1.39,3.4c1.92,3.96,3.93,7.74,5.85,11.36c8.72,16.39,17.99,27.17,24.63,34.79
			c10.62,12.19,21.1,21.49,29.49,28.11c0,0,0,0,0,0c1.42,1.1,2.87,2.19,4.33,3.27c0.05,0.04,0.1,0.08,0.16,0.12
			c1.46,1.08,2.95,2.15,4.45,3.2c0.05,0.04,0.1,0.07,0.16,0.11c1.32,0.93,2.66,1.84,4.01,2.75c0.33,0.22,0.66,0.44,0.99,0.66
			c1.42,0.95,2.86,1.88,4.32,2.81c0.27,0.17,0.53,0.33,0.8,0.5C455.18,831.11,469.2,838.9,487.73,845.53z"/>
		<path d="M601.16,849.1c3.85-1.5,7.43-3.9,11.87-6.94c8.09-5.55,13.56-11.75,18.63-20.15c4.74-7.87,9.52-16.34,9.39-25.53
			c-0.09-6-2.3-11.78-5.04-17.12c-9.91-19.32-25.7-33.35-42.26-46.81c-47.85-38.89-108.33-63.55-169.61-69.97
			c-10.69-1.12-21.44-1.67-32.19-1.63c-8.63,0.03-18.7,1.25-23.17,8.63c-2.09,3.45-2.49,7.65-2.46,11.68
			c0.08,10.45,2.73,20.72,6.08,30.62c23.57,69.58,85.18,124.91,156.87,140.91c18.53,4.14,38.03,6.82,56.48,2.33"/>
		<path class="st18" d="M623.26,826.08c0.67-0.91,3.44-4.77,4.71-10.71c0.79-3.67,1.11-8.66-1.56-18.25
			c-1.56-5.62-3.89-13.71-10.34-23.71c-8.26-12.81-17.58-19.89-31.96-30.83c-2.43-1.84-11.31-8.53-24.04-16.16
			c-17.51-10.5-31.78-16.49-35.92-18.19c-14.54-5.97-26-9.09-35.6-11.66c-16-4.29-28.1-6.3-35.06-7.43
			c-11.87-1.94-18.05-2.35-22.05-2.51c-4.31-0.18-1.55,0.12-17.66,0.22c-6.79,0.04-10.25,0-14.99,1.39
			c-3.85,1.13-6.9,2.02-9.26,4.71c-1.23,1.4-3.59,4.79-2.83,15.52c0.62,8.74,2.82,15.51,4.61,20.39
			c1.71,4.66,4.95,12.79,12.42,26.23c5.25,9.42,8.85,15.9,14.94,24.14c4.19,5.68,11.42,15.34,23.18,25.37
			c9.28,7.92,17.07,12.38,28.43,18.89c6.47,3.71,14.63,8.35,26.18,13.11c13.76,5.67,24.5,8.29,27.94,9.1
			c4.78,1.11,10.29,2.38,17.83,3.05c1.62,0.14,9.39,0.8,19.97,0c3.78-0.29,13.56-1.19,25.96-4.55c10.92-2.96,18.53-6.38,24.09-9.37
			C617.23,832.11,620.51,829.8,623.26,826.08z"/>
		<g>
			<path class="st8" d="M616.08,773.41c-8.26-12.81-17.58-19.89-31.96-30.83c-1.16-0.88-3.8-2.87-7.62-5.54
				c-20.53,37.8-48.47,71.46-82,98.73c0.64,0.27,1.29,0.55,1.96,0.82c13.76,5.67,24.5,8.29,27.94,9.1
				c4.78,1.11,10.29,2.38,17.83,3.05c1.62,0.14,9.39,0.8,19.97,0c3.78-0.29,13.56-1.19,25.96-4.55c10.92-2.96,18.53-6.38,24.09-9.37
				c4.99-2.69,8.27-5.01,11.03-8.73c0.67-0.91,3.44-4.77,4.71-10.71c0.79-3.67,1.11-8.66-1.56-18.25
				C624.85,791.5,622.53,783.4,616.08,773.41z"/>
		</g>
		
			<ellipse transform="matrix(0.5353 -0.8447 0.8447 0.5353 -393.5228 766.9034)" class="st20" cx="500.22" cy="741.09" rx="100.3" ry="154.76"/>
	</g>
	<g id="Links">
		
			<ellipse transform="matrix(0.5926 -0.8055 0.8055 0.5926 -496.0265 469.1687)" class="st21" cx="215.77" cy="724.92" rx="55.22" ry="109.78"/>
		<g>
			<path class="st22" d="M247.07,796.43l0.15-0.05c31.18,3.33,37.64-12.65,38.08-30.76c0.42-17.6-10.55-51.66-41.58-78.8
				c-9.6-8.4-19.89-19.49-33.6-26.4c25.23,7.26,41.04,26.51,63.6,40.8c19.38,12.28,31.18,32.45,33.5,46.76
				c3.7,22.84,9.7,33.64-1.36,47.97c-12.1,15.68-51.49,9.82-89.78-4.01"/>
		</g>
		
			<ellipse transform="matrix(0.5926 -0.8055 0.8055 0.5926 -496.0265 469.1687)" class="st23" cx="215.77" cy="724.92" rx="55.22" ry="109.78"/>
		<path class="st24" d="M202,709.89c14.04-14.04,29.15-24.7,42.99-31.11c-18.92-13.55-40.03-24.13-60.45-29.32
			c-49.36-12.55-75.94,11.07-59.35,52.74c7.75,19.47,23.55,39.44,43.23,56.48C174.35,743.34,185.97,725.92,202,709.89z"/>
	</g>
	<g id="Arm_rechts">
		<g>
			
				<ellipse id="Rechts" transform="matrix(0.9197 -0.3925 0.3925 0.9197 -241.7012 296.542)" class="st25" cx="604.33" cy="739.34" rx="109.19" ry="53.11"/>
			<g>
				<path class="st22" d="M644.01,674.54c33.78,12.57,32.44,32.65,23.8,51.87c-8.39,18.67-36.75,48.72-82.31,61.2
					c-14.1,3.86-30.26,10.19-47.84,10.37c29.62,5.39,55.55-6.65,85.95-10.02c26.11-2.89,48.38-17.96,57.94-31.77
					c15.25-22.04,26.84-30.27,22.64-50.99c-4.6-22.68-27.27-44.79-75.27-27.99"/>
			</g>
			
				<ellipse id="Rechts_00000106852329720240316960000007218781283797812129_" transform="matrix(0.9197 -0.3925 0.3925 0.9197 -241.7012 296.542)" class="st26" cx="604.33" cy="739.34" rx="109.19" ry="53.11"/>
		</g>
		<path class="st24" d="M619.23,726.71c-10.33-16.95-20.37-27.99-32.3-37.49c21.58-8.71,42.45-16.89,63.52-17.12
			c50.93-0.55,71.18,28.66,45.24,65.25c-12.12,17.1-32.19,32.78-55.32,44.69C638.21,765.74,631.02,746.06,619.23,726.71z"/>
		<g>
			<path class="st16" d="M704.2,705.21c-2.06-10.17-7.77-20.21-17.75-26.69c-9.21-4.25-21.32-6.58-36-6.42
				c-0.5,0.01-0.99,0.04-1.49,0.05c-6.12,0.89-12.78,2.53-20.02,5.07l15.09-2.67c33.78,12.57,32.44,32.65,23.8,51.87
				c-4.64,10.34-15.42,24.16-31.83,36.55c2.11,6.69,3.58,13.11,4.37,19.08c20.07-10.34,37.82-23.51,50.09-37.98
				c4.25-5.62,7.87-10.37,10.44-15.13c0.04-0.08,0.09-0.16,0.13-0.24C704.68,721.8,706.15,714.86,704.2,705.21z"/>
		</g>
		<g>
			<path class="st27" d="M619.23,726.71c-10.33-16.95-20.37-27.99-32.3-37.49c21.58-8.71,42.45-16.89,63.52-17.12
				c50.93-0.55,71.18,28.66,45.24,65.25c-12.12,17.1-32.19,32.78-55.32,44.69C638.21,765.74,631.02,746.06,619.23,726.71z"/>
		</g>
	</g>
	<g id="Hat">
		<g>
			<path class="st12" d="M254.22,446.31c6.35-18.33,24.3-21.5,41.55-21.5c80.4,0.02,160.8,0.03,241.2,0.05
				c8.98,0,18.72,0.26,25.71,5.9c5.41,4.36,8.12,11.16,10.61,17.64c17.55,45.66,32.7,86.53,50.25,132.19
				c1.02,2.65,2.26,5.55,4.84,6.75c2.33,1.09,5.06,0.44,7.55-0.21c13.21-3.5,26.41-7,39.62-10.5c2.72-0.72,5.66-1.59,7.31-3.87
				c1.75-2.41,1.54-3.28,1.23-6.25c-7.33-71.7-21.36-142.9-65.53-199.85c-30.11-38.82-72.37-68.07-119.3-82.59
				c-83.23-25.74-178.12-2.91-245.13,52.75S147.78,478.1,142.03,565.03c-0.29,4.44-0.3,9.47,2.84,12.63
				c2.06,2.08,5.05,2.87,7.9,3.55c12,2.89,24.09,5.41,36.25,7.56c2.9,0.51,6.05,0.97,8.67-0.37c2.99-1.53,4.43-4.94,5.63-8.08
				c15.13-39.47,30.46-79.58,45.72-119.28c1.82-4.74,3.63-10.69,5.49-15.42"/>
		</g>
		<g class="st13">
			<path class="st14" d="M639.67,574.95c1.09,2.62,2.41,5.49,5.02,6.61c2.36,1.02,5.07,0.3,7.54-0.42
				c13.11-3.86,9.41-2.93,22.52-6.79c2.7-0.8,5.61-1.74,7.2-4.07c1.68-2.46,1.44-3.32,1.06-6.28c-3.2-24.54-7.19-49-12.9-72.8
				c-23.76-73.04-52.08-147.69-115.63-185.57c-15.03-7.92-30.89-14.27-47.26-18.84c-25.86-7.22-52.69-9.79-79.36-8.22
				c5.34,0.53,10.69,1.19,16.02,2.03c50.4,7.92,99.95,30.58,134.82,66.47l0.23,0.7c49.26,50.65,60.32,130.7,50.48,207.21
				C632.76,563.12,636.17,566.56,639.67,574.95z"/>
		</g>
		<path class="st28" d="M622.8,371.82c-5.09-6.71-10.62-13.11-16.53-19.2H238.5c-6.93,6.8-12.02,12.53-15.19,16.31
			c-0.81,0.96-1.58,1.92-2.37,2.89H622.8z"/>
		<g>
			<path class="st29" d="M685.58,558.42l-44,10.8c-4.73-0.01-8.56-3.72-8.56-8.31L580.85,434.7c-6.48-16.47-13.87-27.19-29.3-27.19
				H275.6c-6.41,0-12.39,1.86-17.16,5.72c-3.33,2.7-7.83,9.47-9.86,14.9l-42.64,104.89c-3.53,8.33-7.05,16.66-10.58,24.99
				c-2.37,5.62-3.85,8.31-8.59,8.31l-44.64-8.88c-0.6,5.24-1.12,10.52-1.55,15.85c-0.41,5.03,3.41,9.35,8.24,9.36l45.69,9.78
				c4.58,0.01,6-2.79,8.29-8.64c3.41-8.66,6.81-17.33,10.22-25.99l41.19-109.08c1.95-5.64,6.31-12.69,9.52-15.49
				c4.61-4.01,10.38-5.95,16.58-5.95h266.56c14.91,0,22.04,11.15,28.3,28.28l50.4,131.25c0,4.76,3.7,8.63,8.26,8.64l44.75-11.82
				c4.88,0.01,8.7-4.37,8.26-9.44C686.17,566.45,685.82,561.69,685.58,558.42z"/>
			<g>
				<path class="st30" d="M685.18,556.97c-12,2.95-24,5.89-36.01,8.84c-2.33,0.57-4.67,1.29-7.03,1.73c-0.52,0.1-0.8,0.16-1.3,0.15
					c-1.54-0.03-3.17-0.93-4.25-1.97c-1.52-1.46-1.6-2.9-2.07-4.8c-0.44-1.77-1.33-3.49-2.03-5.18
					c-10.64-25.73-21.28-51.46-31.91-77.2c-4.94-11.96-9.89-23.92-14.83-35.89c-4.03-9.75-7.42-20.48-14.69-28.32
					c-5.21-5.61-12.09-8.26-19.68-8.32c-1.37-0.01-2.75,0-4.12,0c-7.6,0-15.21,0-22.81,0c-27.91,0-55.81,0-83.72,0
					c-32.1,0-64.21,0-96.31,0c-21.02,0-42.05,0-63.07,0c-8.87,0-17.94,0.37-24.85,6.95c-7.47,7.1-10.76,18.24-14.57,27.62
					c-11.05,27.17-22.09,54.34-33.14,81.51c-1.32,3.24-2.63,6.48-3.95,9.72c-1.16,2.83-2.37,5.63-3.56,8.44
					c-1.55,3.67-3.1,7.33-4.65,11c-1.42,3.36-2.66,6.92-4.45,10.1c-3.04,5.42-8.66,2.78-13.52,1.81c-7.8-1.55-15.6-3.1-23.4-4.65
					c-4.23-0.84-8.47-1.68-12.7-2.52c-1.04-0.21-1.78,0.44-1.9,1.45c-0.48,4.21-0.91,8.43-1.28,12.65c-0.27,3.07-0.58,6,0.92,8.81
					c1.88,3.52,4.98,4.68,8.66,5.29c5.98,0.99,11.92,2.55,17.85,3.82c7.62,1.63,15.23,3.26,22.85,4.89
					c1.47,0.31,2.98,0.78,4.47,0.96c4.71,0.56,7.39-3.16,9.06-7.01c5.71-13.2,10.61-26.81,15.69-40.27
					c5.44-14.4,10.87-28.79,16.31-43.19c5.39-14.28,10.78-28.56,16.18-42.84c4.42-11.71,8.29-26.79,21.7-30.76
					c5.57-1.65,12.14-1.02,17.91-1.02c10.34,0,20.68,0,31.02,0c32.18,0,64.36,0,96.55,0c31.15,0,62.31,0,93.46,0
					c9.29,0,18.58,0,27.87,0c7.9,0,15.57-0.24,21.85,5.71c8.34,7.91,11.56,20.22,15.61,30.77c4.92,12.82,9.85,25.64,14.77,38.47
					c10.23,26.65,20.46,53.29,30.69,79.94c0.39,1,0.86,2.01,1.17,3.05c0.69,2.33,0.72,4.42,2.33,6.48c4.37,5.6,9.82,3.22,15.36,1.75
					c7.9-2.09,15.79-4.17,23.69-6.26c4.83-1.28,9.76-3.01,14.7-3.68c4.92-0.67,8.32-5.24,8.37-10.06
					c0.05-5.45-0.92-11.06-1.31-16.51c-0.14-1.91-3.14-1.93-3,0c0.17,2.31,0.34,4.61,0.53,6.92c0.27,3.33,1.07,7.02,0.76,10.33
					c-0.31,3.29-2.78,5.94-6.04,6.41c-0.75,0.11-1.33,0.15-2.06,0.33c-6.12,1.51-12.2,3.22-18.3,4.83
					c-7.23,1.91-14.46,3.82-21.7,5.73c-1.69,0.45-3.38,1.25-5.1,0.73c-3.52-1.06-4.33-3.7-5.08-6.91c-0.06-0.27-0.1-0.46-0.17-0.71
					c-0.75-2.68-2.04-5.32-3.04-7.91c-2.04-5.31-4.08-10.62-6.11-15.92c-5.73-14.93-11.46-29.86-17.2-44.79
					c-8.18-21.31-16.46-42.58-24.53-63.93c-3.58-9.47-8.32-20.42-17.89-25.23c-3.91-1.97-8.13-2.54-12.44-2.54
					c-6.29,0-12.58,0-18.87,0c-27.98,0-55.97,0-83.95,0c-33.23,0-66.45,0-99.68,0c-20.12,0-40.23,0-60.35,0
					c-2.15,0-4.27-0.02-6.42,0.26c-5.84,0.77-11.63,3.41-15.51,7.94c-3.61,4.2-6.22,9.21-8.16,14.37c-2.99,7.95-6,15.89-9,23.83
					c-10.27,27.2-20.54,54.41-30.82,81.61c-2.04,5.39-4.17,10.74-6.27,16.1c-1.51,3.83-3.01,7.66-4.52,11.5
					c-1.04,2.65-1.99,6.44-4.23,8.42c-1.86,1.64-3.61,1.04-5.69,0.6c-13.69-2.93-27.38-5.86-41.07-8.79
					c-2.41-0.51-5.02-0.54-6.89-2.33c-2.68-2.56-2.21-5.85-1.92-9.18c0.37-4.22,0.8-8.44,1.28-12.65c-0.63,0.48-1.27,0.96-1.9,1.45
					c12.32,2.45,24.63,4.9,36.95,7.35c4.22,0.84,9.54,2.92,13.38-0.04c1.7-1.32,2.73-3.29,3.62-5.2c1.71-3.68,3.2-7.49,4.78-11.23
					c2.32-5.49,4.69-10.96,6.97-16.47c9.41-22.79,18.57-45.69,27.86-68.53c4.49-11.05,8.98-22.09,13.47-33.14
					c2-4.91,4.15-9.68,7.47-13.9c4.87-6.18,12.24-8.69,19.93-8.72c16.07-0.06,32.14,0,48.21,0c30.83,0,61.65,0,92.48,0
					c30.32,0,60.64,0,90.97,0c14.54,0,29.1-0.14,43.64,0c9.03,0.08,16,4.43,20.92,11.88c3.27,4.96,5.48,10.47,7.74,15.93
					c3.77,9.11,7.53,18.22,11.3,27.33c11.5,27.81,23,55.63,34.49,83.44c1.55,3.76,3.11,7.52,4.66,11.28
					c1.56,3.77,1.68,7.83,5.54,10.26c4.6,2.9,9.52,0.63,14.29-0.54c7.69-1.89,15.38-3.77,23.07-5.66c4.17-1.02,8.35-2.05,12.52-3.07
					C687.86,559.41,687.06,556.51,685.18,556.97z"/>
			</g>
		</g>
		<g>
			<g>
				<path class="st30" d="M260.01,447.9c0.83-2.3,1.99-4.55,3.48-6.53c1.06-1.4,3.2-3.43,4.6-4.38c4.1-2.79,7.94-4.05,12.94-5.04
					c4.54-0.9,9.63-1.13,14.75-1.14c8.11-0.02,16.22,0,24.34,0.01c32.27,0.01,64.54,0.01,96.8,0.02
					c32.09,0.01,64.17,0.01,96.26,0.02c7.93,0,15.86-0.01,23.8,0c5.9,0.01,12.05-0.06,17.64,2.09c5.55,2.13,8.62,7.03,10.96,12.25
					c2.88,6.42,5.15,13.17,7.66,19.74c10.9,28.53,21.63,57.13,32.47,85.68c2.73,7.19,5.47,14.38,8.22,21.56
					c1.37,3.58,2.69,7.17,4.12,10.73c1.41,3.52,3.06,6.86,6.33,9.02c6.66,4.4,15.63,0.32,22.53-1.51
					c7.65-2.03,15.29-4.05,22.94-6.08c6.69-1.77,14.74-2.79,18.67-9.24c1.68-2.75,1.9-5.49,1.58-8.59
					c-0.37-3.68-0.77-7.35-1.18-11.02c-1.54-13.66-3.36-27.3-5.62-40.87c-4.43-26.6-10.63-52.99-20.02-78.3
					c-9.42-25.39-21.94-49.66-38.4-71.23c-16.21-21.23-35.65-39.68-57.7-54.77c-42.86-29.33-94.31-44.15-146.18-42.7
					c-51.28,1.43-102.14,17.68-145.07,45.71c-43.07,28.12-77.64,68.15-101.38,113.63c-11.91,22.83-21.25,47.06-27.78,71.97
					c-3.28,12.5-5.86,25.19-7.71,37.98c-0.94,6.49-1.74,13.01-2.34,19.54c-0.56,6.14-1.83,13.24,0.23,19.22
					c2.62,7.62,9.06,10.09,16.3,11.8c7.55,1.79,15.13,3.44,22.75,4.93c3.81,0.75,7.62,1.48,11.44,2.14
					c3.66,0.63,7.45,1.19,11.06-0.02c7.7-2.59,9.92-10.8,12.53-17.6c11.4-29.74,22.78-59.5,34.19-89.24
					c2.69-7.02,5.39-14.04,8.09-21.06c2.47-6.43,4.54-13,7.03-19.43c1.17-3.02-1.29-6.58-4.19-7.38c-3.39-0.93-6.21,1.16-7.38,4.19
					c-2.49,6.42-4.55,13-7.03,19.43c-2.83,7.35-5.65,14.71-8.47,22.06c-5.52,14.4-11.04,28.8-16.55,43.2
					c-5.56,14.51-11.11,29.03-16.68,43.54c-1.1,2.87-2,5.93-3.44,8.66c-1.21,2.29-2.26,2.56-4.9,2.26
					c-7.3-0.84-14.65-2.7-21.83-4.24c-3.45-0.74-6.89-1.5-10.33-2.3c-2.91-0.67-7.2-1-9.74-2.73c-3.33-2.27-1.72-9.55-1.43-13.17
					c0.97-12.35,2.65-24.62,5.01-36.78c4.68-24.12,11.87-47.88,21.72-70.4c19.79-45.26,49.7-86.14,88.62-116.8
					c38.24-30.13,85.55-49.71,133.89-55.42c49.19-5.81,99.14,2.77,142.72,26.59c22.03,12.04,42.06,27.48,59.28,45.76
					c17.74,18.84,32,40.62,42.99,64.02c10.93,23.27,18.45,48.06,23.96,73.13c2.89,13.14,5.22,26.4,7.17,39.71
					c0.92,6.32,1.75,12.65,2.51,18.98c0.76,6.37,1.16,12.84,2.08,19.19c0.18,1.22-0.1,0.15,0.22-0.28c2.62-3.5-0.46,0.74-0.37,0.66
					c-0.8,0.71-1.55,0.98-2.69,1.32c-3.59,1.09-7.26,1.94-10.88,2.9c-7.65,2.03-15.29,4.05-22.94,6.08
					c-1.74,0.46-3.48,0.92-5.21,1.38c-1.43,0.38-3.15,1.12-4.63,1.14c-1.66,0.02-1.83-1.44-2.46-2.94
					c-3.01-7.17-5.58-14.56-8.35-21.82c-10.62-27.87-21.09-55.79-31.69-83.66c-2.69-7.07-5.38-14.13-8.09-21.19
					c-2.37-6.18-4.46-12.72-7.98-18.36c-3.7-5.93-8.85-10.17-15.41-12.58c-5.91-2.16-12.48-2.46-18.72-2.51
					c-30.99-0.26-61.98-0.02-92.97-0.03c-31.37-0.01-62.73-0.01-94.1-0.02c-15.68,0-31.37-0.01-47.05-0.01
					c-11.45,0-23.48-0.49-34.4,3.59c-10.67,3.99-18.27,11.56-22.13,22.31c-1.1,3.05,1.24,6.57,4.19,7.38
					C255.95,453.01,258.91,450.96,260.01,447.9L260.01,447.9z"/>
			</g>
		</g>
	</g>
</g>
</svg>
