<?xml version="1.0" encoding="utf-8"?>
<!-- Generator: Adobe Illustrator 27.8.1, SVG Export Plug-In . SVG Version: 6.00 Build 0)  -->
<svg version="1.1" xmlns="http://www.w3.org/2000/svg" xmlns:xlink="http://www.w3.org/1999/xlink" x="0px" y="0px"
	 viewBox="0 0 740 927" style="enable-background:new 0 0 740 927;" xml:space="preserve">
<style type="text/css">
	.st0{fill:#FFFFFF;}
	.st1{fill:#4E4D4D;}
	.st2{fill:#FFFFFF;stroke:#4E4D4D;stroke-width:19.6069;stroke-miterlimit:10;}
	.st3{fill:#CCCBCB;}
	.st4{stroke:#000000;stroke-width:7.8427;stroke-miterlimit:10;}
	.st5{fill:none;stroke:#4E4D4D;stroke-width:21;stroke-miterlimit:10;}
	.st6{fill:#FFCB03;}
	.st7{fill:#1957A3;}
	.st8{opacity:0.3;}
	.st9{fill:#2D2E82;}
	.st10{fill:#E52336;}
	.st11{fill:#BD1622;}
	.st12{fill:none;stroke:#4E4D4D;stroke-width:12;stroke-miterlimit:10;}
	.st13{fill:#ECECEC;}
	.st14{fill:#B6331B;}
	.st15{fill:#1D1D1B;}
	.st16{fill:none;stroke:#575756;stroke-width:6;stroke-miterlimit:10;}
	.st17{fill:#FFFFFF;stroke:#4E4D4D;stroke-width:11.272;stroke-miterlimit:10;}
	.st18{fill:#CCCACA;}
	.st19{fill:none;stroke:#4E4D4D;stroke-width:11.272;stroke-miterlimit:10;}
	.st20{fill:#E52336;stroke:#575756;stroke-width:10;stroke-miterlimit:10;}
	.st21{fill:#FFFFFF;stroke:#4E4D4D;stroke-width:11.0242;stroke-miterlimit:10;}
	.st22{fill:none;stroke:#4E4D4D;stroke-width:11.0242;stroke-miterlimit:10;}
	.st23{fill:none;stroke:#575756;stroke-width:10;stroke-miterlimit:10;}
	.st24{fill:#F5F5F5;stroke:#575756;stroke-width:3;stroke-miterlimit:10;}
	.st25{fill:#F5F5F5;}
	.st26{fill:#575756;}
</style>
<g id="Laag_1">
</g>
<g id="Laag_2">
	<g id="Elas_00000175281627188676380080000001909873184743145608_">
		<g>
			<path class="st0" d="M419.1,176.6c-46-15.9-97.6-13.6-142.9,2s-84.4,43.8-115.7,77.5C83.8,338.6,53.4,456.6,81.3,564.3
				c16.7,64.7,54.6,126.4,112,167.1c57.5,40.7,135.4,58.2,203.1,38.5c50.7-14.7,92.6-48.6,123.8-88.1
				c60.9-77.3,84.2-179.4,62.7-274.5s-77.2-200.4-163.3-230.1"/>
			<g>
				<path class="st1" d="M422.2,165.2c-64.2-22-136.2-10.5-194.5,22.4c-52.9,29.8-96.6,76.4-125.6,129.5
					c-28.4,52-43.5,111.4-42.7,170.7c0.7,59,17.2,117.9,48.2,168.2c15.7,25.4,35.1,48.8,57.8,68.3c23.9,20.6,50.9,36.7,80.4,48.1
					c28.5,11,59.1,17,89.6,17.3c31.2,0.4,61.9-5.8,90.6-18.1c55.5-23.9,100.1-70.1,130.2-121.8c30.9-53.2,47.2-114.9,46.4-176.4
					c-0.8-58-17.5-115.6-42.3-167.7c-23.1-48.6-56.5-95.4-103.1-123.8c-10.8-6.6-22.4-12-34.4-16.1c-5.8-2-13.1,2.3-14.5,8.2
					c-1.5,6.6,2,12.3,8.2,14.5c2.7,1,5.5,2,8.2,3.1c2.6,1-2.4-1.1,0.1,0c0.7,0.3,1.5,0.6,2.2,1c1.4,0.7,2.9,1.3,4.3,2
					c5.5,2.7,10.8,5.7,16,8.9c2.5,1.6,4.9,3.2,7.4,4.9c1.1,0.8,2.2,1.5,3.3,2.3c0.7,0.5,1.3,1,2,1.4c0.6,0.4,3.6,2.4,0.8,0.6
					c4.9,3.2,9.4,7.7,13.7,11.7c9.5,8.8,18.1,18.3,26.1,28.4c0.4,0.4,0.7,0.9,1.1,1.3c1.8,2.3-1.5-2,0.3,0.3c1,1.4,2.1,2.7,3.1,4.1
					c1.9,2.6,3.7,5.1,5.5,7.7c3.8,5.5,7.5,11.1,10.9,16.9c7.1,11.6,13.4,23.7,19.2,36c1.3,2.8,2.6,5.7,3.9,8.5c0.7,1.5,1.3,3,2,4.5
					c0.4,0.8,0.7,1.6,1.1,2.5c-1.2-2.8,0,0.1,0.2,0.5c2.6,6.3,5.1,12.7,7.4,19.1c9.3,25.6,16.7,52.1,20.7,79
					c0.1,0.7,0.8,5.6,0.4,2.6c0.3,1.9,0.5,3.8,0.7,5.8c0.4,3.8,0.8,7.7,1.1,11.5c0.5,7.1,0.8,14.1,0.9,21.2
					c0.2,14.8-0.7,29.5-2.5,44.2c0,0.1-0.4,3.2-0.2,1.3c0.3-1.9-0.2,1.2-0.2,1.3c-0.3,1.9-0.6,3.8-0.9,5.7
					c-0.6,3.6-1.2,7.3-1.9,10.9c-1.4,7.1-3,14.1-4.8,21.1c-3.8,14.3-8.5,28.3-14.1,42c-0.2,0.6-0.5,1.2-0.7,1.8
					c1.1-2.6-0.2,0.4-0.3,0.7c-0.8,1.8-1.6,3.5-2.4,5.3c-1.5,3.2-3,6.4-4.6,9.6c-3.3,6.7-6.8,13.2-10.5,19.6
					c-3.8,6.5-7.7,12.8-11.9,19c-2,3-4.1,5.9-6.2,8.8c-1,1.3-1.9,2.6-2.9,3.9c-0.6,0.8-1.2,1.6-1.8,2.3c-0.8,1.1-0.8,1,0-0.1
					c-0.3,0.4-0.6,0.8-0.9,1.2c-8.8,11.2-18.3,21.7-28.5,31.6c-5.2,5-10.6,9.8-16.2,14.4c-1.2,1-2.5,2-3.7,3c-2.5,2,1.9-1.4-0.6,0.5
					c-0.8,0.6-1.5,1.1-2.3,1.7c-2.8,2.1-5.6,4.1-8.5,6c-12.1,8.2-24.9,15.3-38.3,21.1c2.6-1.1-1.8,0.7-2.5,1
					c-1.8,0.7-3.6,1.4-5.4,2.1c-3.6,1.3-7.3,2.5-11,3.7c-6.7,2-13.5,3.7-20.3,5c-3.4,0.6-6.9,1.3-10.3,1.7c3.1-0.4-0.1,0-0.6,0.1
					c-0.9,0.1-1.9,0.2-2.8,0.3c-1.9,0.2-3.8,0.4-5.7,0.5c-7.3,0.6-14.6,0.8-21.9,0.6c-7-0.1-14.1-0.6-21-1.4c-1-0.1-1.9-0.2-2.9-0.3
					c-0.5-0.1-3.7-0.4-0.7-0.1c-1.6-0.2-3.2-0.5-4.8-0.7c-3.8-0.6-7.6-1.3-11.4-2.1c-14.5-3-28.7-7.2-42.5-12.6
					c-1.5-0.6-3-1.2-4.5-1.8c-3-1.2,2.2,1-0.7-0.3c-0.7-0.3-1.5-0.6-2.2-1c-3.4-1.5-6.7-3.1-10-4.7c-6.6-3.3-13-6.8-19.3-10.6
					c-6.2-3.8-12.3-7.9-18.2-12.2c-1.3-1-2.6-1.9-3.8-2.9c2.2,1.7-0.3-0.3-0.6-0.5c-0.8-0.6-1.5-1.2-2.2-1.8
					c-2.9-2.3-5.7-4.7-8.4-7.1c-10.8-9.5-20.8-19.8-30-30.8c-1-1.2-2-2.4-3-3.6c-0.6-0.7-1.2-1.5-1.8-2.2c-0.3-0.3-2.2-2.8-0.5-0.6
					c-2.3-3-4.5-6-6.7-9.1c-4-5.6-7.7-11.4-11.3-17.2c-7.4-12.2-14-24.9-19.7-38c0-0.1-1.2-2.9-0.5-1.2c0.7,1.7-0.5-1.1-0.5-1.2
					c-0.7-1.7-1.4-3.4-2.1-5.2c-1.3-3.3-2.5-6.6-3.7-10c-2.3-6.5-4.4-13.1-6.2-19.7c-3.9-13.8-6.7-27.8-8.7-41.9c-0.3-2.2,0,0,0,0.4
					c-0.2-0.9-0.2-1.8-0.3-2.8c-0.2-1.7-0.4-3.4-0.6-5.1c-0.4-3.5-0.7-7.1-0.9-10.6c-0.5-7.1-0.8-14.2-0.8-21.3
					c-0.1-14,0.7-28.1,2.4-42.1c0.1-0.8,0.2-1.5,0.3-2.3c0.4-3.1-0.4,2.6,0.1-0.5c0.2-1.5,0.4-3.1,0.7-4.6c0.6-3.7,1.2-7.3,1.9-11
					c1.3-7,2.8-13.9,4.6-20.8c3.4-13.5,7.7-26.8,12.8-39.7c0.7-1.7,1.4-3.5,2.1-5.2c0.4-0.9,0.7-1.7,1.1-2.6c-0.2,0.4-1,2.2-0.1,0.2
					c1.5-3.4,3-6.8,4.6-10.2c3-6.5,6.3-12.8,9.7-19.1c6.8-12.3,14.3-24.2,22.6-35.6c1.1-1.5,2.2-3,3.4-4.5c0.4-0.5,0.8-1,1.1-1.5
					c1.9-2.5-1.5,1.9,0.5-0.6c2.3-3,4.7-5.9,7.1-8.8c4.7-5.6,9.6-11,14.6-16.3c10.1-10.6,20.9-20.5,32.4-29.5
					c0.8-0.6,1.5-1.2,2.3-1.8c-2.2,1.7,0.4-0.3,0.7-0.5c1.3-1,2.6-2,3.9-2.9c3.2-2.3,6.4-4.6,9.7-6.8c6.3-4.2,12.7-8.2,19.3-11.9
					c6.3-3.5,12.8-6.8,19.5-9.8c1.8-0.8,3.6-1.6,5.5-2.4c-2.2,1-0.2,0.1,0.4-0.2c0.8-0.3,1.5-0.6,2.3-0.9c3.7-1.5,7.5-2.9,11.3-4.2
					c7.6-2.6,15.4-4.9,23.3-6.7c3.8-0.9,7.6-1.7,11.4-2.4c1.7-0.3,3.5-0.6,5.2-0.9c1-0.2,2.1-0.3,3.2-0.5c2.8-0.4-1.5,0.2,1.1-0.2
					c16.2-2,32.6-2.4,48.9-0.9c1.8,0.2,3.5,0.3,5.3,0.6c0.3,0,3.8,0.5,1.1,0.1c1.1,0.1,2.1,0.3,3.2,0.5c3.9,0.6,7.7,1.3,11.5,2.1
					c7.6,1.6,15.1,3.7,22.5,6.3c5.8,2,13.1-2.3,14.5-8.2C432,173.2,428.5,167.4,422.2,165.2L422.2,165.2z"/>
			</g>
		</g>
		<g>
			<path class="st2" d="M399.3,745"/>
			<path class="st2" d="M492.5,800.6"/>
			<ellipse class="st2" cx="430.4" cy="823.3" rx="93.2" ry="55.6"/>
		</g>
		<g>
			<path class="st3" d="M590.2,407.2c-21.5-95.2-77.2-200.4-163.3-230.1l-0.5-0.5c-25.5-8.8-52.8-12-79.7-10.5
				c5.5,0.7,11,1.6,16.5,2.7c46.9,9.3,92.6,33.3,124.3,70.2l0.2,0.7c59.4,69,54.5,187.9,25.2,280.8
				c-29.3,92.9-100.8,169.3-192.3,205.4c-30.4,12-63.5,19.6-97,20c54.2,30.1,121,41.2,180,24c50.7-14.7,92.6-48.6,123.8-88.1
				C588.4,604.5,611.7,502.4,590.2,407.2z"/>
		</g>
		<g>
			<g>
				<path class="st1" d="M422.2,165.2c-64.2-22-136.2-10.5-194.5,22.4c-52.9,29.8-96.6,76.4-125.6,129.5
					c-28.4,52-43.5,111.4-42.7,170.7c0.7,59,17.2,117.9,48.2,168.2c15.7,25.4,35.1,48.8,57.8,68.3c23.9,20.6,50.9,36.7,80.4,48.1
					c28.5,11,59.1,17,89.6,17.3c31.2,0.4,61.9-5.8,90.6-18.1c55.5-23.9,100.1-70.1,130.2-121.8c30.9-53.2,47.2-114.9,46.4-176.4
					c-0.8-58-17.5-115.6-42.3-167.7c-23.1-48.6-56.5-95.4-103.1-123.8c-10.8-6.6-22.4-12-34.4-16.1c-5.8-2-13.1,2.3-14.5,8.2
					c-1.5,6.6,2,12.3,8.2,14.5c2.7,1,5.5,2,8.2,3.1c2.6,1-2.4-1.1,0.1,0c0.7,0.3,1.5,0.6,2.2,1c1.4,0.7,2.9,1.3,4.3,2
					c5.5,2.7,10.8,5.7,16,8.9c2.5,1.6,4.9,3.2,7.4,4.9c1.1,0.8,2.2,1.5,3.3,2.3c0.7,0.5,1.3,1,2,1.4c0.6,0.4,3.6,2.4,0.8,0.6
					c4.9,3.2,9.4,7.7,13.7,11.7c9.5,8.8,18.1,18.3,26.1,28.4c0.4,0.4,0.7,0.9,1.1,1.3c1.8,2.3-1.5-2,0.3,0.3c1,1.4,2.1,2.7,3.1,4.1
					c1.9,2.6,3.7,5.1,5.5,7.7c3.8,5.5,7.5,11.1,10.9,16.9c7.1,11.6,13.4,23.7,19.2,36c1.3,2.8,2.6,5.7,3.9,8.5c0.7,1.5,1.3,3,2,4.5
					c0.4,0.8,0.7,1.6,1.1,2.5c-1.2-2.8,0,0.1,0.2,0.5c2.6,6.3,5.1,12.7,7.4,19.1c9.3,25.6,16.7,52.1,20.7,79
					c0.1,0.7,0.8,5.6,0.4,2.6c0.3,1.9,0.5,3.8,0.7,5.8c0.4,3.8,0.8,7.7,1.1,11.5c0.5,7.1,0.8,14.1,0.9,21.2
					c0.2,14.8-0.7,29.5-2.5,44.2c0,0.1-0.4,3.2-0.2,1.3c0.3-1.9-0.2,1.2-0.2,1.3c-0.3,1.9-0.6,3.8-0.9,5.7
					c-0.6,3.6-1.2,7.3-1.9,10.9c-1.4,7.1-3,14.1-4.8,21.1c-3.8,14.3-8.5,28.3-14.1,42c-0.2,0.6-0.5,1.2-0.7,1.8
					c1.1-2.6-0.2,0.4-0.3,0.7c-0.8,1.8-1.6,3.5-2.4,5.3c-1.5,3.2-3,6.4-4.6,9.6c-3.3,6.7-6.8,13.2-10.5,19.6
					c-3.8,6.5-7.7,12.8-11.9,19c-2,3-4.1,5.9-6.2,8.8c-1,1.3-1.9,2.6-2.9,3.9c-0.6,0.8-1.2,1.6-1.8,2.3c-0.8,1.1-0.8,1,0-0.1
					c-0.3,0.4-0.6,0.8-0.9,1.2c-8.8,11.2-18.3,21.7-28.5,31.6c-5.2,5-10.6,9.8-16.2,14.4c-1.2,1-2.5,2-3.7,3c-2.5,2,1.9-1.4-0.6,0.5
					c-0.8,0.6-1.5,1.1-2.3,1.7c-2.8,2.1-5.6,4.1-8.5,6c-12.1,8.2-24.9,15.3-38.3,21.1c2.6-1.1-1.8,0.7-2.5,1
					c-1.8,0.7-3.6,1.4-5.4,2.1c-3.6,1.3-7.3,2.5-11,3.7c-6.7,2-13.5,3.7-20.3,5c-3.4,0.6-6.9,1.3-10.3,1.7c3.1-0.4-0.1,0-0.6,0.1
					c-0.9,0.1-1.9,0.2-2.8,0.3c-1.9,0.2-3.8,0.4-5.7,0.5c-7.3,0.6-14.6,0.8-21.9,0.6c-7-0.1-14.1-0.6-21-1.4c-1-0.1-1.9-0.2-2.9-0.3
					c-0.5-0.1-3.7-0.4-0.7-0.1c-1.6-0.2-3.2-0.5-4.8-0.7c-3.8-0.6-7.6-1.3-11.4-2.1c-14.5-3-28.7-7.2-42.5-12.6
					c-1.5-0.6-3-1.2-4.5-1.8c-3-1.2,2.2,1-0.7-0.3c-0.7-0.3-1.5-0.6-2.2-1c-3.4-1.5-6.7-3.1-10-4.7c-6.6-3.3-13-6.8-19.3-10.6
					c-6.2-3.8-12.3-7.9-18.2-12.2c-1.3-1-2.6-1.9-3.8-2.9c2.2,1.7-0.3-0.3-0.6-0.5c-0.8-0.6-1.5-1.2-2.2-1.8
					c-2.9-2.3-5.7-4.7-8.4-7.1c-10.8-9.5-20.8-19.8-30-30.8c-1-1.2-2-2.4-3-3.6c-0.6-0.7-1.2-1.5-1.8-2.2c-0.3-0.3-2.2-2.8-0.5-0.6
					c-2.3-3-4.5-6-6.7-9.1c-4-5.6-7.7-11.4-11.3-17.2c-7.4-12.2-14-24.9-19.7-38c0-0.1-1.2-2.9-0.5-1.2c0.7,1.7-0.5-1.1-0.5-1.2
					c-0.7-1.7-1.4-3.4-2.1-5.2c-1.3-3.3-2.5-6.6-3.7-10c-2.3-6.5-4.4-13.1-6.2-19.7c-3.9-13.8-6.7-27.8-8.7-41.9c-0.3-2.2,0,0,0,0.4
					c-0.2-0.9-0.2-1.8-0.3-2.8c-0.2-1.7-0.4-3.4-0.6-5.1c-0.4-3.5-0.7-7.1-0.9-10.6c-0.5-7.1-0.8-14.2-0.8-21.3
					c-0.1-14,0.7-28.1,2.4-42.1c0.1-0.8,0.2-1.5,0.3-2.3c0.4-3.1-0.4,2.6,0.1-0.5c0.2-1.5,0.4-3.1,0.7-4.6c0.6-3.7,1.2-7.3,1.9-11
					c1.3-7,2.8-13.9,4.6-20.8c3.4-13.5,7.7-26.8,12.8-39.7c0.7-1.7,1.4-3.5,2.1-5.2c0.4-0.9,0.7-1.7,1.1-2.6c-0.2,0.4-1,2.2-0.1,0.2
					c1.5-3.4,3-6.8,4.6-10.2c3-6.5,6.3-12.8,9.7-19.1c6.8-12.3,14.3-24.2,22.6-35.6c1.1-1.5,2.2-3,3.4-4.5c0.4-0.5,0.8-1,1.1-1.5
					c1.9-2.5-1.5,1.9,0.5-0.6c2.3-3,4.7-5.9,7.1-8.8c4.7-5.6,9.6-11,14.6-16.3c10.1-10.6,20.9-20.5,32.4-29.5
					c0.8-0.6,1.5-1.2,2.3-1.8c-2.2,1.7,0.4-0.3,0.7-0.5c1.3-1,2.6-2,3.9-2.9c3.2-2.3,6.4-4.6,9.7-6.8c6.3-4.2,12.7-8.2,19.3-11.9
					c6.3-3.5,12.8-6.8,19.5-9.8c1.8-0.8,3.6-1.6,5.5-2.4c-2.2,1-0.2,0.1,0.4-0.2c0.8-0.3,1.5-0.6,2.3-0.9c3.7-1.5,7.5-2.9,11.3-4.2
					c7.6-2.6,15.4-4.9,23.3-6.7c3.8-0.9,7.6-1.7,11.4-2.4c1.7-0.3,3.5-0.6,5.2-0.9c1-0.2,2.1-0.3,3.2-0.5c2.8-0.4-1.5,0.2,1.1-0.2
					c16.2-2,32.6-2.4,48.9-0.9c1.8,0.2,3.5,0.3,5.3,0.6c0.3,0,3.8,0.5,1.1,0.1c1.1,0.1,2.1,0.3,3.2,0.5c3.9,0.6,7.7,1.3,11.5,2.1
					c7.6,1.6,15.1,3.7,22.5,6.3c5.8,2,13.1-2.3,14.5-8.2C432,173.2,428.5,167.4,422.2,165.2L422.2,165.2z"/>
			</g>
		</g>
		<path class="st4" d="M461.1,451.6H200.9c-8.6,0-15.7-7.1-15.7-15.7V332c0-8.6,7.1-15.7,15.7-15.7h260.2c8.6,0,15.7,7.1,15.7,15.7
			v103.9C476.8,444.5,469.7,451.6,461.1,451.6z"/>
		<g>
			<path class="st3" d="M508.8,817.7c-5.7-18.5-25.4-41.6-60.5-54l-0.2-0.1c-10.4-3.7-21.7-6.5-33.1-8.5c2.3,0.6,4.6,1.2,6.8,1.9
				c19.4,5.6,37.7,13.6,49.8,22.7l0.1,0.1c22.5,17.1,16.3,37.5,0.7,51.3c-15.6,13.8-48.3,21.2-88,19.8c-13.2-0.5-27.4-1.9-41.4-4.6
				c21.7,9.8,49.4,17.4,74.8,19.3c21.8,1.7,40.6-0.7,55.1-5C501.1,852.1,514.5,836.2,508.8,817.7z"/>
		</g>
		<g>
			<path class="st5" d="M395.1,742.9"/>
			<path class="st5" d="M488.4,798.5"/>
			<ellipse class="st5" cx="426.2" cy="821.3" rx="93.2" ry="55.6"/>
		</g>
		<g>
			<path class="st2" d="M207.9,745"/>
			<path class="st2" d="M301.2,800.6"/>
			<ellipse class="st2" cx="239" cy="823.3" rx="93.2" ry="55.6"/>
		</g>
		<g>
			<path class="st3" d="M319.2,817.7c-5.7-18.5-25.4-41.6-60.5-54l-0.2-0.1c-10.4-3.7-21.7-6.5-33.1-8.5c2.3,0.6,4.6,1.2,6.8,1.9
				c19.4,5.6,37.7,13.6,49.8,22.7l0.1,0.1c22.5,17.1,16.3,37.5,0.7,51.3s-48.3,21.2-88,19.8c-13.2-0.5-27.4-1.9-41.4-4.6
				c21.7,9.8,49.4,17.4,74.8,19.3c21.8,1.7,40.6-0.7,55.1-5C311.5,852.1,324.9,836.2,319.2,817.7z"/>
		</g>
		<g>
			<path class="st5" d="M203.8,742.9"/>
			<path class="st5" d="M297,798.5"/>
			<ellipse class="st5" cx="234.9" cy="821.3" rx="93.2" ry="55.6"/>
		</g>
		<g>
			<circle class="st6" cx="294.9" cy="391" r="12"/>
			<circle class="st6" cx="222.8" cy="391" r="12"/>
			<circle class="st6" cx="244.2" cy="367" r="12"/>
			<circle class="st6" cx="273.6" cy="367" r="12"/>
			<circle class="st6" cx="439.1" cy="391" r="12"/>
			<circle class="st6" cx="367" cy="391" r="12"/>
			<circle class="st6" cx="388.4" cy="367" r="12"/>
			<circle class="st6" cx="417.7" cy="367" r="12"/>
		</g>
		<g>
			<g>
				<path class="st0" d="M681,76.2c-13.2-18.1-39.9-31.7-68.3-37.8c-28.4-6.1-58.2-5.3-85.2-0.6C461.2,49.3,418.2,121,397.9,163.5
					l-2.3,2.3l0.4,0.5c29.6-19.5,74.9-44.8,112.5-41.9c28.3,2.2,56,9.6,84.3,13.3c28.2,3.7,59.2,3.1,78.8-8.8
					C691.5,116.6,694.1,94.3,681,76.2z"/>
				<g>
					<path class="st1" d="M691.1,70.3c-3.8-5.2-8-10-13-14.1c-5.3-4.5-11-8.5-16.9-11.9C649,37.1,635.6,32,622,28.5
						c-30.7-7.9-62.9-7.6-94.1-2.6c-12,1.9-23.2,5.5-34.2,10.6c-10.6,4.9-20.2,11.3-29.3,18.4c-17.5,13.6-32.2,30.6-45.1,48.6
						c-11,15.4-20.5,31.8-28.9,48.7c-0.9,1.8-1.7,3.6-2.6,5.3c0.6-0.8,1.2-1.6,1.8-2.4c-0.8,0.8-1.5,1.5-2.3,2.3
						c-1.8,1.8-2.9,4.2-3.2,6.8c-0.3,2.4-0.1,5.5,1.4,7.5c0.1,0.2,0.3,0.3,0.4,0.5c1.8,2.4,3.9,4.7,7,5.4c3,0.7,6.4,0.6,9.1-1.2
						c13.1-8.7,26.7-16.7,40.9-23.7c4.3-2.1,8.7-4.1,13.1-6c-0.9,0.4-1.9,0.8-2.8,1.2c12.8-5.4,26.1-9.7,39.9-11.6
						c-1,0.1-2.1,0.3-3.1,0.4c5.1-0.7,10.2-1,15.3-0.8c6.3,0.2,12.5,1,18.7,1.8c-1-0.1-2.1-0.3-3.1-0.4c33.2,4.5,65.8,13.8,99.5,14
						c7.7,0.1,15.4-0.4,23-1.5c7.1-1,14.1-2.3,20.8-4.8c7.7-2.8,14.7-6.5,21-11.8c5.9-4.9,10-11.3,12.9-18.3
						C704,100.4,700.2,82.9,691.1,70.3c-1.8-2.6-3.9-4.5-7-5.4c-2.8-0.8-6.6-0.4-9.1,1.2c-2.5,1.6-4.7,4-5.4,7
						c-0.7,2.9-0.6,6.5,1.2,9.1c2,2.8,3.7,5.7,5.1,8.9c-0.4-0.9-0.8-1.9-1.2-2.8c1.3,3.2,2.3,6.5,2.8,9.9c-0.1-1-0.3-2.1-0.4-3.1
						c0.4,3,0.4,6.1,0,9.1c0.1-1,0.3-2.1,0.4-3.1c-0.4,2.8-1.1,5.4-2.2,8c0.4-0.9,0.8-1.9,1.2-2.8c-1.1,2.6-2.6,5.1-4.3,7.4
						c0.6-0.8,1.2-1.6,1.8-2.4c-2,2.5-4.3,4.8-6.8,6.7c0.8-0.6,1.6-1.2,2.4-1.8c-3.5,2.7-7.4,4.8-11.4,6.5c0.9-0.4,1.9-0.8,2.8-1.2
						c-7.1,3-14.7,4.7-22.4,5.8c1-0.1,2.1-0.3,3.1-0.4c-16.6,2.2-33.5,1.3-50-0.9c1,0.1,2.1,0.3,3.1,0.4
						c-15.4-2.1-30.6-5.2-45.9-7.9c-8.4-1.5-16.8-2.8-25.3-4c-6.9-0.9-13.9-1.8-20.9-1.8c-13.3,0-26.6,2.7-39.2,6.7
						c-13.2,4.2-25.9,9.8-38.2,16.2c-12.1,6.3-23.8,13.3-35.2,20.8c5.4,1.4,10.7,2.8,16.1,4.2c-0.1-0.2-0.3-0.3-0.4-0.5
						c-0.6,4.8-1.2,9.5-1.8,14.3c1.8-1.8,3.6-3.5,4.7-5.9c1-2,1.9-4,2.9-5.9c2.1-4.3,4.4-8.5,6.7-12.7c5.1-9.3,10.5-18.3,16.4-27.1
						c3.6-5.4,7.4-10.6,11.3-15.7c-0.6,0.8-1.2,1.6-1.8,2.4c8.4-10.8,17.6-21.1,27.8-30.2c2.9-2.6,5.9-5.1,9-7.5
						c-0.8,0.6-1.6,1.2-2.4,1.8c9.4-7.2,19.5-13.5,30.5-18.1c-0.9,0.4-1.9,0.8-2.8,1.2c11-4.6,22.3-7.1,34.1-8.7
						c-1,0.1-2.1,0.3-3.1,0.4c20.2-2.7,40.8-3.1,61-0.4c-1-0.1-2.1-0.3-3.1-0.4c14.6,2,29,5.6,42.6,11.3c-0.9-0.4-1.9-0.8-2.8-1.2
						c9.3,3.9,18.2,8.8,26.1,14.9c-0.8-0.6-1.6-1.2-2.4-1.8c4.9,3.8,9.4,8,13.1,12.9c-0.6-0.8-1.2-1.6-1.8-2.4
						c0.3,0.4,0.6,0.8,0.9,1.2c1.9,2.5,3.9,4.5,7,5.4c2.8,0.8,6.6,0.4,9.1-1.2c2.5-1.6,4.7-4,5.4-7C693,76.4,693,72.8,691.1,70.3z"
						/>
				</g>
			</g>
		</g>
		<g>
			<path class="st3" d="M673.2,62.9c-1.5,7.9-5.5,15.5-12.1,21.9c-16.6,16.2-45.6,22.3-72.5,23.5c-26.9,1.1-53.9-1.8-80.7,0.9
				c-12.3,1.2-24.9,6.2-37.3,13.3c2.9,3.7,5.3,8,7.1,12.7c11.7-4.8,23.4-7.7,34.5-7.6c26.8,0.2,53.4,6,80.2,7.8
				c26.8,1.8,56.1-1.2,74-15.5C684.6,105.2,686.1,81.3,673.2,62.9z"/>
		</g>
		<g>
			<g>
				<g>
					<path class="st1" d="M691.1,70.3c-3.8-5.2-8-10-13-14.1c-5.3-4.5-11-8.5-16.9-11.9C649,37.1,635.6,32,622,28.5
						c-30.7-7.9-62.9-7.6-94.1-2.6c-12,1.9-23.2,5.5-34.2,10.6c-10.6,4.9-20.2,11.3-29.3,18.4c-17.5,13.6-32.2,30.6-45.1,48.6
						c-11,15.4-20.5,31.8-28.9,48.7c-0.9,1.8-1.7,3.6-2.6,5.3c0.6-0.8,1.2-1.6,1.8-2.4c-0.8,0.8-1.5,1.5-2.3,2.3
						c-1.8,1.8-2.9,4.2-3.2,6.8c-0.3,2.4-0.1,5.5,1.4,7.5c0.1,0.2,0.3,0.3,0.4,0.5c1.8,2.4,3.9,4.7,7,5.4c3,0.7,6.4,0.6,9.1-1.2
						c13.1-8.7,26.7-16.7,40.9-23.7c4.3-2.1,8.7-4.1,13.1-6c-0.9,0.4-1.9,0.8-2.8,1.2c12.8-5.4,26.1-9.7,39.9-11.6
						c-1,0.1-2.1,0.3-3.1,0.4c5.1-0.7,10.2-1,15.3-0.8c6.3,0.2,12.5,1,18.7,1.8c-1-0.1-2.1-0.3-3.1-0.4c33.2,4.5,65.8,13.8,99.5,14
						c7.7,0.1,15.4-0.4,23-1.5c7.1-1,14.1-2.3,20.8-4.8c7.7-2.8,14.7-6.5,21-11.8c5.9-4.9,10-11.3,12.9-18.3
						C704,100.4,700.2,82.9,691.1,70.3c-1.8-2.6-3.9-4.5-7-5.4c-2.8-0.8-6.6-0.4-9.1,1.2c-2.5,1.6-4.7,4-5.4,7
						c-0.7,2.9-0.6,6.5,1.2,9.1c2,2.8,3.7,5.7,5.1,8.9c-0.4-0.9-0.8-1.9-1.2-2.8c1.3,3.2,2.3,6.5,2.8,9.9c-0.1-1-0.3-2.1-0.4-3.1
						c0.4,3,0.4,6.1,0,9.1c0.1-1,0.3-2.1,0.4-3.1c-0.4,2.8-1.1,5.4-2.2,8c0.4-0.9,0.8-1.9,1.2-2.8c-1.1,2.6-2.6,5.1-4.3,7.4
						c0.6-0.8,1.2-1.6,1.8-2.4c-2,2.5-4.3,4.8-6.8,6.7c0.8-0.6,1.6-1.2,2.4-1.8c-3.5,2.7-7.4,4.8-11.4,6.5c0.9-0.4,1.9-0.8,2.8-1.2
						c-7.1,3-14.7,4.7-22.4,5.8c1-0.1,2.1-0.3,3.1-0.4c-16.6,2.2-33.5,1.3-50-0.9c1,0.1,2.1,0.3,3.1,0.4
						c-15.4-2.1-30.6-5.2-45.9-7.9c-8.4-1.5-16.8-2.8-25.3-4c-6.9-0.9-13.9-1.8-20.9-1.8c-13.3,0-26.6,2.7-39.2,6.7
						c-13.2,4.2-25.9,9.8-38.2,16.2c-12.1,6.3-23.8,13.3-35.2,20.8c5.4,1.4,10.7,2.8,16.1,4.2c-0.1-0.2-0.3-0.3-0.4-0.5
						c-0.6,4.8-1.2,9.5-1.8,14.3c1.8-1.8,3.6-3.5,4.7-5.9c1-2,1.9-4,2.9-5.9c2.1-4.3,4.4-8.5,6.7-12.7c5.1-9.3,10.5-18.3,16.4-27.1
						c3.6-5.4,7.4-10.6,11.3-15.7c-0.6,0.8-1.2,1.6-1.8,2.4c8.4-10.8,17.6-21.1,27.8-30.2c2.9-2.6,5.9-5.1,9-7.5
						c-0.8,0.6-1.6,1.2-2.4,1.8c9.4-7.2,19.5-13.5,30.5-18.1c-0.9,0.4-1.9,0.8-2.8,1.2c11-4.6,22.3-7.1,34.1-8.7
						c-1,0.1-2.1,0.3-3.1,0.4c20.2-2.7,40.8-3.1,61-0.4c-1-0.1-2.1-0.3-3.1-0.4c14.6,2,29,5.6,42.6,11.3c-0.9-0.4-1.9-0.8-2.8-1.2
						c9.3,3.9,18.2,8.8,26.1,14.9c-0.8-0.6-1.6-1.2-2.4-1.8c4.9,3.8,9.4,8,13.1,12.9c-0.6-0.8-1.2-1.6-1.8-2.4
						c0.3,0.4,0.6,0.8,0.9,1.2c1.9,2.5,3.9,4.5,7,5.4c2.8,0.8,6.6,0.4,9.1-1.2c2.5-1.6,4.7-4,5.4-7C693,76.4,693,72.8,691.1,70.3z"
						/>
				</g>
			</g>
		</g>
	</g>
	<g id="Shirt">
		<path class="st7" d="M470.1,754.2c-89.9,22.2-192.7,18.3-288.6-1.5c-66.9-55.8-122.4-150-122.4-224.4l544.8,4.8
			C577.5,644.7,534.9,704.1,470.1,754.2z"/>
		<g>
			<path class="st7" d="M595.7,540.5c-159,27.8-480.6,19.3-533.3-5.2c-1.3-0.6-3.1-1.4-3.3-2.2c-1.9-12.1-1.2-18-2.4-34.8
				c-0.3-3.5,13.2,0,23.6,2.8c161.1,44,340.7,21.6,510.2-0.6c8-1,13.6-1.9,14.5,1.3c2.4,8.4,2.4,15.6-2.3,35.8
				C602.4,539.4,599,540,595.7,540.5z"/>
		</g>
		<g class="st8">
			<path class="st9" d="M595.7,540.5c-159,27.8-480.6,19.3-533.3-5.2c-1.3-0.6-3.1-1.4-3.3-2.2c-1.9-12.1-1.2-18-2.4-34.8
				c-0.3-3.5,13.2,0,23.6,2.8c161.1,44,340.7,21.6,510.2-0.6c8-1,13.6-1.9,14.5,1.3c2.4,8.4,2.4,15.6-2.3,35.8
				C602.4,539.4,599,540,595.7,540.5z"/>
		</g>
		<path class="st10" d="M83.6,624.8c88.5,24.4,346,27.3,492.7-5.7c6.6-15.3,12.6-31.9,18.1-50.1c-0.4,0.1-0.9,0.2-1.3,0.2
			c-169.5,31.2-349.1,62.8-510.2,0.8c-6.9-2.6-15.1-5.7-19.8-6.1C67,583.9,74.1,604.5,83.6,624.8z"/>
		<path class="st10" d="M512.8,716.1c16.8-17.5,31.6-36.9,44.6-59.4c-153.1,30-312.5,54-457.8-1.6c13.9,23.6,30.7,46.2,49.1,66.2
			C244.2,733.5,395.3,733.4,512.8,716.1z"/>
		<g>
			<path class="st7" d="M73.9,601.7c-0.5-1.2-0.9-2.4-1.3-3.7C73,599.3,73.4,600.5,73.9,601.7z"/>
			<path class="st7" d="M110.5,672.5c-1.8-2.7-3.6-5.5-5.3-8.3C106.9,667,108.7,669.8,110.5,672.5z"/>
			<path class="st7" d="M122.3,689.4c-2-2.6-3.9-5.3-5.8-8C118.5,684.1,120.4,686.7,122.3,689.4z"/>
			<path class="st7" d="M81.7,620.7c-0.5-1.2-1.1-2.4-1.6-3.6C80.7,618.4,81.2,619.6,81.7,620.7z"/>
			<path class="st7" d="M141.9,713.7c-2.2-2.5-4.3-5.1-6.5-7.6C137.5,708.6,139.7,711.2,141.9,713.7z"/>
			<path class="st7" d="M135.2,705.7c-4.3-5.2-8.5-10.5-12.5-16C126.7,695.2,130.9,700.5,135.2,705.7z"/>
			<path class="st7" d="M116.4,681.1c-1.9-2.8-3.9-5.6-5.7-8.4C112.5,675.5,114.4,678.3,116.4,681.1z"/>
			<path class="st7" d="M75.3,605.5c-0.5-1.2-0.9-2.4-1.4-3.6C74.4,603.1,74.9,604.3,75.3,605.5z"/>
			<path class="st7" d="M76.8,609.2c-0.5-1.2-0.9-2.3-1.4-3.5C75.9,606.9,76.3,608,76.8,609.2z"/>
			<path class="st7" d="M148.8,721.4c-2.3-2.5-4.6-5-6.8-7.6C144.2,716.3,146.5,718.9,148.8,721.4z"/>
			<path class="st7" d="M80,616.8c-0.5-1.1-1-2.3-1.5-3.4C79,614.5,79.5,615.6,80,616.8z"/>
			<path class="st7" d="M78.4,613c-0.5-1.2-1-2.3-1.4-3.5C77.4,610.7,77.9,611.9,78.4,613z"/>
			<path class="st7" d="M527.8,699.3c-0.9,1.1-1.8,2.2-2.8,3.3C526,701.5,526.9,700.4,527.8,699.3z"/>
			<path class="st7" d="M549.7,669.4c-0.8,1.2-1.5,2.4-2.3,3.5C548.2,671.7,548.9,670.6,549.7,669.4z"/>
			<path class="st7" d="M552.1,665.6c-0.6,0.9-1.1,1.8-1.7,2.7C550.9,667.4,551.5,666.5,552.1,665.6z"/>
			<path class="st7" d="M547.3,673c-0.8,1.3-1.7,2.5-2.5,3.8C545.6,675.5,546.5,674.3,547.3,673z"/>
			<path class="st7" d="M544.4,677.3c-0.7,1-1.4,2-2.1,3C543,679.4,543.7,678.4,544.4,677.3z"/>
			<path class="st7" d="M554.5,661.6c-0.6,0.9-1.1,1.8-1.7,2.8C553.4,663.5,553.9,662.6,554.5,661.6z"/>
			<path class="st7" d="M557.4,656.7c-0.7,1.3-1.5,2.6-2.3,3.8C555.9,659.3,556.7,658,557.4,656.7z"/>
			<path class="st7" d="M530.7,695.8c-0.8,1-1.7,2-2.5,3.1C529,697.8,529.8,696.8,530.7,695.8z"/>
			<path class="st7" d="M515.9,712.9c-1,1.1-2,2.1-3,3.2C513.8,715,514.9,713.9,515.9,712.9z"/>
			<path class="st7" d="M72.5,598c-4.1-11.4-7.3-22.8-9.6-34C65.2,575.2,68.4,586.6,72.5,598z"/>
			<path class="st7" d="M525,702.6c-2.9,3.4-5.9,6.8-9,10.1C519.1,709.4,522.1,706,525,702.6z"/>
			<path class="st7" d="M539.1,684.8c-0.8,1.1-1.6,2.2-2.5,3.3C537.4,687,538.3,685.9,539.1,684.8z"/>
			<path class="st7" d="M541.7,681.2c-0.7,0.9-1.3,1.9-2,2.8C540.3,683.1,541,682.2,541.7,681.2z"/>
			<path class="st7" d="M536.5,688.3c-1.8,2.4-3.7,4.8-5.5,7.1C532.9,693,534.7,690.7,536.5,688.3z"/>
			<path class="st7" d="M592.2,575.8c-1.4,4.3-2.8,8.6-4.2,12.7C589.5,584.4,590.8,580.2,592.2,575.8z"/>
			<path class="st7" d="M594.3,569c-0.7,2.2-1.3,4.4-2,6.6C593,573.4,593.6,571.2,594.3,569z"/>
			<path class="st7" d="M583.3,601.6c-1.5,3.9-3,7.7-4.5,11.5C580.3,609.3,581.8,605.5,583.3,601.6z"/>
			<path class="st7" d="M576.3,619.1c0.8-1.8,1.6-3.7,2.3-5.5C577.8,615.4,577,617.2,576.3,619.1z"/>
			<path class="st7" d="M587.9,589c-1.4,4.1-2.9,8.1-4.3,12C585,597.1,586.5,593.1,587.9,589z"/>
			<polygon class="st10" points="576.3,619.1 576.3,619.1 576.3,619.1 			"/>
			<path class="st10" d="M72.6,598.1C72.5,598,72.5,598,72.6,598.1C72.5,598,72.5,598,72.6,598.1z"/>
			<path class="st10" d="M578.8,613.1c-0.1,0.2-0.1,0.3-0.2,0.5C578.7,613.4,578.7,613.2,578.8,613.1z"/>
			<path class="st10" d="M583.5,601c-0.1,0.2-0.1,0.4-0.2,0.5C583.4,601.4,583.5,601.2,583.5,601z"/>
			<path class="st10" d="M75.4,605.7c0-0.1-0.1-0.1-0.1-0.2C75.4,605.6,75.4,605.6,75.4,605.7z"/>
			<path class="st10" d="M78.5,613.4c0-0.1-0.1-0.2-0.1-0.3C78.4,613.1,78.5,613.3,78.5,613.4z"/>
			<path class="st10" d="M74,601.9c0-0.1,0-0.1-0.1-0.2C73.9,601.8,73.9,601.8,74,601.9z"/>
			<polygon class="st10" points="594.3,569 594.3,569 594.3,569 			"/>
			<path class="st10" d="M76.9,609.5c0-0.1-0.1-0.2-0.1-0.4C76.8,609.3,76.9,609.4,76.9,609.5z"/>
			<path class="st10" d="M592.3,575.6c0,0.1-0.1,0.2-0.1,0.3C592.2,575.7,592.3,575.7,592.3,575.6z"/>
			<polygon class="st10" points="62.9,564 62.9,564 62.9,564 			"/>
			<path class="st10" d="M80.2,617.2c-0.1-0.1-0.1-0.3-0.2-0.4C80,616.9,80.1,617,80.2,617.2z"/>
			<path class="st10" d="M588,588.5c-0.1,0.2-0.1,0.3-0.2,0.5C587.9,588.8,588,588.7,588,588.5z"/>
			<path class="st10" d="M81.8,621c0-0.1-0.1-0.2-0.1-0.2C81.8,620.8,81.8,620.9,81.8,621z"/>
			<g class="st8">
				<polygon class="st9" points="573.3,532.8 549,532.6 573.3,532.8 				"/>
			</g>
			<g class="st8">
				<path class="st9" d="M437.6,677.5c29.4-4.2,58.8-9.2,88-14.7c6-12.1,11.5-24.7,16.7-37.1c-22.4,3.9-46.5,7.1-71.6,9.6
					C460.2,651.1,448.9,665.4,437.6,677.5z"/>
			</g>
			<g class="st8">
				<path class="st9" d="M307.5,751c63.4,9.7,95.8,5.8,147.1-9c12.6-3.6,23.9-11.7,34.2-22.6c-39.1,4.9-81.1,8-123,9.5
					C344.2,739.5,321.4,748.6,307.5,751z"/>
			</g>
			<g class="st8">
				<path class="st9" d="M513.9,532.5c-2.8,17.9-8.6,36-16.2,53.6c21.3-3.5,42.5-7.2,63.5-11c4.6-14.2,8.9-28.6,12.1-42.2l-24.3-0.2
					l-33.8-0.3L513.9,532.5z"/>
			</g>
			<g class="st8">
				<path class="st9" d="M470.6,635.4c25.1-2.6,49.2-5.7,71.6-9.6c0.7-1.8,1.5-3.6,2.2-5.3c5.6-13.6,11.4-29.3,16.7-45.4
					c-21.1,3.8-42.3,7.5-63.5,11C490.2,603.3,480.9,620,470.6,635.4z"/>
			</g>
			<path class="st10" d="M542.3,680.4c-0.2,0.3-0.4,0.6-0.6,0.9C541.9,681,542.1,680.7,542.3,680.4z"/>
			<path class="st10" d="M555.2,660.6c-0.2,0.4-0.4,0.7-0.7,1.1C554.7,661.3,554.9,660.9,555.2,660.6z"/>
			<path class="st10" d="M539.6,684.1c-0.2,0.3-0.4,0.5-0.5,0.8C539.3,684.6,539.4,684.3,539.6,684.1z"/>
			<path class="st10" d="M544.8,676.8c-0.1,0.2-0.3,0.4-0.4,0.6C544.5,677.2,544.7,677,544.8,676.8z"/>
			<path class="st10" d="M552.8,664.4c-0.2,0.4-0.5,0.8-0.7,1.2C552.3,665.2,552.6,664.8,552.8,664.4z"/>
			<path class="st10" d="M550.4,668.3c-0.2,0.3-0.4,0.7-0.7,1C549.9,669,550.1,668.7,550.4,668.3z"/>
			<path class="st10" d="M547.4,672.9c0,0,0,0.1-0.1,0.1C547.3,673,547.4,672.9,547.4,672.9z"/>
			<polygon class="st10" points="557.4,656.7 557.4,656.7 557.4,656.7 			"/>
			<path class="st10" d="M531,695.4c-0.1,0.1-0.2,0.3-0.3,0.4C530.8,695.6,530.9,695.5,531,695.4z"/>
			<path class="st10" d="M142,713.8C141.9,713.7,141.9,713.7,142,713.8C141.9,713.7,141.9,713.7,142,713.8z"/>
			<polygon class="st10" points="148.8,721.4 148.8,721.4 148.8,721.4 			"/>
			<path class="st10" d="M536.6,688.2c0,0-0.1,0.1-0.1,0.1C536.5,688.2,536.6,688.2,536.6,688.2z"/>
			<polygon class="st10" points="512.8,716.1 512.8,716.1 512.8,716.1 			"/>
			<path class="st10" d="M122.6,689.8c-0.1-0.1-0.2-0.3-0.3-0.4C122.4,689.5,122.5,689.6,122.6,689.8z"/>
			<path class="st10" d="M110.6,672.7c0-0.1-0.1-0.1-0.1-0.2C110.6,672.6,110.6,672.6,110.6,672.7z"/>
			<path class="st10" d="M116.6,681.4c-0.1-0.1-0.1-0.2-0.2-0.3C116.4,681.2,116.5,681.3,116.6,681.4z"/>
			<path class="st10" d="M135.4,706.1c-0.1-0.1-0.2-0.2-0.3-0.3C135.2,705.9,135.3,706,135.4,706.1z"/>
			<path class="st10" d="M525.1,702.6C525,702.6,525,702.6,525.1,702.6C525,702.6,525,702.6,525.1,702.6z"/>
			<path class="st10" d="M528.2,698.8c-0.1,0.1-0.2,0.3-0.4,0.4C527.9,699.1,528.1,699,528.2,698.8z"/>
			<path class="st10" d="M105.2,664.2c-0.1-0.2-0.2-0.4-0.3-0.6C104.9,663.9,105.1,664.1,105.2,664.2z"/>
			<path class="st10" d="M516,712.7c-0.1,0.1-0.1,0.1-0.2,0.2C515.9,712.8,516,712.7,516,712.7z"/>
			<path class="st11" d="M413.2,700.4c-10.6,8.4-28.6,19-47.4,28.4c41.9-1.5,83.9-4.6,123-9.5c14-14.8,26.1-35,36.7-56.5
				c-29.2,5.5-58.6,10.5-88,14.7C429.3,686.5,421,694.2,413.2,700.4z"/>
		</g>
		<path class="st7" d="M590.6,500.5c-169.5,22.2-349.1,44.6-510.2,0.6c-10.4-2.8-23.9-6.4-23.6-2.8c1.2,16.8,0.5,22.7,2.4,34.8
			c0.1,0.6,1.1,1.2,2.2,1.7c62.5,22.7,374.2,27,529.7-1.9c3.3-0.6,6.7-1.3,7.1-3c3.5-15.8,4.3-23.7,3.2-30.4
			C598.7,499.4,595,500,590.6,500.5z"/>
		<path class="st12" d="M605.1,501.9c-0.9-3.3-6.6-2.4-14.5-1.3c-169.5,22.2-349.1,44.6-510.2,0.6c-10.4-2.8-23.9-6.4-23.6-2.8
			c1.2,16.8,0.5,22.7,2.4,34.8c0,0.1,0.1,0.2,0.1,0.2c2.4,73.6,57,164.9,122.3,219.4c95.8,19.8,198.6,23.7,288.6,1.5
			c64.8-50.1,107.4-109.5,133.8-221.1l-0.1,0C607.5,516.3,607.3,509.6,605.1,501.9z"/>
	</g>
	<g id="Bal">

			<ellipse transform="matrix(0.5353 -0.8447 0.8447 0.5353 -324.369 637.9411)" class="st13" cx="417.6" cy="613.8" rx="100.3" ry="154.8"/>
		<path class="st14" d="M405.1,718.2c19.5,7,36.8,10.1,50,11.6c7.1,1.5,38.6,7.1,68.5-12.2c18.6-12,27.9-28.1,31.8-36.1
			c1.5-4.9,3-11.3,3.4-19c0.3-6.6-0.1-13.4-1.4-20.3c-1.8-4.2-5.6-11.1-13.8-21.1c-9.6-11.7-18.5-19.5-22.1-22.5
			c-4.7-4-20.1-16.7-48.1-32.3c-22.3-12.4-40.3-19.7-51.6-24.3c-37.9-15.3-52.6-18.4-67.8-20.2c0,0-11.9-2-27.2-1.6
			c-1.1,0-2.8-0.9-3.1-2.1c-0.4-2,3.3-4,9.1-8c9.6-6.6,10.8-7.1,15.3-9.3c8.1-3.9,12.9-3.4,12.9-3.9c0-0.5-5.3-1.2-12.4-0.6
			c-4.5,0.5-8.8,1.3-13,2.3c0,0,0,0,0,0c-2.8,0.7-5.5,1.4-8.1,2.3c0,0-0.1,0-0.1,0c-1.3,0.4-2.6,0.9-3.8,1.3c0,0,0,0,0,0
			c-1.3,0.5-2.5,1-3.7,1.5c-0.1,0-0.2,0.1-0.2,0.1c-1.2,0.5-2.4,1-3.5,1.6c0,0,0,0-0.1,0c-1.2,0.6-2.3,1.2-3.4,1.8
			c-0.1,0.1-0.2,0.1-0.3,0.2c-1.1,0.6-2.1,1.2-3.2,1.9c0,0-0.1,0-0.1,0c-1.1,0.7-2.1,1.3-3.1,2c-0.1,0.1-0.3,0.2-0.4,0.3
			c-1,0.7-1.9,1.4-2.9,2.1c0,0-0.1,0-0.1,0.1c-1,0.7-1.9,1.5-2.8,2.3c-0.1,0.1-0.3,0.2-0.4,0.4c-0.9,0.8-1.7,1.6-2.6,2.4
			c0,0,0,0-0.1,0c-0.9,0.8-1.7,1.7-2.5,2.6c-0.1,0.1-0.3,0.3-0.4,0.4c-0.8,0.9-1.6,1.8-2.3,2.7c0,0,0,0,0,0
			c-4.5,6-7.2,12.3-9.3,17.5c-1.2,2.8-3.5,8.4-5.1,15.7c0,0,0,0,0,0c-0.1,1-0.3,2-0.4,3c0,0.2,0,0.3,0,0.5c-0.1,0.9-0.2,1.7-0.2,2.6
			c0,0.2,0,0.3,0,0.5c-0.1,1-0.1,1.9-0.1,2.9c0,0,0,0.1,0,0.1c-0.1,2.1,0,4.3,0.1,6.5c0,0.1,0,0.1,0,0.2c0.1,1,0.1,2,0.2,3
			c0,0.1,0,0.3,0,0.4c0.1,1,0.2,2,0.3,2.9c0,0.1,0,0.2,0,0.3c0.4,3.3,1,6.6,1.8,10c0,0.1,0,0.1,0,0.2c0.2,1.1,0.5,2.1,0.8,3.2
			c0,0.1,0,0.2,0.1,0.2c1.2,4.5,2.7,9.1,4.5,13.7c0,0,0,0.1,0,0.1c0.4,1.1,0.9,2.3,1.4,3.4c1.9,4,3.9,7.7,5.9,11.4
			c8.7,16.4,18,27.2,24.6,34.8c10.6,12.2,21.1,21.5,29.5,28.1c0,0,0,0,0,0c1.4,1.1,2.9,2.2,4.3,3.3c0.1,0,0.1,0.1,0.2,0.1
			c1.5,1.1,2.9,2.1,4.4,3.2c0.1,0,0.1,0.1,0.2,0.1c1.3,0.9,2.7,1.8,4,2.7c0.3,0.2,0.7,0.4,1,0.7c1.4,0.9,2.9,1.9,4.3,2.8
			c0.3,0.2,0.5,0.3,0.8,0.5C372.6,703.8,386.6,711.6,405.1,718.2z"/>
		<path class="st15" d="M518.5,721.8c3.9-1.5,7.4-3.9,11.9-6.9c8.1-5.6,13.6-11.7,18.6-20.2c4.7-7.9,9.5-16.3,9.4-25.5
			c-0.1-6-2.3-11.8-5-17.1c-9.9-19.3-25.7-33.3-42.3-46.8c-47.9-38.9-108.3-63.5-169.6-70c-10.7-1.1-21.4-1.7-32.2-1.6
			c-8.6,0-18.7,1.2-23.2,8.6c-2.1,3.4-2.5,7.6-2.5,11.7c0.1,10.5,2.7,20.7,6.1,30.6c23.6,69.6,85.2,124.9,156.9,140.9
			c18.5,4.1,38,6.8,56.5,2.3"/>
		<path class="st13" d="M540.6,698.7c0.7-0.9,3.4-4.8,4.7-10.7c0.8-3.7,1.1-8.7-1.6-18.3c-1.6-5.6-3.9-13.7-10.3-23.7
			c-8.3-12.8-17.6-19.9-32-30.8c-2.4-1.8-11.3-8.5-24-16.2c-17.5-10.5-31.8-16.5-35.9-18.2c-14.5-6-26-9.1-35.6-11.7
			c-16-4.3-28.1-6.3-35.1-7.4c-11.9-1.9-18.1-2.3-22.1-2.5c-4.3-0.2-1.5,0.1-17.7,0.2c-6.8,0-10.3,0-15,1.4c-3.9,1.1-6.9,2-9.3,4.7
			c-1.2,1.4-3.6,4.8-2.8,15.5c0.6,8.7,2.8,15.5,4.6,20.4c1.7,4.7,4.9,12.8,12.4,26.2c5.2,9.4,8.9,15.9,14.9,24.1
			c4.2,5.7,11.4,15.3,23.2,25.4c9.3,7.9,17.1,12.4,28.4,18.9c6.5,3.7,14.6,8.3,26.2,13.1c13.8,5.7,24.5,8.3,27.9,9.1
			c4.8,1.1,10.3,2.4,17.8,3c1.6,0.1,9.4,0.8,20,0c3.8-0.3,13.6-1.2,26-4.6c10.9-3,18.5-6.4,24.1-9.4
			C534.6,704.8,537.9,702.5,540.6,698.7z"/>
		<g>
			<path class="st3" d="M533.5,646.1c-8.3-12.8-17.6-19.9-32-30.8c-1.2-0.9-3.8-2.9-7.6-5.5c-20.5,37.8-48.5,71.5-82,98.7
				c0.6,0.3,1.3,0.5,2,0.8c13.8,5.7,24.5,8.3,27.9,9.1c4.8,1.1,10.3,2.4,17.8,3c1.6,0.1,9.4,0.8,20,0c3.8-0.3,13.6-1.2,26-4.6
				c10.9-3,18.5-6.4,24.1-9.4c5-2.7,8.3-5,11-8.7c0.7-0.9,3.4-4.8,4.7-10.7c0.8-3.7,1.1-8.7-1.6-18.3
				C542.2,664.2,539.9,656.1,533.5,646.1z"/>
		</g>

			<ellipse transform="matrix(0.5353 -0.8447 0.8447 0.5353 -324.369 637.9411)" class="st16" cx="417.6" cy="613.8" rx="100.3" ry="154.8"/>
	</g>
	<g id="Links">

			<ellipse transform="matrix(0.5926 -0.8055 0.8055 0.5926 -427.1246 350.7326)" class="st17" cx="133.1" cy="597.6" rx="55.2" ry="109.8"/>
		<g>
			<path class="st18" d="M164.4,669.1l0.2,0c31.2,3.3,37.6-12.6,38.1-30.8c0.4-17.6-10.6-51.7-41.6-78.8
				c-9.6-8.4-19.9-19.5-33.6-26.4c25.2,7.3,41,26.5,63.6,40.8c19.4,12.3,31.2,32.5,33.5,46.8c3.7,22.8,9.7,33.6-1.4,48
				c-12.1,15.7-51.5,9.8-89.8-4"/>
		</g>

			<ellipse transform="matrix(0.5926 -0.8055 0.8055 0.5926 -427.1246 350.7326)" class="st19" cx="133.1" cy="597.6" rx="55.2" ry="109.8"/>
		<path class="st20" d="M119.4,582.6c14-14,29.2-24.7,43-31.1c-18.9-13.6-40-24.1-60.5-29.3c-49.4-12.5-75.9,11.1-59.3,52.7
			c7.8,19.5,23.6,39.4,43.2,56.5C91.7,616,103.3,598.6,119.4,582.6z"/>
	</g>
	<g id="Arm_rechts">
		<g>

				<ellipse id="Rechts" transform="matrix(0.9197 -0.3925 0.3925 0.9197 -198.354 253.8916)" class="st21" cx="521.7" cy="612" rx="109.2" ry="53.1"/>
			<g>
				<path class="st18" d="M561.4,547.2c33.8,12.6,32.4,32.7,23.8,51.9c-8.4,18.7-36.8,48.7-82.3,61.2c-14.1,3.9-30.3,10.2-47.8,10.4
					c29.6,5.4,55.6-6.7,86-10c26.1-2.9,48.4-18,57.9-31.8c15.3-22,26.8-30.3,22.6-51c-4.6-22.7-27.3-44.8-75.3-28"/>
			</g>

				<ellipse id="Rechts_00000106852329720240316960000007218781283797812129_" transform="matrix(0.9197 -0.3925 0.3925 0.9197 -198.354 253.8916)" class="st22" cx="521.7" cy="612" rx="109.2" ry="53.1"/>
		</g>
		<path class="st20" d="M536.6,599.4c-10.3-17-20.4-28-32.3-37.5c21.6-8.7,42.5-16.9,63.5-17.1c50.9-0.6,71.2,28.7,45.2,65.2
			c-12.1,17.1-32.2,32.8-55.3,44.7C555.6,638.4,548.4,618.7,536.6,599.4z"/>
		<g>
			<path class="st11" d="M621.6,577.9c-2.1-10.2-7.8-20.2-17.8-26.7c-9.2-4.3-21.3-6.6-36-6.4c-0.5,0-1,0-1.5,0.1
				c-6.1,0.9-12.8,2.5-20,5.1l15.1-2.7c33.8,12.6,32.4,32.7,23.8,51.9c-4.6,10.3-15.4,24.2-31.8,36.6c2.1,6.7,3.6,13.1,4.4,19.1
				c20.1-10.3,37.8-23.5,50.1-38c4.3-5.6,7.9-10.4,10.4-15.1c0-0.1,0.1-0.2,0.1-0.2C622.1,594.5,623.5,587.5,621.6,577.9z"/>
		</g>
		<g>
			<path class="st23" d="M536.6,599.4c-10.3-17-20.4-28-32.3-37.5c21.6-8.7,42.5-16.9,63.5-17.1c50.9-0.6,71.2,28.7,45.2,65.2
				c-12.1,17.1-32.2,32.8-55.3,44.7C555.6,638.4,548.4,618.7,536.6,599.4z"/>
		</g>
	</g>
	<g id="Hat">
		<g>
			<path class="st7" d="M171.6,319c6.3-18.3,24.3-21.5,41.6-21.5c80.4,0,160.8,0,241.2,0c9,0,18.7,0.3,25.7,5.9
				c5.4,4.4,8.1,11.2,10.6,17.6c17.5,45.7,32.7,86.5,50.2,132.2c1,2.7,2.3,5.6,4.8,6.8c2.3,1.1,5.1,0.4,7.5-0.2
				c13.2-3.5,26.4-7,39.6-10.5c2.7-0.7,5.7-1.6,7.3-3.9c1.7-2.4,1.5-3.3,1.2-6.2c-7.3-71.7-21.4-142.9-65.5-199.9
				c-30.1-38.8-72.4-68.1-119.3-82.6c-83.2-25.7-178.1-2.9-245.1,52.8S65.2,350.8,59.4,437.7c-0.3,4.4-0.3,9.5,2.8,12.6
				c2.1,2.1,5.1,2.9,7.9,3.6c12,2.9,24.1,5.4,36.2,7.6c2.9,0.5,6,1,8.7-0.4c3-1.5,4.4-4.9,5.6-8.1c15.1-39.5,30.5-79.6,45.7-119.3
				c1.8-4.7,3.6-10.7,5.5-15.4"/>
		</g>
		<g class="st8">
			<path class="st9" d="M557,447.6c1.1,2.6,2.4,5.5,5,6.6c2.4,1,5.1,0.3,7.5-0.4c13.1-3.9,9.4-2.9,22.5-6.8c2.7-0.8,5.6-1.7,7.2-4.1
				c1.7-2.5,1.4-3.3,1.1-6.3c-3.2-24.5-7.2-49-12.9-72.8c-23.8-73-52.1-147.7-115.6-185.6c-15-7.9-30.9-14.3-47.3-18.8
				c-25.9-7.2-52.7-9.8-79.4-8.2c5.3,0.5,10.7,1.2,16,2c50.4,7.9,99.9,30.6,134.8,66.5l0.2,0.7c49.3,50.7,60.3,130.7,50.5,207.2
				C550.1,435.8,553.5,439.2,557,447.6z"/>
		</g>
		<path class="st24" d="M540.2,244.5c-5.1-6.7-10.6-13.1-16.5-19.2H155.9c-6.9,6.8-12,12.5-15.2,16.3c-0.8,1-1.6,1.9-2.4,2.9H540.2z
			"/>
		<g>
			<path class="st25" d="M603,431.1l-44,10.8c-4.7,0-8.6-3.7-8.6-8.3l-52.2-126.2c-6.5-16.5-13.9-27.2-29.3-27.2H193
				c-6.4,0-12.4,1.9-17.2,5.7c-3.3,2.7-7.8,9.5-9.9,14.9l-42.6,104.9c-3.5,8.3-7.1,16.7-10.6,25c-2.4,5.6-3.8,8.3-8.6,8.3l-44.6-8.9
				c-0.6,5.2-1.1,10.5-1.5,15.8c-0.4,5,3.4,9.3,8.2,9.4l45.7,9.8c4.6,0,6-2.8,8.3-8.6c3.4-8.7,6.8-17.3,10.2-26l41.2-109.1
				c2-5.6,6.3-12.7,9.5-15.5c4.6-4,10.4-5.9,16.6-5.9h266.6c14.9,0,22,11.1,28.3,28.3L543,459.5c0,4.8,3.7,8.6,8.3,8.6l44.7-11.8
				c4.9,0,8.7-4.4,8.3-9.4C603.5,439.1,603.2,434.4,603,431.1z"/>
			<g>
				<path class="st26" d="M602.6,429.6c-12,2.9-24,5.9-36,8.8c-2.3,0.6-4.7,1.3-7,1.7c-0.5,0.1-0.8,0.2-1.3,0.2
					c-1.5,0-3.2-0.9-4.2-2c-1.5-1.5-1.6-2.9-2.1-4.8c-0.4-1.8-1.3-3.5-2-5.2c-10.6-25.7-21.3-51.5-31.9-77.2
					c-4.9-12-9.9-23.9-14.8-35.9c-4-9.8-7.4-20.5-14.7-28.3c-5.2-5.6-12.1-8.3-19.7-8.3c-1.4,0-2.7,0-4.1,0c-7.6,0-15.2,0-22.8,0
					c-27.9,0-55.8,0-83.7,0c-32.1,0-64.2,0-96.3,0c-21,0-42,0-63.1,0c-8.9,0-17.9,0.4-24.9,6.9c-7.5,7.1-10.8,18.2-14.6,27.6
					c-11,27.2-22.1,54.3-33.1,81.5c-1.3,3.2-2.6,6.5-4,9.7c-1.2,2.8-2.4,5.6-3.6,8.4c-1.6,3.7-3.1,7.3-4.7,11
					c-1.4,3.4-2.7,6.9-4.4,10.1c-3,5.4-8.7,2.8-13.5,1.8c-7.8-1.6-15.6-3.1-23.4-4.7c-4.2-0.8-8.5-1.7-12.7-2.5
					c-1-0.2-1.8,0.4-1.9,1.4c-0.5,4.2-0.9,8.4-1.3,12.7c-0.3,3.1-0.6,6,0.9,8.8c1.9,3.5,5,4.7,8.7,5.3c6,1,11.9,2.6,17.8,3.8
					c7.6,1.6,15.2,3.3,22.8,4.9c1.5,0.3,3,0.8,4.5,1c4.7,0.6,7.4-3.2,9.1-7c5.7-13.2,10.6-26.8,15.7-40.3
					c5.4-14.4,10.9-28.8,16.3-43.2c5.4-14.3,10.8-28.6,16.2-42.8c4.4-11.7,8.3-26.8,21.7-30.8c5.6-1.6,12.1-1,17.9-1
					c10.3,0,20.7,0,31,0c32.2,0,64.4,0,96.5,0c31.2,0,62.3,0,93.5,0c9.3,0,18.6,0,27.9,0c7.9,0,15.6-0.2,21.9,5.7
					c8.3,7.9,11.6,20.2,15.6,30.8c4.9,12.8,9.8,25.6,14.8,38.5c10.2,26.6,20.5,53.3,30.7,79.9c0.4,1,0.9,2,1.2,3
					c0.7,2.3,0.7,4.4,2.3,6.5c4.4,5.6,9.8,3.2,15.4,1.8c7.9-2.1,15.8-4.2,23.7-6.3c4.8-1.3,9.8-3,14.7-3.7c4.9-0.7,8.3-5.2,8.4-10.1
					c0-5.5-0.9-11.1-1.3-16.5c-0.1-1.9-3.1-1.9-3,0c0.2,2.3,0.3,4.6,0.5,6.9c0.3,3.3,1.1,7,0.8,10.3c-0.3,3.3-2.8,5.9-6,6.4
					c-0.8,0.1-1.3,0.2-2.1,0.3c-6.1,1.5-12.2,3.2-18.3,4.8c-7.2,1.9-14.5,3.8-21.7,5.7c-1.7,0.4-3.4,1.2-5.1,0.7
					c-3.5-1.1-4.3-3.7-5.1-6.9c-0.1-0.3-0.1-0.5-0.2-0.7c-0.7-2.7-2-5.3-3-7.9c-2-5.3-4.1-10.6-6.1-15.9
					c-5.7-14.9-11.5-29.9-17.2-44.8c-8.2-21.3-16.5-42.6-24.5-63.9c-3.6-9.5-8.3-20.4-17.9-25.2c-3.9-2-8.1-2.5-12.4-2.5
					c-6.3,0-12.6,0-18.9,0c-28,0-56,0-83.9,0c-33.2,0-66.5,0-99.7,0c-20.1,0-40.2,0-60.4,0c-2.2,0-4.3,0-6.4,0.3
					c-5.8,0.8-11.6,3.4-15.5,7.9c-3.6,4.2-6.2,9.2-8.2,14.4c-3,7.9-6,15.9-9,23.8c-10.3,27.2-20.5,54.4-30.8,81.6
					c-2,5.4-4.2,10.7-6.3,16.1c-1.5,3.8-3,7.7-4.5,11.5c-1,2.7-2,6.4-4.2,8.4c-1.9,1.6-3.6,1-5.7,0.6c-13.7-2.9-27.4-5.9-41.1-8.8
					c-2.4-0.5-5-0.5-6.9-2.3c-2.7-2.6-2.2-5.8-1.9-9.2c0.4-4.2,0.8-8.4,1.3-12.7c-0.6,0.5-1.3,1-1.9,1.4c12.3,2.4,24.6,4.9,37,7.3
					c4.2,0.8,9.5,2.9,13.4,0c1.7-1.3,2.7-3.3,3.6-5.2c1.7-3.7,3.2-7.5,4.8-11.2c2.3-5.5,4.7-11,7-16.5c9.4-22.8,18.6-45.7,27.9-68.5
					c4.5-11,9-22.1,13.5-33.1c2-4.9,4.1-9.7,7.5-13.9c4.9-6.2,12.2-8.7,19.9-8.7c16.1-0.1,32.1,0,48.2,0c30.8,0,61.7,0,92.5,0
					c30.3,0,60.6,0,91,0c14.5,0,29.1-0.1,43.6,0c9,0.1,16,4.4,20.9,11.9c3.3,5,5.5,10.5,7.7,15.9c3.8,9.1,7.5,18.2,11.3,27.3
					c11.5,27.8,23,55.6,34.5,83.4c1.6,3.8,3.1,7.5,4.7,11.3c1.6,3.8,1.7,7.8,5.5,10.3c4.6,2.9,9.5,0.6,14.3-0.5
					c7.7-1.9,15.4-3.8,23.1-5.7c4.2-1,8.3-2,12.5-3.1C605.2,432.1,604.4,429.2,602.6,429.6z"/>
			</g>
		</g>
		<g>
			<g>
				<path class="st26" d="M177.4,320.6c0.8-2.3,2-4.5,3.5-6.5c1.1-1.4,3.2-3.4,4.6-4.4c4.1-2.8,7.9-4.1,12.9-5
					c4.5-0.9,9.6-1.1,14.7-1.1c8.1,0,16.2,0,24.3,0c32.3,0,64.5,0,96.8,0c32.1,0,64.2,0,96.3,0c7.9,0,15.9,0,23.8,0
					c5.9,0,12.1-0.1,17.6,2.1c5.6,2.1,8.6,7,11,12.2c2.9,6.4,5.2,13.2,7.7,19.7c10.9,28.5,21.6,57.1,32.5,85.7
					c2.7,7.2,5.5,14.4,8.2,21.6c1.4,3.6,2.7,7.2,4.1,10.7c1.4,3.5,3.1,6.9,6.3,9c6.7,4.4,15.6,0.3,22.5-1.5c7.6-2,15.3-4.1,22.9-6.1
					c6.7-1.8,14.7-2.8,18.7-9.2c1.7-2.7,1.9-5.5,1.6-8.6c-0.4-3.7-0.8-7.4-1.2-11c-1.5-13.7-3.4-27.3-5.6-40.9
					c-4.4-26.6-10.6-53-20-78.3c-9.4-25.4-21.9-49.7-38.4-71.2c-16.2-21.2-35.7-39.7-57.7-54.8c-42.9-29.3-94.3-44.1-146.2-42.7
					c-51.3,1.4-102.1,17.7-145.1,45.7c-43.1,28.1-77.6,68.1-101.4,113.6c-11.9,22.8-21.2,47.1-27.8,72c-3.3,12.5-5.9,25.2-7.7,38
					c-0.9,6.5-1.7,13-2.3,19.5c-0.6,6.1-1.8,13.2,0.2,19.2c2.6,7.6,9.1,10.1,16.3,11.8c7.6,1.8,15.1,3.4,22.7,4.9
					c3.8,0.7,7.6,1.5,11.4,2.1c3.7,0.6,7.4,1.2,11.1,0c7.7-2.6,9.9-10.8,12.5-17.6c11.4-29.7,22.8-59.5,34.2-89.2
					c2.7-7,5.4-14,8.1-21.1c2.5-6.4,4.5-13,7-19.4c1.2-3-1.3-6.6-4.2-7.4c-3.4-0.9-6.2,1.2-7.4,4.2c-2.5,6.4-4.6,13-7,19.4
					c-2.8,7.4-5.6,14.7-8.5,22.1c-5.5,14.4-11,28.8-16.6,43.2c-5.6,14.5-11.1,29-16.7,43.5c-1.1,2.9-2,5.9-3.4,8.7
					c-1.2,2.3-2.3,2.6-4.9,2.3c-7.3-0.8-14.6-2.7-21.8-4.2c-3.4-0.7-6.9-1.5-10.3-2.3c-2.9-0.7-7.2-1-9.7-2.7
					c-3.3-2.3-1.7-9.5-1.4-13.2c1-12.3,2.7-24.6,5-36.8c4.7-24.1,11.9-47.9,21.7-70.4c19.8-45.3,49.7-86.1,88.6-116.8
					c38.2-30.1,85.6-49.7,133.9-55.4c49.2-5.8,99.1,2.8,142.7,26.6c22,12,42.1,27.5,59.3,45.8c17.7,18.8,32,40.6,43,64
					c10.9,23.3,18.4,48.1,24,73.1c2.9,13.1,5.2,26.4,7.2,39.7c0.9,6.3,1.8,12.6,2.5,19c0.8,6.4,1.2,12.8,2.1,19.2
					c0.2,1.2-0.1,0.1,0.2-0.3c2.6-3.5-0.5,0.7-0.4,0.7c-0.8,0.7-1.6,1-2.7,1.3c-3.6,1.1-7.3,1.9-10.9,2.9c-7.6,2-15.3,4.1-22.9,6.1
					c-1.7,0.5-3.5,0.9-5.2,1.4c-1.4,0.4-3.2,1.1-4.6,1.1c-1.7,0-1.8-1.4-2.5-2.9c-3-7.2-5.6-14.6-8.3-21.8
					c-10.6-27.9-21.1-55.8-31.7-83.7c-2.7-7.1-5.4-14.1-8.1-21.2c-2.4-6.2-4.5-12.7-8-18.4c-3.7-5.9-8.8-10.2-15.4-12.6
					c-5.9-2.2-12.5-2.5-18.7-2.5c-31-0.3-62,0-93,0c-31.4,0-62.7,0-94.1,0c-15.7,0-31.4,0-47,0c-11.4,0-23.5-0.5-34.4,3.6
					c-10.7,4-18.3,11.6-22.1,22.3c-1.1,3,1.2,6.6,4.2,7.4C173.3,325.7,176.3,323.6,177.4,320.6L177.4,320.6z"/>
			</g>
		</g>
	</g>
</g>
</svg>
