<?xml version="1.0" encoding="UTF-8"?>
<svg id="Elas" xmlns="http://www.w3.org/2000/svg" viewBox="0 0 747.83 746.53">
  <defs>
    <style>
      .cls-1, .cls-2, .cls-3, .cls-4, .cls-5, .cls-6, .cls-7, .cls-8, .cls-9, .cls-10, .cls-11, .cls-12 {
        stroke-miterlimit: 10;
      }

      .cls-1, .cls-2, .cls-3, .cls-5, .cls-7, .cls-8, .cls-9, .cls-11, .cls-12 {
        fill: none;
      }

      .cls-1, .cls-5 {
        stroke: #808181;
      }

      .cls-1, .cls-9 {
        stroke-width: 7px;
      }

      .cls-13 {
        fill: #603914;
      }

      .cls-13, .cls-14, .cls-15, .cls-16, .cls-17, .cls-18, .cls-19, .cls-20, .cls-21 {
        stroke-width: 0px;
      }

      .cls-14 {
        fill: #cecbcb;
      }

      .cls-2, .cls-4 {
        stroke: #4e4d4d;
        stroke-width: 19.61px;
      }

      .cls-3, .cls-6 {
        stroke: #010101;
      }

      .cls-3, .cls-11 {
        stroke-linecap: round;
      }

      .cls-15 {
        fill: #cac80b;
      }

      .cls-4, .cls-18, .cls-10 {
        fill: #fff;
      }

      .cls-16 {
        fill: #754d24;
      }

      .cls-17 {
        fill: #cdcccc;
      }

      .cls-6 {
        fill: #010101;
        stroke-width: 7.84px;
      }

      .cls-7 {
        stroke-width: 13px;
      }

      .cls-7, .cls-8 {
        stroke: #343434;
      }

      .cls-8 {
        stroke-width: 8px;
      }

      .cls-9 {
        stroke: #e52521;
      }

      .cls-19 {
        fill: #f4e600;
      }

      .cls-20 {
        fill: #ffcc07;
      }

      .cls-10, .cls-12 {
        stroke: #4f4e4e;
        stroke-width: 15px;
      }

      .cls-11 {
        stroke: #015438;
        stroke-width: 3px;
      }

      .cls-21 {
        fill: #4e4d4d;
      }
    </style>
  </defs>
  <g id="Elas-2" data-name="Elas">
    <g>
      <path class="cls-18" d="m511.07,151.44c-38.3-13.25-81.35-11.35-119.06,1.63-37.72,12.99-70.31,36.5-96.45,64.6-63.97,68.77-89.23,167.07-66.01,256.85,13.94,53.91,45.47,105.32,93.35,139.25,47.88,33.93,112.8,48.49,169.28,32.1,42.29-12.28,77.18-40.47,103.16-73.44,50.75-64.41,70.19-149.48,52.28-228.78-17.91-79.29-64.36-166.99-136.11-191.78"/>
      <path class="cls-21" d="m514.19,140.1c-53.97-18.5-114.56-8.8-163.61,18.82-44.38,25-81.05,64.09-105.38,108.65-23.84,43.67-36.5,93.46-35.88,143.25s14.41,98.97,40.46,141.16c13.16,21.32,29.44,40.95,48.44,57.31,20.22,17.42,42.98,30.98,67.88,40.56,23.87,9.19,49.58,14.23,75.17,14.51s52.28-4.97,76.51-15.38c46.55-20.01,83.99-58.88,109.18-102.2,25.94-44.62,39.64-96.39,38.93-148.01-.67-48.66-14.7-97-35.52-140.74-19.41-40.76-47.51-80.05-86.64-103.87-9.16-5.58-18.97-10.11-29.1-13.64-5.82-2.03-13.12,2.3-14.47,8.22-1.49,6.56,1.99,12.3,8.22,14.47,2.29.8,4.56,1.66,6.81,2.57s-2.62-1.16-.37-.16c.6.27,1.21.53,1.81.8,1.21.54,2.4,1.11,3.59,1.69,4.58,2.23,9.03,4.71,13.34,7.42,2.08,1.3,4.12,2.66,6.14,4.06.92.64,1.83,1.29,2.74,1.95.54.4,1.09.8,1.63,1.2.67.5,3.04,2.63.3.21,3.75,3.31,7.74,6.32,11.42,9.73,7.88,7.29,15.12,15.26,21.79,23.67.3.37.59.75.88,1.12,1.6,2.02-1.65-2.18-.09-.12.87,1.14,1.73,2.28,2.58,3.44,1.57,2.13,3.11,4.28,4.61,6.45,3.18,4.59,6.21,9.28,9.11,14.06,5.88,9.69,11.21,19.71,16.03,29.96,1.11,2.36,2.19,4.72,3.25,7.1.55,1.25,1.1,2.5,1.64,3.75.29.68.54,1.4.88,2.05-1.51-2.98-.31-.73-.04-.07,2.18,5.26,4.23,10.57,6.17,15.92,7.71,21.3,13.91,43.4,17.27,65.82.12.8.23,1.6.35,2.39.13.9.67,1.64-.09-.73.47,1.44.42,3.29.59,4.8.36,3.2.66,6.4.91,9.61.45,5.88.7,11.77.77,17.66.13,12.3-.57,24.61-2.1,36.81-.03.25-.32,2.9-.1.82s-.08.57-.12.82c-.23,1.59-.47,3.17-.72,4.76-.49,3.03-1.03,6.06-1.62,9.08-1.15,5.91-2.5,11.77-4.03,17.59-3.14,11.91-7.08,23.62-11.79,35.01-.2.49-.39,1.01-.62,1.49,1.4-2.94.18-.44-.08.15-.64,1.48-1.29,2.95-1.96,4.42-1.22,2.69-2.49,5.36-3.8,8.02-2.74,5.56-5.68,11.02-8.79,16.37s-6.43,10.65-9.92,15.79c-1.67,2.47-3.39,4.91-5.14,7.33-.8,1.1-1.61,2.19-2.42,3.28-.49.65-.99,1.3-1.48,1.95-1.43,1.9,1.47-1.87-.41.52-7.31,9.3-15.23,18.12-23.78,26.3-4.35,4.17-8.86,8.17-13.54,11.98-1.02.83-2.05,1.64-3.07,2.46-2.16,1.73,2.1-1.57-.11.09-.63.47-1.26.95-1.89,1.42-2.32,1.73-4.68,3.41-7.07,5.04-5.01,3.42-10.18,6.61-15.49,9.54-2.55,1.41-5.13,2.76-7.74,4.04s-5.76,3.21-8.69,4c2.99-.8.59-.25-.14.05-.49.2-.99.4-1.49.6-1.49.59-2.99,1.16-4.5,1.71-3.03,1.1-6.09,2.12-9.18,3.05-5.57,1.67-11.22,3.05-16.94,4.13-1.56.29-3.11.57-4.68.82-.73.12-3.42.93-3.92.58l1.56-.21c-.52.07-1.05.13-1.57.19-.79.09-1.58.18-2.36.27-1.58.17-3.16.31-4.74.44-6.08.48-12.18.65-18.28.53s-11.71-.5-17.53-1.13c-.8-.09-1.59-.18-2.39-.28l-.8-.1c-1.31-.17-1.06-.13.74.11-1.19.12-2.76-.39-3.97-.58-3.17-.5-6.33-1.07-9.48-1.72-12.07-2.48-23.93-6.02-35.4-10.53-1.25-.49-2.48-1-3.72-1.5-2.6-1.06,2.42,1.07-.15-.07-.61-.27-1.23-.53-1.84-.8-2.81-1.24-5.59-2.55-8.34-3.91-5.48-2.72-10.84-5.67-16.07-8.85s-10.26-6.57-15.17-10.18c-1.04-.77-2.26-1.52-3.2-2.4,2.28,2.14.4.3-.14-.12-.63-.49-1.25-.99-1.87-1.49-2.38-1.92-4.71-3.88-7.01-5.89-9-7.89-17.37-16.51-25.03-25.7-.84-1-1.67-2.02-2.49-3.04-.49-.61-.98-1.22-1.47-1.84-.42-.54-2.24-2.46-.09-.09-2.07-2.28-3.8-5.04-5.58-7.56-3.31-4.67-6.45-9.46-9.43-14.35-6.19-10.17-11.66-20.78-16.38-31.71-.1-.23-1.03-2.61-.32-.73s-.2-.5-.3-.73c-.59-1.43-1.16-2.86-1.72-4.3-1.07-2.75-2.1-5.52-3.08-8.3-1.91-5.43-3.65-10.91-5.2-16.45-3.22-11.47-5.59-23.13-7.29-34.92-.3-2.11.15.62.11.82.12-.61-.22-1.68-.29-2.31-.17-1.41-.33-2.82-.48-4.24-.31-2.95-.57-5.91-.79-8.87-.43-5.91-.66-11.84-.7-17.77-.08-11.71.59-23.42,2-35.04.08-.64.16-1.28.24-1.91.34-2.74-.41,2.8-.01.07.18-1.27.36-2.55.56-3.82.47-3.05.99-6.1,1.56-9.13,1.09-5.82,2.37-11.6,3.83-17.34,2.86-11.24,6.41-22.31,10.63-33.12.56-1.44,1.14-2.88,1.73-4.32.27-.66.49-1.56.89-2.15-.13.2-1.1,2.57-.28.67,1.24-2.85,2.49-5.68,3.81-8.49,2.53-5.39,5.23-10.71,8.1-15.93,5.64-10.26,11.92-20.17,18.81-29.64.92-1.27,1.86-2.53,2.8-3.78.31-.42.63-.83.95-1.25,1.66-2.2-1.63,2.06.08-.11,1.95-2.47,3.92-4.93,5.94-7.34,3.9-4.66,7.96-9.19,12.17-13.58,8.42-8.8,17.42-17.04,26.96-24.61.64-.5,1.26-1.04,1.93-1.51-2.58,1.83-.27.22.21-.15,1.09-.82,2.18-1.64,3.28-2.44,2.65-1.93,5.33-3.81,8.05-5.64,5.23-3.51,10.6-6.81,16.11-9.88s10.7-5.69,16.21-8.2c1.5-.68,3-1.46,4.55-2.01-3.19,1.12,1.17-.47,1.8-.72,3.1-1.24,6.23-2.4,9.39-3.49,6.37-2.19,12.84-4.06,19.4-5.58,3.15-.74,6.33-1.39,9.51-1.97,1.45-.26,2.91-.51,4.36-.74.87-.14,1.75-.26,2.63-.4,2.71-.42-2.12.24.39-.06,13.53-1.61,27.15-2.01,40.73-.75,1.47.14,2.94.29,4.41.46.6.07,3.62.32.39.03.88.08,1.76.25,2.63.39,3.21.5,6.41,1.08,9.59,1.77,6.36,1.37,12.62,3.12,18.78,5.23,5.83,2,13.12-2.28,14.47-8.22,1.49-6.54-1.98-12.33-8.22-14.47h0Z"/>
    </g>
    <ellipse class="cls-4" cx="520.43" cy="690.4" rx="77.69" ry="46.33"/>
    <path class="cls-17" d="m653.67,343.65c-17.91-79.29-64.36-166.99-136.11-191.78l-.44-.43c-21.25-7.35-43.96-10.03-66.41-8.75,4.59.6,9.18,1.33,13.76,2.24,39.09,7.77,77.2,27.78,103.59,58.49l.17.59c49.46,57.5,45.43,156.56,21.01,234.01-24.43,77.45-84.01,141.11-160.22,171.17-25.34,9.99-52.9,16.35-80.81,16.66,45.18,25.07,100.81,34.3,150.04,20.01,42.29-12.28,77.18-40.47,103.16-73.44,50.75-64.41,70.19-149.48,52.28-228.78Z"/>
    <path class="cls-21" d="m514.19,140.1c-53.97-18.5-114.56-8.8-163.61,18.82-44.38,25-81.05,64.09-105.38,108.65-23.84,43.67-36.5,93.46-35.88,143.25s14.41,98.97,40.46,141.16c13.16,21.32,29.44,40.95,48.44,57.31,20.22,17.42,42.98,30.98,67.88,40.56,23.87,9.19,49.58,14.23,75.17,14.51s52.28-4.97,76.51-15.38c46.55-20.01,83.99-58.88,109.18-102.2,25.94-44.62,39.64-96.39,38.93-148.01-.67-48.66-14.7-97-35.52-140.74-19.41-40.76-47.51-80.05-86.64-103.87-9.16-5.58-18.97-10.11-29.1-13.64-5.82-2.03-13.12,2.3-14.47,8.22-1.49,6.56,1.99,12.3,8.22,14.47,2.29.8,4.56,1.66,6.81,2.57s-2.62-1.16-.37-.16c.6.27,1.21.53,1.81.8,1.21.54,2.4,1.11,3.59,1.69,4.58,2.23,9.03,4.71,13.34,7.42,2.08,1.3,4.12,2.66,6.14,4.06.92.64,1.83,1.29,2.74,1.95.54.4,1.09.8,1.63,1.2.67.5,3.04,2.63.3.21,3.75,3.31,7.74,6.32,11.42,9.73,7.88,7.29,15.12,15.26,21.79,23.67.3.37.59.75.88,1.12,1.6,2.02-1.65-2.18-.09-.12.87,1.14,1.73,2.28,2.58,3.44,1.57,2.13,3.11,4.28,4.61,6.45,3.18,4.59,6.21,9.28,9.11,14.06,5.88,9.69,11.21,19.71,16.03,29.96,1.11,2.36,2.19,4.72,3.25,7.1.55,1.25,1.1,2.5,1.64,3.75.29.68.54,1.4.88,2.05-1.51-2.98-.31-.73-.04-.07,2.18,5.26,4.23,10.57,6.17,15.92,7.71,21.3,13.91,43.4,17.27,65.82.12.8.23,1.6.35,2.39.13.9.67,1.64-.09-.73.47,1.44.42,3.29.59,4.8.36,3.2.66,6.4.91,9.61.45,5.88.7,11.77.77,17.66.13,12.3-.57,24.61-2.1,36.81-.03.25-.32,2.9-.1.82s-.08.57-.12.82c-.23,1.59-.47,3.17-.72,4.76-.49,3.03-1.03,6.06-1.62,9.08-1.15,5.91-2.5,11.77-4.03,17.59-3.14,11.91-7.08,23.62-11.79,35.01-.2.49-.39,1.01-.62,1.49,1.4-2.94.18-.44-.08.15-.64,1.48-1.29,2.95-1.96,4.42-1.22,2.69-2.49,5.36-3.8,8.02-2.74,5.56-5.68,11.02-8.79,16.37s-6.43,10.65-9.92,15.79c-1.67,2.47-3.39,4.91-5.14,7.33-.8,1.1-1.61,2.19-2.42,3.28-.49.65-.99,1.3-1.48,1.95-1.43,1.9,1.47-1.87-.41.52-7.31,9.3-15.23,18.12-23.78,26.3-4.35,4.17-8.86,8.17-13.54,11.98-1.02.83-2.05,1.64-3.07,2.46-2.16,1.73,2.1-1.57-.11.09-.63.47-1.26.95-1.89,1.42-2.32,1.73-4.68,3.41-7.07,5.04-5.01,3.42-10.18,6.61-15.49,9.54-2.55,1.41-5.13,2.76-7.74,4.04s-5.76,3.21-8.69,4c2.99-.8.59-.25-.14.05-.49.2-.99.4-1.49.6-1.49.59-2.99,1.16-4.5,1.71-3.03,1.1-6.09,2.12-9.18,3.05-5.57,1.67-11.22,3.05-16.94,4.13-1.56.29-3.11.57-4.68.82-.73.12-3.42.93-3.92.58l1.56-.21c-.52.07-1.05.13-1.57.19-.79.09-1.58.18-2.36.27-1.58.17-3.16.31-4.74.44-6.08.48-12.18.65-18.28.53s-11.71-.5-17.53-1.13c-.8-.09-1.59-.18-2.39-.28l-.8-.1c-1.31-.17-1.06-.13.74.11-1.19.12-2.76-.39-3.97-.58-3.17-.5-6.33-1.07-9.48-1.72-12.07-2.48-23.93-6.02-35.4-10.53-1.25-.49-2.48-1-3.72-1.5-2.6-1.06,2.42,1.07-.15-.07-.61-.27-1.23-.53-1.84-.8-2.81-1.24-5.59-2.55-8.34-3.91-5.48-2.72-10.84-5.67-16.07-8.85s-10.26-6.57-15.17-10.18c-1.04-.77-2.26-1.52-3.2-2.4,2.28,2.14.4.3-.14-.12-.63-.49-1.25-.99-1.87-1.49-2.38-1.92-4.71-3.88-7.01-5.89-9-7.89-17.37-16.51-25.03-25.7-.84-1-1.67-2.02-2.49-3.04-.49-.61-.98-1.22-1.47-1.84-.42-.54-2.24-2.46-.09-.09-2.07-2.28-3.8-5.04-5.58-7.56-3.31-4.67-6.45-9.46-9.43-14.35-6.19-10.17-11.66-20.78-16.38-31.71-.1-.23-1.03-2.61-.32-.73s-.2-.5-.3-.73c-.59-1.43-1.16-2.86-1.72-4.3-1.07-2.75-2.1-5.52-3.08-8.3-1.91-5.43-3.65-10.91-5.2-16.45-3.22-11.47-5.59-23.13-7.29-34.92-.3-2.11.15.62.11.82.12-.61-.22-1.68-.29-2.31-.17-1.41-.33-2.82-.48-4.24-.31-2.95-.57-5.91-.79-8.87-.43-5.91-.66-11.84-.7-17.77-.08-11.71.59-23.42,2-35.04.08-.64.16-1.28.24-1.91.34-2.74-.41,2.8-.01.07.18-1.27.36-2.55.56-3.82.47-3.05.99-6.1,1.56-9.13,1.09-5.82,2.37-11.6,3.83-17.34,2.86-11.24,6.41-22.31,10.63-33.12.56-1.44,1.14-2.88,1.73-4.32.27-.66.49-1.56.89-2.15-.13.2-1.1,2.57-.28.67,1.24-2.85,2.49-5.68,3.81-8.49,2.53-5.39,5.23-10.71,8.1-15.93,5.64-10.26,11.92-20.17,18.81-29.64.92-1.27,1.86-2.53,2.8-3.78.31-.42.63-.83.95-1.25,1.66-2.2-1.63,2.06.08-.11,1.95-2.47,3.92-4.93,5.94-7.34,3.9-4.66,7.96-9.19,12.17-13.58,8.42-8.8,17.42-17.04,26.96-24.61.64-.5,1.26-1.04,1.93-1.51-2.58,1.83-.27.22.21-.15,1.09-.82,2.18-1.64,3.28-2.44,2.65-1.93,5.33-3.81,8.05-5.64,5.23-3.51,10.6-6.81,16.11-9.88s10.7-5.69,16.21-8.2c1.5-.68,3-1.46,4.55-2.01-3.19,1.12,1.17-.47,1.8-.72,3.1-1.24,6.23-2.4,9.39-3.49,6.37-2.19,12.84-4.06,19.4-5.58,3.15-.74,6.33-1.39,9.51-1.97,1.45-.26,2.91-.51,4.36-.74.87-.14,1.75-.26,2.63-.4,2.71-.42-2.12.24.39-.06,13.53-1.61,27.15-2.01,40.73-.75,1.47.14,2.94.29,4.41.46.6.07,3.62.32.39.03.88.08,1.76.25,2.63.39,3.21.5,6.41,1.08,9.59,1.77,6.36,1.37,12.62,3.12,18.78,5.23,5.83,2,13.12-2.28,14.47-8.22,1.49-6.54-1.98-12.33-8.22-14.47h0Z"/>
    <rect class="cls-6" x="316.11" y="267.89" width="243.01" height="112.7" rx="15.69" ry="15.69"/>
    <path class="cls-17" d="m585.77,685.73c-4.75-15.4-21.18-34.66-50.45-45.04l-.17-.11c-8.67-3.07-18.11-5.45-27.59-7.11,1.91.49,3.81,1,5.7,1.55,16.15,4.65,31.45,11.36,41.46,18.95l.05.12c18.76,14.23,13.6,31.25.62,42.76-12.98,11.52-40.23,17.66-73.3,16.52-10.99-.38-22.8-1.58-34.53-3.87,18.1,8.19,41.14,14.48,62.32,16.12,18.19,1.4,33.84-.6,45.91-4.2,23.58-7.02,34.72-20.29,29.98-35.68Z"/>
    <ellipse class="cls-2" cx="516.97" cy="688.67" rx="77.69" ry="46.33"/>
    <ellipse class="cls-4" cx="360.15" cy="690.4" rx="77.69" ry="46.33"/>
    <path class="cls-17" d="m424.49,685.73c-4.75-15.4-21.18-34.66-50.45-45.04l-.17-.11c-8.67-3.07-18.11-5.45-27.59-7.11,1.91.49,3.81,1,5.7,1.55,16.15,4.65,31.45,11.36,41.46,18.95l.05.12c18.76,14.23,13.6,31.25.62,42.76-12.98,11.52-40.23,17.66-73.3,16.52-10.99-.38-22.8-1.58-34.53-3.87,18.1,8.19,41.14,14.48,62.32,16.12,18.19,1.4,33.84-.6,45.91-4.2,23.58-7.02,34.72-20.29,29.98-35.68Z"/>
    <ellipse class="cls-2" cx="356.69" cy="688.67" rx="77.69" ry="46.33"/>
    <g>
      <circle class="cls-20" cx="407.58" cy="330.11" r="10.01"/>
      <circle class="cls-20" cx="347.51" cy="330.11" r="10.01"/>
      <circle class="cls-20" cx="365.31" cy="310.09" r="10.01"/>
      <circle class="cls-20" cx="389.78" cy="310.09" r="10.01"/>
      <circle class="cls-20" cx="527.71" cy="330.11" r="10.01"/>
      <circle class="cls-20" cx="467.65" cy="330.11" r="10.01"/>
      <circle class="cls-20" cx="485.44" cy="310.09" r="10.01"/>
      <circle class="cls-20" cx="509.92" cy="310.09" r="10.01"/>
    </g>
    <path class="cls-19" d="m633.38,190.71c-124.21-40.12-247.15-43.85-368.85-12.59-2.75.71-5.2,2.27-7.02,4.44-18.11,21.64-27.55,49.47-26.11,77.01.26,5.02,4.98,8.62,9.86,7.43,146.45-35.51,277.8-33.48,398.93,10.49,4.92,1.79,10.18-1.56,10.69-6.77,2.64-26.61,2.13-52.72-9.87-73.76-1.69-2.96-4.4-5.22-7.64-6.26Z"/>
    <path class="cls-11" d="m456.74,178.2c-.34,15.31-1.53,30.63-2.37,45.92"/>
    <path class="cls-11" d="m413.01,178.2c-.32,14.87-.63,29.73-.95,44.6"/>
    <path class="cls-11" d="m499.15,184.82c-.3,13.59-1.65,27.06-2.27,40.62"/>
    <path class="cls-11" d="m538.9,190.06c.38,23.46.38,14.18-.95,40.68"/>
    <path class="cls-11" d="m576.02,196.66c1.22,13.2,1.42,26.17.36,39.39"/>
    <path class="cls-11" d="m611.63,202.01c3.9,14.13,5.65,28.66,4.49,43.31"/>
    <path class="cls-11" d="m341.13,184.27c-6.36,21.26-5.87,23.65-5.31,48.35"/>
    <path class="cls-11" d="m304.85,187.96c-8.07,16.29-9.56,33.24-8.07,52.06"/>
    <path class="cls-11" d="m269.24,198.6c-10.83,17.47-11.66,34.77-12.21,54.66"/>
    <path class="cls-11" d="m376.59,179.54c-.36,16.19-1.18,32.37-1.62,48.56"/>
    <g>
      <path class="cls-18" d="m729.29,67.79c-10.97-15.08-33.28-26.44-56.95-31.52-23.67-5.08-48.49-4.39-71-.47-55.2,9.6-91.07,69.36-107.95,104.71l-1.92,1.89.31.42c24.68-16.29,62.45-37.3,93.75-34.89,23.58,1.82,46.71,7.97,70.22,11.05,23.52,3.08,49.37,2.57,65.64-7.36,16.66-10.16,18.86-28.76,7.89-43.85Z"/>
      <path class="cls-21" d="m739.44,61.85c-3.29-4.49-6.87-8.6-11.12-12.2-4.54-3.83-9.4-7.31-14.55-10.28-10.33-5.94-21.74-10.34-33.29-13.28-25.95-6.59-53.08-6.34-79.37-2.13-10.08,1.62-19.56,4.67-28.84,8.94s-17.09,9.58-24.87,15.62c-14.81,11.5-27.13,25.85-37.98,41.07-9.13,12.8-17.05,26.44-24.02,40.52-.73,1.48-1.46,2.97-2.17,4.46l1.84-2.38-1.92,1.89c-1.85,1.82-2.89,4.22-3.24,6.75-.32,2.37-.1,5.5,1.4,7.5l.31.42c1.82,2.43,3.9,4.69,7.03,5.41s6.42.56,9.06-1.19c10.91-7.19,22.17-13.9,33.91-19.65,3.58-1.75,7.2-3.41,10.86-4.97l-2.81,1.19c10.7-4.51,21.85-8.15,33.38-9.72l-3.13.42c4.26-.56,8.57-.84,12.87-.7,5.24.18,10.48.85,15.68,1.55l-3.13-.42c27.71,3.76,55,11.48,83.12,11.74,7.06.06,14.03-.48,21.02-1.44,5.47-.75,10.9-1.9,16.1-3.78,6.82-2.47,12.84-5.66,18.41-10.31,2.59-2.16,4.64-4.7,6.67-7.4s3.35-5.62,4.63-8.73c5.2-12.7,1.99-28.03-5.85-38.92-1.84-2.55-3.9-4.54-7.03-5.41-2.82-.78-6.57-.43-9.06,1.19s-4.72,4.03-5.41,7.03-.64,6.53,1.19,9.06c1.68,2.33,3.12,4.82,4.25,7.46l-1.19-2.81c1.08,2.58,1.84,5.26,2.24,8.03l-.42-3.13c.34,2.55.35,5.1.02,7.65l.42-3.13c-.33,2.31-.95,4.55-1.84,6.71l1.19-2.81c-.95,2.22-2.18,4.28-3.65,6.19l1.84-2.38c-1.6,2.03-3.44,3.84-5.48,5.44l2.38-1.84c-2.96,2.28-6.23,4.08-9.67,5.54l2.81-1.19c-6,2.51-12.37,3.96-18.79,4.83l3.13-.42c-13.79,1.81-27.83,1.07-41.57-.77l3.13.42c-12.8-1.73-25.47-4.32-38.18-6.61-7.14-1.29-14.31-2.41-21.5-3.37-5.77-.77-11.62-1.53-17.45-1.55-11.2-.05-22.53,2.21-33.17,5.6-11.18,3.56-22.01,8.35-32.43,13.73s-19.85,11.1-29.34,17.35c5.37,1.41,10.73,2.81,16.1,4.22l-.31-.42-1.84,14.26c1.6-1.57,3.18-3.08,4.17-5.14.8-1.66,1.61-3.32,2.44-4.96,1.77-3.53,3.6-7.04,5.5-10.5,4.26-7.79,8.84-15.42,13.79-22.79,2.97-4.42,6.08-8.75,9.33-12.97l-1.84,2.38c7-9.06,14.68-17.61,23.24-25.23,2.47-2.2,5.01-4.31,7.63-6.34l-2.38,1.84c7.78-6,16.2-11.15,25.24-15l-2.81,1.19c9.3-3.92,18.94-6.02,28.92-7.36l-3.13.42c16.8-2.22,33.88-2.52,50.7-.27l-3.13-.42c12.1,1.66,23.97,4.67,35.24,9.39l-2.81-1.19c7.76,3.29,15.21,7.35,21.89,12.51l-2.38-1.84c3.99,3.11,7.66,6.6,10.77,10.6l-1.84-2.38c.27.35.54.71.8,1.06,1.87,2.55,3.87,4.54,7.03,5.41,2.82.78,6.57.43,9.06-1.19s4.72-4.03,5.41-7.03.65-6.56-1.19-9.06Z"/>
    </g>
    <path class="cls-17" d="m721.1,55.03c-1.25,6.56-4.54,12.89-10.07,18.25-13.87,13.46-38,18.62-60.44,19.55-22.43.93-44.92-1.49-67.24.79-10.21,1.04-20.77,5.19-31.07,11.06,2.46,3.12,4.45,6.69,5.88,10.58,9.73-3.98,19.48-6.43,28.75-6.37,22.37.15,44.5,4.99,66.87,6.5,22.36,1.51,46.77-1.03,61.67-12.96,15.14-12.11,16.44-32.07,5.64-47.4Z"/>
    <path class="cls-21" d="m739.44,61.85c-3.29-4.49-6.87-8.6-11.12-12.2-4.54-3.83-9.4-7.31-14.55-10.28-10.33-5.94-21.74-10.34-33.29-13.28-25.95-6.59-53.08-6.34-79.37-2.13-10.08,1.62-19.56,4.67-28.84,8.94s-17.09,9.58-24.87,15.62c-14.81,11.5-27.13,25.85-37.98,41.07-9.13,12.8-17.05,26.44-24.02,40.52-.73,1.48-1.46,2.97-2.17,4.46l1.84-2.38-1.92,1.89c-1.85,1.82-2.89,4.22-3.24,6.75-.32,2.37-.1,5.5,1.4,7.5l.31.42c1.82,2.43,3.9,4.69,7.03,5.41s6.42.56,9.06-1.19c10.91-7.19,22.17-13.9,33.91-19.65,3.58-1.75,7.2-3.41,10.86-4.97l-2.81,1.19c10.7-4.51,21.85-8.15,33.38-9.72l-3.13.42c4.26-.56,8.57-.84,12.87-.7,5.24.18,10.48.85,15.68,1.55l-3.13-.42c27.71,3.76,55,11.48,83.12,11.74,7.06.06,14.03-.48,21.02-1.44,5.47-.75,10.9-1.9,16.1-3.78,6.82-2.47,12.84-5.66,18.41-10.31,2.59-2.16,4.64-4.7,6.67-7.4s3.35-5.62,4.63-8.73c5.2-12.7,1.99-28.03-5.85-38.92-1.84-2.55-3.9-4.54-7.03-5.41-2.82-.78-6.57-.43-9.06,1.19s-4.72,4.03-5.41,7.03-.64,6.53,1.19,9.06c1.68,2.33,3.12,4.82,4.25,7.46l-1.19-2.81c1.08,2.58,1.84,5.26,2.24,8.03l-.42-3.13c.34,2.55.35,5.1.02,7.65l.42-3.13c-.33,2.31-.95,4.55-1.84,6.71l1.19-2.81c-.95,2.22-2.18,4.28-3.65,6.19l1.84-2.38c-1.6,2.03-3.44,3.84-5.48,5.44l2.38-1.84c-2.96,2.28-6.23,4.08-9.67,5.54l2.81-1.19c-6,2.51-12.37,3.96-18.79,4.83l3.13-.42c-13.79,1.81-27.83,1.07-41.57-.77l3.13.42c-12.8-1.73-25.47-4.32-38.18-6.61-7.14-1.29-14.31-2.41-21.5-3.37-5.77-.77-11.62-1.53-17.45-1.55-11.2-.05-22.53,2.21-33.17,5.6-11.18,3.56-22.01,8.35-32.43,13.73s-19.85,11.1-29.34,17.35c5.37,1.41,10.73,2.81,16.1,4.22l-.31-.42-1.84,14.26c1.6-1.57,3.18-3.08,4.17-5.14.8-1.66,1.61-3.32,2.44-4.96,1.77-3.53,3.6-7.04,5.5-10.5,4.26-7.79,8.84-15.42,13.79-22.79,2.97-4.42,6.08-8.75,9.33-12.97l-1.84,2.38c7-9.06,14.68-17.61,23.24-25.23,2.47-2.2,5.01-4.31,7.63-6.34l-2.38,1.84c7.78-6,16.2-11.15,25.24-15l-2.81,1.19c9.3-3.92,18.94-6.02,28.92-7.36l-3.13.42c16.8-2.22,33.88-2.52,50.7-.27l-3.13-.42c12.1,1.66,23.97,4.67,35.24,9.39l-2.81-1.19c7.76,3.29,15.21,7.35,21.89,12.51l-2.38-1.84c3.99,3.11,7.66,6.6,10.77,10.6l-1.84-2.38c.27.35.54.71.8,1.06,1.87,2.55,3.87,4.54,7.03,5.41,2.82.78,6.57.43,9.06-1.19s4.72-4.03,5.41-7.03.65-6.56-1.19-9.06Z"/>
    <path class="cls-15" d="m641,196.91c-1.46-2.62-3.72-4.71-6.44-5.9,7.22,19.13,8.22,41.44,7.19,64.2-.25,5.54-5.33,9.35-10.34,7.71-96.98-31.72-198.88-34.18-308.36-12.39,114.16-16.43,218.78-9.03,316.61,27.41,4.91,1.83,10.84-1.17,11.39-6.41,2.81-26.76,1.82-53.37-10.05-74.62Z"/>
    <g>
      <ellipse class="cls-1" cx="110.92" cy="206.18" rx="87.07" ry="114.44" transform="translate(-38.8 26.19) rotate(-11.47)"/>
      <g>
        <path class="cls-5" d="m146.86,99.83c7.38,4.92,14.34,10.96,20.72,17.97"/>
        <path class="cls-5" d="m48.76,107.17c7.6-7.51,16.36-13.36,26.09-17.17l-.42-2.29"/>
        <path class="cls-5" d="m86.67,86.48c5.5-1.12,11.02-1.57,16.5-1.4l-.46-2.53-28.28,5.16.42,2.29c3.8-1.49,7.74-2.69,11.82-3.52Z"/>
        <path class="cls-5" d="m26,142.58c3.29-8.35,7.4-16.06,12.26-22.95"/>
        <path class="cls-5" d="m53.64,294.09l-.16-.88c-5.74-6.44-10.99-13.66-15.61-21.57"/>
        <path class="cls-5" d="m26.84,248.33c-2.83-7.6-5.13-15.59-6.82-23.92-.01-.05-.02-.1-.03-.15"/>
        <path class="cls-5" d="m20,224.25c-1.69-8.36-2.68-16.65-3.03-24.77"/>
        <path class="cls-5" d="m37.86,271.64c-4.23-7.24-7.94-15.04-11.02-23.31"/>
        <path class="cls-5" d="m53.64,294.09l.53-.1c-.23-.26-.46-.52-.69-.78l.16.88Z"/>
        <rect class="cls-5" x="37.76" y="193.28" width="28.74" height="24.91" transform="translate(-36.07 12.69) rotate(-10.34)"/>
        <rect class="cls-5" x="33.29" y="168.77" width="28.74" height="24.91" transform="translate(-31.74 11.49) rotate(-10.34)"/>
        <path class="cls-5" d="m107.18,107.06l-4.01-21.98c-5.48-.17-11,.28-16.5,1.4-4.09.83-8.02,2.03-11.82,3.52l4.05,22.22,28.28-5.16Z"/>
        <rect class="cls-5" x="52.63" y="114.6" width="28.74" height="24.91" transform="translate(-21.71 14.08) rotate(-10.34)"/>
        <rect class="cls-5" x="57.1" y="139.1" width="28.74" height="24.91" transform="translate(-26.03 15.28) rotate(-10.34)"/>
        <rect class="cls-5" x="28.82" y="144.26" width="28.74" height="24.91" transform="translate(-27.42 10.29) rotate(-10.34)"/>
        <path class="cls-5" d="m74.85,90c-9.73,3.8-18.49,9.66-26.09,17.17l1.86,10.21,28.28-5.16-4.05-22.22Z"/>
        <rect class="cls-5" x="127.06" y="202.31" width="28.74" height="24.91" transform="translate(-36.24 28.86) rotate(-10.34)"/>
        <rect class="cls-5" x="98.78" y="207.47" width="28.74" height="24.91" transform="translate(-37.62 23.87) rotate(-10.34)"/>
        <rect class="cls-5" x="155.34" y="197.15" width="28.74" height="24.91" transform="translate(-34.85 33.85) rotate(-10.34)"/>
        <rect class="cls-5" x="42.23" y="217.78" width="28.74" height="24.91" transform="translate(-40.39 13.89) rotate(-10.34)"/>
        <path class="cls-5" d="m186.08,219.28l18.89-3.44c-.17-8.14-.99-16.46-2.51-24.87l-20.85,3.8,4.47,24.51Z"/>
        <rect class="cls-5" x="70.51" y="212.63" width="28.74" height="24.91" transform="translate(-39.01 18.88) rotate(-10.34)"/>
        <rect class="cls-5" x="118.12" y="153.3" width="28.74" height="24.91" transform="translate(-27.59 26.46) rotate(-10.34)"/>
        <rect class="cls-5" x="107.72" y="256.48" width="28.74" height="24.91" transform="translate(-46.27 26.27) rotate(-10.34)"/>
        <path class="cls-5" d="m53.48,293.21l-4.31-23.63-11.3,2.06c4.62,7.91,9.87,15.13,15.61,21.57Z"/>
        <path class="cls-5" d="m195.41,270.41c.32-.78.64-1.56.95-2.35l-1.33.24.39,2.11Z"/>
        <rect class="cls-5" x="109.18" y="104.28" width="28.74" height="24.91" transform="translate(-18.94 24.06) rotate(-10.34)"/>
        <rect class="cls-5" x="80.91" y="109.44" width="28.74" height="24.91" transform="translate(-20.32 19.07) rotate(-10.34)"/>
        <path class="cls-5" d="m146.86,99.83c-4.25-2.83-8.63-5.29-13.12-7.35l1.72,9.43,11.4-2.08Z"/>
        <rect class="cls-5" x="85.37" y="133.95" width="28.74" height="24.91" transform="translate(-24.65 20.27) rotate(-10.34)"/>
        <rect class="cls-5" x="89.84" y="158.45" width="28.74" height="24.91" transform="translate(-28.97 21.47) rotate(-10.34)"/>
        <path class="cls-5" d="m38.26,119.63l12.37-2.26-1.86-10.21c-3.8,3.76-7.31,7.93-10.5,12.46Z"/>
        <rect class="cls-5" x="141.93" y="123.63" width="28.74" height="24.91" transform="translate(-21.88 30.25) rotate(-10.34)"/>
        <rect class="cls-5" x="146.4" y="148.14" width="28.74" height="24.91" transform="translate(-26.21 31.45) rotate(-10.34)"/>
        <rect class="cls-5" x="113.65" y="128.79" width="28.74" height="24.91" transform="translate(-23.27 25.26) rotate(-10.34)"/>
        <rect class="cls-5" x="150.87" y="172.65" width="28.74" height="24.91" transform="translate(-30.53 32.65) rotate(-10.34)"/>
        <rect class="cls-5" x="61.57" y="163.61" width="28.74" height="24.91" transform="translate(-30.36 16.48) rotate(-10.34)"/>
        <rect class="cls-5" x="66.04" y="188.12" width="28.74" height="24.91" transform="translate(-34.68 17.68) rotate(-10.34)"/>
        <rect class="cls-5" x="122.59" y="177.8" width="28.74" height="24.91" transform="translate(-31.91 27.66) rotate(-10.34)"/>
        <rect class="cls-5" x="94.31" y="182.96" width="28.74" height="24.91" transform="translate(-33.3 22.67) rotate(-10.34)"/>
        <path class="cls-5" d="m135.46,101.91l-1.72-9.43c-9.82-4.5-20.13-7.08-30.57-7.4l4.01,21.98,28.28-5.16Z"/>
        <path class="cls-5" d="m86.38,313.44l1.03,5.67c9.83,4.61,20.15,7.28,30.62,7.69l-3.38-18.51-28.28,5.16Z"/>
        <path class="cls-5" d="m114.66,308.28l3.38,18.51c5.69.23,11.42-.21,17.14-1.37,3.87-.79,7.61-1.91,11.23-3.29l-3.47-19.01-28.28,5.16Z"/>
        <path class="cls-5" d="m49.17,269.58l4.31,23.63c.23.26.46.52.69.78l27.74-5.06-4.47-24.51-28.28,5.16Z"/>
        <path class="cls-5" d="m81.91,288.93l-27.74,5.06c7.61,8.39,16.06,15.39,25.05,20.75l7.17-1.31-4.47-24.51Z"/>
        <path class="cls-5" d="m79.22,314.74c2.69,1.6,5.42,3.06,8.2,4.36l-1.03-5.67-7.17,1.31Z"/>
        <path class="cls-5" d="m186.08,219.28l4.47,24.51,12.76-2.33c1.28-8.25,1.83-16.83,1.65-25.62l-18.89,3.44Z"/>
        <rect class="cls-5" x="103.25" y="231.98" width="28.74" height="24.91" transform="translate(-41.95 25.07) rotate(-10.34)"/>
        <rect class="cls-5" x="159.81" y="221.66" width="28.74" height="24.91" transform="translate(-39.18 35.05) rotate(-10.34)"/>
        <rect class="cls-5" x="131.53" y="226.82" width="28.74" height="24.91" transform="translate(-40.56 30.06) rotate(-10.34)"/>
        <rect class="cls-5" x="164.28" y="246.17" width="28.74" height="24.91" transform="translate(-43.5 36.25) rotate(-10.34)"/>
        <rect class="cls-5" x="136" y="251.33" width="28.74" height="24.91" transform="translate(-44.89 31.26) rotate(-10.34)"/>
        <path class="cls-5" d="m203.32,241.46l-12.76,2.33,4.47,24.51,1.33-.24c3.16-8.31,5.51-17.23,6.96-26.59Z"/>
        <rect class="cls-5" x="112.19" y="280.99" width="28.74" height="24.91" transform="translate(-50.6 27.47) rotate(-10.34)"/>
        <rect class="cls-5" x="140.47" y="275.83" width="28.74" height="24.91" transform="translate(-49.21 32.46) rotate(-10.34)"/>
        <rect class="cls-5" x="83.92" y="286.15" width="28.74" height="24.91" transform="translate(-51.98 22.48) rotate(-10.34)"/>
        <rect class="cls-5" x="79.45" y="261.64" width="28.74" height="24.91" transform="translate(-47.66 21.28) rotate(-10.34)"/>
        <rect class="cls-5" x="46.7" y="242.29" width="28.74" height="24.91" transform="translate(-44.72 15.09) rotate(-10.34)"/>
        <path class="cls-5" d="m195.02,268.3l-28.28,5.16,4.47,24.51,9.42-1.72c5.93-7.56,10.9-16.26,14.77-25.84l-.39-2.11Z"/>
        <path class="cls-5" d="m135.46,101.91l4.47,24.51,28.28-5.16-.63-3.46c-6.38-7.01-13.34-13.05-20.72-17.97l-11.4,2.08Z"/>
        <path class="cls-5" d="m172.55,305.28c2.87-2.78,5.56-5.81,8.09-9.04l-9.42,1.72,1.33,7.32Z"/>
        <path class="cls-5" d="m142.94,303.12l3.47,19.01c9.73-3.7,18.52-9.45,26.15-16.85l-1.33-7.32-28.28,5.16Z"/>
        <path class="cls-5" d="m170.28,120.88c-.89-1.05-1.79-2.08-2.7-3.08l.63,3.46,2.07-.38Z"/>
        <path class="cls-5" d="m55.1,141.89l-4.47-24.51-12.37,2.26c-4.85,6.89-8.97,14.6-12.26,22.95l.81,4.46,28.28-5.16Z"/>
        <path class="cls-5" d="m177.15,170.27l19.02-3.47c-2.88-8.29-6.39-16.12-10.41-23.42l-13.08,2.39,4.47,24.51Z"/>
        <path class="cls-5" d="m172.68,145.76l13.08-2.39c-4.54-8.23-9.74-15.77-15.48-22.5l-2.07.38,4.47,24.51Z"/>
        <rect class="cls-5" x="74.98" y="237.13" width="28.74" height="24.91" transform="translate(-43.33 20.08) rotate(-10.34)"/>
        <path class="cls-5" d="m26.84,248.33c3.08,8.28,6.79,16.08,11.02,23.31l11.3-2.06-4.47-24.51-17.85,3.26Z"/>
        <path class="cls-5" d="m40.23,220.56l-20.23,3.69c.01.05.02.1.03.15,1.69,8.33,3.99,16.33,6.82,23.92l17.85-3.26-4.47-24.51Z"/>
        <path class="cls-5" d="m181.61,194.78l20.85-3.8c-.21-1.16-.4-2.31-.64-3.47-1.45-7.16-3.36-14.07-5.66-20.7l-19.02,3.47,4.47,24.51Z"/>
        <path class="cls-5" d="m26.82,147.04l-2.63.48c-2.86,8.31-4.93,17.18-6.13,26.44l13.23-2.41-4.47-24.51Z"/>
        <path class="cls-5" d="m26,142.58c-.64,1.62-1.25,3.27-1.82,4.94l2.63-.48-.81-4.46Z"/>
        <path class="cls-5" d="m35.76,196.06l-18.79,3.43c.35,8.12,1.34,16.41,3.03,24.77l20.23-3.69-4.47-24.51Z"/>
        <path class="cls-5" d="m31.29,171.55l-13.23,2.41c-1.07,8.24-1.46,16.78-1.08,25.52l18.79-3.43-4.47-24.51Z"/>
      </g>
      <ellipse class="cls-9" cx="110.93" cy="205.95" rx="92.76" ry="121.91" transform="translate(-38.75 26.18) rotate(-11.47)"/>
      <ellipse class="cls-8" cx="110.93" cy="205.95" rx="92.76" ry="121.91" transform="translate(-38.75 26.18) rotate(-11.47)"/>
      <path class="cls-7" d="m183.03,546.61l-29.77-146.66c-7.33-36.13,2.42-73.45,25.9-101.87,21.73-26.29,31.4-67.53,22.66-110.58-13.39-65.98-64.95-111.21-115.15-101.02C36.47,96.67,6.63,158.42,20.02,224.4c8.59,42.3,32.86,76.07,62.4,92.17,36.54,19.92,61.82,55.64,70.1,96.43l27.25,134.26,3.25-.66Z"/>
      <rect class="cls-16" x="160.62" y="451.23" width="21.65" height="103.8" rx="3.13" ry="3.13" transform="translate(-96.66 44.16) rotate(-11.47)"/>
      <path class="cls-13" d="m191.55,547.77l-15.72-77.44,11.31,75.3c.34,2.27-1.22,4.38-3.49,4.72l-13.24,1.99c.57,2.09,2.66,3.41,4.81,2.97l13.08-2.65c2.25-.46,3.7-2.65,3.24-4.9Z"/>
      <path class="cls-3" d="m187.6,542.68c-5.4,1.08-10.81,2.16-16.21,3.23"/>
      <path class="cls-3" d="m189.44,547.08c-5.4,1.08-10.81,2.16-16.21,3.23"/>
    </g>
    <g>
      <ellipse class="cls-10" cx="221.39" cy="498.18" rx="39.64" ry="76.18" transform="translate(-307.12 364.46) rotate(-51.84)"/>
      <path class="cls-14" d="m276.87,545.59c-13.35,6.18-37.66,8.07-65.78-3.26h0c-8.2-3.65-16.65-7.8-24.65-12.29l5.2,2.52c13.5,6.56,27.77,11.03,42.49,13.31h0c22.8,3.05,30.2-10.23,28.13-24.8-2.07-14.57-17.73-34.48-42.65-53.44-8.81-6.84-18.03-12.94-27.62-18.26,19.62,6.5,38.36,15.7,55.88,27.41,11.54,8.02,21.88,18.12,30.7,29.98,12.42,18.28,11.99,32.72-1.71,38.81Z"/>
      <ellipse class="cls-12" cx="220.69" cy="498.65" rx="39.75" ry="75.97" transform="translate(-313.24 387.85) rotate(-54.4)"/>
    </g>
  </g>
</svg>