<svg xmlns="http://www.w3.org/2000/svg" viewBox="0 0 400 400"><defs><style>.a,.c,.e,.f,.l{fill:none;}.a,.c{stroke:#1d1d1b;stroke-linecap:round;}.a,.c,.d,.e,.f,.i,.k,.l{stroke-miterlimit:10;}.a{stroke-width:11px;}.b{fill:#cdcccc;}.c{stroke-width:11.06px;}.d,.g,.k{fill:#fff;}.d,.e,.f,.k,.l{stroke:#4e4d4d;}.d,.f{stroke-width:12.07px;}.e{stroke-width:12.07px;}.h{fill:#4e4d4d;}.i{fill:#010101;stroke:#010101;stroke-width:4.83px;}.j{fill:#ffcc07;}.k,.l{stroke-width:13.39px;}.m{fill:#1d1d1b;}</style></defs><line class="a" x1="318" y1="192.3" x2="371.3" y2="46.6"/><ellipse class="b" cx="190.2" cy="360.6" rx="117.7" ry="23.8"/><line class="c" x1="78.8" y1="184.5" x2="29.7" y2="54.5"/><ellipse class="d" cx="154.8" cy="343.2" rx="36.1" ry="21.5" transform="matrix(0.97, -0.25, 0.25, 0.97, -82.15, 50.63)"/><path class="b" d="M124.5,357c-1.5-7.9,1.1-19.8,11.1-30.2h0a76.3,76.3,0,0,1,10.1-8.6l-2.1,1.8c-5.7,5.3-10.7,11.3-13.2,16.7h0c-4.7,10.1,1.4,16.7,9.5,19.4s21.1.1,34.8-6.8a90.9,90.9,0,0,0,13.7-8.5,82.2,82.2,0,0,1-22.7,19.4,54.8,54.8,0,0,1-20.4,7.1C133.7,368.7,126,364.9,124.5,357Z"/><ellipse class="e" cx="154.8" cy="343.2" rx="36.1" ry="21.5" transform="matrix(0.97, -0.25, 0.25, 0.97, -82.15, 50.63)"/><ellipse class="d" cx="228.7" cy="343.9" rx="21.5" ry="36.1" transform="translate(-140.3 529.3) rotate(-83.1)"/><path class="b" d="M261.8,347.1c-1.3-7.4-7.8-17.2-20.7-23.6H241a82.6,82.6,0,0,0-12.3-4.8l2.5,1c7.2,3.1,13.9,7,18.1,11.1h0c7.8,7.6,4.5,15.2-2.1,19.8s-19.6,5.9-34.8,3.5a107.5,107.5,0,0,1-15.7-3.7,89.7,89.7,0,0,0,27.9,10.9,58.1,58.1,0,0,0,21.4.6C257.2,359.9,263.1,354.4,261.8,347.1Z"/><ellipse class="f" cx="227.2" cy="342.9" rx="21.5" ry="36.1" transform="translate(-140.6 527) rotate(-83.1)"/><path class="g" d="M225.9,89.6c-17.8-6.1-37.8-5.2-55.3.8s-32.7,17-44.8,30c-29.7,32-41.5,77.6-30.7,119.3,6.5,25.1,21.1,49,43.4,64.7s52.4,22.5,78.6,14.9c19.7-5.7,35.9-18.8,48-34.1,23.5-29.9,32.6-69.4,24.2-106.3s-29.9-77.5-63.2-89.1"/><path class="h" d="M227.8,82.7c-25.4-8.8-54.1-4.2-77.2,8.8-20.9,11.7-38.2,30.1-49.7,51.1A137.4,137.4,0,0,0,84,209.8a129.2,129.2,0,0,0,19.1,66.9,115.6,115.6,0,0,0,22.8,27,110,110,0,0,0,31.9,19.1,103.3,103.3,0,0,0,35.6,6.9,89.6,89.6,0,0,0,36.5-7.4c21.9-9.4,39.6-27.8,51.4-48.2a135.2,135.2,0,0,0,18.3-69.4c-.3-23-6.9-45.9-16.8-66.6-9.1-19.1-22.4-37.4-40.7-48.6A72.5,72.5,0,0,0,228,82.9c-3.5-1.3-8,1.4-8.9,5a7.4,7.4,0,0,0,5.1,8.9l2.5,1,.6.2-.8-.3,1.5.6,4.8,2.5a49.4,49.4,0,0,1,4.9,3l2,1.5,1.1.8-.6-.5.7.5a88.2,88.2,0,0,1,8.4,7.8,58.2,58.2,0,0,1,4,4.5,20,20,0,0,1,1.9,2.2l.9,1.1c.2.4.7,1.1-.5-.6l.4.6a132,132,0,0,1,12.9,20.9l2.7,5.6,1.2,2.7c.2.6.9,2.2,0,0l.6,1.6c1.6,3.8,3,7.7,4.3,11.6a154,154,0,0,1,6.6,27.6l-.3-1.9a125.3,125.3,0,0,1,0,33.5l.2-1.9a124.7,124.7,0,0,1-6.4,26.3l-1.2,3a6.4,6.4,0,0,1-.6,1.6l-.3.7c-.1.3-.6,1.4-.1.3s-.2.5-.3.8l-.7,1.5-1.5,3.1a124.7,124.7,0,0,1-6.6,11.9c-1.2,2-2.5,3.8-3.8,5.7a24.8,24.8,0,0,1-1.9,2.6,14.7,14.7,0,0,1-1,1.3c1.3-1.8,0,0-.4.5a97.8,97.8,0,0,1-8.6,9.7l-4.9,4.6-2.4,2.1-1.2,1-.6.5c-.3.1-1.2.9-.2.1l-.7.6-1.3.9-2.8,1.9c-1.9,1.3-3.8,2.5-5.8,3.6s-4.4,2.3-6.6,3.4l-1.7.7c2.2-1,.1,0-.5.2l-3.4,1.2a75.8,75.8,0,0,1-14.8,3.5l1.9-.2a94,94,0,0,1-23.7-.1l1.9.2a92.8,92.8,0,0,1-13.7-2.9c-2.2-.6-4.4-1.3-6.5-2.1l-3.2-1.2h-.2l-1.7-.7a95.8,95.8,0,0,1-12.2-6.6c-2-1.2-3.8-2.4-5.7-3.8l-1.3-1,.5.4-.6-.5a31.1,31.1,0,0,1-2.8-2.3,108.8,108.8,0,0,1-9.8-9.4c-1.6-1.7-3.1-3.5-4.5-5.3-.2-.2-1.4-1.7-.5-.7s-.4-.5-.6-.7l-2.1-2.9a122.4,122.4,0,0,1-7.1-11.5l-3-6c-.4-1-.9-1.9-1.3-2.9l-.3-.7c-.5-1.1.2.6.3.7l-.8-1.8a127.3,127.3,0,0,1-7.6-29.1l.3,1.9a128.3,128.3,0,0,1,0-33.9l-.3,2a138.4,138.4,0,0,1,6.8-27.7l1.2-3.1.7-1.6.3-.7c-.9,2.1-.3.7-.1.2.9-2.1,1.9-4.2,3-6.4a125.2,125.2,0,0,1,7-12.3l4.1-6,2-2.7c-1.4,1.9-.1.2.2-.3l1.3-1.5a113.2,113.2,0,0,1,10-10.8c1.7-1.7,3.5-3.4,5.4-5l2.7-2.2,1.4-1.1c.9-.8-.4.3-.5.3l1-.7a102.7,102.7,0,0,1,12.5-8.1,76.9,76.9,0,0,1,7.6-3.8c.5-.2,3-1.2.7-.4l2-.8,3.9-1.4a91.1,91.1,0,0,1,17.7-4.2l-1.9.3a87,87,0,0,1,22.8-.1l-1.9-.3A83.8,83.8,0,0,1,224,96.6c3.6,1.3,8.1-1.4,8.9-5a7.4,7.4,0,0,0-5.1-8.9Z"/><path class="g" d="M310,43c-5.4-6.7-15.9-11.5-26.9-13.3a87.3,87.3,0,0,0-32.7,1.4C225.2,36.7,210,65,203.1,81.7l-.9.9.2.2c11-8.1,27.9-18.6,42.3-18.2,10.9.4,21.7,2.7,32.6,3.6s22.8,0,30-4.9S315.4,49.7,310,43Z"/><path class="h" d="M315.1,37.8A37.8,37.8,0,0,0,303,28.6a63.8,63.8,0,0,0-15.9-5.5,92.1,92.1,0,0,0-37.7.8c-18.2,3.9-31.9,17.8-41.6,33a137.2,137.2,0,0,0-11.7,22.9l1.8-3.2-.8.9a7.4,7.4,0,0,0-2.1,5.1,8,8,0,0,0,2.1,5.1v.2c1.9,2.2,6.4,2.9,8.8,1.1a133.9,133.9,0,0,1,17.2-10.8l4.8-2.4,1.3-.5-1,.4.7-.3,2.5-1a56.3,56.3,0,0,1,10-2.5l-1.9.3c7-.9,14.2.3,21.2,1.2l-2-.3c12,1.6,23.8,3.5,35.8,1.9,5.4-.7,10.8-2,15.5-4.9s9-7.7,10.2-13.3a20.7,20.7,0,0,0-.3-9.9,24.4,24.4,0,0,0-4.9-9.1,7.5,7.5,0,0,0-5.1-2.1,7.4,7.4,0,0,0-5.1,2.1,7.7,7.7,0,0,0-2.2,5.2,8.4,8.4,0,0,0,2.2,5.1c-1.5-1.9,0,0,.3.6l.4.8c.2.2.7,1.5.2.2s-.1-.2,0,.1l.3.9c.1.7.3,1.3.4,2l-.3-2a17.1,17.1,0,0,1,0,3.2l.3-1.9a25,25,0,0,1-.7,2.6c-.2.7-.7.9.3-.7l-.3.6-.6,1.1c-.2.3-.9,1.2-.1.1h0l-1,1c-.2.2-.4.5-.7.6s1.4-1,.6-.5l-1.3.9a13.8,13.8,0,0,1-2.7,1.4c.2-.1,1.7-.7.7-.4l-.6.3-1.6.5a39.1,39.1,0,0,1-6.8,1.4l2-.2c-9.1,1.2-18.1.2-27.1-1l1.9.3c-10.7-1.5-21.7-3.7-32.5-1.8-9.1,1.6-17.8,5.9-25.7,10.6-4,2.4-7.8,5-11.6,7.7l8.8,1.2-.2-.2V87.7a2.7,2.7,0,0,0,.7-.8,5.8,5.8,0,0,0,1.3-1.6l.7-1.7c-.5,1.4-.7,1.7-.4,1.1s.8-2,1.3-3,1.9-4.2,3-6.3a131.2,131.2,0,0,1,7.6-13.1,37.1,37.1,0,0,1,2.3-3.2,9.1,9.1,0,0,1,1.1-1.6c.4-.4,1.2-1.4-.3.4l.8-1c1.7-2.1,3.5-4.1,5.3-6a78.8,78.8,0,0,1,6.2-5.5c-2,1.6-.1.1.4-.3l1.6-1.1a23.9,23.9,0,0,1,3.4-2.1c1.3-.8,2.7-1.4,4.1-2.1-2.4,1.2.1,0,.8-.2l2.2-.8a86.7,86.7,0,0,1,11.5-2.3l-1.9.3a82.5,82.5,0,0,1,22.2-.1l-1.9-.3a61.1,61.1,0,0,1,8.5,1.8l4,1.3,2,.7-.5-.2,1,.4a51.9,51.9,0,0,1,6.5,3.7l.8.6c-1.7-1.1-1-.7-.5-.4l1.3,1.2a30.7,30.7,0,0,1,2.5,2.6,7.2,7.2,0,0,0,10.2,0,7.1,7.1,0,0,0,2.1-5.1A8.3,8.3,0,0,0,315.1,37.8Z"/><path class="b" d="M305.9,36.4a15.8,15.8,0,0,1-4.2,8.6c-6.1,6.5-17.1,9.4-27.4,10.3s-20.7.3-30.9,1.9A36.1,36.1,0,0,0,229.3,63a17.2,17.2,0,0,1,3,4.7,33.9,33.9,0,0,1,13-3.6c10.3-.4,20.6,1.3,31,1.5s21.5-1.5,28.1-7.3S311.2,43.2,305.9,36.4Z"/><path class="b" d="M292.2,178.9c-8.4-36.8-29.9-77.5-63.3-89.1l-.2-.2a80.5,80.5,0,0,0-30.8-4l6.4,1c18.1,3.6,35.8,12.9,48.1,27.2v.3c22.9,26.7,21.1,72.7,9.7,108.7s-39,65.5-74.4,79.5a106.5,106.5,0,0,1-37.6,7.7c21,11.7,46.9,16,69.7,9.3,19.7-5.7,35.9-18.8,48-34.1A127.8,127.8,0,0,0,292.2,178.9Z"/><path class="h" d="M227.8,82.7c-25.4-8.8-54.1-4.2-77.2,8.8-20.9,11.7-38.2,30.1-49.7,51.1A137.4,137.4,0,0,0,84,209.8a129.2,129.2,0,0,0,19.1,66.9,115.6,115.6,0,0,0,22.8,27,110,110,0,0,0,31.9,19.1,103.3,103.3,0,0,0,35.6,6.9,89.6,89.6,0,0,0,36.5-7.4c21.9-9.4,39.6-27.8,51.4-48.2a135.2,135.2,0,0,0,18.3-69.4c-.3-23-6.9-45.9-16.8-66.6-9.1-19.1-22.4-37.4-40.7-48.6A72.5,72.5,0,0,0,228,82.9c-3.5-1.3-8,1.4-8.9,5a7.4,7.4,0,0,0,5.1,8.9l2.5,1,.6.2-.8-.3,1.5.6,4.8,2.5a49.4,49.4,0,0,1,4.9,3l2,1.5,1.1.8-.6-.5.7.5a88.2,88.2,0,0,1,8.4,7.8,58.2,58.2,0,0,1,4,4.5,20,20,0,0,1,1.9,2.2l.9,1.1c.2.4.7,1.1-.5-.6l.4.6a132,132,0,0,1,12.9,20.9l2.7,5.6,1.2,2.7c.2.6.9,2.2,0,0l.6,1.6c1.6,3.8,3,7.7,4.3,11.6a154,154,0,0,1,6.6,27.6l-.3-1.9a125.3,125.3,0,0,1,0,33.5l.2-1.9a124.7,124.7,0,0,1-6.4,26.3l-1.2,3a6.4,6.4,0,0,1-.6,1.6l-.3.7c-.1.3-.6,1.4-.1.3s-.2.5-.3.8l-.7,1.5-1.5,3.1a124.7,124.7,0,0,1-6.6,11.9c-1.2,2-2.5,3.8-3.8,5.7a24.8,24.8,0,0,1-1.9,2.6,14.7,14.7,0,0,1-1,1.3c1.3-1.8,0,0-.4.5a97.8,97.8,0,0,1-8.6,9.7l-4.9,4.6-2.4,2.1-1.2,1-.6.5c-.3.1-1.2.9-.2.1l-.7.6-1.3.9-2.8,1.9c-1.9,1.3-3.8,2.5-5.8,3.6s-4.4,2.3-6.6,3.4l-1.7.7c2.2-1,.1,0-.5.2l-3.4,1.2a75.8,75.8,0,0,1-14.8,3.5l1.9-.2a94,94,0,0,1-23.7-.1l1.9.2a92.8,92.8,0,0,1-13.7-2.9c-2.2-.6-4.4-1.3-6.5-2.1l-3.2-1.2h-.2l-1.7-.7a95.8,95.8,0,0,1-12.2-6.6c-2-1.2-3.8-2.4-5.7-3.8l-1.3-1,.5.4-.6-.5a31.1,31.1,0,0,1-2.8-2.3,108.8,108.8,0,0,1-9.8-9.4c-1.6-1.7-3.1-3.5-4.5-5.3-.2-.2-1.4-1.7-.5-.7s-.4-.5-.6-.7l-2.1-2.9a122.4,122.4,0,0,1-7.1-11.5l-3-6c-.4-1-.9-1.9-1.3-2.9l-.3-.7c-.5-1.1.2.6.3.7l-.8-1.8a127.3,127.3,0,0,1-7.6-29.1l.3,1.9a128.3,128.3,0,0,1,0-33.9l-.3,2a138.4,138.4,0,0,1,6.8-27.7l1.2-3.1.7-1.6.3-.7c-.9,2.1-.3.7-.1.2.9-2.1,1.9-4.2,3-6.4a125.2,125.2,0,0,1,7-12.3l4.1-6,2-2.7c-1.4,1.9-.1.2.2-.3l1.3-1.5a113.2,113.2,0,0,1,10-10.8c1.7-1.7,3.5-3.4,5.4-5l2.7-2.2,1.4-1.1c.9-.8-.4.3-.5.3l1-.7a102.7,102.7,0,0,1,12.5-8.1,76.9,76.9,0,0,1,7.6-3.8c.5-.2,3-1.2.7-.4l2-.8,3.9-1.4a91.1,91.1,0,0,1,17.7-4.2l-1.9.3a87,87,0,0,1,22.8-.1l-1.9-.3A83.8,83.8,0,0,1,224,96.6c3.6,1.3,8.1-1.4,8.9-5a7.4,7.4,0,0,0-5.1-8.9Z"/><rect class="i" x="135.3" y="143.7" width="112.9" height="52.35" rx="9.7"/><path class="h" d="M315.1,37.8A37.8,37.8,0,0,0,303,28.6a63.8,63.8,0,0,0-15.9-5.5,92.1,92.1,0,0,0-37.7.8c-18.2,3.9-31.9,17.8-41.6,33a137.2,137.2,0,0,0-11.7,22.9l1.8-3.2-.8.9a7.4,7.4,0,0,0-2.1,5.1,8,8,0,0,0,2.1,5.1v.2c1.9,2.2,6.4,2.9,8.8,1.1a133.9,133.9,0,0,1,17.2-10.8l4.8-2.4,1.3-.5-1,.4.7-.3,2.5-1a56.3,56.3,0,0,1,10-2.5l-1.9.3c7-.9,14.2.3,21.2,1.2l-2-.3c12,1.6,23.8,3.5,35.8,1.9,5.4-.7,10.8-2,15.5-4.9s9-7.7,10.2-13.3a20.7,20.7,0,0,0-.3-9.9,24.4,24.4,0,0,0-4.9-9.1,7.5,7.5,0,0,0-5.1-2.1,7.4,7.4,0,0,0-5.1,2.1,7.7,7.7,0,0,0-2.2,5.2,8.4,8.4,0,0,0,2.2,5.1c-1.5-1.9,0,0,.3.6l.4.8c.2.2.7,1.5.2.2s-.1-.2,0,.1l.3.9c.1.7.3,1.3.4,2l-.3-2a17.1,17.1,0,0,1,0,3.2l.3-1.9a25,25,0,0,1-.7,2.6c-.2.7-.7.9.3-.7l-.3.6-.6,1.1c-.2.3-.9,1.2-.1.1h0l-1,1c-.2.2-.4.5-.7.6s1.4-1,.6-.5l-1.3.9a13.8,13.8,0,0,1-2.7,1.4c.2-.1,1.7-.7.7-.4l-.6.3-1.6.5a39.1,39.1,0,0,1-6.8,1.4l2-.2c-9.1,1.2-18.1.2-27.1-1l1.9.3c-10.7-1.5-21.7-3.7-32.5-1.8-9.1,1.6-17.8,5.9-25.7,10.6-4,2.4-7.8,5-11.6,7.7l8.8,1.2-.2-.2V87.7a2.7,2.7,0,0,0,.7-.8,5.8,5.8,0,0,0,1.3-1.6l.7-1.7c-.5,1.4-.7,1.7-.4,1.1s.8-2,1.3-3,1.9-4.2,3-6.3a131.2,131.2,0,0,1,7.6-13.1,37.1,37.1,0,0,1,2.3-3.2,9.1,9.1,0,0,1,1.1-1.6c.4-.4,1.2-1.4-.3.4l.8-1c1.7-2.1,3.5-4.1,5.3-6a78.8,78.8,0,0,1,6.2-5.5c-2,1.6-.1.1.4-.3l1.6-1.1a23.9,23.9,0,0,1,3.4-2.1c1.3-.8,2.7-1.4,4.1-2.1-2.4,1.2.1,0,.8-.2l2.2-.8a86.7,86.7,0,0,1,11.5-2.3l-1.9.3a82.5,82.5,0,0,1,22.2-.1l-1.9-.3a61.1,61.1,0,0,1,8.5,1.8l4,1.3,2,.7-.5-.2,1,.4a51.9,51.9,0,0,1,6.5,3.7l.8.6c-1.7-1.1-1-.7-.5-.4l1.3,1.2a30.7,30.7,0,0,1,2.5,2.6,7.2,7.2,0,0,0,10.2,0,7.1,7.1,0,0,0,2.1-5.1A8.3,8.3,0,0,0,315.1,37.8Z"/><ellipse class="j" cx="177.8" cy="173.3" rx="4.7" ry="4.4"/><ellipse class="j" cx="149.9" cy="173.3" rx="4.7" ry="4.4"/><ellipse class="j" cx="158.2" cy="164.5" rx="4.7" ry="4.4"/><ellipse class="j" cx="169.6" cy="164.5" rx="4.7" ry="4.4"/><ellipse class="j" cx="233.6" cy="173.3" rx="4.7" ry="4.4"/><ellipse class="j" cx="205.7" cy="173.3" rx="4.7" ry="4.4"/><ellipse class="j" cx="214" cy="164.5" rx="4.7" ry="4.4"/><ellipse class="j" cx="225.4" cy="164.5" rx="4.7" ry="4.4"/><ellipse class="k" cx="298.2" cy="216.8" rx="40.3" ry="23.7" transform="translate(-40.8 361.9) rotate(-59.2)"/><path class="b" d="M281.1,253.5c-5.1-5.9-8.9-18.4-6-34.9h0a106.4,106.4,0,0,1,3.8-15l-.8,3.2c-2,8.8-3,17.8-2.4,24.4h.1c1.2,12.4,9.3,13.9,17.1,10.4s16.9-15.3,24.5-31.5a132.8,132.8,0,0,0,6.8-17.5,123.6,123.6,0,0,1-8.6,33.8,80.2,80.2,0,0,1-12.8,21.1C294.2,257.1,286.1,259.4,281.1,253.5Z"/><ellipse class="l" cx="298.2" cy="216.8" rx="40.3" ry="23.7" transform="translate(-40.8 361.9) rotate(-59.2)"/><ellipse class="k" cx="97.4" cy="209" rx="23.7" ry="40.3" transform="translate(-93.3 79.4) rotate(-30.8)"/><path class="b" d="M114.6,245.6c5-5.9,8.8-18.3,5.9-34.8v-.2a90.5,90.5,0,0,0-3.8-14.9c.3,1,.5,2.1.8,3.1,2,8.9,3,17.8,2.4,24.4h-.1c-1.2,12.3-9.3,13.9-17.1,10.3s-16.9-15.2-24.5-31.4a144.7,144.7,0,0,1-6.8-17.5A123.6,123.6,0,0,0,80,218.5a80.9,80.9,0,0,0,12.9,21.1C101.4,249.3,109.5,251.5,114.6,245.6Z"/><ellipse class="l" cx="97.4" cy="209" rx="23.7" ry="40.3" transform="translate(-93.3 79.4) rotate(-30.8)"/><path class="j" d="M363.1,45.5c-49.8,24.9-82.8,13-110.8,8.6-61-9.5-87.9-43.6-140.7-38.7C77.1,18.6,49.8,36,31.1,52.3a5.5,5.5,0,0,0-1.5,6.2l27.8,72.3,1.6,4.4a4,4,0,0,0,5.6,2.2c21.2-10.8,43.6-22.4,65.4-19.8a96.5,96.5,0,0,1,18.6,4.2c8.7,3,26.9,10.7,27.7,11.1l31,13c31.1,13.2,120,6.2,121.7,6.2a7.6,7.6,0,0,0,6.9-5.4l34.5-97.4C371.9,45.3,365.4,44.3,363.1,45.5Z"/><ellipse class="k" cx="298.2" cy="216.8" rx="40.3" ry="23.7" transform="translate(-40.8 361.9) rotate(-59.2)"/><path class="b" d="M281.1,253.5c-5.1-5.9-8.9-18.4-6-34.9h0a106.4,106.4,0,0,1,3.8-15l-.8,3.2c-2,8.8-3,17.8-2.4,24.4h.1c1.2,12.4,9.3,13.9,17.1,10.4s16.9-15.3,24.5-31.5a132.8,132.8,0,0,0,6.8-17.5,123.6,123.6,0,0,1-8.6,33.8,80.2,80.2,0,0,1-12.8,21.1C294.2,257.1,286.1,259.4,281.1,253.5Z"/><ellipse class="l" cx="298.2" cy="216.8" rx="40.3" ry="23.7" transform="translate(-40.8 361.9) rotate(-59.2)"/><path class="m" d="M43.4,58.3l6.5-5.4L77,123.4l-6.5,5.4Zm3.2-2.7L72.6,34l3.6,9.4L50.2,65ZM58.7,87.1,81.2,68.4l3.6,9.4L62.3,96.5Z"/><path class="m" d="M92.3,30.6l7.4-2.4,1.7,10.9-7.5,2.4Zm3.4,22.3,7.4-2.5,8.3,55.5-7.4,2.5Z"/><path class="m" d="M120,45.6l7.7.4v56.6l-7.6-.4Zm23.6,23.6c0-4-.7-7.1-2.1-9.4a7.2,7.2,0,0,0-6-3.6,6.3,6.3,0,0,0-5.8,2.6c-1.4,1.8-2,4.5-2,8l-.8-11a17.7,17.7,0,0,1,4.7-7.6,8,8,0,0,1,6.4-2.4c4.2.2,7.5,2.4,9.8,6.5s3.5,9.9,3.5,17.3v34.3l-7.6-.4Z"/><path class="m" d="M168.9,55l7.4,3.7-9.5,54-7.4-3.7Zm3.8-21.6,7.4,3.6-1.9,10.6L170.9,44Z"/><path class="m" d="M189,119.7a31.8,31.8,0,0,1-5.5-5.5,48.7,48.7,0,0,1-4.6-6.9l5.3-5.5a49.2,49.2,0,0,0,6,7.9,20.8,20.8,0,0,0,6.1,4.6c3.1,1.5,5.4,1.9,7.1,1.4s2.6-2.2,2.8-4.7a7.3,7.3,0,0,0-.9-4.5,13,13,0,0,0-3-3.2c-1.2-.9-3-2-5.2-3.3l-.7-.3-.6-.4h-.3l-.3-.2a37.8,37.8,0,0,1-6.4-4.6,17.2,17.2,0,0,1-4.1-6.2,22,22,0,0,1-1-9.6,18.7,18.7,0,0,1,2.5-8.6,7.4,7.4,0,0,1,5.6-3.2c2.4-.2,5.3.5,8.7,2.2a26.3,26.3,0,0,1,5.8,3.5,33.7,33.7,0,0,1,5.2,4.8,52.5,52.5,0,0,1,4.6,6.2l-5.4,5.4a48,48,0,0,0-5.5-6.6,18.7,18.7,0,0,0-5.5-3.9c-2.7-1.3-4.7-1.6-6.1-1s-2.3,2.1-2.5,4.5a6,6,0,0,0,.9,3.8,9,9,0,0,0,2.7,2.8l4.8,2.9.5.3.5.3h.4a40.7,40.7,0,0,1,7,4.9,16.5,16.5,0,0,1,4.5,6.7c1.2,2.9,1.5,6.4,1.2,10.6s-1.2,6.8-2.7,8.7a7.5,7.5,0,0,1-6,3.1c-2.6.1-5.7-.7-9.4-2.5A30.7,30.7,0,0,1,189,119.7Z"/><path class="m" d="M223.1,57.6l7.7,1.2,1.4,76.4-7.7-1.2Zm24.7,47a17.6,17.6,0,0,0-2.4-9.2,8.4,8.4,0,0,0-6.1-4.1c-2.5-.4-4.5.2-5.8,1.8s-2,4.1-1.9,7.4l-1-10.6a15.2,15.2,0,0,1,4.6-6.8,8.3,8.3,0,0,1,6.5-1.6,13.9,13.9,0,0,1,10,7.3c2.4,4.3,3.7,9.9,3.8,17l.6,33.1-7.7-1.2Z"/><path class="m" d="M273.4,136.9a17.3,17.3,0,0,1-5.4-8.6,38.5,38.5,0,0,1-1.4-13.7l.2-6.4a47.4,47.4,0,0,1,2.6-14.3,19.6,19.6,0,0,1,6-9.1,13.5,13.5,0,0,1,9-3.1,10.5,10.5,0,0,1,8.1,3.5c2.2,2.3,3.8,5.7,4.9,10.2a61,61,0,0,1,1.1,16.1l-.2,3.7H272.1l.4-9h18.9c0-4.6-.6-8.2-2-10.8s-3.1-3.8-5.5-3.8-5.2,1.4-6.9,4.2-2.7,6.6-2.9,11.7l-.3,7.2c-.2,4.6.5,8.2,2.1,10.7a8,8,0,0,0,7.1,3.8,9.4,9.4,0,0,0,4.7-1.4,15,15,0,0,0,4.2-3.8l4.7,7.3a25.9,25.9,0,0,1-6.7,6.2,14.7,14.7,0,0,1-16.5-.7Z"/><path class="m" d="M304.2,132.8a15.8,15.8,0,0,1-1.8-8.7,42.6,42.6,0,0,1,2.7-11.9l4.3-11.4a41,41,0,0,1,5.7-10.9,16.9,16.9,0,0,1,7-5.8,11.3,11.3,0,0,1,7.7-.2,9.5,9.5,0,0,1,5.2,4.5,17.1,17.1,0,0,1,2,8.2l-4.7,10.3a17.2,17.2,0,0,0,1.2-5.9,7.8,7.8,0,0,0-1.2-4.4A7,7,0,0,0,322,95.3c-2.1,1.6-3.9,4.3-5.3,8.1l-4.2,11.3q-2.1,5.5-1.2,9.3a6.2,6.2,0,0,0,4.5,5,6.7,6.7,0,0,0,4.4.1,9.2,9.2,0,0,0,3.9-2.8,16.8,16.8,0,0,0,3-5.5l-3.6,11.1a16.4,16.4,0,0,1-6,5.2,9.1,9.1,0,0,1-7.2.5A10.7,10.7,0,0,1,304.2,132.8ZM347,67.4l7.4,2.5-27,72.5-7.4-2.5Z"/></svg>