<?xml version="1.0" encoding="utf-8"?>
<!-- Generator: Adobe Illustrator 27.8.1, SVG Export Plug-In . SVG Version: 6.00 Build 0)  -->
<svg version="1.1" xmlns="http://www.w3.org/2000/svg" xmlns:xlink="http://www.w3.org/1999/xlink" x="0px" y="0px"
	 viewBox="0 0 841.89 1190.55" style="enable-background:new 0 0 841.89 1190.55;" xml:space="preserve">
<style type="text/css">
	.st0{display:none;}
	.st1{display:inline;fill:#C8C8C8;stroke:#000000;stroke-miterlimit:10;}
	.st2{display:inline;}
	.st3{fill:#FFFFFF;}
	.st4{fill:none;stroke:#FFFFFF;stroke-width:9;stroke-miterlimit:10;}
	.st5{fill:#FFFFFF;stroke:#4F4E4E;stroke-width:5;stroke-miterlimit:10;}
	.st6{fill:#CDCBCB;}
	.st7{fill:none;stroke:#4F4E4E;stroke-width:13;stroke-miterlimit:10;}
	.st8{fill:#998675;stroke:#4F4E4E;stroke-width:16;stroke-miterlimit:10;}
	.st9{fill:#746458;}
	.st10{fill:#746458;stroke:#4F4E4E;stroke-width:11;stroke-miterlimit:10;}
	.st11{fill:#C7B29A;stroke:#4F4E4E;stroke-width:11;stroke-miterlimit:10;}
	.st12{fill:#998675;}
	.st13{fill:none;stroke:#4F4E4E;stroke-width:11;stroke-miterlimit:10;}
	.st14{fill:#C7B29A;}
	.st15{fill:#020203;}
	.st16{fill:#4F4E4E;}
	.st17{fill:#020203;stroke:#020203;stroke-width:9.5586;stroke-miterlimit:10;}
	.st18{fill:#FECA09;}
	.st19{fill:none;stroke:#020203;stroke-width:5;stroke-linecap:round;stroke-miterlimit:10;}
	.st20{fill:#CDCCCC;}
	.st21{fill:none;stroke:#4F4E4E;stroke-width:9;stroke-miterlimit:10;}
</style>
<g id="background" class="st0">
	<rect x="1" y="-1" class="st1" width="846" height="1195"/>
</g>
<g id="Shadow" class="st0">
	<g class="st2">
		<g>
			<g>
				<path class="st3" d="M473.04,1165.51c-2.67,0-5.27-0.5-7.73-1.47c-0.6-0.24-1.19-0.5-1.79-0.81
					c-10.21-4.76-13.02-15.72-13.95-19.37c-2.75-10.75-4.82-22.55-6.52-37.15c-6.45-55.54-3.88-115.82,7.86-184.29
					c0.42-2.46,0.85-4.92,1.29-7.38c7.95-44.33,18.98-88.01,27.7-121.11c1.39-5.26,2.76-10.52,4.13-15.78
					c5.52-21.18,11.22-43.01,17.76-64.48c-5.75-7.51-11.19-15.01-16.27-22.43c-6.49,1.96-12.79,2.94-18.77,2.94
					c-9.96,0-18.72-2.86-25.27-7.99c-15.58,6.84-33.31,10.94-51.93,11.96c-3.13,0.17-6.31,0.26-9.46,0.26
					c-49.63,0-97-20.89-129.97-57.31c-32.67-36.1-62.61-91.73-50.31-141.06l-0.08-0.49l0.86-3c7.21-25.1,23.73-47.99,46.51-64.47
					c19.57-14.16,43.88-23.56,70.29-27.18c7.89-1.08,15.95-1.63,23.95-1.63c28.99,0,57.51,7.04,83.11,20.43
					c4.48-3.84,9.2-7.19,14.12-10c2.3-1.31,4.62-2.49,6.95-3.53c0.24-0.81,0.48-1.61,0.72-2.42
					c-10.79-20.42-16.66-43.28-17.91-69.67l-0.02-0.47c-0.99-20.88,2.1-41.18,5.08-60.82c1.03-6.79,2.3-15.14,6.3-23.03
					c0-6.76,2.27-13.54,6.38-19.33c-9.82-13.91-17.01-26.04-22.75-38.31c-3.88-8.29-7.11-16.75-10.24-24.94
					c-4.72-12.36-9.19-24.03-15.49-34.48c-1.95-3.24-4.13-6.43-6.43-9.82c-4.14-6.08-8.42-12.37-11.87-19.6
					c-9.62-20.15-13.17-50.51,1.73-69.62c3.35-4.35,7.48-7.92,12.27-10.63c5.99-3.38,12.71-5.1,19.99-5.1
					c2.47,0,4.52,0.19,6.19,0.39c13.18,1.5,24.15,8.18,41.93,25.52c11.59,11.3,22.27,23.43,31.76,36.06
					c10.21,13.59,16.84,24.37,25.22,38.01c3.48,5.66,4.92,8.18,14.32,24.58l15.4,26.86c11.37,19.81,13.42,23.38,17.35,30.83
					c9.22,17.46,13.84,26.23,18.15,36.93c1.06,2.62,2.02,5.15,2.94,7.66c4.4,6.08,8.58,12.85,13.07,21.18
					c2.42,3.54,4.79,7.32,7.2,11.53c6.85,9.66,12.09,17.23,16.95,24.48c15.59,23.23,27.15,43.02,36.38,62.29
					c17.47,36.47,29.32,77.28,35.24,121.31c5.32,39.62,5.87,82.04,1.64,126.06c-3.45,35.93-9.6,66.93-18.79,94.76
					c-7.54,22.83-18.53,42.5-28.55,59.31c-0.11,1.3-0.23,2.64-0.37,4.03c-2.11,21.21-6.29,42.92-22.48,57.97
					c-4.96,4.61-10.02,7.23-15.47,8c-1.09,0.15-2.2,0.23-3.29,0.23c-10.76,0-20.71-7.36-25.34-18.76
					c-1.79-4.41-2.61-8.65-3.33-12.39c-0.43-2.25-0.84-4.37-1.39-6.07c-2.09-6.51-7.9-12.5-14.2-18.78
					c-22.29,50.24-37.79,108.35-46.12,173.06c-2.72,21.14-4.7,42.87-6.6,63.88c-1.15,12.69-2.34,25.81-3.69,38.74
					c-2.13,20.4-4.73,41.02-7.72,61.3c-0.34,2.32-0.81,4.46-1.25,6.53c-0.43,1.99-0.84,3.88-1.01,5.41
					c-0.08,0.71-0.06,1.81-0.04,2.98c0.07,3.72,0.17,8.81-2.28,14.51c-0.29,0.68-0.63,1.36-1.02,2.08
					C489.78,1160.37,481.54,1165.51,473.04,1165.51z"/>
				<path class="st4" d="M473.04,1165.51c-2.67,0-5.27-0.5-7.73-1.47c-0.6-0.24-1.19-0.5-1.79-0.81
					c-10.21-4.76-13.02-15.72-13.95-19.37c-2.75-10.75-4.82-22.55-6.52-37.15c-6.45-55.54-3.88-115.82,7.86-184.29
					c0.42-2.46,0.85-4.92,1.29-7.38c7.95-44.33,18.98-88.01,27.7-121.11c1.39-5.26,2.76-10.52,4.13-15.78
					c5.52-21.18,11.22-43.01,17.76-64.48c-5.75-7.51-11.19-15.01-16.27-22.43c-6.49,1.96-12.79,2.94-18.77,2.94
					c-9.96,0-18.72-2.86-25.27-7.99c-15.58,6.84-33.31,10.94-51.93,11.96c-3.13,0.17-6.31,0.26-9.46,0.26
					c-49.63,0-97-20.89-129.97-57.31c-32.67-36.1-62.61-91.73-50.31-141.06l-0.08-0.49l0.86-3c7.21-25.1,23.73-47.99,46.51-64.47
					c19.57-14.16,43.88-23.56,70.29-27.18c7.89-1.08,15.95-1.63,23.95-1.63c28.99,0,57.51,7.04,83.11,20.43
					c4.48-3.84,9.2-7.19,14.12-10c2.3-1.31,4.62-2.49,6.95-3.53c0.24-0.81,0.48-1.61,0.72-2.42
					c-10.79-20.42-16.66-43.28-17.91-69.67l-0.02-0.47c-0.99-20.88,2.1-41.18,5.08-60.82c1.03-6.79,2.3-15.14,6.3-23.03
					c0-6.76,2.27-13.54,6.38-19.33c-9.82-13.91-17.01-26.04-22.75-38.31c-3.88-8.29-7.11-16.75-10.24-24.94
					c-4.72-12.36-9.19-24.03-15.49-34.48c-1.95-3.24-4.13-6.43-6.43-9.82c-4.14-6.08-8.42-12.37-11.87-19.6
					c-9.62-20.15-13.17-50.51,1.73-69.62c3.35-4.35,7.48-7.92,12.27-10.63c5.99-3.38,12.71-5.1,19.99-5.1
					c2.47,0,4.52,0.19,6.19,0.39c13.18,1.5,24.15,8.18,41.93,25.52c11.59,11.3,22.27,23.43,31.76,36.06
					c10.21,13.59,16.84,24.37,25.22,38.01c3.48,5.66,4.92,8.18,14.32,24.58l15.4,26.86c11.37,19.81,13.42,23.38,17.35,30.83
					c9.22,17.46,13.84,26.23,18.15,36.93c1.06,2.62,2.02,5.15,2.94,7.66c4.4,6.08,8.58,12.85,13.07,21.18
					c2.42,3.54,4.79,7.32,7.2,11.53c6.85,9.66,12.09,17.23,16.95,24.48c15.59,23.23,27.15,43.02,36.38,62.29
					c17.47,36.47,29.32,77.28,35.24,121.31c5.32,39.62,5.87,82.04,1.64,126.06c-3.45,35.93-9.6,66.93-18.79,94.76
					c-7.54,22.83-18.53,42.5-28.55,59.31c-0.11,1.3-0.23,2.64-0.37,4.03c-2.11,21.21-6.29,42.92-22.48,57.97
					c-4.96,4.61-10.02,7.23-15.47,8c-1.09,0.15-2.2,0.23-3.29,0.23c-10.76,0-20.71-7.36-25.34-18.76
					c-1.79-4.41-2.61-8.65-3.33-12.39c-0.43-2.25-0.84-4.37-1.39-6.07c-2.09-6.51-7.9-12.5-14.2-18.78
					c-22.29,50.24-37.79,108.35-46.12,173.06c-2.72,21.14-4.7,42.87-6.6,63.88c-1.15,12.69-2.34,25.81-3.69,38.74
					c-2.13,20.4-4.73,41.02-7.72,61.3c-0.34,2.32-0.81,4.46-1.25,6.53c-0.43,1.99-0.84,3.88-1.01,5.41
					c-0.08,0.71-0.06,1.81-0.04,2.98c0.07,3.72,0.17,8.81-2.28,14.51c-0.29,0.68-0.63,1.36-1.02,2.08
					C489.78,1160.37,481.54,1165.51,473.04,1165.51z"/>
			</g>
			<g>
				<path class="st3" d="M113.91,575.45c-15.25,0-27.5-10.66-30.49-26.52c-2.59-13.72,1.51-30.8,11.23-46.86
					c7.62-12.59,18.66-24.5,31.92-34.43c13.18-9.87,30.01-14.88,50.03-14.88c14.8,0,31.04,2.69,48.3,8.01l11.49-0.42l4.47,25.64
					l-13,3.07c-22.09,5.22-37.97,12.68-44.7,21.03c-4.59,5.7-8.65,12.01-12.95,18.7c-3.18,4.94-6.46,10.05-10.06,15.05
					c-8.29,11.48-21.47,26.06-37.22,30.38C119.92,575.03,116.89,575.45,113.91,575.45C113.91,575.45,113.91,575.45,113.91,575.45z"
					/>
				<path class="st4" d="M113.91,575.45c-15.25,0-27.5-10.66-30.49-26.52c-2.59-13.72,1.51-30.8,11.23-46.86
					c7.62-12.59,18.66-24.5,31.92-34.43c13.18-9.87,30.01-14.88,50.03-14.88c14.8,0,31.04,2.69,48.3,8.01l11.49-0.42l4.47,25.64
					l-13,3.07c-22.09,5.22-37.97,12.68-44.7,21.03c-4.59,5.7-8.65,12.01-12.95,18.7c-3.18,4.94-6.46,10.05-10.06,15.05
					c-8.29,11.48-21.47,26.06-37.22,30.38C119.92,575.03,116.89,575.45,113.91,575.45C113.91,575.45,113.91,575.45,113.91,575.45z"
					/>
			</g>
		</g>
	</g>
</g>
<g id="Elas">
	<g>
		<g>
			<g>
				<path class="st5" d="M443.07,516.33"/>
				<path class="st5" d="M392.4,545.63"/>
				
					<ellipse transform="matrix(0.6657 -0.7462 0.7462 0.6657 -195.5135 489.6158)" class="st5" cx="448.7" cy="463.02" rx="52.29" ry="30.82"/>
			</g>
			<g>
				<path class="st6" d="M412.22,498.71c-3.3-8.29-3.06-21.65,5.55-34.65l0.03-0.1c2.55-3.85-1.99,5.33-3.55,11.6l0.02,0.07
					c-2.93,11.75,5.04,17.95,14.37,19.46c9.33,1.5,22.76-3.48,36.11-13.39c4.44-3.3,8.93-7.19,13.02-11.56
					c-4.72,8.84-12.14,18.23-20.38,24.99c-7.08,5.81-14.26,9.35-20.51,11.16C424.69,509.82,415.52,507,412.22,498.71z"/>
			</g>
			<g>
				<path class="st7" d="M443.11,516.9"/>
				<path class="st7" d="M392.44,546.2"/>
				
					<ellipse transform="matrix(0.6657 -0.7462 0.7462 0.6657 -195.925 489.8316)" class="st7" cx="448.73" cy="463.59" rx="52.29" ry="30.82"/>
			</g>
		</g>
		<path class="st8" d="M624.39,784.5c15.59-25.84,31.09-49.58,40.7-78.67c9.79-29.66,15.16-60.64,18.14-91.67
			c7.83-81.47-0.2-166.08-35.55-239.89c-10.11-21.1-22.34-41.11-35.36-60.52c-6.53-9.73-13.27-19.31-20.07-28.86
			c-6.05-8.49-10.38-19.44-22.61-14.4c-14.22,5.86-24.74,18.68-30.66,32.87s-7.7,29.76-8.41,45.12
			c-2.69,58.12,8.99,115.81,19.46,173.04c16,87.54,29.65,176.87,67.11,257.6"/>
		<path class="st6" d="M565.76,268.71c-4.58,1.88-8.78,4.49-12.57,7.63c2.68,3.16,4.98,7.3,7.57,10.98
			c6.96,9.89,13.87,19.83,20.57,29.93c13.36,20.15,25.94,40.96,36.41,63.02c36.62,77.14,46.05,166.75,39.55,253.6
			c-2.48,33.09-7.34,66.2-16.66,98.07c-5.09,17.4-12.03,33.1-19.8,48.44c15.14-24.86,30.01-47.97,39.38-76.11
			c9.86-29.63,15.3-60.6,18.36-91.63c8.02-81.45,0.19-166.08-35-239.97c-10.06-21.13-22.24-41.16-35.22-60.6
			c-6.51-9.74-13.22-19.35-20-28.9C582.3,274.66,578,263.7,565.76,268.71z"/>
		
			<ellipse transform="matrix(0.8204 -0.5717 0.5717 0.8204 -180.8589 401.3177)" class="st9" cx="548.49" cy="488.6" rx="43.66" ry="78.2"/>
		<path class="st10" d="M505.19,416.67c-1.8,8.6-6.46,16.93-9.21,25.29c-4.02,12.22-4.03,24.66-0.04,36.95
			c4.67,14.4,13.61,27,22.98,38.9c7.48,9.5,15.41,18.83,25.24,25.86c5.26,3.76,11.06,6.88,15.55,11.52
			c8.74,9.02,11.18,22.23,13.43,34.59c5.89,32.36,13.16,64.47,21.79,96.21c1.37,5.05,2.84,10.2,5.9,14.44
			c5.55,7.68,15.3,11.02,22.31,17.4c14.28,13.01,14.29,35.16,12.37,54.38c-1.76,17.72-4.99,36.87-18.03,49
			c-2.22,2.06-4.81,3.92-7.81,4.35c-5.95,0.85-11.25-4.27-13.51-9.83c-2.26-5.56-2.51-11.74-4.35-17.46
			c-3.34-10.4-11.55-18.37-19.29-26.08c-17.7-17.63-34.43-36.22-50.11-55.67c-41.03-50.92-75.59-110.32-80.77-175.5
			c-2.57-32.28,2.19-64.75,9.63-96.27c7.95-33.7,18.99-66.68,32.92-98.38c2.67-6.08,5.58-12.3,10.5-16.77
			c3.61-3.28,8.21-5.45,13.04-6.16c1.49-0.22,3.08-0.29,4.43,0.37c1.68,0.82,2.66,2.57,3.53,4.22c4.35,8.21,8.98,17.81,8.55,27.35
			c-0.38,8.59-5.94,17.57-9.29,25.39c-5.19,12.09-7.66,16.02-8.69,24.46C505.63,410.44,506.26,411.55,505.19,416.67z"/>
		<path class="st11" d="M609.52,336.15c-1.41-6.12-3.95-15.01-8.76-24.98c-4.82-9.98-8.12-13.19-13.05-21.3
			c-9.36-15.41-7.84-20.97-16.94-43.57c-4.03-10.02-8.53-18.55-17.54-35.61c-4.61-8.73-6.35-11.62-25.61-45.2
			c-15.84-27.63-16.95-29.66-21-36.26c-8.25-13.43-14.66-23.85-24.47-36.91c-4.19-5.58-14.62-19.11-30.32-34.42
			c-17.02-16.6-25.19-20.62-33.64-21.58c-3.23-0.37-10.43-1.09-17.61,2.97C379.98,50.9,384,83,392.54,100.88
			c4.78,10.02,11.92,18.7,17.65,28.2c11.42,18.93,17.07,40.72,26.44,60.74c11.22,23.97,27.62,45.09,44.06,65.83
			c20.69,26.12,41.85,48.59,66.1,68.77c11.77,9.79,21.33,28.12,37.31,27.59c6.7-0.22,12.09-3.31,15.6-5.88"/>
		<path class="st12" d="M419.14,40.51c-3.23-0.37-10.43-1.09-17.61,2.97c-10.42,5.89-14.53,17.01-14.96,28.88
			c2.24-6.57,6.28-12.2,12.71-15.84c7.18-4.06,14.38-3.34,17.61-2.97c8.45,0.96,16.61,4.98,33.64,21.58
			c15.7,15.32,26.13,28.85,30.32,34.42c9.81,13.06,16.22,23.49,24.47,36.91c4.05,6.6,5.16,8.63,21,36.26
			c19.26,33.59,21,36.47,25.6,45.2c9,17.06,13.5,25.59,17.54,35.61c9.1,22.61,7.58,28.16,16.94,43.57
			c4.93,8.11,8.23,11.32,13.05,21.3c2.92,6.04,4.99,11.67,6.49,16.54l4.52-4.59c-1.41-6.12-3.95-15.01-8.76-24.98
			c-4.82-9.98-8.12-13.19-13.05-21.3c-9.36-15.41-7.84-20.97-16.94-43.57c-4.03-10.02-8.53-18.55-17.54-35.61
			c-4.61-8.73-6.35-11.62-25.6-45.2c-15.84-27.63-16.95-29.66-21-36.26c-8.25-13.43-14.66-23.85-24.47-36.91
			c-8.14-10.83-19.61-23.97-30.32-34.42C435.75,45.49,427.59,41.47,419.14,40.51z"/>
		<path class="st13" d="M609.38,336.34c-1.41-6.12-3.95-15.01-8.76-24.98c-4.82-9.98-8.12-13.19-13.05-21.3
			c-9.36-15.41-7.84-20.97-16.94-43.57c-4.03-10.02-8.53-18.55-17.54-35.61c-4.61-8.73-6.35-11.62-25.6-45.2
			c-15.84-27.63-16.95-29.66-21-36.26c-8.25-13.43-14.66-23.85-24.47-36.91c-4.19-5.58-14.62-19.11-30.32-34.42
			c-17.02-16.6-25.19-20.62-33.64-21.58c-3.23-0.37-10.43-1.09-17.61,2.97c-20.6,11.64-16.58,43.74-8.04,61.62
			c4.78,10.02,11.92,18.7,17.65,28.2c11.42,18.93,17.07,40.72,26.44,60.74c11.22,23.97,27.62,45.09,44.06,65.83
			c20.69,26.12,41.85,48.59,66.1,68.77c11.77,9.79,21.33,28.12,37.31,27.59c6.7-0.22,12.09-3.31,15.6-5.88"/>
		<path class="st14" d="M522.74,230.1c-12.65,0.34-25.12,3.2-37.12,7.3c-5.71-6.1-16.44-5.59-24.18,1.25
			c-5.76,5.09-8.24,12.27-6.92,18.25c-0.48,0.7-0.93,1.42-1.35,2.18c-3.34,6-4.42,12.95-5.46,19.74
			c-2.92,19.23-5.86,38.62-4.93,58.05c0.66,13.93,3.16,43.99,21.61,72.89c11.13,17.44,29.47,36.45,42.12,56.37
			c0.73,1.15,3.67,5.81,7.89,12.01c2.44,3.59,7.58,11.12,13.88,19.23c8.26,10.63,12.64,15.66,16.1,18.92
			c9.85,9.27,24.44,15.62,36.91,10.37c5.32-2.24,9.62-6.32,13.54-10.55c6.8-7.33,12.86-15.36,18.04-23.92
			c4.87-8.05,9.04-16.82,9.73-26.2c0.62-8.39-1.57-16.7-3.36-24.92c-5.77-26.6-7.39-53.94-7.72-81.16
			c-0.15-11.99-0.06-24.12-2.92-35.77c-2.45-9.98-7-19.29-11.51-28.52c-6.58-13.46-13.22-27.01-22.05-39.11
			c-5.82-7.97-12.73-15.38-21.41-20.07C544.28,231.39,533.37,229.82,522.74,230.1z"/>
		<path class="st6" d="M536.81,244.03c-13.26-2.7-26.5-3.29-39.23-2.82c-10.88,0.4-22.18,1.84-28.32,7.67
			c-1.82,1.73-3.09,3.76-4.08,5.92c12.24-0.36,24.93,0.28,37.64,2.87c10.07,2.05,20.29,5.42,28.84,10.81
			c7.93,5,14.01,11.46,19.03,18.07c7.63,10.04,13.08,20.58,18.49,31.06c3.71,7.18,7.44,14.43,9.16,21.68
			c2.6,11.02,4.06,20.71,4.44,25.71c3.3,43.93,6.95,71.87-10.6,88.6c-1.48,1.41-2.8,2.37-3.46,2.82c1.85,0.21,3.68,0.26,5.49,0.13
			c0,0,6.65-0.47,13.45-4.26c6.97-3.87,19.11-9.66,23.54-34.89c1.5-8.53,4.95-17.1,4.24-44.1c-0.35-13.39-0.2-23.77-0.2-23.77
			c0.59-8.12-0.91-15.42-2.91-23.89c-1.71-7.25-5.45-14.5-9.16-21.68c-5.41-10.48-10.86-21.02-18.49-31.06
			c-5.02-6.61-11.1-13.07-19.03-18.07C557.11,249.45,546.89,246.08,536.81,244.03z"/>
		
			<ellipse transform="matrix(0.499 -0.8666 0.8666 0.499 -67.7897 601.5557)" class="st12" cx="486.39" cy="359.41" rx="35.15" ry="27.53"/>
		
			<ellipse transform="matrix(0.499 -0.8666 0.8666 0.499 -69.6839 603.7305)" class="st15" cx="487.33" cy="362.14" rx="26.79" ry="17.86"/>
		<g>
			<g>
				<path class="st3" d="M214.53,500.35c6.6-22.98,22.13-43.11,41.2-56.91c19.07-13.79,41.48-21.54,63.91-24.62
					c54.9-7.53,110.92,13.64,146.36,55.32c21.28,25.03,35.4,57.69,35.52,92.31c0.12,34.62-14.88,70.89-41.96,92.59
					c-20.28,16.24-45.73,23.51-70.46,24.86c-48.31,2.63-95.96-16.86-128.15-52.42s-58.75-87.73-46.36-130.78"/>
				<g>
					<path class="st16" d="M223.21,502.75c1.06-3.66,2.34-7.24,3.81-10.75c-0.3,0.72-0.6,1.43-0.91,2.15
						c3.53-8.28,8.15-16.03,13.63-23.16c-0.47,0.61-0.94,1.21-1.41,1.82c6.05-7.8,13.07-14.8,20.87-20.84
						c-0.61,0.47-1.21,0.94-1.82,1.41c8.72-6.71,18.33-12.17,28.45-16.45c-0.72,0.3-1.43,0.6-2.15,0.91
						c12.4-5.19,25.48-8.58,38.8-10.39c-0.8,0.11-1.6,0.21-2.39,0.32c14.46-1.92,29.13-1.89,43.59,0.04
						c-0.8-0.11-1.6-0.21-2.39-0.32c14.58,1.99,28.85,5.9,42.42,11.62c-0.72-0.3-1.43-0.6-2.15-0.91
						c12.96,5.5,25.19,12.63,36.34,21.24c-0.61-0.47-1.21-0.94-1.82-1.41c10.55,8.2,20.05,17.68,28.23,28.25
						c-0.47-0.61-0.94-1.21-1.41-1.82c8.02,10.43,14.73,21.83,19.86,33.94c-0.3-0.72-0.6-1.43-0.91-2.15
						c4.8,11.43,8.16,23.43,9.83,35.72c-0.11-0.8-0.21-1.6-0.32-2.39c1.48,11.16,1.54,22.44,0.07,33.6c0.11-0.8,0.21-1.6,0.32-2.39
						c-1.52,11.2-4.5,22.17-8.89,32.59c0.3-0.72,0.6-1.43,0.91-2.15c-3.94,9.27-8.97,18.05-15.12,26.03
						c0.47-0.61,0.94-1.21,1.41-1.82c-5.35,6.9-11.5,13.13-18.42,18.47c0.61-0.47,1.21-0.94,1.82-1.41
						c-7.21,5.52-15.11,10.02-23.47,13.57c0.72-0.3,1.43-0.6,2.15-0.91c-10.76,4.52-22.12,7.42-33.67,8.97
						c0.8-0.11,1.6-0.21,2.39-0.32c-13.94,1.83-28.08,1.74-42.01-0.12c0.8,0.11,1.6,0.21,2.39,0.32
						c-14.29-1.95-28.27-5.78-41.56-11.37c0.72,0.3,1.43,0.6,2.15,0.91c-12.82-5.43-24.92-12.47-35.95-20.97
						c0.61,0.47,1.21,0.94,1.82,1.41c-12.07-9.36-22.48-20.46-31.82-32.51c0.47,0.61,0.94,1.21,1.41,1.82
						c-10.86-14.07-20.21-29.36-27.16-45.73c0.3,0.72,0.6,1.43,0.91,2.15c-4.71-11.18-8.27-22.86-9.93-34.9
						c0.11,0.8,0.21,1.6,0.32,2.39c-1.13-8.45-1.3-17-0.17-25.46c-0.11,0.8-0.21,1.6-0.32,2.39c0.52-3.73,1.29-7.42,2.32-11.04
						c1.29-4.53-1.58-10-6.29-11.07c-4.79-1.09-9.69,1.44-11.07,6.29c-8.23,28.91-0.53,59.56,12.12,85.95
						c6.35,13.24,14.23,25.74,23.16,37.38c9.1,11.87,18.97,23.05,30.59,32.52c23.06,18.78,50.77,31.71,80.17,36.52
						c30.93,5.07,63.47,2.38,91.96-11.26c13.64-6.53,26.04-15.96,35.82-27.51c9.87-11.65,17.33-24.85,22.61-39.17
						c10.49-28.41,10.58-60.07,1.45-88.85c-9.14-28.79-26.72-54.94-49.8-74.41c-22.27-18.79-49.17-31.98-77.79-37.67
						c-29.86-5.94-61.55-4.4-90.3,5.93c-15.8,5.67-30.45,13.78-43.3,24.61c-11.34,9.55-21.09,21.39-28.1,34.47
						c-3.59,6.7-6.54,13.82-8.66,21.13c-1.31,4.52,1.59,10,6.29,11.07C216.94,510.13,221.8,507.59,223.21,502.75L223.21,502.75z"/>
				</g>
			</g>
			<g>
				<path class="st3" d="M214.53,500.35c6.6-22.98,22.13-43.11,41.2-56.91c19.07-13.79,41.48-21.54,63.91-24.62
					c54.9-7.53,110.92,13.64,146.36,55.32c21.28,25.03,35.4,57.69,35.52,92.31c0.12,34.62-14.88,70.89-41.96,92.59
					c-20.28,16.24-45.73,23.51-70.46,24.86c-48.31,2.63-95.96-16.86-128.15-52.42s-58.75-87.73-46.36-130.78"/>
				<g>
					<path class="st16" d="M223.21,502.75c1.06-3.66,2.34-7.24,3.81-10.75c-0.3,0.72-0.6,1.43-0.91,2.15
						c3.53-8.28,8.15-16.03,13.63-23.16c-0.47,0.61-0.94,1.21-1.41,1.82c6.05-7.8,13.07-14.8,20.87-20.84
						c-0.61,0.47-1.21,0.94-1.82,1.41c8.72-6.71,18.33-12.17,28.45-16.45c-0.72,0.3-1.43,0.6-2.15,0.91
						c12.4-5.19,25.48-8.58,38.8-10.39c-0.8,0.11-1.6,0.21-2.39,0.32c14.46-1.92,29.13-1.89,43.59,0.04
						c-0.8-0.11-1.6-0.21-2.39-0.32c14.58,1.99,28.85,5.9,42.42,11.62c-0.72-0.3-1.43-0.6-2.15-0.91
						c12.96,5.5,25.19,12.63,36.34,21.24c-0.61-0.47-1.21-0.94-1.82-1.41c10.55,8.2,20.05,17.68,28.23,28.25
						c-0.47-0.61-0.94-1.21-1.41-1.82c8.02,10.43,14.73,21.83,19.86,33.94c-0.3-0.72-0.6-1.43-0.91-2.15
						c4.8,11.43,8.16,23.43,9.83,35.72c-0.11-0.8-0.21-1.6-0.32-2.39c1.48,11.16,1.54,22.44,0.07,33.6c0.11-0.8,0.21-1.6,0.32-2.39
						c-1.52,11.2-4.5,22.17-8.89,32.59c0.3-0.72,0.6-1.43,0.91-2.15c-3.94,9.27-8.97,18.05-15.12,26.03
						c0.47-0.61,0.94-1.21,1.41-1.82c-5.35,6.9-11.5,13.13-18.42,18.47c0.61-0.47,1.21-0.94,1.82-1.41
						c-7.21,5.52-15.11,10.02-23.47,13.57c0.72-0.3,1.43-0.6,2.15-0.91c-10.76,4.52-22.12,7.42-33.67,8.97
						c0.8-0.11,1.6-0.21,2.39-0.32c-13.94,1.83-28.08,1.74-42.01-0.12c0.8,0.11,1.6,0.21,2.39,0.32
						c-14.29-1.95-28.27-5.78-41.56-11.37c0.72,0.3,1.43,0.6,2.15,0.91c-12.82-5.43-24.92-12.47-35.95-20.97
						c0.61,0.47,1.21,0.94,1.82,1.41c-12.07-9.36-22.48-20.46-31.82-32.51c0.47,0.61,0.94,1.21,1.41,1.82
						c-10.86-14.07-20.21-29.36-27.16-45.73c0.3,0.72,0.6,1.43,0.91,2.15c-4.71-11.18-8.27-22.86-9.93-34.9
						c0.11,0.8,0.21,1.6,0.32,2.39c-1.13-8.45-1.3-17-0.17-25.46c-0.11,0.8-0.21,1.6-0.32,2.39c0.52-3.73,1.29-7.42,2.32-11.04
						c1.29-4.53-1.58-10-6.29-11.07c-4.79-1.09-9.69,1.44-11.07,6.29c-8.23,28.91-0.53,59.56,12.12,85.95
						c6.35,13.24,14.23,25.74,23.16,37.38c9.1,11.87,18.97,23.05,30.59,32.52c23.06,18.78,50.77,31.71,80.17,36.52
						c30.93,5.07,63.47,2.38,91.96-11.26c13.64-6.53,26.04-15.96,35.82-27.51c9.87-11.65,17.33-24.85,22.61-39.17
						c10.49-28.41,10.58-60.07,1.45-88.85c-9.14-28.79-26.72-54.94-49.8-74.41c-22.27-18.79-49.17-31.98-77.79-37.67
						c-29.86-5.94-61.55-4.4-90.3,5.93c-15.8,5.67-30.45,13.78-43.3,24.61c-11.34,9.55-21.09,21.39-28.1,34.47
						c-3.59,6.7-6.54,13.82-8.66,21.13c-1.31,4.52,1.59,10,6.29,11.07C216.94,510.13,221.8,507.59,223.21,502.75L223.21,502.75z"/>
				</g>
			</g>
			<g>
				<g>
					<path class="st3" d="M97.66,546.21c-2.02-10.72,2.09-24.78,9.43-36.9c7.34-12.12,17.59-22.41,28.29-30.43
						c26.24-19.66,66.08-10.95,87.91-3.96l1.57-0.06l0.05,0.3c-16.84,3.98-40.95,11.63-52.47,25.93
						c-8.69,10.77-15.34,23.09-23.47,34.34c-8.12,11.25-18.72,22.06-29.47,25C108.48,563.46,99.68,556.94,97.66,546.21z"/>
					<g>
						<path class="st16" d="M106.33,543.82c-0.08-0.45-0.16-0.9-0.22-1.36c0.11,0.8,0.21,1.6,0.32,2.39
							c-0.43-3.29-0.34-6.61,0.08-9.9c-0.11,0.8-0.21,1.6-0.32,2.39c0.73-5.34,2.3-10.51,4.37-15.48c-0.3,0.72-0.6,1.43-0.91,2.15
							c2.85-6.72,6.64-12.95,11.07-18.74c-0.47,0.61-0.94,1.21-1.41,1.82c5.99-7.75,13.05-14.61,20.78-20.61
							c-0.61,0.47-1.21,0.94-1.82,1.41c4.11-3.17,8.46-5.83,13.24-7.86c-0.72,0.3-1.43,0.6-2.15,0.91
							c5.64-2.35,11.59-3.83,17.64-4.65c-0.8,0.11-1.6,0.21-2.39,0.32c9.48-1.24,19.1-0.9,28.56,0.36c-0.8-0.11-1.6-0.21-2.39-0.32
							c6.06,0.82,12.06,2,17.98,3.49c2.59,0.65,5.17,1.36,7.74,2.11c1.22,0.36,2.43,0.73,3.64,1.11c1.57,0.5,3.1,0.56,4.71,0.5
							c-2.89-2.2-5.79-4.4-8.68-6.61c0.02,0.1,0.04,0.2,0.05,0.3c2.1-3.69,4.19-7.38,6.29-11.07c-12.79,3.03-25.55,7.09-37.19,13.29
							c-6,3.2-11.82,7.16-16.61,12.01c-2.9,2.94-5.36,6.33-7.79,9.66c-2.38,3.26-4.63,6.61-6.83,9.99
							c-4.98,7.64-9.73,15.44-15.29,22.68c0.47-0.61,0.94-1.21,1.41-1.82c-4.3,5.54-9.06,10.78-14.59,15.11
							c0.61-0.47,1.21-0.94,1.82-1.41c-2.81,2.17-5.8,4.08-9.06,5.48c0.72-0.3,1.43-0.6,2.15-0.91c-2,0.83-4.06,1.46-6.21,1.77
							c0.8-0.11,1.6-0.21,2.39-0.32c-1.64,0.2-3.27,0.22-4.91,0c0.8,0.11,1.6,0.21,2.39,0.32c-1.32-0.2-2.59-0.54-3.83-1.04
							c0.72,0.3,1.43,0.6,2.15,0.91c-1.29-0.55-2.49-1.25-3.61-2.1c0.61,0.47,1.21,0.94,1.82,1.41c-1.11-0.88-2.1-1.89-2.97-3.01
							c0.47,0.61,0.94,1.21,1.41,1.82c-0.96-1.27-1.74-2.64-2.37-4.11c0.3,0.72,0.6,1.43,0.91,2.15
							C107.08,546.89,106.64,545.38,106.33,543.82c-0.42-2.12-2.33-4.32-4.14-5.38c-1.93-1.13-4.77-1.61-6.94-0.91
							c-4.93,1.59-7.26,6.11-6.29,11.07c1.48,7.53,6.22,14.84,13.09,18.49c3.74,1.99,7.88,3.07,12.13,3.08
							c4.71,0.01,9-1.32,13.27-3.16c3.64-1.57,6.85-3.77,9.97-6.19c3.39-2.62,6.53-5.49,9.44-8.63c6.05-6.53,11.2-13.85,16.05-21.29
							c5.16-7.91,10.09-15.99,15.87-23.48c-0.47,0.61-0.94,1.21-1.41,1.82c2.63-3.38,5.52-6.37,8.9-9
							c-0.61,0.47-1.21,0.94-1.82,1.41c5.57-4.28,11.84-7.55,18.29-10.28c-0.72,0.3-1.43,0.6-2.15,0.91
							c8.62-3.62,17.61-6.28,26.69-8.43c2.06-0.49,4.39-2.26,5.38-4.14c1.19-2.26,1.34-4.43,0.91-6.94c-0.02-0.1-0.04-0.2-0.05-0.3
							c-0.3-0.72-0.6-1.43-0.91-2.15c-0.57-1.05-1.34-1.89-2.32-2.53c-1.53-1.18-3.47-2-5.45-1.93c-0.52,0.02-1.05,0.04-1.57,0.06
							c0.8,0.11,1.6,0.21,2.39,0.32c-9.04-2.89-18.3-5.19-27.69-6.61c-6.05-0.91-12.14-1.61-18.26-1.77
							c-6.12-0.16-12.16,0.3-18.21,1.16c-11.71,1.66-22.93,6.1-32.32,13.32c-11.29,8.69-21.32,18.84-28.97,30.94
							c-8.36,13.22-14.11,29.56-11.25,45.31c0.38,2.11,2.35,4.33,4.14,5.38c1.93,1.13,4.77,1.61,6.94,0.91
							c2.18-0.7,4.28-2.05,5.38-4.14C106.61,548.51,106.79,546.32,106.33,543.82z"/>
					</g>
				</g>
			</g>
			<g>
				<path class="st6" d="M94.66,536.81c3.29,2.1,7.31,3.24,11.81,3.03c11.3-0.51,23.18-8.71,32.58-17.89
					c9.4-9.18,17.39-19.73,27.32-28.32c4.54-3.93,10.54-6.76,17.18-8.79c0.34,2.3,1.07,4.58,2.15,6.75
					c-5.6,2.54-10.56,5.72-14.25,9.69c-8.91,9.58-15.73,20.95-24.06,31.08c-8.33,10.13-19.2,19.5-30.26,21.07
					C105.87,555.01,96.85,547.56,94.66,536.81z"/>
			</g>
			<g>
				<path class="st6" d="M258.89,634.41c-32.19-35.56-58.75-87.73-46.36-130.78l-0.06-0.36c3.66-12.75,10.08-24.62,18.32-35.02
					c-1.27,2.42-2.47,4.88-3.59,7.4c-9.52,21.5-12.79,46.69-6.93,69.84l0.23,0.28c10.96,43.39,60.14,75.06,105.81,89.56
					c45.67,14.5,96.61,7.35,136.99-19.23c13.42-8.84,25.85-19.98,35.47-33.34c-3.24,30.31-17.66,60.29-41.26,79.2
					c-20.28,16.24-45.73,23.51-70.46,24.86C338.73,689.46,291.07,669.97,258.89,634.41z"/>
			</g>
			<g>
				<g>
					<path class="st17" d="M339.53,550.58l-40.74-17.81c-6.55-2.86-9.04-11.45-5.54-19.08l40.45-88.16
						c5.65-0.06,11.26,0.18,16.76,0.71c18.98,1.85,36.96,7.17,53.32,15.45L357.8,541.91C354.3,549.54,346.08,553.45,339.53,550.58z"
						/>
				</g>
				
					<ellipse transform="matrix(0.2342 -0.9722 0.9722 0.2342 -237.9566 721.8445)" class="st18" cx="339.19" cy="511.96" rx="7.73" ry="6.82"/>
				
					<ellipse transform="matrix(0.2342 -0.9722 0.9722 0.2342 -182.7938 706.8978)" class="st18" cx="357.29" cy="469.47" rx="7.73" ry="6.82"/>
				
					<ellipse transform="matrix(0.2342 -0.9722 0.9722 0.2342 -202.8173 694.7689)" class="st18" cx="339.58" cy="476.12" rx="7.73" ry="6.82"/>
				
					<ellipse transform="matrix(0.2342 -0.9722 0.9722 0.2342 -225.291 700.8583)" class="st18" cx="332.2" cy="493.43" rx="7.73" ry="6.82"/>
				
					<ellipse transform="matrix(0.2342 -0.9722 0.9722 0.2342 -147.2882 697.397)" class="st18" cx="369.01" cy="442.19" rx="7.73" ry="6.82"/>
			</g>
			
				<ellipse transform="matrix(0.2342 -0.9722 0.9722 0.2342 -142.7041 677.1068)" class="st18" cx="358.42" cy="429.13" rx="7.73" ry="6.82"/>
			<g>
				<g>
					<path class="st16" d="M223.21,502.75c1.06-3.66,2.34-7.24,3.81-10.75c-0.3,0.72-0.6,1.43-0.91,2.15
						c3.53-8.28,8.15-16.03,13.63-23.16c-0.47,0.61-0.94,1.21-1.41,1.82c6.05-7.8,13.07-14.8,20.87-20.84
						c-0.61,0.47-1.21,0.94-1.82,1.41c8.72-6.71,18.33-12.17,28.45-16.45c-0.72,0.3-1.43,0.6-2.15,0.91
						c12.4-5.19,25.48-8.58,38.8-10.39c-0.8,0.11-1.6,0.21-2.39,0.32c14.46-1.92,29.13-1.89,43.59,0.04
						c-0.8-0.11-1.6-0.21-2.39-0.32c14.58,1.99,28.85,5.9,42.42,11.62c-0.72-0.3-1.43-0.6-2.15-0.91
						c12.96,5.5,25.19,12.63,36.34,21.24c-0.61-0.47-1.21-0.94-1.82-1.41c10.55,8.2,20.05,17.68,28.23,28.25
						c-0.47-0.61-0.94-1.21-1.41-1.82c8.02,10.43,14.73,21.83,19.86,33.94c-0.3-0.72-0.6-1.43-0.91-2.15
						c4.8,11.43,8.16,23.43,9.83,35.72c-0.11-0.8-0.21-1.6-0.32-2.39c1.48,11.16,1.54,22.44,0.07,33.6c0.11-0.8,0.21-1.6,0.32-2.39
						c-1.52,11.2-4.5,22.17-8.89,32.59c0.3-0.72,0.6-1.43,0.91-2.15c-3.94,9.27-8.97,18.05-15.12,26.03
						c0.47-0.61,0.94-1.21,1.41-1.82c-5.35,6.9-11.5,13.13-18.42,18.47c0.61-0.47,1.21-0.94,1.82-1.41
						c-7.21,5.52-15.11,10.02-23.47,13.57c0.72-0.3,1.43-0.6,2.15-0.91c-10.76,4.52-22.12,7.42-33.67,8.97
						c0.8-0.11,1.6-0.21,2.39-0.32c-13.94,1.83-28.08,1.74-42.01-0.12c0.8,0.11,1.6,0.21,2.39,0.32
						c-14.29-1.95-28.27-5.78-41.56-11.37c0.72,0.3,1.43,0.6,2.15,0.91c-12.82-5.43-24.92-12.47-35.95-20.97
						c0.61,0.47,1.21,0.94,1.82,1.41c-12.07-9.36-22.48-20.46-31.82-32.51c0.47,0.61,0.94,1.21,1.41,1.82
						c-10.86-14.07-20.21-29.36-27.16-45.73c0.3,0.72,0.6,1.43,0.91,2.15c-4.71-11.18-8.27-22.86-9.93-34.9
						c0.11,0.8,0.21,1.6,0.32,2.39c-1.13-8.45-1.3-17-0.17-25.46c-0.11,0.8-0.21,1.6-0.32,2.39c0.52-3.73,1.29-7.42,2.32-11.04
						c1.29-4.53-1.58-10-6.29-11.07c-4.79-1.09-9.69,1.44-11.07,6.29c-8.23,28.91-0.53,59.56,12.12,85.95
						c6.35,13.24,14.23,25.74,23.16,37.38c9.1,11.87,18.97,23.05,30.59,32.52c23.06,18.78,50.77,31.71,80.17,36.52
						c30.93,5.07,63.47,2.38,91.96-11.26c13.64-6.53,26.04-15.96,35.82-27.51c9.87-11.65,17.33-24.85,22.61-39.17
						c10.49-28.41,10.58-60.07,1.45-88.85c-9.14-28.79-26.72-54.94-49.8-74.41c-22.27-18.79-49.17-31.98-77.79-37.67
						c-29.86-5.94-61.55-4.4-90.3,5.93c-15.8,5.67-30.45,13.78-43.3,24.61c-11.34,9.55-21.09,21.39-28.1,34.47
						c-3.59,6.7-6.54,13.82-8.66,21.13c-1.31,4.52,1.59,10,6.29,11.07C216.94,510.13,221.8,507.59,223.21,502.75L223.21,502.75z"/>
				</g>
			</g>
			<g>
				<g>
					<g>
						<path class="st16" d="M106.33,543.82c-0.08-0.45-0.16-0.9-0.22-1.36c0.11,0.8,0.21,1.6,0.32,2.39
							c-0.43-3.29-0.34-6.61,0.08-9.9c-0.11,0.8-0.21,1.6-0.32,2.39c0.73-5.34,2.3-10.51,4.37-15.48c-0.3,0.72-0.6,1.43-0.91,2.15
							c2.85-6.72,6.64-12.95,11.07-18.74c-0.47,0.61-0.94,1.21-1.41,1.82c5.99-7.75,13.05-14.61,20.78-20.61
							c-0.61,0.47-1.21,0.94-1.82,1.41c4.11-3.17,8.46-5.83,13.24-7.86c-0.72,0.3-1.43,0.6-2.15,0.91
							c5.64-2.35,11.59-3.83,17.64-4.65c-0.8,0.11-1.6,0.21-2.39,0.32c9.48-1.24,19.1-0.9,28.56,0.36c-0.8-0.11-1.6-0.21-2.39-0.32
							c6.06,0.82,12.06,2,17.98,3.49c2.59,0.65,5.17,1.36,7.74,2.11c1.22,0.36,2.43,0.73,3.64,1.11c1.57,0.5,3.1,0.56,4.71,0.5
							c-2.89-2.2-5.79-4.4-8.68-6.61c0.02,0.1,0.04,0.2,0.05,0.3c2.1-3.69,4.19-7.38,6.29-11.07c-12.79,3.03-25.55,7.09-37.19,13.29
							c-6,3.2-11.82,7.16-16.61,12.01c-2.9,2.94-5.36,6.33-7.79,9.66c-2.38,3.26-4.63,6.61-6.83,9.99
							c-4.98,7.64-9.73,15.44-15.29,22.68c0.47-0.61,0.94-1.21,1.41-1.82c-4.3,5.54-9.06,10.78-14.59,15.11
							c0.61-0.47,1.21-0.94,1.82-1.41c-2.81,2.17-5.8,4.08-9.06,5.48c0.72-0.3,1.43-0.6,2.15-0.91c-2,0.83-4.06,1.46-6.21,1.77
							c0.8-0.11,1.6-0.21,2.39-0.32c-1.64,0.2-3.27,0.22-4.91,0c0.8,0.11,1.6,0.21,2.39,0.32c-1.32-0.2-2.59-0.54-3.83-1.04
							c0.72,0.3,1.43,0.6,2.15,0.91c-1.29-0.55-2.49-1.25-3.61-2.1c0.61,0.47,1.21,0.94,1.82,1.41c-1.11-0.88-2.1-1.89-2.97-3.01
							c0.47,0.61,0.94,1.21,1.41,1.82c-0.96-1.27-1.74-2.64-2.37-4.11c0.3,0.72,0.6,1.43,0.91,2.15
							C107.08,546.89,106.64,545.38,106.33,543.82c-0.42-2.12-2.33-4.32-4.14-5.38c-1.93-1.13-4.77-1.61-6.94-0.91
							c-4.93,1.59-7.26,6.11-6.29,11.07c1.48,7.53,6.22,14.84,13.09,18.49c3.74,1.99,7.88,3.07,12.13,3.08
							c4.71,0.01,9-1.32,13.27-3.16c3.64-1.57,6.85-3.77,9.97-6.19c3.39-2.62,6.53-5.49,9.44-8.63c6.05-6.53,11.2-13.85,16.05-21.29
							c5.16-7.91,10.09-15.99,15.87-23.48c-0.47,0.61-0.94,1.21-1.41,1.82c2.63-3.38,5.52-6.37,8.9-9
							c-0.61,0.47-1.21,0.94-1.82,1.41c5.57-4.28,11.84-7.55,18.29-10.28c-0.72,0.3-1.43,0.6-2.15,0.91
							c8.62-3.62,17.61-6.28,26.69-8.43c2.06-0.49,4.39-2.26,5.38-4.14c1.19-2.26,1.34-4.43,0.91-6.94c-0.02-0.1-0.04-0.2-0.05-0.3
							c-0.3-0.72-0.6-1.43-0.91-2.15c-0.57-1.05-1.34-1.89-2.32-2.53c-1.53-1.18-3.47-2-5.45-1.93c-0.52,0.02-1.05,0.04-1.57,0.06
							c0.8,0.11,1.6,0.21,2.39,0.32c-9.04-2.89-18.3-5.19-27.69-6.61c-6.05-0.91-12.14-1.61-18.26-1.77
							c-6.12-0.16-12.16,0.3-18.21,1.16c-11.71,1.66-22.93,6.1-32.32,13.32c-11.29,8.69-21.32,18.84-28.97,30.94
							c-8.36,13.22-14.11,29.56-11.25,45.31c0.38,2.11,2.35,4.33,4.14,5.38c1.93,1.13,4.77,1.61,6.94,0.91
							c2.18-0.7,4.28-2.05,5.38-4.14C106.61,548.51,106.79,546.32,106.33,543.82z"/>
					</g>
				</g>
			</g>
			<path class="st6" d="M458.49,491.24"/>
		</g>
		<g>
			<g>
				<path class="st5" d="M478.25,569.71"/>
				<path class="st5" d="M437.17,611.4"/>
				
					<ellipse transform="matrix(0.4439 -0.8961 0.8961 0.4439 -201.9921 708.1689)" class="st5" cx="469.53" cy="516.82" rx="52.29" ry="30.82"/>
			</g>
			<g>
				<path class="st6" d="M443.83,560.91c-5.38-7.12-8.69-20.06-3.84-34.88l0.01-0.1c1.44-4.39-0.51,5.67-0.35,12.13l0.04,0.06
					c0.3,12.11,9.62,15.97,19.02,14.95s21.02-9.39,31.26-22.49c3.4-4.36,6.7-9.31,9.49-14.6c-2.2,9.77-6.87,20.79-13.02,29.5
					c-5.28,7.48-11.27,12.8-16.81,16.2C458.8,568.31,449.21,568.03,443.83,560.91z"/>
			</g>
			<g>
				<path class="st7" d="M478.43,570.25"/>
				<path class="st7" d="M437.36,611.94"/>
				
					<ellipse transform="matrix(0.4439 -0.8961 0.8961 0.4439 -202.3714 708.633)" class="st7" cx="469.71" cy="517.35" rx="52.29" ry="30.82"/>
			</g>
		</g>
		<g>
			<g>
				<path class="st5" d="M473.05,689.72"/>
				<path class="st5" d="M420.32,707.62"/>
				
					<ellipse transform="matrix(0.8135 -0.5816 0.5816 0.8135 -282.6947 403.1637)" class="st5" cx="487.18" cy="642.3" rx="49.17" ry="29.04"/>
			</g>
			<g>
				<path class="st6" d="M450.62,670.26c-3.04-7.74-2.61-20.07,5.84-31.84l0.03-0.09c2.5-3.49-1.99,4.87-3.58,10.61l0.02,0.06
					c-1.1,3.98-0.77,7.3,0.55,9.98c2.89,5.92,9.93,7.63,12.95,8.36c11.59,2.82,22.05-2.16,33.32-7.54
					c4.79-2.28,11.61-5.94,19.19-11.55c-9.67,8.85-18.4,15.38-24.93,19.89c-11.15,7.7-15.57,8.68-19.84,9.75
					C462.41,680.84,453.66,678,450.62,670.26z"/>
			</g>
			<g>
				<path class="st7" d="M472.99,690.24"/>
				<path class="st7" d="M420.26,708.14"/>
				
					<ellipse transform="matrix(0.8135 -0.5816 0.5816 0.8135 -283.0089 403.2256)" class="st7" cx="487.12" cy="642.82" rx="49.17" ry="29.04"/>
			</g>
			<path class="st6" d="M482.13,702.19"/>
		</g>
		
			<ellipse transform="matrix(0.9914 -0.1306 0.1306 0.9914 -29.7065 65.5853)" class="st12" cx="485.14" cy="259.26" rx="6.78" ry="5.5"/>
		
			<ellipse transform="matrix(0.8985 -0.439 0.439 0.8985 -56.4942 239.0076)" class="st12" cx="488.54" cy="241.66" rx="6.3" ry="3.5"/>
		
			<ellipse transform="matrix(0.9914 -0.1306 0.1306 0.9914 -29.5245 65.5496)" class="st15" cx="484.96" cy="257.86" rx="6.78" ry="4.39"/>
		
			<ellipse transform="matrix(0.8985 -0.439 0.439 0.8985 -56.5486 238.9767)" class="st15" cx="488.44" cy="241.76" rx="5.66" ry="3.16"/>
		<path class="st19" d="M553.83,235.74c-4.23,3.75-3.65,10.14-3.48,15.15c1.19,35.66,13.73,70.05,16.63,105.61"/>
		<path class="st11" d="M642.59,608.92c-4.39-6.62-11.16-9.37-17.63-11.99c-3.64-1.48-9.42-3.76-17.24-3.87
			c-6.63-0.09-11.61,1.43-17.56,3.24c-3.3,1.01-7.46,2.29-12.5,5.01c-5.51,2.96-9.24,6.1-12.23,8.63c-1.57,1.33-5.2,4.44-8.6,8.36
			c-7.1,8.19-10.01,18.37-14.03,28.23c-4.99,12.23-10.3,24.32-14.87,36.71c-13.77,37.34-23.2,75.95-33.32,114.37
			c-10.45,39.68-20.21,79.59-27.45,120c-0.43,2.42-0.86,4.85-1.28,7.28c-10.2,59.48-14.72,120.31-7.75,180.25
			c1.38,11.86,3.21,23.7,6.17,35.27c1.05,4.09,2.69,8.67,6.61,10.22c4.44,1.76,9.58-1.62,11.47-6.01c1.93-4.49,0.74-8.87,1.26-13.48
			c0.46-4.08,1.72-8.3,2.33-12.42c2.98-20.18,5.53-40.42,7.64-60.7c3.58-34.31,5.93-68.75,10.33-102.96
			c9.72-75.42,29.83-150.51,67.3-217.1c4.66-8.28,10.73-14.69,16.31-22.36c12.39-17.01,18.72-25.67,25.42-33.21
			c7.44-8.38,10.11-10.31,13.43-14c0,0,1.45-1.65,2.96-3.57c16.54-21.02,17.17-37.32,17.17-37.32
			C646.73,622.7,647,615.58,642.59,608.92z"/>
		<path class="st12" d="M607.65,593.2c-3.24-0.04-6.08,0.3-8.83,0.87c5.16,0.79,9.08,2.38,11.52,3.39
			c8.28,3.43,14.07,8.35,17.63,11.99l3.96,18.58c-2.43,10.79-7.16,24.41-17.17,37.32c-5.18,6.68-6.93,6.91-16.39,17.57
			c-6.7,7.54-13.03,16.2-25.42,33.21c-5.58,7.67-11.65,14.08-16.31,22.36c-37.47,66.6-57.58,141.68-67.3,217.1
			c-4.41,34.21-6.75,68.65-10.33,102.96c-2.12,20.29-4.67,40.53-7.64,60.7c-0.61,4.12-1.87,8.34-2.33,12.42
			c-0.52,4.62,0.67,9-1.26,13.48c-0.28,0.66-0.64,1.28-1.06,1.88c1,1.66,2.33,3.03,4.14,3.74c4.44,1.76,9.58-1.62,11.47-6.01
			c1.93-4.49,0.74-8.87,1.26-13.48c0.46-4.08,1.72-8.3,2.33-12.42c2.98-20.18,5.53-40.42,7.64-60.7
			c3.58-34.31,5.93-68.75,10.33-102.96c9.72-75.42,29.83-150.51,67.3-217.1c4.66-8.28,10.73-14.69,16.31-22.36
			c12.39-17.01,18.72-25.67,25.42-33.21c9.47-10.65,11.21-10.89,16.39-17.57c10.01-12.9,14.75-26.53,17.17-37.32l-3.96-18.58
			c-3.56-3.64-9.35-8.55-17.63-11.99C621.61,595.7,615.67,593.31,607.65,593.2z"/>
		<path class="st20" d="M671.03,321.73"/>
		<path class="st13" d="M641.89,608.75c-4.39-6.62-11.16-9.37-17.63-11.99c-3.64-1.48-9.42-3.76-17.24-3.87
			c-6.63-0.09-11.61,1.43-17.56,3.24c-3.3,1.01-7.46,2.29-12.5,5.01c-5.51,2.96-9.24,6.1-12.23,8.63c-1.57,1.33-5.2,4.44-8.6,8.36
			c-7.1,8.19-10.01,18.37-14.03,28.23c-4.99,12.23-10.3,24.32-14.87,36.71c-13.77,37.34-23.2,75.95-33.32,114.37
			c-10.45,39.68-20.21,79.59-27.45,120c-0.43,2.42-0.86,4.85-1.28,7.28c-10.2,59.48-14.72,120.31-7.75,180.25
			c1.38,11.86,3.21,23.7,6.17,35.27c1.05,4.09,2.69,8.67,6.61,10.22c4.44,1.76,9.58-1.62,11.47-6.01c1.93-4.49,0.74-8.87,1.26-13.48
			c0.46-4.08,1.72-8.3,2.33-12.42c2.98-20.18,5.53-40.42,7.64-60.7c3.58-34.31,5.93-68.75,10.34-102.96
			c9.72-75.42,29.83-150.51,67.3-217.1c4.66-8.28,10.73-14.69,16.31-22.36c12.39-17.01,18.72-25.67,25.42-33.21
			c7.44-8.38,10.11-10.31,13.43-14c0,0,1.45-1.65,2.96-3.57c16.54-21.02,17.17-37.32,17.17-37.32
			C646.03,622.53,646.31,615.41,641.89,608.75z"/>
		<path class="st21" d="M522.76,230.54c-12.65,0.34-25.12,3.2-37.12,7.3c-5.71-6.1-16.44-5.59-24.18,1.25
			c-5.76,5.09-8.24,12.27-6.92,18.25c-0.48,0.7-0.93,1.42-1.35,2.18c-3.34,6-4.42,12.95-5.46,19.74
			c-2.92,19.23-5.86,38.62-4.93,58.05c0.66,13.93,3.16,43.99,21.61,72.89c11.13,17.44,29.47,36.45,42.12,56.37
			c0.73,1.15,3.67,5.81,7.89,12.01c2.44,3.59,7.58,11.12,13.88,19.23c8.26,10.63,12.64,15.66,16.1,18.92
			c9.85,9.27,24.44,15.62,36.91,10.37c5.32-2.24,9.62-6.32,13.54-10.55c6.8-7.33,12.86-15.36,18.04-23.92
			c4.87-8.05,9.04-16.82,9.73-26.2c0.62-8.39-1.57-16.7-3.36-24.92c-5.77-26.6-7.39-53.94-7.72-81.16
			c-0.15-11.99-0.06-24.12-2.92-35.77c-2.45-9.98-7-19.29-11.51-28.52c-6.58-13.46-13.22-27.01-22.05-39.11
			c-5.82-7.97-12.73-15.38-21.41-20.07C544.3,231.82,533.39,230.25,522.76,230.54z"/>
	</g>
</g>
</svg>
