<?xml version="1.0" encoding="utf-8"?>
<!-- Generator: Adobe Illustrator 27.8.1, SVG Export Plug-In . SVG Version: 6.00 Build 0)  -->
<svg version="1.1" xmlns="http://www.w3.org/2000/svg" xmlns:xlink="http://www.w3.org/1999/xlink" x="0px" y="0px"
	 viewBox="0 0 841.89 1190.55" style="enable-background:new 0 0 841.89 1190.55;" xml:space="preserve">
<style type="text/css">
	.st0{display:none;}
	.st1{display:inline;fill:#C8C8C8;stroke:#000000;stroke-miterlimit:10;}
	.st2{display:inline;fill:#FFFFFF;stroke:#FFFFFF;stroke-width:7;stroke-miterlimit:10;}
	.st3{fill:#FFCC07;}
	.st4{fill:#EA751B;stroke:#4E4D4D;stroke-width:3;stroke-miterlimit:10;}
	.st5{fill:#E99719;}
	.st6{fill:#FFFFFF;}
	.st7{fill:#4E4D4D;}
	.st8{fill:#CDCCCC;}
	.st9{fill:none;stroke:#4E4D4D;stroke-width:11;stroke-miterlimit:10;}
	.st10{fill:none;}
	.st11{fill:#E99719;stroke:#4E4D4D;stroke-width:5;stroke-miterlimit:10;}
	.st12{fill:#EA751B;stroke:#4E4D4D;stroke-width:5;stroke-miterlimit:10;}
	.st13{fill:#FFFFFF;stroke:#4E4D4D;stroke-width:10;stroke-miterlimit:10;}
	.st14{fill:#020203;stroke:#020203;stroke-width:7.8427;stroke-miterlimit:10;}
	.st15{fill:#EB751B;stroke:#4E4D4D;stroke-width:7;stroke-miterlimit:10;}
</style>
<g id="background" class="st0">
	<rect x="1" y="-1" class="st1" width="846" height="1195"/>
</g>
<g id="Shadow_00000014599182220886497210000014135309126344849039_" class="st0">
	<path class="st2" d="M481.6,878.18c-5.45,0-9.59-0.15-13.18-0.47h-2.66c-17.34,0-31.82-12.99-33.91-29.97
		c-1.82-8.99-1.35-19.56-0.67-35.06c0.13-2.91,0.27-6.03,0.4-9.36v-37.9c-13.08,1.41-27.15,2.13-42.08,2.13c-1.18,0-2.41,0-3.7-0.01
		c-7.09,0.19-14.51,0.28-22.04,0.28c-28.84,0-60.5-1.32-96.79-4.04c-22.33-1.29-41.83-2.82-58.3-4.57v84.32
		c0,10.24-4.53,19.85-12.43,26.37c-6.11,5.04-13.83,7.81-21.75,7.81H121.8c-18.84,0-34.17-15.33-34.18-34.17l0-36.63
		c-0.23-14.59-0.7-28.91-1.21-42.89c-0.95,1.23-1.92,2.41-2.93,3.54C72.9,779.41,62.2,781.9,55.08,781.9
		c-3.47,0-6.88-0.59-10.11-1.76c-5.75-2.07-19.34-9.22-21.45-30.96c-0.95-9.73,0.62-20.62,4.54-31.5
		c4.23-11.75,11.89-24.53,22.49-32.18c8.21-25.78,21.81-52.31,32.38-70.94c5.57-9.82,11.71-19.91,17.28-28.42
		c2.21-3.38,4.24-6.36,5.87-8.62c1.08-1.51,2.61-3.64,4.74-5.7c30.66-35.52,76.29-59.25,135.66-70.52
		c25.69-5.21,53.15-7.86,81.64-7.86c0.41,0,0.81,0,1.22,0c9.49-97.62,91.91-174.17,191.84-174.17c24.24,0,48.35,4.62,70.79,13.47
		c24.66-36.22,54.23-58.12,86.32-63.7c11.35-1.97,22.7-2.98,33.75-2.98c12.02,0,23.66,1.19,34.61,3.54
		c26.94,5.78,49.34,18.66,61.47,35.34c8.53,11.72,11.77,25.42,9.15,38.58c-2.55,12.76-10.47,23.77-22.31,30.99
		c-11.86,7.24-27.59,10.91-46.75,10.91c-7.33,0-15.13-0.54-23.21-1.59c-8.84-1.16-17.45-2.77-25.78-4.32
		c-11.17-2.08-21.71-4.05-32.08-4.85c-0.8-0.06-1.64-0.09-2.5-0.09c-2.08,0-4.61,0.18-7.63,0.69
		c36.19,35.83,56.93,84.72,56.93,137.03c0,48.49-18.03,94.85-50.77,130.54c-29.34,31.98-68.18,52.94-110.53,59.9v140.79
		c0,3.45-0.52,6.87-1.54,10.15c-4.47,14.37-17.59,24.03-32.64,24.03h-0.29c-8.27,0.02-15.56,0.16-21.99,0.28
		C490.67,878.1,485.93,878.18,481.6,878.18z"/>
</g>
<g id="Layer_10">
	<path class="st3" d="M331.64,515.08c-47.49,0-96.26,7.67-139.8,27.25c-22.39,10.07-43.61,23.48-58.35,41.67
		c0,0-54.04,87.22-58.49,111c-0.69,3.69-9.84,24.06-5.5,25.5c4.23,1.4,14.99-20.02,21-32c11.21-22.33,18.47-41.6,23-55l0.09-0.22
		c-1.54,19.17,0.24,38.65,0.24,57.89c0,15.81,0,31.63,0,47.44c0,30.49,0,60.98,0,91.47c0,4.13,0,8.27,0,12.4
		c0,6.35,5.15,11.5,11.5,11.5h52.68c6.35,0,11.5-5.15,11.5-11.5V732.39c56.08,8.81,164.08,11.43,203.52,11.43
		c25.11,0,46.54-2.07,64.75-5.92v104.58c0,6.35,5.15,11.5,11.5,11.5h52.68c6.35,0,11.5-5.15,11.5-11.5V693.1
		c11.38-17.27,15.98-38.1,15.98-61.13C549.45,567.41,451.93,515.08,331.64,515.08z"/>
</g>
<g id="toes">
	<path class="st4" d="M493.13,853.42h-18.88c-1.66,0-3-1.35-3-3v-14.15c0-6.87,5.57-12.45,12.45-12.45h0
		c6.87,0,12.45,5.57,12.45,12.45v14.15C496.13,852.07,494.79,853.42,493.13,853.42z"/>
	<path class="st4" d="M518.7,853.42h-18.88c-1.66,0-3-1.35-3-3v-14.15c0-6.87,5.57-12.45,12.45-12.45h0
		c6.87,0,12.45,5.57,12.45,12.45v14.15C521.7,852.07,520.35,853.42,518.7,853.42z"/>
	<g>
		<path class="st5" d="M535.05,598.35c0.51,3.06,0.83,6.17,0.94,9.3c0.87,24.77-3.1,47.33-14.18,66.29l5.61,176.64
			c0.01,0.2-0.01,0.39-0.01,0.59c1.25-1.82,1.99-4.01,1.99-6.37V695.42c11.73-17.27,16.48-38.1,16.48-61.13
			C545.88,621.75,542.07,609.68,535.05,598.35z"/>
		<path class="st5" d="M464,704.09c-18.26,4.76-48.97,14.84-74.34,15.69c-39.84,1.33-156.84,12.91-213.81,5.33l7.61,116.08
			c0.08,2.37-0.48,4.6-1.5,6.52c2-2.07,3.24-4.87,3.24-7.96l4.25-110.09c56.68,8.81,165.84,13.11,205.7,13.11
			c23.01,0,50.75-6.91,68-10.09L464,704.09z"/>
	</g>
	<path class="st4" d="M147.75,851.61h-18.88c-1.66,0-3-1.35-3-3v-14.15c0-6.87,5.57-12.45,12.45-12.45h0
		c6.87,0,12.45,5.57,12.45,12.45v14.15C150.76,850.26,149.41,851.61,147.75,851.61z"/>
	<path class="st4" d="M173.32,851.61h-18.88c-1.66,0-3-1.35-3-3v-14.15c0-6.87,5.57-12.45,12.45-12.45h0
		c6.87,0,12.45,5.57,12.45,12.45v14.15C176.32,850.26,174.98,851.61,173.32,851.61z"/>
</g>
<g id="Layer_8">
</g>
<g id="Layer_6">
	<g>
		<g>
			<g>
				<path class="st6" d="M793.3,317.24c-9.23-12.68-27.98-22.23-47.89-26.51c-19.91-4.27-40.78-3.69-59.71-0.4
					c-46.42,8.08-76.58,58.33-90.79,88.06l-1.61,1.59l0.26,0.35c20.76-13.7,52.52-31.37,78.84-29.34
					c19.83,1.53,39.28,6.71,59.06,9.3c19.78,2.59,41.52,2.16,55.2-6.19C800.67,345.57,802.52,329.93,793.3,317.24z"/>
				<g>
					<path class="st7" d="M797.18,314.97c-11.02-15.02-29.58-23.46-47.23-27.8c-21.23-5.22-43.56-4.93-65.01-1.24
						c-15.86,2.72-30.23,10.39-42.66,20.41c-12.07,9.74-22.2,21.76-30.99,34.48c-7.54,10.91-14.09,22.5-19.84,34.44
						c-0.06,0.12-0.18,0.3-0.21,0.44c-0.16,0.63,0.3-0.34,0.47-0.45c-0.17,0.11-0.31,0.3-0.45,0.44c-0.38,0.38-0.76,0.75-1.14,1.13
						c-1.29,1.27-1.87,3.89-0.7,5.45c0.09,0.12,0.18,0.24,0.26,0.35c1.39,1.86,3.94,3.07,6.16,1.61c6.25-4.12,12.64-8.05,19.2-11.67
						c3.56-1.96,7.16-3.83,10.82-5.59c1.85-0.89,3.72-1.75,5.61-2.58c0.44-0.19,0.88-0.38,1.32-0.57c0.11-0.05,0.9-0.38,0.41-0.17
						c-0.45,0.19,0.18-0.07,0.22-0.09c1.01-0.42,2.03-0.83,3.05-1.23c7.43-2.89,15.13-5.22,23.02-6.39
						c0.19-0.03,0.38-0.05,0.57-0.08c0.69-0.1-0.75,0.08-0.06,0.01c0.44-0.05,0.88-0.11,1.32-0.15c1-0.11,2-0.19,3-0.25
						c1.84-0.11,3.69-0.15,5.54-0.1c2.14,0.06,4.28,0.27,6.4,0.48c1.13,0.11,2.25,0.24,3.37,0.37c0.56,0.07,1.12,0.13,1.69,0.21
						c0.32,0.04,0.64,0.08,0.96,0.12c0.89,0.12-1.06-0.15,0.49,0.06c19.07,2.64,37.81,7.51,57.03,9.08
						c8.44,0.69,16.99,0.78,25.41-0.3c7.98-1.03,15.95-2.9,22.97-6.96c6.64-3.83,12.01-9.81,14.21-17.24
						c2.14-7.22,0.91-14.93-2.39-21.59C799.2,317.99,798.24,316.44,797.18,314.97c-1.37-1.91-3.98-3.02-6.16-1.61
						c-1.89,1.22-3.08,4.11-1.61,6.16c1.06,1.47,2.02,3.01,2.82,4.64c0.18,0.37,0.34,0.74,0.52,1.11c0.22,0.46-0.1-0.25-0.11-0.28
						c0.08,0.21,0.17,0.42,0.25,0.64c0.3,0.79,0.57,1.59,0.8,2.41c0.21,0.74,0.39,1.5,0.53,2.26c0.09,0.47,0.3,1.15,0.07,0.26
						c0.11,0.4,0.1,0.87,0.13,1.29c0.05,0.75,0.08,1.49,0.06,2.24c-0.01,0.42-0.03,0.85-0.06,1.27c-0.01,0.16-0.03,0.32-0.04,0.47
						c-0.01,0.11-0.02,0.21-0.03,0.32c-0.04,0.35-0.02,0.21,0.06-0.41c0.13,0.56-0.29,1.61-0.43,2.17c-0.19,0.77-0.43,1.53-0.7,2.28
						c-0.06,0.15-0.11,0.3-0.17,0.45c-0.29,0.78,0.07-0.1,0.08-0.19c-0.04,0.33-0.33,0.72-0.48,1.02c-0.37,0.73-0.77,1.44-1.22,2.12
						c-0.24,0.37-0.5,0.73-0.75,1.1c-0.49,0.7,0.43-0.5-0.12,0.16c-0.6,0.71-1.21,1.39-1.87,2.04c-0.6,0.59-1.23,1.13-1.87,1.67
						c-0.06,0.05-0.54,0.43-0.12,0.1c0.45-0.35-0.18,0.13-0.29,0.21c-0.41,0.3-0.83,0.58-1.25,0.86c-1.44,0.94-2.95,1.76-4.51,2.49
						c-0.43,0.2-0.87,0.39-1.3,0.58c0.73-0.32,0.09-0.04-0.26,0.09c-0.91,0.36-1.84,0.69-2.77,0.99c-3.57,1.16-7.24,1.93-10.95,2.49
						c-0.88,0.13-0.18,0.03,0,0.01c-0.27,0.04-0.54,0.07-0.81,0.1c-0.47,0.06-0.95,0.11-1.42,0.16c-1.03,0.11-2.06,0.2-3.09,0.28
						c-2.03,0.15-4.06,0.24-6.1,0.27c-4.23,0.08-8.47-0.06-12.69-0.37c-2.08-0.15-4.16-0.34-6.24-0.57
						c-1.07-0.12-2.13-0.25-3.2-0.38c-0.17-0.02-1.25-0.17-0.67-0.09c-0.72-0.1-1.45-0.2-2.17-0.31c-4.74-0.69-9.45-1.51-14.16-2.37
						c-9.33-1.7-18.64-3.56-28.03-4.92c-8.46-1.22-16.99-2.36-25.53-1.45c-8.01,0.85-15.83,2.81-23.41,5.51
						c-14.94,5.32-29.01,12.96-42.35,21.47c-1.43,0.91-2.85,1.83-4.26,2.77c2.05,0.54,4.1,1.08,6.16,1.61
						c-0.09-0.12-0.18-0.24-0.26-0.35c-0.23,1.82-0.47,3.64-0.7,5.45c0.93-0.92,1.92-1.76,2.52-2.94c0.65-1.26,1.23-2.55,1.86-3.81
						c1.32-2.65,2.68-5.29,4.09-7.89c3.2-5.95,6.62-11.78,10.29-17.45c1.95-3.02,3.97-5.99,6.07-8.9c1.09-1.51,2.19-3.01,3.32-4.49
						c0.13-0.18,0.27-0.35,0.4-0.52c-0.08,0.11-0.59,0.76-0.1,0.12c0.27-0.35,0.54-0.7,0.82-1.04c0.58-0.74,1.17-1.48,1.77-2.21
						c4.73-5.82,9.84-11.34,15.38-16.4c1.41-1.29,2.85-2.54,4.31-3.76c0.69-0.57,1.38-1.14,2.09-1.7c0.18-0.14,0.35-0.28,0.53-0.42
						c0.12-0.09,0.69-0.54,0.21-0.16c-0.48,0.38,0.09-0.07,0.21-0.16c0.22-0.17,0.45-0.34,0.67-0.51c3.04-2.28,6.19-4.4,9.46-6.33
						c3.22-1.9,6.56-3.56,9.98-5.08c0.58-0.26-0.74,0.3-0.15,0.06c0.21-0.08,0.41-0.17,0.62-0.26c0.41-0.17,0.83-0.33,1.25-0.5
						c0.89-0.34,1.78-0.67,2.68-0.99c1.81-0.63,3.63-1.19,5.48-1.69c4.17-1.12,8.44-1.82,12.71-2.42c0.1-0.01,1.04-0.14,0.54-0.07
						c-0.5,0.07,0.44-0.05,0.54-0.07c0.61-0.08,1.22-0.15,1.83-0.22c1.3-0.15,2.6-0.29,3.91-0.41c2.63-0.25,5.27-0.44,7.91-0.56
						c5.27-0.25,10.54-0.26,15.81,0.01c2.69,0.14,5.38,0.35,8.06,0.63c2.85,0.3,4.19,0.49,7.06,0.97c4.99,0.84,9.92,1.97,14.76,3.43
						c2.23,0.68,4.45,1.42,6.63,2.24c1.05,0.39,2.09,0.8,3.12,1.22c0.11,0.04,0.91,0.38,0.42,0.17c-0.48-0.21,0.31,0.14,0.42,0.18
						c0.57,0.25,1.13,0.5,1.7,0.76c4.1,1.88,8.08,4.04,11.83,6.55c0.84,0.56,1.67,1.14,2.49,1.74c0.22,0.16,1.33,1.02,0.58,0.42
						c0.43,0.34,0.87,0.69,1.29,1.04c1.56,1.29,3.06,2.66,4.46,4.12c0.64,0.66,1.26,1.34,1.85,2.04c0.29,0.34,0.58,0.69,0.86,1.04
						c0.09,0.12,0.53,0.7,0.16,0.2c-0.42-0.58,0.22,0.31,0.25,0.34c1.39,1.89,3.97,3.03,6.16,1.61
						C797.44,319.92,798.67,317,797.18,314.97z"/>
				</g>
			</g>
		</g>
		<g>
			<path class="st8" d="M790.66,317.96c-0.92,4.49-3.58,8.77-8.13,12.35c-11.44,8.98-31.69,12.06-50.59,12.25
				c-18.9,0.2-37.92-1.9-56.7-0.78c-8.59,0.52-17.41,3.16-25.99,6.99c2.13,2.19,3.88,4.69,5.17,7.39
				c8.12-2.55,16.31-4.04,24.13-3.82c18.87,0.54,37.63,4.31,56.52,5.78c18.89,1.48,39.43,0.21,51.76-7.7
				C799.37,342.41,800.07,328.72,790.66,317.96z"/>
		</g>
		<g>
			<g>
				<g>
					<path class="st7" d="M797.18,314.97c-11.02-15.02-29.58-23.46-47.23-27.8c-21.23-5.22-43.56-4.93-65.01-1.24
						c-15.86,2.72-30.23,10.39-42.66,20.41c-12.07,9.74-22.2,21.76-30.99,34.48c-7.54,10.91-14.09,22.5-19.84,34.44
						c-0.06,0.12-0.18,0.3-0.21,0.44c-0.16,0.63,0.3-0.34,0.47-0.45c-0.17,0.11-0.31,0.3-0.45,0.44c-0.38,0.38-0.76,0.75-1.14,1.13
						c-1.29,1.27-1.87,3.89-0.7,5.45c0.09,0.12,0.18,0.24,0.26,0.35c1.39,1.86,3.94,3.07,6.16,1.61c6.25-4.12,12.64-8.05,19.2-11.67
						c3.56-1.96,7.16-3.83,10.82-5.59c1.85-0.89,3.72-1.75,5.61-2.58c0.44-0.19,0.88-0.38,1.32-0.57c0.11-0.05,0.9-0.38,0.41-0.17
						c-0.45,0.19,0.18-0.07,0.22-0.09c1.01-0.42,2.03-0.83,3.05-1.23c7.43-2.89,15.13-5.22,23.02-6.39
						c0.19-0.03,0.38-0.05,0.57-0.08c0.69-0.1-0.75,0.08-0.06,0.01c0.44-0.05,0.88-0.11,1.32-0.15c1-0.11,2-0.19,3-0.25
						c1.84-0.11,3.69-0.15,5.54-0.1c2.14,0.06,4.28,0.27,6.4,0.48c1.13,0.11,2.25,0.24,3.37,0.37c0.56,0.07,1.12,0.13,1.69,0.21
						c0.32,0.04,0.64,0.08,0.96,0.12c0.89,0.12-1.06-0.15,0.49,0.06c19.07,2.64,37.81,7.51,57.03,9.08
						c8.44,0.69,16.99,0.78,25.41-0.3c7.98-1.03,15.95-2.9,22.97-6.96c6.64-3.83,12.01-9.81,14.21-17.24
						c2.14-7.22,0.91-14.93-2.39-21.59C799.2,317.99,798.24,316.44,797.18,314.97c-1.37-1.91-3.98-3.02-6.16-1.61
						c-1.89,1.22-3.08,4.11-1.61,6.16c1.06,1.47,2.02,3.01,2.82,4.64c0.18,0.37,0.34,0.74,0.52,1.11c0.22,0.46-0.1-0.25-0.11-0.28
						c0.08,0.21,0.17,0.42,0.25,0.64c0.3,0.79,0.57,1.59,0.8,2.41c0.21,0.74,0.39,1.5,0.53,2.26c0.09,0.47,0.3,1.15,0.07,0.26
						c0.11,0.4,0.1,0.87,0.13,1.29c0.05,0.75,0.08,1.49,0.06,2.24c-0.01,0.42-0.03,0.85-0.06,1.27c-0.01,0.16-0.03,0.32-0.04,0.47
						c-0.01,0.11-0.02,0.21-0.03,0.32c-0.04,0.35-0.02,0.21,0.06-0.41c0.13,0.56-0.29,1.61-0.43,2.17c-0.19,0.77-0.43,1.53-0.7,2.28
						c-0.06,0.15-0.11,0.3-0.17,0.45c-0.29,0.78,0.07-0.1,0.08-0.19c-0.04,0.33-0.33,0.72-0.48,1.02c-0.37,0.73-0.77,1.44-1.22,2.12
						c-0.24,0.37-0.5,0.73-0.75,1.1c-0.49,0.7,0.43-0.5-0.12,0.16c-0.6,0.71-1.21,1.39-1.87,2.04c-0.6,0.59-1.23,1.13-1.87,1.67
						c-0.06,0.05-0.54,0.43-0.12,0.1c0.45-0.35-0.18,0.13-0.29,0.21c-0.41,0.3-0.83,0.58-1.25,0.86c-1.44,0.94-2.95,1.76-4.51,2.49
						c-0.43,0.2-0.87,0.39-1.3,0.58c0.73-0.32,0.09-0.04-0.26,0.09c-0.91,0.36-1.84,0.69-2.77,0.99c-3.57,1.16-7.24,1.93-10.95,2.49
						c-0.88,0.13-0.18,0.03,0,0.01c-0.27,0.04-0.54,0.07-0.81,0.1c-0.47,0.06-0.95,0.11-1.42,0.16c-1.03,0.11-2.06,0.2-3.09,0.28
						c-2.03,0.15-4.06,0.24-6.1,0.27c-4.23,0.08-8.47-0.06-12.69-0.37c-2.08-0.15-4.16-0.34-6.24-0.57
						c-1.07-0.12-2.13-0.25-3.2-0.38c-0.17-0.02-1.25-0.17-0.67-0.09c-0.72-0.1-1.45-0.2-2.17-0.31c-4.74-0.69-9.45-1.51-14.16-2.37
						c-9.33-1.7-18.64-3.56-28.03-4.92c-8.46-1.22-16.99-2.36-25.53-1.45c-8.01,0.85-15.83,2.81-23.41,5.51
						c-14.94,5.32-29.01,12.96-42.35,21.47c-1.43,0.91-2.85,1.83-4.26,2.77c2.05,0.54,4.1,1.08,6.16,1.61
						c-0.09-0.12-0.18-0.24-0.26-0.35c-0.23,1.82-0.47,3.64-0.7,5.45c0.93-0.92,1.92-1.76,2.52-2.94c0.65-1.26,1.23-2.55,1.86-3.81
						c1.32-2.65,2.68-5.29,4.09-7.89c3.2-5.95,6.62-11.78,10.29-17.45c1.95-3.02,3.97-5.99,6.07-8.9c1.09-1.51,2.19-3.01,3.32-4.49
						c0.13-0.18,0.27-0.35,0.4-0.52c-0.08,0.11-0.59,0.76-0.1,0.12c0.27-0.35,0.54-0.7,0.82-1.04c0.58-0.74,1.17-1.48,1.77-2.21
						c4.73-5.82,9.84-11.34,15.38-16.4c1.41-1.29,2.85-2.54,4.31-3.76c0.69-0.57,1.38-1.14,2.09-1.7c0.18-0.14,0.35-0.28,0.53-0.42
						c0.12-0.09,0.69-0.54,0.21-0.16c-0.48,0.38,0.09-0.07,0.21-0.16c0.22-0.17,0.45-0.34,0.67-0.51c3.04-2.28,6.19-4.4,9.46-6.33
						c3.22-1.9,6.56-3.56,9.98-5.08c0.58-0.26-0.74,0.3-0.15,0.06c0.21-0.08,0.41-0.17,0.62-0.26c0.41-0.17,0.83-0.33,1.25-0.5
						c0.89-0.34,1.78-0.67,2.68-0.99c1.81-0.63,3.63-1.19,5.48-1.69c4.17-1.12,8.44-1.82,12.71-2.42c0.1-0.01,1.04-0.14,0.54-0.07
						c-0.5,0.07,0.44-0.05,0.54-0.07c0.61-0.08,1.22-0.15,1.83-0.22c1.3-0.15,2.6-0.29,3.91-0.41c2.63-0.25,5.27-0.44,7.91-0.56
						c5.27-0.25,10.54-0.26,15.81,0.01c2.69,0.14,5.38,0.35,8.06,0.63c2.85,0.3,4.19,0.49,7.06,0.97c4.99,0.84,9.92,1.97,14.76,3.43
						c2.23,0.68,4.45,1.42,6.63,2.24c1.05,0.39,2.09,0.8,3.12,1.22c0.11,0.04,0.91,0.38,0.42,0.17c-0.48-0.21,0.31,0.14,0.42,0.18
						c0.57,0.25,1.13,0.5,1.7,0.76c4.1,1.88,8.08,4.04,11.83,6.55c0.84,0.56,1.67,1.14,2.49,1.74c0.22,0.16,1.33,1.02,0.58,0.42
						c0.43,0.34,0.87,0.69,1.29,1.04c1.56,1.29,3.06,2.66,4.46,4.12c0.64,0.66,1.26,1.34,1.85,2.04c0.29,0.34,0.58,0.69,0.86,1.04
						c0.09,0.12,0.53,0.7,0.16,0.2c-0.42-0.58,0.22,0.31,0.25,0.34c1.39,1.89,3.97,3.03,6.16,1.61
						C797.44,319.92,798.67,317,797.18,314.97z"/>
				</g>
			</g>
		</g>
	</g>
	<path class="st9" d="M331.64,515.08c-70.73,1.43-153.5,15.06-201.37,71.97c1.58-4.38-56.77,80.45-60.77,133.45
		c16.53-11,35.18-51.43,41-67c-1.49,66.86,4.49,120.73,3.33,188.98c0,6.35,5.15,11.5,11.51,11.5h52.68c6.35,0,11.5-5.15,11.5-11.5
		V732.39c89.81,9.75,193.74,17.7,268.27,5.51c5.36,129.51-25.59,116.29,64.18,116.08c6.35,0,11.5-5.15,11.5-11.5V693.1
		C592.99,585.97,481.03,517.73,331.64,515.08z"/>
</g>
<g id="Layer_5">
	<line class="st10" x1="448.94" y1="468.52" x2="416.91" y2="478.92"/>
	<g>
		<path class="st11" d="M683.54,572.31c-12.42,32.88-34.72,60.9-63.27,80.43l-96.06-132.2L683.54,572.31z"/>
		<path class="st12" d="M620.28,652.74c-27.29,18.69-60.29,29.61-95.85,29.61h-0.21V520.54L620.28,652.74z"/>
		<path class="st11" d="M524.22,520.54l-158.94,51.64c-7.06-18.71-10.92-38.99-10.92-60.17c0-15.48,2.06-30.48,5.93-44.73
			L524.22,520.54z"/>
		<path class="st12" d="M365.28,572.19l158.94-51.64l-95.91,132.02C399.86,633.01,377.65,605.01,365.28,572.19z"/>
		<path class="st11" d="M524.22,341.68v178.87l-104-143.15C448.96,355.05,485.03,341.73,524.22,341.68z"/>
		<path class="st12" d="M420.22,377.39l104,143.15l-163.93-53.26C370.09,431.12,391.48,399.75,420.22,377.39z"/>
		<path class="st11" d="M688.55,467.15l-164.33,53.39l104.15-143.36C657.22,399.52,678.7,430.94,688.55,467.15z"/>
		<path class="st12" d="M628.38,377.18L524.22,520.54V341.68h0.21C563.58,341.68,599.64,354.92,628.38,377.18z"/>
		<path class="st11" d="M524.22,520.54v161.81c-35.6-0.04-68.62-11.03-95.91-29.8L524.22,520.54z"/>
		<path class="st12" d="M694.51,512.02c0,21.23-3.88,41.55-10.97,60.3l-159.32-51.77l164.33-53.39
			C692.43,481.45,694.51,496.49,694.51,512.02z"/>
	</g>
	<line class="st10" x1="448.94" y1="596.11" x2="411.91" y2="584.09"/>
</g>
<g id="Layer_9">
	<g>
		<ellipse class="st13" cx="525.87" cy="513.65" rx="126.11" ry="99.82"/>
		<path class="st14" d="M597.68,556.28H454.27c-8.63,0-15.69-7.06-15.69-15.69v-57.99c0-8.63,7.06-15.69,15.69-15.69h143.41
			c8.63,0,15.69,7.06,15.69,15.69v57.99C613.37,549.23,606.31,556.28,597.68,556.28z"/>
		<g>
			<circle class="st3" cx="503.3" cy="520.13" r="7.69"/>
			<circle class="st3" cx="457.16" cy="520.13" r="7.69"/>
			<circle class="st3" cx="470.83" cy="504.75" r="7.69"/>
			<circle class="st3" cx="489.63" cy="504.75" r="7.69"/>
			<circle class="st3" cx="595.58" cy="520.13" r="7.69"/>
			<circle class="st3" cx="549.44" cy="520.13" r="7.69"/>
			<circle class="st3" cx="563.11" cy="504.75" r="7.69"/>
			<circle class="st3" cx="581.91" cy="504.75" r="7.69"/>
		</g>
		<ellipse class="st9" cx="524.7" cy="511.25" rx="170.07" ry="170.34"/>
	</g>
</g>
<g id="Layer_7">
	
		<ellipse transform="matrix(0.3386 -0.9409 0.9409 0.3386 -642.1589 544.8381)" class="st15" cx="66.46" cy="729.18" rx="30.36" ry="14.38"/>
</g>
</svg>
