<?xml version="1.0" encoding="UTF-8"?>
<svg id="Elas" xmlns="http://www.w3.org/2000/svg" viewBox="0 0 819.75 685.52">
  <defs>
    <style>
      .cls-1 {
        stroke-width: 12px;
      }

      .cls-1, .cls-2 {
        fill: #951b81;
      }

      .cls-1, .cls-2, .cls-3, .cls-4, .cls-5, .cls-6, .cls-7, .cls-8 {
        stroke-miterlimit: 10;
      }

      .cls-1, .cls-2, .cls-4, .cls-5, .cls-6, .cls-7, .cls-8 {
        stroke: #4e4d4d;
      }

      .cls-2, .cls-6, .cls-7 {
        stroke-width: 3px;
      }

      .cls-9 {
        fill: #cdcccc;
      }

      .cls-9, .cls-10, .cls-11, .cls-12 {
        stroke-width: 0px;
      }

      .cls-3 {
        fill: #010101;
        stroke: #010101;
        stroke-width: 7.84px;
      }

      .cls-10, .cls-4 {
        fill: #fff;
      }

      .cls-4, .cls-5, .cls-8 {
        stroke-width: 11px;
      }

      .cls-11, .cls-7 {
        fill: #ffcc07;
      }

      .cls-5 {
        fill: #e670a8;
      }

      .cls-6 {
        fill: #e571a9;
      }

      .cls-12 {
        fill: #4e4d4d;
      }

      .cls-8 {
        fill: none;
      }
    </style>
  </defs>
  <g id="Body">
    <g id="Tail">
      <path class="cls-1" d="m188.38,345.01c-.05.07-.12.11-.2.13-14.03,2.85-29.91,1.27-41.95,7.71-15.13,8.09-18.19,25.69-32.53,34.67-10.98,6.87-24.84,4.95-32.1,4.57-10.92-.57-26.38-1.38-34.55-11.05-8.61-10.19-3.05-23.07-2.47-24.37,2.49-5.49,6.54-9.19,9.18-11.23.15-.12.36-.08.47.08.81,1.24,2.03,2.82,3.82,4.45,3.35,3.05,6.95,4.91,8.31,5.23,21.29,4.92,37.49-15.23,46.85-27.21,3.53-4.51,7.2-9.11,12.48-12.33,9.98-6.09,24.31-6.07,35.7-1.87,6.96,2.56,12.98,6.5,18.13,11.01,1.19,1.05,13.84,13.07,12.52,14.18-.35.29-1.2,2.35-2.73,4.66-.38.57-.7,1.03-.93,1.36Z"/>
      <path class="cls-5" d="m194.58,357.72c-.48.69-1.16,1.21-1.96,1.48-18.22,6.1-37.63,6.48-54.15,17.72-21.15,14.39-29.18,40.94-49.53,56.52-6.36,4.87-20.59,23.64-40.34,22.41-10.82-.67-24.27-7.5-32.64-17.07-4.61-5.27-8.31-13.99-9.81-20.83-1.75-7.91.21-16.1,4.06-23.09,1.72-3.13,10.3-17.57,14.77-10.77.55.84,1.2,1.71,1.97,2.57,3.54,3.99,7.69,6.18,9.34,6.43,25.94,3.9,51.29-28.51,66.01-47.74,5.55-7.25,11.3-14.64,18.78-20.25,14.13-10.6,32.36-12.84,45.86-8.43,8.25,2.69,14.99,7.57,20.49,13.44,1.27,1.36,14.55,17.16,12.6,19.02-.8.76-2.48,4.21-4.48,7.19-.35.52-.67.99-.96,1.4Z"/>
      <path class="cls-1" d="m205.75,369.08c-.73,1.87-1.65,3.66-2.76,5.33-12.54,18.96-39,19.34-52.3,37.65-19.63,27.02-19.89,65.54-38.19,93.85-5.72,8.85-21.26,25.66-44.59,31.25-7.01,1.68-31.58,6.3-48.16-9.35-14.74-13.91-13.1-34.31-12.73-38.85.6-7.42,2.89-13.81,4.85-19.16,5.89-16.08,8.36-7.11,12.65-3.9.03.02.06.05.09.07,5.47,4.05,11.02,5.46,13.03,5.19,31.43-4.27,49.78-56.98,60.3-88.14,3.97-11.74,8.12-23.75,14.88-34,14.85-22.52,41.95-33.24,66.06-27.15,10.44,2.64,20.13,9.26,25.32,19.28,4.3,8.29,5.06,18.98,1.55,27.93Z"/>
    </g>
    <path id="Body-2" data-name="Body" class="cls-4" d="m171.44,675.84c1.21,1.12,2.22,2.01,2.88,2.57h59.9c7.22,0,13.08-6.16,13.08-13.75l5.67-170.9c126.21,21.51,219.45,15.54,300.18,0-2.26,24.21-.58,176.66,3.41,179.28,18.19,11.95,70.5,4.78,68.76,5.36,7.23,0,13.08-6.15,13.08-13.75v-178.54c.28-66.46,22-63.34,15.96-89.75-20.53-89.8-162.16-122.77-245.45-123.03-109.71-.35-223.02,38.75-238.94,167.84-17.9,173.25,1.48,234.67,1.48,234.67Z"/>
    <g id="Toes">
      <path class="cls-6" d="m579.1,638.5h5.3c6.87,0,12.45,5.58,12.45,12.45v20.45c0,1.66-1.35,3-3,3h-24.18c-1.66,0-3-1.35-3-3v-20.45c0-6.87,5.58-12.45,12.45-12.45Z"/>
      <path class="cls-2" d="m609.65,638.76h4.86c6.87,0,12.45,5.58,12.45,12.45v19.93c0,1.66-1.35,3-3,3h-23.74c-1.66,0-3-1.35-3-3v-19.93c0-6.87,5.58-12.45,12.45-12.45Z"/>
      <path class="cls-6" d="m190.19,638.99h4.86c6.87,0,12.45,5.58,12.45,12.45v19.93c0,1.66-1.35,3-3,3h-23.74c-1.66,0-3-1.35-3-3v-19.93c0-6.87,5.58-12.45,12.45-12.45Z"/>
      <path class="cls-2" d="m220.75,638.99h4.86c6.87,0,12.45,5.58,12.45,12.45v19.93c0,1.66-1.35,3-3,3h-23.74c-1.66,0-3-1.35-3-3v-19.93c0-6.87,5.58-12.45,12.45-12.45Z"/>
    </g>
    <g id="Sterren">
      <polygon class="cls-7" points="300.47 342.84 291.48 350.93 293.05 362.92 282.57 356.87 271.65 362.07 274.17 350.24 265.85 341.46 277.88 340.2 283.66 329.57 288.58 340.62 300.47 342.84"/>
      <polygon class="cls-6" points="252.94 378.16 246.49 378.67 243.25 384.28 240.77 378.29 234.43 376.95 239.36 372.74 238.68 366.3 244.2 369.68 250.12 367.05 248.61 373.35 252.94 378.16"/>
      <polygon class="cls-2" points="347.77 309.68 345.97 321.64 354.8 329.9 342.86 331.89 337.73 342.84 332.16 332.1 320.16 330.61 328.65 321.99 326.36 310.11 337.18 315.52 347.77 309.68"/>
      <polygon class="cls-6" points="425.91 315.45 414.94 326.54 417.86 341.87 403.92 334.86 390.24 342.38 392.6 326.95 381.23 316.27 396.63 313.74 403.27 299.63 410.43 313.49 425.91 315.45"/>
    </g>
  </g>
  <g id="Head">
    <g>
      <g>
        <path class="cls-10" d="m350.44,105c10.36-15.16,31.43-26.58,53.79-31.68,22.36-5.1,45.8-4.41,67.07-.47,52.14,9.65,86.02,69.72,101.97,105.25l1.81,1.9-.3.42c-23.32-16.37-58.99-37.5-88.55-35.07-22.28,1.83-44.12,8.02-66.34,11.11-22.22,3.1-46.64,2.58-62.01-7.4-15.73-10.21-17.82-28.91-7.45-44.07Z"/>
        <path class="cls-12" d="m354.32,107.28c.32-.47.65-.93.98-1.38.14-.18.27-.37.41-.55-.6.81-.12.16.04-.04.76-.96,1.56-1.88,2.38-2.79,1.54-1.68,3.19-3.28,4.91-4.78.84-.73,1.7-1.45,2.57-2.14.11-.09,1.11-.85.28-.22.2-.15.4-.31.6-.46.51-.38,1.02-.75,1.54-1.12,2.12-1.51,4.31-2.91,6.56-4.22s4.45-2.48,6.74-3.59c1.17-.57,2.34-1.11,3.53-1.64.31-.14.63-.27.94-.41.13-.06.79-.33.07-.03.7-.29,1.41-.58,2.11-.86,5.01-1.98,10.16-3.61,15.39-4.9,2.92-.72,5.87-1.33,8.84-1.86,1.49-.26,2.98-.5,4.47-.71.31-.04.63-.09.94-.13-.71.1.29-.03.46-.06.87-.11,1.73-.21,2.6-.3,6.12-.66,12.28-.94,18.44-.89s11.99.41,17.95,1.06c1.45.16,2.9.33,4.35.52-.73-.1.81.11,1.07.15.9.13,1.81.27,2.71.41,2.51.4,5.03.82,7.51,1.37,4.17.92,8.27,2.17,12.25,3.71.46.18.91.36,1.37.54.25.1.51.2.76.31-.12-.05-.92-.4-.17-.07,1,.44,1.99.88,2.98,1.35,1.92.91,3.81,1.89,5.66,2.92,3.68,2.06,7.23,4.35,10.65,6.83.89.65,1.77,1.31,2.65,1.98-.78-.6.09.07.4.31.52.41,1.04.83,1.55,1.25,1.63,1.33,3.24,2.71,4.81,4.12,6.45,5.79,12.36,12.17,17.82,18.9.67.82,1.33,1.65,1.99,2.49.14.18.28.35.41.53.03.03.7.91.26.34s.23.31.26.34c.2.27.41.53.61.8,1.27,1.68,2.52,3.38,3.75,5.1,2.48,3.48,4.86,7.02,7.16,10.62,4.32,6.78,8.34,13.76,12.08,20.88,3.29,6.24,6.17,12.64,9.25,18.97.61,1.26,1.75,2.25,2.72,3.26l-.7-5.45-.3.42,6.16-1.61c-14.38-10.09-29.49-19.35-45.69-26.23-8.42-3.57-17.09-6.6-26.1-8.24-4.37-.79-8.82-1.33-13.26-1.4-4.74-.07-9.47.47-14.16,1.07-11.05,1.4-21.97,3.56-32.89,5.72-5.31,1.05-10.63,2.1-15.96,3.03-2.62.46-5.25.89-7.89,1.28-.64.1-1.28.19-1.92.28-.3.04-.6.08-.9.13.82-.11.09-.01-.06,0-1.27.16-2.54.32-3.81.46-9.38,1.03-18.88,1.38-28.29.5-1.08-.1-2.16-.22-3.23-.36-.89-.11-.18-.02,0,0-.26-.04-.53-.08-.79-.11-.66-.1-1.31-.2-1.96-.32-2.11-.36-4.2-.81-6.27-1.35s-4.07-1.17-6.06-1.92c-.45-.17-.9-.36-1.36-.54-.62-.24.68.31.08.03-.22-.1-.44-.19-.66-.29-.92-.42-1.82-.86-2.71-1.34-1.8-.96-3.53-2.05-5.16-3.29.76.58-.32-.28-.52-.45-.36-.31-.72-.63-1.07-.96-.77-.72-1.5-1.47-2.19-2.27-.3-.35-.59-.7-.88-1.06.63.76-.12-.17-.31-.45-.54-.77-1.05-1.57-1.51-2.4-.43-.77-.78-1.57-1.18-2.35-.28-.56.28.77.07.17-.07-.2-.16-.4-.24-.61-.17-.46-.33-.92-.48-1.38-.26-.82-.48-1.66-.67-2.5-.1-.47-.19-.95-.27-1.43-.03-.17-.13-.87-.04-.2.1.72-.02-.22-.03-.37-.19-1.85-.19-3.71-.03-5.56.03-.32.1-1.68.03-.45.03-.44.14-.89.21-1.32.17-.94.39-1.88.65-2.81s.56-1.88.9-2.79c.16-.44.33-.87.51-1.31-.4.97.21-.44.34-.71.87-1.82,1.89-3.55,3.02-5.22,1.32-1.95.44-5.07-1.61-6.16-2.28-1.2-4.75-.47-6.16,1.61-4.69,6.93-7.53,15.48-6.93,23.9.61,8.51,4.37,16.47,10.69,22.24s15.03,9.48,23.59,11.41c9.4,2.12,19.16,2.62,28.77,2.25,21.56-.84,42.54-6.34,63.7-10.03,2.7-.47,5.4-.91,8.11-1.31.64-.09,1.27-.18,1.91-.27.94-.13.45-.06.24-.03.32-.04.64-.08.96-.12,1.44-.18,2.87-.35,4.31-.51,4.47-.47,8.9-.75,13.39-.46,1.05.07,2.1.16,3.15.28.25.03.5.06.74.09.15.02.94.11.33.04s.19.03.34.05c.31.05.62.09.94.14,2.22.35,4.42.78,6.6,1.29,4.38,1.02,8.69,2.34,12.92,3.87,2.17.78,4.31,1.62,6.44,2.5.11.05.9.38.41.17-.59-.25.64.28.59.25.5.22,1,.44,1.5.66,1.13.5,2.25,1.01,3.36,1.53,4.21,1.97,8.35,4.09,12.42,6.34,7.73,4.26,15.22,8.94,22.52,13.89,1.66,1.12,3.3,2.26,4.94,3.41,2.11,1.48,4.85.24,6.16-1.61l.3-.42c1.16-1.64.59-4.09-.7-5.45l-1.24-1.3c-.17-.18-.34-.38-.52-.55.07.06.6,1.13.45.41-.04-.2-.22-.49-.31-.68-.7-1.55-1.42-3.1-2.14-4.64-1.52-3.24-3.1-6.46-4.72-9.65-3.65-7.17-7.56-14.2-11.77-21.06-9.24-15.05-19.95-29.46-32.75-41.69-12.87-12.3-28.12-22.52-45.38-27.42-4.92-1.4-9.96-2.26-15.02-2.99-6.21-.9-12.45-1.55-18.72-1.86-12.7-.62-25.48.16-37.99,2.51-11.25,2.12-22.23,5.71-32.48,10.84-9.05,4.53-17.76,10.45-24.51,18.06-1.66,1.87-3.21,3.86-4.63,5.92-1.34,1.94-.43,5.08,1.61,6.16,2.29,1.21,4.73.46,6.16-1.61Z"/>
      </g>
      <path class="cls-9" d="m353.39,105.87c1.04,5.36,4.02,10.48,9.13,14.76,12.84,10.74,35.59,14.41,56.83,14.65,21.23.23,42.59-2.28,63.69-.93,9.65.62,19.56,3.78,29.19,8.36-2.4,2.62-4.36,5.6-5.81,8.84-9.13-3.04-18.32-4.83-27.1-4.56-21.19.65-42.27,5.15-63.49,6.91-21.22,1.76-44.28.25-58.14-9.2-14.08-9.6-14.87-25.97-4.3-38.82Z"/>
      <path class="cls-12" d="m354.32,107.28c.32-.47.65-.93.98-1.38.14-.18.27-.37.41-.55-.6.81-.12.16.04-.04.76-.96,1.56-1.88,2.38-2.79,1.54-1.68,3.19-3.28,4.91-4.78.84-.73,1.7-1.45,2.57-2.14.11-.09,1.11-.85.28-.22.2-.15.4-.31.6-.46.51-.38,1.02-.75,1.54-1.12,2.12-1.51,4.31-2.91,6.56-4.22s4.45-2.48,6.74-3.59c1.17-.57,2.34-1.11,3.53-1.64.31-.14.63-.27.94-.41.13-.06.79-.33.07-.03.7-.29,1.41-.58,2.11-.86,5.01-1.98,10.16-3.61,15.39-4.9,2.92-.72,5.87-1.33,8.84-1.86,1.49-.26,2.98-.5,4.47-.71.31-.04.63-.09.94-.13-.71.1.29-.03.46-.06.87-.11,1.73-.21,2.6-.3,6.12-.66,12.28-.94,18.44-.89s11.99.41,17.95,1.06c1.45.16,2.9.33,4.35.52-.73-.1.81.11,1.07.15.9.13,1.81.27,2.71.41,2.51.4,5.03.82,7.51,1.37,4.17.92,8.27,2.17,12.25,3.71.46.18.91.36,1.37.54.25.1.51.2.76.31-.12-.05-.92-.4-.17-.07,1,.44,1.99.88,2.98,1.35,1.92.91,3.81,1.89,5.66,2.92,3.68,2.06,7.23,4.35,10.65,6.83.89.65,1.77,1.31,2.65,1.98-.78-.6.09.07.4.31.52.41,1.04.83,1.55,1.25,1.63,1.33,3.24,2.71,4.81,4.12,6.45,5.79,12.36,12.17,17.82,18.9.67.82,1.33,1.65,1.99,2.49.14.18.28.35.41.53.03.03.7.91.26.34s.23.31.26.34c.2.27.41.53.61.8,1.27,1.68,2.52,3.38,3.75,5.1,2.48,3.48,4.86,7.02,7.16,10.62,4.32,6.78,8.34,13.76,12.08,20.88,3.29,6.24,6.17,12.64,9.25,18.97.61,1.26,1.75,2.25,2.72,3.26l-.7-5.45-.3.42,6.16-1.61c-14.38-10.09-29.49-19.35-45.69-26.23-8.42-3.57-17.09-6.6-26.1-8.24-4.37-.79-8.82-1.33-13.26-1.4-4.74-.07-9.47.47-14.16,1.07-11.05,1.4-21.97,3.56-32.89,5.72-5.31,1.05-10.63,2.1-15.96,3.03-2.62.46-5.25.89-7.89,1.28-.64.1-1.28.19-1.92.28-.3.04-.6.08-.9.13.82-.11.09-.01-.06,0-1.27.16-2.54.32-3.81.46-9.38,1.03-18.88,1.38-28.29.5-1.08-.1-2.16-.22-3.23-.36-.89-.11-.18-.02,0,0-.26-.04-.53-.08-.79-.11-.66-.1-1.31-.2-1.96-.32-2.11-.36-4.2-.81-6.27-1.35s-4.07-1.17-6.06-1.92c-.45-.17-.9-.36-1.36-.54-.62-.24.68.31.08.03-.22-.1-.44-.19-.66-.29-.92-.42-1.82-.86-2.71-1.34-1.8-.96-3.53-2.05-5.16-3.29.76.58-.32-.28-.52-.45-.36-.31-.72-.63-1.07-.96-.77-.72-1.5-1.47-2.19-2.27-.3-.35-.59-.7-.88-1.06.63.76-.12-.17-.31-.45-.54-.77-1.05-1.57-1.51-2.4-.43-.77-.78-1.57-1.18-2.35-.28-.56.28.77.07.17-.07-.2-.16-.4-.24-.61-.17-.46-.33-.92-.48-1.38-.26-.82-.48-1.66-.67-2.5-.1-.47-.19-.95-.27-1.43-.03-.17-.13-.87-.04-.2.1.72-.02-.22-.03-.37-.19-1.85-.19-3.71-.03-5.56.03-.32.1-1.68.03-.45.03-.44.14-.89.21-1.32.17-.94.39-1.88.65-2.81s.56-1.88.9-2.79c.16-.44.33-.87.51-1.31-.4.97.21-.44.34-.71.87-1.82,1.89-3.55,3.02-5.22,1.32-1.95.44-5.07-1.61-6.16-2.28-1.2-4.75-.47-6.16,1.61-4.69,6.93-7.53,15.48-6.93,23.9.61,8.51,4.37,16.47,10.69,22.24s15.03,9.48,23.59,11.41c9.4,2.12,19.16,2.62,28.77,2.25,21.56-.84,42.54-6.34,63.7-10.03,2.7-.47,5.4-.91,8.11-1.31.64-.09,1.27-.18,1.91-.27.94-.13.45-.06.24-.03.32-.04.64-.08.96-.12,1.44-.18,2.87-.35,4.31-.51,4.47-.47,8.9-.75,13.39-.46,1.05.07,2.1.16,3.15.28.25.03.5.06.74.09.15.02.94.11.33.04s.19.03.34.05c.31.05.62.09.94.14,2.22.35,4.42.78,6.6,1.29,4.38,1.02,8.69,2.34,12.92,3.87,2.17.78,4.31,1.62,6.44,2.5.11.05.9.38.41.17-.59-.25.64.28.59.25.5.22,1,.44,1.5.66,1.13.5,2.25,1.01,3.36,1.53,4.21,1.97,8.35,4.09,12.42,6.34,7.73,4.26,15.22,8.94,22.52,13.89,1.66,1.12,3.3,2.26,4.94,3.41,2.11,1.48,4.85.24,6.16-1.61l.3-.42c1.16-1.64.59-4.09-.7-5.45l-1.24-1.3c-.17-.18-.34-.38-.52-.55.07.06.6,1.13.45.41-.04-.2-.22-.49-.31-.68-.7-1.55-1.42-3.1-2.14-4.64-1.52-3.24-3.1-6.46-4.72-9.65-3.65-7.17-7.56-14.2-11.77-21.06-9.24-15.05-19.95-29.46-32.75-41.69-12.87-12.3-28.12-22.52-45.38-27.42-4.92-1.4-9.96-2.26-15.02-2.99-6.21-.9-12.45-1.55-18.72-1.86-12.7-.62-25.48.16-37.99,2.51-11.25,2.12-22.23,5.71-32.48,10.84-9.05,4.53-17.76,10.45-24.51,18.06-1.66,1.87-3.21,3.86-4.63,5.92-1.34,1.94-.43,5.08,1.61,6.16,2.29,1.21,4.73.46,6.16-1.61Z"/>
    </g>
    <g>
      <ellipse class="cls-4" cx="613.68" cy="300.5" rx="154.68" ry="155.61"/>
      <rect class="cls-3" x="499.75" y="234.61" width="193.76" height="99.5" rx="15.69" ry="15.69"/>
      <g>
        <ellipse class="cls-11" cx="571.49" cy="293.86" rx="8.52" ry="8.56"/>
        <ellipse class="cls-11" cx="520.34" cy="293.86" rx="8.52" ry="8.56"/>
        <ellipse class="cls-11" cx="535.5" cy="276.73" rx="8.52" ry="8.56"/>
        <ellipse class="cls-11" cx="556.34" cy="276.73" rx="8.52" ry="8.56"/>
        <ellipse class="cls-11" cx="673.79" cy="293.86" rx="8.52" ry="8.56"/>
        <ellipse class="cls-11" cx="622.64" cy="293.86" rx="8.52" ry="8.56"/>
        <ellipse class="cls-11" cx="637.8" cy="276.73" rx="8.52" ry="8.56"/>
        <ellipse class="cls-11" cx="658.64" cy="276.73" rx="8.52" ry="8.56"/>
      </g>
    </g>
    <g id="Layer_7" data-name="Layer 7">
      <g>
        <path class="cls-5" d="m603.37,146.52c-2.68-8.4,63.9-144.63,76.22-140.94,15.03,4.51,9.36,153.29,2.42,166.19-15.4,28.59-68.82,5.52-78.63-25.25Z"/>
        <path class="cls-2" d="m602.73,142.19s0,.08.02.11c9.81,30.77,63.24,53.84,78.63,25.25,1.14-2.11,3.25-14.83,4.23-23.01-26.44,17.57-64.92,12.25-82.88-2.35Z"/>
        <path class="cls-2" d="m620.28,102.47s.01.06.02.09c8.78,19.46,55.76,31.67,67.62,10.08,1.66-3.02,4.83-10.78.72-26.87-5.72,5.48-18.23,15.89-36.35,19.18-13.94,2.53-25.39-.22-32.01-2.47Z"/>
        <path class="cls-2" d="m638.6,62.91c.25.36.74,1.03,1.4,1.79,13.28,15.14,49.8,7.58,50.23-8.75.05-1.84-2.8-11.05-4.7-17.02-3.1,4.66-10.23,14.09-22.14,19.79-10.62,5.08-19.97,4.77-24.8,4.2Z"/>
        <path class="cls-2" d="m657.38,31.27s.01.02.02.03c7.66,6.24,28.44-2.19,29.32-14.96.07-.94-.41-2.95-1.28-5.63-2.96,2.98-8.43-.42-13.75,3.65-.1.08-7.78,13.6-14.32,16.91Z"/>
        <path class="cls-8" d="m603.77,146.51c-2.68-8.4,63.9-144.63,76.22-140.94,15.03,4.51,9.36,153.29,2.42,166.19-15.4,28.59-68.82,5.52-78.63-25.25Z"/>
      </g>
    </g>
  </g>
  <g id="Layer_8" data-name="Layer 8">
    <g>
      <polygon class="cls-2" points="266.68 221.75 248.45 238.39 251.83 262.83 230.37 250.65 208.17 261.41 213.13 237.24 196.03 219.45 220.55 216.69 232.19 194.93 242.38 217.41 266.68 221.75"/>
      <polygon class="cls-7" points="306.19 164.16 293.03 165.3 286.5 176.79 281.35 164.62 268.41 161.96 278.39 153.3 276.92 140.18 288.24 146.99 300.27 141.54 297.28 154.41 306.19 164.16"/>
      <polygon class="cls-6" points="227.23 89.39 223.73 113.82 241.87 130.56 217.56 134.78 207.25 157.2 195.72 135.38 171.21 132.5 188.4 114.8 183.56 90.6 205.71 101.48 227.23 89.39"/>
      <polygon class="cls-7" points="151.08 208.82 128.86 231.61 135.04 262.84 106.5 248.75 78.71 264.28 83.28 232.78 59.93 211.15 91.3 205.76 104.66 176.87 119.47 205.05 151.08 208.82"/>
      <polygon class="cls-6" points="353.39 204.96 341.51 215.92 343.81 231.92 329.71 224.01 315.2 231.14 318.37 215.29 307.11 203.69 323.16 201.81 330.71 187.51 337.46 202.2 353.39 204.96"/>
    </g>
  </g>
</svg>