<?xml version="1.0" encoding="UTF-8"?><svg id="a" xmlns="http://www.w3.org/2000/svg" viewBox="0 0 781.66 841.7"><defs><style>.b{fill:#e30613;stroke:#3c3c3b;stroke-width:23.66px;}.b,.c,.d,.e,.f,.g{stroke-miterlimit:10;}.c,.e{fill:none;}.c,.e,.f,.g{stroke:#4e4d4d;}.c,.f{stroke-width:32.66px;}.d{fill:#010101;stroke:#010101;stroke-width:12.43px;}.h,.f,.g{fill:#fff;}.i{fill:#ffcc07;}.j{fill:#cdcccc;}.k{fill:#4e4d4d;}.e,.g{stroke-width:28.8px;}</style></defs><path class="b" d="M75.88,254.71L14.29,397.61c-9,20.87,7.98,43.66,30.55,41.02l26.76-3.14,13.93,118.92c2.13,18.15,18.57,31.14,36.72,29.01l35.29-4.13c18.15-2.13,31.14-18.57,29.01-36.72l-13.93-118.92,26.76-3.14c22.58-2.65,33.82-28.74,20.24-46.97l-92.96-124.79c-13.58-18.23-41.8-14.92-50.8,5.95Z"/><g><path class="h" d="M556.93,173.06c-42.45-14.69-90.16-12.58-131.96,1.81-41.8,14.39-77.93,40.45-106.9,71.6-70.9,76.22-98.9,185.18-73.16,284.68,15.46,59.75,50.4,116.73,103.47,154.34,53.07,37.61,125.02,53.75,187.63,35.57,46.87-13.61,85.54-44.86,114.34-81.4,56.25-71.39,77.8-165.68,57.94-253.57-19.86-87.88-71.33-185.08-150.86-212.56"/><path class="k" d="M561.52,156.4c-60.86-20.86-129.31-9.85-184.6,21.29-49.79,28.04-91.03,71.95-118.32,121.95-26.77,49.05-41.05,104.99-40.35,160.91s16.16,111.22,45.42,158.59c14.77,23.92,33.04,46.02,54.35,64.38,23.01,19.82,48.78,35.14,77.11,46.04,26.79,10.31,55.73,15.91,84.44,16.24,14.73,.17,29.5-1.27,43.97-4.01,14.88-2.82,29.08-7.65,42.97-13.62,52.2-22.45,94.28-66.22,122.53-114.8,29.11-50.08,44.52-108.25,43.72-166.19-.75-54.71-16.54-108.96-39.95-158.13-21.82-45.84-53.57-89.87-97.55-116.65-10.46-6.37-21.7-11.52-33.26-15.54-8.54-2.98-19.28,3.39-21.25,12.07-2.2,9.64,2.92,18.07,12.07,21.25,3,1.05,5.96,2.18,8.9,3.41l-4.13-1.74c12.94,5.5,25.01,12.78,36.14,21.36l-3.5-2.7c14.83,11.52,27.84,25.16,39.35,39.96l-2.7-3.5c17.92,23.21,32.13,49.1,43.51,76.07l-1.74-4.13c13.03,31.03,23.02,63.92,27.56,97.31l-.62-4.59c3.52,26.5,3.47,53.37-.04,79.87l.62-4.59c-3.67,27.07-10.91,53.57-21.52,78.74l1.74-4.13c-10.19,23.99-23.38,46.61-39.3,67.25l2.7-3.5c-13.85,17.85-29.68,34.15-47.53,48.02l3.5-2.7c-14.62,11.28-30.49,20.83-47.5,28.06l4.13-1.74c-15.52,6.52-31.75,10.95-48.43,13.2l4.59-.62c-18.42,2.4-37.06,2.21-55.47-.2l4.59,.62c-20.91-2.83-41.34-8.5-60.78-16.7l4.13,1.74c-18.48-7.87-35.86-17.99-51.78-30.23l3.5,2.7c-17.11-13.24-32.4-28.67-45.66-45.76l2.7,3.5c-14.77-19.15-26.91-40.2-36.33-62.47l1.74,4.13c-10.07-23.98-16.91-49.21-20.39-74.98l.62,4.59c-3.52-26.64-3.44-53.65,.08-80.28l-.62,4.59c3.72-27.48,11.07-54.37,21.84-79.92l-1.74,4.13c10.36-24.41,23.77-47.44,39.94-68.46l-2.7,3.5c15.62-20.18,33.69-38.44,53.87-54.07l-3.5,2.7c17.37-13.36,36.25-24.66,56.43-33.23l-4.13,1.74c18.07-7.59,36.98-12.85,56.4-15.53l-4.59,.62c18.22-2.43,36.67-2.6,54.9-.21l-4.59-.62c12.02,1.64,23.84,4.38,35.32,8.31,8.56,2.93,19.27-3.35,21.25-12.07,2.19-9.6-2.9-18.11-12.07-21.25h0Z"/></g><g><path class="h" d="M556.93,173.06c-42.45-14.69-90.16-12.58-131.96,1.81-41.8,14.39-77.93,40.45-106.9,71.6-70.9,76.22-98.9,185.18-73.16,284.68,15.46,59.75,50.4,116.73,103.47,154.34,53.07,37.61,125.02,53.75,187.63,35.57,46.87-13.61,85.54-44.86,114.34-81.4,56.25-71.39,77.8-165.68,57.94-253.57-19.86-87.88-71.33-185.08-150.86-212.56"/><path class="k" d="M561.52,156.4c-60.86-20.86-129.31-9.85-184.6,21.29-49.79,28.04-91.03,71.95-118.32,121.95-26.77,49.05-41.05,104.99-40.35,160.91s16.16,111.22,45.42,158.59c14.77,23.92,33.04,46.02,54.35,64.38,23.01,19.82,48.78,35.14,77.11,46.04,26.79,10.31,55.73,15.91,84.44,16.24,14.73,.17,29.5-1.27,43.97-4.01,14.88-2.82,29.08-7.65,42.97-13.62,52.2-22.45,94.28-66.22,122.53-114.8,29.11-50.08,44.52-108.25,43.72-166.19-.75-54.71-16.54-108.96-39.95-158.13-21.82-45.84-53.57-89.87-97.55-116.65-10.46-6.37-21.7-11.52-33.26-15.54-8.54-2.98-19.28,3.39-21.25,12.07-2.2,9.64,2.92,18.07,12.07,21.25,3,1.05,5.96,2.18,8.9,3.41l-4.13-1.74c12.94,5.5,25.01,12.78,36.14,21.36l-3.5-2.7c14.83,11.52,27.84,25.16,39.35,39.96l-2.7-3.5c17.92,23.21,32.13,49.1,43.51,76.07l-1.74-4.13c13.03,31.03,23.02,63.92,27.56,97.31l-.62-4.59c3.52,26.5,3.47,53.37-.04,79.87l.62-4.59c-3.67,27.07-10.91,53.57-21.52,78.74l1.74-4.13c-10.19,23.99-23.38,46.61-39.3,67.25l2.7-3.5c-13.85,17.85-29.68,34.15-47.53,48.02l3.5-2.7c-14.62,11.28-30.49,20.83-47.5,28.06l4.13-1.74c-15.52,6.52-31.75,10.95-48.43,13.2l4.59-.62c-18.42,2.4-37.06,2.21-55.47-.2l4.59,.62c-20.91-2.83-41.34-8.5-60.78-16.7l4.13,1.74c-18.48-7.87-35.86-17.99-51.78-30.23l3.5,2.7c-17.11-13.24-32.4-28.67-45.66-45.76l2.7,3.5c-14.77-19.15-26.91-40.2-36.33-62.47l1.74,4.13c-10.07-23.98-16.91-49.21-20.39-74.98l.62,4.59c-3.52-26.64-3.44-53.65,.08-80.28l-.62,4.59c3.72-27.48,11.07-54.37,21.84-79.92l-1.74,4.13c10.36-24.41,23.77-47.44,39.94-68.46l-2.7,3.5c15.62-20.18,33.69-38.44,53.87-54.07l-3.5,2.7c17.37-13.36,36.25-24.66,56.43-33.23l-4.13,1.74c18.07-7.59,36.98-12.85,56.4-15.53l-4.59,.62c18.22-2.43,36.67-2.6,54.9-.21l-4.59-.62c12.02,1.64,23.84,4.38,35.32,8.31,8.56,2.93,19.27-3.35,21.25-12.07,2.19-9.6-2.9-18.11-12.07-21.25h0Z"/></g><ellipse class="g" cx="567.31" cy="775.96" rx="86.11" ry="51.35"/><g><path class="h" d="M753.69,43.03c-14.29-14.7-40.34-23.56-66.89-25.39-26.55-1.82-53.44,2.81-77.32,10.59-58.56,19.08-88.24,89.7-101.09,130.81l-1.79,2.36,.41,.41c24.31-21.58,62.12-50.35,96.55-52.61,25.94-1.7,52.06,1.37,78.13,1.05,26.07-.33,54.12-4.93,70.27-18.27,16.53-13.66,16.02-34.24,1.73-48.94Z"/><path class="k" d="M765.91,30.81c-1.85-1.89-3.84-3.63-5.92-5.26-3.17-2.48-6.33-4.91-9.76-7.01-6.01-3.68-12.52-6.51-19.08-9.05-13.05-5.06-26.96-7.57-40.86-8.85-15.36-1.41-30.63-.33-45.87,1.77-13.47,1.85-26.77,4.97-39.68,9.21-21.15,6.94-39.89,19.68-55.13,35.81-14.19,15.01-25.81,32.54-35.19,50.9-8.37,16.38-15.32,33.58-21.05,51.05-.55,1.68-1.09,3.37-1.62,5.06l1.74-4.13-1.79,2.36-1.74,4.13c-.72,2.3-.82,4.59-.31,6.89,0,1.56,.4,3.01,1.18,4.36,.7,2.14,1.89,4,3.57,5.56l.41,.41c3,3,7.91,5.25,12.22,5.06l4.59-.62c2.93-.82,5.47-2.3,7.62-4.44,6.5-5.76,13.16-11.33,20.03-16.64l-3.5,2.7c11.14-8.59,22.85-16.55,35.35-23.05,3.52-1.83,7.1-3.53,10.75-5.08l-4.13,1.74c8.23-3.47,16.83-6.17,25.7-7.37l-4.59,.62c7.82-1.02,15.83-1.02,23.71-.98,8.41,.05,16.82,.38,25.22,.73,16.14,.67,32.33,1.44,48.46,.18,8.48-.66,16.98-1.75,25.32-3.44,6.61-1.35,13.16-3.16,19.41-5.74,4.14-1.71,8.27-3.42,12.17-5.64,3.75-2.13,7.15-4.74,10.52-7.43,3.68-2.95,6.51-6.48,9.34-10.25,2.66-3.53,4.33-7.46,5.97-11.56s2.12-8.23,2.56-12.46c.44-4.26-.19-8.6-.93-12.79s-2.45-8.16-4.21-12.03c-1.84-4.06-4.51-7.49-7.24-10.99-1.01-1.3-2.09-2.53-3.23-3.72-3.04-3.15-7.87-5.06-12.22-5.06s-9.3,1.88-12.22,5.06-5.27,7.62-5.06,12.22,1.79,8.83,5.06,12.22c1.14,1.18,2.22,2.42,3.23,3.72l-2.7-3.5c1.96,2.56,3.61,5.32,4.89,8.29l-1.74-4.13c1.13,2.7,1.92,5.52,2.32,8.42l-.62-4.59c.33,2.62,.33,5.25,0,7.86l.62-4.59c-.36,2.54-1.04,4.99-2.01,7.36l1.74-4.13c-1.1,2.6-2.54,5.01-4.26,7.25l2.7-3.5c-2.09,2.67-4.53,5.01-7.21,7.09l3.5-2.7c-4.16,3.17-8.77,5.67-13.58,7.72l4.13-1.74c-9.72,4.09-20.12,6.37-30.54,7.78l4.59-.62c-31.1,4.12-62.4-.55-93.6,.25-8.23,.21-16.44,.82-24.52,2.51-6.17,1.29-12.19,3.24-18.02,5.61-13.81,5.61-26.73,12.66-39.01,21.1-12.8,8.79-24.96,18.57-36.58,28.88h24.43l-.41-.41,2.7,20.94c.52-.69,1.05-1.37,1.56-2.06,1.38-1.86,1.94-4.36,2.65-6.58s1.46-4.51,2.22-6.75c1.65-4.85,3.4-9.67,5.25-14.45,1.14-2.95,2.33-5.88,3.56-8.79l-1.74,4.13c6.31-14.95,13.72-29.49,22.67-43.03,2.65-4.01,5.45-7.93,8.39-11.74l-2.7,3.5c7.68-9.92,16.4-19.07,26.34-26.75l-3.5,2.7c7.44-5.72,15.53-10.57,24.18-14.24l-4.13,1.74c7.02-2.95,14.38-5.08,21.74-6.99,8.57-2.22,17.27-3.95,26.04-5.14l-4.59,.62c15.52-2.07,31.32-2.45,46.87-.4l-4.59-.62c11.36,1.53,22.59,4.3,33.18,8.75l-4.13-1.74c6.47,2.75,12.68,6.12,18.25,10.41l-3.5-2.7c2.09,1.63,4.07,3.37,5.92,5.26,3.08,3.15,7.83,5.06,12.22,5.06s9.3-1.88,12.22-5.06,5.27-7.62,5.06-12.22-1.78-8.86-5.06-12.22Z"/></g><path class="j" d="M742.48,28.25c-.33,7.33-2.93,14.73-8.1,21.43-12.99,16.81-38.44,26.2-62.7,30.72-24.26,4.52-49.11,5.41-73.04,11.37-10.95,2.73-21.78,8.89-32.07,16.89,3.16,3.01,5.88,6.58,8.05,10.59,9.96-5.85,20.19-10.05,30.29-11.43,24.36-3.34,49.2-1.53,73.77-3.39,24.57-1.86,50.72-8.43,65.07-23.74,14.58-15.55,12.88-37.46-1.27-52.45Z"/><ellipse class="g" cx="389.66" cy="775.96" rx="86.11" ry="51.35"/><path class="j" d="M714.98,386.09c-19.86-87.88-71.33-185.08-150.86-212.56l-.49-.47c-23.55-8.15-48.73-11.12-73.61-9.7,5.09,.66,10.18,1.48,15.25,2.48,43.32,8.61,85.57,30.79,114.82,64.83l.19,.65c54.82,63.73,50.36,173.52,23.28,259.37-27.08,85.85-93.11,156.4-177.58,189.72-28.08,11.08-58.64,18.12-89.56,18.47,50.08,27.78,111.73,38.02,166.3,22.18,46.87-13.61,85.54-44.86,114.34-81.4,56.25-71.39,77.8-165.68,57.94-253.57Z"/><g><path class="d" d="M441.1,411.96l18.25-81.22c2.93-13.05-5.97-25.53-19.79-27.73l-159.64-25.39c-5.92,8.74-11.39,17.69-16.36,26.79-17.13,31.38-28.57,64.68-34.4,98.42l181.48,28.86c13.82,2.2,27.53-6.68,30.46-19.74Z"/><circle class="i" cx="389.81" cy="372.74" r="12.81"/><circle class="i" cx="314.31" cy="358.33" r="12.81"/><circle class="i" cx="341.49" cy="337.43" r="12.81"/><circle class="i" cx="372.24" cy="343.3" r="12.81"/></g><path class="k" d="M561.52,156.4c-60.86-20.86-129.31-9.85-184.6,21.29-49.79,28.04-91.03,71.95-118.32,121.95-26.77,49.05-41.05,104.99-40.35,160.91s16.16,111.22,45.42,158.59c14.77,23.92,33.04,46.02,54.35,64.38,23.01,19.82,48.78,35.14,77.11,46.04,26.79,10.31,55.73,15.91,84.44,16.24,14.73,.17,29.5-1.27,43.97-4.01,14.88-2.82,29.08-7.65,42.97-13.62,52.2-22.45,94.28-66.22,122.53-114.8,29.11-50.08,44.52-108.25,43.72-166.19-.75-54.71-16.54-108.96-39.95-158.13-21.82-45.84-53.57-89.87-97.55-116.65-10.46-6.37-21.7-11.52-33.26-15.54-8.54-2.98-19.28,3.39-21.25,12.07-2.2,9.64,2.92,18.07,12.07,21.25,3,1.05,5.96,2.18,8.9,3.41l-4.13-1.74c12.94,5.5,25.01,12.78,36.14,21.36l-3.5-2.7c14.83,11.52,27.84,25.16,39.35,39.96l-2.7-3.5c17.92,23.21,32.13,49.1,43.51,76.07l-1.74-4.13c13.03,31.03,23.02,63.92,27.56,97.31l-.62-4.59c3.52,26.5,3.47,53.37-.04,79.87l.62-4.59c-3.67,27.07-10.91,53.57-21.52,78.74l1.74-4.13c-10.19,23.99-23.38,46.61-39.3,67.25l2.7-3.5c-13.85,17.85-29.68,34.15-47.53,48.02l3.5-2.7c-14.62,11.28-30.49,20.83-47.5,28.06l4.13-1.74c-15.52,6.52-31.75,10.95-48.43,13.2l4.59-.62c-18.42,2.4-37.06,2.21-55.47-.2l4.59,.62c-20.91-2.83-41.34-8.5-60.78-16.7l4.13,1.74c-18.48-7.87-35.86-17.99-51.78-30.23l3.5,2.7c-17.11-13.24-32.4-28.67-45.66-45.76l2.7,3.5c-14.77-19.15-26.91-40.2-36.33-62.47l1.74,4.13c-10.07-23.98-16.91-49.21-20.39-74.98l.62,4.59c-3.52-26.64-3.44-53.65,.08-80.28l-.62,4.59c3.72-27.48,11.07-54.37,21.84-79.92l-1.74,4.13c10.36-24.41,23.77-47.44,39.94-68.46l-2.7,3.5c15.62-20.18,33.69-38.44,53.87-54.07l-3.5,2.7c17.37-13.36,36.25-24.66,56.43-33.23l-4.13,1.74c18.07-7.59,36.98-12.85,56.4-15.53l-4.59,.62c18.22-2.43,36.67-2.6,54.9-.21l-4.59-.62c12.02,1.64,23.84,4.38,35.32,8.31,8.56,2.93,19.27-3.35,21.25-12.07,2.19-9.6-2.9-18.11-12.07-21.25h0Z"/><path class="j" d="M635.29,770.79c-5.26-17.06-23.48-38.42-55.92-49.92l-.19-.12c-9.61-3.41-20.08-6.04-30.58-7.89,2.12,.54,4.22,1.11,6.32,1.72,17.9,5.15,34.86,12.59,45.96,21.01l.05,.13c20.8,15.77,15.07,34.63,.69,47.39-14.38,12.76-44.59,19.57-81.24,18.31-12.18-.42-25.27-1.75-38.27-4.29,20.06,9.08,45.6,16.05,69.07,17.86,20.16,1.56,37.5-.67,50.88-4.65,26.13-7.78,38.49-22.49,33.23-39.55Z"/><ellipse class="e" cx="563.47" cy="774.04" rx="86.11" ry="51.35"/><path class="j" d="M457.64,770.79c-5.26-17.06-23.48-38.42-55.92-49.92l-.19-.12c-9.61-3.41-20.08-6.04-30.58-7.89,2.12,.54,4.22,1.11,6.32,1.72,17.9,5.15,34.86,12.59,45.96,21.01l.05,.13c20.8,15.77,15.07,34.63,.69,47.39-14.38,12.76-44.59,19.57-81.24,18.31-12.18-.42-25.27-1.75-38.27-4.29,20.06,9.08,45.6,16.05,69.07,17.86,20.16,1.56,37.5-.67,50.88-4.65,26.13-7.78,38.49-22.49,33.23-39.55Z"/><ellipse class="e" cx="385.82" cy="774.04" rx="86.11" ry="51.35"/><path class="k" d="M765.91,30.81c-1.85-1.89-3.84-3.63-5.92-5.26-3.17-2.48-6.33-4.91-9.76-7.01-6.01-3.68-12.52-6.51-19.08-9.05-13.05-5.06-26.96-7.57-40.86-8.85-15.36-1.41-30.63-.33-45.87,1.77-13.47,1.85-26.77,4.97-39.68,9.21-21.15,6.94-39.89,19.68-55.13,35.81-14.19,15.01-25.81,32.54-35.19,50.9-8.37,16.38-15.32,33.58-21.05,51.05-.55,1.68-1.09,3.37-1.62,5.06l1.74-4.13-1.79,2.36-1.74,4.13c-.72,2.3-.82,4.59-.31,6.89,0,1.56,.4,3.01,1.18,4.36,.7,2.14,1.89,4,3.57,5.56l.41,.41c3,3,7.91,5.25,12.22,5.06l4.59-.62c2.93-.82,5.47-2.3,7.62-4.44,6.5-5.76,13.16-11.33,20.03-16.64l-3.5,2.7c11.14-8.59,22.85-16.55,35.35-23.05,3.52-1.83,7.1-3.53,10.75-5.08l-4.13,1.74c8.23-3.47,16.83-6.17,25.7-7.37l-4.59,.62c7.82-1.02,15.83-1.02,23.71-.98,8.41,.05,16.82,.38,25.22,.73,16.14,.67,32.33,1.44,48.46,.18,8.48-.66,16.98-1.75,25.32-3.44,6.61-1.35,13.16-3.16,19.41-5.74,4.14-1.71,8.27-3.42,12.17-5.64,3.75-2.13,7.15-4.74,10.52-7.43,3.68-2.95,6.51-6.48,9.34-10.25,2.66-3.53,4.33-7.46,5.97-11.56s2.12-8.23,2.56-12.46c.44-4.26-.19-8.6-.93-12.79s-2.45-8.16-4.21-12.03c-1.84-4.06-4.51-7.49-7.24-10.99-1.01-1.3-2.09-2.53-3.23-3.72-3.04-3.15-7.87-5.06-12.22-5.06s-9.3,1.88-12.22,5.06-5.27,7.62-5.06,12.22,1.79,8.83,5.06,12.22c1.14,1.18,2.22,2.42,3.23,3.72l-2.7-3.5c1.96,2.56,3.61,5.32,4.89,8.29l-1.74-4.13c1.13,2.7,1.92,5.52,2.32,8.42l-.62-4.59c.33,2.62,.33,5.25,0,7.86l.62-4.59c-.36,2.54-1.04,4.99-2.01,7.36l1.74-4.13c-1.1,2.6-2.54,5.01-4.26,7.25l2.7-3.5c-2.09,2.67-4.53,5.01-7.21,7.09l3.5-2.7c-4.16,3.17-8.77,5.67-13.58,7.72l4.13-1.74c-9.72,4.09-20.12,6.37-30.54,7.78l4.59-.62c-31.1,4.12-62.4-.55-93.6,.25-8.23,.21-16.44,.82-24.52,2.51-6.17,1.29-12.19,3.24-18.02,5.61-13.81,5.61-26.73,12.66-39.01,21.1-12.8,8.79-24.96,18.57-36.58,28.88h24.43l-.41-.41,2.7,20.94c.52-.69,1.05-1.37,1.56-2.06,1.38-1.86,1.94-4.36,2.65-6.58s1.46-4.51,2.22-6.75c1.65-4.85,3.4-9.67,5.25-14.45,1.14-2.95,2.33-5.88,3.56-8.79l-1.74,4.13c6.31-14.95,13.72-29.49,22.67-43.03,2.65-4.01,5.45-7.93,8.39-11.74l-2.7,3.5c7.68-9.92,16.4-19.07,26.34-26.75l-3.5,2.7c7.44-5.72,15.53-10.57,24.18-14.24l-4.13,1.74c7.02-2.95,14.38-5.08,21.74-6.99,8.57-2.22,17.27-3.95,26.04-5.14l-4.59,.62c15.52-2.07,31.32-2.45,46.87-.4l-4.59-.62c11.36,1.53,22.59,4.3,33.18,8.75l-4.13-1.74c6.47,2.75,12.68,6.12,18.25,10.41l-3.5-2.7c2.09,1.63,4.07,3.37,5.92,5.26,3.08,3.15,7.83,5.06,12.22,5.06s9.3-1.88,12.22-5.06,5.27-7.62,5.06-12.22-1.78-8.86-5.06-12.22Z"/><ellipse class="f" cx="233.01" cy="564.99" rx="57.89" ry="98.24" transform="translate(-377.92 548.58) rotate(-66.05)"/><path class="j" d="M314.81,592.08c-.77-16.76-11.5-39.46-36.3-55.06l-.13-.14c-7.34-4.62-15.58-8.65-24.01-11.94,1.66,.82,3.31,1.67,4.94,2.55,13.93,7.49,26.6,16.98,34.12,26.51l.02,.13c14.1,17.86,5.25,34.66-9.57,44.46-14.82,9.8-41.66,11.67-72.18,5.03-10.15-2.21-20.85-5.41-31.23-9.72,14.91,11.49,34.88,21.82,54.21,27.02,16.61,4.46,31.65,4.97,43.75,3.23,23.62-3.38,37.15-15.31,36.39-32.07Z"/><ellipse class="c" cx="233.01" cy="564.99" rx="57.89" ry="98.24" transform="translate(-377.92 548.58) rotate(-66.05)"/></svg>