<?xml version="1.0" encoding="utf-8"?>
<svg viewBox="0 0 1133.9 881.4" xmlns="http://www.w3.org/2000/svg">
  <defs>
    <style>.a{fill:#cdcccc;}.b{fill:#ffcc07;}.c,.e,.i,.k{fill:#fff;}.d{fill:#4e4d4d;}.e,.f,.i,.j,.k,.l{stroke:#4e4d4d;}.e,.f,.g,.h,.i,.j,.k,.l,.m,.n{stroke-miterlimit:10;}.e,.f{stroke-width:22.53px;}.f,.j,.l{fill:none;}.g{fill:#010101;stroke:#010101;stroke-width:9.01px;}.h{fill:#ffd002;stroke:#3c3c3b;stroke-width:15.86px;}.i,.j{stroke-width:21.47px;}.k,.l{stroke-width:21.95px;}.m,.n{fill:#ffd003;stroke:#ffd003;}.m{stroke-width:0.32px;}.n{stroke-width:0.33px;}</style>
  </defs>
  <ellipse class="a" cx="557.4" cy="758.2" rx="217.8" ry="44"/>
  <ellipse class="b" cx="534.5" cy="411.5" rx="8.6" ry="8.1"/>
  <ellipse class="b" cx="482.9" cy="411.5" rx="8.6" ry="8.1"/>
  <ellipse class="b" cx="498.2" cy="395.3" rx="8.6" ry="8.1"/>
  <ellipse class="b" cx="519.2" cy="395.3" rx="8.6" ry="8.1"/>
  <ellipse class="b" cx="637.8" cy="411.5" rx="8.6" ry="8.1"/>
  <ellipse class="b" cx="586.2" cy="411.5" rx="8.6" ry="8.1"/>
  <ellipse class="b" cx="601.5" cy="395.3" rx="8.6" ry="8.1"/>
  <ellipse class="b" cx="622.5" cy="395.3" rx="8.6" ry="8.1"/>
  <path class="c" d="M622.3,257.7c-33.2-11.5-70.6-9.8-103.3,1.4s-60.9,31.7-83.6,56.1C379.9,374.8,358,460,378.2,537.9c12.1,46.7,39.4,91.3,80.9,120.7s97.8,42.1,146.8,27.8c36.7-10.6,66.9-35.1,89.5-63.6,44-55.9,60.8-129.7,45.3-198.4s-55.8-144.8-118-166.3"/>
  <path class="d" d="M625.9,244.7c-47.6-16.3-101.2-7.7-144.5,16.6-38.9,22-71.2,56.3-92.5,95.5a257.1,257.1,0,0,0-31.6,125.8c.6,43.5,12.7,87,35.5,124.1a218.9,218.9,0,0,0,42.6,50.4,202.9,202.9,0,0,0,60.3,36,191.6,191.6,0,0,0,66.1,12.7,181.2,181.2,0,0,0,34.4-3.1A160.2,160.2,0,0,0,629.8,692c40.8-17.6,73.7-51.8,95.8-89.8a252.6,252.6,0,0,0,34.2-130c-.6-42.8-12.9-85.3-31.2-123.7-17.1-35.9-41.9-70.3-76.3-91.3a131.6,131.6,0,0,0-26.1-12.1c-6.6-2.4-15,2.6-16.6,9.4s2.3,14.1,9.5,16.6q3.4,1.2,6.9,2.7l-3.2-1.4a130.1,130.1,0,0,1,28.3,16.7l-2.8-2.1a175.5,175.5,0,0,1,30.8,31.3l-2.1-2.7c14,18.1,25.1,38.4,34,59.5l-1.3-3.3c10.2,24.3,18,50,21.5,76.2l-.4-3.6a237.8,237.8,0,0,1-.1,62.5l.5-3.6a243.5,243.5,0,0,1-16.8,61.6l1.3-3.3A239.6,239.6,0,0,1,685,614.3l2.1-2.8a210.2,210.2,0,0,1-37.2,37.6l2.8-2.1a169.9,169.9,0,0,1-37.2,21.9l3.2-1.3a149.8,149.8,0,0,1-37.9,10.3l3.6-.5a170.4,170.4,0,0,1-43.4-.1l3.6.4a187,187,0,0,1-47.5-13l3.2,1.3a180.2,180.2,0,0,1-40.5-23.6l2.7,2.1a201.6,201.6,0,0,1-35.7-35.8l2.1,2.7a222.2,222.2,0,0,1-28.4-48.8l1.4,3.2a230.1,230.1,0,0,1-16-58.7l.5,3.6a235.8,235.8,0,0,1,.1-62.8l-.5,3.6A242.5,242.5,0,0,1,403.1,389l-1.4,3.2a244.6,244.6,0,0,1,31.2-53.5l-2.1,2.7A234.7,234.7,0,0,1,473,299.1l-2.8,2.1a204.4,204.4,0,0,1,44.2-26l-3.2,1.4a173,173,0,0,1,44.1-12.2l-3.6.5a166.5,166.5,0,0,1,42.9-.2l-3.6-.4a139.4,139.4,0,0,1,27.7,6.5c6.7,2.3,15.1-2.7,16.6-9.5a13.8,13.8,0,0,0-9.4-16.6Z"/>
  <path class="a" d="M745.9,424.4c-15.5-68.8-55.8-144.8-118-166.3l-.4-.4a149.9,149.9,0,0,0-57.6-7.6c4,.6,8,1.2,12,2,33.9,6.7,66.9,24.1,89.8,50.7v.5c42.9,49.9,39.4,135.8,18.2,202.9S617.2,628.6,551.1,654.6c-22,8.7-45.9,14.2-70.1,14.5,39.2,21.7,87.5,29.7,130.1,17.3,36.7-10.6,67-35.1,89.5-63.6C744.6,566.9,761.5,493.1,745.9,424.4Z"/>
  <path class="d" d="M625.9,244.7c-47.6-16.3-101.2-7.7-144.5,16.6-38.9,22-71.2,56.3-92.5,95.5a257.1,257.1,0,0,0-31.6,125.8c.6,43.5,12.7,87,35.5,124.1a218.9,218.9,0,0,0,42.6,50.4,202.9,202.9,0,0,0,60.3,36,191.6,191.6,0,0,0,66.1,12.7,181.2,181.2,0,0,0,34.4-3.1A160.2,160.2,0,0,0,629.8,692c40.8-17.6,73.7-51.8,95.8-89.8a252.6,252.6,0,0,0,34.2-130c-.6-42.8-12.9-85.3-31.2-123.7-17.1-35.9-41.9-70.3-76.3-91.3a131.6,131.6,0,0,0-26.1-12.1c-6.6-2.4-15,2.6-16.6,9.4s2.3,14.1,9.5,16.6q3.4,1.2,6.9,2.7l-3.2-1.4a130.1,130.1,0,0,1,28.3,16.7l-2.8-2.1a175.5,175.5,0,0,1,30.8,31.3l-2.1-2.7c14,18.1,25.1,38.4,34,59.5l-1.3-3.3c10.2,24.3,18,50,21.5,76.2l-.4-3.6a237.8,237.8,0,0,1-.1,62.5l.5-3.6a243.5,243.5,0,0,1-16.8,61.6l1.3-3.3A239.6,239.6,0,0,1,685,614.3l2.1-2.8a210.2,210.2,0,0,1-37.2,37.6l2.8-2.1a169.9,169.9,0,0,1-37.2,21.9l3.2-1.3a149.8,149.8,0,0,1-37.9,10.3l3.6-.5a170.4,170.4,0,0,1-43.4-.1l3.6.4a187,187,0,0,1-47.5-13l3.2,1.3a180.2,180.2,0,0,1-40.5-23.6l2.7,2.1a201.6,201.6,0,0,1-35.7-35.8l2.1,2.7a222.2,222.2,0,0,1-28.4-48.8l1.4,3.2a230.1,230.1,0,0,1-16-58.7l.5,3.6a235.8,235.8,0,0,1,.1-62.8l-.5,3.6A242.5,242.5,0,0,1,403.1,389l-1.4,3.2a244.6,244.6,0,0,1,31.2-53.5l-2.1,2.7A234.7,234.7,0,0,1,473,299.1l-2.8,2.1a204.4,204.4,0,0,1,44.2-26l-3.2,1.4a173,173,0,0,1,44.1-12.2l-3.6.5a166.5,166.5,0,0,1,42.9-.2l-3.6-.4a139.4,139.4,0,0,1,27.7,6.5c6.7,2.3,15.1-2.7,16.6-9.5a13.8,13.8,0,0,0-9.4-16.6Z"/>
  <ellipse class="e" cx="630.4" cy="729.4" rx="67.4" ry="40.2"/>
  <path class="a" d="M683.6,725.3c-4.1-13.3-18.4-30-43.8-39h-.1a152.2,152.2,0,0,0-23.9-6.2l4.9,1.4c14,4,27.3,9.8,36,16.4h0c16.3,12.3,11.8,27.1.5,37.1s-34.9,15.3-63.5,14.3a199.3,199.3,0,0,1-30-3.3,169.1,169.1,0,0,0,54.1,13.9c15.8,1.2,29.3-.5,39.8-3.6C678,750.2,687.7,738.7,683.6,725.3Z"/>
  <ellipse class="f" cx="627.4" cy="727.9" rx="67.4" ry="40.2"/>
  <ellipse class="e" cx="491.4" cy="729.4" rx="67.4" ry="40.2"/>
  <path class="a" d="M544.6,725.3c-4.1-13.3-18.4-30-43.8-39h-.1a152.2,152.2,0,0,0-23.9-6.2l4.9,1.4c14,4,27.3,9.8,36,16.4h0c16.3,12.3,11.8,27.1.6,37.1s-34.9,15.3-63.6,14.3a198.1,198.1,0,0,1-29.9-3.3,167.8,167.8,0,0,0,54,13.9c15.8,1.2,29.3-.5,39.8-3.6C539,750.2,548.7,738.7,544.6,725.3Z"/>
  <ellipse class="f" cx="488.4" cy="727.9" rx="67.4" ry="40.2"/>
  <path class="c" d="M776.2,156c-11.2-11.5-31.6-18.4-52.3-19.9s-41.8,2.2-60.5,8.3c-45.8,14.9-69,70.2-79.1,102.4l-1.4,1.8.3.3c19-16.9,48.6-39.4,75.6-41.1,20.2-1.4,40.7,1,61.1.8s42.3-3.9,55-14.3S787.4,167.5,776.2,156Z"/>
  <path class="d" d="M785.8,146.4c-7.6-7.7-17.2-12.8-27.2-16.6s-21.1-5.9-31.9-7-23.8-.2-35.6,1.4a169,169,0,0,0-31.3,7.2,104.4,104.4,0,0,0-43.1,27.9c-11.1,11.7-20.2,25.4-27.6,39.8a279.9,279.9,0,0,0-16.6,40.1l-1.2,4,1.3-3.3-1.4,1.9-1.3,3.2a10,10,0,0,0-.3,5.4,13.9,13.9,0,0,0,3.7,7.8l.4.3a13.6,13.6,0,0,0,9.5,3.9,15,15,0,0,0,9.6-3.9c5-4.5,10.1-8.8,15.4-12.8l-2.7,2.1c11.2-8.7,23.2-16.7,36.3-22.2l-3.2,1.3a82.7,82.7,0,0,1,20.1-5.8l-3.6.5a130,130,0,0,1,18.7-.7c6.6,0,13.3.3,19.9.6,12.5.5,25.1,1.1,37.6.1s24.1-2.7,35.2-7.3a91.8,91.8,0,0,0,9.5-4.4,76.1,76.1,0,0,0,8.2-5.8,41.5,41.5,0,0,0,7.1-8,36.7,36.7,0,0,0,4.7-9c2.6-6.7,2.6-14.4.9-21.3a44.4,44.4,0,0,0-11.1-19.4,13.8,13.8,0,0,0-19.2,0c-2.3,2.6-4.1,6-3.9,9.6a15,15,0,0,0,3.9,9.6,21.8,21.8,0,0,1,2.5,2.8l-2.1-2.7a28.1,28.1,0,0,1,3.9,6.4l-1.4-3.2a25.2,25.2,0,0,1,1.8,6.5l-.5-3.6a26.6,26.6,0,0,1,.1,6.3l.4-3.6a23.6,23.6,0,0,1-1.5,5.8l1.3-3.3a25.6,25.6,0,0,1-3.3,5.8l2.1-2.8a37.7,37.7,0,0,1-5.7,5.6l2.8-2.1a54.3,54.3,0,0,1-10.5,5.9l3.2-1.3a94,94,0,0,1-24,6.1l3.6-.5c-24.3,3.2-48.8-.4-73.2.2a113.8,113.8,0,0,0-19.3,2,89.6,89.6,0,0,0-14.2,4.4,162.7,162.7,0,0,0-30.4,16.5,282.7,282.7,0,0,0-28.5,22.6h19.1l-.3-.4,2.1,16.4a13.1,13.1,0,0,0,2.7-5.1c.4-1,.7-2.1,1.1-3.2s1.5-4.6,2.3-6.9c1.8-5.1,3.8-10.2,5.9-15.2l-1.4,3.3a203.2,203.2,0,0,1,17.7-33.6c2.1-3.1,4.2-6.1,6.5-9.1l-2.1,2.8a113.8,113.8,0,0,1,20.6-21l-2.8,2.1A89.3,89.3,0,0,1,664,158.4l-3.3,1.4a130.9,130.9,0,0,1,17.1-5.5,181.3,181.3,0,0,1,20.5-4.1l-3.6.5a140.1,140.1,0,0,1,36.6-.3l-3.6-.5a106.4,106.4,0,0,1,25.9,6.8l-3.2-1.3a65.1,65.1,0,0,1,14.3,8.1l-2.7-2.1a45.8,45.8,0,0,1,4.6,4.2,14.4,14.4,0,0,0,9.6,3.9,14.3,14.3,0,0,0,9.6-3.9c2.3-2.6,4.1-6,3.9-9.6A14.4,14.4,0,0,0,785.8,146.4Z"/>
  <path class="a" d="M767.4,144.4a29.2,29.2,0,0,1-6.3,16.8c-10.2,13.2-30.1,20.5-49.1,24s-38.4,4.3-57.1,8.9c-8.6,2.2-17,7-25.1,13.2a34.3,34.3,0,0,1,6.3,8.3c7.8-4.5,15.8-7.8,23.7-8.9,19.1-2.6,38.5-1.2,57.7-2.7s39.7-6.6,50.9-18.5S778.5,156.2,767.4,144.4Z"/>
  <path class="d" d="M785.8,146.4c-7.6-7.7-17.2-12.8-27.2-16.6s-21.1-5.9-31.9-7-23.8-.2-35.6,1.4a169,169,0,0,0-31.3,7.2,104.4,104.4,0,0,0-43.1,27.9c-11.1,11.7-20.2,25.4-27.6,39.8a279.9,279.9,0,0,0-16.6,40.1l-1.2,4,1.3-3.3-1.4,1.9-1.3,3.2a10,10,0,0,0-.3,5.4,13.9,13.9,0,0,0,3.7,7.8l.4.3a13.6,13.6,0,0,0,9.5,3.9,15,15,0,0,0,9.6-3.9c5-4.5,10.1-8.8,15.4-12.8l-2.7,2.1c11.2-8.7,23.2-16.7,36.3-22.2l-3.2,1.3a82.7,82.7,0,0,1,20.1-5.8l-3.6.5a130,130,0,0,1,18.7-.7c6.6,0,13.3.3,19.9.6,12.5.5,25.1,1.1,37.6.1s24.1-2.7,35.2-7.3a91.8,91.8,0,0,0,9.5-4.4,76.1,76.1,0,0,0,8.2-5.8,41.5,41.5,0,0,0,7.1-8,36.7,36.7,0,0,0,4.7-9c2.6-6.7,2.6-14.4.9-21.3a44.4,44.4,0,0,0-11.1-19.4,13.8,13.8,0,0,0-19.2,0c-2.3,2.6-4.1,6-3.9,9.6a15,15,0,0,0,3.9,9.6,21.8,21.8,0,0,1,2.5,2.8l-2.1-2.7a28.1,28.1,0,0,1,3.9,6.4l-1.4-3.2a25.2,25.2,0,0,1,1.8,6.5l-.5-3.6a26.6,26.6,0,0,1,.1,6.3l.4-3.6a23.6,23.6,0,0,1-1.5,5.8l1.3-3.3a25.6,25.6,0,0,1-3.3,5.8l2.1-2.8a37.7,37.7,0,0,1-5.7,5.6l2.8-2.1a54.3,54.3,0,0,1-10.5,5.9l3.2-1.3a94,94,0,0,1-24,6.1l3.6-.5c-24.3,3.2-48.8-.4-73.2.2a113.8,113.8,0,0,0-19.3,2,89.6,89.6,0,0,0-14.2,4.4,162.7,162.7,0,0,0-30.4,16.5,282.7,282.7,0,0,0-28.5,22.6h19.1l-.3-.4,2.1,16.4a13.1,13.1,0,0,0,2.7-5.1c.4-1,.7-2.1,1.1-3.2s1.5-4.6,2.3-6.9c1.8-5.1,3.8-10.2,5.9-15.2l-1.4,3.3a203.2,203.2,0,0,1,17.7-33.6c2.1-3.1,4.2-6.1,6.5-9.1l-2.1,2.8a113.8,113.8,0,0,1,20.6-21l-2.8,2.1A89.3,89.3,0,0,1,664,158.4l-3.3,1.4a130.9,130.9,0,0,1,17.1-5.5,181.3,181.3,0,0,1,20.5-4.1l-3.6.5a140.1,140.1,0,0,1,36.6-.3l-3.6-.5a106.4,106.4,0,0,1,25.9,6.8l-3.2-1.3a65.1,65.1,0,0,1,14.3,8.1l-2.7-2.1a45.8,45.8,0,0,1,4.6,4.2,14.4,14.4,0,0,0,9.6,3.9,14.3,14.3,0,0,0,9.6-3.9c2.3-2.6,4.1-6,3.9-9.6A14.4,14.4,0,0,0,785.8,146.4Z"/>
  <rect class="g" x="453.1" y="358.7" width="210.7" height="97.72" rx="18"/>
  <circle class="b" cx="532.4" cy="412.7" r="8.7"/>
  <circle class="b" cx="480.3" cy="412.7" r="8.7"/>
  <circle class="b" cx="495.7" cy="395.3" r="8.7"/>
  <circle class="b" cx="517" cy="395.3" r="8.7"/>
  <circle class="b" cx="636.6" cy="412.7" r="8.7"/>
  <circle class="b" cx="584.5" cy="412.7" r="8.7"/>
  <circle class="b" cx="599.9" cy="395.3" r="8.7"/>
  <circle class="b" cx="621.1" cy="395.3" r="8.7"/>
  <rect class="h" x="425.9" y="499.9" width="265.1" height="104.13" rx="25.5"/>
  <path class="c" d="M450.1,531.9h6.5v36.5h-6.5Zm3,16h9.1a3.1,3.1,0,0,0,1.7-.4,3.7,3.7,0,0,0,1.2-1.3,4.5,4.5,0,0,0,.4-2V542a4.2,4.2,0,0,0-.4-2,3.1,3.1,0,0,0-1.1-1.4,3.4,3.4,0,0,0-1.8-.4h-9.1v-6.3h9.1a11.2,11.2,0,0,1,5.3,1.1,8.2,8.2,0,0,1,3.5,3.4,10.4,10.4,0,0,1,1.2,5.1v3.2a10.7,10.7,0,0,1-1.2,5.1,8.6,8.6,0,0,1-3.5,3.3,11.2,11.2,0,0,1-5.3,1.1h-9.1Z"/>
  <path class="c" d="M481.5,567.5a9.5,9.5,0,0,1-3.8-3.9,14.9,14.9,0,0,1-1.3-6.2V531.9H483v25.7a4.5,4.5,0,0,0,1.2,3.4,4.8,4.8,0,0,0,6.6,0,4.5,4.5,0,0,0,1.2-3.4V531.9h6.5v25.5a13.5,13.5,0,0,1-1.3,6.2,8.9,8.9,0,0,1-3.8,3.9,12,12,0,0,1-5.9,1.3A12.4,12.4,0,0,1,481.5,567.5Z"/>
  <path class="c" d="M503.9,531.9h6.5v36.5h-6.5Zm3.3,30.3h8.5a3.7,3.7,0,0,0,2.7-.9,3,3,0,0,0,1-2.5v-2.5a3.8,3.8,0,0,0-.4-1.9,2.7,2.7,0,0,0-1.3-1.3,5.9,5.9,0,0,0-2-.4h-8.5v-6.2h8.4a3.1,3.1,0,0,0,3.4-3.4v-2a2.8,2.8,0,0,0-.9-2.2,3.3,3.3,0,0,0-2.5-.8h-8.4v-6.2H516a11.5,11.5,0,0,1,5.2,1,7.2,7.2,0,0,1,3.2,3,8.6,8.6,0,0,1,1.1,4.7v2a7.2,7.2,0,0,1-.7,3.3,6.1,6.1,0,0,1-2.1,2.4,11.5,11.5,0,0,1-3.4,1.3,8.1,8.1,0,0,1,3.6,1.2,7.1,7.1,0,0,1,2.3,2.6,8.7,8.7,0,0,1,.8,3.7v2.5a10,10,0,0,1-1.1,4.8,7.2,7.2,0,0,1-3.2,3,12.1,12.1,0,0,1-5.2,1h-9.3Z"/>
  <path class="c" d="M531.3,531.9h6.5v36.5h-6.5Zm2.8,30.2h17.3v6.3H534.1Z"/>
  <path class="c" d="M561.7,568.4H555V531.9h6.7Z"/>
  <path class="c" d="M572.1,567.9a9.8,9.8,0,0,1-6-7.2l6.1-2.7a7.1,7.1,0,0,0,2.2,3.3,6.1,6.1,0,0,0,3.6,1.1,5.4,5.4,0,0,0,3.3-.9,3.4,3.4,0,0,0,1.2-2.7v-1.6a3.1,3.1,0,0,0-.7-2.1,4.1,4.1,0,0,0-1.8-1.2,20.8,20.8,0,0,0-3-1,.1.1,0,0,0-.1-.1h-.4a23.9,23.9,0,0,1-4.9-1.9,8.3,8.3,0,0,1-3.3-2.9,10.8,10.8,0,0,1-1.3-5.4v-1a11.3,11.3,0,0,1,1.3-5.4,8.1,8.1,0,0,1,3.9-3.4,13.8,13.8,0,0,1,6.1-1.2,14.2,14.2,0,0,1,4.8.8,8.2,8.2,0,0,1,3.4,2.7,9.6,9.6,0,0,1,2.1,4.3l-5.8,2.7a6.4,6.4,0,0,0-2-3.1,3.9,3.9,0,0,0-2.9-1.1,4.9,4.9,0,0,0-3.2.9,2.9,2.9,0,0,0-1.2,2.4v1.3a3.3,3.3,0,0,0,.8,2.2,5.9,5.9,0,0,0,1.8,1.3l3.1,1.1h1.1a24.3,24.3,0,0,1,4.5,1.9,8.5,8.5,0,0,1,3.1,2.9,9.6,9.6,0,0,1,1.2,5.1v1.6a10.3,10.3,0,0,1-1.4,5.4,8.7,8.7,0,0,1-3.9,3.4,14.9,14.9,0,0,1-6.2,1.2A15.5,15.5,0,0,1,572.1,567.9Z"/>
  <path class="c" d="M594,531.9h6.5v36.5H594Zm3,15.3h16.8v6.3H597Zm12.6-15.3h6.5v36.5h-6.5Z"/>
  <path class="c" d="M622.4,531.9h6.5v36.5h-6.5Zm2.6,0h17.7v6.3H625Zm0,15.2h15.7v6.3H625Zm0,15h17.7v6.3H625Z"/>
  <path class="c" d="M647.5,531.9h6.6v36.5h-6.6Zm3.8,30.2H658a5.3,5.3,0,0,0,3.7-1.2,4.5,4.5,0,0,0,1.2-3.4V542.8a4.5,4.5,0,0,0-1.2-3.4,5.3,5.3,0,0,0-3.7-1.2h-6.7v-6.3h7a14.1,14.1,0,0,1,6.1,1.2,8.5,8.5,0,0,1,3.9,3.6,11.8,11.8,0,0,1,1.3,5.8v15.3a11,11,0,0,1-1.3,5.6,8,8,0,0,1-3.8,3.7,13.4,13.4,0,0,1-6.3,1.3h-6.9Z"/>
  <ellipse class="i" cx="722.7" cy="548.9" rx="71.1" ry="34.6" transform="translate(-56 1014.9) rotate(-68.1)"/>
  <path class="a" d="M696.4,610.9c-7.1-11.1-12.5-33.4-8.8-61.7V549a203.5,203.5,0,0,1,5-25.4c-.4,1.7-.7,3.5-1,5.3-2.7,15.1-3.9,30.5-2.9,42.1h.1c1.8,21.7,13,25.6,23.7,20.7s23-23.9,33.1-50.9a255.5,255.5,0,0,0,9-29.4A247.9,247.9,0,0,1,743.4,569c-5.1,15.2-11.3,26.8-17.3,34.7C714.5,619.3,703.5,621.9,696.4,610.9Z"/>
  <ellipse class="j" cx="722.7" cy="548.9" rx="71.1" ry="34.6" transform="translate(-37.1 1045.1) rotate(-70.4)"/>
  <ellipse class="k" cx="393.1" cy="548.9" rx="36" ry="71.5" transform="translate(-170.8 177.7) rotate(-21)"/>
  <path class="a" d="M419.2,611.2c-12.8-2.2-31.7-12.7-47.9-33.7v-.2a160.8,160.8,0,0,1-13.2-20c.9,1.4,1.8,2.8,2.8,4.1,8.1,11.7,17.5,22.6,26,29.4h.1c15.9,12.8,26.9,7.3,31.6-3.5s1.4-31.8-9.1-56.6a203.8,203.8,0,0,0-12.9-25.5c11.3,12.8,22.7,29.5,30,45.3,6.3,13.5,9.4,25.5,10.2,34.8C438.4,603.7,431.9,613.3,419.2,611.2Z"/>
  <ellipse class="l" cx="393.1" cy="548.9" rx="36" ry="71.5" transform="translate(-170.8 177.7) rotate(-21)"/>
  <path class="m" d="M532.9,162.1c-1.2-10.8,5.6-20.5,15.2-21.6s18.5,6.8,19.7,17.7a22.1,22.1,0,0,1-.9,9.3l-13.2,51.6L535,169.3l-1.4-3.9A27.2,27.2,0,0,1,532.9,162.1Z"/>
  <path class="m" d="M357.5,703.2c-7.5,8-19.3,9-26.4,2.4s-6.7-18.5.8-26.4a21.2,21.2,0,0,1,7.8-5.3l47.8-23.3L361.6,697l-2,3.6Z"/>
  <path class="m" d="M276.7,430.3c-10.7-1.9-18.1-11.2-16.4-20.8s11.8-15.7,22.5-13.8a21.1,21.1,0,0,1,8.7,3.6l45.7,27.2-53,3.8-4.1.3A19.5,19.5,0,0,1,276.7,430.3Z"/>
  <path class="m" d="M302.2,329.9c-9.9-4.6-14.6-15.5-10.5-24.3s15.4-12.1,25.3-7.5a22.6,22.6,0,0,1,7.5,5.7l37,38.2-52.1-10.1-4.1-.8A16.6,16.6,0,0,1,302.2,329.9Z"/>
  <path class="m" d="M366,249c-7.8-7.6-8.6-19.4-1.8-26.4s18.6-6.3,26.4,1.4a20.3,20.3,0,0,1,5.1,7.8L418,280.1l-45.9-26.8-3.5-2.1A27.5,27.5,0,0,1,366,249Z"/>
  <path class="m" d="M290.6,630.6c-9.6,5.3-21.1,2.8-25.9-5.6s-.8-19.7,8.7-25a23.5,23.5,0,0,1,9-2.8l52.6-7.8-38.6,36.5-3.1,2.9A25.3,25.3,0,0,1,290.6,630.6Z"/>
  <path class="m" d="M268.2,537.7c-10.9.6-20.2-6.8-20.7-16.5s7.9-18,18.8-18.6a22,22,0,0,1,9.3,1.6l50.7,16.2-50.8,15.7-4,1.2Z"/>
  <path class="m" d="M445.3,189.8c-4.5-9.9-1-21.2,7.8-25.2s19.6.7,24.1,10.7a20,20,0,0,1,2,9.1l3.5,53.1L449.5,196l-2.6-3.2A21.1,21.1,0,0,1,445.3,189.8Z"/>
  <path class="n" d="M738.6,716.7c6.8,9,18.9,11.6,27,5.7s9.2-17.9,2.3-26.9a23.3,23.3,0,0,0-7.4-6.3l-47-29.6L735,709.9l1.7,3.9A18.1,18.1,0,0,0,738.6,716.7Z"/>
  <path class="n" d="M844.4,409.5c11.1-2.5,18.3-12.3,16-21.9s-13-15.5-24.2-13.1a21.9,21.9,0,0,0-8.9,4L781,408.4l55.6,1.4h4.3A22.1,22.1,0,0,0,844.4,409.5Z"/>
  <path class="n" d="M814,327.2c10.2-4.9,14.9-16,10.4-24.9s-16.4-12.2-26.6-7.4a23.2,23.2,0,0,0-7.7,6l-38,39.5,54.4-11.1,4.2-.9A21.9,21.9,0,0,0,814,327.2Z"/>
  <path class="n" d="M768.9,261.6c9-6.8,11.2-18.7,5-26.5s-18.6-8.8-27.6-2a20.5,20.5,0,0,0-6.2,7.3l-28.8,46.2,50.8-21.5,3.9-1.7A17.5,17.5,0,0,0,768.9,261.6Z"/>
  <path class="n" d="M840.3,592c10.9,3.2,22.2-1.8,25.2-11.3s-3.4-19.8-14.3-23a23.6,23.6,0,0,0-9.8-.8l-55.6,3.7,47.5,27.9,3.7,2.2Z"/>
  <path class="n" d="M851.9,504.3c11.4.6,21-6.8,21.6-16.7s-8.3-18.4-19.7-19.1a23.6,23.6,0,0,0-9.7,1.5l-53,16.3,53.2,16.3,4.1,1.2A19.7,19.7,0,0,0,851.9,504.3Z"/>
  <path class="n" d="M794.6,663c8.7,7.2,21,7,27.6-.5s5-19.5-3.7-26.7a23.6,23.6,0,0,0-8.7-4.6l-52.4-18.4,32.2,44.3,2.5,3.4A19.7,19.7,0,0,0,794.6,663Z"/>
</svg>