<?xml version="1.0" encoding="utf-8"?>
<svg viewBox="0 0 1133.9 881.4" xmlns="http://www.w3.org/2000/svg">
  <defs>
    <style>.a{fill:#cdcccc;}.b,.f,.h,.k{fill:#fff;}.b{stroke:#1d1d1b;stroke-width:10.28px;}.b,.h,.i,.j,.k,.l{stroke-miterlimit:10;}.c{fill:#cecccc;}.d{fill:#ffcc03;}.e{fill:#1d1d1b;}.g{fill:#4e4d4d;}.h,.j,.k,.l{stroke:#4e4d4d;}.h,.j{stroke-width:17.14px;}.i{fill:#010101;stroke:#010101;stroke-width:7.4px;}.j,.l{fill:none;}.k,.l{stroke-width:19.44px;}</style>
  </defs>
  <ellipse class="a" cx="571" cy="756.2" rx="306.5" ry="44"/>
  <rect class="b" x="264" y="222.7" width="364" height="459.29" rx="29.3"/>
  <rect class="c" x="364.4" y="248.1" width="220.8" height="23.61"/>
  <polygon class="d" points="336.3 284.6 320 276.3 303.8 285 306.7 266.9 293.4 254.3 311.6 251.4 319.5 234.9 327.8 251.2 345.9 253.7 333 266.6 336.3 284.6"/>
  <path class="e" d="M322.1,271.7h-3.7V256.3l-2.4.9v-4l2.9-1.3h3.2Z"/>
  <polygon class="d" points="336.3 346.4 320 338.1 303.8 346.8 306.7 328.7 293.4 316 311.6 313.2 319.5 296.7 327.8 313 345.9 315.4 333 328.4 336.3 346.4"/>
  <path class="e" d="M314.7,330.2l6.8-9a7.5,7.5,0,0,0,.7-1.2,3.5,3.5,0,0,0,.3-1.2h0a1.7,1.7,0,0,0-.5-1.2,2.4,2.4,0,0,0-1.5-.4,2,2,0,0,0-1.5.6,2.9,2.9,0,0,0-.7,1.7h-3.9a8,8,0,0,1,.9-3.2,4.5,4.5,0,0,1,2.1-2,6,6,0,0,1,3-.7,7.6,7.6,0,0,1,3.2.6,4.2,4.2,0,0,1,2,1.7,5.1,5.1,0,0,1,.7,2.8h0a8.4,8.4,0,0,1-.4,2.7,9.5,9.5,0,0,1-1.4,2.4l-4.9,6.2h6.8v3.6H314.7Z"/>
  <polygon class="d" points="336.3 408.2 320 399.8 303.8 408.6 306.7 390.5 293.4 377.8 311.6 375 319.5 358.4 327.8 374.8 345.9 377.2 333 390.2 336.3 408.2"/>
  <path class="e" d="M317.3,394.9a5.3,5.3,0,0,1-2.2-2,4.8,4.8,0,0,1-.9-2.9H318a3,3,0,0,0,.4,1,2.3,2.3,0,0,0,.7.7l1,.2a2.1,2.1,0,0,0,2.3-2.3v-.5a2.9,2.9,0,0,0-.5-1.7,1.7,1.7,0,0,0-1.4-.6h-1.6v-3.6h1.6a1.1,1.1,0,0,0,1.1-.6,2.1,2.1,0,0,0,.4-1.5v-.3a2,2,0,0,0-.4-1.4,1.3,1.3,0,0,0-1.2-.5l-.9.2a1.4,1.4,0,0,0-.7.8,3.3,3.3,0,0,0-.5,1.2h-3.8a6.7,6.7,0,0,1,1-3.2,5.1,5.1,0,0,1,2.1-2,6.9,6.9,0,0,1,2.9-.7,5.8,5.8,0,0,1,4.1,1.4,4.7,4.7,0,0,1,1.4,3.8v.6a4,4,0,0,1-.7,2.4,3.6,3.6,0,0,1-1.9,1.5,4.4,4.4,0,0,1,2.2,1.5,5.6,5.6,0,0,1,.8,3v.6a6.6,6.6,0,0,1-.7,3,5.2,5.2,0,0,1-2,1.9,7.6,7.6,0,0,1-3.2.6A8.3,8.3,0,0,1,317.3,394.9Z"/>
  <polygon class="d" points="336.3 470 320 461.6 303.8 470.3 306.7 452.2 293.4 439.6 311.6 436.8 319.5 420.2 327.8 436.6 345.9 439 333 451.9 336.3 470"/>
  <path class="e" d="M312.7,450.6l6.1-13.4H323l-5.9,13.2H326V454H312.7Zm8-5.2h3.7v11.7h-3.7Z"/>
  <polygon class="d" points="336.3 531.8 320 523.4 303.8 532.1 306.7 514 293.4 501.4 311.6 498.5 319.5 482 327.8 498.3 345.9 500.8 333 513.7 336.3 531.8"/>
  <path class="e" d="M317.9,519.6a4.8,4.8,0,0,1-2-2,8,8,0,0,1-.9-3.2h3.7a2.9,2.9,0,0,0,.7,1.7,2.2,2.2,0,0,0,3,0,3.6,3.6,0,0,0,.5-1.9v-1.6a2.4,2.4,0,0,0-.5-1.8,1.4,1.4,0,0,0-1.3-.7,2.9,2.9,0,0,0-1.4.4,2.5,2.5,0,0,0-.8,1.2h-3.5V500.3h10.7v3.6h-6.9v3.5a2.3,2.3,0,0,1,1.1-.7l1.5-.2a4.4,4.4,0,0,1,4.3,2.8,8.1,8.1,0,0,1,.6,3.3v1.6a8.1,8.1,0,0,1-.7,3.3,5.1,5.1,0,0,1-2,2.1,6.6,6.6,0,0,1-3.2.7A5.7,5.7,0,0,1,317.9,519.6Z"/>
  <polygon class="d" points="336.3 593.5 320 585.2 303.8 593.9 306.7 575.8 293.4 563.2 311.6 560.3 319.5 543.8 327.8 560.1 345.9 562.6 333 575.5 336.3 593.5"/>
  <path class="e" d="M317.2,580.4a4.1,4.1,0,0,1-1.9-2,6.7,6.7,0,0,1-.7-3.3h0a21.5,21.5,0,0,1,.2-2.3c.2-.7.5-1.6.8-2.4l.2-.4c0-.1.1-.2.2-.4l4-8.5h4.2l-4.8,9.9-.9-.5a2.9,2.9,0,0,1,2.5-1.4,5.8,5.8,0,0,1,2.8.7,4.6,4.6,0,0,1,1.8,2.1,7.3,7.3,0,0,1,.6,3.2h0a6.7,6.7,0,0,1-.7,3.3,3.9,3.9,0,0,1-2,2,5.9,5.9,0,0,1-3.1.7A6.6,6.6,0,0,1,317.2,580.4Zm4.7-3.4a2.4,2.4,0,0,0,.6-1.7h0a2.7,2.7,0,0,0-.6-1.9,2,2,0,0,0-1.5-.7,1.8,1.8,0,0,0-1.5.7,2.9,2.9,0,0,0-.6,1.9h0a2.4,2.4,0,0,0,.6,1.7,2.1,2.1,0,0,0,1.5.5A2.3,2.3,0,0,0,321.9,577Z"/>
  <polygon class="d" points="336.3 655.3 320 647 303.8 655.7 306.7 637.6 293.4 624.9 311.6 622.1 319.5 605.6 327.8 621.9 345.9 624.3 333 637.3 336.3 655.3"/>
  <path class="e" d="M325.8,626.9l-4.5,17.4h-4l4.3-16.3h-3.4v3h-3.8v-6.6h11.4Z"/>
  <rect class="c" x="364.4" y="309.9" width="220.8" height="23.61"/>
  <rect class="c" x="364.4" y="371.7" width="220.8" height="23.61"/>
  <rect class="c" x="364.4" y="433.5" width="220.8" height="23.61"/>
  <rect class="c" x="364.4" y="495.3" width="220.8" height="23.61"/>
  <rect class="c" x="364.4" y="618.8" width="220.8" height="23.61"/>
  <rect class="c" x="390" y="565.7" width="220.8" height="23.61" transform="translate(54.9 -43.3) rotate(5.2)"/>
  <path class="f" d="M779,365.8c-25.3-8.8-53.7-7.5-78.6,1s-46.4,24.1-63.6,42.7c-42.2,45.3-58.9,110.2-43.6,169.4,9.2,35.6,30,69.5,61.6,91.9s74.4,32,111.7,21.2c27.9-8.1,50.9-26.7,68.1-48.5,33.5-42.5,46.3-98.6,34.5-150.9S826.6,382.4,779.3,366"/>
  <path class="g" d="M781.7,355.8c-36.2-12.4-77-5.8-109.9,12.7-29.6,16.7-54.2,42.8-70.4,72.6a195.6,195.6,0,0,0-24.1,95.8c.5,33.1,9.7,66.2,27.1,94.4a165.2,165.2,0,0,0,32.3,38.4,156.3,156.3,0,0,0,45.9,27.4,146.8,146.8,0,0,0,50.3,9.6,135.1,135.1,0,0,0,26.2-2.3,121.3,121.3,0,0,0,25.6-8.2c31.1-13.3,56.1-39.4,72.9-68.3A192.9,192.9,0,0,0,883.7,529c-.5-32.6-9.9-64.9-23.8-94.2-13-27.3-31.9-53.5-58.1-69.4a102.2,102.2,0,0,0-19.8-9.3c-5.1-1.8-11.5,2-12.7,7.2a10.7,10.7,0,0,0,7.2,12.7l5.3,2-2.4-1.1a99.3,99.3,0,0,1,21.5,12.8l-2.1-1.6a128.7,128.7,0,0,1,23.4,23.8l-1.6-2.1c10.7,13.8,19.1,29.2,25.9,45.3l-1-2.5c7.7,18.5,13.7,38.1,16.4,57.9l-.4-2.7a180.6,180.6,0,0,1,0,47.6l.4-2.8a186.4,186.4,0,0,1-12.8,46.9l1-2.5a182.9,182.9,0,0,1-23.4,40.1l1.6-2.1A163,163,0,0,1,800,663.6l2.1-1.6a130.1,130.1,0,0,1-28.3,16.7l2.5-1a115.5,115.5,0,0,1-28.9,7.8l2.8-.4a122.3,122.3,0,0,1-33.1-.1l2.8.4a142.1,142.1,0,0,1-36.2-10l2.4,1.1a141.9,141.9,0,0,1-30.8-18l2.1,1.6a155.6,155.6,0,0,1-27.2-27.2l1.6,2a166.4,166.4,0,0,1-21.6-37.2l1,2.5a177.6,177.6,0,0,1-12.1-44.6l.4,2.7a182.1,182.1,0,0,1,0-47.8l-.4,2.7a193.2,193.2,0,0,1,13-47.6l-1,2.5a191.7,191.7,0,0,1,23.8-40.8l-1.6,2.1a177.9,177.9,0,0,1,32.1-32.2l-2.1,1.6a155,155,0,0,1,33.6-19.7l-2.5,1a130.9,130.9,0,0,1,33.6-9.2l-2.7.3a127,127,0,0,1,32.6-.1l-2.7-.4a107.1,107.1,0,0,1,21,5c5.1,1.7,11.5-2,12.7-7.2a10.6,10.6,0,0,0-7.2-12.7Z"/>
  <path class="f" d="M779,365.8c-25.3-8.8-53.7-7.5-78.6,1s-46.4,24.1-63.6,42.7c-42.2,45.3-58.9,110.2-43.6,169.4,9.2,35.6,30,69.5,61.6,91.9s74.4,32,111.7,21.2c27.9-8.1,50.9-26.7,68.1-48.5,33.5-42.5,46.3-98.6,34.5-150.9S826.6,382.4,779.3,366"/>
  <path class="g" d="M781.7,355.8c-36.2-12.4-77-5.8-109.9,12.7-29.6,16.7-54.2,42.8-70.4,72.6a195.6,195.6,0,0,0-24.1,95.8c.5,33.1,9.7,66.2,27.1,94.4a165.2,165.2,0,0,0,32.3,38.4,156.3,156.3,0,0,0,45.9,27.4,146.8,146.8,0,0,0,50.3,9.6,135.1,135.1,0,0,0,26.2-2.3,121.3,121.3,0,0,0,25.6-8.2c31.1-13.3,56.1-39.4,72.9-68.3A192.9,192.9,0,0,0,883.7,529c-.5-32.6-9.9-64.9-23.8-94.2-13-27.3-31.9-53.5-58.1-69.4a102.2,102.2,0,0,0-19.8-9.3c-5.1-1.8-11.5,2-12.7,7.2a10.7,10.7,0,0,0,7.2,12.7l5.3,2-2.4-1.1a99.3,99.3,0,0,1,21.5,12.8l-2.1-1.6a128.7,128.7,0,0,1,23.4,23.8l-1.6-2.1c10.7,13.8,19.1,29.2,25.9,45.3l-1-2.5c7.7,18.5,13.7,38.1,16.4,57.9l-.4-2.7a180.6,180.6,0,0,1,0,47.6l.4-2.8a186.4,186.4,0,0,1-12.8,46.9l1-2.5a182.9,182.9,0,0,1-23.4,40.1l1.6-2.1A163,163,0,0,1,800,663.6l2.1-1.6a130.1,130.1,0,0,1-28.3,16.7l2.5-1a115.5,115.5,0,0,1-28.9,7.8l2.8-.4a122.3,122.3,0,0,1-33.1-.1l2.8.4a142.1,142.1,0,0,1-36.2-10l2.4,1.1a141.9,141.9,0,0,1-30.8-18l2.1,1.6a155.6,155.6,0,0,1-27.2-27.2l1.6,2a166.4,166.4,0,0,1-21.6-37.2l1,2.5a177.6,177.6,0,0,1-12.1-44.6l.4,2.7a182.1,182.1,0,0,1,0-47.8l-.4,2.7a193.2,193.2,0,0,1,13-47.6l-1,2.5a191.7,191.7,0,0,1,23.8-40.8l-1.6,2.1a177.9,177.9,0,0,1,32.1-32.2l-2.1,1.6a155,155,0,0,1,33.6-19.7l-2.5,1a130.9,130.9,0,0,1,33.6-9.2l-2.7.3a127,127,0,0,1,32.6-.1l-2.7-.4a107.1,107.1,0,0,1,21,5c5.1,1.7,11.5-2,12.7-7.2a10.6,10.6,0,0,0-7.2-12.7Z"/>
  <ellipse class="h" cx="785.1" cy="724.7" rx="51.3" ry="30.6"/>
  <path class="f" d="M896.1,288.3c-8.5-8.7-24-14-39.8-15.1s-31.8,1.7-46,6.3c-34.9,11.4-52.6,53.4-60.2,77.9l-1.1,1.4.3.3c14.4-12.9,36.9-30,57.4-31.4,15.5-1,31,.8,46.5.7s32.3-3,41.9-10.9S904.6,297.1,896.1,288.3Z"/>
  <path class="g" d="M903.4,281.1c-5.8-5.9-13-9.7-20.6-12.7a90.4,90.4,0,0,0-24.1-5.3,122.8,122.8,0,0,0-27.1,1,135.7,135.7,0,0,0-23.7,5.4,80.5,80.5,0,0,0-33,21.2,129.1,129.1,0,0,0-21.1,30.2,215.2,215.2,0,0,0-12.6,30.7,28.1,28.1,0,0,0-1,3.1l1-2.5-1.1,1.4-1,2.5a8.1,8.1,0,0,0-.2,4.1,10.2,10.2,0,0,0,2.8,5.9l.3.2a10,10,0,0,0,7.3,3,10.9,10.9,0,0,0,7.2-3c3.8-3.4,7.7-6.6,11.8-9.7l-2.1,1.6c8.6-6.7,17.7-12.7,27.7-17l-2.4,1.1a60.9,60.9,0,0,1,15.1-4.4l-2.8.4a113.2,113.2,0,0,1,14.3-.6c5.1,0,10.2.2,15.3.5,9.7.4,19.5.8,29.2,0s18.8-2.4,27.6-6.1a45.6,45.6,0,0,0,12.3-7.5,30.5,30.5,0,0,0,8.7-12.8c2-5,1.9-10.9.6-16.1a32.1,32.1,0,0,0-8.4-14.6c-3.7-3.9-10.9-4.1-14.6,0a10.5,10.5,0,0,0,0,14.5,22,22,0,0,1,2,2.3l-1.6-2.1a24.3,24.3,0,0,1,2.9,4.9l-1.1-2.4a19,19,0,0,1,1.4,4.8l-.4-2.7a20.1,20.1,0,0,1,0,4.9l.4-2.8a17.8,17.8,0,0,1-1.3,4.5l1.1-2.5a22.2,22.2,0,0,1-2.5,4.2l1.6-2a27.8,27.8,0,0,1-4.3,4.1l2.1-1.6a37.7,37.7,0,0,1-8,4.6l2.4-1a71.5,71.5,0,0,1-18.2,4.6l2.7-.4c-18.5,2.5-37.2-.3-55.8.2a72.4,72.4,0,0,0-25.3,4.8,126.1,126.1,0,0,0-23.1,12.6A211.1,211.1,0,0,0,742,351.8h14.5l-.2-.3,1.6,12.5c2.4-3.2,3.3-7.7,4.6-11.5s2.9-7.8,4.5-11.6l-1,2.5A141.6,141.6,0,0,1,784.3,311l-1.6,2.1A86,86,0,0,1,798.5,297l-2.1,1.6a63.1,63.1,0,0,1,14.4-8.4l-2.5,1a114.2,114.2,0,0,1,28.7-7.3l-2.7.4a106.3,106.3,0,0,1,27.6-.2l-2.7-.4a79.2,79.2,0,0,1,19.8,5.2l-2.5-1a47.7,47.7,0,0,1,10.8,6.1l-2.1-1.6a37.3,37.3,0,0,1,3.6,3.2c3.8,3.9,10.9,4.1,14.6,0A10.4,10.4,0,0,0,903.4,281.1Z"/>
  <path class="a" d="M889.4,279.5a22.3,22.3,0,0,1-4.8,12.8c-7.7,10-22.9,15.6-37.3,18.3s-29.3,3.2-43.5,6.8c-6.5,1.6-13,5.3-19.1,10a25,25,0,0,1,4.8,6.3c5.9-3.5,12-6,18-6.8,14.5-2,29.3-.9,44-2s30.2-5,38.7-14.1S897.9,288.5,889.4,279.5Z"/>
  <ellipse class="h" cx="679.4" cy="724.7" rx="51.3" ry="30.6"/>
  <path class="a" d="M873.1,492.6c-11.9-52.3-42.5-110.2-89.8-126.6l-.3-.2a112.7,112.7,0,0,0-43.9-5.8c3.1.4,6.1.9,9.1,1.5,25.8,5.1,51,18.3,68.4,38.6v.3c32.6,38,30,103.4,13.8,154.5S775.1,648,724.8,667.8c-16.7,6.6-34.9,10.8-53.3,11,29.8,16.5,66.5,22.6,99,13.2,27.9-8.1,50.9-26.7,68.1-48.5C872.1,601,884.9,544.9,873.1,492.6Z"/>
  <path class="i" d="M710,508l10.9-48.4c1.7-7.7-3.6-15.2-11.8-16.5L614,428c-3.5,5.2-6.7,10.5-9.7,16a189.7,189.7,0,0,0-20.5,58.6l108.1,17.1C700.1,521,708.3,515.8,710,508Z"/>
  <circle class="d" cx="679.5" cy="484.6" r="7.6"/>
  <circle class="d" cx="634.5" cy="476.1" r="7.6"/>
  <circle class="d" cx="650.7" cy="463.6" r="7.6"/>
  <circle class="d" cx="669" cy="467.1" r="7.6"/>
  <path class="g" d="M781.7,355.8c-36.2-12.4-77-5.8-109.9,12.7-29.6,16.7-54.2,42.8-70.4,72.6a195.6,195.6,0,0,0-24.1,95.8c.5,33.1,9.7,66.2,27.1,94.4a165.2,165.2,0,0,0,32.3,38.4,156.3,156.3,0,0,0,45.9,27.4,146.8,146.8,0,0,0,50.3,9.6,135.1,135.1,0,0,0,26.2-2.3,121.3,121.3,0,0,0,25.6-8.2c31.1-13.3,56.1-39.4,72.9-68.3A192.9,192.9,0,0,0,883.7,529c-.5-32.6-9.9-64.9-23.8-94.2-13-27.3-31.9-53.5-58.1-69.4a102.2,102.2,0,0,0-19.8-9.3c-5.1-1.8-11.5,2-12.7,7.2a10.7,10.7,0,0,0,7.2,12.7l5.3,2-2.4-1.1a99.3,99.3,0,0,1,21.5,12.8l-2.1-1.6a128.7,128.7,0,0,1,23.4,23.8l-1.6-2.1c10.7,13.8,19.1,29.2,25.9,45.3l-1-2.5c7.7,18.5,13.7,38.1,16.4,57.9l-.4-2.7a180.6,180.6,0,0,1,0,47.6l.4-2.8a186.4,186.4,0,0,1-12.8,46.9l1-2.5a182.9,182.9,0,0,1-23.4,40.1l1.6-2.1A163,163,0,0,1,800,663.6l2.1-1.6a130.1,130.1,0,0,1-28.3,16.7l2.5-1a115.5,115.5,0,0,1-28.9,7.8l2.8-.4a122.3,122.3,0,0,1-33.1-.1l2.8.4a142.1,142.1,0,0,1-36.2-10l2.4,1.1a141.9,141.9,0,0,1-30.8-18l2.1,1.6a155.6,155.6,0,0,1-27.2-27.2l1.6,2a166.4,166.4,0,0,1-21.6-37.2l1,2.5a177.6,177.6,0,0,1-12.1-44.6l.4,2.7a182.1,182.1,0,0,1,0-47.8l-.4,2.7a193.2,193.2,0,0,1,13-47.6l-1,2.5a191.7,191.7,0,0,1,23.8-40.8l-1.6,2.1a177.9,177.9,0,0,1,32.1-32.2l-2.1,1.6a155,155,0,0,1,33.6-19.7l-2.5,1a130.9,130.9,0,0,1,33.6-9.2l-2.7.3a127,127,0,0,1,32.6-.1l-2.7-.4a107.1,107.1,0,0,1,21,5c5.1,1.7,11.5-2,12.7-7.2a10.6,10.6,0,0,0-7.2-12.7Z"/>
  <path class="a" d="M825.6,721.6c-3.1-10.1-14-22.9-33.3-29.7h-.1a115.5,115.5,0,0,0-18.2-4.7l3.8,1.1c10.6,3,20.7,7.4,27.3,12.5h.1c12.3,9.4,8.9,20.7.4,28.3s-26.6,11.6-48.4,10.9a156.2,156.2,0,0,1-22.8-2.6,127.7,127.7,0,0,0,41.1,10.6,84.2,84.2,0,0,0,30.3-2.7C821.4,740.5,828.8,731.8,825.6,721.6Z"/>
  <ellipse class="j" cx="782.9" cy="723.6" rx="51.3" ry="30.6"/>
  <path class="a" d="M719.9,721.6c-3.2-10.1-14-22.9-33.3-29.7h-.1a119.6,119.6,0,0,0-18.3-4.7l3.8,1.1c10.7,3,20.8,7.4,27.4,12.5h0c12.4,9.4,9,20.7.4,28.3s-26.5,11.6-48.4,10.9a153.4,153.4,0,0,1-22.7-2.6,126.4,126.4,0,0,0,41.1,10.6,84.7,84.7,0,0,0,30.3-2.7C715.6,740.5,723,731.8,719.9,721.6Z"/>
  <ellipse class="j" cx="677.1" cy="723.6" rx="51.3" ry="30.6"/>
  <path class="g" d="M903.4,281.1c-5.8-5.9-13-9.7-20.6-12.7a90.4,90.4,0,0,0-24.1-5.3,122.8,122.8,0,0,0-27.1,1,135.7,135.7,0,0,0-23.7,5.4,80.5,80.5,0,0,0-33,21.2,129.1,129.1,0,0,0-21.1,30.2,215.2,215.2,0,0,0-12.6,30.7,28.1,28.1,0,0,0-1,3.1l1-2.5-1.1,1.4-1,2.5a8.1,8.1,0,0,0-.2,4.1,10.2,10.2,0,0,0,2.8,5.9l.3.2a10,10,0,0,0,7.3,3,10.9,10.9,0,0,0,7.2-3c3.8-3.4,7.7-6.6,11.8-9.7l-2.1,1.6c8.6-6.7,17.7-12.7,27.7-17l-2.4,1.1a60.9,60.9,0,0,1,15.1-4.4l-2.8.4a113.2,113.2,0,0,1,14.3-.6c5.1,0,10.2.2,15.3.5,9.7.4,19.5.8,29.2,0s18.8-2.4,27.6-6.1a45.6,45.6,0,0,0,12.3-7.5,30.5,30.5,0,0,0,8.7-12.8c2-5,1.9-10.9.6-16.1a32.1,32.1,0,0,0-8.4-14.6c-3.7-3.9-10.9-4.1-14.6,0a10.5,10.5,0,0,0,0,14.5,22,22,0,0,1,2,2.3l-1.6-2.1a24.3,24.3,0,0,1,2.9,4.9l-1.1-2.4a19,19,0,0,1,1.4,4.8l-.4-2.7a20.1,20.1,0,0,1,0,4.9l.4-2.8a17.8,17.8,0,0,1-1.3,4.5l1.1-2.5a22.2,22.2,0,0,1-2.5,4.2l1.6-2a27.8,27.8,0,0,1-4.3,4.1l2.1-1.6a37.7,37.7,0,0,1-8,4.6l2.4-1a71.5,71.5,0,0,1-18.2,4.6l2.7-.4c-18.5,2.5-37.2-.3-55.8.2a72.4,72.4,0,0,0-25.3,4.8,126.1,126.1,0,0,0-23.1,12.6A211.1,211.1,0,0,0,742,351.8h14.5l-.2-.3,1.6,12.5c2.4-3.2,3.3-7.7,4.6-11.5s2.9-7.8,4.5-11.6l-1,2.5A141.6,141.6,0,0,1,784.3,311l-1.6,2.1A86,86,0,0,1,798.5,297l-2.1,1.6a63.1,63.1,0,0,1,14.4-8.4l-2.5,1a114.2,114.2,0,0,1,28.7-7.3l-2.7.4a106.3,106.3,0,0,1,27.6-.2l-2.7-.4a79.2,79.2,0,0,1,19.8,5.2l-2.5-1a47.7,47.7,0,0,1,10.8,6.1l-2.1-1.6a37.3,37.3,0,0,1,3.6,3.2c3.8,3.9,10.9,4.1,14.6,0A10.4,10.4,0,0,0,903.4,281.1Z"/>
  <ellipse class="k" cx="586.1" cy="599.1" rx="34.5" ry="58.5" transform="matrix(0.41, -0.91, 0.91, 0.41, -199.33, 891.54)"/>
  <path class="a" d="M634.8,615.2c-.4-10-6.8-23.5-21.6-32.8h-.1a73.3,73.3,0,0,0-14.3-7.1l3,1.5c8.3,4.4,15.8,10.1,20.3,15.8h0c8.4,10.7,3.1,20.7-5.7,26.5s-24.8,7-43,3a107.3,107.3,0,0,1-18.6-5.8,97.9,97.9,0,0,0,32.3,16.1,67.4,67.4,0,0,0,26.1,1.9C627.2,632.3,635.3,625.2,634.8,615.2Z"/>
  <ellipse class="l" cx="586.1" cy="599.1" rx="34.5" ry="58.5" transform="matrix(0.41, -0.91, 0.91, 0.41, -199.33, 891.54)"/>
</svg>