<?xml version="1.0" encoding="utf-8"?>
<!-- Generator: Adobe Illustrator 27.8.1, SVG Export Plug-In . SVG Version: 6.00 Build 0)  -->
<svg version="1.1" id="Laag_1" xmlns="http://www.w3.org/2000/svg" xmlns:xlink="http://www.w3.org/1999/xlink" x="0px" y="0px"
	 viewBox="0 0 640 640" style="enable-background:new 0 0 640 640;" xml:space="preserve">
<style type="text/css">
	.st0{fill:#FFFFFF;}
	.st1{fill:#4D4D4D;}
	.st2{fill:#A2272D;}
	.st3{fill:#FFFFFF;stroke:#4D4D4D;stroke-width:19.6069;stroke-miterlimit:10;}
	.st4{fill:#CCCCCC;}
	.st5{fill:none;stroke:#4D4D4D;stroke-width:19;stroke-miterlimit:10;}
	.st6{fill:#C1272D;}
	.st7{fill:none;stroke:#E6E6E6;stroke-width:3;stroke-miterlimit:10;}
	.st8{fill:none;stroke:#A2272D;stroke-width:3;stroke-linecap:round;stroke-miterlimit:10;}
	.st9{fill:none;stroke:#005337;stroke-width:3;stroke-linecap:round;stroke-miterlimit:10;}
	.st10{stroke:#000000;stroke-width:7.8427;stroke-miterlimit:10;}
	.st11{fill:#FFCC00;}
	.st12{opacity:0.49;fill:#CCCCCC;}
	.st13{opacity:0.51;fill:#CCCCCC;}
	.st14{opacity:0.47;fill:#CCCCCC;}
</style>
<g>
	<g>
		<path class="st0" d="M369.21,151.65c-28.9-10-61.39-8.57-89.85,1.23s-53.06,27.55-72.79,48.75
			c-48.27,51.9-67.34,126.09-49.82,193.83c10.52,40.68,34.31,79.48,70.45,105.09s85.13,36.6,127.75,24.22
			c31.91-9.26,58.24-30.54,77.85-55.43c38.3-48.61,52.97-112.81,39.45-172.65S423.7,170.68,369.55,151.97"/>
		<g>
			<path class="st1" d="M372.34,140.31c-41.44-14.21-88.05-6.71-125.69,14.5c-33.9,19.09-61.98,48.99-80.56,83.03
				c-18.23,33.4-27.95,71.49-27.47,109.56c0.47,37.85,11.01,75.73,30.93,107.98c10.06,16.28,22.49,31.33,37.01,43.83
				c15.67,13.5,33.21,23.93,52.5,31.35c18.24,7.02,37.95,10.84,57.49,11.06c10.03,0.11,20.09-0.87,29.94-2.73
				c10.13-1.92,19.8-5.21,29.26-9.27c35.54-15.29,64.2-45.09,83.43-78.17c19.82-34.1,30.31-73.71,29.77-113.15
				c-0.51-37.25-11.26-74.19-27.2-107.67c-14.86-31.21-36.48-61.19-66.42-79.42c-7.12-4.34-14.78-7.84-22.65-10.58
				c-5.82-2.03-13.12,2.3-14.47,8.22c-1.49,6.56,1.99,12.3,8.22,14.47c2.04,0.71,4.06,1.49,6.06,2.32c-0.94-0.4-1.87-0.79-2.81-1.19
				c8.81,3.74,17.03,8.7,24.61,14.54c-0.79-0.61-1.59-1.23-2.38-1.84c10.1,7.84,18.96,17.13,26.79,27.21
				c-0.61-0.79-1.23-1.59-1.84-2.38c12.2,15.8,21.87,33.43,29.63,51.79c-0.4-0.94-0.79-1.87-1.19-2.81
				c8.87,21.12,15.67,43.52,18.76,66.26c-0.14-1.04-0.28-2.08-0.42-3.13c2.4,18.05,2.36,36.34-0.03,54.39
				c0.14-1.04,0.28-2.08,0.42-3.13c-2.5,18.43-7.43,36.47-14.65,53.61c0.4-0.94,0.79-1.87,1.19-2.81
				c-6.94,16.33-15.92,31.74-26.76,45.79c0.61-0.79,1.23-1.59,1.84-2.38c-9.43,12.16-20.21,23.25-32.36,32.7
				c0.79-0.61,1.59-1.23,2.38-1.84c-9.96,7.68-20.76,14.18-32.34,19.11c0.94-0.4,1.87-0.79,2.81-1.19
				c-10.56,4.44-21.62,7.46-32.97,8.99c1.04-0.14,2.08-0.28,3.13-0.42c-12.54,1.64-25.24,1.51-37.77-0.14
				c1.04,0.14,2.08,0.28,3.13,0.42c-14.24-1.93-28.15-5.79-41.39-11.37c0.94,0.4,1.87,0.79,2.81,1.19
				c-12.58-5.36-24.42-12.25-35.26-20.58c0.79,0.61,1.59,1.23,2.38,1.84c-11.65-9.02-22.06-19.52-31.09-31.16
				c0.61,0.79,1.23,1.59,1.84,2.38c-10.06-13.04-18.32-27.37-24.74-42.54c0.4,0.94,0.79,1.87,1.19,2.81
				c-6.85-16.33-11.51-33.5-13.88-51.06c0.14,1.04,0.28,2.08,0.42,3.13c-2.4-18.14-2.34-36.53,0.06-54.66
				c-0.14,1.04-0.28,2.08-0.42,3.13c2.53-18.71,7.54-37.02,14.87-54.42c-0.4,0.94-0.79,1.87-1.19,2.81
				c7.05-16.62,16.18-32.3,27.2-46.62c-0.61,0.79-1.23,1.59-1.84,2.38c10.64-13.74,22.94-26.18,36.68-36.82
				c-0.79,0.61-1.59,1.23-2.38,1.84c11.83-9.1,24.68-16.79,38.42-22.63c-0.94,0.4-1.87,0.79-2.81,1.19
				c12.3-5.17,25.18-8.75,38.4-10.58c-1.04,0.14-2.08,0.28-3.13,0.42c12.41-1.66,24.97-1.77,37.38-0.14
				c-1.04-0.14-2.08-0.28-3.13-0.42c8.19,1.12,16.24,2.98,24.05,5.66c5.83,2,13.12-2.28,14.47-8.22
				C382.05,148.24,378.58,142.45,372.34,140.31L372.34,140.31z"/>
		</g>
	</g>
	<path class="st2" d="M407,74c77,36,104,129,125,197c30.11,97.5-108.71-46.3-108.71-46.3L342.32,92.15"/>
	<g>
		<path class="st3" d="M356.74,512.89"/>
		<path class="st3" d="M415.37,547.85"/>
		<ellipse class="st3" cx="376.28" cy="562.16" rx="58.63" ry="34.96"/>
	</g>
	<g>
		<path class="st4" d="M476.83,296.7c-13.52-59.84-48.57-126.02-102.72-144.73l-0.33-0.32c-16.04-5.55-33.18-7.57-50.12-6.6
			c3.47,0.45,6.93,1,10.38,1.69c29.5,5.86,58.26,20.97,78.18,44.14l0.13,0.45c37.33,43.39,34.29,118.15,15.85,176.6
			c-18.44,58.45-63.4,106.49-120.91,129.18c-19.12,7.54-39.93,12.34-60.98,12.57c34.1,18.92,76.08,25.89,113.23,15.1
			c31.91-9.26,58.24-30.54,77.85-55.43C475.68,420.75,490.35,356.54,476.83,296.7z"/>
	</g>
	<g>
		<g>
			<path class="st1" d="M372.34,137.31c-41.44-14.21-88.05-6.71-125.69,14.5c-33.9,19.09-61.98,48.99-80.56,83.03
				c-18.23,33.4-27.95,71.49-27.47,109.56c0.47,37.85,11.01,75.73,30.93,107.98c10.06,16.28,22.49,31.33,37.01,43.83
				c15.67,13.5,33.21,23.93,52.5,31.35c18.24,7.02,37.95,10.84,57.49,11.06c10.03,0.11,20.09-0.87,29.94-2.73
				c10.13-1.92,19.8-5.21,29.26-9.27c35.54-15.29,64.2-45.09,83.43-78.17c19.82-34.1,30.31-73.71,29.77-113.15
				c-0.51-37.25-11.26-74.19-27.2-107.67c-14.86-31.21-36.48-61.19-66.42-79.42c-7.12-4.34-14.78-7.84-22.65-10.58
				c-5.82-2.03-13.12,2.3-14.47,8.22c-1.49,6.56,1.99,12.3,8.22,14.47c2.04,0.71,4.06,1.49,6.06,2.32c-0.94-0.4-1.87-0.79-2.81-1.19
				c8.81,3.74,17.03,8.7,24.61,14.54c-0.79-0.61-1.59-1.23-2.38-1.84c10.1,7.84,18.96,17.13,26.79,27.21
				c-0.61-0.79-1.23-1.59-1.84-2.38c12.2,15.8,21.87,33.43,29.63,51.79c-0.4-0.94-0.79-1.87-1.19-2.81
				c8.87,21.12,15.67,43.52,18.76,66.26c-0.14-1.04-0.28-2.08-0.42-3.13c2.4,18.05,2.36,36.34-0.03,54.39
				c0.14-1.04,0.28-2.08,0.42-3.13c-2.5,18.43-7.43,36.47-14.65,53.61c0.4-0.94,0.79-1.87,1.19-2.81
				c-6.94,16.33-15.92,31.74-26.76,45.79c0.61-0.79,1.23-1.59,1.84-2.38c-9.43,12.16-20.21,23.25-32.36,32.7
				c0.79-0.61,1.59-1.23,2.38-1.84c-9.96,7.68-20.76,14.18-32.34,19.11c0.94-0.4,1.87-0.79,2.81-1.19
				c-10.56,4.44-21.62,7.46-32.97,8.99c1.04-0.14,2.08-0.28,3.13-0.42c-12.54,1.64-25.24,1.51-37.77-0.14
				c1.04,0.14,2.08,0.28,3.13,0.42c-14.24-1.93-28.15-5.79-41.39-11.37c0.94,0.4,1.87,0.79,2.81,1.19
				c-12.58-5.36-24.42-12.25-35.26-20.58c0.79,0.61,1.59,1.23,2.38,1.84c-11.65-9.02-22.06-19.52-31.09-31.16
				c0.61,0.79,1.23,1.59,1.84,2.38c-10.06-13.04-18.32-27.37-24.74-42.54c0.4,0.94,0.79,1.87,1.19,2.81
				c-6.85-16.33-11.51-33.5-13.88-51.06c0.14,1.04,0.28,2.08,0.42,3.13c-2.4-18.14-2.34-36.53,0.06-54.66
				c-0.14,1.04-0.28,2.08-0.42,3.13c2.53-18.71,7.54-37.02,14.87-54.42c-0.4,0.94-0.79,1.87-1.19,2.81
				c7.05-16.62,16.18-32.3,27.2-46.62c-0.61,0.79-1.23,1.59-1.84,2.38c10.64-13.74,22.94-26.18,36.68-36.82
				c-0.79,0.61-1.59,1.23-2.38,1.84c11.83-9.1,24.68-16.79,38.42-22.63c-0.94,0.4-1.87,0.79-2.81,1.19
				c12.3-5.17,25.18-8.75,38.4-10.58c-1.04,0.14-2.08,0.28-3.13,0.42c12.41-1.66,24.97-1.77,37.38-0.14
				c-1.04-0.14-2.08-0.28-3.13-0.42c8.19,1.12,16.24,2.98,24.05,5.66c5.83,2,13.12-2.28,14.47-8.22
				C382.05,145.24,378.58,139.45,372.34,137.31L372.34,137.31z"/>
		</g>
	</g>
	<g>
		<path class="st4" d="M422.57,558.64c-3.58-11.62-15.98-26.16-38.08-33.99l-0.13-0.08c-6.54-2.32-13.67-4.11-20.82-5.37
			c1.44,0.37,2.88,0.76,4.3,1.17c12.19,3.51,23.74,8.57,31.29,14.3l0.04,0.09c14.16,10.74,10.26,23.58,0.47,32.27
			c-9.79,8.69-30.36,13.33-55.32,12.47c-8.3-0.29-17.2-1.19-26.06-2.92c13.66,6.18,31.05,10.93,47.03,12.16
			c13.73,1.06,25.54-0.46,34.64-3.17C417.74,580.28,426.15,570.26,422.57,558.64z"/>
	</g>
	<g>
		<path class="st5" d="M354.12,511.58"/>
		<path class="st5" d="M412.75,546.54"/>
		<ellipse class="st5" cx="373.67" cy="560.86" rx="58.63" ry="34.96"/>
	</g>
	<g>
		<path class="st3" d="M235.78,512.89"/>
		<path class="st3" d="M294.41,547.85"/>
		<ellipse class="st3" cx="255.32" cy="562.16" rx="58.63" ry="34.96"/>
	</g>
	<g>
		<path class="st4" d="M301.61,558.64c-3.58-11.62-15.98-26.16-38.08-33.99l-0.13-0.08c-6.54-2.32-13.67-4.11-20.82-5.37
			c1.44,0.37,2.88,0.76,4.3,1.17c12.19,3.51,23.74,8.57,31.29,14.3l0.04,0.09c14.16,10.74,10.26,23.58,0.47,32.27
			c-9.79,8.69-30.36,13.33-55.32,12.47c-8.3-0.29-17.2-1.19-26.06-2.92c13.66,6.18,31.05,10.93,47.03,12.16
			c13.73,1.06,25.54-0.46,34.64-3.17C296.78,580.28,305.19,570.26,301.61,558.64z"/>
	</g>
	<g>
		<path class="st5" d="M233.16,511.58"/>
		<path class="st5" d="M291.79,546.54"/>
		<ellipse class="st5" cx="252.71" cy="560.86" rx="58.63" ry="34.96"/>
	</g>
	<path class="st6" d="M402,519c-59.32,14.63-120.78,14.08-184,1c-44.1-36.78-66.43-81.55-76-131l345,6
		C469.84,442.77,444.75,485.97,402,519z"/>
	<path class="st2" d="M492.46,393.51c-106.51,51.59-320.27,36-357.08-9.42c-1.19-1.47-2.01-3.21-2.31-5.08
		c-2.63-16.48-2.27-33.48,0.65-50.91c1.16-6.9,8.55-10.82,14.96-8.01c109.74,48.04,226.5,39.54,339.24-1.28
		c6.33-2.29,13.2,1.66,14.35,8.29c3.54,20.39,2.29,40.44-4.27,60.13C497.09,389.98,495.08,392.25,492.46,393.51z"/>
	<path class="st6" d="M491.04,390.23c-106.82,52.17-322.81,36.21-358.16-9.79c-0.91-1.18-1.5-2.58-1.73-4.04
		c-2.8-17.2-2.32-34.96,0.92-53.2c1.05-5.92,7.38-9.33,12.88-6.9c110.8,49.15,228.82,40.45,342.69-1.12
		c5.36-1.96,11.25,1.33,12.31,6.94c4.01,21.27,2.84,42.18-4.12,62.7C495.01,387.2,493.29,389.14,491.04,390.23z"/>
	<path class="st6" d="M320,187H187.34c-2.19-9.19,2.73-18.52,7.66-26c27-41,99.93-119.64,197-94c53,14,71.11,98.72,61.27,147.1
		L320,187z"/>
	<path class="st2" d="M461.52,181.29c-93.74-30.28-186.51-33.1-278.36-9.5c-2.07,0.53-3.93,1.71-5.3,3.35
		c-13.67,16.33-20.79,37.33-19.7,58.12c0.2,3.79,3.76,6.5,7.44,5.61c110.52-26.8,209.65-25.27,301.06,7.92
		c3.71,1.35,7.68-1.18,8.07-5.11c2-20.08,1.61-39.79-7.45-55.66C466.01,183.78,463.97,182.08,461.52,181.29z"/>
	<path class="st6" d="M460.45,182.75c-93.85-29.93-186.64-32.41-278.39-8.47c-2.07,0.54-3.92,1.72-5.29,3.37
		c-13.61,16.38-20.66,37.41-19.49,58.19c0.21,3.79,3.78,6.49,7.47,5.58c110.42-27.21,209.56-26.04,301.09,6.81
		c3.72,1.33,7.68-1.2,8.05-5.14c1.92-20.09,1.46-39.79-7.65-55.64C464.95,185.23,462.9,183.54,460.45,182.75z"/>
	<g>
		<g>
			<path class="st2" d="M307.59,133.45c-0.64,0.09-1.28,0.18-1.92,0.27c0.67,0.02,1.34,0.07,2,0.1L307.59,133.45z"/>
		</g>
		<g>
			<path class="st2" d="M414,417.12c-8.36,34.48-38.41,57.57-70,73.81c-18.32,9.42-64.06,24.04-85,26.29
				c51,5.06,77,3.03,118.26-4.68c32.68-6.11,55.1-36.31,72.27-63.23c9.18-14.39,19.1-33.33,24.48-49.31L414,417.12z"/>
		</g>
	</g>
	<g>
		<line class="st7" x1="295.75" y1="450.92" x2="329.68" y2="470.55"/>
		<line class="st7" x1="312.91" y1="441.17" x2="313.1" y2="480.3"/>
		<line class="st7" x1="295.75" y1="470.67" x2="330" y2="450.92"/>
		<line class="st7" x1="302.71" y1="447.82" x2="302.71" y2="454.97"/>
		<line class="st7" x1="296.38" y1="458.27" x2="302.71" y2="454.97"/>
		<line class="st7" x1="319.55" y1="445.03" x2="312.84" y2="448.96"/>
		<line class="st7" x1="306.83" y1="445.29" x2="312.84" y2="448.96"/>
		<line class="st7" x1="306.3" y1="476.52" x2="313.01" y2="472.59"/>
		<line class="st7" x1="319.03" y1="476.26" x2="313.01" y2="472.59"/>
		<line class="st7" x1="323.29" y1="473.78" x2="323.34" y2="466.66"/>
		<line class="st7" x1="329.38" y1="463.03" x2="323.34" y2="466.66"/>
		<line class="st7" x1="296.65" y1="463.01" x2="302.62" y2="466.87"/>
		<line class="st7" x1="302.46" y1="473.91" x2="302.62" y2="466.87"/>
		<line class="st7" x1="329.24" y1="458.28" x2="323.42" y2="454.85"/>
		<line class="st7" x1="323.29" y1="447.82" x2="323.3" y2="455"/>
	</g>
	<path class="st8" d="M154.5,334.5c-4,17-4,27-2,45"/>
	<path class="st8" d="M181.99,345.81c-4,17-4,27-2,45"/>
	<path class="st8" d="M210.94,355.03c-0.44,18.47-1.57,26.92-2,45"/>
	<path class="st8" d="M474.62,337.5c4,17,4,27,2,45"/>
	<path class="st8" d="M447.13,348.81c4,17,4,27,2,45"/>
	<path class="st8" d="M418.19,358.03c0.44,18.47,1.57,26.92,2,45"/>
	<path class="st8" d="M244.61,359.98c-0.44,18.6-1.58,27.09-2.01,45.3"/>
	<path class="st8" d="M276.51,367.98c-0.62,16.95-1.3,24.71-1.91,41.3"/>
	<path class="st8" d="M315.25,372.28c-0.3,15.97-1.41,23.26-1.7,38.89"/>
	<path class="st8" d="M355.21,369.65c-0.62,16.95-1.3,24.71-1.91,41.3"/>
	<path class="st8" d="M390.21,365.65c-0.62,16.95-1.3,24.71-1.91,41.3"/>
	<path class="st9" d="M328.22,171.84c-0.35,15.97-1.48,23.25-1.82,38.88"/>
	<path class="st9" d="M295.22,171.84c-0.35,15.97-1.48,23.25-1.82,38.88"/>
	<path class="st9" d="M360.22,176.84c-0.44,19.97-1.46,25.02-1.72,36.66"/>
	<path class="st9" d="M390.22,180.8c1.28,16.7,2.39,17.52-0.72,36.7"/>
	<path class="st9" d="M418.23,185.78c3.27,14.72,1.27,24.72,0.15,38.93"/>
	<path class="st9" d="M445.1,191.81c5.4,19.69,3.4,24.69,2.4,38.85"/>
	<path class="st9" d="M240.96,176.43c-4.8,16.05-4.43,17.85-4.01,36.49"/>
	<path class="st9" d="M213.59,179.21c-6.09,12.29-7.21,25.09-6.09,39.29"/>
	<path class="st9" d="M186.72,187.25c-8.22,13.25-10.21,27.09-9.22,41.25"/>
	<path class="st9" d="M267.72,172.86c-0.44,19.97-1.46,25.02-1.72,36.66"/>
	<circle class="st0" cx="251.94" cy="403.86" r="26"/>
	<g>

			<ellipse transform="matrix(0.0681 -0.9977 0.9977 0.0681 -110.8365 691.0245)" class="st4" cx="314.49" cy="404.84" rx="93.68" ry="88.89"/>

			<ellipse transform="matrix(0.0681 -0.9977 0.9977 0.0681 -133.2236 558.1699)" class="st4" cx="232.18" cy="350.4" rx="25.56" ry="24.25"/>

			<ellipse transform="matrix(0.0681 -0.9977 0.9977 0.0681 -176.5932 577.8252)" class="st4" cx="221.02" cy="383.44" rx="25.56" ry="24.25"/>

			<ellipse transform="matrix(0.0681 -0.9977 0.9977 0.0681 -211.3067 610.6449)" class="st4" cx="221.23" cy="418.44" rx="25.56" ry="24.25"/>

			<ellipse transform="matrix(0.0681 -0.9977 0.9977 0.0681 -231.504 654.6925)" class="st4" cx="234.71" cy="451.27" rx="25.56" ry="24.25"/>

			<ellipse transform="matrix(0.0681 -0.9977 0.9977 0.0681 -235.5919 702.1526)" class="st4" cx="258.07" cy="477.19" rx="25.56" ry="24.25"/>

			<ellipse transform="matrix(0.0681 -0.9977 0.9977 0.0681 -224.7504 745.2787)" class="st4" cx="286.58" cy="492.95" rx="25.56" ry="24.25"/>

			<ellipse transform="matrix(0.0681 -0.9977 0.9977 0.0681 -199.4443 781.3718)" class="st4" cx="318.55" cy="497.45" rx="25.56" ry="24.25"/>

			<ellipse transform="matrix(0.0681 -0.9977 0.9977 0.0681 -162.726 806.0784)" class="st4" cx="350.14" cy="490.15" rx="25.56" ry="24.25"/>

			<ellipse transform="matrix(0.0681 -0.9977 0.9977 0.0681 -119.024 816.4188)" class="st4" cx="377.52" cy="471.92" rx="25.56" ry="24.25"/>

			<ellipse transform="matrix(0.0681 -0.9977 0.9977 0.0681 -73.6097 811.1456)" class="st4" cx="397.41" cy="444.98" rx="25.56" ry="24.25"/>

			<ellipse transform="matrix(0.0681 -0.9977 0.9977 0.0681 -31.9606 790.8948)" class="st4" cx="407.39" cy="412.56" rx="25.56" ry="24.25"/>

			<ellipse transform="matrix(0.0681 -0.9977 0.9977 0.0681 -1.8047 750.4625)" class="st4" cx="400.83" cy="376.2" rx="25.56" ry="24.25"/>

			<ellipse transform="matrix(0.0681 -0.9977 0.9977 0.0681 15.7723 710.6083)" class="st4" cx="388.28" cy="346.86" rx="25.56" ry="24.25"/>
	</g>
	<g>

			<ellipse transform="matrix(0.0748 -0.9972 0.9972 0.0748 -102.3407 678.4939)" class="st0" cx="314.49" cy="394.4" rx="93.24" ry="88.89"/>

			<ellipse transform="matrix(0.0748 -0.9972 0.9972 0.0748 -124.4575 546.2822)" class="st0" cx="232.18" cy="340.22" rx="25.44" ry="24.25"/>

			<ellipse transform="matrix(0.0748 -0.9972 0.9972 0.0748 -167.5807 565.5767)" class="st0" cx="221.02" cy="373.1" rx="25.44" ry="24.25"/>

			<ellipse transform="matrix(0.0748 -0.9972 0.9972 0.0748 -202.114 598.0085)" class="st0" cx="221.23" cy="407.93" rx="25.44" ry="24.25"/>

			<ellipse transform="matrix(0.0748 -0.9972 0.9972 0.0748 -222.2315 641.6857)" class="st0" cx="234.71" cy="440.61" rx="25.44" ry="24.25"/>

			<ellipse transform="matrix(0.0748 -0.9972 0.9972 0.0748 -226.3418 688.8474)" class="st0" cx="258.07" cy="466.41" rx="25.44" ry="24.25"/>

			<ellipse transform="matrix(0.0748 -0.9972 0.9972 0.0748 -215.6099 731.785)" class="st0" cx="286.58" cy="482.09" rx="25.44" ry="24.25"/>

			<ellipse transform="matrix(0.0748 -0.9972 0.9972 0.0748 -190.4952 767.8128)" class="st0" cx="318.55" cy="486.57" rx="25.44" ry="24.25"/>

			<ellipse transform="matrix(0.0748 -0.9972 0.9972 0.0748 -154.0268 792.5853)" class="st0" cx="350.14" cy="479.3" rx="25.44" ry="24.25"/>

			<ellipse transform="matrix(0.0748 -0.9972 0.9972 0.0748 -110.6034 803.1144)" class="st0" cx="377.52" cy="461.17" rx="25.44" ry="24.25"/>

			<ellipse transform="matrix(0.0748 -0.9972 0.9972 0.0748 -65.4624 798.1302)" class="st0" cx="397.41" cy="434.35" rx="25.44" ry="24.25"/>

			<ellipse transform="matrix(0.0748 -0.9972 0.9972 0.0748 -24.0486 778.234)" class="st0" cx="407.39" cy="402.08" rx="25.44" ry="24.25"/>

			<ellipse transform="matrix(0.0748 -0.9972 0.9972 0.0748 5.9628 738.2078)" class="st0" cx="400.83" cy="365.89" rx="25.44" ry="24.25"/>

			<ellipse transform="matrix(0.0748 -0.9972 0.9972 0.0748 23.4718 698.6848)" class="st0" cx="388.28" cy="336.69" rx="25.44" ry="24.25"/>
	</g>
	<path class="st10" d="M389.79,324.59H237.77c-8.63,0-15.69-7.06-15.69-15.69v-53.68c0-8.63,7.06-15.69,15.69-15.69h152.02
		c8.63,0,15.69,7.06,15.69,15.69v53.68C405.47,317.53,398.41,324.59,389.79,324.59z"/>
	<g>
		<circle class="st11" cx="291.11" cy="286.49" r="7.56"/>
		<circle class="st11" cx="245.78" cy="286.49" r="7.56"/>
		<circle class="st11" cx="259.21" cy="271.38" r="7.56"/>
		<circle class="st11" cx="277.68" cy="271.38" r="7.56"/>
		<circle class="st11" cx="381.78" cy="286.49" r="7.56"/>
		<circle class="st11" cx="336.44" cy="286.49" r="7.56"/>
		<circle class="st11" cx="349.88" cy="271.38" r="7.56"/>
		<circle class="st11" cx="368.34" cy="271.38" r="7.56"/>
	</g>
	<path class="st0" d="M232,472"/>
	<g>
		<path class="st4" d="M276.15,309.79c-38.5,15.56-54.97,27.36-86.44,21.4c-31.48-5.97,30.37,36.54,84.3,31.31L276.15,309.79z"/>
		<path class="st0" d="M316.34,327.06c-2.42-16.51-17.77-27.93-34.28-25.5c-4.44,0.65-8.5,2.24-12.03,4.53
			c-33.83,16.81-49.46,28.37-79.82,24.76c-31.81-3.78,47.18,39.38,100.63,30.49C307.34,358.92,318.76,343.57,316.34,327.06z"/>
	</g>
	<path class="st12" d="M296.21,347.02c-24.68,6.19-58.17,2.75-74.21-1.02c8.37,4.38,45.67,11.54,71.57,4.59
		c5.11-1.29,9.25-4.02,11.9-7.46C302.87,344.84,299.73,346.19,296.21,347.02z"/>
	<g>
		<path class="st4" d="M356.69,309.79c38.5,15.56,54.97,27.36,86.44,21.4c31.48-5.97-30.37,36.54-84.3,31.31L356.69,309.79z"/>
		<path class="st0" d="M442.62,330.86c-30.36,3.6-45.99-7.95-79.82-24.76c-3.53-2.29-7.6-3.88-12.03-4.53
			c-16.51-2.42-31.86,9-34.28,25.5s9,31.86,25.5,34.28C395.45,370.24,474.43,327.08,442.62,330.86z"/>
	</g>
	<g>

			<ellipse transform="matrix(0.0748 -0.9972 0.9972 0.0748 -7.0684 376.0666)" class="st4" cx="199.14" cy="191.84" rx="25.44" ry="24.25"/>

			<ellipse transform="matrix(0.0748 -0.9972 0.9972 0.0748 29.9125 401.9272)" class="st4" cx="231.57" cy="184.84" rx="25.44" ry="24.25"/>

			<ellipse transform="matrix(0.0748 -0.9972 0.9972 0.0748 64.899 429.638)" class="st4" cx="264" cy="179.84" rx="25.44" ry="24.25"/>

			<ellipse transform="matrix(0.0748 -0.9972 0.9972 0.0748 97.8912 459.1992)" class="st4" cx="296.42" cy="176.84" rx="25.44" ry="24.25"/>

			<ellipse transform="matrix(0.0748 -0.9972 0.9972 0.0748 129.8861 489.6855)" class="st4" cx="328.85" cy="174.84" rx="25.44" ry="24.25"/>

			<ellipse transform="matrix(0.0748 -0.9972 0.9972 0.0748 157.8922 523.8725)" class="st4" cx="361.28" cy="176.84" rx="25.44" ry="24.25"/>

			<ellipse transform="matrix(0.0748 -0.9972 0.9972 0.0748 183.904 559.9097)" class="st4" cx="393.71" cy="180.84" rx="25.44" ry="24.25"/>

			<ellipse transform="matrix(0.0748 -0.9972 0.9972 0.0748 207.9214 597.7973)" class="st4" cx="426.13" cy="186.84" rx="25.44" ry="24.25"/>

			<ellipse transform="matrix(0.0748 -0.9972 0.9972 0.0748 218.9752 647.7119)" class="st4" cx="458.56" cy="205.84" rx="25.44" ry="24.25"/>

			<ellipse transform="matrix(0.0748 -0.9972 0.9972 0.0748 196.6767 677.6771)" class="st4" cx="463.56" cy="232.84" rx="25.44" ry="24.25"/>

			<ellipse transform="matrix(0.0748 -0.9972 0.9972 0.0748 175.0003 630.3127)" class="st4" cx="427.2" cy="220.84" rx="25.44" ry="24.25"/>

			<ellipse transform="matrix(0.0748 -0.9972 0.9972 0.0748 146.3434 589.4244)" class="st4" cx="390.83" cy="215.84" rx="25.44" ry="24.25"/>

			<ellipse transform="matrix(0.0748 -0.9972 0.9972 0.0748 118.6838 547.611)" class="st4" cx="354.47" cy="209.84" rx="25.44" ry="24.25"/>

			<ellipse transform="matrix(0.0748 -0.9972 0.9972 0.0748 88.0326 508.573)" class="st4" cx="318.1" cy="206.84" rx="25.44" ry="24.25"/>

			<ellipse transform="matrix(0.0748 -0.9972 0.9972 0.0748 -50.6495 356.3294)" class="st4" cx="166.71" cy="205.46" rx="25.15" ry="23.97"/>

			<ellipse transform="matrix(0.0748 -0.9972 0.9972 0.0748 -27.2935 413.143)" class="st4" cx="209.01" cy="221.28" rx="25.15" ry="23.97"/>

			<ellipse transform="matrix(0.0748 -0.9972 0.9972 0.0748 14.7638 441.5989)" class="st4" cx="245.37" cy="212.84" rx="25.44" ry="24.25"/>

			<ellipse transform="matrix(0.0748 -0.9972 0.9972 0.0748 54.3898 472.3105)" class="st4" cx="281.74" cy="206.84" rx="25.44" ry="24.25"/>

			<ellipse transform="matrix(0.0748 -0.9972 0.9972 0.0748 -72.7676 387.8571)" class="st4" cx="172.65" cy="233.15" rx="25.15" ry="23.97"/>
	</g>
	<g>

			<ellipse transform="matrix(0.0748 -0.9972 0.9972 0.0748 0.9092 368.6653)" class="st0" cx="199.14" cy="183.84" rx="25.44" ry="24.25"/>

			<ellipse transform="matrix(0.0748 -0.9972 0.9972 0.0748 37.8901 394.5259)" class="st0" cx="231.57" cy="176.84" rx="25.44" ry="24.25"/>

			<ellipse transform="matrix(0.0748 -0.9972 0.9972 0.0748 72.8766 422.2368)" class="st0" cx="264" cy="171.84" rx="25.44" ry="24.25"/>

			<ellipse transform="matrix(0.0748 -0.9972 0.9972 0.0748 105.8687 451.798)" class="st0" cx="296.42" cy="168.84" rx="25.44" ry="24.25"/>

			<ellipse transform="matrix(0.0748 -0.9972 0.9972 0.0748 137.8636 482.2843)" class="st0" cx="328.85" cy="166.84" rx="25.44" ry="24.25"/>

			<ellipse transform="matrix(0.0748 -0.9972 0.9972 0.0748 165.8698 516.4713)" class="st0" cx="361.28" cy="168.84" rx="25.44" ry="24.25"/>

			<ellipse transform="matrix(0.0748 -0.9972 0.9972 0.0748 191.8816 552.5085)" class="st0" cx="393.71" cy="172.84" rx="25.44" ry="24.25"/>

			<ellipse transform="matrix(0.0748 -0.9972 0.9972 0.0748 215.8989 590.3961)" class="st0" cx="426.13" cy="178.84" rx="25.44" ry="24.25"/>

			<ellipse transform="matrix(0.0748 -0.9972 0.9972 0.0748 226.9528 640.3107)" class="st0" cx="458.56" cy="197.84" rx="25.44" ry="24.25"/>

			<ellipse transform="matrix(0.0748 -0.9972 0.9972 0.0748 204.6543 670.2758)" class="st0" cx="463.56" cy="224.84" rx="25.44" ry="24.25"/>

			<ellipse transform="matrix(0.0748 -0.9972 0.9972 0.0748 182.9778 622.9114)" class="st0" cx="427.2" cy="212.84" rx="25.44" ry="24.25"/>

			<ellipse transform="matrix(0.0748 -0.9972 0.9972 0.0748 154.321 582.0232)" class="st0" cx="390.83" cy="207.84" rx="25.44" ry="24.25"/>

			<ellipse transform="matrix(0.0748 -0.9972 0.9972 0.0748 126.6614 540.2097)" class="st0" cx="354.47" cy="201.84" rx="25.44" ry="24.25"/>

			<ellipse transform="matrix(0.0748 -0.9972 0.9972 0.0748 96.0102 501.1718)" class="st0" cx="318.1" cy="198.84" rx="25.44" ry="24.25"/>

			<ellipse transform="matrix(0.0748 -0.9972 0.9972 0.0748 -42.672 348.9282)" class="st0" cx="166.71" cy="197.46" rx="25.15" ry="23.97"/>

			<ellipse transform="matrix(0.0748 -0.9972 0.9972 0.0748 -19.316 405.7418)" class="st0" cx="209.01" cy="213.28" rx="25.15" ry="23.97"/>

			<ellipse transform="matrix(0.0748 -0.9972 0.9972 0.0748 22.7414 434.1976)" class="st0" cx="245.37" cy="204.84" rx="25.44" ry="24.25"/>

			<ellipse transform="matrix(0.0748 -0.9972 0.9972 0.0748 62.3674 464.9092)" class="st0" cx="281.74" cy="198.84" rx="25.44" ry="24.25"/>

			<ellipse transform="matrix(0.0748 -0.9972 0.9972 0.0748 -64.7901 380.4559)" class="st0" cx="172.65" cy="225.15" rx="25.15" ry="23.97"/>
	</g>
	<path class="st12" d="M335.26,347.02c24.68,6.19,58.17,2.75,74.21-1.02c-8.37,4.38-45.67,11.54-71.57,4.59
		c-5.11-1.29-9.25-4.02-11.9-7.46C328.61,344.84,331.74,346.19,335.26,347.02z"/>
</g>
<path class="st13" d="M272.5,471.59c6.44-3.52,15.32-3.88,23.19-0.31c4.89,2.22,8.58,5.59,10.79,9.41
	c0.21-6.47-3.45-12.86-9.93-16.09C287.72,460.2,277,463.33,272.5,471.59z"/>
<path class="st13" d="M365.49,471.59c-6.44-3.52-15.32-3.88-23.19-0.31c-4.89,2.22-8.58,5.59-10.79,9.41
	c-0.21-6.47,3.45-12.86,9.93-16.09C350.26,460.2,360.99,463.33,365.49,471.59z"/>
<path class="st13" d="M339.1,413.66c-7.12-3.31-17.78-4.57-27.94-2.83c-6.31,1.08-11.39,3.14-14.75,5.71
	c0.94-4.78,6.53-9.06,14.94-10.71C322.82,403.58,335.19,407.09,339.1,413.66z"/>
<path class="st13" d="M272.4,392.43c-2.7-5.98-8.88-11.91-16.48-15.17c-4.72-2.02-9.2-2.68-12.87-2.14
	c3.37-3.46,9.48-4.38,15.89-1.85C267.68,376.72,273.67,385.28,272.4,392.43z"/>
<path class="st13" d="M364.22,392.43c2.7-5.98,8.88-11.91,16.48-15.17c4.72-2.02,9.2-2.68,12.87-2.14
	c-3.37-3.46-9.48-4.38-15.89-1.85C368.95,376.72,362.96,385.28,364.22,392.43z"/>
<path class="st13" d="M238.31,418.57c7.34,0.15,15.22,4.25,20.28,11.26c3.14,4.35,4.67,9.12,4.68,13.53
	c3.4-5.51,3.4-12.87-0.61-18.89C257.19,416.25,246.32,413.64,238.31,418.57z"/>
<path class="st13" d="M393.75,418.57c-7.34,0.15-15.22,4.25-20.28,11.26c-3.14,4.35-4.67,9.12-4.68,13.53
	c-3.4-5.51-3.4-12.87,0.61-18.89C374.87,416.25,385.74,413.64,393.75,418.57z"/>
<path class="st14" d="M344.67,321.9c4.55,0.08,8.83,0.83,12.65,2.1c34.26,8.25,45.39,20.62,72.98,16.93
	c1.48-1.45-0.12-2.21-5.85-1.73c-26.44,2.21-34.06-10.89-63.52-21.22c-3.08-1.41-6.62-2.39-10.48-2.79
	c-13.28-1.38-25.69,4.51-29.17,13.41C327.11,324.35,335.49,321.74,344.67,321.9z"/>
<path class="st14" d="M285.43,319.9c-4.55,0.08-8.83,0.83-12.65,2.1c-34.26,8.25-45.39,20.62-72.98,16.93
	c-1.48-1.45,0.12-2.21,5.85-1.73c26.44,2.21,34.06-10.89,63.52-21.22c3.08-1.41,6.62-2.39,10.48-2.79
	c13.28-1.38,25.69,4.51,29.17,13.41C302.98,322.35,294.61,319.74,285.43,319.9z"/>
<path class="st13" d="M471.49,204.9c-6.95,0.22-15.3,3.85-21.63,9.95c-3.93,3.78-6.43,7.89-7.42,11.68
	c-1.98-4.69-0.35-11.01,4.78-16.24C454.2,203.17,465.03,200.78,471.49,204.9z"/>
<path class="st13" d="M379.4,173.54c-5.74,3.92-14.63,5.92-23.33,4.73c-5.4-0.74-9.85-2.58-12.88-5.06
	c1.17,4.95,6.22,9.09,13.44,10.29C366.47,185.14,376.62,180.68,379.4,173.54z"/>
<path class="st13" d="M441.83,190.11c-6.24,3.06-15.32,3.77-23.76,1.36c-5.24-1.5-9.38-3.96-12.03-6.84
	c0.45,5.07,4.86,9.89,11.83,12.1C427.38,199.75,438.06,196.79,441.83,190.11z"/>
<path class="st13" d="M314.4,170.54c-5.74,3.92-14.63,5.92-23.33,4.73c-5.4-0.74-9.85-2.58-12.88-5.06
	c1.17,4.95,6.22,9.09,13.44,10.29C301.47,182.14,311.62,177.68,314.4,170.54z"/>
<path class="st13" d="M249.62,180.65c-5.34,4.45-14,7.28-22.77,6.93c-5.45-0.22-10.05-1.63-13.3-3.81
	c1.63,4.82,7.05,8.46,14.35,8.97C237.85,193.42,247.53,188.02,249.62,180.65z"/>
<path class="st13" d="M224.57,204.54c-6.66-2-15.73-1.21-23.67,2.55c-4.93,2.34-8.6,5.44-10.75,8.72
	c-0.39-5.07,3.17-10.55,9.69-13.88C208.74,197.4,219.76,198.58,224.57,204.54z"/>
<path class="st13" d="M285.38,194.78c-6.02-3.48-15.03-4.81-23.62-2.97c-5.33,1.14-9.63,3.31-12.47,6.01
	c0.79-5.03,5.52-9.53,12.63-11.27C271.61,184.18,282.07,187.87,285.38,194.78z"/>
<path class="st13" d="M181.44,190.17c0.66,6.77-2.32,14.35-8.32,19.53c-3.73,3.21-8.01,4.97-12.13,5.31
	c5.51,2.73,12.39,2.19,17.58-1.95C185.65,207.4,186.91,197.19,181.44,190.17z"/>
<path class="st13" d="M338.77,191.52c-5.74-3.92-14.63-5.92-23.33-4.73c-5.4,0.74-9.85,2.58-12.88,5.06
	c1.17-4.95,6.22-9.09,13.44-10.29C325.84,179.92,335.99,184.38,338.77,191.52z"/>
<path class="st13" d="M410.11,206.99c-4.99-4.84-13.41-8.32-22.18-8.63c-5.45-0.19-10.14,0.87-13.55,2.79
	c1.99-4.68,7.68-7.9,14.99-7.86C399.34,193.36,408.59,199.48,410.11,206.99z"/>
<path class="st4" d="M558.17,308.57c0.8-1.33,1.37-2.86,1.61-4.51c0.95-6.43-3.26-12.41-9.38-13.35c-3.23-0.5-6.35,0.52-8.72,2.52
	c-1.72-1.47-3.87-2.43-6.25-2.62c-6.18-0.48-11.56,4.38-12.03,10.86c-0.19,2.73,0.52,5.3,1.87,7.41c-0.89,1.39-1.51,3-1.77,4.76
	c-0.94,6.43,3.26,12.41,9.38,13.35c3.22,0.5,6.31-0.5,8.68-2.48c1.66,1.86,3.9,3.17,6.5,3.57c6.13,0.94,11.86-3.5,12.81-9.93
	C561.4,314.55,560.31,311.08,558.17,308.57z"/>
<path class="st0" d="M556.48,308.18c0.74-1.23,1.26-2.63,1.49-4.16c0.87-5.93-3-11.45-8.66-12.32c-2.98-0.46-5.86,0.48-8.04,2.33
	c-1.59-1.36-3.57-2.24-5.76-2.41c-5.7-0.45-10.67,4.04-11.09,10.02c-0.18,2.52,0.48,4.89,1.73,6.84c-0.82,1.29-1.4,2.77-1.64,4.39
	c-0.87,5.93,3,11.45,8.66,12.32c2.97,0.46,5.83-0.46,8.01-2.29c1.53,1.71,3.6,2.92,5.99,3.29c5.65,0.87,10.94-3.23,11.81-9.16
	C559.45,313.69,558.45,310.5,556.48,308.18z"/>
<path class="st13" d="M552.58,307.75c-3.23,0.09-7.11,1.77-10.04,4.6c-1.82,1.76-2.97,3.67-3.42,5.44
	c-0.93-2.19-0.19-5.15,2.19-7.58C544.53,306.9,549.56,305.81,552.58,307.75z"/>
<path class="st13" d="M543.57,299.14c-0.85,3.12-3.4,6.49-6.85,8.66c-2.14,1.35-4.27,2.02-6.1,2.04c1.91,1.43,4.96,1.4,7.88-0.33
	C542.49,307.16,544.74,302.53,543.57,299.14z"/>
</svg>
