<svg id="Laag_1" data-name="Laag 1" xmlns="http://www.w3.org/2000/svg" width="1052.8" height="167.6" viewBox="0 0 1052.8 167.6"><defs><style>.cls-1{fill:#fc0;}</style></defs><path class="cls-1" d="M973.5,322V296.6c10.7,0,25.9-1.9,25.7,11.5C998.8,323.1,985,322.2,973.5,322Zm0,8.3v28.4c12.2-.1,29.2,2.3,29.6-14.4C1003.3,329.1,986.6,330.1,973.5,330.3Zm-60.6-32.5c.2,2.6-12.5,35.5-13.6,38.8h27.4c-1.1-3.4-13.9-36.1-13.6-38.8Zm141.1-23v98.8a32.4,32.4,0,0,1-32.4,32.4H815.4A32.4,32.4,0,0,1,783,373.6V274.8a32.4,32.4,0,0,1,32.4-32.4h206.2A32.4,32.4,0,0,1,1054,274.8ZM870.8,358.7H839.1V288.2h-9.2V367h40.9Zm77.5,8.3-30.4-78.8h-9.5L878.1,367h10.3l7.9-22.1h33.4L938,367Zm46.9-41.8v-.3c13.5-3.5,18.8-22.7,7.7-31.7-4-3.3-9.4-5-16.2-5H964.2V367h23c7.4,0,13.5-2.1,18.3-6.2C1018.5,349.6,1013.7,326.6,995.2,325.2Z" transform="translate(-1.2 -238.4)"/><path d="M56,239.9H73.2l54.9,151.2H99L64.6,287.9,30.3,391.1H1.2ZM27.5,339.4H103v27.5H27.5Zm133.1,51.1c-12.5-2.8-24.5-8.3-33.9-16.5l12.5-23.5c11.1,9.7,26.6,15,41.5,14.9s27.3-3.8,27.8-18.1c0-4-1.1-7.3-3.3-9.6-5.9-6.2-13.8-6.5-23-8.4-17.6-3.3-31.6-4.7-42.1-18.9-8.8-11.4-8.7-38.1-.4-50.7,4.1-7,10.2-12.2,18.1-15.9,22.6-10.4,54.4-5.2,74.7,10.4L221,278.3c-14.4-11.2-38.5-17.5-53.9-8.4-8,4.3-8.8,16.6-3.2,22.6a21.1,21.1,0,0,0,8.8,5.6c18.6,6.1,44.9,6,56.5,24.2,8.4,11.6,8.1,36.9-.3,49.3C215.4,393.1,184.5,395.5,160.6,390.5Zm80.7-150.7h27V391.1h-27Zm10.7,63h50c9.4.2,14.1-9,14-17.7s-4.5-18-14-17.8H252V239.8h52.1a39.1,39.1,0,0,1,20.9,5.6c13.2,8.4,18.9,23.4,18.8,39.7s-5.6,31.2-18.9,39.6a38.8,38.8,0,0,1-20.8,5.6H252Zm30.2,22.8,29-4.8,38.6,70.3H317.1Zm88.4,61.7c-19-10.4-20.8-30.6-20-51,0-17.4,4.8-32.8,19.2-41.5,11.7-7,32.7-7.9,44.1,1.1,16.2,12.3,18.6,34.9,18.1,55.9H366.9V333.9h42.2c-.5-6-2.2-12.4-5.5-15.8-5.8-7.2-19.9-5.6-25.2,1s-4.9,20.1-5,28.9c-.8,23.1,25,27.1,39.7,14.2l16.5,15.4C414.6,392.9,388.7,397.1,370.6,387.3Zm118.6-96.5h25.1L478.5,391.1H460.7L424.9,290.8h25l19.7,62.9Zm30.3-40.2h25.1v26.5H519.5Zm0,40.2h25.1V391.1H519.5Zm51.4,96.5c-19.1-10.4-20.8-30.6-20.1-51,.1-17.4,4.9-32.8,19.2-41.5,11.8-7,32.7-7.9,44.1,1.1,16.2,12.3,18.6,34.9,18.2,55.9H567.1V333.9h42.3c-.5-6-2.3-12.4-5.5-15.8-5.9-7.2-19.9-5.6-25.2,1s-5,20.1-5,28.9c-.9,23.1,24.9,27.1,39.7,14.2l16.4,15.4C614.9,392.9,589,397.1,570.9,387.3Zm57-96.5H652l16.9,62,20.1-62h14.9l20.1,62,16.9-62H765L735.6,391.1H716.9l-20.4-65.4L676,391.1H657.3Z" transform="translate(-1.2 -238.4)"/></svg>