<?xml version="1.0" encoding="utf-8"?>
<svg viewBox="0 0 1133.9 881.369" xmlns="http://www.w3.org/2000/svg">
  <defs>
    <style>.a{fill:#cdcccc;}.b,.e,.l{fill:#fff;}.b,.c,.d,.l,.m{stroke:#4e4d4d;}.b,.c,.d,.g,.i,.j,.k,.l,.m{stroke-miterlimit:10;}.b,.d{stroke-width:22.33px;}.c,.d,.i,.j,.m{fill:none;}.c{stroke-width:22.33px;}.f{fill:#4e4d4d;}.g{fill:#010101;stroke:#010101;stroke-width:8.93px;}.h{fill:#ffcc07;}.i,.j,.k{stroke:#1d1d1b;}.i,.j{stroke-linecap:round;}.i{stroke-width:20.35px;}.j{stroke-width:20.46px;}.k{fill:#1d1d1b;stroke-width:0.71px;}.l,.m{stroke-width:24.78px;}</style>
  </defs>
  <ellipse class="a" cx="557.4" cy="758.2" rx="217.8" ry="44"/>
  <ellipse class="b" cx="492" cy="726" rx="66.8" ry="39.8" transform="translate(-168.4 148.9) rotate(-14.7)"/>
  <path class="a" d="M435.8,751.5c-2.8-14.6,2-36.7,20.5-55.9v-.2A136.6,136.6,0,0,1,475,679.5l-3.8,3.3c-10.7,9.8-19.8,20.9-24.4,30.9h0c-8.7,18.7,2.5,31.1,17.5,36s39,.3,64.4-12.6a168.6,168.6,0,0,0,25.4-15.8,154.9,154.9,0,0,1-42,36.1c-13.6,7.7-26.7,11.7-37.7,13.1C452.9,773.2,438.6,766.1,435.8,751.5Z"/>
  <ellipse class="c" cx="492" cy="726" rx="66.8" ry="39.8" transform="translate(-168.4 148.9) rotate(-14.7)"/>
  <ellipse class="b" cx="628.6" cy="727.1" rx="39.8" ry="66.8" transform="translate(-169.1 1263.3) rotate(-83.1)"/>
  <path class="a" d="M689.9,733.1c-2.4-13.7-14.5-31.8-38.4-43.7h-.1a152,152,0,0,0-22.8-8.9l4.7,1.9c13.3,5.6,25.7,12.9,33.4,20.4h0c14.6,14.1,8.4,28.1-3.9,36.6s-36.1,10.9-64.2,6.5a191.1,191.1,0,0,1-29.1-6.9A167.3,167.3,0,0,0,621,759.2c15.4,3.1,28.9,3,39.6,1.2C681.5,756.9,692.4,746.7,689.9,733.1Z"/>
  <ellipse class="d" cx="625.8" cy="725.3" rx="39.8" ry="66.8" transform="translate(-169.7 1259) rotate(-83.1)"/>
  <path class="e" d="M623.5,256.7c-32.9-11.4-69.9-9.7-102.4,1.4s-60.4,31.4-82.9,55.6c-55,59.1-76.7,143.6-56.7,220.8,12,46.3,39.1,90.5,80.2,119.7s97,41.6,145.6,27.5c36.3-10.5,66.3-34.7,88.6-63.1,43.7-55.4,60.4-128.5,45-196.7s-55.4-143.5-117-164.8"/>
  <path class="f" d="M627,243.8c-47.2-16.2-100.2-7.6-143.1,16.5-38.6,21.8-70.6,55.8-91.8,94.6a255.2,255.2,0,0,0-31.3,124.8c.5,43.1,12.5,86.3,35.2,123a217.1,217.1,0,0,0,42.2,49.9A199.6,199.6,0,0,0,498,688.3a188.2,188.2,0,0,0,65.5,12.6,169.7,169.7,0,0,0,34.1-3.1,163.1,163.1,0,0,0,33.3-10.5c40.5-17.5,73.1-51.4,95.1-89.1a252.1,252.1,0,0,0,33.9-128.9c-.6-42.4-12.9-84.5-31-122.6-16.9-35.6-41.6-69.7-75.7-90.5a134.5,134.5,0,0,0-25.8-12c-6.6-2.3-14.9,2.6-16.5,9.3s2.3,14,9.4,16.5q3.5,1.2,6.9,2.7l-3.2-1.4a127.6,127.6,0,0,1,28,16.6l-2.7-2.1a172.1,172.1,0,0,1,30.5,31l-2.1-2.7a261.6,261.6,0,0,1,33.8,59l-1.4-3.2c10.1,24,17.9,49.5,21.4,75.4l-.5-3.5a233.3,233.3,0,0,1,0,61.9l.5-3.5a243.1,243.1,0,0,1-16.7,61l1.3-3.2a239,239,0,0,1-30.4,52.2l2.1-2.7a213,213,0,0,1-36.9,37.2l2.7-2.1a166.8,166.8,0,0,1-36.8,21.8L620,663a149.9,149.9,0,0,1-37.6,10.3l3.6-.5a163.7,163.7,0,0,1-43.1-.2l3.6.5a186.9,186.9,0,0,1-47.1-12.9l3.2,1.3a183.6,183.6,0,0,1-40.2-23.4l2.7,2.1a201.6,201.6,0,0,1-35.4-35.5l2.1,2.7a217.8,217.8,0,0,1-28.2-48.5l1.4,3.2A229.5,229.5,0,0,1,389.2,504l.4,3.5a239.8,239.8,0,0,1,.1-62.2l-.5,3.5a242,242,0,0,1,17-61.9l-1.4,3.2a237.3,237.3,0,0,1,31-53.1l-2.1,2.7a234.1,234.1,0,0,1,41.8-42l-2.7,2.1a199.8,199.8,0,0,1,43.7-25.7l-3.2,1.3a170.4,170.4,0,0,1,43.8-12l-3.6.4a164.2,164.2,0,0,1,42.6-.1l-3.6-.5a151.4,151.4,0,0,1,27.4,6.4c6.7,2.3,15-2.6,16.5-9.3s-2.2-14.1-9.4-16.5Z"/>
  <path class="e" d="M779.1,170.3c-10-12.3-29.4-21.1-49.8-24.4s-41.5-1.8-60.5,2.5c-46.6,10.4-74.7,62.8-87.6,93.6l-1.6,1.7.3.3c20.4-14.9,51.7-34.3,78.4-33.5,20.2.5,40.1,4.8,60.3,6.5s42.1.1,55.6-9S789,182.7,779.1,170.3Z"/>
  <path class="f" d="M788.6,160.9c-3.2-4-7.1-7.1-11.1-10.2a80.2,80.2,0,0,0-11.2-6.9,116.1,116.1,0,0,0-29.9-10.2c-23-4.6-46.7-3.4-69.6,1.5-17.3,3.7-32.7,12.6-45.9,24s-22.4,23.5-31,37a255.9,255.9,0,0,0-18.7,35.5l-2.9,6.8,3.4-5.9-1.5,1.7c-2.3,2.5-4.1,6-4,9.5l.5,3.5a14,14,0,0,0,3.5,6l.3.3,2.7,2.1a9.8,9.8,0,0,0,4.9,1.6c2.8.4,6.3.1,8.6-1.6a241.9,241.9,0,0,1,33.1-20.8q5.3-2.7,10.8-5.1l-3.2,1.4a96.7,96.7,0,0,1,24.5-7.1l-3.5.4a85.2,85.2,0,0,1,18.2-.1c7.1.5,14.3,1.4,21.4,2.3l-3.6-.4c21.1,2.8,42.5,6.5,63.9,3.8,10.5-1.3,20.9-3.6,30.3-9s17-14,19.4-24.6a38.6,38.6,0,0,0-.2-18.5c-1.7-6.4-5.1-11.9-9.2-17-2-2.5-6.5-4-9.5-4a13.7,13.7,0,0,0-9.5,4c-2.3,2.5-4.1,5.9-3.9,9.4l.5,3.6a12.6,12.6,0,0,0,3.4,5.9l.5.6-2.1-2.7a34.9,34.9,0,0,1,4,6.7l-1.4-3.2a26.4,26.4,0,0,1,1.9,6.8l-.5-3.6a27.4,27.4,0,0,1,.1,6.4l.4-3.6a19.8,19.8,0,0,1-1.6,5.9l1.4-3.2a26.2,26.2,0,0,1-3,5.1l2.1-2.7a30.8,30.8,0,0,1-5.1,5.1l2.7-2.1a46.8,46.8,0,0,1-8.7,5l3.2-1.4a69.2,69.2,0,0,1-18.4,4.7l3.6-.4c-16.5,2.1-33.2.4-49.6-1.8l3.6.4c-10.8-1.4-21.6-3-32.5-4-4.6-.4-9.2-.8-13.9-.8a97.7,97.7,0,0,0-14.3,1.5c-8.9,1.6-17.4,4.8-25.7,8.4a180,180,0,0,0-21.8,11.3c-7.3,4.4-14.4,9.2-21.3,14.3l16.2,2-.3-.3v19l1.2-1.3a.8.8,0,0,1,.4-.4l2.1-2.7,1.3-3.2.3-.7-1.4,3.2a254.3,254.3,0,0,1,21.3-40.3c2.6-4,5.4-8,8.3-11.8l-2.1,2.7a138,138,0,0,1,23.9-24.4l-2.7,2.1a89.9,89.9,0,0,1,20.5-12.1l-3.2,1.3c9.2-3.9,19.2-5.8,29.1-7.1l-3.5.5a155.5,155.5,0,0,1,40.9-.3l-3.5-.5a113.3,113.3,0,0,1,28.5,7.6l-3.2-1.3a78.4,78.4,0,0,1,17.1,9.7l-2.7-2.1a48,48,0,0,1,7.9,7.7c2,2.5,6.4,3.9,9.5,3.9a13.6,13.6,0,0,0,9.5-3.9,13.8,13.8,0,0,0,3.9-9.5l-.5-3.5A12.9,12.9,0,0,0,788.6,160.9Z"/>
  <path class="a" d="M771.5,158.1a29.1,29.1,0,0,1-7.8,16c-11.3,12-31.6,17.4-50.7,19.1s-38.3.6-57.2,3.5c-8.7,1.3-17.5,5.2-26,10.7a31,31,0,0,1,5.4,8.7c8.2-3.8,16.4-6.3,24.3-6.6,19-.8,38.1,2.4,57.2,2.8s39.8-2.8,51.9-13.6S781.3,170.7,771.5,158.1Z"/>
  <path class="a" d="M746.1,421.9c-15.4-68.1-55.4-143.5-117-164.8l-.4-.4a149.5,149.5,0,0,0-57.1-7.5c3.9.5,7.9,1.1,11.8,1.9,33.6,6.7,66.4,23.9,89.1,50.3v.5c42.5,49.4,39.1,134.6,18.1,201.2S618.5,624.4,552.9,650.2c-21.7,8.6-45.4,14.1-69.4,14.3,38.8,21.6,86.6,29.5,129,17.2,36.3-10.5,66.3-34.7,88.6-63.1C744.8,563.2,761.5,490.1,746.1,421.9Z"/>
  <path class="f" d="M627,243.8c-47.2-16.2-100.2-7.6-143.1,16.5-38.6,21.8-70.6,55.8-91.8,94.6a255.2,255.2,0,0,0-31.3,124.8c.5,43.1,12.5,86.3,35.2,123a217.1,217.1,0,0,0,42.2,49.9A199.6,199.6,0,0,0,498,688.3a188.2,188.2,0,0,0,65.5,12.6,169.7,169.7,0,0,0,34.1-3.1,163.1,163.1,0,0,0,33.3-10.5c40.5-17.5,73.1-51.4,95.1-89.1a252.1,252.1,0,0,0,33.9-128.9c-.6-42.4-12.9-84.5-31-122.6-16.9-35.6-41.6-69.7-75.7-90.5a134.5,134.5,0,0,0-25.8-12c-6.6-2.3-14.9,2.6-16.5,9.3s2.3,14,9.4,16.5q3.5,1.2,6.9,2.7l-3.2-1.4a127.6,127.6,0,0,1,28,16.6l-2.7-2.1a172.1,172.1,0,0,1,30.5,31l-2.1-2.7a261.6,261.6,0,0,1,33.8,59l-1.4-3.2c10.1,24,17.9,49.5,21.4,75.4l-.5-3.5a233.3,233.3,0,0,1,0,61.9l.5-3.5a243.1,243.1,0,0,1-16.7,61l1.3-3.2a239,239,0,0,1-30.4,52.2l2.1-2.7a213,213,0,0,1-36.9,37.2l2.7-2.1a166.8,166.8,0,0,1-36.8,21.8L620,663a149.9,149.9,0,0,1-37.6,10.3l3.6-.5a163.7,163.7,0,0,1-43.1-.2l3.6.5a186.9,186.9,0,0,1-47.1-12.9l3.2,1.3a183.6,183.6,0,0,1-40.2-23.4l2.7,2.1a201.6,201.6,0,0,1-35.4-35.5l2.1,2.7a217.8,217.8,0,0,1-28.2-48.5l1.4,3.2A229.5,229.5,0,0,1,389.2,504l.4,3.5a239.8,239.8,0,0,1,.1-62.2l-.5,3.5a242,242,0,0,1,17-61.9l-1.4,3.2a237.3,237.3,0,0,1,31-53.1l-2.1,2.7a234.1,234.1,0,0,1,41.8-42l-2.7,2.1a199.8,199.8,0,0,1,43.7-25.7l-3.2,1.3a170.4,170.4,0,0,1,43.8-12l-3.6.4a164.2,164.2,0,0,1,42.6-.1l-3.6-.5a151.4,151.4,0,0,1,27.4,6.4c6.7,2.3,15-2.6,16.5-9.3s-2.2-14.1-9.4-16.5Z"/>
  <rect class="g" x="455.9" y="356.8" width="208.9" height="96.88" rx="17.9"/>
  <path class="f" d="M788.6,160.9c-3.2-4-7.1-7.1-11.1-10.2a80.2,80.2,0,0,0-11.2-6.9,116.1,116.1,0,0,0-29.9-10.2c-23-4.6-46.7-3.4-69.6,1.5-17.3,3.7-32.7,12.6-45.9,24s-22.4,23.5-31,37a255.9,255.9,0,0,0-18.7,35.5l-2.9,6.8,3.4-5.9-1.5,1.7c-2.3,2.5-4.1,6-4,9.5l.5,3.5a14,14,0,0,0,3.5,6l.3.3,2.7,2.1a9.8,9.8,0,0,0,4.9,1.6c2.8.4,6.3.1,8.6-1.6a241.9,241.9,0,0,1,33.1-20.8q5.3-2.7,10.8-5.1l-3.2,1.4a96.7,96.7,0,0,1,24.5-7.1l-3.5.4a85.2,85.2,0,0,1,18.2-.1c7.1.5,14.3,1.4,21.4,2.3l-3.6-.4c21.1,2.8,42.5,6.5,63.9,3.8,10.5-1.3,20.9-3.6,30.3-9s17-14,19.4-24.6a38.6,38.6,0,0,0-.2-18.5c-1.7-6.4-5.1-11.9-9.2-17-2-2.5-6.5-4-9.5-4a13.7,13.7,0,0,0-9.5,4c-2.3,2.5-4.1,5.9-3.9,9.4l.5,3.6a12.6,12.6,0,0,0,3.4,5.9l.5.6-2.1-2.7a34.9,34.9,0,0,1,4,6.7l-1.4-3.2a26.4,26.4,0,0,1,1.9,6.8l-.5-3.6a27.4,27.4,0,0,1,.1,6.4l.4-3.6a19.8,19.8,0,0,1-1.6,5.9l1.4-3.2a26.2,26.2,0,0,1-3,5.1l2.1-2.7a30.8,30.8,0,0,1-5.1,5.1l2.7-2.1a46.8,46.8,0,0,1-8.7,5l3.2-1.4a69.2,69.2,0,0,1-18.4,4.7l3.6-.4c-16.5,2.1-33.2.4-49.6-1.8l3.6.4c-10.8-1.4-21.6-3-32.5-4-4.6-.4-9.2-.8-13.9-.8a97.7,97.7,0,0,0-14.3,1.5c-8.9,1.6-17.4,4.8-25.7,8.4a180,180,0,0,0-21.8,11.3c-7.3,4.4-14.4,9.2-21.3,14.3l16.2,2-.3-.3v19l1.2-1.3a.8.8,0,0,1,.4-.4l2.1-2.7,1.3-3.2.3-.7-1.4,3.2a254.3,254.3,0,0,1,21.3-40.3c2.6-4,5.4-8,8.3-11.8l-2.1,2.7a138,138,0,0,1,23.9-24.4l-2.7,2.1a89.9,89.9,0,0,1,20.5-12.1l-3.2,1.3c9.2-3.9,19.2-5.8,29.1-7.1l-3.5.5a155.5,155.5,0,0,1,40.9-.3l-3.5-.5a113.3,113.3,0,0,1,28.5,7.6l-3.2-1.3a78.4,78.4,0,0,1,17.1,9.7l-2.7-2.1a48,48,0,0,1,7.9,7.7c2,2.5,6.4,3.9,9.5,3.9a13.6,13.6,0,0,0,9.5-3.9,13.8,13.8,0,0,0,3.9-9.5l-.5-3.5A12.9,12.9,0,0,0,788.6,160.9Z"/>
  <ellipse class="h" cx="534.5" cy="411.5" rx="8.6" ry="8.1"/>
  <ellipse class="h" cx="482.9" cy="411.5" rx="8.6" ry="8.1"/>
  <ellipse class="h" cx="498.2" cy="395.3" rx="8.6" ry="8.1"/>
  <ellipse class="h" cx="519.2" cy="395.3" rx="8.6" ry="8.1"/>
  <ellipse class="h" cx="637.8" cy="411.5" rx="8.6" ry="8.1"/>
  <ellipse class="h" cx="586.2" cy="411.5" rx="8.6" ry="8.1"/>
  <ellipse class="h" cx="601.5" cy="395.3" rx="8.6" ry="8.1"/>
  <ellipse class="h" cx="622.5" cy="395.3" rx="8.6" ry="8.1"/>
  <line class="i" x1="794" y1="446.7" x2="892.6" y2="177.1"/>
  <line class="j" x1="351.3" y1="432.2" x2="260.5" y2="191.7"/>
  <path class="h" d="M890.8,182.1c2.8-7.4-9.2-9.2-13.5-7.1-92.1,46.1-153.1,24.1-205,16C559.5,173.4,509.7,110.3,412,119.3c-64,5.9-114.5,38.2-148.9,68.2a10.4,10.4,0,0,0-2.9,11.6l51.4,133.8,3.1,8.1a7.4,7.4,0,0,0,10.3,4.1c39.3-20,80.8-41.4,121-36.7a186.8,186.8,0,0,1,34.4,7.8c16.1,5.7,49.8,19.9,51.2,20.6l57.5,24.1c57.6,24.4,221.9,11.3,225.1,11.3,5,0,10.6-3.5,12.8-9.9"/>
  <path class="k" d="M337.1,324.9c-18.6-42.6-35.7-86.3-61.8-125,5.1-3.9,7.7-5.9,13-9.7,12.8,21.2,22.2,44.3,31.7,67.1,6.4,16,12.6,32.2,18.2,48.6h.2c-2.4-18.9-4-37.9-5.6-56.9-2-28.3-4.2-56.9-2.1-85.3,5.9-3.2,8.9-4.7,14.9-7.5,9.2,24.6,15.9,50.1,22.5,75.5,4.5,17.9,8.9,35.8,11.9,53.9h.3c.8-20,1.6-40,2.6-60,1.7-28.8,2.9-58.1,8.9-86.4,6.1-1.6,9.1-2.2,15.2-3.3-13.9,54.3-10.5,111.3-20.6,166.2-4.5,1.5-6.7,2.2-11,3.9-6.5-24.7-13-49.4-20-73.9-5-17.1-10.2-34.2-14.7-51.5l-.3.2,1.8,58.1c1.1,27,3.3,54.2,3.2,81.2C341.9,322,340.2,322.9,337.1,324.9Z"/>
  <path class="k" d="M424.4,244.8c1.1,14.9,2.9,37,22.7,37.2,8.6.1,14.1-1.1,18.9-3.2.5,5.2.7,7.5,1.1,11.7-4.5,1.6-12.1,2.7-22.5,2.9-27.7.4-31.8-27.5-32.5-48.7s3.1-73.8,34.5-72.6c27,1.1,29.5,44.4,28.3,64.7-.3,4.7-.8,8.2-1.1,10.4C457.8,243.2,440.7,243,424.4,244.8Zm38.3-16.2c.6-12.1-1-40-17.5-40.2s-20.4,27.2-20.9,39.8A145.2,145.2,0,0,1,462.7,228.6Z"/>
  <path class="k" d="M494,139.4l10.2,3.8c-10.8,51.2-9.2,104.5-19,155.9-3.6-1.5-5.3-2.1-8.1-3C486.1,244.3,484.7,191.1,494,139.4Z"/>
  <path class="k" d="M560,326.6c-4.5.6-14.2-.6-25.1-5-29.2-11.8-32-42.6-29-69.2,2.8-23.8,12.6-65.8,46.5-57.2a45.2,45.2,0,0,1,19.9,11.1c-2,6.3-3,9.8-5,16.9a31.3,31.3,0,0,0-16.6-10.6c-23.6-6.4-30,27.7-32.1,42.6-2.7,19.4-.3,46,21.1,54.5a32.3,32.3,0,0,0,19.5,1.7C559.5,318,559.7,321.1,560,326.6Z"/>
  <path class="k" d="M659.3,288.6c-2.7,23.5-11.6,73.1-47.6,62-32.9-10.1-37-48.5-34.5-76.3,2.3-25.5,12.5-69.8,48.5-62.7S662.5,260.7,659.3,288.6Zm-66-10.8c-1.2,18-1.4,52.9,20.9,59s28.7-34.4,30.5-48.8c2.2-18.1,2.3-55.1-20.5-60S594.2,262.3,593.3,277.8Z"/>
  <path class="k" d="M678.4,256.9c1.4-11.7,2.9-23.4,3.9-35.1,3.8.7,5.8,1.1,10.1,1.7-.8,7.1-1.2,11.1-2.2,19.8h.5c4.3-10.9,13.1-20.7,25.8-19.6,14.3,1.3,17.1,14.8,19.2,26.4h.3c3.7-7.7,7.8-13.1,11.9-16.8a29.2,29.2,0,0,1,20.1-8.5c28.8-1.2,20.1,45.1,18,60.3-4.1,25-9.2,50.3-10.7,75.6-5.5.4-8.3.5-14.2.7,1.6-24.1,6-48.2,9.8-72.1,1.3-10.7,7.3-46.4-11.3-45.9-10.9.4-18.5,13.5-21.7,23.4a78.8,78.8,0,0,0-3.3,13.7c-4,26.9-8.2,53.9-11.4,80.9-6.1-.1-9.1-.3-15-.5,3.7-26.2,7.6-52.4,11.5-78.6,1.2-11.7,4-39.5-10.5-41.3-9.9-1.2-17.2,14.2-19.6,23.4a92.6,92.6,0,0,0-2.8,13.2c-3.8,27.2-7.4,54.4-12.6,81.3l-10.9-.9C670.2,324.7,674,290.6,678.4,256.9Z"/>
  <path class="k" d="M812,301.2c-.8,5.3-6.9,47,8.5,40.8,4.5-1.8,6.6-6.6,8.7-11.6-1.7,5.4-2.4,7.8-3.6,11.3s-2.5,8.9-8.1,12c-26,14-18.5-45.4-17.1-53.4,5.1-29.8,18.8-75.9,50.7-88.9,27.1-11.1,1.4,54.9-1,61.6l-5.2,14C836.5,296.4,823.7,298.5,812,301.2Zm34.4-30.8c1.8-5.6,14.3-45.7-.7-41.1-16.8,5.2-25.2,34.6-29.4,51.2C826.7,278.1,837.2,275.9,846.4,270.4Z"/>
  <ellipse class="l" cx="757.3" cy="492.1" rx="74.5" ry="43.9" transform="matrix(0.51, -0.86, 0.86, 0.51, -53.26, 890.43)"/>
  <path class="a" d="M725.5,559.9c-9.4-10.9-16.4-33.9-11-64.5v-.2a190.5,190.5,0,0,1,7-27.7c-.5,1.9-.9,3.8-1.4,5.7-3.8,16.5-5.6,33-4.4,45.2h.1c2.2,22.9,17.2,25.7,31.7,19.2s31.3-28.2,45.3-58.2a256.8,256.8,0,0,0,12.5-32.4,223.7,223.7,0,0,1-15.9,62.5c-7.1,16.8-15.6,29.9-23.7,39.1C749.9,566.7,734.9,570.8,725.5,559.9Z"/>
  <ellipse class="m" cx="757.3" cy="492.1" rx="74.5" ry="43.9" transform="matrix(0.51, -0.86, 0.86, 0.51, -53.26, 890.43)"/>
  <ellipse class="l" cx="385.7" cy="477.6" rx="43.9" ry="74.5" transform="translate(-190.2 265.1) rotate(-30.8)"/>
  <path class="a" d="M417.5,545.4c9.3-10.9,16.4-34,11-64.6v-.2a203,203,0,0,0-7-27.6c.4,1.9.9,3.8,1.4,5.7,3.7,16.4,5.6,33,4.4,45.2h-.1c-2.2,22.9-17.3,25.7-31.7,19.1S364.2,495,350.2,465a280,280,0,0,1-12.6-32.4,228.1,228.1,0,0,0,15.9,62.5c7.1,16.8,15.7,29.9,23.8,39.1C393.1,552.1,408.1,556.3,417.5,545.4Z"/>
  <ellipse class="m" cx="385.7" cy="477.6" rx="43.9" ry="74.5" transform="translate(-190.2 265.1) rotate(-30.8)"/>
  <ellipse class="l" cx="757.3" cy="492.1" rx="74.5" ry="43.9" transform="matrix(0.51, -0.86, 0.86, 0.51, -53.26, 890.43)"/>
  <path class="a" d="M725.5,559.9c-9.4-10.9-16.4-33.9-11-64.5v-.2a190.5,190.5,0,0,1,7-27.7c-.5,1.9-.9,3.8-1.4,5.7-3.8,16.5-5.6,33-4.4,45.2h.1c2.2,22.9,17.2,25.7,31.7,19.2s31.3-28.2,45.3-58.2a256.8,256.8,0,0,0,12.5-32.4,223.7,223.7,0,0,1-15.9,62.5c-7.1,16.8-15.6,29.9-23.7,39.1C749.9,566.7,734.9,570.8,725.5,559.9Z"/>
  <ellipse class="m" cx="757.3" cy="492.1" rx="74.5" ry="43.9" transform="matrix(0.51, -0.86, 0.86, 0.51, -53.26, 890.43)"/>
</svg>