<svg xmlns="http://www.w3.org/2000/svg" viewBox="0 0 1133.9 1417.3"><defs><style>.a{fill:#cdcccc;}.b{fill:#1d1d1b;}.c,.e,.q{fill:#fff;}.d{fill:#4e4d4d;}.e,.g{stroke:#4e4d4d;stroke-width:22.59px;}.e,.f,.g{stroke-miterlimit:10;}.f{fill:#010101;stroke:#010101;stroke-width:9.03px;}.g,.s{fill:none;}.h{fill:#ffcc07;}.i{fill:#ffcc03;}.j{fill:#deb200;}.k{fill:#deb100;}.l{fill:#ffde5e;}.m{fill:#ffde5d;}.n{fill:#f39323;}.o{fill:#f6a545;}.p{fill:#808181;stroke:#808181;stroke-width:4.61px;}.p,.s{stroke-miterlimit:10;}.q,.s{stroke:#4f4e4e;}.q{stroke-miterlimit:10;stroke-width:23.47px;}.r{fill:#cecccc;}.s{stroke-width:23.47px;}</style></defs><ellipse class="a" cx="557.4" cy="758.2" rx="217.8" ry="44"/><path class="b" d="M502.6,927.1a24.5,24.5,0,0,1-5.4-1.8,17.1,17.1,0,0,1-4.5-2.8l3.6-6.5a17.9,17.9,0,0,0,5.6,3.1,20.6,20.6,0,0,0,6.5,1.1,11.1,11.1,0,0,0,6-1.4,4.1,4.1,0,0,0,2.2-3.7h0a3.6,3.6,0,0,0-1-2.6,5.3,5.3,0,0,0-2.5-1.5,23.9,23.9,0,0,0-3.9-.8H509a.1.1,0,0,1-.1-.1h-.6a33.2,33.2,0,0,1-7-1.6,10.1,10.1,0,0,1-4.7-3.5c-1.3-1.7-1.9-4-1.9-7.1h0a12.7,12.7,0,0,1,1.8-6.9,10.8,10.8,0,0,1,5.2-4.4,21,21,0,0,1,8.4-1.5,18.5,18.5,0,0,1,4.6.5,19,19,0,0,1,4.6,1.5,25.5,25.5,0,0,1,4.3,2.3l-3.4,6.7a21.7,21.7,0,0,0-5-2.6,16.1,16.1,0,0,0-5.1-.9,10.8,10.8,0,0,0-5.6,1.2,3.8,3.8,0,0,0-2,3.4h0a3.7,3.7,0,0,0,1,2.8,6.3,6.3,0,0,0,2.6,1.6,31.2,31.2,0,0,0,4.3,1h1.1a37.4,37.4,0,0,1,6.7,1.8,11.7,11.7,0,0,1,4.4,3.6,11.3,11.3,0,0,1,1.8,6.7h0a11.9,11.9,0,0,1-1.9,6.9,11.7,11.7,0,0,1-5.4,4.3,22.6,22.6,0,0,1-8.7,1.5A27.8,27.8,0,0,1,502.6,927.1Z"/><path class="b" d="M536.4,926.1a10,10,0,0,1-4.6-4.5,15.4,15.4,0,0,1-1.7-7.3v-3.4a17.3,17.3,0,0,1,1.6-7.5,10.5,10.5,0,0,1,4.5-4.8,14.3,14.3,0,0,1,7.1-1.7,11.3,11.3,0,0,1,6.7,2,12,12,0,0,1,4.3,5.7,26.6,26.6,0,0,1,1.4,9v1.9H535.3v-5.3h13.2v-.7a6.9,6.9,0,0,0-1.6-4,4.7,4.7,0,0,0-3.5-1.4,5.7,5.7,0,0,0-4.4,1.7,6.5,6.5,0,0,0-1.6,4.8v3.8a6.3,6.3,0,0,0,1.7,4.7,6.4,6.4,0,0,0,4.8,1.7,11.9,11.9,0,0,0,3.2-.5,9.7,9.7,0,0,0,2.8-1.6l5.2,4.5a14.8,14.8,0,0,1-5.3,3.3,15.2,15.2,0,0,1-5.9,1.2A15.8,15.8,0,0,1,536.4,926.1Z"/><path class="b" d="M560.3,897.4H575v6.7H560.3Zm5,28c-1.3-1.3-1.9-3.3-1.9-5.9V888.7h7.9v28.8a3.5,3.5,0,0,0,.4,1.7,1.6,1.6,0,0,0,1.3.6h2v7.6h-4C568.4,927.4,566.5,926.8,565.3,925.4Z"/><path class="b" d="M605.6,915.5a4.2,4.2,0,0,0,1.3,3.4,5.4,5.4,0,0,0,6.8,0,4.8,4.8,0,0,0,1.2-3.5l.4,6.5a8.9,8.9,0,0,1-2.8,4.1,7,7,0,0,1-4.7,1.7c-3.2,0-5.7-1-7.4-3.1s-2.7-5-2.7-8.8V897.4h7.9Zm9.3-18.1h7.9v29.9h-7.9Z"/><path class="b" d="M630.5,897.4h7.9v42h-7.9Zm10.4,29a8.6,8.6,0,0,1-2.9-3.8l.4-6.8a5.1,5.1,0,0,0,.6,2.5,3.1,3.1,0,0,0,1.5,1.5,4.3,4.3,0,0,0,2.4.6,4.1,4.1,0,0,0,3.4-1.5,6.3,6.3,0,0,0,1.2-4.1V910a6.6,6.6,0,0,0-1.2-4.2,4.1,4.1,0,0,0-3.4-1.5,4.3,4.3,0,0,0-2.4.5,3.3,3.3,0,0,0-1.5,1.6,5.5,5.5,0,0,0-.6,2.6l-.6-6.6a10,10,0,0,1,3.2-4,7.1,7.1,0,0,1,4.4-1.5,8.9,8.9,0,0,1,5.4,1.6,9.7,9.7,0,0,1,3.5,4.4,21.2,21.2,0,0,1,1.1,7.1v4.8a21,21,0,0,1-1.1,7,9.7,9.7,0,0,1-3.5,4.4,9.5,9.5,0,0,1-5.4,1.5A7.3,7.3,0,0,1,640.9,926.4Z"/><path class="b" d="M331.4,1067.4a12.9,12.9,0,0,1-5.1-5.5,18,18,0,0,1-1.8-8.2v-11.5a17.7,17.7,0,0,1,1.8-8.2,12.9,12.9,0,0,1,5.1-5.5,14.5,14.5,0,0,1,7.6-1.9,15,15,0,0,1,6.7,1.5,13.2,13.2,0,0,1,5,4.4,15.3,15.3,0,0,1,2.8,6.5h-6a9.2,9.2,0,0,0-1.9-3.5,8.9,8.9,0,0,0-3-2.4,8.6,8.6,0,0,0-3.6-.8,7.8,7.8,0,0,0-4.4,1.2,8.5,8.5,0,0,0-3,3.5,10.8,10.8,0,0,0-1.1,5.2v11.5a10.8,10.8,0,0,0,1.1,5.2,7.7,7.7,0,0,0,3,3.4,7.2,7.2,0,0,0,4.4,1.3,8.6,8.6,0,0,0,3.6-.8,7.6,7.6,0,0,0,3-2.3,8.9,8.9,0,0,0,1.9-3.6h6a16.5,16.5,0,0,1-2.8,6.5,13.6,13.6,0,0,1-5.1,4.4,15.7,15.7,0,0,1-14.2-.4Z"/><path class="b" d="M361.3,1039h5.8v29.9h-5.8Zm14.5,5.6a7.8,7.8,0,0,0-2.8-.5,5.6,5.6,0,0,0-4.3,1.6,5.7,5.7,0,0,0-1.6,4.2l-.6-5.7a11.5,11.5,0,0,1,3.6-4.2,8.5,8.5,0,0,1,4.8-1.5,10.6,10.6,0,0,1,3.7.6,7.9,7.9,0,0,1,2.9,1.8l-3.8,5.2A4.5,4.5,0,0,0,375.8,1044.6Z"/><path class="b" d="M391,1067.8a11.7,11.7,0,0,1-4.5-4.6,16.1,16.1,0,0,1-1.5-7.3v-3.4a17.3,17.3,0,0,1,1.5-7.5,10.6,10.6,0,0,1,4.3-4.8,13.2,13.2,0,0,1,6.8-1.7,11.2,11.2,0,0,1,6.4,1.9,12.4,12.4,0,0,1,4,5.4,22,22,0,0,1,1.4,8.5v2H389.3v-4.7h14.5a9.9,9.9,0,0,0-1.8-5.7,5.4,5.4,0,0,0-4.4-2.1,6.6,6.6,0,0,0-5.2,2.2,9.7,9.7,0,0,0-1.8,6.2v3.8c0,2.5.6,4.4,1.9,5.7a7.4,7.4,0,0,0,5.6,2,8.4,8.4,0,0,0,3.5-.7,11.6,11.6,0,0,0,3.2-2l3.8,3.8a13.3,13.3,0,0,1-4.9,3.3,14.1,14.1,0,0,1-5.6,1.2A15.5,15.5,0,0,1,391,1067.8Z"/><path class="b" d="M418.8,1067q-2.7-2.2-2.7-6.9c0-3,.8-5.2,2.5-6.7s4.2-2.2,7.5-2.2h8.5l.4,4.7h-8.8a5.6,5.6,0,0,0-3.5,1,4.4,4.4,0,0,0-1.1,3.2,3.7,3.7,0,0,0,1.5,3.3c1,.8,2.5,1.1,4.6,1.1a12.9,12.9,0,0,0,5-.7,2.4,2.4,0,0,0,1.7-2.2l.6,4.2a9,9,0,0,1-1.9,2,8.1,8.1,0,0,1-2.7,1.1,11.5,11.5,0,0,1-3.3.4C423.4,1069.3,420.6,1068.5,418.8,1067Zm15.6-17.1a5.9,5.9,0,0,0-1.6-4.5,5.7,5.7,0,0,0-4.4-1.7,10.3,10.3,0,0,0-3.5.6,8.1,8.1,0,0,0-3.1,1.5l-4.3-2.9a10.6,10.6,0,0,1,4.5-3.2,15.6,15.6,0,0,1,6.2-1.2,14.7,14.7,0,0,1,6.3,1.3,9.1,9.1,0,0,1,4.1,3.9,12.1,12.1,0,0,1,1.4,6v19.2h-5.6Z"/><path class="b" d="M446.6,1039h13.5v5.3H446.6Zm4.8,28c-1.2-1.3-1.7-3.3-1.7-5.9v-30.8h5.9v30.9a2.5,2.5,0,0,0,.4,1.6,1.4,1.4,0,0,0,1.2.6h2.9v5.6h-3.4C454.3,1069,452.5,1068.3,451.4,1067Z"/><path class="b" d="M473.3,1067.8a10.5,10.5,0,0,1-4.5-4.6,16.1,16.1,0,0,1-1.5-7.3v-3.4a17.3,17.3,0,0,1,1.5-7.5,10.1,10.1,0,0,1,4.3-4.8,12.9,12.9,0,0,1,6.8-1.7,11.2,11.2,0,0,1,6.4,1.9,12.4,12.4,0,0,1,4,5.4,24,24,0,0,1,1.4,8.5v2H471.5v-4.7h14.6a9.9,9.9,0,0,0-1.9-5.7,5.2,5.2,0,0,0-4.3-2.1,6.5,6.5,0,0,0-5.2,2.2,9.7,9.7,0,0,0-1.8,6.2v3.8c0,2.5.6,4.4,1.9,5.7s3.2,2,5.6,2a8.4,8.4,0,0,0,3.5-.7,13.2,13.2,0,0,0,3.2-2l3.8,3.8a15.9,15.9,0,0,1-10.5,4.5A15.5,15.5,0,0,1,473.3,1067.8Z"/><path class="b" d="M512.4,1039h6l9.2,26-3.2,6.3Zm26.5,0-12.7,36.9a10.7,10.7,0,0,1-1.8,3.2,6.2,6.2,0,0,1-2.8,1.7,11.8,11.8,0,0,1-4,.5h-1.2v-5.6h1.2a4.2,4.2,0,0,0,2.6-.7,5.8,5.8,0,0,0,1.7-2.2l11-33.8Z"/><path class="b" d="M548.3,1067.8a10.2,10.2,0,0,1-4.2-4.5,16.5,16.5,0,0,1-1.4-7v-4.9a16,16,0,0,1,1.4-6.9,10.8,10.8,0,0,1,4.2-4.5,15.7,15.7,0,0,1,13.4,0,10.8,10.8,0,0,1,4.2,4.5,16,16,0,0,1,1.4,6.9v5a16.8,16.8,0,0,1-1.4,7,10.5,10.5,0,0,1-4.2,4.4,15.7,15.7,0,0,1-13.4,0Zm11.5-6a8.1,8.1,0,0,0,1.7-5.4v-5a8.1,8.1,0,0,0-1.7-5.4,7,7,0,0,0-9.6,0,8.1,8.1,0,0,0-1.7,5.4v5a8.1,8.1,0,0,0,1.7,5.4,7,7,0,0,0,9.6,0Z"/><path class="b" d="M580.8,1057.1a7.2,7.2,0,0,0,1.6,4.9,7.1,7.1,0,0,0,9,.2,5.7,5.7,0,0,0,1.6-4.4l.4,6.3a8.3,8.3,0,0,1-3,3.7,8.5,8.5,0,0,1-5.1,1.5,9.5,9.5,0,0,1-7.6-3.2q-2.7-3.1-2.7-9V1039h5.8ZM593,1039h5.8v29.9H593Z"/><path class="b" d="M607.8,1039h5.9v29.9h-5.9Zm14.5,5.6a7.8,7.8,0,0,0-2.8-.5,5.6,5.6,0,0,0-4.3,1.6,5.7,5.7,0,0,0-1.5,4.2l-.7-5.7a12.5,12.5,0,0,1,3.6-4.2,8.6,8.6,0,0,1,4.9-1.5,11,11,0,0,1,3.7.6,8.8,8.8,0,0,1,2.9,1.8l-3.9,5.2A4,4,0,0,0,622.3,1044.6Z"/><path class="b" d="M648.8,1039h5.9v42h-5.9Zm8.5,29a7.6,7.6,0,0,1-3-3.8l.4-6.3a6.7,6.7,0,0,0,.7,3.3,4.5,4.5,0,0,0,2,2.1,6.1,6.1,0,0,0,3.2.7,5.8,5.8,0,0,0,4.5-1.8,7.3,7.3,0,0,0,1.6-5v-6.4a7.8,7.8,0,0,0-1.6-5.1,5.5,5.5,0,0,0-4.5-1.9,7.2,7.2,0,0,0-3.2.7,4.5,4.5,0,0,0-2,2.1,6.3,6.3,0,0,0-.7,3.2l-.6-5.8a10.6,10.6,0,0,1,3.5-4,8.6,8.6,0,0,1,4.9-1.5,9.5,9.5,0,0,1,5.4,1.5,8.9,8.9,0,0,1,3.5,4.1,19,19,0,0,1,1.1,6.6v6.5a15.7,15.7,0,0,1-1.2,6.5,9.1,9.1,0,0,1-3.5,4.2,11.1,11.1,0,0,1-5.6,1.4A8.8,8.8,0,0,1,657.3,1068Z"/><path class="b" d="M680.9,1039h5.9v29.9h-5.9Zm14.5,5.6a7.8,7.8,0,0,0-2.8-.5,5.6,5.6,0,0,0-4.3,1.6,5.7,5.7,0,0,0-1.5,4.2l-.6-5.7a11.3,11.3,0,0,1,3.5-4.2,8.6,8.6,0,0,1,4.9-1.5,11,11,0,0,1,3.7.6,8.8,8.8,0,0,1,2.9,1.8l-3.9,5.2A4,4,0,0,0,695.4,1044.6Z"/><path class="b" d="M710.3,1067.8a10.2,10.2,0,0,1-4.2-4.5,15.1,15.1,0,0,1-1.5-7v-4.9a14.7,14.7,0,0,1,1.5-6.9,10.8,10.8,0,0,1,4.2-4.5,13.8,13.8,0,0,1,6.7-1.5,13.4,13.4,0,0,1,6.6,1.5,9.6,9.6,0,0,1,4.2,4.5,14.7,14.7,0,0,1,1.5,6.9v5a15.4,15.4,0,0,1-1.5,7,9.4,9.4,0,0,1-4.2,4.4,13.4,13.4,0,0,1-6.6,1.5A13.8,13.8,0,0,1,710.3,1067.8Zm11.4-6a8.1,8.1,0,0,0,1.7-5.4v-5a8.1,8.1,0,0,0-1.7-5.4,6.2,6.2,0,0,0-4.7-1.9,6.2,6.2,0,0,0-4.8,1.9,8.1,8.1,0,0,0-1.7,5.4v5a8.1,8.1,0,0,0,1.7,5.4,5.9,5.9,0,0,0,4.8,1.9A5.8,5.8,0,0,0,721.7,1061.8Z"/><path class="b" d="M733.6,1075.4h3.3a1.7,1.7,0,0,0,1.2-.5,2.9,2.9,0,0,0,.5-1.7V1039h5.9v34.1a8.4,8.4,0,0,1-1.9,5.9,6.6,6.6,0,0,1-5.1,2h-3.9Zm4.9-48.4h6v5.9h-6Z"/><path class="b" d="M758.6,1067.8a11.7,11.7,0,0,1-4.5-4.6,16.1,16.1,0,0,1-1.5-7.3v-3.4a17.3,17.3,0,0,1,1.5-7.5,10.6,10.6,0,0,1,4.3-4.8,13.2,13.2,0,0,1,6.8-1.7,11.2,11.2,0,0,1,6.4,1.9,12.4,12.4,0,0,1,4,5.4,22,22,0,0,1,1.4,8.5v2H756.9v-4.7h14.5a9.2,9.2,0,0,0-1.9-5.7,5,5,0,0,0-4.3-2.1,6.6,6.6,0,0,0-5.2,2.2,9.7,9.7,0,0,0-1.8,6.2v3.8c0,2.5.6,4.4,1.9,5.7s3.2,2,5.6,2a8.4,8.4,0,0,0,3.5-.7,11.6,11.6,0,0,0,3.2-2l3.8,3.8a13.3,13.3,0,0,1-4.9,3.3,14.1,14.1,0,0,1-5.6,1.2A15.5,15.5,0,0,1,758.6,1067.8Z"/><path class="b" d="M790.2,1067.8a9.6,9.6,0,0,1-4.4-4.5,13.7,13.7,0,0,1-1.6-7v-4.9a14.2,14.2,0,0,1,1.6-7,10.4,10.4,0,0,1,4.4-4.4,14.8,14.8,0,0,1,7-1.5,16.1,16.1,0,0,1,4.4.6,15.3,15.3,0,0,1,3.7,1.6,9.6,9.6,0,0,1,2.7,2.6l-4.2,3.8a10.5,10.5,0,0,0-3-2.2,8.6,8.6,0,0,0-3.6-.8,7.2,7.2,0,0,0-5.2,1.9,7.3,7.3,0,0,0-1.9,5.4v4.9a7.4,7.4,0,0,0,1.9,5.5,6.8,6.8,0,0,0,5.2,1.9,8.6,8.6,0,0,0,3.6-.8,9.9,9.9,0,0,0,3-2.4l4.2,4.1a11.6,11.6,0,0,1-2.8,2.6,13.8,13.8,0,0,1-3.7,1.6,19.5,19.5,0,0,1-4.3.5A14.8,14.8,0,0,1,790.2,1067.8Z"/><path class="b" d="M812.2,1039h13.5v5.3H812.2Zm4.7,28c-1.1-1.3-1.6-3.3-1.6-5.9v-30.8h5.8v30.9a2.5,2.5,0,0,0,.5,1.6,1.4,1.4,0,0,0,1.2.6h2.9v5.6h-3.4A6.9,6.9,0,0,1,816.9,1067Z"/><path class="b" d="M348.6,1097.8h5.9v41.9h-5.9Zm8.6,41a8.3,8.3,0,0,1-3.1-3.8l.4-6.3a6.7,6.7,0,0,0,.7,3.3,5.1,5.1,0,0,0,2,2.1,6.3,6.3,0,0,0,3.2.7,5.8,5.8,0,0,0,4.5-1.8c1.1-1.1,1.6-2.8,1.6-5v-6.4a7.3,7.3,0,0,0-1.6-5.1,5.5,5.5,0,0,0-4.5-1.9,7.6,7.6,0,0,0-3.2.7,5.1,5.1,0,0,0-2,2.1,6.3,6.3,0,0,0-.7,3.2l-.6-5.8a10,10,0,0,1,3.6-4,8.1,8.1,0,0,1,4.8-1.5,10.1,10.1,0,0,1,5.5,1.5,8.7,8.7,0,0,1,3.4,4.1,16.9,16.9,0,0,1,1.2,6.6v6.5a15.7,15.7,0,0,1-1.2,6.5,8.8,8.8,0,0,1-3.6,4.2,10.8,10.8,0,0,1-5.6,1.4A8.6,8.6,0,0,1,357.2,1138.8Z"/><path class="b" d="M376.4,1109.8h6l9.2,26-3.3,6.3Zm26.5,0-12.7,36.9a9.1,9.1,0,0,1-1.9,3.2,5.5,5.5,0,0,1-2.7,1.7,12.4,12.4,0,0,1-4.1.5h-1.1v-5.6h1.1a4,4,0,0,0,2.6-.7,4.4,4.4,0,0,0,1.7-2.2l11.1-33.8Z"/><path class="b" d="M429.5,1139.6a20.1,20.1,0,0,1-4.3-1.6,13.7,13.7,0,0,1-3.7-2.6l3.5-4.3a17.1,17.1,0,0,0,4.8,2.8,13.1,13.1,0,0,0,4.7.9,10.2,10.2,0,0,0,5.2-1,3.7,3.7,0,0,0,1.8-3.3,2.5,2.5,0,0,0-1-2.1,5.3,5.3,0,0,0-2.4-1l-3.9-.5h-1.5a28.7,28.7,0,0,1-4.9-.9,6.4,6.4,0,0,1-3.3-2.3,7.7,7.7,0,0,1-1.4-4.9,9.7,9.7,0,0,1,1.3-5.3,8.1,8.1,0,0,1,3.9-3.1,16.7,16.7,0,0,1,6.4-1.1,21.2,21.2,0,0,1,4.4.5,17.9,17.9,0,0,1,4.1,1.3,15.3,15.3,0,0,1,3.7,2.1l-3.5,4.3a18.7,18.7,0,0,0-4.5-2.2,15.4,15.4,0,0,0-4.2-.7,8.8,8.8,0,0,0-4.5,1,3.5,3.5,0,0,0-1.5,3.1,2,2,0,0,0,.9,1.8,4,4,0,0,0,2.1.8,26,26,0,0,0,3.7.4h1.1a23.8,23.8,0,0,1,5.3.8,6.7,6.7,0,0,1,3.7,2.5,8.5,8.5,0,0,1,1.5,5.4,9.3,9.3,0,0,1-1.4,5.4,8.2,8.2,0,0,1-4.1,3.1,18.1,18.1,0,0,1-7,1.1A26.5,26.5,0,0,1,429.5,1139.6Z"/><path class="b" d="M460.4,1127.9a6.7,6.7,0,0,0,1.6,4.9,6.1,6.1,0,0,0,4.5,1.7,6.4,6.4,0,0,0,4.5-1.5,6,6,0,0,0,1.5-4.4l.5,6.3a9.8,9.8,0,0,1-3,3.7,8.5,8.5,0,0,1-5.1,1.5,9.7,9.7,0,0,1-7.7-3.2q-2.7-3.2-2.7-9v-18.1h5.9Zm12.1-18.1h5.9v29.9h-5.9Z"/><path class="b" d="M487.3,1109.8h5.9v42h-5.9Zm8.6,29a8.3,8.3,0,0,1-3.1-3.8l.4-6.3a6.7,6.7,0,0,0,.7,3.3,5.1,5.1,0,0,0,2,2.1,6.3,6.3,0,0,0,3.2.7,5.8,5.8,0,0,0,4.5-1.8c1.1-1.1,1.6-2.8,1.6-5v-6.4a7.3,7.3,0,0,0-1.6-5.1,5.5,5.5,0,0,0-4.5-1.9,7.6,7.6,0,0,0-3.2.7,5.1,5.1,0,0,0-2,2.1,6.3,6.3,0,0,0-.7,3.2l-.6-5.8a10.6,10.6,0,0,1,3.5-4,8.6,8.6,0,0,1,4.9-1.5,9.5,9.5,0,0,1,5.4,1.5,8.9,8.9,0,0,1,3.5,4.1,16.9,16.9,0,0,1,1.2,6.6v6.5a15.7,15.7,0,0,1-1.2,6.5,9.3,9.3,0,0,1-3.6,4.2,10.8,10.8,0,0,1-5.6,1.4A8.4,8.4,0,0,1,495.9,1138.8Z"/><path class="b" d="M519.4,1109.8h5.9v42h-5.9Zm8.5,29a8.1,8.1,0,0,1-3-3.8l.4-6.3a6.7,6.7,0,0,0,.7,3.3,4.5,4.5,0,0,0,2,2.1,6.3,6.3,0,0,0,3.2.7,5.8,5.8,0,0,0,4.5-1.8,7.3,7.3,0,0,0,1.6-5v-6.4a7.8,7.8,0,0,0-1.6-5.1,5.5,5.5,0,0,0-4.5-1.9,7.6,7.6,0,0,0-3.2.7,4.5,4.5,0,0,0-2,2.1,6.3,6.3,0,0,0-.7,3.2l-.6-5.8a10.6,10.6,0,0,1,3.5-4,8.6,8.6,0,0,1,4.9-1.5,9.5,9.5,0,0,1,5.4,1.5,8.9,8.9,0,0,1,3.5,4.1,16.9,16.9,0,0,1,1.2,6.6v6.5a14.2,14.2,0,0,1-1.3,6.5,8.6,8.6,0,0,1-3.5,4.2,11.1,11.1,0,0,1-5.6,1.4A9,9,0,0,1,527.9,1138.8Z"/><path class="b" d="M557.4,1132a2.1,2.1,0,0,0,.5,1.6,1.5,1.5,0,0,0,1.3.6H562v5.6h-3.5a6.7,6.7,0,0,1-5.2-2.1,8.4,8.4,0,0,1-1.8-5.8v-34.1h5.9Z"/><path class="b" d="M565.4,1109.8h6l9.2,26-3.2,6.3Zm26.5,0-12.7,36.9a10.7,10.7,0,0,1-1.8,3.2,6.2,6.2,0,0,1-2.8,1.7,12.2,12.2,0,0,1-4,.5h-1.2v-5.6h1.2a4.4,4.4,0,0,0,2.6-.7,4.8,4.8,0,0,0,1.6-2.2l11.1-33.8Z"/><path class="b" d="M597.1,1097.8H603v5.9h-5.9Zm0,12H603v29.9h-5.9Z"/><path class="b" d="M611.9,1109.8h5.9v29.9h-5.9Zm18.1,11.8c0-2.2-.5-3.8-1.6-4.9a5.9,5.9,0,0,0-4.6-1.8,6.1,6.1,0,0,0-4.5,1.6,5.7,5.7,0,0,0-1.5,4.2l-.6-5.7a10.6,10.6,0,0,1,3.6-4.2,8.6,8.6,0,0,1,4.9-1.5,9.5,9.5,0,0,1,7.6,3.2c1.7,2.1,2.6,5.1,2.6,9v18.2H630Z"/><path class="b" d="M648.7,1138.8a9.7,9.7,0,0,1-3.5-4.2,16.2,16.2,0,0,1-1.2-6.6v-6.6a16.9,16.9,0,0,1,1.2-6.6,8.7,8.7,0,0,1,3.4-4.1,9.5,9.5,0,0,1,5.4-1.4,9.2,9.2,0,0,1,4.9,1.3,11.2,11.2,0,0,1,3.6,3.9l-.7,6.1a7.9,7.9,0,0,0-.6-3.2,5.8,5.8,0,0,0-2-2.1,6.6,6.6,0,0,0-3.2-.7,5.5,5.5,0,0,0-4.5,1.8,7.3,7.3,0,0,0-1.6,5.1v6.5a7.3,7.3,0,0,0,1.6,5.1,5.8,5.8,0,0,0,4.5,1.7,6.6,6.6,0,0,0,3.2-.7,5.8,5.8,0,0,0,2-2.1,8.1,8.1,0,0,0,.6-3.3l.5,6.3a8.3,8.3,0,0,1-3,3.7,8,8,0,0,1-5,1.5A11.1,11.1,0,0,1,648.7,1138.8Zm.1,11.8a10.2,10.2,0,0,1-4.1-3.6l4-3.6a9.1,9.1,0,0,0,2.7,2.5,6.9,6.9,0,0,0,3.4.9,6.4,6.4,0,0,0,7-7.2v-29.8h5.9v29a15.1,15.1,0,0,1-1.5,7,10.1,10.1,0,0,1-4.4,4.5,16.4,16.4,0,0,1-13,.3Z"/><path class="b" d="M689.3,1109.8h6l9.2,26-3.2,6.3Zm26.5,0-12.7,36.9a10.7,10.7,0,0,1-1.8,3.2,6.2,6.2,0,0,1-2.8,1.7,11.8,11.8,0,0,1-4,.5h-1.2v-5.6h1.2a4.2,4.2,0,0,0,2.6-.7,5.8,5.8,0,0,0,1.7-2.2l11-33.8Z"/><path class="b" d="M725.2,1138.6a10.2,10.2,0,0,1-4.2-4.5,15.1,15.1,0,0,1-1.4-7v-4.9a14.7,14.7,0,0,1,1.4-6.9,10,10,0,0,1,4.2-4.4,13,13,0,0,1,6.7-1.6,12.4,12.4,0,0,1,6.6,1.6,9.6,9.6,0,0,1,4.3,4.4,16,16,0,0,1,1.4,6.9v5a16.8,16.8,0,0,1-1.4,7,10.2,10.2,0,0,1-4.3,4.4,13.4,13.4,0,0,1-6.6,1.5A14.1,14.1,0,0,1,725.2,1138.6Zm11.5-6a8.1,8.1,0,0,0,1.6-5.4v-5a8.1,8.1,0,0,0-1.6-5.4,6.6,6.6,0,0,0-4.8-1.9,6.2,6.2,0,0,0-4.8,1.9,8.1,8.1,0,0,0-1.7,5.4v5a8.1,8.1,0,0,0,1.7,5.4,5.9,5.9,0,0,0,4.8,1.9A6.2,6.2,0,0,0,736.7,1132.6Z"/><path class="b" d="M757.7,1127.9a7.2,7.2,0,0,0,1.6,4.9,6.1,6.1,0,0,0,4.5,1.7,6.3,6.3,0,0,0,4.5-1.5,5.7,5.7,0,0,0,1.6-4.4l.4,6.3a8.3,8.3,0,0,1-3,3.7,8.5,8.5,0,0,1-5.1,1.5,9.7,9.7,0,0,1-7.7-3.2q-2.7-3.2-2.7-9v-18.1h5.9Zm12.2-18.1h5.8v29.9h-5.8Z"/><path class="b" d="M784.7,1109.8h5.8v29.9h-5.8Zm14.5,5.6a7.8,7.8,0,0,0-2.8-.5,5.6,5.6,0,0,0-4.3,1.6,5.7,5.7,0,0,0-1.6,4.2l-.6-5.7a11.5,11.5,0,0,1,3.6-4.2,8.5,8.5,0,0,1,4.8-1.5,10.6,10.6,0,0,1,3.7.6,7.1,7.1,0,0,1,2.9,1.8l-3.8,5.2A4.5,4.5,0,0,0,799.2,1115.4Z"/><path class="b" d="M477.5,1209.6a9.7,9.7,0,0,1-3.5-4.2,16.2,16.2,0,0,1-1.2-6.6v-6.6a16.9,16.9,0,0,1,1.2-6.6,8.7,8.7,0,0,1,3.4-4.1,9.5,9.5,0,0,1,5.4-1.4,9.2,9.2,0,0,1,4.9,1.3,11.2,11.2,0,0,1,3.6,3.9l-.6,6.1a7.9,7.9,0,0,0-.7-3.2,5.8,5.8,0,0,0-2-2.1,6.6,6.6,0,0,0-3.2-.7,5.5,5.5,0,0,0-4.5,1.8,7.3,7.3,0,0,0-1.6,5.1v6.5a7.3,7.3,0,0,0,1.6,5.1,5.8,5.8,0,0,0,4.5,1.7,6.6,6.6,0,0,0,3.2-.7,5.8,5.8,0,0,0,2-2.1,8.1,8.1,0,0,0,.7-3.3l.4,6.3a8.3,8.3,0,0,1-3,3.7,8,8,0,0,1-5,1.5A11.1,11.1,0,0,1,477.5,1209.6Zm13.2-41h5.8v41.9h-5.8Z"/><path class="b" d="M506.8,1208.6c-1.9-1.5-2.8-3.8-2.8-6.9a8.7,8.7,0,0,1,2.5-6.7c1.7-1.5,4.2-2.2,7.6-2.2h8.5l.4,4.7h-8.9a5.3,5.3,0,0,0-3.4,1,4,4,0,0,0-1.1,3.2,3.7,3.7,0,0,0,1.5,3.3c1,.8,2.5,1.1,4.6,1.1a12.9,12.9,0,0,0,5-.7,2.3,2.3,0,0,0,1.6-2.2l.6,4.2a7.2,7.2,0,0,1-1.9,2,6.8,6.8,0,0,1-2.6,1.1,11.8,11.8,0,0,1-3.4.4C511.3,1210.9,508.6,1210.1,506.8,1208.6Zm15.5-17.1a6.3,6.3,0,0,0-1.5-4.5,6.1,6.1,0,0,0-4.5-1.7,10.7,10.7,0,0,0-3.5.6,8.5,8.5,0,0,0-3,1.5l-4.3-2.9a10,10,0,0,1,4.5-3.2,15.1,15.1,0,0,1,6.1-1.2,15.5,15.5,0,0,1,6.4,1.3,8.9,8.9,0,0,1,4,3.9,11.1,11.1,0,0,1,1.4,6v19.2h-5.6Z"/><path class="b" d="M534.6,1180.6H548v5.3H534.6Zm4.7,28a9,9,0,0,1-1.7-5.9v-30.8h5.9v30.9a3.4,3.4,0,0,0,.4,1.6,1.6,1.6,0,0,0,1.3.6H548v5.6h-3.4C542.2,1210.6,540.4,1210,539.3,1208.6Z"/><path class="b" d="M557.4,1208.6q-2.7-2.2-2.7-6.9c0-3,.8-5.2,2.5-6.7s4.2-2.2,7.5-2.2h8.5l.5,4.7h-8.9a5.6,5.6,0,0,0-3.5,1,4.4,4.4,0,0,0-1.1,3.2,3.7,3.7,0,0,0,1.5,3.3c1,.8,2.5,1.1,4.6,1.1a12.6,12.6,0,0,0,5-.7,2.4,2.4,0,0,0,1.7-2.2l.6,4.2a9,9,0,0,1-1.9,2,8.1,8.1,0,0,1-2.7,1.1,11.5,11.5,0,0,1-3.3.4C562,1210.9,559.2,1210.1,557.4,1208.6Zm15.6-17.1a5.9,5.9,0,0,0-1.6-4.5,5.7,5.7,0,0,0-4.4-1.7,10.3,10.3,0,0,0-3.5.6,8.1,8.1,0,0,0-3.1,1.5l-4.3-2.9a11.2,11.2,0,0,1,4.5-3.2,16.5,16.5,0,0,1,12.6.1,9.4,9.4,0,0,1,4,3.9,12.1,12.1,0,0,1,1.4,6v19.2H573Z"/><path class="b" d="M609,1210.4a20.9,20.9,0,0,1-4.4-1.6,15.5,15.5,0,0,1-3.7-2.6l3.5-4.3a17.1,17.1,0,0,0,4.8,2.8,13.5,13.5,0,0,0,4.7.9,10.9,10.9,0,0,0,5.3-1,3.8,3.8,0,0,0,1.7-3.3,2.3,2.3,0,0,0-1-2.1,5.4,5.4,0,0,0-2.3-1l-4-.5h-1.4a28.2,28.2,0,0,1-5-.9,6.9,6.9,0,0,1-3.3-2.3,7.7,7.7,0,0,1-1.4-4.9,10.6,10.6,0,0,1,1.3-5.3,8.1,8.1,0,0,1,3.9-3.1,17.1,17.1,0,0,1,6.4-1.1,21.4,21.4,0,0,1,4.5.5,18.7,18.7,0,0,1,4,1.3,13.6,13.6,0,0,1,3.7,2.1l-3.5,4.3a20.1,20.1,0,0,0-4.4-2.2,16.8,16.8,0,0,0-4.3-.7,8.8,8.8,0,0,0-4.5,1,3.5,3.5,0,0,0-1.5,3.1,2,2,0,0,0,.9,1.8,4.9,4.9,0,0,0,2.1.8,26,26,0,0,0,3.7.4h1.1a25.7,25.7,0,0,1,5.4.8,7,7,0,0,1,3.7,2.5,8.5,8.5,0,0,1,1.5,5.4,10.1,10.1,0,0,1-1.4,5.4,8,8,0,0,1-4.2,3.1,19.8,19.8,0,0,1-7,1.1A25.4,25.4,0,0,1,609,1210.4Z"/><path class="b" d="M639.1,1209.4a11.1,11.1,0,0,1-4.5-4.6,16.1,16.1,0,0,1-1.5-7.3v-3.4a17.3,17.3,0,0,1,1.5-7.5,10.6,10.6,0,0,1,4.3-4.8,13.2,13.2,0,0,1,6.8-1.7,11.2,11.2,0,0,1,6.4,1.9,12.4,12.4,0,0,1,4,5.4,24,24,0,0,1,1.4,8.5v2H637.3v-4.7h14.6a9.2,9.2,0,0,0-1.9-5.7,5,5,0,0,0-4.3-2.1,6.5,6.5,0,0,0-5.2,2.2,9.7,9.7,0,0,0-1.8,6.2v3.8c0,2.5.6,4.4,1.9,5.7s3.2,2,5.6,2a8.4,8.4,0,0,0,3.5-.7,11.6,11.6,0,0,0,3.2-2l3.8,3.8a13.3,13.3,0,0,1-4.9,3.3,14.1,14.1,0,0,1-5.6,1.2A15.5,15.5,0,0,1,639.1,1209.4Z"/><path class="b" d="M663.3,1180.6h13.5v5.3H663.3Zm4.7,28c-1.1-1.3-1.6-3.3-1.6-5.9v-30.8h5.8v30.9a2.5,2.5,0,0,0,.5,1.6,1.4,1.4,0,0,0,1.2.6h2.9v5.6h-3.4C670.9,1210.6,669.2,1210,668,1208.6Z"/><path class="c" d="M617.4,251.6c-33.3-11.5-70.7-9.9-103.5,1.4s-61.1,31.8-83.8,56.2c-55.6,59.8-77.6,145.2-57.4,223.3,12.1,46.8,39.5,91.5,81.1,121s98.1,42.2,147.2,27.9c36.8-10.6,67.1-35.2,89.7-63.8,44.1-56,61-130,45.4-198.9S680.2,273.5,617.8,252"/><path class="d" d="M621,238.5c-47.7-16.3-101.4-7.7-144.8,16.7-39,22-71.4,56.5-92.8,95.7a257.6,257.6,0,0,0-31.6,126.2c.5,43.6,12.7,87.2,35.6,124.4A219.4,219.4,0,0,0,430,652a207.6,207.6,0,0,0,60.5,36.1,189.9,189.9,0,0,0,66.2,12.7,173,173,0,0,0,34.5-3.1A159.3,159.3,0,0,0,624.9,687c41-17.6,74-51.9,96.1-90a252.9,252.9,0,0,0,34.3-130.4c-.6-42.9-12.9-85.4-31.3-124-17.1-36-42-70.5-76.5-91.5a137.9,137.9,0,0,0-26.1-12.2c-6.7-2.3-15.1,2.7-16.7,9.5s2.3,14.1,9.5,16.6l7,2.7-3.3-1.4a132.8,132.8,0,0,1,28.4,16.8l-2.8-2.1a172.7,172.7,0,0,1,30.9,31.3l-2.1-2.7c14,18.2,25.2,38.5,34.1,59.7L705,366c10.3,24.3,18.1,50.1,21.7,76.3l-.5-3.6a239.3,239.3,0,0,1-.1,62.7l.5-3.6a240.2,240.2,0,0,1-16.8,61.7l1.3-3.2a240.6,240.6,0,0,1-30.8,52.8l2.1-2.8A214.7,214.7,0,0,1,645.1,644l2.8-2.1a172.6,172.6,0,0,1-37.3,22l3.3-1.4a151.9,151.9,0,0,1-38,10.4l3.6-.5a166.7,166.7,0,0,1-43.5-.2l3.6.5a187.6,187.6,0,0,1-47.7-13.1l3.2,1.4a187.5,187.5,0,0,1-40.6-23.7l2.8,2.1a200,200,0,0,1-35.9-35.9l2.2,2.7a220.1,220.1,0,0,1-28.5-49l1.3,3.3a235,235,0,0,1-16-58.8l.5,3.6a241.6,241.6,0,0,1,.1-63l-.5,3.6a248,248,0,0,1,17.1-62.7l-1.3,3.2a244.7,244.7,0,0,1,31.3-53.7l-2.1,2.8a235.3,235.3,0,0,1,42.2-42.4l-2.7,2.1a204.8,204.8,0,0,1,44.2-26.1l-3.2,1.4a174.9,174.9,0,0,1,44.2-12.2l-3.6.5a168.1,168.1,0,0,1,43.1-.2l-3.6-.5a146.9,146.9,0,0,1,27.7,6.6c6.7,2.3,15.1-2.7,16.7-9.5s-2.3-14.2-9.5-16.7Z"/><ellipse class="e" cx="625.6" cy="724.5" rx="67.5" ry="40.3"/><path class="c" d="M771.8,149.6c-11.3-11.5-31.7-18.5-52.5-19.9s-41.9,2.2-60.7,8.3c-45.9,15-69.2,70.4-79.3,102.6l-1.4,1.9.4.3c19-17,48.7-39.5,75.7-41.3,20.3-1.3,40.8,1.1,61.3.8s42.4-3.8,55.1-14.3S783,161.1,771.8,149.6Z"/><path class="d" d="M781.3,140c-7.6-7.7-17.2-12.8-27.2-16.7s-21.3-5.9-32.2-6.9-23.8-.3-35.7,1.3a185.7,185.7,0,0,0-31.2,7.2c-16.6,5.5-31.3,15.5-43.3,28.2a167.7,167.7,0,0,0-27.5,39.7,278.1,278.1,0,0,0-16.7,40.3l-1.2,3.9,1.3-3.2-1.4,1.8-1.3,3.2a10.3,10.3,0,0,0-.3,5.5,12.9,12.9,0,0,0,3.8,7.7l.3.4a13.6,13.6,0,0,0,9.6,3.9,14.7,14.7,0,0,0,9.5-3.9c5.1-4.5,10.2-8.8,15.5-12.9l-2.7,2.1c11.2-8.7,23.2-16.7,36.4-22.2l-3.3,1.3a84.2,84.2,0,0,1,20.3-5.8l-3.6.5a132.2,132.2,0,0,1,18.9-.7c6.6,0,13.2.3,19.7.5,12.7.6,25.4,1.2,38.1.1s24-2.7,35-7.3a74.8,74.8,0,0,0,9.5-4.4,68.1,68.1,0,0,0,8.2-5.9,40.4,40.4,0,0,0,11.9-17.1c2.5-6.6,2.5-14.3.8-21.1s-6-14.1-11.2-19.5a13.8,13.8,0,0,0-9.5-3.9,13.6,13.6,0,0,0-9.6,3.9c-2.4,2.6-4.2,6-4,9.6a14.6,14.6,0,0,0,4,9.6l2.4,2.8-2.1-2.7a30.5,30.5,0,0,1,4,6.7l-1.4-3.2a24.1,24.1,0,0,1,1.8,6.5l-.5-3.6a32.1,32.1,0,0,1,0,6.2l.5-3.6a26.7,26.7,0,0,1-1.6,5.7l1.3-3.2a27.7,27.7,0,0,1-3.4,5.7l2.2-2.7a48.5,48.5,0,0,1-5.6,5.5l2.7-2.2a50,50,0,0,1-10.8,6.1l3.2-1.3a95.5,95.5,0,0,1-23.5,6l3.6-.5c-24.4,3.3-48.9-.4-73.4.2a112.6,112.6,0,0,0-19.2,1.9A80.2,80.2,0,0,0,628,194a160.4,160.4,0,0,0-30.5,16.5,287.4,287.4,0,0,0-28.8,22.7h19.1l-.3-.3,2.1,16.4a13.2,13.2,0,0,0,2.8-5.1c.4-1.1.7-2.1,1-3.2l2.4-6.9c1.8-5.1,3.7-10.2,5.9-15.2l-1.4,3.2a213.6,213.6,0,0,1,17.8-33.8c2.1-3.1,4.3-6.1,6.5-9.1l-2.1,2.8a117.1,117.1,0,0,1,20.6-21l-2.7,2.1A91.2,91.2,0,0,1,659.2,152l-3.2,1.4a126.2,126.2,0,0,1,17.1-5.5,181.3,181.3,0,0,1,20.5-4.1l-3.6.5a140.9,140.9,0,0,1,36.7-.3l-3.6-.5a106,106,0,0,1,26,6.8l-3.3-1.3a60.9,60.9,0,0,1,14.5,8.2l-2.8-2.1a36.3,36.3,0,0,1,4.7,4.1,13.4,13.4,0,0,0,19.1,0c2.4-2.6,4.2-6,4-9.6A14.6,14.6,0,0,0,781.3,140Z"/><path class="a" d="M763,138a29.3,29.3,0,0,1-6.4,16.8c-10.2,13.2-30.1,20.6-49.2,24.1s-38.5,4.3-57.3,8.9c-8.6,2.2-17.1,7-25.1,13.3a34.3,34.3,0,0,1,6.3,8.3c7.8-4.6,15.8-7.9,23.7-9,19.2-2.6,38.6-1.2,57.9-2.6s39.8-6.6,51.1-18.6S774,149.8,763,138Z"/><path class="a" d="M741.4,418.7c-15.6-68.9-56-145.2-118.3-166.7l-.4-.4a150.9,150.9,0,0,0-57.8-7.6c4,.5,8,1.2,12,1.9,34,6.8,67.1,24.2,90.1,50.9v.5c43,50,39.5,136.1,18.3,203.4S612.3,623.4,546.1,649.5c-22.1,8.7-46,14.3-70.3,14.5,39.3,21.8,87.7,29.9,130.5,17.4,36.7-10.6,67.1-35.2,89.6-63.8C740.1,561.6,757,487.6,741.4,418.7Z"/><path class="d" d="M621,238.5c-47.7-16.3-101.4-7.7-144.8,16.7-39,22-71.4,56.5-92.8,95.7a257.6,257.6,0,0,0-31.6,126.2c.5,43.6,12.7,87.2,35.6,124.4A219.4,219.4,0,0,0,430,652a207.6,207.6,0,0,0,60.5,36.1,189.9,189.9,0,0,0,66.2,12.7,173,173,0,0,0,34.5-3.1A159.3,159.3,0,0,0,624.9,687c41-17.6,74-51.9,96.1-90a252.9,252.9,0,0,0,34.3-130.4c-.6-42.9-12.9-85.4-31.3-124-17.1-36-42-70.5-76.5-91.5a137.9,137.9,0,0,0-26.1-12.2c-6.7-2.3-15.1,2.7-16.7,9.5s2.3,14.1,9.5,16.6l7,2.7-3.3-1.4a132.8,132.8,0,0,1,28.4,16.8l-2.8-2.1a172.7,172.7,0,0,1,30.9,31.3l-2.1-2.7c14,18.2,25.2,38.5,34.1,59.7L705,366c10.3,24.3,18.1,50.1,21.7,76.3l-.5-3.6a239.3,239.3,0,0,1-.1,62.7l.5-3.6a240.2,240.2,0,0,1-16.8,61.7l1.3-3.2a240.6,240.6,0,0,1-30.8,52.8l2.1-2.8A214.7,214.7,0,0,1,645.1,644l2.8-2.1a172.6,172.6,0,0,1-37.3,22l3.3-1.4a151.9,151.9,0,0,1-38,10.4l3.6-.5a166.7,166.7,0,0,1-43.5-.2l3.6.5a187.6,187.6,0,0,1-47.7-13.1l3.2,1.4a187.5,187.5,0,0,1-40.6-23.7l2.8,2.1a200,200,0,0,1-35.9-35.9l2.2,2.7a220.1,220.1,0,0,1-28.5-49l1.3,3.3a235,235,0,0,1-16-58.8l.5,3.6a241.6,241.6,0,0,1,.1-63l-.5,3.6a248,248,0,0,1,17.1-62.7l-1.3,3.2a244.7,244.7,0,0,1,31.3-53.7l-2.1,2.8a235.3,235.3,0,0,1,42.2-42.4l-2.7,2.1a204.8,204.8,0,0,1,44.2-26.1l-3.2,1.4a174.9,174.9,0,0,1,44.2-12.2l-3.6.5a168.1,168.1,0,0,1,43.1-.2l-3.6-.5a146.9,146.9,0,0,1,27.7,6.6c6.7,2.3,15.1-2.7,16.7-9.5s-2.3-14.2-9.5-16.7Z"/><rect class="f" x="447.9" y="378.2" width="211.3" height="97.97" rx="18.1"/><path class="a" d="M678.9,720.4c-4.1-13.3-18.4-30.1-43.9-39.1h-.1a145.6,145.6,0,0,0-24-6.2l4.9,1.3c14.1,4.1,27.4,9.9,36.1,16.5h0c16.3,12.4,11.8,27.2.6,37.2s-35,15.4-63.8,14.4a201.3,201.3,0,0,1-30-3.4,170.4,170.4,0,0,0,54.2,14c15.8,1.2,29.4-.5,39.9-3.6C673.3,745.4,683,733.8,678.9,720.4Z"/><ellipse class="g" cx="622.5" cy="723" rx="67.5" ry="40.3"/><ellipse class="e" cx="486.2" cy="724.5" rx="67.5" ry="40.3"/><path class="a" d="M543,722.7c-4.1-13.3-18.4-30.1-43.9-39.1H499a156.4,156.4,0,0,0-24-6.2l5,1.4c14,4,27.3,9.8,36,16.4h0c16.4,12.4,11.9,27.2.6,37.2s-35,15.4-63.7,14.4a201.1,201.1,0,0,1-30.1-3.4,170.4,170.4,0,0,0,54.2,14c15.8,1.2,29.4-.5,39.9-3.6C537.4,747.7,547.1,736.1,543,722.7Z"/><ellipse class="g" cx="483.2" cy="723" rx="67.5" ry="40.3"/><path class="d" d="M781.3,140c-7.6-7.7-17.2-12.8-27.2-16.7s-21.3-5.9-32.2-6.9-23.8-.3-35.7,1.3a185.7,185.7,0,0,0-31.2,7.2c-16.6,5.5-31.3,15.5-43.3,28.2a167.7,167.7,0,0,0-27.5,39.7,278.1,278.1,0,0,0-16.7,40.3l-1.2,3.9,1.3-3.2-1.4,1.8-1.3,3.2a10.3,10.3,0,0,0-.3,5.5,12.9,12.9,0,0,0,3.8,7.7l.3.4a13.6,13.6,0,0,0,9.6,3.9,14.7,14.7,0,0,0,9.5-3.9c5.1-4.5,10.2-8.8,15.5-12.9l-2.7,2.1c11.2-8.7,23.2-16.7,36.4-22.2l-3.3,1.3a84.2,84.2,0,0,1,20.3-5.8l-3.6.5a132.2,132.2,0,0,1,18.9-.7c6.6,0,13.2.3,19.7.5,12.7.6,25.4,1.2,38.1.1s24-2.7,35-7.3a74.8,74.8,0,0,0,9.5-4.4,68.1,68.1,0,0,0,8.2-5.9,40.4,40.4,0,0,0,11.9-17.1c2.5-6.6,2.5-14.3.8-21.1s-6-14.1-11.2-19.5a13.8,13.8,0,0,0-9.5-3.9,13.6,13.6,0,0,0-9.6,3.9c-2.4,2.6-4.2,6-4,9.6a14.6,14.6,0,0,0,4,9.6l2.4,2.8-2.1-2.7a30.5,30.5,0,0,1,4,6.7l-1.4-3.2a24.1,24.1,0,0,1,1.8,6.5l-.5-3.6a32.1,32.1,0,0,1,0,6.2l.5-3.6a26.7,26.7,0,0,1-1.6,5.7l1.3-3.2a27.7,27.7,0,0,1-3.4,5.7l2.2-2.7a48.5,48.5,0,0,1-5.6,5.5l2.7-2.2a50,50,0,0,1-10.8,6.1l3.2-1.3a95.5,95.5,0,0,1-23.5,6l3.6-.5c-24.4,3.3-48.9-.4-73.4.2a112.6,112.6,0,0,0-19.2,1.9A80.2,80.2,0,0,0,628,194a160.4,160.4,0,0,0-30.5,16.5,287.4,287.4,0,0,0-28.8,22.7h19.1l-.3-.3,2.1,16.4a13.2,13.2,0,0,0,2.8-5.1c.4-1.1.7-2.1,1-3.2l2.4-6.9c1.8-5.1,3.7-10.2,5.9-15.2l-1.4,3.2a213.6,213.6,0,0,1,17.8-33.8c2.1-3.1,4.3-6.1,6.5-9.1l-2.1,2.8a117.1,117.1,0,0,1,20.6-21l-2.7,2.1A91.2,91.2,0,0,1,659.2,152l-3.2,1.4a126.2,126.2,0,0,1,17.1-5.5,181.3,181.3,0,0,1,20.5-4.1l-3.6.5a140.9,140.9,0,0,1,36.7-.3l-3.6-.5a106,106,0,0,1,26,6.8l-3.3-1.3a60.9,60.9,0,0,1,14.5,8.2l-2.8-2.1a36.3,36.3,0,0,1,4.7,4.1,13.4,13.4,0,0,0,19.1,0c2.4-2.6,4.2-6,4-9.6A14.6,14.6,0,0,0,781.3,140Z"/><circle class="h" cx="527.4" cy="432.3" r="8.7"/><circle class="h" cx="475.2" cy="432.3" r="8.7"/><circle class="h" cx="490.7" cy="414.9" r="8.7"/><circle class="h" cx="512" cy="414.9" r="8.7"/><circle class="h" cx="631.9" cy="432.3" r="8.7"/><circle class="h" cx="579.7" cy="432.3" r="8.7"/><circle class="h" cx="595.1" cy="414.9" r="8.7"/><circle class="h" cx="616.4" cy="414.9" r="8.7"/><path class="i" d="M462,496.8c-8.2.1-63.7-6.5-64,1.4l20.2,45.7c.2,8.3,9.7,18.2,1.4,18.4l-41.3,4.6H376a4.1,4.1,0,0,0-4,4,116.6,116.6,0,0,0,4.3,32.6c13.3,47.1,56.2,82.1,107.1,83l38.4.6A19.5,19.5,0,0,0,541.5,668l.4-30.3.8-57C543.4,535.3,507,497.6,462,496.8Z"/><path class="i" d="M743.4,350.2c2.1-78.7-68.4-147.1-160.8-154.5S409.8,244.9,399.5,322.9Z"/><path class="j" d="M602.5,198.3a202.9,202.9,0,0,1,27.7,23.5c35.2,35.7,53.8,80.8,55.1,123.8l58.1,4.6C745.3,277.2,684.9,213.1,602.5,198.3Z"/><path class="k" d="M604.5,195.6s-4.8-2.4-5-1.2c-6.2,34.1-24.3,86.2-21.7,124.6,1.9-20.5,20.9-103.8,34.8-117.7C611.4,200.2,604.5,195.6,604.5,195.6Z"/><path class="l" d="M576.9,194.4c3.4-4.6,29.9-2.3,27.6,2.3-17,34.1-23.4,94.9-20.7,133.6L540,328C544.6,243.9,568.8,209.4,576.9,194.4Z"/><rect class="i" x="358" y="324.6" width="413.6" height="39.17" rx="19.6" transform="matrix(1, 0.08, -0.08, 1, 28.97, -43.56)"/><path class="k" d="M753.3,369.5,377.9,347.1a23.1,23.1,0,0,1-18-10.9,19.5,19.5,0,0,0,16.7,12.7l373.2,29.6a19.8,19.8,0,0,0,20.7-15.3A23.1,23.1,0,0,1,753.3,369.5Z"/><path class="m" d="M376,567a4.1,4.1,0,0,0-4,4h0a116.6,116.6,0,0,0,4.3,32.6c23.6,11.8,70.7,33.9,165.6,34.1l.8-57c-46.8,5.7-118.5,2.6-164.4-13.8Z"/><path class="i" d="M638.2,496.8c8.1.1,63.6-6.5,63.9,1.4l-20.2,45.7c-.2,8.3-9.7,18.2-1.4,18.4l41.3,4.6h2.3a4.1,4.1,0,0,1,4,4,116.6,116.6,0,0,1-4.3,32.6c-13.3,47.1-56.1,82.1-107.1,83l-38.3.6A19.6,19.6,0,0,1,558.6,668l-.4-30.3-.8-57C556.7,535.3,593.1,497.6,638.2,496.8Z"/><path class="m" d="M724.1,567a4.1,4.1,0,0,1,4,4h0a116.6,116.6,0,0,1-4.3,32.6c-23.6,11.8-70.7,33.9-165.6,34.1l-.8-57c46.9,5.7,118.5,2.6,164.4-13.8Z"/><path class="n" d="M724.7,602.4c-.4,1.6-.9,3.1-1.4,4.6C723.8,605.5,724.3,604,724.7,602.4Z"/><path class="n" d="M728.5,580.7c-.1,1.3-.3,2.6-.4,3.9C728.2,583.3,728.4,582,728.5,580.7Z"/><path class="n" d="M727.1,591.7c-.2,1.6-.6,3-.9,4.5C726.5,594.7,726.9,593.3,727.1,591.7Z"/><path class="o" d="M726.2,596.2c-.5,2.1-.9,4.2-1.5,6.2C725.3,600.4,725.7,598.3,726.2,596.2Z"/><path class="o" d="M728.9,569.2h0v0Z"/><path class="o" d="M723.3,607c-.4,1.4-.9,2.8-1.4,4.2h.1C722.5,609.8,722.9,608.4,723.3,607Z"/><path class="o" d="M561.5,639.1h0c-.3-13.7-.3-17.6-.6-33.3Z"/><path class="o" d="M728.9,569.4a105.7,105.7,0,0,1-.4,11.3A105.7,105.7,0,0,0,728.9,569.4Z"/><path class="o" d="M728.1,584.6c-.3,2.4-.6,4.8-1,7.1C727.5,589.4,727.8,587,728.1,584.6Z"/><path class="p" d="M345,377.3a3.1,3.1,0,0,0-5.1,1.5l-3.1,11.4a3.2,3.2,0,0,1-3.9,2.2L313.4,387a3.2,3.2,0,0,1-2.2-3.9l3.2-11.4a3.2,3.2,0,0,0-3.6-3.9c-8.9,1.9-15.8,7.1-17.9,14.7s2.6,18.8,12.1,25.2a10.4,10.4,0,0,0-1.5,3.4L273.9,518.2c-11.2.7-20.3,6.4-22.8,15.3-1.7,6.1.1,12.4,4.3,17.9a3.1,3.1,0,0,0,5.4-1.1l3.4-12.3a3.1,3.1,0,0,1,3.9-2.2l27.3,7.5a3.2,3.2,0,0,1,2.1,3.9l-3.4,12.3a3.1,3.1,0,0,0,4.2,3.7c6.4-2.5,11.1-7.1,12.8-13.1,2.4-8.9-2.5-18.5-11.7-24.9l29.6-107a12.4,12.4,0,0,0,.5-3.8c11.4-.5,20.8-6.3,23.3-15.3S351.7,383.4,345,377.3Z"/><ellipse class="q" cx="365" cy="509.1" rx="37.9" ry="77.6" transform="translate(-252.1 401.4) rotate(-44.5)"/><path class="r" d="M415.2,562.7c-14.1,2.2-38.6-1.7-65.4-17.8h0c-7.7-5-15.7-10.5-23.1-16.1l4.9,3.3a184.2,184.2,0,0,0,40.9,21.1h0c22.4,7.8,31.4-1.8,31-14.7s-13.6-33.4-36.2-55.2a241.4,241.4,0,0,0-25.5-21.9,278.8,278.8,0,0,1,52.6,36.1,146.5,146.5,0,0,1,27.2,32.6C431.8,548.5,429.7,560.7,415.2,562.7Z"/><ellipse class="s" cx="364.2" cy="509.4" rx="37.9" ry="77.6" transform="translate(-256.4 425.8) rotate(-46.8)"/><ellipse class="q" cx="681.9" cy="568.9" rx="77.6" ry="37.9" transform="translate(-194.3 713.5) rotate(-49.2)"/><path class="r" d="M632.6,623.4c-3.4-13.8-1.5-38.6,12.4-66.6h0c4.3-8.2,9.1-16.6,14.1-24.5l-2.9,5.2A192.8,192.8,0,0,0,638.5,580h0c-5.9,23,4.4,31.2,17.2,29.8s32.2-16.4,52.1-40.8a275.3,275.3,0,0,0,19.7-27.1,286.8,286.8,0,0,1-31.7,55.4A146.6,146.6,0,0,1,665.6,627C648.1,638.8,635.8,637.6,632.6,623.4Z"/><ellipse class="s" cx="681.5" cy="568.2" rx="77.6" ry="37.9" transform="translate(-187.4 748) rotate(-51.5)"/></svg>