<?xml version="1.0" encoding="utf-8"?>
<svg viewBox="0 0 1133.9 881.4" xmlns="http://www.w3.org/2000/svg">
  <defs>
    <style>.a{fill:#cdcccc;}.b,.d,.p{fill:#fff;}.c{fill:#4e4d4d;}.d,.f{stroke:#4e4d4d;stroke-width:22.59px;}.d,.e,.f{stroke-miterlimit:10;}.e{fill:#010101;stroke:#010101;stroke-width:9.03px;}.f,.r{fill:none;}.g{fill:#ffcc07;}.h{fill:#ffcc03;}.i{fill:#deb200;}.j{fill:#deb100;}.k{fill:#ffde5e;}.l{fill:#ffde5d;}.m{fill:#f39323;}.n{fill:#f6a545;}.o{fill:#808181;stroke:#808181;stroke-width:4.61px;}.o,.r{stroke-miterlimit:10;}.p,.r{stroke:#4f4e4e;}.p{stroke-miterlimit:10;stroke-width:23.47px;}.q{fill:#cecccc;}.r{stroke-width:23.47px;}</style>
  </defs>
  <ellipse class="a" cx="557.4" cy="758.2" rx="217.8" ry="44"/>
  <path class="b" d="M617.4,251.6c-33.3-11.5-70.7-9.9-103.5,1.4s-61.1,31.8-83.8,56.2c-55.6,59.8-77.6,145.2-57.4,223.3,12.1,46.8,39.5,91.5,81.1,121s98.1,42.2,147.2,27.9c36.8-10.6,67.1-35.2,89.7-63.8,44.1-56,61-130,45.4-198.9S680.2,273.5,617.8,252"/>
  <path class="c" d="M621,238.5c-47.7-16.3-101.4-7.7-144.8,16.7-39,22-71.4,56.5-92.8,95.7a257.6,257.6,0,0,0-31.6,126.2c.5,43.6,12.7,87.2,35.6,124.4A219.4,219.4,0,0,0,430,652a207.6,207.6,0,0,0,60.5,36.1,189.9,189.9,0,0,0,66.2,12.7,173,173,0,0,0,34.5-3.1A159.3,159.3,0,0,0,624.9,687c41-17.6,74-51.9,96.1-90a252.9,252.9,0,0,0,34.3-130.4c-.6-42.9-12.9-85.4-31.3-124-17.1-36-42-70.5-76.5-91.5a137.9,137.9,0,0,0-26.1-12.2c-6.7-2.3-15.1,2.7-16.7,9.5s2.3,14.1,9.5,16.6l7,2.7-3.3-1.4a132.8,132.8,0,0,1,28.4,16.8l-2.8-2.1a172.7,172.7,0,0,1,30.9,31.3l-2.1-2.7c14,18.2,25.2,38.5,34.1,59.7L705,366c10.3,24.3,18.1,50.1,21.7,76.3l-.5-3.6a239.3,239.3,0,0,1-.1,62.7l.5-3.6a240.2,240.2,0,0,1-16.8,61.7l1.3-3.2a240.6,240.6,0,0,1-30.8,52.8l2.1-2.8A214.7,214.7,0,0,1,645.1,644l2.8-2.1a172.6,172.6,0,0,1-37.3,22l3.3-1.4a151.9,151.9,0,0,1-38,10.4l3.6-.5a166.7,166.7,0,0,1-43.5-.2l3.6.5a187.6,187.6,0,0,1-47.7-13.1l3.2,1.4a187.5,187.5,0,0,1-40.6-23.7l2.8,2.1a200,200,0,0,1-35.9-35.9l2.2,2.7a220.1,220.1,0,0,1-28.5-49l1.3,3.3a235,235,0,0,1-16-58.8l.5,3.6a241.6,241.6,0,0,1,.1-63l-.5,3.6a248,248,0,0,1,17.1-62.7l-1.3,3.2a244.7,244.7,0,0,1,31.3-53.7l-2.1,2.8a235.3,235.3,0,0,1,42.2-42.4l-2.7,2.1a204.8,204.8,0,0,1,44.2-26.1l-3.2,1.4a174.9,174.9,0,0,1,44.2-12.2l-3.6.5a168.1,168.1,0,0,1,43.1-.2l-3.6-.5a146.9,146.9,0,0,1,27.7,6.6c6.7,2.3,15.1-2.7,16.7-9.5s-2.3-14.2-9.5-16.7Z"/>
  <ellipse class="d" cx="625.6" cy="724.5" rx="67.5" ry="40.3"/>
  <path class="b" d="M771.8,149.6c-11.3-11.5-31.7-18.5-52.5-19.9s-41.9,2.2-60.7,8.3c-45.9,15-69.2,70.4-79.3,102.6l-1.4,1.9.4.3c19-17,48.7-39.5,75.7-41.3,20.3-1.3,40.8,1.1,61.3.8s42.4-3.8,55.1-14.3S783,161.1,771.8,149.6Z"/>
  <path class="c" d="M781.3,140c-7.6-7.7-17.2-12.8-27.2-16.7s-21.3-5.9-32.2-6.9-23.8-.3-35.7,1.3a185.7,185.7,0,0,0-31.2,7.2c-16.6,5.5-31.3,15.5-43.3,28.2a167.7,167.7,0,0,0-27.5,39.7,278.1,278.1,0,0,0-16.7,40.3l-1.2,3.9,1.3-3.2-1.4,1.8-1.3,3.2a10.3,10.3,0,0,0-.3,5.5,12.9,12.9,0,0,0,3.8,7.7l.3.4a13.6,13.6,0,0,0,9.6,3.9,14.7,14.7,0,0,0,9.5-3.9c5.1-4.5,10.2-8.8,15.5-12.9l-2.7,2.1c11.2-8.7,23.2-16.7,36.4-22.2l-3.3,1.3a84.2,84.2,0,0,1,20.3-5.8l-3.6.5a132.2,132.2,0,0,1,18.9-.7c6.6,0,13.2.3,19.7.5,12.7.6,25.4,1.2,38.1.1s24-2.7,35-7.3a74.8,74.8,0,0,0,9.5-4.4,68.1,68.1,0,0,0,8.2-5.9,40.4,40.4,0,0,0,11.9-17.1c2.5-6.6,2.5-14.3.8-21.1s-6-14.1-11.2-19.5a13.8,13.8,0,0,0-9.5-3.9,13.6,13.6,0,0,0-9.6,3.9c-2.4,2.6-4.2,6-4,9.6a14.6,14.6,0,0,0,4,9.6l2.4,2.8-2.1-2.7a30.5,30.5,0,0,1,4,6.7l-1.4-3.2a24.1,24.1,0,0,1,1.8,6.5l-.5-3.6a32.1,32.1,0,0,1,0,6.2l.5-3.6a26.7,26.7,0,0,1-1.6,5.7l1.3-3.2a27.7,27.7,0,0,1-3.4,5.7l2.2-2.7a48.5,48.5,0,0,1-5.6,5.5l2.7-2.2a50,50,0,0,1-10.8,6.1l3.2-1.3a95.5,95.5,0,0,1-23.5,6l3.6-.5c-24.4,3.3-48.9-.4-73.4.2a112.6,112.6,0,0,0-19.2,1.9A80.2,80.2,0,0,0,628,194a160.4,160.4,0,0,0-30.5,16.5,287.4,287.4,0,0,0-28.8,22.7h19.1l-.3-.3,2.1,16.4a13.2,13.2,0,0,0,2.8-5.1c.4-1.1.7-2.1,1-3.2l2.4-6.9c1.8-5.1,3.7-10.2,5.9-15.2l-1.4,3.2a213.6,213.6,0,0,1,17.8-33.8c2.1-3.1,4.3-6.1,6.5-9.1l-2.1,2.8a117.1,117.1,0,0,1,20.6-21l-2.7,2.1A91.2,91.2,0,0,1,659.2,152l-3.2,1.4a126.2,126.2,0,0,1,17.1-5.5,181.3,181.3,0,0,1,20.5-4.1l-3.6.5a140.9,140.9,0,0,1,36.7-.3l-3.6-.5a106,106,0,0,1,26,6.8l-3.3-1.3a60.9,60.9,0,0,1,14.5,8.2l-2.8-2.1a36.3,36.3,0,0,1,4.7,4.1,13.4,13.4,0,0,0,19.1,0c2.4-2.6,4.2-6,4-9.6A14.6,14.6,0,0,0,781.3,140Z"/>
  <path class="a" d="M763,138a29.3,29.3,0,0,1-6.4,16.8c-10.2,13.2-30.1,20.6-49.2,24.1s-38.5,4.3-57.3,8.9c-8.6,2.2-17.1,7-25.1,13.3a34.3,34.3,0,0,1,6.3,8.3c7.8-4.6,15.8-7.9,23.7-9,19.2-2.6,38.6-1.2,57.9-2.6s39.8-6.6,51.1-18.6S774,149.8,763,138Z"/>
  <path class="a" d="M741.4,418.7c-15.6-68.9-56-145.2-118.3-166.7l-.4-.4a150.9,150.9,0,0,0-57.8-7.6c4,.5,8,1.2,12,1.9,34,6.8,67.1,24.2,90.1,50.9v.5c43,50,39.5,136.1,18.3,203.4S612.3,623.4,546.1,649.5c-22.1,8.7-46,14.3-70.3,14.5,39.3,21.8,87.7,29.9,130.5,17.4,36.7-10.6,67.1-35.2,89.6-63.8C740.1,561.6,757,487.6,741.4,418.7Z"/>
  <path class="c" d="M621,238.5c-47.7-16.3-101.4-7.7-144.8,16.7-39,22-71.4,56.5-92.8,95.7a257.6,257.6,0,0,0-31.6,126.2c.5,43.6,12.7,87.2,35.6,124.4A219.4,219.4,0,0,0,430,652a207.6,207.6,0,0,0,60.5,36.1,189.9,189.9,0,0,0,66.2,12.7,173,173,0,0,0,34.5-3.1A159.3,159.3,0,0,0,624.9,687c41-17.6,74-51.9,96.1-90a252.9,252.9,0,0,0,34.3-130.4c-.6-42.9-12.9-85.4-31.3-124-17.1-36-42-70.5-76.5-91.5a137.9,137.9,0,0,0-26.1-12.2c-6.7-2.3-15.1,2.7-16.7,9.5s2.3,14.1,9.5,16.6l7,2.7-3.3-1.4a132.8,132.8,0,0,1,28.4,16.8l-2.8-2.1a172.7,172.7,0,0,1,30.9,31.3l-2.1-2.7c14,18.2,25.2,38.5,34.1,59.7L705,366c10.3,24.3,18.1,50.1,21.7,76.3l-.5-3.6a239.3,239.3,0,0,1-.1,62.7l.5-3.6a240.2,240.2,0,0,1-16.8,61.7l1.3-3.2a240.6,240.6,0,0,1-30.8,52.8l2.1-2.8A214.7,214.7,0,0,1,645.1,644l2.8-2.1a172.6,172.6,0,0,1-37.3,22l3.3-1.4a151.9,151.9,0,0,1-38,10.4l3.6-.5a166.7,166.7,0,0,1-43.5-.2l3.6.5a187.6,187.6,0,0,1-47.7-13.1l3.2,1.4a187.5,187.5,0,0,1-40.6-23.7l2.8,2.1a200,200,0,0,1-35.9-35.9l2.2,2.7a220.1,220.1,0,0,1-28.5-49l1.3,3.3a235,235,0,0,1-16-58.8l.5,3.6a241.6,241.6,0,0,1,.1-63l-.5,3.6a248,248,0,0,1,17.1-62.7l-1.3,3.2a244.7,244.7,0,0,1,31.3-53.7l-2.1,2.8a235.3,235.3,0,0,1,42.2-42.4l-2.7,2.1a204.8,204.8,0,0,1,44.2-26.1l-3.2,1.4a174.9,174.9,0,0,1,44.2-12.2l-3.6.5a168.1,168.1,0,0,1,43.1-.2l-3.6-.5a146.9,146.9,0,0,1,27.7,6.6c6.7,2.3,15.1-2.7,16.7-9.5s-2.3-14.2-9.5-16.7Z"/>
  <rect class="e" x="447.9" y="378.2" width="211.3" height="97.97" rx="18.1"/>
  <path class="a" d="M678.9,720.4c-4.1-13.3-18.4-30.1-43.9-39.1h-.1a145.6,145.6,0,0,0-24-6.2l4.9,1.3c14.1,4.1,27.4,9.9,36.1,16.5h0c16.3,12.4,11.8,27.2.6,37.2s-35,15.4-63.8,14.4a201.3,201.3,0,0,1-30-3.4,170.4,170.4,0,0,0,54.2,14c15.8,1.2,29.4-.5,39.9-3.6C673.3,745.4,683,733.8,678.9,720.4Z"/>
  <ellipse class="f" cx="622.5" cy="723" rx="67.5" ry="40.3"/>
  <ellipse class="d" cx="486.2" cy="724.5" rx="67.5" ry="40.3"/>
  <path class="a" d="M543,722.7c-4.1-13.3-18.4-30.1-43.9-39.1H499a156.4,156.4,0,0,0-24-6.2l5,1.4c14,4,27.3,9.8,36,16.4h0c16.4,12.4,11.9,27.2.6,37.2s-35,15.4-63.7,14.4a201.1,201.1,0,0,1-30.1-3.4,170.4,170.4,0,0,0,54.2,14c15.8,1.2,29.4-.5,39.9-3.6C537.4,747.7,547.1,736.1,543,722.7Z"/>
  <ellipse class="f" cx="483.2" cy="723" rx="67.5" ry="40.3"/>
  <path class="c" d="M781.3,140c-7.6-7.7-17.2-12.8-27.2-16.7s-21.3-5.9-32.2-6.9-23.8-.3-35.7,1.3a185.7,185.7,0,0,0-31.2,7.2c-16.6,5.5-31.3,15.5-43.3,28.2a167.7,167.7,0,0,0-27.5,39.7,278.1,278.1,0,0,0-16.7,40.3l-1.2,3.9,1.3-3.2-1.4,1.8-1.3,3.2a10.3,10.3,0,0,0-.3,5.5,12.9,12.9,0,0,0,3.8,7.7l.3.4a13.6,13.6,0,0,0,9.6,3.9,14.7,14.7,0,0,0,9.5-3.9c5.1-4.5,10.2-8.8,15.5-12.9l-2.7,2.1c11.2-8.7,23.2-16.7,36.4-22.2l-3.3,1.3a84.2,84.2,0,0,1,20.3-5.8l-3.6.5a132.2,132.2,0,0,1,18.9-.7c6.6,0,13.2.3,19.7.5,12.7.6,25.4,1.2,38.1.1s24-2.7,35-7.3a74.8,74.8,0,0,0,9.5-4.4,68.1,68.1,0,0,0,8.2-5.9,40.4,40.4,0,0,0,11.9-17.1c2.5-6.6,2.5-14.3.8-21.1s-6-14.1-11.2-19.5a13.8,13.8,0,0,0-9.5-3.9,13.6,13.6,0,0,0-9.6,3.9c-2.4,2.6-4.2,6-4,9.6a14.6,14.6,0,0,0,4,9.6l2.4,2.8-2.1-2.7a30.5,30.5,0,0,1,4,6.7l-1.4-3.2a24.1,24.1,0,0,1,1.8,6.5l-.5-3.6a32.1,32.1,0,0,1,0,6.2l.5-3.6a26.7,26.7,0,0,1-1.6,5.7l1.3-3.2a27.7,27.7,0,0,1-3.4,5.7l2.2-2.7a48.5,48.5,0,0,1-5.6,5.5l2.7-2.2a50,50,0,0,1-10.8,6.1l3.2-1.3a95.5,95.5,0,0,1-23.5,6l3.6-.5c-24.4,3.3-48.9-.4-73.4.2a112.6,112.6,0,0,0-19.2,1.9A80.2,80.2,0,0,0,628,194a160.4,160.4,0,0,0-30.5,16.5,287.4,287.4,0,0,0-28.8,22.7h19.1l-.3-.3,2.1,16.4a13.2,13.2,0,0,0,2.8-5.1c.4-1.1.7-2.1,1-3.2l2.4-6.9c1.8-5.1,3.7-10.2,5.9-15.2l-1.4,3.2a213.6,213.6,0,0,1,17.8-33.8c2.1-3.1,4.3-6.1,6.5-9.1l-2.1,2.8a117.1,117.1,0,0,1,20.6-21l-2.7,2.1A91.2,91.2,0,0,1,659.2,152l-3.2,1.4a126.2,126.2,0,0,1,17.1-5.5,181.3,181.3,0,0,1,20.5-4.1l-3.6.5a140.9,140.9,0,0,1,36.7-.3l-3.6-.5a106,106,0,0,1,26,6.8l-3.3-1.3a60.9,60.9,0,0,1,14.5,8.2l-2.8-2.1a36.3,36.3,0,0,1,4.7,4.1,13.4,13.4,0,0,0,19.1,0c2.4-2.6,4.2-6,4-9.6A14.6,14.6,0,0,0,781.3,140Z"/>
  <circle class="g" cx="527.4" cy="432.3" r="8.7"/>
  <circle class="g" cx="475.2" cy="432.3" r="8.7"/>
  <circle class="g" cx="490.7" cy="414.9" r="8.7"/>
  <circle class="g" cx="512" cy="414.9" r="8.7"/>
  <circle class="g" cx="631.9" cy="432.3" r="8.7"/>
  <circle class="g" cx="579.7" cy="432.3" r="8.7"/>
  <circle class="g" cx="595.1" cy="414.9" r="8.7"/>
  <circle class="g" cx="616.4" cy="414.9" r="8.7"/>
  <path class="h" d="M462,496.8c-8.2.1-63.7-6.5-64,1.4l20.2,45.7c.2,8.3,9.7,18.2,1.4,18.4l-41.3,4.6H376a4.1,4.1,0,0,0-4,4,116.6,116.6,0,0,0,4.3,32.6c13.3,47.1,56.2,82.1,107.1,83l38.4.6A19.5,19.5,0,0,0,541.5,668l.4-30.3.8-57C543.4,535.3,507,497.6,462,496.8Z"/>
  <path class="h" d="M743.4,350.2c2.1-78.7-68.4-147.1-160.8-154.5S409.8,244.9,399.5,322.9Z"/>
  <path class="i" d="M602.5,198.3a202.9,202.9,0,0,1,27.7,23.5c35.2,35.7,53.8,80.8,55.1,123.8l58.1,4.6C745.3,277.2,684.9,213.1,602.5,198.3Z"/>
  <path class="j" d="M604.5,195.6s-4.8-2.4-5-1.2c-6.2,34.1-24.3,86.2-21.7,124.6,1.9-20.5,20.9-103.8,34.8-117.7C611.4,200.2,604.5,195.6,604.5,195.6Z"/>
  <path class="k" d="M576.9,194.4c3.4-4.6,29.9-2.3,27.6,2.3-17,34.1-23.4,94.9-20.7,133.6L540,328C544.6,243.9,568.8,209.4,576.9,194.4Z"/>
  <rect class="h" x="358" y="324.6" width="413.6" height="39.17" rx="19.6" transform="matrix(1, 0.08, -0.08, 1, 28.97, -43.56)"/>
  <path class="j" d="M753.3,369.5,377.9,347.1a23.1,23.1,0,0,1-18-10.9,19.5,19.5,0,0,0,16.7,12.7l373.2,29.6a19.8,19.8,0,0,0,20.7-15.3A23.1,23.1,0,0,1,753.3,369.5Z"/>
  <path class="l" d="M376,567a4.1,4.1,0,0,0-4,4h0a116.6,116.6,0,0,0,4.3,32.6c23.6,11.8,70.7,33.9,165.6,34.1l.8-57c-46.8,5.7-118.5,2.6-164.4-13.8Z"/>
  <path class="h" d="M638.2,496.8c8.1.1,63.6-6.5,63.9,1.4l-20.2,45.7c-.2,8.3-9.7,18.2-1.4,18.4l41.3,4.6h2.3a4.1,4.1,0,0,1,4,4,116.6,116.6,0,0,1-4.3,32.6c-13.3,47.1-56.1,82.1-107.1,83l-38.3.6A19.6,19.6,0,0,1,558.6,668l-.4-30.3-.8-57C556.7,535.3,593.1,497.6,638.2,496.8Z"/>
  <path class="l" d="M724.1,567a4.1,4.1,0,0,1,4,4h0a116.6,116.6,0,0,1-4.3,32.6c-23.6,11.8-70.7,33.9-165.6,34.1l-.8-57c46.9,5.7,118.5,2.6,164.4-13.8Z"/>
  <path class="m" d="M724.7,602.4c-.4,1.6-.9,3.1-1.4,4.6C723.8,605.5,724.3,604,724.7,602.4Z"/>
  <path class="m" d="M728.5,580.7c-.1,1.3-.3,2.6-.4,3.9C728.2,583.3,728.4,582,728.5,580.7Z"/>
  <path class="m" d="M727.1,591.7c-.2,1.6-.6,3-.9,4.5C726.5,594.7,726.9,593.3,727.1,591.7Z"/>
  <path class="n" d="M726.2,596.2c-.5,2.1-.9,4.2-1.5,6.2C725.3,600.4,725.7,598.3,726.2,596.2Z"/>
  <path class="n" d="M728.9,569.2h0v0Z"/>
  <path class="n" d="M723.3,607c-.4,1.4-.9,2.8-1.4,4.2h.1C722.5,609.8,722.9,608.4,723.3,607Z"/>
  <path class="n" d="M561.5,639.1h0c-.3-13.7-.3-17.6-.6-33.3Z"/>
  <path class="n" d="M728.9,569.4a105.7,105.7,0,0,1-.4,11.3A105.7,105.7,0,0,0,728.9,569.4Z"/>
  <path class="n" d="M728.1,584.6c-.3,2.4-.6,4.8-1,7.1C727.5,589.4,727.8,587,728.1,584.6Z"/>
  <path class="o" d="M345,377.3a3.1,3.1,0,0,0-5.1,1.5l-3.1,11.4a3.2,3.2,0,0,1-3.9,2.2L313.4,387a3.2,3.2,0,0,1-2.2-3.9l3.2-11.4a3.2,3.2,0,0,0-3.6-3.9c-8.9,1.9-15.8,7.1-17.9,14.7s2.6,18.8,12.1,25.2a10.4,10.4,0,0,0-1.5,3.4L273.9,518.2c-11.2.7-20.3,6.4-22.8,15.3-1.7,6.1.1,12.4,4.3,17.9a3.1,3.1,0,0,0,5.4-1.1l3.4-12.3a3.1,3.1,0,0,1,3.9-2.2l27.3,7.5a3.2,3.2,0,0,1,2.1,3.9l-3.4,12.3a3.1,3.1,0,0,0,4.2,3.7c6.4-2.5,11.1-7.1,12.8-13.1,2.4-8.9-2.5-18.5-11.7-24.9l29.6-107a12.4,12.4,0,0,0,.5-3.8c11.4-.5,20.8-6.3,23.3-15.3S351.7,383.4,345,377.3Z"/>
  <ellipse class="p" cx="365" cy="509.1" rx="37.9" ry="77.6" transform="translate(-252.1 401.4) rotate(-44.5)"/>
  <path class="q" d="M415.2,562.7c-14.1,2.2-38.6-1.7-65.4-17.8h0c-7.7-5-15.7-10.5-23.1-16.1l4.9,3.3a184.2,184.2,0,0,0,40.9,21.1h0c22.4,7.8,31.4-1.8,31-14.7s-13.6-33.4-36.2-55.2a241.4,241.4,0,0,0-25.5-21.9,278.8,278.8,0,0,1,52.6,36.1,146.5,146.5,0,0,1,27.2,32.6C431.8,548.5,429.7,560.7,415.2,562.7Z"/>
  <ellipse class="r" cx="364.2" cy="509.4" rx="37.9" ry="77.6" transform="translate(-256.4 425.8) rotate(-46.8)"/>
  <ellipse class="p" cx="681.9" cy="568.9" rx="77.6" ry="37.9" transform="translate(-194.3 713.5) rotate(-49.2)"/>
  <path class="q" d="M632.6,623.4c-3.4-13.8-1.5-38.6,12.4-66.6h0c4.3-8.2,9.1-16.6,14.1-24.5l-2.9,5.2A192.8,192.8,0,0,0,638.5,580h0c-5.9,23,4.4,31.2,17.2,29.8s32.2-16.4,52.1-40.8a275.3,275.3,0,0,0,19.7-27.1,286.8,286.8,0,0,1-31.7,55.4A146.6,146.6,0,0,1,665.6,627C648.1,638.8,635.8,637.6,632.6,623.4Z"/>
  <ellipse class="r" cx="681.5" cy="568.2" rx="77.6" ry="37.9" transform="translate(-187.4 748) rotate(-51.5)"/>
</svg>