<svg xmlns="http://www.w3.org/2000/svg" viewBox="0 0 1133.9 1417.3"><defs><style>.a{fill:#1d1d1b;}.b{fill:#cdcccc;}.c,.f,.h,.k{fill:#fff;}.c{stroke:#1d1d1b;stroke-width:10.28px;}.c,.h,.i,.j,.k,.l{stroke-miterlimit:10;}.d{fill:#cecccc;}.e{fill:#ffcc03;}.g{fill:#4e4d4d;}.h,.j,.k,.l{stroke:#4e4d4d;}.h,.j{stroke-width:17.14px;}.i{fill:#010101;stroke:#010101;stroke-width:7.4px;}.j,.l{fill:none;}.k,.l{stroke-width:19.44px;}</style></defs><path class="a" d="M246.1,885.4H254v41.9h-7.9Zm3.5,34.3h13.3a6.6,6.6,0,0,0,4.2-1.3,4.7,4.7,0,0,0,1.5-3.7h0a4.5,4.5,0,0,0-.7-2.7,3.9,3.9,0,0,0-1.9-1.7,7.5,7.5,0,0,0-3.1-.6H249.6V902h13.3a5,5,0,0,0,3.8-1.3,4.2,4.2,0,0,0,1.3-3.4,3.9,3.9,0,0,0-1.3-3.2,5.9,5.9,0,0,0-3.8-1.1H249.6v-7.6h13.6a16,16,0,0,1,6.9,1.3,9.9,9.9,0,0,1,4.4,3.9,12,12,0,0,1,1.5,6.1,8.9,8.9,0,0,1-1,4.4,7.5,7.5,0,0,1-2.8,3.1,11.5,11.5,0,0,1-4.4,1.6,11.5,11.5,0,0,1,4.7,1.7,8.9,8.9,0,0,1,3,3.4,10.7,10.7,0,0,1,1,4.9h0A11.7,11.7,0,0,1,275,922a9.4,9.4,0,0,1-4.4,3.9,16,16,0,0,1-6.9,1.4H249.6Z"/><path class="a" d="M289,926.1a10,10,0,0,1-4.6-4.5,15.4,15.4,0,0,1-1.7-7.3v-3.4a17.3,17.3,0,0,1,1.6-7.5,10.5,10.5,0,0,1,4.5-4.8,14.1,14.1,0,0,1,7.1-1.7,11.3,11.3,0,0,1,6.7,2,12,12,0,0,1,4.3,5.7,26.6,26.6,0,0,1,1.4,9v1.9H287.9v-5.3h13.2v-.7a6.9,6.9,0,0,0-1.6-4,4.7,4.7,0,0,0-3.5-1.4,5.7,5.7,0,0,0-4.4,1.7,6.5,6.5,0,0,0-1.6,4.8v3.8a6.3,6.3,0,0,0,1.7,4.7,6.4,6.4,0,0,0,4.8,1.7,11.9,11.9,0,0,0,3.2-.5,11.2,11.2,0,0,0,2.8-1.6l5.1,4.5a14.4,14.4,0,0,1-5.2,3.3,15.2,15.2,0,0,1-5.9,1.2A15.5,15.5,0,0,1,289,926.1Z"/><path class="a" d="M315.2,897.4h7.9v29.9h-7.9Zm17.3,11.8a4.5,4.5,0,0,0-1.2-3.4,4.8,4.8,0,0,0-3.6-1.3,4.3,4.3,0,0,0-4.6,4.7l-.6-6.6a11.4,11.4,0,0,1,3.3-4.3,7.7,7.7,0,0,1,4.7-1.4,8.8,8.8,0,0,1,7.3,3.2c1.7,2.1,2.6,5.1,2.6,9v18.2h-7.9Z"/><path class="a" d="M353.6,926.1a10.7,10.7,0,0,1-4.7-4.5,16.7,16.7,0,0,1-1.6-7.3v-3.4a16,16,0,0,1,1.6-7.5,10.5,10.5,0,0,1,4.5-4.8,14.1,14.1,0,0,1,7.1-1.7,11.5,11.5,0,0,1,6.7,2,12,12,0,0,1,4.3,5.7,26.6,26.6,0,0,1,1.4,9v1.9H352.5v-5.3h13.2v-.7a6.9,6.9,0,0,0-1.6-4,4.7,4.7,0,0,0-3.5-1.4,5.7,5.7,0,0,0-4.4,1.7,6.5,6.5,0,0,0-1.6,4.8v3.8a6.3,6.3,0,0,0,1.7,4.7,6.4,6.4,0,0,0,4.8,1.7,11.9,11.9,0,0,0,3.2-.5,11.2,11.2,0,0,0,2.8-1.6l5.1,4.5a14.4,14.4,0,0,1-5.2,3.3,16.6,16.6,0,0,1-13.3-.4Z"/><path class="a" d="M377.5,897.4h16.1v6.7H377.5Zm3.2-4.1c0-2.6.6-4.6,1.8-5.9s3.1-2,5.6-2h5.5v7h-3.3a1.5,1.5,0,0,0-1.3.6,3.1,3.1,0,0,0-.4,1.7v32.6h-7.9Z"/><path class="a" d="M399,885.4h7.8v7.9H399Zm0,12h7.8v29.9H399Z"/><path class="a" d="M411.9,897.4h14.6v6.7H411.9Zm4.9,28c-1.2-1.3-1.8-3.3-1.8-5.9V888.7h7.9v28.8a2.7,2.7,0,0,0,.4,1.7,1.5,1.5,0,0,0,1.3.6h1.9v7.6h-4C419.9,927.4,418,926.8,416.8,925.4Z"/><path class="a" d="M447,897.4h16.1v6.7H447Zm3.1-4.1a8.5,8.5,0,0,1,1.9-5.9c1.2-1.4,3.1-2,5.6-2h5.5v7h-3.4a1.4,1.4,0,0,0-1.2.6,3.1,3.1,0,0,0-.5,1.7v32.6h-7.9Z"/><path class="a" d="M468,897.4h8.4v29.9H468Zm15.4,7.4a5.8,5.8,0,0,0-1.9-.3,4.6,4.6,0,0,0-3.7,1.6,6.2,6.2,0,0,0-1.4,4.3l-.6-7.8a10.9,10.9,0,0,1,3.3-4.2,6.8,6.8,0,0,1,4.3-1.5,9.3,9.3,0,0,1,3.4.6,6.8,6.8,0,0,1,2.6,1.8l-4.6,6.4A4.2,4.2,0,0,0,483.4,904.8Z"/><path class="a" d="M497.6,926.2a10.1,10.1,0,0,1-4.4-4.5,15.1,15.1,0,0,1-1.5-7v-4.9a14.7,14.7,0,0,1,1.5-6.9,9.9,9.9,0,0,1,4.4-4.4,14.2,14.2,0,0,1,7-1.6,13.9,13.9,0,0,1,7,1.6,9.9,9.9,0,0,1,4.4,4.4,14.7,14.7,0,0,1,1.5,6.9v5a15.4,15.4,0,0,1-1.5,7,10.4,10.4,0,0,1-4.4,4.4,15.1,15.1,0,0,1-7,1.5A15.4,15.4,0,0,1,497.6,926.2Zm10.7-7.5a5.3,5.3,0,0,0,1.3-3.9v-5a5.3,5.3,0,0,0-1.3-3.9,5.6,5.6,0,0,0-7.4,0,5.3,5.3,0,0,0-1.3,3.9v5a5.3,5.3,0,0,0,1.3,3.9,5.6,5.6,0,0,0,7.4,0Z"/><path class="a" d="M524.7,897.4h7.9v29.9h-7.9ZM542.2,910a6,6,0,0,0-1.3-4,4.7,4.7,0,0,0-3.7-1.5,4.3,4.3,0,0,0-4.6,4.7l-.6-6.6a10.3,10.3,0,0,1,3.3-4.2,7.8,7.8,0,0,1,4.7-1.5,8.9,8.9,0,0,1,5.4,1.6,9.7,9.7,0,0,1,3.5,4.4,18.8,18.8,0,0,1,1.2,7.1v17.3h-7.9Zm17.4,0a5.5,5.5,0,0,0-1.3-4,4.3,4.3,0,0,0-3.5-1.5,4.5,4.5,0,0,0-3.5,1.4,5.7,5.7,0,0,0-1.2,3.9l-1.5-6.9a10.1,10.1,0,0,1,3.7-4.4,8.8,8.8,0,0,1,5-1.6,9.2,9.2,0,0,1,5.5,1.6,9.7,9.7,0,0,1,3.5,4.4,18.8,18.8,0,0,1,1.2,7.1v17.3h-7.9Z"/><path class="a" d="M603.7,885.4h5l16,41.9h-8.5l-10-28.6-10.1,28.6h-8.5ZM595.3,913h22.1v7.6H595.3Z"/><path class="a" d="M637.5,927.3h-8.2V885.4h8.2Z"/><path class="a" d="M666.1,908.5v7.6H645.6v-7.6Z"/><path class="a" d="M674.8,925.4q-2.4-2.2-2.4-6.9c0-3,.9-5.2,2.7-6.7s4.4-2.2,8-2.2h7.5l.4,6h-7.9a4.1,4.1,0,0,0-2.7.7,2.7,2.7,0,0,0-.9,2.2,2.4,2.4,0,0,0,1.1,2.1,6.4,6.4,0,0,0,3.4.7,11.8,11.8,0,0,0,4.8-.7,2.3,2.3,0,0,0,1.5-2.2l.6,4.3a4.1,4.1,0,0,1-1.5,2.8,8.5,8.5,0,0,1-3.3,1.6,14,14,0,0,1-4.1.6C678.8,927.7,676.4,926.9,674.8,925.4Zm15.5-17.1a4,4,0,0,0-1.4-3.2A6.2,6.2,0,0,0,685,904a12.6,12.6,0,0,0-3.3.5,9,9,0,0,0-2.9,1.6l-4.9-4.8a10.7,10.7,0,0,1,4.7-3.2,18.1,18.1,0,0,1,13.2.1,9.9,9.9,0,0,1,4.2,3.9,11.1,11.1,0,0,1,1.5,6v19.2h-7.2Z"/><path class="a" d="M711.5,927.2a24.3,24.3,0,0,1-4.8-1.4,14.7,14.7,0,0,1-3.9-2.2l4.9-6.1a15.7,15.7,0,0,0,4.5,2.2,15,15,0,0,0,4.5.7,12.3,12.3,0,0,0,4.3-.6c1-.4,1.5-1,1.5-1.7a1.6,1.6,0,0,0-.7-1.5,3.8,3.8,0,0,0-1.7-.8l-2.9-.4h-2.6a29.1,29.1,0,0,1-5.4-1,7.4,7.4,0,0,1-3.4-2.5,9.9,9.9,0,0,1,.1-10.3,8.9,8.9,0,0,1,4.2-3.3,18.2,18.2,0,0,1,6.6-1.1,23,23,0,0,1,4.5.5,22.3,22.3,0,0,1,4.4,1.3,28.2,28.2,0,0,1,3.8,2.1l-4.7,5.7a20.9,20.9,0,0,0-4.1-1.7,15.1,15.1,0,0,0-4.1-.6,9.2,9.2,0,0,0-3.7.6c-.9.3-1.3.8-1.3,1.5a1.3,1.3,0,0,0,.7,1.2l1.7.6,3.1.4h1.6a30.1,30.1,0,0,1,5.6,1,7.9,7.9,0,0,1,3.8,2.5,9.1,9.1,0,0,1,1.5,5.6,9.5,9.5,0,0,1-1.5,5.4,9.4,9.4,0,0,1-4.4,3.3,17.8,17.8,0,0,1-6.9,1.2A29.6,29.6,0,0,1,711.5,927.2Z"/><path class="a" d="M742.1,927.2a24.3,24.3,0,0,1-4.8-1.4,14.7,14.7,0,0,1-3.9-2.2l4.9-6.1a15.7,15.7,0,0,0,4.5,2.2,15,15,0,0,0,4.5.7,12.3,12.3,0,0,0,4.3-.6c1-.4,1.5-1,1.5-1.7a1.6,1.6,0,0,0-.7-1.5,3.8,3.8,0,0,0-1.7-.8l-2.9-.4h-2.6a29.1,29.1,0,0,1-5.4-1,7.4,7.4,0,0,1-3.4-2.5,9.9,9.9,0,0,1,.1-10.3,8.9,8.9,0,0,1,4.2-3.3,18.2,18.2,0,0,1,6.6-1.1,23,23,0,0,1,4.5.5,22.3,22.3,0,0,1,4.4,1.3,28.2,28.2,0,0,1,3.8,2.1l-4.7,5.7a20.9,20.9,0,0,0-4.1-1.7,15.1,15.1,0,0,0-4.1-.6,9.2,9.2,0,0,0-3.7.6c-.9.3-1.3.8-1.3,1.5a1.3,1.3,0,0,0,.7,1.2l1.7.6,3.1.4h1.3c.1,0,.2,0,.2.1a29.8,29.8,0,0,1,5.7,1,7.9,7.9,0,0,1,3.8,2.5,9.1,9.1,0,0,1,1.5,5.6,9.5,9.5,0,0,1-1.5,5.4,9.4,9.4,0,0,1-4.4,3.3,17.8,17.8,0,0,1-6.9,1.2A29.6,29.6,0,0,1,742.1,927.2Z"/><path class="a" d="M766,885.4h7.9v7.9H766Zm0,12h7.9v29.9H766Z"/><path class="a" d="M787.5,927.2a24.3,24.3,0,0,1-4.8-1.4,14.7,14.7,0,0,1-3.9-2.2l4.9-6.1a15.7,15.7,0,0,0,4.5,2.2,15,15,0,0,0,4.5.7,12.3,12.3,0,0,0,4.3-.6c1-.4,1.5-1,1.5-1.7a1.6,1.6,0,0,0-.7-1.5,3.8,3.8,0,0,0-1.7-.8l-2.9-.4h-2.6a29.1,29.1,0,0,1-5.4-1,7.4,7.4,0,0,1-3.4-2.5,9.9,9.9,0,0,1,.1-10.3,8.9,8.9,0,0,1,4.2-3.3,18.2,18.2,0,0,1,6.6-1.1,23,23,0,0,1,4.5.5,22.3,22.3,0,0,1,4.4,1.3,28.2,28.2,0,0,1,3.8,2.1l-4.7,5.7a20.9,20.9,0,0,0-4.1-1.7,15.1,15.1,0,0,0-4.1-.6,9.2,9.2,0,0,0-3.7.6c-.9.3-1.3.8-1.3,1.5a1.3,1.3,0,0,0,.7,1.2l1.7.6,3.1.4h1.6a30.1,30.1,0,0,1,5.6,1,7.9,7.9,0,0,1,3.8,2.5,9.1,9.1,0,0,1,1.5,5.6,9.5,9.5,0,0,1-1.5,5.4,9.4,9.4,0,0,1-4.4,3.3,17.8,17.8,0,0,1-6.9,1.2A29.6,29.6,0,0,1,787.5,927.2Z"/><path class="a" d="M809.5,897.4h14.7v6.7H809.5Zm4.9,28c-1.2-1.3-1.8-3.3-1.8-5.9V888.7h7.9v28.8a3.5,3.5,0,0,0,.4,1.7,1.6,1.6,0,0,0,1.3.6h2v7.6h-4C817.6,927.4,815.7,926.8,814.4,925.4Z"/><path class="a" d="M836.5,926.1a10.7,10.7,0,0,1-4.7-4.5,16.7,16.7,0,0,1-1.6-7.3v-3.4a16,16,0,0,1,1.6-7.5,10.5,10.5,0,0,1,4.5-4.8,14.1,14.1,0,0,1,7.1-1.7,11.5,11.5,0,0,1,6.7,2,11.3,11.3,0,0,1,4.2,5.7,24.2,24.2,0,0,1,1.5,9v1.9H835.3v-5.3h13.3v-.7a6.9,6.9,0,0,0-1.6-4,4.8,4.8,0,0,0-3.5-1.4,5.7,5.7,0,0,0-4.4,1.7,6.5,6.5,0,0,0-1.6,4.8v3.8a6.3,6.3,0,0,0,1.7,4.7,6.1,6.1,0,0,0,4.8,1.7,10.6,10.6,0,0,0,3.1-.5,10.2,10.2,0,0,0,2.9-1.6l5.1,4.5a14.4,14.4,0,0,1-5.2,3.3,16.6,16.6,0,0,1-13.3-.4Z"/><path class="a" d="M866.5,926.2a9.7,9.7,0,0,1-3.5-4.4,18.6,18.6,0,0,1-1.2-7V910a18.8,18.8,0,0,1,1.2-7.1,9.7,9.7,0,0,1,3.5-4.4,8.9,8.9,0,0,1,5.4-1.6,7.1,7.1,0,0,1,4.4,1.5,10.9,10.9,0,0,1,3.2,4l-.7,6.6a5.5,5.5,0,0,0-.5-2.6,3.3,3.3,0,0,0-1.5-1.6,4.5,4.5,0,0,0-2.4-.5,4.1,4.1,0,0,0-3.4,1.5,6.6,6.6,0,0,0-1.3,4.2v4.8a6.3,6.3,0,0,0,1.3,4.1,4.1,4.1,0,0,0,3.4,1.5,4.5,4.5,0,0,0,2.4-.6,3.1,3.1,0,0,0,1.5-1.5,5.1,5.1,0,0,0,.5-2.5l.4,6.8a7.8,7.8,0,0,1-2.8,3.8,7.3,7.3,0,0,1-4.5,1.3A9.5,9.5,0,0,1,866.5,926.2Zm12.3-40.8h7.9v41.9h-7.9Z"/><path class="a" d="M442.5,968.2H451v29.9h-8.5Zm15.4,7.4a5.8,5.8,0,0,0-1.9-.3,4.6,4.6,0,0,0-3.7,1.6,6.1,6.1,0,0,0-1.3,4.3l-.7-7.8a10.9,10.9,0,0,1,3.3-4.2,6.8,6.8,0,0,1,4.3-1.5,9.3,9.3,0,0,1,3.4.6,6.8,6.8,0,0,1,2.6,1.8l-4.6,6.4A3.4,3.4,0,0,0,457.9,975.6Z"/><path class="a" d="M472.5,996.9a10.7,10.7,0,0,1-4.7-4.5,16.7,16.7,0,0,1-1.6-7.3v-3.4a16,16,0,0,1,1.6-7.5,10.5,10.5,0,0,1,4.5-4.8,14.1,14.1,0,0,1,7.1-1.7,11.5,11.5,0,0,1,6.7,2,11.3,11.3,0,0,1,4.2,5.7,24.2,24.2,0,0,1,1.5,9v1.9H471.3V981h13.3v-.7a6.9,6.9,0,0,0-1.6-4,4.8,4.8,0,0,0-3.5-1.4,5.7,5.7,0,0,0-4.4,1.7,6.5,6.5,0,0,0-1.6,4.8v3.8a6.3,6.3,0,0,0,1.7,4.7,6.1,6.1,0,0,0,4.8,1.7,10.6,10.6,0,0,0,3.1-.5,10.2,10.2,0,0,0,2.9-1.6L491,994a14.4,14.4,0,0,1-5.2,3.3,16.6,16.6,0,0,1-13.3-.4Z"/><path class="a" d="M514.6,968.2h7.9l-11.3,29.9h-5.6l-11.2-29.9h7.9l6.1,18.7Z"/><path class="a" d="M526.6,956.2h7.9v7.9h-7.9Zm0,12h7.9v29.9h-7.9Z"/><path class="a" d="M547.3,996.9a10.7,10.7,0,0,1-4.7-4.5,15.4,15.4,0,0,1-1.6-7.3v-3.4a17.3,17.3,0,0,1,1.5-7.5,11.6,11.6,0,0,1,4.5-4.8,14.7,14.7,0,0,1,7.2-1.7,11.5,11.5,0,0,1,6.7,2,11.9,11.9,0,0,1,4.2,5.7,24.2,24.2,0,0,1,1.5,9v1.9H546.1V981h13.3v-.7a7.7,7.7,0,0,0-1.6-4,4.8,4.8,0,0,0-3.5-1.4,6.1,6.1,0,0,0-4.5,1.7,6.9,6.9,0,0,0-1.5,4.8v3.8a6.3,6.3,0,0,0,1.7,4.7,6.1,6.1,0,0,0,4.8,1.7,11.2,11.2,0,0,0,3.1-.5,10.2,10.2,0,0,0,2.9-1.6l5.1,4.5a14.4,14.4,0,0,1-5.2,3.3,15.6,15.6,0,0,1-5.9,1.2A15.3,15.3,0,0,1,547.3,996.9Z"/><path class="a" d="M569.8,968.2h7.5l5.3,18.4,6.3-18.4h4.7l6.3,18.4,5.3-18.4h7.6l-9.2,29.9h-5.9l-6.4-19.5-6.4,19.5H579Z"/><path class="a" d="M617.6,956.2h7.8v7.9h-7.8Zm0,12h7.8v29.9h-7.8Z"/><path class="a" d="M632.8,968.2h7.9v29.9h-7.9ZM650.1,980a4.2,4.2,0,0,0-1.3-3.4,4.5,4.5,0,0,0-3.5-1.3,4.3,4.3,0,0,0-4.6,4.7l-.6-6.6a12.4,12.4,0,0,1,3.2-4.3,8.3,8.3,0,0,1,4.8-1.4,9.1,9.1,0,0,1,7.3,3.2c1.7,2.1,2.6,5.1,2.6,9v18.2h-7.9Z"/><path class="a" d="M669.5,997a9.5,9.5,0,0,1-3.4-4.4,18.6,18.6,0,0,1-1.2-7v-4.8a18.8,18.8,0,0,1,1.2-7.1,9.5,9.5,0,0,1,3.4-4.4,8.9,8.9,0,0,1,5.4-1.6,7.1,7.1,0,0,1,4.4,1.5,10,10,0,0,1,3.2,4l-.6,6.6a7.1,7.1,0,0,0-.5-2.6,4.6,4.6,0,0,0-1.5-1.6,4.9,4.9,0,0,0-2.5-.5,4.2,4.2,0,0,0-3.4,1.5,6.6,6.6,0,0,0-1.2,4.2v4.8a6.3,6.3,0,0,0,1.2,4.1,4.2,4.2,0,0,0,3.4,1.5,4.9,4.9,0,0,0,2.5-.6,4.3,4.3,0,0,0,1.5-1.5,6.7,6.7,0,0,0,.5-2.6l.4,6.9a8.4,8.4,0,0,1-2.8,3.8,7.8,7.8,0,0,1-4.6,1.3A9.5,9.5,0,0,1,669.5,997Zm.5,12a9.9,9.9,0,0,1-4.4-3.6l5.3-4.8a8.1,8.1,0,0,0,2.4,1.7,7.7,7.7,0,0,0,3,.6,5.9,5.9,0,0,0,4-1.4,4.4,4.4,0,0,0,1.6-3.7V968.2h7.9v29a13.9,13.9,0,0,1-1.6,7,10,10,0,0,1-4.6,4.5,17.9,17.9,0,0,1-13.6.3Z"/><path class="a" d="M278.7,1097.8h5l15.4,41.9h-6.3l-11.6-33.8-11.6,33.8h-6.4Zm-8.4,27.1h22.1v5.6H270.3Z"/><path class="a" d="M302.6,1109.8h14.9v5H302.6Zm3.1-4.1a8.5,8.5,0,0,1,1.9-5.9c1.2-1.4,3.1-2,5.6-2h4.3v5.6h-4.2a1.3,1.3,0,0,0-1.2.6,2.9,2.9,0,0,0-.5,1.7v34h-5.9Z"/><path class="a" d="M321.3,1109.8h13.5v5.3H321.3Zm4.7,28c-1.1-1.3-1.6-3.3-1.6-5.9v-30.8h5.8V1132a2.5,2.5,0,0,0,.5,1.6,1.3,1.3,0,0,0,1.2.6h2.9v5.6h-3.4C328.9,1139.8,327.2,1139.2,326,1137.8Z"/><path class="a" d="M348,1138.6a10.5,10.5,0,0,1-4.5-4.6,16.1,16.1,0,0,1-1.5-7.3v-3.4a17.3,17.3,0,0,1,1.4-7.5,11.2,11.2,0,0,1,4.3-4.8,13.4,13.4,0,0,1,6.8-1.7,11,11,0,0,1,6.4,1.9,11.8,11.8,0,0,1,4.1,5.4,24,24,0,0,1,1.4,8.5v2H346.2v-4.7h14.6a9.9,9.9,0,0,0-1.9-5.7,5.2,5.2,0,0,0-4.4-2.1,6.4,6.4,0,0,0-5.1,2.2,9.8,9.8,0,0,0-1.9,6.2v3.8a7.7,7.7,0,0,0,2,5.7c1.3,1.4,3.2,2,5.6,2a8.7,8.7,0,0,0,3.5-.7,11,11,0,0,0,3.1-2l3.9,3.8a15.9,15.9,0,0,1-10.5,4.5A15.2,15.2,0,0,1,348,1138.6Z"/><path class="a" d="M374.5,1109.8h5.8v29.9h-5.8Zm14.4,5.6a7.2,7.2,0,0,0-2.7-.5,5.4,5.4,0,0,0-4.3,1.6,5.4,5.4,0,0,0-1.6,4.2l-.6-5.7a10.6,10.6,0,0,1,3.6-4.2,8.5,8.5,0,0,1,4.8-1.5,10.6,10.6,0,0,1,3.7.6,7.9,7.9,0,0,1,2.9,1.8l-3.8,5.2A4.3,4.3,0,0,0,388.9,1115.4Z"/><path class="a" d="M420.6,1138.6a10.9,10.9,0,0,1-4.4-4.6,14.9,14.9,0,0,1-1.6-7.3v-3.4a17.3,17.3,0,0,1,1.5-7.5,10.6,10.6,0,0,1,4.3-4.8,13.2,13.2,0,0,1,6.8-1.7,11.2,11.2,0,0,1,6.4,1.9,11.7,11.7,0,0,1,4,5.4,22,22,0,0,1,1.4,8.5v2H418.9v-4.7h14.6a10.7,10.7,0,0,0-1.9-5.7,5.4,5.4,0,0,0-4.4-2.1,6.6,6.6,0,0,0-5.2,2.2,9.7,9.7,0,0,0-1.8,6.2v3.8a7.7,7.7,0,0,0,2,5.7,7,7,0,0,0,5.5,2,9.2,9.2,0,0,0,3.6-.7,12.7,12.7,0,0,0,3.1-2l3.9,3.8a14.5,14.5,0,0,1-5,3.3,14.1,14.1,0,0,1-5.6,1.2A15.8,15.8,0,0,1,420.6,1138.6Z"/><path class="a" d="M448.4,1137.8q-2.7-2.2-2.7-6.9c0-3,.8-5.2,2.5-6.7s4.2-2.2,7.5-2.2h8.5l.5,4.7h-8.9a5.6,5.6,0,0,0-3.5,1,4.4,4.4,0,0,0-1.1,3.2,3.7,3.7,0,0,0,1.5,3.3c1,.8,2.5,1.1,4.6,1.1a12.6,12.6,0,0,0,5-.7,2.4,2.4,0,0,0,1.7-2.2l.6,4.2a9,9,0,0,1-1.9,2,8.1,8.1,0,0,1-2.7,1.1,11.5,11.5,0,0,1-3.3.4C453,1140.1,450.2,1139.3,448.4,1137.8Zm15.6-17.1a5.9,5.9,0,0,0-1.6-4.5,5.7,5.7,0,0,0-4.4-1.7,10.3,10.3,0,0,0-3.5.6,8.1,8.1,0,0,0-3.1,1.5l-4.3-2.9a11.2,11.2,0,0,1,4.5-3.2,16.5,16.5,0,0,1,12.6.1,9.4,9.4,0,0,1,4,3.9,12.1,12.1,0,0,1,1.4,6v19.2H464Z"/><path class="a" d="M483.6,1138.6a10.1,10.1,0,0,1-4.4-4.5,14.8,14.8,0,0,1-1.6-7v-4.9a15.4,15.4,0,0,1,1.6-7,10.2,10.2,0,0,1,4.4-4.3,13.9,13.9,0,0,1,7-1.6,16.1,16.1,0,0,1,4.4.6,15.3,15.3,0,0,1,3.7,1.6,9.6,9.6,0,0,1,2.7,2.6l-4.2,3.8a10.5,10.5,0,0,0-3-2.2,8.5,8.5,0,0,0-3.5-.8,6.6,6.6,0,0,0-7.2,7.3v4.9a7.4,7.4,0,0,0,1.9,5.5,6.9,6.9,0,0,0,5.3,1.9,8.5,8.5,0,0,0,3.5-.8,9.9,9.9,0,0,0,3-2.4l4.2,4.1a10,10,0,0,1-2.8,2.6,13.8,13.8,0,0,1-3.7,1.6,19.5,19.5,0,0,1-4.3.5A15.1,15.1,0,0,1,483.6,1138.6Z"/><path class="a" d="M507.9,1097.8h5.9v41.9h-5.9Zm18.1,23.8c0-2.2-.5-3.8-1.6-4.9a5.9,5.9,0,0,0-4.6-1.8,6.4,6.4,0,0,0-4.5,1.5,5.8,5.8,0,0,0-1.5,4.3l-.6-5.8a10.3,10.3,0,0,1,3.6-4.1,8.6,8.6,0,0,1,4.9-1.5,9.5,9.5,0,0,1,7.6,3.2c1.7,2.1,2.6,5.1,2.6,9v18.2H526Z"/><path class="a" d="M560.6,1138.8a9.3,9.3,0,0,1-3.6-4.2,16.2,16.2,0,0,1-1.2-6.6v-6.6a16.9,16.9,0,0,1,1.2-6.6,8.3,8.3,0,0,1,3.5-4.1,9.5,9.5,0,0,1,5.4-1.4,8.6,8.6,0,0,1,4.8,1.3,11.2,11.2,0,0,1,3.6,3.9l-.6,6.1a6.6,6.6,0,0,0-.7-3.2,5.1,5.1,0,0,0-2-2.1,6.3,6.3,0,0,0-3.2-.7,5.8,5.8,0,0,0-4.5,1.8,7.3,7.3,0,0,0-1.6,5.1v6.5a7.3,7.3,0,0,0,1.6,5.1,6.1,6.1,0,0,0,4.5,1.7,6.3,6.3,0,0,0,3.2-.7,5.1,5.1,0,0,0,2-2.1,6.7,6.7,0,0,0,.7-3.3l.4,6.3a8.7,8.7,0,0,1-2.9,3.7,8.4,8.4,0,0,1-5,1.5A10.8,10.8,0,0,1,560.6,1138.8Zm13.1-41h5.9v41.9h-5.9Z"/><path class="a" d="M593.7,1138.6a10.5,10.5,0,0,1-4.5-4.6,14.9,14.9,0,0,1-1.6-7.3v-3.4a17.3,17.3,0,0,1,1.5-7.5,10.6,10.6,0,0,1,4.3-4.8,13.4,13.4,0,0,1,6.8-1.7,11,11,0,0,1,6.4,1.9,12.6,12.6,0,0,1,4.1,5.4,24,24,0,0,1,1.4,8.5v2H591.9v-4.7h14.6a9.9,9.9,0,0,0-1.9-5.7,5.4,5.4,0,0,0-4.4-2.1,6.4,6.4,0,0,0-5.1,2.2,9.2,9.2,0,0,0-1.9,6.2v3.8a7.7,7.7,0,0,0,2,5.7,7,7,0,0,0,5.5,2,9.2,9.2,0,0,0,3.6-.7,11,11,0,0,0,3.1-2l3.9,3.8a14.5,14.5,0,0,1-5,3.3,13.8,13.8,0,0,1-5.6,1.2A15.1,15.1,0,0,1,593.7,1138.6Z"/><path class="a" d="M625.2,1138.6a10.1,10.1,0,0,1-4.4-4.5,14.8,14.8,0,0,1-1.5-7v-4.9a15.4,15.4,0,0,1,1.5-7,10.2,10.2,0,0,1,4.4-4.3,13.9,13.9,0,0,1,7-1.6,15.6,15.6,0,0,1,4.4.6,13.8,13.8,0,0,1,3.7,1.6,9.6,9.6,0,0,1,2.7,2.6l-4.2,3.8a8.4,8.4,0,0,0-3-2.2,8.5,8.5,0,0,0-3.5-.8,7.4,7.4,0,0,0-5.3,1.9,7.7,7.7,0,0,0-1.9,5.4v4.9a7.8,7.8,0,0,0,1.9,5.5,6.9,6.9,0,0,0,5.3,1.9,9.4,9.4,0,0,0,3.6-.8,9.6,9.6,0,0,0,2.9-2.4l4.2,4.1a9.6,9.6,0,0,1-2.7,2.6,15.3,15.3,0,0,1-3.7,1.6,21.2,21.2,0,0,1-4.4.5A15.1,15.1,0,0,1,625.2,1138.6Z"/><path class="a" d="M649.5,1097.8h5.9v5.9h-5.9Zm0,12h5.9v29.9h-5.9Z"/><path class="a" d="M669.9,1139.6a20.1,20.1,0,0,1-4.3-1.6,13.7,13.7,0,0,1-3.7-2.6l3.5-4.3a17.1,17.1,0,0,0,4.8,2.8,13.1,13.1,0,0,0,4.7.9,10.2,10.2,0,0,0,5.2-1,3.7,3.7,0,0,0,1.8-3.3,2.5,2.5,0,0,0-1-2.1,5.4,5.4,0,0,0-2.3-1l-4-.5h-1.5a28.7,28.7,0,0,1-4.9-.9,6.4,6.4,0,0,1-3.3-2.3,7.7,7.7,0,0,1-1.4-4.9,9.7,9.7,0,0,1,1.3-5.3,8.1,8.1,0,0,1,3.9-3.1,16.7,16.7,0,0,1,6.4-1.1,20.4,20.4,0,0,1,4.4.5,17.9,17.9,0,0,1,4.1,1.3,15.3,15.3,0,0,1,3.7,2.1l-3.5,4.3a18.7,18.7,0,0,0-4.5-2.2,15.4,15.4,0,0,0-4.2-.7,8.8,8.8,0,0,0-4.5,1,3.5,3.5,0,0,0-1.5,3.1,2,2,0,0,0,.9,1.8,4,4,0,0,0,2.1.8,26,26,0,0,0,3.7.4h1.1a23.8,23.8,0,0,1,5.3.8,6.7,6.7,0,0,1,3.7,2.5,8.5,8.5,0,0,1,1.5,5.4,9.3,9.3,0,0,1-1.4,5.4,8.2,8.2,0,0,1-4.1,3.1,18.1,18.1,0,0,1-7,1.1A26.5,26.5,0,0,1,669.9,1139.6Z"/><path class="a" d="M694.9,1097.8h5.9v5.9h-5.9Zm0,12h5.9v29.9h-5.9Z"/><path class="a" d="M714.5,1138.6a10.2,10.2,0,0,1-4.2-4.5,15.1,15.1,0,0,1-1.4-7v-4.9a14.7,14.7,0,0,1,1.4-6.9,10,10,0,0,1,4.2-4.4,13,13,0,0,1,6.7-1.6,12.4,12.4,0,0,1,6.6,1.6,9.6,9.6,0,0,1,4.3,4.4,16,16,0,0,1,1.4,6.9v5a16.8,16.8,0,0,1-1.4,7,10.2,10.2,0,0,1-4.3,4.4,13.4,13.4,0,0,1-6.6,1.5A14.1,14.1,0,0,1,714.5,1138.6Zm11.5-6a8.1,8.1,0,0,0,1.6-5.4v-5a8.1,8.1,0,0,0-1.6-5.4,6.6,6.6,0,0,0-4.8-1.9,6.2,6.2,0,0,0-4.8,1.9,8.1,8.1,0,0,0-1.7,5.4v5a8.1,8.1,0,0,0,1.7,5.4,5.9,5.9,0,0,0,4.8,1.9A6.2,6.2,0,0,0,726,1132.6Z"/><path class="a" d="M741.9,1109.8h5.9v29.9h-5.9Zm18.1,11.8c0-2.2-.5-3.8-1.6-4.9a5.9,5.9,0,0,0-4.6-1.8,6.1,6.1,0,0,0-4.5,1.6,5.7,5.7,0,0,0-1.5,4.2l-.7-5.7a11.7,11.7,0,0,1,3.7-4.2,8.6,8.6,0,0,1,4.9-1.5,9.2,9.2,0,0,1,7.5,3.2q2.7,3.1,2.7,9v18.2H760Z"/><path class="a" d="M788.4,1109.8h13.5v5.3H788.4Zm4.7,28c-1.1-1.3-1.6-3.3-1.6-5.9v-30.8h5.8V1132a2.5,2.5,0,0,0,.5,1.6,1.4,1.4,0,0,0,1.2.6h2.9v5.6h-3.4C796,1139.8,794.3,1139.2,793.1,1137.8Z"/><path class="a" d="M809.9,1097.8h5.9v41.9h-5.9Zm18.2,23.8a6.6,6.6,0,0,0-1.7-4.9,5.9,5.9,0,0,0-4.6-1.8,6,6,0,0,0-4.4,1.5,5.4,5.4,0,0,0-1.6,4.3l-.6-5.8a10.3,10.3,0,0,1,3.6-4.1,8.6,8.6,0,0,1,4.9-1.5,9.5,9.5,0,0,1,7.6,3.2c1.8,2.1,2.6,5.1,2.6,9v18.2h-5.8Z"/><path class="a" d="M848,1138.6a10.9,10.9,0,0,1-4.4-4.6,14.9,14.9,0,0,1-1.6-7.3v-3.4a17.3,17.3,0,0,1,1.5-7.5,10.6,10.6,0,0,1,4.3-4.8,13.4,13.4,0,0,1,6.8-1.7,11.2,11.2,0,0,1,6.4,1.9,11.7,11.7,0,0,1,4,5.4,22,22,0,0,1,1.4,8.5v2H846.3v-4.7h14.6a9.9,9.9,0,0,0-1.9-5.7,5.4,5.4,0,0,0-4.4-2.1,6.8,6.8,0,0,0-5.2,2.2,9.7,9.7,0,0,0-1.8,6.2v3.8a7.7,7.7,0,0,0,2,5.7,7,7,0,0,0,5.5,2,9.2,9.2,0,0,0,3.6-.7,12.7,12.7,0,0,0,3.1-2l3.9,3.8a14.5,14.5,0,0,1-5,3.3,14.1,14.1,0,0,1-5.6,1.2A15.8,15.8,0,0,1,848,1138.6Z"/><path class="a" d="M107.8,1180.6h5.8v42h-5.8Zm8.5,29a8.3,8.3,0,0,1-3.1-3.8l.4-6.3a8.1,8.1,0,0,0,.7,3.3,5.8,5.8,0,0,0,2,2.1,6.6,6.6,0,0,0,3.2.7,5.5,5.5,0,0,0,4.5-1.8c1.1-1.1,1.6-2.8,1.6-5v-6.4a7.3,7.3,0,0,0-1.6-5.1,5.3,5.3,0,0,0-4.5-1.9,7.9,7.9,0,0,0-3.2.7,5.8,5.8,0,0,0-2,2.1,7.6,7.6,0,0,0-.7,3.2l-.6-5.8a10,10,0,0,1,3.6-4,8.4,8.4,0,0,1,4.9-1.5,9.5,9.5,0,0,1,5.4,1.5,8.7,8.7,0,0,1,3.4,4.1,16.9,16.9,0,0,1,1.2,6.6v6.5a15.7,15.7,0,0,1-1.2,6.5,9.1,9.1,0,0,1-3.5,4.2,11.3,11.3,0,0,1-5.6,1.4A8.8,8.8,0,0,1,116.3,1209.6Z"/><path class="a" d="M139.9,1180.6h5.8v29.9h-5.8Zm14.5,5.6a7.8,7.8,0,0,0-2.8-.5,5.6,5.6,0,0,0-4.3,1.6,5.7,5.7,0,0,0-1.6,4.2l-.6-5.7a11.5,11.5,0,0,1,3.6-4.2,8.5,8.5,0,0,1,4.8-1.5,10.6,10.6,0,0,1,3.7.6,7.1,7.1,0,0,1,2.9,1.8l-3.8,5.2A4.5,4.5,0,0,0,154.4,1186.2Z"/><path class="a" d="M169.6,1209.4a11.7,11.7,0,0,1-4.5-4.6,16.1,16.1,0,0,1-1.5-7.3v-3.4a17.3,17.3,0,0,1,1.5-7.5,10.6,10.6,0,0,1,4.3-4.8,13.2,13.2,0,0,1,6.8-1.7,11.2,11.2,0,0,1,6.4,1.9,11.7,11.7,0,0,1,4,5.4,22,22,0,0,1,1.4,8.5v2H167.9v-4.7h14.5a9.9,9.9,0,0,0-1.8-5.7,5.4,5.4,0,0,0-4.4-2.1,6.6,6.6,0,0,0-5.2,2.2,9.7,9.7,0,0,0-1.8,6.2v3.8c0,2.5.6,4.4,1.9,5.7a7.4,7.4,0,0,0,5.6,2,9.2,9.2,0,0,0,3.6-.7,12.7,12.7,0,0,0,3.1-2l3.9,3.8a14.5,14.5,0,0,1-5,3.3,14.1,14.1,0,0,1-5.6,1.2A15.5,15.5,0,0,1,169.6,1209.4Z"/><path class="a" d="M200,1209.6a9.3,9.3,0,0,1-3.6-4.2,16.2,16.2,0,0,1-1.2-6.6v-6.6a16.9,16.9,0,0,1,1.2-6.6,8.3,8.3,0,0,1,3.5-4.1,9.5,9.5,0,0,1,5.4-1.4,8.6,8.6,0,0,1,4.8,1.3,11.2,11.2,0,0,1,3.6,3.9l-.6,6.1a6.6,6.6,0,0,0-.7-3.2,5.1,5.1,0,0,0-2-2.1,6.3,6.3,0,0,0-3.2-.7,5.8,5.8,0,0,0-4.5,1.8,7.3,7.3,0,0,0-1.6,5.1v6.5a7.3,7.3,0,0,0,1.6,5.1,6.1,6.1,0,0,0,4.5,1.7,6.3,6.3,0,0,0,3.2-.7,5.1,5.1,0,0,0,2-2.1,6.7,6.7,0,0,0,.7-3.3l.4,6.3a8.7,8.7,0,0,1-2.9,3.7,8.2,8.2,0,0,1-5,1.5A10.8,10.8,0,0,1,200,1209.6Zm13.1-41H219v41.9h-5.9Z"/><path class="a" d="M227.9,1168.6h5.9v5.9h-5.9Zm0,12h5.9v29.9h-5.9Z"/><path class="a" d="M247.8,1209.4a10.1,10.1,0,0,1-4.4-4.5,14.8,14.8,0,0,1-1.6-7V1193a15.4,15.4,0,0,1,1.6-7,10.2,10.2,0,0,1,4.4-4.3,13.9,13.9,0,0,1,7-1.6,16.1,16.1,0,0,1,4.4.6,15.3,15.3,0,0,1,3.7,1.6,9.6,9.6,0,0,1,2.7,2.6l-4.2,3.8a10.5,10.5,0,0,0-3-2.2,8.5,8.5,0,0,0-3.5-.8,6.6,6.6,0,0,0-7.2,7.3v4.9a7.4,7.4,0,0,0,1.9,5.5,6.9,6.9,0,0,0,5.3,1.9,8.5,8.5,0,0,0,3.5-.8,8.9,8.9,0,0,0,3-2.4l4.2,4.1a10,10,0,0,1-2.8,2.6,12.5,12.5,0,0,1-3.7,1.6,19.5,19.5,0,0,1-4.3.5A15.1,15.1,0,0,1,247.8,1209.4Z"/><path class="a" d="M269.8,1180.6h13.5v5.3H269.8Zm4.8,28c-1.2-1.3-1.7-3.3-1.7-5.9v-30.8h5.8v30.9a2.5,2.5,0,0,0,.5,1.6,1.4,1.4,0,0,0,1.2.6h2.9v5.6h-3.4C277.5,1210.6,275.7,1210,274.6,1208.6Z"/><path class="a" d="M296.5,1209.4a10.5,10.5,0,0,1-4.5-4.6,16.1,16.1,0,0,1-1.5-7.3v-3.4a17.3,17.3,0,0,1,1.5-7.5,10.1,10.1,0,0,1,4.3-4.8,12.9,12.9,0,0,1,6.8-1.7,11.2,11.2,0,0,1,6.4,1.9,12.4,12.4,0,0,1,4,5.4,24,24,0,0,1,1.4,8.5v2H294.7v-4.7h14.6a9.9,9.9,0,0,0-1.9-5.7,5.2,5.2,0,0,0-4.3-2.1,6.5,6.5,0,0,0-5.2,2.2,9.7,9.7,0,0,0-1.8,6.2v3.8c0,2.5.6,4.4,1.9,5.7s3.2,2,5.6,2a8.4,8.4,0,0,0,3.5-.7,13.2,13.2,0,0,0,3.2-2l3.8,3.8a15.9,15.9,0,0,1-10.5,4.5A15.5,15.5,0,0,1,296.5,1209.4Z"/><path class="a" d="M326.8,1209.6a9.7,9.7,0,0,1-3.5-4.2,16.2,16.2,0,0,1-1.2-6.6v-6.6a16.9,16.9,0,0,1,1.2-6.6,8.7,8.7,0,0,1,3.4-4.1,9.6,9.6,0,0,1,5.5-1.4,9.1,9.1,0,0,1,4.8,1.3,11.2,11.2,0,0,1,3.6,3.9l-.6,6.1a7.9,7.9,0,0,0-.7-3.2,5.8,5.8,0,0,0-2-2.1,6.6,6.6,0,0,0-3.2-.7,5.5,5.5,0,0,0-4.5,1.8,7.3,7.3,0,0,0-1.6,5.1v6.5a7.3,7.3,0,0,0,1.6,5.1,5.8,5.8,0,0,0,4.5,1.7,6.6,6.6,0,0,0,3.2-.7,5.8,5.8,0,0,0,2-2.1,8.1,8.1,0,0,0,.7-3.3l.4,6.3a8.3,8.3,0,0,1-3,3.7,8,8,0,0,1-5,1.5A11.3,11.3,0,0,1,326.8,1209.6Zm13.2-41h5.8v41.9H340Z"/><path class="a" d="M370.6,1180.6h5.9v29.9h-5.9Zm14.5,5.6a7.6,7.6,0,0,0-2.7-.5,5.8,5.8,0,0,0-4.4,1.6,5.7,5.7,0,0,0-1.5,4.2l-.6-5.7a10.6,10.6,0,0,1,3.6-4.2,8.1,8.1,0,0,1,4.8-1.5,10.6,10.6,0,0,1,3.7.6,7.9,7.9,0,0,1,2.9,1.8l-3.8,5.2A4.3,4.3,0,0,0,385.1,1186.2Z"/><path class="a" d="M397.1,1208.6q-2.7-2.2-2.7-6.9c0-3,.8-5.2,2.5-6.7s4.2-2.2,7.5-2.2h8.5l.4,4.7h-8.8a5.6,5.6,0,0,0-3.5,1,4.4,4.4,0,0,0-1.1,3.2,3.7,3.7,0,0,0,1.5,3.3c1,.8,2.5,1.1,4.6,1.1a12.9,12.9,0,0,0,5-.7,2.4,2.4,0,0,0,1.7-2.2l.6,4.2a9,9,0,0,1-1.9,2,8.1,8.1,0,0,1-2.7,1.1,11.5,11.5,0,0,1-3.3.4C401.7,1210.9,398.9,1210.1,397.1,1208.6Zm15.6-17.1a5.9,5.9,0,0,0-1.6-4.5,5.7,5.7,0,0,0-4.4-1.7,10.3,10.3,0,0,0-3.5.6,8.1,8.1,0,0,0-3.1,1.5l-4.3-2.9a11.2,11.2,0,0,1,4.5-3.2,16.5,16.5,0,0,1,12.6.1,9.4,9.4,0,0,1,4,3.9,12.1,12.1,0,0,1,1.4,6v19.2h-5.6Z"/><path class="a" d="M427.2,1180.6h5.9v29.9h-5.9Zm18.1,11.8c0-2.2-.5-3.8-1.6-4.9a5.9,5.9,0,0,0-4.6-1.8,6.1,6.1,0,0,0-4.5,1.6,5.7,5.7,0,0,0-1.5,4.2l-.6-5.7a10.6,10.6,0,0,1,3.6-4.2,8.6,8.6,0,0,1,4.9-1.5,9.5,9.5,0,0,1,7.6,3.2c1.7,2.1,2.6,5.1,2.6,9v18.2h-5.9Z"/><path class="a" d="M460.2,1168.6H466v41.9h-5.8Zm2.5,30.5,15.4-18.5H485l-22.7,25.5Zm6.9-5.9,3.8-3.9,13.1,21.2h-6.4Z"/><path class="a" d="M491.4,1168.6h5.8v5.9h-5.8Zm0,12h5.8v29.9h-5.8Z"/><path class="a" d="M506.2,1180.6H512v29.9h-5.8Zm18.1,11.8c0-2.2-.5-3.8-1.6-4.9a6,6,0,0,0-4.6-1.8,5.9,5.9,0,0,0-4.5,1.6,5.7,5.7,0,0,0-1.6,4.2l-.6-5.7a11.7,11.7,0,0,1,3.7-4.2,8.4,8.4,0,0,1,4.9-1.5,9.4,9.4,0,0,1,7.5,3.2q2.7,3.2,2.7,9v18.2h-5.9Z"/><path class="a" d="M543,1209.6a9.1,9.1,0,0,1-3.5-4.2,16.2,16.2,0,0,1-1.2-6.6v-6.6a16.9,16.9,0,0,1,1.1-6.6,8.9,8.9,0,0,1,3.5-4.1,9.5,9.5,0,0,1,5.4-1.4,9.2,9.2,0,0,1,4.9,1.3,12,12,0,0,1,3.5,3.9l-.6,6.1a6.6,6.6,0,0,0-.7-3.2,4.5,4.5,0,0,0-2-2.1,6.1,6.1,0,0,0-3.2-.7,5.8,5.8,0,0,0-4.5,1.8,7.8,7.8,0,0,0-1.6,5.1v6.5a7.8,7.8,0,0,0,1.6,5.1,7.1,7.1,0,0,0,7.7,1,4.5,4.5,0,0,0,2-2.1,6.7,6.7,0,0,0,.7-3.3l.4,6.3a8,8,0,0,1-2.9,3.7,8.2,8.2,0,0,1-5,1.5A10.8,10.8,0,0,1,543,1209.6Zm.1,11.8a9.6,9.6,0,0,1-4.1-3.6l4-3.6a7.2,7.2,0,0,0,2.7,2.5,6.9,6.9,0,0,0,3.4.9,7.4,7.4,0,0,0,5.2-1.9,7.2,7.2,0,0,0,1.8-5.3v-29.8H562v29a15.1,15.1,0,0,1-1.5,7,10.1,10.1,0,0,1-4.4,4.5,14.8,14.8,0,0,1-7,1.5A14.6,14.6,0,0,1,543.1,1221.4Z"/><path class="a" d="M591.6,1209.4a9.2,9.2,0,0,1-4.2-4.5,15.1,15.1,0,0,1-1.5-7V1193a14.7,14.7,0,0,1,1.5-6.9,9,9,0,0,1,4.2-4.4,12.4,12.4,0,0,1,6.6-1.6,13,13,0,0,1,6.7,1.6,10,10,0,0,1,4.2,4.4,14.7,14.7,0,0,1,1.5,6.9v5a15.4,15.4,0,0,1-1.5,7,10.5,10.5,0,0,1-4.2,4.4,14.1,14.1,0,0,1-6.7,1.5A13.4,13.4,0,0,1,591.6,1209.4Zm11.4-6a8.1,8.1,0,0,0,1.7-5.4v-5a8.1,8.1,0,0,0-1.7-5.4,6.2,6.2,0,0,0-4.8-1.9,6.2,6.2,0,0,0-4.7,1.9,7.6,7.6,0,0,0-1.7,5.4v5a7.6,7.6,0,0,0,1.7,5.4,5.8,5.8,0,0,0,4.7,1.9A5.9,5.9,0,0,0,603,1203.4Z"/><path class="a" d="M616.6,1180.6h15v5h-15Zm3.2-4.1c0-2.6.6-4.6,1.8-5.9s3.1-2,5.6-2h4.4v5.6h-4.2a1.5,1.5,0,0,0-1.3.6,2.9,2.9,0,0,0-.4,1.7v34h-5.9Z"/><path class="a" d="M653.5,1180.6h5.8v42h-5.8Zm8.5,29a8.3,8.3,0,0,1-3.1-3.8l.4-6.3a8.1,8.1,0,0,0,.7,3.3,5.8,5.8,0,0,0,2,2.1,6.6,6.6,0,0,0,3.2.7,5.5,5.5,0,0,0,4.5-1.8c1.1-1.1,1.6-2.8,1.6-5v-6.4a7.3,7.3,0,0,0-1.6-5.1,5.3,5.3,0,0,0-4.5-1.9,7.9,7.9,0,0,0-3.2.7,5.8,5.8,0,0,0-2,2.1,7.6,7.6,0,0,0-.7,3.2l-.6-5.8a10,10,0,0,1,3.6-4,8.3,8.3,0,0,1,4.8-1.5,9.6,9.6,0,0,1,5.5,1.5,8.7,8.7,0,0,1,3.4,4.1,16.9,16.9,0,0,1,1.2,6.6v6.5a15.7,15.7,0,0,1-1.2,6.5,8.8,8.8,0,0,1-3.6,4.2,10.7,10.7,0,0,1-5.5,1.4A8.8,8.8,0,0,1,662,1209.6Z"/><path class="a" d="M690.7,1198.7a6.7,6.7,0,0,0,1.6,4.9,6.1,6.1,0,0,0,4.5,1.7,6.4,6.4,0,0,0,4.5-1.5,6.1,6.1,0,0,0,1.6-4.4l.4,6.3a8.3,8.3,0,0,1-3,3.7,8.5,8.5,0,0,1-5.1,1.5,9.7,9.7,0,0,1-7.7-3.2q-2.7-3.2-2.7-9v-18.1h5.9Zm12.2-18.1h5.8v29.9h-5.8Z"/><path class="a" d="M717.6,1168.6h5.9v41.9h-5.9Zm8.6,41a8.3,8.3,0,0,1-3.1-3.8l.4-6.3a8.1,8.1,0,0,0,.7,3.3,5.1,5.1,0,0,0,2,2.1,6.6,6.6,0,0,0,3.2.7,5.8,5.8,0,0,0,4.5-1.8c1.1-1.1,1.6-2.8,1.6-5v-6.4a7.3,7.3,0,0,0-1.6-5.1,5.5,5.5,0,0,0-4.5-1.9,7.9,7.9,0,0,0-3.2.7,5.1,5.1,0,0,0-2,2.1,7.6,7.6,0,0,0-.7,3.2l-.6-5.8a10,10,0,0,1,3.6-4,8.1,8.1,0,0,1,4.8-1.5,9.8,9.8,0,0,1,5.5,1.5,8.7,8.7,0,0,1,3.4,4.1,16.9,16.9,0,0,1,1.2,6.6v6.5a15.7,15.7,0,0,1-1.2,6.5,8.8,8.8,0,0,1-3.6,4.2,10.8,10.8,0,0,1-5.6,1.4A8.6,8.6,0,0,1,726.2,1209.6Z"/><path class="a" d="M755.6,1202.8a2.5,2.5,0,0,0,.5,1.6,1.6,1.6,0,0,0,1.3.6h2.8v5.6h-3.5a6.4,6.4,0,0,1-5.1-2.1c-1.3-1.3-1.9-3.3-1.9-5.8v-34.1h5.9Z"/><path class="a" d="M766.8,1168.6h5.9v5.9h-5.9Zm0,12h5.9v29.9h-5.9Z"/><path class="a" d="M786.7,1209.4a10.1,10.1,0,0,1-4.4-4.5,14.8,14.8,0,0,1-1.5-7V1193a15.4,15.4,0,0,1,1.5-7,10.2,10.2,0,0,1,4.4-4.3,13.9,13.9,0,0,1,7-1.6,15.6,15.6,0,0,1,4.4.6,13.8,13.8,0,0,1,3.7,1.6,9.6,9.6,0,0,1,2.7,2.6l-4.2,3.8a8.4,8.4,0,0,0-3-2.2,8.5,8.5,0,0,0-3.5-.8,7.4,7.4,0,0,0-5.3,1.9,7.7,7.7,0,0,0-1.9,5.4v4.9a7.8,7.8,0,0,0,1.9,5.5,6.9,6.9,0,0,0,5.3,1.9,9.4,9.4,0,0,0,3.6-.8,9.6,9.6,0,0,0,2.9-2.4l4.2,4.1a9.6,9.6,0,0,1-2.7,2.6,15.3,15.3,0,0,1-3.7,1.6,21.2,21.2,0,0,1-4.4.5A15.1,15.1,0,0,1,786.7,1209.4Z"/><path class="a" d="M812.3,1208.6q-2.7-2.2-2.7-6.9c0-3,.8-5.2,2.5-6.7s4.2-2.2,7.6-2.2h8.5l.4,4.7h-8.9a5.8,5.8,0,0,0-3.5,1,4.4,4.4,0,0,0-1.1,3.2,3.7,3.7,0,0,0,1.5,3.3,7.5,7.5,0,0,0,4.6,1.1,12.6,12.6,0,0,0,5-.7,2.4,2.4,0,0,0,1.7-2.2l.6,4.2a9,9,0,0,1-1.9,2,8.5,8.5,0,0,1-2.6,1.1,12.2,12.2,0,0,1-3.4.4C816.9,1210.9,814.1,1210.1,812.3,1208.6Zm15.6-17.1a5.9,5.9,0,0,0-1.6-4.5,5.7,5.7,0,0,0-4.4-1.7,10.3,10.3,0,0,0-3.5.6,8.1,8.1,0,0,0-3.1,1.5l-4.3-2.9a11.2,11.2,0,0,1,4.5-3.2,16.5,16.5,0,0,1,12.6.1,9.4,9.4,0,0,1,4,3.9,12.1,12.1,0,0,1,1.4,6v19.2h-5.6Z"/><path class="a" d="M840.1,1180.6h13.5v5.3H840.1Zm4.8,28a9,9,0,0,1-1.7-5.9v-30.8h5.9v30.9a2.5,2.5,0,0,0,.4,1.6,1.5,1.5,0,0,0,1.3.6h2.8v5.6h-3.4C847.8,1210.6,846,1210,844.9,1208.6Z"/><path class="a" d="M861.7,1168.6h5.8v5.9h-5.8Zm0,12h5.8v29.9h-5.8Z"/><path class="a" d="M881.3,1209.4a9.2,9.2,0,0,1-4.2-4.5,15.1,15.1,0,0,1-1.5-7V1193a14.7,14.7,0,0,1,1.5-6.9,9,9,0,0,1,4.2-4.4,12.4,12.4,0,0,1,6.6-1.6,13,13,0,0,1,6.7,1.6,10,10,0,0,1,4.2,4.4,14.7,14.7,0,0,1,1.5,6.9v5a15.4,15.4,0,0,1-1.5,7,10.5,10.5,0,0,1-4.2,4.4,14.1,14.1,0,0,1-6.7,1.5A13.4,13.4,0,0,1,881.3,1209.4Zm11.4-6a8.1,8.1,0,0,0,1.7-5.4v-5a8.1,8.1,0,0,0-1.7-5.4,6.2,6.2,0,0,0-4.8-1.9,6.2,6.2,0,0,0-4.7,1.9,7.6,7.6,0,0,0-1.7,5.4v5a7.6,7.6,0,0,0,1.7,5.4,5.8,5.8,0,0,0,4.7,1.9A5.9,5.9,0,0,0,892.7,1203.4Z"/><path class="a" d="M908.6,1180.6h5.9v29.9h-5.9Zm18.2,11.8a6.6,6.6,0,0,0-1.7-4.9,5.9,5.9,0,0,0-4.6-1.8,5.7,5.7,0,0,0-4.4,1.6,5.4,5.4,0,0,0-1.6,4.2l-.6-5.7a10.6,10.6,0,0,1,3.6-4.2,8.6,8.6,0,0,1,4.9-1.5,9.5,9.5,0,0,1,7.6,3.2c1.8,2.1,2.6,5.1,2.6,9v18.2h-5.8Z"/><path class="a" d="M947.2,1210.4a20.9,20.9,0,0,1-4.4-1.6,17.8,17.8,0,0,1-3.7-2.6l3.5-4.3a17.1,17.1,0,0,0,4.8,2.8,13.5,13.5,0,0,0,4.7.9,10.6,10.6,0,0,0,5.3-1,3.8,3.8,0,0,0,1.7-3.3,2.5,2.5,0,0,0-.9-2.1,6.4,6.4,0,0,0-2.4-1l-4-.5h-1.4a27,27,0,0,1-4.9-.9,6.7,6.7,0,0,1-3.4-2.3,7.7,7.7,0,0,1-1.3-4.9,9.7,9.7,0,0,1,1.3-5.3,7.4,7.4,0,0,1,3.8-3.1,17.3,17.3,0,0,1,6.5-1.1,21.2,21.2,0,0,1,4.4.5,17,17,0,0,1,4,1.3,15.8,15.8,0,0,1,3.8,2.1l-3.6,4.3a20.1,20.1,0,0,0-4.4-2.2,16.7,16.7,0,0,0-4.2-.7,8.8,8.8,0,0,0-4.5,1,3.5,3.5,0,0,0-1.5,3.1,1.9,1.9,0,0,0,.8,1.8,4.8,4.8,0,0,0,2.2.8,22.7,22.7,0,0,0,3.6.4h1.1a25.7,25.7,0,0,1,5.4.8,6.7,6.7,0,0,1,3.7,2.5,8.5,8.5,0,0,1,1.5,5.4,10.1,10.1,0,0,1-1.4,5.4,8,8,0,0,1-4.2,3.1,19.4,19.4,0,0,1-7,1.1A25.4,25.4,0,0,1,947.2,1210.4Z"/><path class="a" d="M988,1168.6h5.9v5.9H988Zm0,12h5.9v29.9H988Z"/><path class="a" d="M1008.4,1210.4a20.1,20.1,0,0,1-4.3-1.6,13.7,13.7,0,0,1-3.7-2.6l3.5-4.3a17.1,17.1,0,0,0,4.8,2.8,13.1,13.1,0,0,0,4.7.9,10.2,10.2,0,0,0,5.2-1,3.7,3.7,0,0,0,1.8-3.3,2.5,2.5,0,0,0-1-2.1,5.4,5.4,0,0,0-2.3-1l-4-.5h-1.5a28.7,28.7,0,0,1-4.9-.9,6.4,6.4,0,0,1-3.3-2.3,7.7,7.7,0,0,1-1.4-4.9,9.7,9.7,0,0,1,1.3-5.3,8.1,8.1,0,0,1,3.9-3.1,16.7,16.7,0,0,1,6.4-1.1,20.4,20.4,0,0,1,4.4.5,17.9,17.9,0,0,1,4.1,1.3,15.3,15.3,0,0,1,3.7,2.1l-3.5,4.3a18.7,18.7,0,0,0-4.5-2.2,15.4,15.4,0,0,0-4.2-.7,8.8,8.8,0,0,0-4.5,1,3.5,3.5,0,0,0-1.5,3.1,2,2,0,0,0,.9,1.8,4,4,0,0,0,2.1.8,26,26,0,0,0,3.7.4h1.1a23.8,23.8,0,0,1,5.3.8,6.7,6.7,0,0,1,3.7,2.5,8.5,8.5,0,0,1,1.5,5.4,9.3,9.3,0,0,1-1.4,5.4,8.2,8.2,0,0,1-4.1,3.1,20.2,20.2,0,0,1-7,1.1A26.5,26.5,0,0,1,1008.4,1210.4Z"/><path class="a" d="M207.3,1269.5a7.2,7.2,0,0,0,1.6,4.9,6.1,6.1,0,0,0,4.5,1.7,6.4,6.4,0,0,0,4.5-1.5,6.1,6.1,0,0,0,1.6-4.4l.4,6.3a8.3,8.3,0,0,1-3,3.7,8.5,8.5,0,0,1-5.1,1.5,9.7,9.7,0,0,1-7.7-3.2q-2.7-3.1-2.7-9v-18.1h5.9Zm12.2-18.1h5.8v29.9h-5.8Z"/><path class="a" d="M234.3,1251.4h5.8v42h-5.8Zm8.5,29a8.3,8.3,0,0,1-3.1-3.8l.4-6.3a8.1,8.1,0,0,0,.7,3.3,5.1,5.1,0,0,0,2,2.1,6.6,6.6,0,0,0,3.2.7,5.8,5.8,0,0,0,4.5-1.8c1.1-1.1,1.6-2.8,1.6-5v-6.4a7.3,7.3,0,0,0-1.6-5.1,5.5,5.5,0,0,0-4.5-1.9,7.9,7.9,0,0,0-3.2.7,5.1,5.1,0,0,0-2,2.1,7.6,7.6,0,0,0-.7,3.2l-.6-5.8a10,10,0,0,1,3.6-4,8.3,8.3,0,0,1,4.8-1.5,9.8,9.8,0,0,1,5.5,1.5,8.7,8.7,0,0,1,3.4,4.1,16.9,16.9,0,0,1,1.2,6.6v6.5a15.7,15.7,0,0,1-1.2,6.5,8.8,8.8,0,0,1-3.6,4.2,10.8,10.8,0,0,1-5.6,1.4A8.6,8.6,0,0,1,242.8,1280.4Z"/><path class="a" d="M270.2,1280.4a9.7,9.7,0,0,1-3.5-4.2,16.2,16.2,0,0,1-1.2-6.6V1263a16.9,16.9,0,0,1,1.2-6.6,8.7,8.7,0,0,1,3.4-4.1,9.5,9.5,0,0,1,5.4-1.4,9.2,9.2,0,0,1,4.9,1.3,11,11,0,0,1,3.5,3.9l-.6,6.1a7.9,7.9,0,0,0-.6-3.2,5.3,5.3,0,0,0-2.1-2.1,5.9,5.9,0,0,0-3.1-.7,5.5,5.5,0,0,0-4.5,1.8,7.3,7.3,0,0,0-1.6,5.1v6.5a7.3,7.3,0,0,0,1.6,5.1,5.8,5.8,0,0,0,4.5,1.7,5.9,5.9,0,0,0,3.1-.7,5.3,5.3,0,0,0,2.1-2.1,8.1,8.1,0,0,0,.6-3.3l.4,6.3a7.4,7.4,0,0,1-2.9,3.7,8,8,0,0,1-5,1.5A11.1,11.1,0,0,1,270.2,1280.4Zm13.1-41h5.9v41.9h-5.9Z"/><path class="a" d="M299.4,1279.4q-2.7-2.2-2.7-6.9c0-3,.8-5.2,2.5-6.7s4.2-2.2,7.6-2.2h8.5l.4,4.7h-8.9a5.3,5.3,0,0,0-3.4,1,4.1,4.1,0,0,0-1.2,3.2,3.6,3.6,0,0,0,1.6,3.3,7.1,7.1,0,0,0,4.5,1.1,13.2,13.2,0,0,0,5.1-.7,2.3,2.3,0,0,0,1.6-2.2l.6,4.2a7.2,7.2,0,0,1-1.9,2,6.8,6.8,0,0,1-2.6,1.1,11.8,11.8,0,0,1-3.4.4C304,1281.7,301.3,1280.9,299.4,1279.4Zm15.6-17.1a6.3,6.3,0,0,0-1.5-4.5,6.1,6.1,0,0,0-4.5-1.7,10.7,10.7,0,0,0-3.5.6,8.5,8.5,0,0,0-3,1.5l-4.3-2.9a10,10,0,0,1,4.5-3.2,15.1,15.1,0,0,1,6.1-1.2,15.5,15.5,0,0,1,6.4,1.3,8.9,8.9,0,0,1,4,3.9,11.1,11.1,0,0,1,1.4,6v19.2H315Z"/><path class="a" d="M327.2,1251.4h13.5v5.3H327.2Zm4.8,28a9,9,0,0,1-1.7-5.9v-30.8h5.9v30.9a3.4,3.4,0,0,0,.4,1.6,1.5,1.5,0,0,0,1.3.6h2.8v5.6h-3.4C334.9,1281.4,333.1,1280.8,332,1279.4Z"/><path class="a" d="M354,1280.2a10.5,10.5,0,0,1-4.5-4.6,14.9,14.9,0,0,1-1.6-7.3v-3.4a17.3,17.3,0,0,1,1.5-7.5,10.6,10.6,0,0,1,4.3-4.8,13.4,13.4,0,0,1,6.8-1.7,11.2,11.2,0,0,1,6.4,1.9,12.6,12.6,0,0,1,4.1,5.4,24,24,0,0,1,1.4,8.5v2H352.2V1264h14.6a9.9,9.9,0,0,0-1.9-5.7,5.4,5.4,0,0,0-4.4-2.1,6.8,6.8,0,0,0-5.2,2.2,9.7,9.7,0,0,0-1.8,6.2v3.8a7.7,7.7,0,0,0,2,5.7,7,7,0,0,0,5.5,2,9.2,9.2,0,0,0,3.6-.7,11,11,0,0,0,3.1-2l3.9,3.8a14.5,14.5,0,0,1-5,3.3,13.8,13.8,0,0,1-5.6,1.2A15.1,15.1,0,0,1,354,1280.2Z"/><path class="a" d="M384.3,1280.4a9.7,9.7,0,0,1-3.5-4.2,16.2,16.2,0,0,1-1.2-6.6V1263a19,19,0,0,1,1.1-6.6,8.9,8.9,0,0,1,3.5-4.1,9.5,9.5,0,0,1,5.4-1.4,9.2,9.2,0,0,1,4.9,1.3,12,12,0,0,1,3.5,3.9l-.6,6.1a6.6,6.6,0,0,0-.7-3.2,4.5,4.5,0,0,0-2-2.1,6.1,6.1,0,0,0-3.2-.7,5.8,5.8,0,0,0-4.5,1.8,7.8,7.8,0,0,0-1.6,5.1v6.5a7.8,7.8,0,0,0,1.6,5.1,7.1,7.1,0,0,0,7.7,1,4.5,4.5,0,0,0,2-2.1,6.7,6.7,0,0,0,.7-3.3l.4,6.3a8.2,8.2,0,0,1-7.9,5.2A10.8,10.8,0,0,1,384.3,1280.4Zm13.1-41h5.9v41.9h-5.9Z"/><path class="a" d="M411.2,1275.1h6.2v6.2h-6.2Z"/><path class="a" d="M436.3,1239.4h29.5v5.6H436.3Zm11.8,3.4H454v38.5h-5.9Z"/><path class="a" d="M469.8,1239.4h5.9v41.9h-5.9Zm18.2,23.8c0-2.2-.5-3.8-1.6-4.9a6.1,6.1,0,0,0-4.7-1.8,6,6,0,0,0-4.4,1.5,5.4,5.4,0,0,0-1.6,4.3l-.6-5.8a10.3,10.3,0,0,1,3.6-4.1,8.9,8.9,0,0,1,5-1.5,9.4,9.4,0,0,1,7.5,3.2q2.7,3.2,2.7,9v18.2H488Z"/><path class="a" d="M508,1280.2a10.5,10.5,0,0,1-4.5-4.6,16.1,16.1,0,0,1-1.6-7.3v-3.4a17.3,17.3,0,0,1,1.5-7.5,11.2,11.2,0,0,1,4.3-4.8,13.4,13.4,0,0,1,6.8-1.7,11,11,0,0,1,6.4,1.9,12.6,12.6,0,0,1,4.1,5.4,24,24,0,0,1,1.4,8.5v2H506.2V1264h14.6a9.9,9.9,0,0,0-1.9-5.7,5.2,5.2,0,0,0-4.4-2.1,6.4,6.4,0,0,0-5.1,2.2,9.2,9.2,0,0,0-1.9,6.2v3.8a7.7,7.7,0,0,0,2,5.7c1.3,1.4,3.1,2,5.6,2a9.1,9.1,0,0,0,3.5-.7,11,11,0,0,0,3.1-2l3.9,3.8a15.9,15.9,0,0,1-10.5,4.5A15.2,15.2,0,0,1,508,1280.2Z"/><path class="a" d="M550.3,1251.4h5.9v29.9h-5.9Zm14.5,5.6a7.8,7.8,0,0,0-2.8-.5,5.6,5.6,0,0,0-4.3,1.6,5.7,5.7,0,0,0-1.5,4.2l-.6-5.7a11.3,11.3,0,0,1,3.5-4.2,8.6,8.6,0,0,1,4.9-1.5,11,11,0,0,1,3.7.6,8.8,8.8,0,0,1,2.9,1.8l-3.9,5.2A4,4,0,0,0,564.8,1257Z"/><path class="a" d="M576.8,1279.4c-1.9-1.5-2.8-3.8-2.8-6.9a8.7,8.7,0,0,1,2.5-6.7c1.7-1.5,4.2-2.2,7.6-2.2h8.5l.4,4.7h-8.9a5.3,5.3,0,0,0-3.4,1,4,4,0,0,0-1.1,3.2,3.7,3.7,0,0,0,1.5,3.3c1,.8,2.5,1.1,4.6,1.1a12.9,12.9,0,0,0,5-.7,2.3,2.3,0,0,0,1.6-2.2l.6,4.2a7.2,7.2,0,0,1-1.9,2,6.8,6.8,0,0,1-2.6,1.1,11.8,11.8,0,0,1-3.4.4C581.3,1281.7,578.6,1280.9,576.8,1279.4Zm15.5-17.1a6.3,6.3,0,0,0-1.5-4.5,6.1,6.1,0,0,0-4.5-1.7,10.7,10.7,0,0,0-3.5.6,8.5,8.5,0,0,0-3,1.5l-4.3-2.9a10,10,0,0,1,4.5-3.2,15.1,15.1,0,0,1,6.1-1.2,15.5,15.5,0,0,1,6.4,1.3,8.9,8.9,0,0,1,4,3.9,11.1,11.1,0,0,1,1.4,6v19.2h-5.6Z"/><path class="a" d="M606.9,1251.4h5.8v29.9h-5.8Zm18.1,11.8c0-2.2-.5-3.8-1.6-4.9a6,6,0,0,0-4.6-1.8,5.9,5.9,0,0,0-4.5,1.6,5.7,5.7,0,0,0-1.6,4.2l-.6-5.7a11.7,11.7,0,0,1,3.7-4.2,8.4,8.4,0,0,1,4.9-1.5,9.4,9.4,0,0,1,7.5,3.2q2.7,3.2,2.7,9v18.2H625Z"/><path class="a" d="M639.8,1239.4h5.9v41.9h-5.9Zm2.6,30.5,15.3-18.5h7L642,1276.9Zm6.9-5.9,3.8-3.9,13,21.2h-6.4Z"/><path class="a" d="M671,1239.4h5.9v5.9H671Zm0,12h5.9v29.9H671Z"/><path class="a" d="M685.8,1251.4h5.9v29.9h-5.9Zm18.2,11.8a6.6,6.6,0,0,0-1.7-4.9,5.9,5.9,0,0,0-4.6-1.8,5.7,5.7,0,0,0-4.4,1.6,5.4,5.4,0,0,0-1.6,4.2l-.6-5.7a10.6,10.6,0,0,1,3.6-4.2,8.7,8.7,0,0,1,5-1.5,9.4,9.4,0,0,1,7.5,3.2q2.7,3.2,2.7,9v18.2H704Z"/><path class="a" d="M722.7,1280.4a9.3,9.3,0,0,1-3.6-4.2,16.2,16.2,0,0,1-1.2-6.6V1263a16.9,16.9,0,0,1,1.2-6.6,8.7,8.7,0,0,1,3.4-4.1,10,10,0,0,1,5.5-1.4,8.9,8.9,0,0,1,4.8,1.3,11.2,11.2,0,0,1,3.6,3.9l-.6,6.1a6.6,6.6,0,0,0-.7-3.2,5.1,5.1,0,0,0-2-2.1,6.3,6.3,0,0,0-3.2-.7,5.8,5.8,0,0,0-4.5,1.8,7.3,7.3,0,0,0-1.6,5.1v6.5a7.3,7.3,0,0,0,1.6,5.1,6.1,6.1,0,0,0,4.5,1.7,6.3,6.3,0,0,0,3.2-.7,5.1,5.1,0,0,0,2-2.1,6.7,6.7,0,0,0,.7-3.3l.4,6.3a8.7,8.7,0,0,1-2.9,3.7,8.4,8.4,0,0,1-5,1.5A10.8,10.8,0,0,1,722.7,1280.4Zm.1,11.8a9.9,9.9,0,0,1-4.2-3.6l4-3.6a8.3,8.3,0,0,0,2.8,2.5,6.6,6.6,0,0,0,3.3.9,7,7,0,0,0,5.2-1.9,6.9,6.9,0,0,0,1.9-5.3v-29.8h5.9v29a13.9,13.9,0,0,1-1.6,7,9.9,9.9,0,0,1-4.3,4.5,15.4,15.4,0,0,1-7,1.5A14.6,14.6,0,0,1,722.8,1292.2Z"/><path class="a" d="M771.5,1280.2a10.1,10.1,0,0,1-4.4-4.5,14.8,14.8,0,0,1-1.5-7v-4.9a15.4,15.4,0,0,1,1.5-7,10.2,10.2,0,0,1,4.4-4.3,13.9,13.9,0,0,1,7-1.6,15.6,15.6,0,0,1,4.4.6,13.8,13.8,0,0,1,3.7,1.6,9.6,9.6,0,0,1,2.7,2.6l-4.2,3.8a8.4,8.4,0,0,0-3-2.2,8.5,8.5,0,0,0-3.5-.8,7.4,7.4,0,0,0-5.3,1.9,7.7,7.7,0,0,0-1.9,5.4v4.9a7.8,7.8,0,0,0,1.9,5.5,6.9,6.9,0,0,0,5.3,1.9,9.4,9.4,0,0,0,3.6-.8,9.6,9.6,0,0,0,2.9-2.4l4.2,4.1a9.6,9.6,0,0,1-2.7,2.6,15.3,15.3,0,0,1-3.7,1.6,21.2,21.2,0,0,1-4.4.5A15.1,15.1,0,0,1,771.5,1280.2Z"/><path class="a" d="M797.1,1279.4q-2.7-2.2-2.7-6.9c0-3,.8-5.2,2.5-6.7s4.2-2.2,7.6-2.2H813l.4,4.7h-8.9a5.8,5.8,0,0,0-3.5,1,4.4,4.4,0,0,0-1.1,3.2,3.7,3.7,0,0,0,1.5,3.3,7.5,7.5,0,0,0,4.6,1.1,12.6,12.6,0,0,0,5-.7,2.4,2.4,0,0,0,1.7-2.2l.6,4.2a9,9,0,0,1-1.9,2,7.6,7.6,0,0,1-2.6,1.1,12.2,12.2,0,0,1-3.4.4C801.7,1281.7,798.9,1280.9,797.1,1279.4Zm15.6-17.1a5.9,5.9,0,0,0-1.6-4.5,5.7,5.7,0,0,0-4.4-1.7,10.3,10.3,0,0,0-3.5.6,8.1,8.1,0,0,0-3.1,1.5l-4.3-2.9a11.2,11.2,0,0,1,4.5-3.2,16.5,16.5,0,0,1,12.6.1,9.4,9.4,0,0,1,4,3.9,12.1,12.1,0,0,1,1.4,6v19.2h-5.6Z"/><path class="a" d="M827.2,1251.4h5.9v29.9h-5.9Zm18.2,11.8a6.6,6.6,0,0,0-1.7-4.9,5.9,5.9,0,0,0-4.6-1.8,5.7,5.7,0,0,0-4.4,1.6,5.4,5.4,0,0,0-1.6,4.2l-.6-5.7a10.6,10.6,0,0,1,3.6-4.2,8.6,8.6,0,0,1,4.9-1.5,9.5,9.5,0,0,1,7.6,3.2c1.8,2.1,2.6,5.1,2.6,9v18.2h-5.8Z"/><path class="a" d="M876,1239.4h5.9v41.9H876Zm8.5,41a8.1,8.1,0,0,1-3-3.8l.4-6.3a6.7,6.7,0,0,0,.7,3.3,5.1,5.1,0,0,0,2,2.1,6.3,6.3,0,0,0,3.2.7,5.8,5.8,0,0,0,4.5-1.8,7.3,7.3,0,0,0,1.6-5v-6.4a7.8,7.8,0,0,0-1.6-5.1,5.5,5.5,0,0,0-4.5-1.9,7.6,7.6,0,0,0-3.2.7,5.1,5.1,0,0,0-2,2.1,6.3,6.3,0,0,0-.7,3.2l-.6-5.8a10.6,10.6,0,0,1,3.5-4,8.6,8.6,0,0,1,4.9-1.5,9.5,9.5,0,0,1,5.4,1.5,8.9,8.9,0,0,1,3.5,4.1,16.9,16.9,0,0,1,1.2,6.6v6.5a14.2,14.2,0,0,1-1.3,6.5,8.6,8.6,0,0,1-3.5,4.2,10.8,10.8,0,0,1-5.6,1.4A9,9,0,0,1,884.5,1280.4Z"/><path class="a" d="M913.3,1280.2a10.5,10.5,0,0,1-4.5-4.6,16.1,16.1,0,0,1-1.6-7.3v-3.4a17.3,17.3,0,0,1,1.5-7.5,11.2,11.2,0,0,1,4.3-4.8,13.4,13.4,0,0,1,6.8-1.7,11,11,0,0,1,6.4,1.9,11.8,11.8,0,0,1,4.1,5.4,24,24,0,0,1,1.4,8.5v2H911.5V1264h14.6a9.9,9.9,0,0,0-1.9-5.7,5.2,5.2,0,0,0-4.4-2.1,6.4,6.4,0,0,0-5.1,2.2,9.2,9.2,0,0,0-1.9,6.2v3.8a7.7,7.7,0,0,0,2,5.7c1.3,1.4,3.2,2,5.6,2a9.1,9.1,0,0,0,3.5-.7,11,11,0,0,0,3.1-2l3.9,3.8a15.9,15.9,0,0,1-10.5,4.5A15.2,15.2,0,0,1,913.3,1280.2Z"/><path class="a" d="M285.4,1350.2q-2.7-2.2-2.7-6.9c0-3,.8-5.2,2.5-6.7s4.2-2.2,7.6-2.2h8.5l.4,4.7h-8.9a5.8,5.8,0,0,0-3.5,1,4.4,4.4,0,0,0-1.1,3.2,3.7,3.7,0,0,0,1.5,3.3,7.5,7.5,0,0,0,4.6,1.1,12.6,12.6,0,0,0,5-.7,2.3,2.3,0,0,0,1.7-2.2l.6,4.2a7.2,7.2,0,0,1-1.9,2,7.6,7.6,0,0,1-2.6,1.1,12.2,12.2,0,0,1-3.4.4C290,1352.5,287.2,1351.7,285.4,1350.2Zm15.6-17.1a5.9,5.9,0,0,0-1.6-4.5,5.7,5.7,0,0,0-4.4-1.7,10.3,10.3,0,0,0-3.5.6,8.1,8.1,0,0,0-3.1,1.5l-4.3-2.9a11.2,11.2,0,0,1,4.5-3.2,16.5,16.5,0,0,1,12.6.1,9.4,9.4,0,0,1,4,3.9,12.1,12.1,0,0,1,1.4,6v19.2H301Z"/><path class="a" d="M320.6,1351a10.1,10.1,0,0,1-4.4-4.5,14.8,14.8,0,0,1-1.5-7v-4.9a15.4,15.4,0,0,1,1.5-7,10.2,10.2,0,0,1,4.4-4.3,13.9,13.9,0,0,1,7-1.6,16.1,16.1,0,0,1,4.4.6,13.8,13.8,0,0,1,3.7,1.6,9.6,9.6,0,0,1,2.7,2.6l-4.2,3.8a9.3,9.3,0,0,0-3-2.2,8.5,8.5,0,0,0-3.5-.8,7.4,7.4,0,0,0-5.3,1.9,7.7,7.7,0,0,0-1.9,5.4v4.9a7.8,7.8,0,0,0,1.9,5.5,6.9,6.9,0,0,0,5.3,1.9,9.4,9.4,0,0,0,3.6-.8,9.6,9.6,0,0,0,2.9-2.4l4.2,4.1a9.6,9.6,0,0,1-2.7,2.6,15.3,15.3,0,0,1-3.7,1.6,21.2,21.2,0,0,1-4.4.5A15.1,15.1,0,0,1,320.6,1351Z"/><path class="a" d="M350,1351a10.1,10.1,0,0,1-4.4-4.5,14.8,14.8,0,0,1-1.6-7v-4.9a15.4,15.4,0,0,1,1.6-7,10.2,10.2,0,0,1,4.4-4.3,13.9,13.9,0,0,1,7-1.6,16.1,16.1,0,0,1,4.4.6,15.3,15.3,0,0,1,3.7,1.6,9.6,9.6,0,0,1,2.7,2.6l-4.2,3.8a10.5,10.5,0,0,0-3-2.2,8.5,8.5,0,0,0-3.5-.8,6.6,6.6,0,0,0-7.2,7.3v4.9a7.4,7.4,0,0,0,1.9,5.5,6.9,6.9,0,0,0,5.3,1.9,8.5,8.5,0,0,0,3.5-.8,9.9,9.9,0,0,0,3-2.4l4.2,4.1a10,10,0,0,1-2.8,2.6,13.8,13.8,0,0,1-3.7,1.6,19.5,19.5,0,0,1-4.3.5A15.1,15.1,0,0,1,350,1351Z"/><path class="a" d="M379.4,1351a10.9,10.9,0,0,1-4.4-4.6,14.9,14.9,0,0,1-1.6-7.3v-3.4a17.3,17.3,0,0,1,1.5-7.5,10.6,10.6,0,0,1,4.3-4.8,13.4,13.4,0,0,1,6.8-1.7,11.2,11.2,0,0,1,6.4,1.9,12.6,12.6,0,0,1,4.1,5.4,24,24,0,0,1,1.4,8.5v2H377.7v-4.7h14.6a9.9,9.9,0,0,0-1.9-5.7,5.4,5.4,0,0,0-4.4-2.1,6.8,6.8,0,0,0-5.2,2.2,9.7,9.7,0,0,0-1.8,6.2v3.8a7.7,7.7,0,0,0,2,5.7,7,7,0,0,0,5.5,2,9.2,9.2,0,0,0,3.6-.7,11,11,0,0,0,3.1-2l3.9,3.8a14.5,14.5,0,0,1-5,3.3,13.8,13.8,0,0,1-5.6,1.2A15.8,15.8,0,0,1,379.4,1351Z"/><path class="a" d="M411.5,1352a20.1,20.1,0,0,1-4.3-1.6,13.7,13.7,0,0,1-3.7-2.6l3.5-4.3a17.1,17.1,0,0,0,4.8,2.8,13.1,13.1,0,0,0,4.7.9,10.2,10.2,0,0,0,5.2-1,3.7,3.7,0,0,0,1.8-3.3,2.3,2.3,0,0,0-1-2.1,5.4,5.4,0,0,0-2.3-1l-4-.5h-1.5a28.7,28.7,0,0,1-4.9-.9,6.4,6.4,0,0,1-3.3-2.3,7.7,7.7,0,0,1-1.4-4.9,9.7,9.7,0,0,1,1.3-5.3,8.1,8.1,0,0,1,3.9-3.1,16.7,16.7,0,0,1,6.4-1.1,20.4,20.4,0,0,1,4.4.5,17.9,17.9,0,0,1,4.1,1.3,15.3,15.3,0,0,1,3.7,2.1l-3.5,4.3a18.7,18.7,0,0,0-4.5-2.2,15.4,15.4,0,0,0-4.2-.7,8.8,8.8,0,0,0-4.5,1,3.5,3.5,0,0,0-1.5,3.1,2,2,0,0,0,.9,1.8,4,4,0,0,0,2.1.8,26,26,0,0,0,3.7.4h1.1a23.8,23.8,0,0,1,5.3.8,6.7,6.7,0,0,1,3.7,2.5,8.3,8.3,0,0,1,1.5,5.4,9.3,9.3,0,0,1-1.4,5.4,8.2,8.2,0,0,1-4.1,3.1,20.2,20.2,0,0,1-7,1.1A26.5,26.5,0,0,1,411.5,1352Z"/><path class="a" d="M442.1,1352a20.1,20.1,0,0,1-4.3-1.6,13.7,13.7,0,0,1-3.7-2.6l3.5-4.3a17.1,17.1,0,0,0,4.8,2.8,13.1,13.1,0,0,0,4.7.9,10.2,10.2,0,0,0,5.2-1,3.7,3.7,0,0,0,1.8-3.3,2.5,2.5,0,0,0-1-2.1,5.3,5.3,0,0,0-2.4-1l-3.9-.5h-1.5a28.7,28.7,0,0,1-4.9-.9,6.4,6.4,0,0,1-3.3-2.3,7.7,7.7,0,0,1-1.4-4.9,9.7,9.7,0,0,1,1.3-5.3,8.1,8.1,0,0,1,3.9-3.1,16.7,16.7,0,0,1,6.4-1.1,21.2,21.2,0,0,1,4.4.5,17.9,17.9,0,0,1,4.1,1.3,15.3,15.3,0,0,1,3.7,2.1l-3.5,4.3a18.7,18.7,0,0,0-4.5-2.2,15.4,15.4,0,0,0-4.2-.7,8.8,8.8,0,0,0-4.5,1,3.5,3.5,0,0,0-1.5,3.1,2,2,0,0,0,.9,1.8,4,4,0,0,0,2.1.8,26,26,0,0,0,3.7.4h1.1a23.8,23.8,0,0,1,5.3.8,6.7,6.7,0,0,1,3.7,2.5,8.3,8.3,0,0,1,1.5,5.4,9.3,9.3,0,0,1-1.4,5.4,8.2,8.2,0,0,1-4.1,3.1,20.2,20.2,0,0,1-7,1.1A26.5,26.5,0,0,1,442.1,1352Z"/><path class="a" d="M472.3,1351a10.5,10.5,0,0,1-4.5-4.6,16.1,16.1,0,0,1-1.6-7.3v-3.4a17.3,17.3,0,0,1,1.5-7.5,11.2,11.2,0,0,1,4.3-4.8,13.4,13.4,0,0,1,6.8-1.7,11,11,0,0,1,6.4,1.9,12.6,12.6,0,0,1,4.1,5.4,24,24,0,0,1,1.4,8.5v2H470.5v-4.7h14.6a9.9,9.9,0,0,0-1.9-5.7,5.2,5.2,0,0,0-4.4-2.1,6.4,6.4,0,0,0-5.1,2.2,9.2,9.2,0,0,0-1.9,6.2v3.8a7.7,7.7,0,0,0,2,5.7c1.3,1.4,3.2,2,5.6,2a9.1,9.1,0,0,0,3.5-.7,11,11,0,0,0,3.1-2l3.9,3.8a15.9,15.9,0,0,1-10.5,4.5A15.2,15.2,0,0,1,472.3,1351Z"/><path class="a" d="M502.6,1351.2a9.7,9.7,0,0,1-3.5-4.2,16.2,16.2,0,0,1-1.2-6.6v-6.6a16.9,16.9,0,0,1,1.2-6.6,8.2,8.2,0,0,1,3.4-4.1,9.5,9.5,0,0,1,5.4-1.4,9.2,9.2,0,0,1,4.9,1.3,11,11,0,0,1,3.5,3.9l-.6,6.1a7.9,7.9,0,0,0-.6-3.2,5.3,5.3,0,0,0-2.1-2.1,5.9,5.9,0,0,0-3.1-.7,5.5,5.5,0,0,0-4.5,1.8,7.3,7.3,0,0,0-1.6,5.1v6.5a7.3,7.3,0,0,0,1.6,5.1,5.8,5.8,0,0,0,4.5,1.7,5.9,5.9,0,0,0,3.1-.7,5.3,5.3,0,0,0,2.1-2.1,8.1,8.1,0,0,0,.6-3.3l.4,6.3a8.2,8.2,0,0,1-7.9,5.2A11.1,11.1,0,0,1,502.6,1351.2Zm13.1-41h5.9v41.9h-5.9Z"/><path class="a" d="M547.7,1350.2q-2.7-2.2-2.7-6.9c0-3,.8-5.2,2.5-6.7s4.2-2.2,7.5-2.2h8.5l.4,4.7h-8.8a5.6,5.6,0,0,0-3.5,1,4.4,4.4,0,0,0-1.1,3.2,3.7,3.7,0,0,0,1.5,3.3c1,.8,2.5,1.1,4.6,1.1a12.9,12.9,0,0,0,5-.7,2.4,2.4,0,0,0,1.7-2.2l.6,4.2a9,9,0,0,1-1.9,2,8.1,8.1,0,0,1-2.7,1.1,11.5,11.5,0,0,1-3.3.4C552.3,1352.5,549.5,1351.7,547.7,1350.2Zm15.6-17.1a5.9,5.9,0,0,0-1.6-4.5,5.7,5.7,0,0,0-4.4-1.7,10.3,10.3,0,0,0-3.5.6,8.1,8.1,0,0,0-3.1,1.5l-4.3-2.9a10.6,10.6,0,0,1,4.5-3.2,15.6,15.6,0,0,1,6.2-1.2,14.7,14.7,0,0,1,6.3,1.3,9.1,9.1,0,0,1,4.1,3.9,12.1,12.1,0,0,1,1.4,6v19.2h-5.6Z"/><path class="a" d="M575.5,1322.2H589v5.3H575.5Zm4.8,28c-1.2-1.3-1.7-3.3-1.7-5.9v-30.8h5.9v30.9a2.5,2.5,0,0,0,.4,1.6,1.5,1.5,0,0,0,1.3.6H589v5.6h-3.4C583.2,1352.2,581.4,1351.5,580.3,1350.2Z"/><path class="a" d="M614.2,1350.2c-1.8-1.5-2.8-3.8-2.8-6.9s.9-5.2,2.6-6.7,4.1-2.2,7.5-2.2H630l.4,4.7h-8.8a5.6,5.6,0,0,0-3.5,1,4.4,4.4,0,0,0-1.1,3.2,3.7,3.7,0,0,0,1.5,3.3c1,.8,2.5,1.1,4.6,1.1a12.9,12.9,0,0,0,5-.7,2.4,2.4,0,0,0,1.7-2.2l.6,4.2a9,9,0,0,1-1.9,2,8.1,8.1,0,0,1-2.7,1.1,11.8,11.8,0,0,1-3.4.4C618.8,1352.5,616,1351.7,614.2,1350.2Zm15.6-17.1a6.3,6.3,0,0,0-1.6-4.5,6,6,0,0,0-4.5-1.7,11.2,11.2,0,0,0-3.5.6,8.5,8.5,0,0,0-3,1.5l-4.3-2.9a10,10,0,0,1,4.5-3.2,15.2,15.2,0,0,1,6.2-1.2,14.7,14.7,0,0,1,6.3,1.3,9.1,9.1,0,0,1,4.1,3.9,12.1,12.1,0,0,1,1.4,6v19.2h-5.6Z"/><path class="a" d="M650.2,1344.4a2.5,2.5,0,0,0,.4,1.6,1.8,1.8,0,0,0,1.4.6h2.7v5.6h-3.4a6.6,6.6,0,0,1-5.2-2.1,8.4,8.4,0,0,1-1.8-5.8v-34.1h5.9Z"/><path class="a" d="M667.2,1344.4a2.5,2.5,0,0,0,.5,1.6,1.7,1.7,0,0,0,1.4.6h2.7v5.6h-3.4a6.4,6.4,0,0,1-5.2-2.1,8.4,8.4,0,0,1-1.8-5.8v-34.1h5.8Z"/><path class="a" d="M692,1322.2h13.5v5.3H692Zm4.8,28c-1.2-1.3-1.7-3.3-1.7-5.9v-30.8H701v30.9a2.5,2.5,0,0,0,.4,1.6,1.5,1.5,0,0,0,1.3.6h2.8v5.6h-3.4C699.7,1352.2,697.9,1351.5,696.8,1350.2Z"/><path class="a" d="M713.5,1310.2h5.9v5.9h-5.9Zm0,12h5.9v29.9h-5.9Z"/><path class="a" d="M728.3,1322.2h5.9v29.9h-5.9Zm17.9,11.8a7,7,0,0,0-1.5-4.9,5.8,5.8,0,0,0-4.5-1.8,5.7,5.7,0,0,0-4.4,1.6,5.4,5.4,0,0,0-1.6,4.2l-.6-5.7a10.6,10.6,0,0,1,3.6-4.2,9.6,9.6,0,0,1,10.3,0,8.7,8.7,0,0,1,3.4,4.1,16.9,16.9,0,0,1,1.2,6.6v18.2h-5.9Zm17.9,0a6.6,6.6,0,0,0-1.7-4.9,5.9,5.9,0,0,0-4.6-1.8,5.4,5.4,0,0,0-4.2,1.7,6.8,6.8,0,0,0-1.5,4.7l-1.2-5.7a11.4,11.4,0,0,1,3.7-4.6,9,9,0,0,1,5.2-1.7,10.1,10.1,0,0,1,5.5,1.5,8.9,8.9,0,0,1,3.5,4.1,16.9,16.9,0,0,1,1.1,6.6v18.2h-5.8Z"/><path class="a" d="M784,1351a10.9,10.9,0,0,1-4.4-4.6,14.9,14.9,0,0,1-1.6-7.3v-3.4a17.3,17.3,0,0,1,1.5-7.5,10.6,10.6,0,0,1,4.3-4.8,13.4,13.4,0,0,1,6.8-1.7,11.2,11.2,0,0,1,6.4,1.9,11.7,11.7,0,0,1,4,5.4,22,22,0,0,1,1.4,8.5v2H782.3v-4.7h14.6a9.9,9.9,0,0,0-1.9-5.7,5.4,5.4,0,0,0-4.4-2.1,6.8,6.8,0,0,0-5.2,2.2,9.7,9.7,0,0,0-1.8,6.2v3.8a7.7,7.7,0,0,0,2,5.7,7,7,0,0,0,5.5,2,9.2,9.2,0,0,0,3.6-.7,12.7,12.7,0,0,0,3.1-2l3.9,3.8a14.5,14.5,0,0,1-5,3.3,14.1,14.1,0,0,1-5.6,1.2A15.8,15.8,0,0,1,784,1351Z"/><path class="a" d="M816.1,1352a20.1,20.1,0,0,1-4.3-1.6,13.7,13.7,0,0,1-3.7-2.6l3.4-4.3a19.1,19.1,0,0,0,4.9,2.8,13.1,13.1,0,0,0,4.7.9,10.2,10.2,0,0,0,5.2-1,3.7,3.7,0,0,0,1.8-3.3,2.5,2.5,0,0,0-1-2.1,5.3,5.3,0,0,0-2.4-1l-3.9-.5h-1.5a27,27,0,0,1-4.9-.9,7.1,7.1,0,0,1-3.4-2.3,8.4,8.4,0,0,1-1.3-4.9,9.7,9.7,0,0,1,1.3-5.3,8.1,8.1,0,0,1,3.9-3.1,16.7,16.7,0,0,1,6.4-1.1,21.2,21.2,0,0,1,4.4.5,19.6,19.6,0,0,1,4.1,1.3,15.3,15.3,0,0,1,3.7,2.1l-3.5,4.3a18.7,18.7,0,0,0-4.5-2.2,15.4,15.4,0,0,0-4.2-.7,8.8,8.8,0,0,0-4.5,1,3.5,3.5,0,0,0-1.5,3.1,2.2,2.2,0,0,0,.8,1.8,4.8,4.8,0,0,0,2.2.8,26,26,0,0,0,3.7.4h1.1a24.7,24.7,0,0,1,5.3.8,6.7,6.7,0,0,1,3.7,2.5,8.3,8.3,0,0,1,1.5,5.4,9.3,9.3,0,0,1-1.4,5.4,8.2,8.2,0,0,1-4.1,3.1,20.2,20.2,0,0,1-7,1.1A26.5,26.5,0,0,1,816.1,1352Z"/><path class="a" d="M841.4,1345.9h6.2v6.2h-6.2Zm.1-35.7h5.9v31.1h-5.9Z"/><ellipse class="b" cx="571" cy="756.2" rx="306.5" ry="44"/><rect class="c" x="264" y="222.7" width="364" height="459.29" rx="29.3"/><rect class="d" x="364.4" y="248.1" width="220.8" height="23.61"/><polygon class="e" points="336.3 284.6 320 276.3 303.8 285 306.7 266.9 293.4 254.3 311.6 251.4 319.5 234.9 327.8 251.2 345.9 253.7 333 266.6 336.3 284.6"/><path class="a" d="M322.1,271.7h-3.7V256.3l-2.4.9v-4l2.9-1.3h3.2Z"/><polygon class="e" points="336.3 346.4 320 338.1 303.8 346.8 306.7 328.7 293.4 316 311.6 313.2 319.5 296.7 327.8 313 345.9 315.4 333 328.4 336.3 346.4"/><path class="a" d="M314.7,330.2l6.8-9a7.5,7.5,0,0,0,.7-1.2,3.5,3.5,0,0,0,.3-1.2h0a1.7,1.7,0,0,0-.5-1.2,2.4,2.4,0,0,0-1.5-.4,2,2,0,0,0-1.5.6,2.9,2.9,0,0,0-.7,1.7h-3.9a8,8,0,0,1,.9-3.2,4.5,4.5,0,0,1,2.1-2,6,6,0,0,1,3-.7,7.6,7.6,0,0,1,3.2.6,4.2,4.2,0,0,1,2,1.7,5.1,5.1,0,0,1,.7,2.8h0a8.4,8.4,0,0,1-.4,2.7,9.5,9.5,0,0,1-1.4,2.4l-4.9,6.2h6.8v3.6H314.7Z"/><polygon class="e" points="336.3 408.2 320 399.8 303.8 408.6 306.7 390.5 293.4 377.8 311.6 375 319.5 358.4 327.8 374.8 345.9 377.2 333 390.2 336.3 408.2"/><path class="a" d="M317.3,394.9a5.3,5.3,0,0,1-2.2-2,4.8,4.8,0,0,1-.9-2.9H318a3,3,0,0,0,.4,1,2.3,2.3,0,0,0,.7.7l1,.2a2.1,2.1,0,0,0,2.3-2.3v-.5a2.9,2.9,0,0,0-.5-1.7,1.7,1.7,0,0,0-1.4-.6h-1.6v-3.6h1.6a1.1,1.1,0,0,0,1.1-.6,2.1,2.1,0,0,0,.4-1.5v-.3a2,2,0,0,0-.4-1.4,1.3,1.3,0,0,0-1.2-.5l-.9.2a1.4,1.4,0,0,0-.7.8,3.3,3.3,0,0,0-.5,1.2h-3.8a6.7,6.7,0,0,1,1-3.2,5.1,5.1,0,0,1,2.1-2,6.9,6.9,0,0,1,2.9-.7,5.8,5.8,0,0,1,4.1,1.4,4.7,4.7,0,0,1,1.4,3.8v.6a4,4,0,0,1-.7,2.4,3.6,3.6,0,0,1-1.9,1.5,4.4,4.4,0,0,1,2.2,1.5,5.6,5.6,0,0,1,.8,3v.6a6.6,6.6,0,0,1-.7,3,5.2,5.2,0,0,1-2,1.9,7.6,7.6,0,0,1-3.2.6A8.3,8.3,0,0,1,317.3,394.9Z"/><polygon class="e" points="336.3 470 320 461.6 303.8 470.3 306.7 452.2 293.4 439.6 311.6 436.8 319.5 420.2 327.8 436.6 345.9 439 333 451.9 336.3 470"/><path class="a" d="M312.7,450.6l6.1-13.4H323l-5.9,13.2H326V454H312.7Zm8-5.2h3.7v11.7h-3.7Z"/><polygon class="e" points="336.3 531.8 320 523.4 303.8 532.1 306.7 514 293.4 501.4 311.6 498.5 319.5 482 327.8 498.3 345.9 500.8 333 513.7 336.3 531.8"/><path class="a" d="M317.9,519.6a4.8,4.8,0,0,1-2-2,8,8,0,0,1-.9-3.2h3.7a2.9,2.9,0,0,0,.7,1.7,2.2,2.2,0,0,0,3,0,3.6,3.6,0,0,0,.5-1.9v-1.6a2.4,2.4,0,0,0-.5-1.8,1.4,1.4,0,0,0-1.3-.7,2.9,2.9,0,0,0-1.4.4,2.5,2.5,0,0,0-.8,1.2h-3.5V500.3h10.7v3.6h-6.9v3.5a2.3,2.3,0,0,1,1.1-.7l1.5-.2a4.4,4.4,0,0,1,4.3,2.8,8.1,8.1,0,0,1,.6,3.3v1.6a8.1,8.1,0,0,1-.7,3.3,5.1,5.1,0,0,1-2,2.1,6.6,6.6,0,0,1-3.2.7A5.7,5.7,0,0,1,317.9,519.6Z"/><polygon class="e" points="336.3 593.5 320 585.2 303.8 593.9 306.7 575.8 293.4 563.2 311.6 560.3 319.5 543.8 327.8 560.1 345.9 562.6 333 575.5 336.3 593.5"/><path class="a" d="M317.2,580.4a4.1,4.1,0,0,1-1.9-2,6.7,6.7,0,0,1-.7-3.3h0a21.5,21.5,0,0,1,.2-2.3c.2-.7.5-1.6.8-2.4l.2-.4c0-.1.1-.2.2-.4l4-8.5h4.2l-4.8,9.9-.9-.5a2.9,2.9,0,0,1,2.5-1.4,5.8,5.8,0,0,1,2.8.7,4.6,4.6,0,0,1,1.8,2.1,7.3,7.3,0,0,1,.6,3.2h0a6.7,6.7,0,0,1-.7,3.3,3.9,3.9,0,0,1-2,2,5.9,5.9,0,0,1-3.1.7A6.6,6.6,0,0,1,317.2,580.4Zm4.7-3.4a2.4,2.4,0,0,0,.6-1.7h0a2.7,2.7,0,0,0-.6-1.9,2,2,0,0,0-1.5-.7,1.8,1.8,0,0,0-1.5.7,2.9,2.9,0,0,0-.6,1.9h0a2.4,2.4,0,0,0,.6,1.7,2.1,2.1,0,0,0,1.5.5A2.3,2.3,0,0,0,321.9,577Z"/><polygon class="e" points="336.3 655.3 320 647 303.8 655.7 306.7 637.6 293.4 624.9 311.6 622.1 319.5 605.6 327.8 621.9 345.9 624.3 333 637.3 336.3 655.3"/><path class="a" d="M325.8,626.9l-4.5,17.4h-4l4.3-16.3h-3.4v3h-3.8v-6.6h11.4Z"/><rect class="d" x="364.4" y="309.9" width="220.8" height="23.61"/><rect class="d" x="364.4" y="371.7" width="220.8" height="23.61"/><rect class="d" x="364.4" y="433.5" width="220.8" height="23.61"/><rect class="d" x="364.4" y="495.3" width="220.8" height="23.61"/><rect class="d" x="364.4" y="618.8" width="220.8" height="23.61"/><rect class="d" x="390" y="565.7" width="220.8" height="23.61" transform="translate(54.9 -43.3) rotate(5.2)"/><path class="f" d="M779,365.8c-25.3-8.8-53.7-7.5-78.6,1s-46.4,24.1-63.6,42.7c-42.2,45.3-58.9,110.2-43.6,169.4,9.2,35.6,30,69.5,61.6,91.9s74.4,32,111.7,21.2c27.9-8.1,50.9-26.7,68.1-48.5,33.5-42.5,46.3-98.6,34.5-150.9S826.6,382.4,779.3,366"/><path class="g" d="M781.7,355.8c-36.2-12.4-77-5.8-109.9,12.7-29.6,16.7-54.2,42.8-70.4,72.6a195.6,195.6,0,0,0-24.1,95.8c.5,33.1,9.7,66.2,27.1,94.4a165.2,165.2,0,0,0,32.3,38.4,156.3,156.3,0,0,0,45.9,27.4,146.8,146.8,0,0,0,50.3,9.6,135.1,135.1,0,0,0,26.2-2.3,121.3,121.3,0,0,0,25.6-8.2c31.1-13.3,56.1-39.4,72.9-68.3A192.9,192.9,0,0,0,883.7,529c-.5-32.6-9.9-64.9-23.8-94.2-13-27.3-31.9-53.5-58.1-69.4a102.2,102.2,0,0,0-19.8-9.3c-5.1-1.8-11.5,2-12.7,7.2a10.7,10.7,0,0,0,7.2,12.7l5.3,2-2.4-1.1a99.3,99.3,0,0,1,21.5,12.8l-2.1-1.6a128.7,128.7,0,0,1,23.4,23.8l-1.6-2.1c10.7,13.8,19.1,29.2,25.9,45.3l-1-2.5c7.7,18.5,13.7,38.1,16.4,57.9l-.4-2.7a180.6,180.6,0,0,1,0,47.6l.4-2.8a186.4,186.4,0,0,1-12.8,46.9l1-2.5a182.9,182.9,0,0,1-23.4,40.1l1.6-2.1A163,163,0,0,1,800,663.6l2.1-1.6a130.1,130.1,0,0,1-28.3,16.7l2.5-1a115.5,115.5,0,0,1-28.9,7.8l2.8-.4a122.3,122.3,0,0,1-33.1-.1l2.8.4a142.1,142.1,0,0,1-36.2-10l2.4,1.1a141.9,141.9,0,0,1-30.8-18l2.1,1.6a155.6,155.6,0,0,1-27.2-27.2l1.6,2a166.4,166.4,0,0,1-21.6-37.2l1,2.5a177.6,177.6,0,0,1-12.1-44.6l.4,2.7a182.1,182.1,0,0,1,0-47.8l-.4,2.7a193.2,193.2,0,0,1,13-47.6l-1,2.5a191.7,191.7,0,0,1,23.8-40.8l-1.6,2.1a177.9,177.9,0,0,1,32.1-32.2l-2.1,1.6a155,155,0,0,1,33.6-19.7l-2.5,1a130.9,130.9,0,0,1,33.6-9.2l-2.7.3a127,127,0,0,1,32.6-.1l-2.7-.4a107.1,107.1,0,0,1,21,5c5.1,1.7,11.5-2,12.7-7.2a10.6,10.6,0,0,0-7.2-12.7Z"/><path class="f" d="M779,365.8c-25.3-8.8-53.7-7.5-78.6,1s-46.4,24.1-63.6,42.7c-42.2,45.3-58.9,110.2-43.6,169.4,9.2,35.6,30,69.5,61.6,91.9s74.4,32,111.7,21.2c27.9-8.1,50.9-26.7,68.1-48.5,33.5-42.5,46.3-98.6,34.5-150.9S826.6,382.4,779.3,366"/><path class="g" d="M781.7,355.8c-36.2-12.4-77-5.8-109.9,12.7-29.6,16.7-54.2,42.8-70.4,72.6a195.6,195.6,0,0,0-24.1,95.8c.5,33.1,9.7,66.2,27.1,94.4a165.2,165.2,0,0,0,32.3,38.4,156.3,156.3,0,0,0,45.9,27.4,146.8,146.8,0,0,0,50.3,9.6,135.1,135.1,0,0,0,26.2-2.3,121.3,121.3,0,0,0,25.6-8.2c31.1-13.3,56.1-39.4,72.9-68.3A192.9,192.9,0,0,0,883.7,529c-.5-32.6-9.9-64.9-23.8-94.2-13-27.3-31.9-53.5-58.1-69.4a102.2,102.2,0,0,0-19.8-9.3c-5.1-1.8-11.5,2-12.7,7.2a10.7,10.7,0,0,0,7.2,12.7l5.3,2-2.4-1.1a99.3,99.3,0,0,1,21.5,12.8l-2.1-1.6a128.7,128.7,0,0,1,23.4,23.8l-1.6-2.1c10.7,13.8,19.1,29.2,25.9,45.3l-1-2.5c7.7,18.5,13.7,38.1,16.4,57.9l-.4-2.7a180.6,180.6,0,0,1,0,47.6l.4-2.8a186.4,186.4,0,0,1-12.8,46.9l1-2.5a182.9,182.9,0,0,1-23.4,40.1l1.6-2.1A163,163,0,0,1,800,663.6l2.1-1.6a130.1,130.1,0,0,1-28.3,16.7l2.5-1a115.5,115.5,0,0,1-28.9,7.8l2.8-.4a122.3,122.3,0,0,1-33.1-.1l2.8.4a142.1,142.1,0,0,1-36.2-10l2.4,1.1a141.9,141.9,0,0,1-30.8-18l2.1,1.6a155.6,155.6,0,0,1-27.2-27.2l1.6,2a166.4,166.4,0,0,1-21.6-37.2l1,2.5a177.6,177.6,0,0,1-12.1-44.6l.4,2.7a182.1,182.1,0,0,1,0-47.8l-.4,2.7a193.2,193.2,0,0,1,13-47.6l-1,2.5a191.7,191.7,0,0,1,23.8-40.8l-1.6,2.1a177.9,177.9,0,0,1,32.1-32.2l-2.1,1.6a155,155,0,0,1,33.6-19.7l-2.5,1a130.9,130.9,0,0,1,33.6-9.2l-2.7.3a127,127,0,0,1,32.6-.1l-2.7-.4a107.1,107.1,0,0,1,21,5c5.1,1.7,11.5-2,12.7-7.2a10.6,10.6,0,0,0-7.2-12.7Z"/><ellipse class="h" cx="785.1" cy="724.7" rx="51.3" ry="30.6"/><path class="f" d="M896.1,288.3c-8.5-8.7-24-14-39.8-15.1s-31.8,1.7-46,6.3c-34.9,11.4-52.6,53.4-60.2,77.9l-1.1,1.4.3.3c14.4-12.9,36.9-30,57.4-31.4,15.5-1,31,.8,46.5.7s32.3-3,41.9-10.9S904.6,297.1,896.1,288.3Z"/><path class="g" d="M903.4,281.1c-5.8-5.9-13-9.7-20.6-12.7a90.4,90.4,0,0,0-24.1-5.3,122.8,122.8,0,0,0-27.1,1,135.7,135.7,0,0,0-23.7,5.4,80.5,80.5,0,0,0-33,21.2,129.1,129.1,0,0,0-21.1,30.2,215.2,215.2,0,0,0-12.6,30.7,28.1,28.1,0,0,0-1,3.1l1-2.5-1.1,1.4-1,2.5a8.1,8.1,0,0,0-.2,4.1,10.2,10.2,0,0,0,2.8,5.9l.3.2a10,10,0,0,0,7.3,3,10.9,10.9,0,0,0,7.2-3c3.8-3.4,7.7-6.6,11.8-9.7l-2.1,1.6c8.6-6.7,17.7-12.7,27.7-17l-2.4,1.1a60.9,60.9,0,0,1,15.1-4.4l-2.8.4a113.2,113.2,0,0,1,14.3-.6c5.1,0,10.2.2,15.3.5,9.7.4,19.5.8,29.2,0s18.8-2.4,27.6-6.1a45.6,45.6,0,0,0,12.3-7.5,30.5,30.5,0,0,0,8.7-12.8c2-5,1.9-10.9.6-16.1a32.1,32.1,0,0,0-8.4-14.6c-3.7-3.9-10.9-4.1-14.6,0a10.5,10.5,0,0,0,0,14.5,22,22,0,0,1,2,2.3l-1.6-2.1a24.3,24.3,0,0,1,2.9,4.9l-1.1-2.4a19,19,0,0,1,1.4,4.8l-.4-2.7a20.1,20.1,0,0,1,0,4.9l.4-2.8a17.8,17.8,0,0,1-1.3,4.5l1.1-2.5a22.2,22.2,0,0,1-2.5,4.2l1.6-2a27.8,27.8,0,0,1-4.3,4.1l2.1-1.6a37.7,37.7,0,0,1-8,4.6l2.4-1a71.5,71.5,0,0,1-18.2,4.6l2.7-.4c-18.5,2.5-37.2-.3-55.8.2a72.4,72.4,0,0,0-25.3,4.8,126.1,126.1,0,0,0-23.1,12.6A211.1,211.1,0,0,0,742,351.8h14.5l-.2-.3,1.6,12.5c2.4-3.2,3.3-7.7,4.6-11.5s2.9-7.8,4.5-11.6l-1,2.5A141.6,141.6,0,0,1,784.3,311l-1.6,2.1A86,86,0,0,1,798.5,297l-2.1,1.6a63.1,63.1,0,0,1,14.4-8.4l-2.5,1a114.2,114.2,0,0,1,28.7-7.3l-2.7.4a106.3,106.3,0,0,1,27.6-.2l-2.7-.4a79.2,79.2,0,0,1,19.8,5.2l-2.5-1a47.7,47.7,0,0,1,10.8,6.1l-2.1-1.6a37.3,37.3,0,0,1,3.6,3.2c3.8,3.9,10.9,4.1,14.6,0A10.4,10.4,0,0,0,903.4,281.1Z"/><path class="b" d="M889.4,279.5a22.3,22.3,0,0,1-4.8,12.8c-7.7,10-22.9,15.6-37.3,18.3s-29.3,3.2-43.5,6.8c-6.5,1.6-13,5.3-19.1,10a25,25,0,0,1,4.8,6.3c5.9-3.5,12-6,18-6.8,14.5-2,29.3-.9,44-2s30.2-5,38.7-14.1S897.9,288.5,889.4,279.5Z"/><ellipse class="h" cx="679.4" cy="724.7" rx="51.3" ry="30.6"/><path class="b" d="M873.1,492.6c-11.9-52.3-42.5-110.2-89.8-126.6l-.3-.2a112.7,112.7,0,0,0-43.9-5.8c3.1.4,6.1.9,9.1,1.5,25.8,5.1,51,18.3,68.4,38.6v.3c32.6,38,30,103.4,13.8,154.5S775.1,648,724.8,667.8c-16.7,6.6-34.9,10.8-53.3,11,29.8,16.5,66.5,22.6,99,13.2,27.9-8.1,50.9-26.7,68.1-48.5C872.1,601,884.9,544.9,873.1,492.6Z"/><path class="i" d="M710,508l10.9-48.4c1.7-7.7-3.6-15.2-11.8-16.5L614,428c-3.5,5.2-6.7,10.5-9.7,16a189.7,189.7,0,0,0-20.5,58.6l108.1,17.1C700.1,521,708.3,515.8,710,508Z"/><circle class="e" cx="679.5" cy="484.6" r="7.6"/><circle class="e" cx="634.5" cy="476.1" r="7.6"/><circle class="e" cx="650.7" cy="463.6" r="7.6"/><circle class="e" cx="669" cy="467.1" r="7.6"/><path class="g" d="M781.7,355.8c-36.2-12.4-77-5.8-109.9,12.7-29.6,16.7-54.2,42.8-70.4,72.6a195.6,195.6,0,0,0-24.1,95.8c.5,33.1,9.7,66.2,27.1,94.4a165.2,165.2,0,0,0,32.3,38.4,156.3,156.3,0,0,0,45.9,27.4,146.8,146.8,0,0,0,50.3,9.6,135.1,135.1,0,0,0,26.2-2.3,121.3,121.3,0,0,0,25.6-8.2c31.1-13.3,56.1-39.4,72.9-68.3A192.9,192.9,0,0,0,883.7,529c-.5-32.6-9.9-64.9-23.8-94.2-13-27.3-31.9-53.5-58.1-69.4a102.2,102.2,0,0,0-19.8-9.3c-5.1-1.8-11.5,2-12.7,7.2a10.7,10.7,0,0,0,7.2,12.7l5.3,2-2.4-1.1a99.3,99.3,0,0,1,21.5,12.8l-2.1-1.6a128.7,128.7,0,0,1,23.4,23.8l-1.6-2.1c10.7,13.8,19.1,29.2,25.9,45.3l-1-2.5c7.7,18.5,13.7,38.1,16.4,57.9l-.4-2.7a180.6,180.6,0,0,1,0,47.6l.4-2.8a186.4,186.4,0,0,1-12.8,46.9l1-2.5a182.9,182.9,0,0,1-23.4,40.1l1.6-2.1A163,163,0,0,1,800,663.6l2.1-1.6a130.1,130.1,0,0,1-28.3,16.7l2.5-1a115.5,115.5,0,0,1-28.9,7.8l2.8-.4a122.3,122.3,0,0,1-33.1-.1l2.8.4a142.1,142.1,0,0,1-36.2-10l2.4,1.1a141.9,141.9,0,0,1-30.8-18l2.1,1.6a155.6,155.6,0,0,1-27.2-27.2l1.6,2a166.4,166.4,0,0,1-21.6-37.2l1,2.5a177.6,177.6,0,0,1-12.1-44.6l.4,2.7a182.1,182.1,0,0,1,0-47.8l-.4,2.7a193.2,193.2,0,0,1,13-47.6l-1,2.5a191.7,191.7,0,0,1,23.8-40.8l-1.6,2.1a177.9,177.9,0,0,1,32.1-32.2l-2.1,1.6a155,155,0,0,1,33.6-19.7l-2.5,1a130.9,130.9,0,0,1,33.6-9.2l-2.7.3a127,127,0,0,1,32.6-.1l-2.7-.4a107.1,107.1,0,0,1,21,5c5.1,1.7,11.5-2,12.7-7.2a10.6,10.6,0,0,0-7.2-12.7Z"/><path class="b" d="M825.6,721.6c-3.1-10.1-14-22.9-33.3-29.7h-.1a115.5,115.5,0,0,0-18.2-4.7l3.8,1.1c10.6,3,20.7,7.4,27.3,12.5h.1c12.3,9.4,8.9,20.7.4,28.3s-26.6,11.6-48.4,10.9a156.2,156.2,0,0,1-22.8-2.6,127.7,127.7,0,0,0,41.1,10.6,84.2,84.2,0,0,0,30.3-2.7C821.4,740.5,828.8,731.8,825.6,721.6Z"/><ellipse class="j" cx="782.9" cy="723.6" rx="51.3" ry="30.6"/><path class="b" d="M719.9,721.6c-3.2-10.1-14-22.9-33.3-29.7h-.1a119.6,119.6,0,0,0-18.3-4.7l3.8,1.1c10.7,3,20.8,7.4,27.4,12.5h0c12.4,9.4,9,20.7.4,28.3s-26.5,11.6-48.4,10.9a153.4,153.4,0,0,1-22.7-2.6,126.4,126.4,0,0,0,41.1,10.6,84.7,84.7,0,0,0,30.3-2.7C715.6,740.5,723,731.8,719.9,721.6Z"/><ellipse class="j" cx="677.1" cy="723.6" rx="51.3" ry="30.6"/><path class="g" d="M903.4,281.1c-5.8-5.9-13-9.7-20.6-12.7a90.4,90.4,0,0,0-24.1-5.3,122.8,122.8,0,0,0-27.1,1,135.7,135.7,0,0,0-23.7,5.4,80.5,80.5,0,0,0-33,21.2,129.1,129.1,0,0,0-21.1,30.2,215.2,215.2,0,0,0-12.6,30.7,28.1,28.1,0,0,0-1,3.1l1-2.5-1.1,1.4-1,2.5a8.1,8.1,0,0,0-.2,4.1,10.2,10.2,0,0,0,2.8,5.9l.3.2a10,10,0,0,0,7.3,3,10.9,10.9,0,0,0,7.2-3c3.8-3.4,7.7-6.6,11.8-9.7l-2.1,1.6c8.6-6.7,17.7-12.7,27.7-17l-2.4,1.1a60.9,60.9,0,0,1,15.1-4.4l-2.8.4a113.2,113.2,0,0,1,14.3-.6c5.1,0,10.2.2,15.3.5,9.7.4,19.5.8,29.2,0s18.8-2.4,27.6-6.1a45.6,45.6,0,0,0,12.3-7.5,30.5,30.5,0,0,0,8.7-12.8c2-5,1.9-10.9.6-16.1a32.1,32.1,0,0,0-8.4-14.6c-3.7-3.9-10.9-4.1-14.6,0a10.5,10.5,0,0,0,0,14.5,22,22,0,0,1,2,2.3l-1.6-2.1a24.3,24.3,0,0,1,2.9,4.9l-1.1-2.4a19,19,0,0,1,1.4,4.8l-.4-2.7a20.1,20.1,0,0,1,0,4.9l.4-2.8a17.8,17.8,0,0,1-1.3,4.5l1.1-2.5a22.2,22.2,0,0,1-2.5,4.2l1.6-2a27.8,27.8,0,0,1-4.3,4.1l2.1-1.6a37.7,37.7,0,0,1-8,4.6l2.4-1a71.5,71.5,0,0,1-18.2,4.6l2.7-.4c-18.5,2.5-37.2-.3-55.8.2a72.4,72.4,0,0,0-25.3,4.8,126.1,126.1,0,0,0-23.1,12.6A211.1,211.1,0,0,0,742,351.8h14.5l-.2-.3,1.6,12.5c2.4-3.2,3.3-7.7,4.6-11.5s2.9-7.8,4.5-11.6l-1,2.5A141.6,141.6,0,0,1,784.3,311l-1.6,2.1A86,86,0,0,1,798.5,297l-2.1,1.6a63.1,63.1,0,0,1,14.4-8.4l-2.5,1a114.2,114.2,0,0,1,28.7-7.3l-2.7.4a106.3,106.3,0,0,1,27.6-.2l-2.7-.4a79.2,79.2,0,0,1,19.8,5.2l-2.5-1a47.7,47.7,0,0,1,10.8,6.1l-2.1-1.6a37.3,37.3,0,0,1,3.6,3.2c3.8,3.9,10.9,4.1,14.6,0A10.4,10.4,0,0,0,903.4,281.1Z"/><ellipse class="k" cx="586.1" cy="599.1" rx="34.5" ry="58.5" transform="matrix(0.41, -0.91, 0.91, 0.41, -199.33, 891.54)"/><path class="b" d="M634.8,615.2c-.4-10-6.8-23.5-21.6-32.8h-.1a73.3,73.3,0,0,0-14.3-7.1l3,1.5c8.3,4.4,15.8,10.1,20.3,15.8h0c8.4,10.7,3.1,20.7-5.7,26.5s-24.8,7-43,3a107.3,107.3,0,0,1-18.6-5.8,97.9,97.9,0,0,0,32.3,16.1,67.4,67.4,0,0,0,26.1,1.9C627.2,632.3,635.3,625.2,634.8,615.2Z"/><ellipse class="l" cx="586.1" cy="599.1" rx="34.5" ry="58.5" transform="matrix(0.41, -0.91, 0.91, 0.41, -199.33, 891.54)"/></svg>