<svg xmlns="http://www.w3.org/2000/svg" viewBox="0 0 1133.9 1417.3"><defs><style>.a{fill:#1d1d1b;}.b,.c{fill:#4e4d4d;}.c{opacity:0.13;}.d{fill:#ffcc03;}</style></defs><path class="a" d="M422.2,885.4h7.9v41.9h-7.9Zm4,34.3h10a9.5,9.5,0,0,0,6.1-1.9,6.8,6.8,0,0,0,2.1-5.3V900.2a6.6,6.6,0,0,0-2.1-5.3,8.9,8.9,0,0,0-6.1-1.9h-10v-7.6h9.9a21.7,21.7,0,0,1,8.9,1.7,11.8,11.8,0,0,1,5.6,5.2,15.7,15.7,0,0,1,2,8.1v11.9a16.8,16.8,0,0,1-1.9,7.9,12.3,12.3,0,0,1-5.6,5.2,20.4,20.4,0,0,1-9.1,1.9h-9.8Z"/><path class="a" d="M465.4,926.2a10.1,10.1,0,0,1-4.4-4.5,15.1,15.1,0,0,1-1.5-7v-4.9a14.7,14.7,0,0,1,1.5-6.9,9.9,9.9,0,0,1,4.4-4.4,13.9,13.9,0,0,1,7-1.6,14.2,14.2,0,0,1,7,1.6,9.9,9.9,0,0,1,4.4,4.4,14.7,14.7,0,0,1,1.5,6.9v5a15.4,15.4,0,0,1-1.5,7,10.4,10.4,0,0,1-4.4,4.4,15.4,15.4,0,0,1-7,1.5A15.1,15.1,0,0,1,465.4,926.2Zm10.7-7.5a5.3,5.3,0,0,0,1.3-3.9v-5a5.3,5.3,0,0,0-1.3-3.9,5.6,5.6,0,0,0-7.4,0,5.3,5.3,0,0,0-1.3,3.9v5a5.3,5.3,0,0,0,1.3,3.9,4.8,4.8,0,0,0,3.7,1.4A5,5,0,0,0,476.1,918.7Z"/><path class="a" d="M492.5,897.4h7.9v29.9h-7.9Zm17.3,11.8a4.2,4.2,0,0,0-1.3-3.4,4.5,4.5,0,0,0-3.5-1.3,4.3,4.3,0,0,0-4.6,4.7l-.6-6.6a12.4,12.4,0,0,1,3.2-4.3,8.3,8.3,0,0,1,4.8-1.4,9,9,0,0,1,7.3,3.2c1.7,2.1,2.6,5.1,2.6,9v18.2h-7.9Z"/><path class="a" d="M521.6,885.4h7.9v10.3l-7.9,7.5Z"/><path class="a" d="M531,897.4h14.7v6.7H531Zm5,28c-1.3-1.3-1.9-3.3-1.9-5.9V888.7H542v28.8a2.6,2.6,0,0,0,.5,1.7,1.3,1.3,0,0,0,1.2.6h2v7.6h-4C539.1,927.4,537.2,926.8,536,925.4Z"/><path class="a" d="M574.7,927.2a24.3,24.3,0,0,1-4.8-1.4,14.7,14.7,0,0,1-3.9-2.2l4.9-6.1a15.7,15.7,0,0,0,4.5,2.2,15,15,0,0,0,4.5.7,12.7,12.7,0,0,0,4.3-.6c1-.4,1.5-1,1.5-1.7a1.6,1.6,0,0,0-.7-1.5,3.8,3.8,0,0,0-1.7-.8l-2.9-.4h-2.6a29.1,29.1,0,0,1-5.4-1,7.4,7.4,0,0,1-3.4-2.5,9.9,9.9,0,0,1,.1-10.3,9.1,9.1,0,0,1,4.1-3.3,19.2,19.2,0,0,1,6.7-1.1,23,23,0,0,1,4.5.5,19.6,19.6,0,0,1,4.3,1.3,24.2,24.2,0,0,1,3.9,2.1l-4.7,5.7a20.9,20.9,0,0,0-4.1-1.7,15.1,15.1,0,0,0-4.1-.6,9.2,9.2,0,0,0-3.7.6c-.9.3-1.3.8-1.3,1.5a1.3,1.3,0,0,0,.7,1.2l1.7.6,3.1.4h1.3c.1,0,.2,0,.2.1a29.8,29.8,0,0,1,5.7,1,7.9,7.9,0,0,1,3.8,2.5,9.1,9.1,0,0,1,1.5,5.6,9.5,9.5,0,0,1-1.5,5.4,9.4,9.4,0,0,1-4.4,3.3,17.8,17.8,0,0,1-6.9,1.2A28.7,28.7,0,0,1,574.7,927.2Z"/><path class="a" d="M596.7,897.4h14.7v6.7H596.7Zm4.9,28c-1.2-1.3-1.8-3.3-1.8-5.9V888.7h7.9v28.8a2.7,2.7,0,0,0,.4,1.7,1.5,1.5,0,0,0,1.3.6h2v7.6h-4C604.8,927.4,602.9,926.8,601.6,925.4Z"/><path class="a" d="M618.3,897.4h8.4v29.9h-8.4Zm15.4,7.4a5.8,5.8,0,0,0-1.9-.3,4.6,4.6,0,0,0-3.7,1.6,6.2,6.2,0,0,0-1.4,4.3l-.6-7.8a10.9,10.9,0,0,1,3.3-4.2,6.8,6.8,0,0,1,4.3-1.5,9.3,9.3,0,0,1,3.4.6,6.8,6.8,0,0,1,2.6,1.8l-4.6,6.4A4.2,4.2,0,0,0,633.7,904.8Z"/><path class="a" d="M648.3,926.1a10.7,10.7,0,0,1-4.7-4.5,16.7,16.7,0,0,1-1.6-7.3v-3.4a16,16,0,0,1,1.6-7.5,10.8,10.8,0,0,1,4.4-4.8,14.7,14.7,0,0,1,7.2-1.7,11.5,11.5,0,0,1,6.7,2,11.3,11.3,0,0,1,4.2,5.7,24.2,24.2,0,0,1,1.5,9v1.9H647.1v-5.3h13.3v-.7a6.9,6.9,0,0,0-1.6-4,4.8,4.8,0,0,0-3.5-1.4,5.7,5.7,0,0,0-4.4,1.7,6.5,6.5,0,0,0-1.6,4.8v3.8a6.3,6.3,0,0,0,1.7,4.7,6.1,6.1,0,0,0,4.8,1.7,10.6,10.6,0,0,0,3.1-.5,10.2,10.2,0,0,0,2.9-1.6l5.1,4.5a14.4,14.4,0,0,1-5.2,3.3,16.6,16.6,0,0,1-13.3-.4Z"/><path class="a" d="M680.7,927.2a23.3,23.3,0,0,1-4.7-1.4,14.7,14.7,0,0,1-3.9-2.2l4.8-6.1a17.6,17.6,0,0,0,4.6,2.2,13.9,13.9,0,0,0,4.4.7,11.9,11.9,0,0,0,4.3-.6c1.1-.4,1.6-1,1.6-1.7a1.8,1.8,0,0,0-.7-1.5,3.8,3.8,0,0,0-1.7-.8l-2.9-.4h-2.6a27.6,27.6,0,0,1-5.4-1,6.9,6.9,0,0,1-3.4-2.5,8.5,8.5,0,0,1-1.4-5.2,9.3,9.3,0,0,1,1.4-5.1,10,10,0,0,1,4.2-3.3,18.6,18.6,0,0,1,6.6-1.1,23.1,23.1,0,0,1,4.6.5,21.3,21.3,0,0,1,4.3,1.3,24.2,24.2,0,0,1,3.9,2.1l-4.7,5.7a23.7,23.7,0,0,0-4.1-1.7,15.6,15.6,0,0,0-4.1-.6,8.9,8.9,0,0,0-3.7.6c-.9.3-1.4.8-1.4,1.5a1.5,1.5,0,0,0,.7,1.2l1.8.6,3.1.4h1.5a33,33,0,0,1,5.7,1,7.2,7.2,0,0,1,3.7,2.5,8.5,8.5,0,0,1,1.6,5.6,9.5,9.5,0,0,1-1.5,5.4,9.4,9.4,0,0,1-4.4,3.3,17.9,17.9,0,0,1-7,1.2A30.5,30.5,0,0,1,680.7,927.2Z"/><path class="a" d="M711.3,927.2a23.3,23.3,0,0,1-4.7-1.4,14.7,14.7,0,0,1-3.9-2.2l4.8-6.1a18.7,18.7,0,0,0,4.5,2.2,15,15,0,0,0,4.5.7,11.9,11.9,0,0,0,4.3-.6c1.1-.4,1.6-1,1.6-1.7a1.8,1.8,0,0,0-.7-1.5,3.8,3.8,0,0,0-1.7-.8l-2.9-.4h-2.6a27.6,27.6,0,0,1-5.4-1,6.9,6.9,0,0,1-3.4-2.5,8.5,8.5,0,0,1-1.4-5.2,9.3,9.3,0,0,1,1.4-5.1,10,10,0,0,1,4.2-3.3,18.2,18.2,0,0,1,6.6-1.1,23.1,23.1,0,0,1,4.6.5,21.3,21.3,0,0,1,4.3,1.3,19.7,19.7,0,0,1,3.8,2.1l-4.7,5.7a20,20,0,0,0-4-1.7,15.6,15.6,0,0,0-4.1-.6,8.9,8.9,0,0,0-3.7.6c-.9.3-1.4.8-1.4,1.5a1.5,1.5,0,0,0,.7,1.2l1.8.6,3.1.4h1.5a33,33,0,0,1,5.7,1,7.7,7.7,0,0,1,3.7,2.5,9.1,9.1,0,0,1,1.6,5.6,9.5,9.5,0,0,1-1.5,5.4,9.4,9.4,0,0,1-4.4,3.3,18.3,18.3,0,0,1-7,1.2A30.5,30.5,0,0,1,711.3,927.2Z"/><path class="a" d="M366.7,1051.8v17.1h-5.8v-17.1L348.1,1027h6.5l9.2,18.9L373,1027h6.5Z"/><path class="a" d="M385.5,1067.8a9.9,9.9,0,0,1-4.3-4.5,16.5,16.5,0,0,1-1.4-7v-4.9a16,16,0,0,1,1.4-6.9,10.4,10.4,0,0,1,4.3-4.5,13.4,13.4,0,0,1,6.6-1.5,14.1,14.1,0,0,1,6.7,1.5,10.8,10.8,0,0,1,4.2,4.5,14.7,14.7,0,0,1,1.4,6.9v5a15.4,15.4,0,0,1-1.4,7,10.5,10.5,0,0,1-4.2,4.4,14.1,14.1,0,0,1-6.7,1.5A13.4,13.4,0,0,1,385.5,1067.8Zm11.4-6a8.1,8.1,0,0,0,1.7-5.4v-5a8.1,8.1,0,0,0-1.7-5.4,6.2,6.2,0,0,0-4.8-1.9,6.6,6.6,0,0,0-4.8,1.9,8.1,8.1,0,0,0-1.6,5.4v5a8.1,8.1,0,0,0,1.6,5.4,6.2,6.2,0,0,0,4.8,1.9A5.9,5.9,0,0,0,396.9,1061.8Z"/><path class="a" d="M418,1057.1a6.7,6.7,0,0,0,1.6,4.9,5.8,5.8,0,0,0,4.5,1.7,6,6,0,0,0,4.4-1.5,5.7,5.7,0,0,0,1.6-4.4l.4,6.3a8.3,8.3,0,0,1-3,3.7,8.5,8.5,0,0,1-5.1,1.5,9.5,9.5,0,0,1-7.6-3.2q-2.7-3.1-2.7-9V1039H418Zm12.1-18.1H436v29.9h-5.9Z"/><path class="a" d="M444.9,1039h5.9v29.9h-5.9Zm14.5,5.6a7.8,7.8,0,0,0-2.8-.5,5.6,5.6,0,0,0-4.3,1.6,5.7,5.7,0,0,0-1.5,4.2l-.6-5.7a11.3,11.3,0,0,1,3.5-4.2,8.6,8.6,0,0,1,4.9-1.5,11,11,0,0,1,3.7.6,8.8,8.8,0,0,1,2.9,1.8l-3.9,5.2A4,4,0,0,0,459.4,1044.6Z"/><path class="a" d="M485.9,1039h5.9v42h-5.9Zm8.5,29a8.1,8.1,0,0,1-3-3.8l.4-6.3a6.7,6.7,0,0,0,.7,3.3,4.5,4.5,0,0,0,2,2.1,6.3,6.3,0,0,0,3.2.7,5.8,5.8,0,0,0,4.5-1.8,7.3,7.3,0,0,0,1.6-5v-6.4a7.8,7.8,0,0,0-1.6-5.1,5.5,5.5,0,0,0-4.5-1.9,7.6,7.6,0,0,0-3.2.7,4.5,4.5,0,0,0-2,2.1,6.3,6.3,0,0,0-.7,3.2l-.6-5.8a10.6,10.6,0,0,1,3.5-4,8.6,8.6,0,0,1,4.9-1.5,9.5,9.5,0,0,1,5.4,1.5,8.9,8.9,0,0,1,3.5,4.1,16.9,16.9,0,0,1,1.2,6.6v6.5a15.7,15.7,0,0,1-1.3,6.5,8.6,8.6,0,0,1-3.5,4.2,11.1,11.1,0,0,1-5.6,1.4A8.8,8.8,0,0,1,494.4,1068Z"/><path class="a" d="M518,1039h5.9v29.9H518Zm14.5,5.6a7.6,7.6,0,0,0-2.7-.5,5.8,5.8,0,0,0-4.4,1.6,5.7,5.7,0,0,0-1.5,4.2l-.6-5.7a10.6,10.6,0,0,1,3.6-4.2,8.1,8.1,0,0,1,4.8-1.5,10.6,10.6,0,0,1,3.7.6,7.9,7.9,0,0,1,2.9,1.8l-3.8,5.2A4.8,4.8,0,0,0,532.5,1044.6Z"/><path class="a" d="M547.4,1067.8a10.2,10.2,0,0,1-4.2-4.5,15.1,15.1,0,0,1-1.5-7v-4.9a14.7,14.7,0,0,1,1.5-6.9,10.8,10.8,0,0,1,4.2-4.5,14.1,14.1,0,0,1,6.7-1.5,13.4,13.4,0,0,1,6.6,1.5,10.4,10.4,0,0,1,4.3,4.5,16,16,0,0,1,1.4,6.9v5a16.8,16.8,0,0,1-1.4,7,10.2,10.2,0,0,1-4.3,4.4,13.4,13.4,0,0,1-6.6,1.5A14.1,14.1,0,0,1,547.4,1067.8Zm11.4-6a7.6,7.6,0,0,0,1.7-5.4v-5a7.6,7.6,0,0,0-1.7-5.4,6.2,6.2,0,0,0-4.7-1.9,6.2,6.2,0,0,0-4.8,1.9,8.1,8.1,0,0,0-1.7,5.4v5a8.1,8.1,0,0,0,1.7,5.4,5.9,5.9,0,0,0,4.8,1.9A5.8,5.8,0,0,0,558.8,1061.8Z"/><path class="a" d="M570.7,1075.4H574a1.9,1.9,0,0,0,1.3-.5,2.9,2.9,0,0,0,.4-1.7V1039h5.9v34.1a8.9,8.9,0,0,1-1.8,5.9,7,7,0,0,1-5.2,2h-3.9Zm5-48.4h5.9v5.9h-5.9Z"/><path class="a" d="M595.7,1067.8a10.9,10.9,0,0,1-4.4-4.6,14.9,14.9,0,0,1-1.6-7.3v-3.4a17.3,17.3,0,0,1,1.5-7.5,10.6,10.6,0,0,1,4.3-4.8,13.4,13.4,0,0,1,6.8-1.7,11.2,11.2,0,0,1,6.4,1.9,11.7,11.7,0,0,1,4,5.4,22,22,0,0,1,1.4,8.5v2H594v-4.7h14.6a9.9,9.9,0,0,0-1.9-5.7,5.4,5.4,0,0,0-4.4-2.1,6.6,6.6,0,0,0-5.2,2.2,9.7,9.7,0,0,0-1.8,6.2v3.8a7.7,7.7,0,0,0,2,5.7,7,7,0,0,0,5.5,2,9.2,9.2,0,0,0,3.6-.7,12.7,12.7,0,0,0,3.1-2l3.9,3.8a14.5,14.5,0,0,1-5,3.3,14.1,14.1,0,0,1-5.6,1.2A15.8,15.8,0,0,1,595.7,1067.8Z"/><path class="a" d="M627.3,1067.8a10.1,10.1,0,0,1-4.4-4.5,14.8,14.8,0,0,1-1.6-7v-4.9a15.4,15.4,0,0,1,1.6-7,11,11,0,0,1,4.4-4.4,15.1,15.1,0,0,1,7-1.5,16.1,16.1,0,0,1,4.4.6,15.3,15.3,0,0,1,3.7,1.6,9.6,9.6,0,0,1,2.7,2.6l-4.2,3.8a10.5,10.5,0,0,0-3-2.2,8.5,8.5,0,0,0-3.5-.8,6.6,6.6,0,0,0-7.2,7.3v4.9a7.4,7.4,0,0,0,1.9,5.5,6.9,6.9,0,0,0,5.3,1.9,8.5,8.5,0,0,0,3.5-.8,9.9,9.9,0,0,0,3-2.4l4.2,4.1a10,10,0,0,1-2.8,2.6,13.8,13.8,0,0,1-3.7,1.6,19.5,19.5,0,0,1-4.3.5A15.1,15.1,0,0,1,627.3,1067.8Z"/><path class="a" d="M649.3,1039h13.5v5.3H649.3Zm4.8,28c-1.2-1.3-1.7-3.3-1.7-5.9v-30.8h5.8v30.9a2.5,2.5,0,0,0,.5,1.6,1.4,1.4,0,0,0,1.2.6h2.9v5.6h-3.4C657,1069,655.2,1068.3,654.1,1067Z"/><path class="a" d="M676.4,1068.8a20.1,20.1,0,0,1-4.3-1.6,15.5,15.5,0,0,1-3.7-2.6l3.5-4.3a17.1,17.1,0,0,0,4.8,2.8,13.5,13.5,0,0,0,4.7.9,10.2,10.2,0,0,0,5.2-1,3.7,3.7,0,0,0,1.8-3.3,2.3,2.3,0,0,0-1-2.1,5.4,5.4,0,0,0-2.3-1l-4-.5h-1.4a28.2,28.2,0,0,1-5-.9,6.9,6.9,0,0,1-3.3-2.3,7.7,7.7,0,0,1-1.4-4.9,10.6,10.6,0,0,1,1.3-5.3,8.1,8.1,0,0,1,3.9-3.1,16.7,16.7,0,0,1,6.4-1.1,22.2,22.2,0,0,1,4.5.5,18.7,18.7,0,0,1,4,1.3,15.3,15.3,0,0,1,3.7,2.1l-3.5,4.3a20.1,20.1,0,0,0-4.4-2.2,13.3,13.3,0,0,0-4.3-.7,8.8,8.8,0,0,0-4.5,1,3.5,3.5,0,0,0-1.5,3.1,2,2,0,0,0,.9,1.8,4,4,0,0,0,2.1.8,26,26,0,0,0,3.7.4h1.1a23.8,23.8,0,0,1,5.3.8,6.7,6.7,0,0,1,3.7,2.5,8.3,8.3,0,0,1,1.5,5.4,10.1,10.1,0,0,1-1.3,5.4,8.9,8.9,0,0,1-4.2,3.1,20.2,20.2,0,0,1-7,1.1A26.5,26.5,0,0,1,676.4,1068.8Z"/><path class="a" d="M718.6,1067c-1.9-1.5-2.8-3.8-2.8-6.9a8.7,8.7,0,0,1,2.5-6.7c1.7-1.5,4.2-2.2,7.6-2.2h8.5l.4,4.7h-8.9a5.5,5.5,0,0,0-3.4,1,4,4,0,0,0-1.1,3.2,3.7,3.7,0,0,0,1.5,3.3c1,.8,2.5,1.1,4.6,1.1a12.9,12.9,0,0,0,5-.7,2.4,2.4,0,0,0,1.7-2.2l.6,4.2a9.5,9.5,0,0,1-2,2,6.8,6.8,0,0,1-2.6,1.1,11.8,11.8,0,0,1-3.4.4C723.2,1069.3,720.4,1068.5,718.6,1067Zm15.6-17.1a6.3,6.3,0,0,0-1.6-4.5,6,6,0,0,0-4.5-1.7,10.7,10.7,0,0,0-3.5.6,8.5,8.5,0,0,0-3,1.5l-4.3-2.9a10,10,0,0,1,4.5-3.2,15.2,15.2,0,0,1,6.2-1.2,15,15,0,0,1,6.3,1.3,9.6,9.6,0,0,1,4.1,3.9,12.1,12.1,0,0,1,1.3,6v19.2h-5.5Z"/><path class="a" d="M748.7,1039h5.9v29.9h-5.9Zm14.5,5.6a7.8,7.8,0,0,0-2.8-.5,5.6,5.6,0,0,0-4.3,1.6,5.7,5.7,0,0,0-1.5,4.2l-.7-5.7a12.5,12.5,0,0,1,3.6-4.2,8.6,8.6,0,0,1,4.9-1.5,11,11,0,0,1,3.7.6,8.8,8.8,0,0,1,2.9,1.8l-3.9,5.2A4,4,0,0,0,763.2,1044.6Z"/><path class="a" d="M778.4,1067.8a10.9,10.9,0,0,1-4.4-4.6,14.9,14.9,0,0,1-1.6-7.3v-3.4a17.3,17.3,0,0,1,1.5-7.5,10.6,10.6,0,0,1,4.3-4.8,13.4,13.4,0,0,1,6.8-1.7,11.2,11.2,0,0,1,6.4,1.9,11.7,11.7,0,0,1,4,5.4,22,22,0,0,1,1.4,8.5v2H776.7v-4.7h14.6a9.9,9.9,0,0,0-1.9-5.7,5.4,5.4,0,0,0-4.4-2.1,6.8,6.8,0,0,0-5.2,2.2,9.7,9.7,0,0,0-1.8,6.2v3.8a7.7,7.7,0,0,0,2,5.7,7,7,0,0,0,5.5,2,9.2,9.2,0,0,0,3.6-.7,12.7,12.7,0,0,0,3.1-2l3.9,3.8a14.5,14.5,0,0,1-5,3.3,14.1,14.1,0,0,1-5.6,1.2A15.8,15.8,0,0,1,778.4,1067.8Z"/><path class="a" d="M385.8,1139.6a20.1,20.1,0,0,1-4.3-1.6,15.5,15.5,0,0,1-3.7-2.6l3.5-4.3a17.1,17.1,0,0,0,4.8,2.8,13.1,13.1,0,0,0,4.7.9,10.2,10.2,0,0,0,5.2-1,3.7,3.7,0,0,0,1.8-3.3,2.3,2.3,0,0,0-1-2.1,5.4,5.4,0,0,0-2.3-1l-4-.5H389a28.7,28.7,0,0,1-4.9-.9,6.9,6.9,0,0,1-3.3-2.3,7.7,7.7,0,0,1-1.4-4.9,10.6,10.6,0,0,1,1.3-5.3,8.1,8.1,0,0,1,3.9-3.1,16.7,16.7,0,0,1,6.4-1.1,22.2,22.2,0,0,1,4.5.5,18.7,18.7,0,0,1,4,1.3,15.3,15.3,0,0,1,3.7,2.1l-3.5,4.3a20.1,20.1,0,0,0-4.4-2.2,16.8,16.8,0,0,0-4.3-.7,8.8,8.8,0,0,0-4.5,1,3.5,3.5,0,0,0-1.5,3.1,2,2,0,0,0,.9,1.8,4,4,0,0,0,2.1.8,26,26,0,0,0,3.7.4h1.1a23.8,23.8,0,0,1,5.3.8,6.7,6.7,0,0,1,3.7,2.5,8.5,8.5,0,0,1,1.5,5.4,10.1,10.1,0,0,1-1.3,5.4,8.9,8.9,0,0,1-4.2,3.1,18.1,18.1,0,0,1-7,1.1A26.5,26.5,0,0,1,385.8,1139.6Z"/><path class="a" d="M412.1,1137.8q-2.7-2.2-2.7-6.9c0-3,.8-5.2,2.5-6.7s4.2-2.2,7.6-2.2H428l.4,4.7h-8.9a5.3,5.3,0,0,0-3.4,1,4.1,4.1,0,0,0-1.2,3.2,3.7,3.7,0,0,0,1.5,3.3,7.5,7.5,0,0,0,4.6,1.1,13.5,13.5,0,0,0,5.1-.7,2.3,2.3,0,0,0,1.6-2.2l.6,4.2a7.2,7.2,0,0,1-1.9,2,7.6,7.6,0,0,1-2.6,1.1,12.2,12.2,0,0,1-3.4.4C416.7,1140.1,413.9,1139.3,412.1,1137.8Zm15.6-17.1a5.9,5.9,0,0,0-1.6-4.5,5.7,5.7,0,0,0-4.4-1.7,10.3,10.3,0,0,0-3.5.6,8.1,8.1,0,0,0-3.1,1.5l-4.2-2.9a10.3,10.3,0,0,1,4.4-3.2,16.5,16.5,0,0,1,12.6.1,9.4,9.4,0,0,1,4,3.9,12.1,12.1,0,0,1,1.4,6v19.2h-5.6Z"/><path class="a" d="M459,1109.8h6.1l-11.2,29.9h-4.5l-11.2-29.9h6.1l7.3,21.3Z"/><path class="a" d="M475.4,1138.6a10.9,10.9,0,0,1-4.4-4.6,14.9,14.9,0,0,1-1.6-7.3v-3.4a17.3,17.3,0,0,1,1.5-7.5,10.6,10.6,0,0,1,4.3-4.8,13.4,13.4,0,0,1,6.8-1.7,11.2,11.2,0,0,1,6.4,1.9,12.6,12.6,0,0,1,4.1,5.4,24,24,0,0,1,1.4,8.5v2H473.7v-4.7h14.6a9.9,9.9,0,0,0-1.9-5.7,5.4,5.4,0,0,0-4.4-2.1,6.8,6.8,0,0,0-5.2,2.2,9.7,9.7,0,0,0-1.8,6.2v3.8a7.7,7.7,0,0,0,2,5.7,7,7,0,0,0,5.5,2,9.2,9.2,0,0,0,3.6-.7,12.7,12.7,0,0,0,3.1-2l3.9,3.8a14.5,14.5,0,0,1-5,3.3,14.1,14.1,0,0,1-5.6,1.2A15.8,15.8,0,0,1,475.4,1138.6Z"/><path class="a" d="M505.8,1138.8a9.1,9.1,0,0,1-3.5-4.2,16.2,16.2,0,0,1-1.2-6.6v-6.6a16.9,16.9,0,0,1,1.1-6.6,8.9,8.9,0,0,1,3.5-4.1,9.5,9.5,0,0,1,5.4-1.4,9.2,9.2,0,0,1,4.9,1.3,12,12,0,0,1,3.5,3.9l-.6,6.1a6.6,6.6,0,0,0-.7-3.2,4.5,4.5,0,0,0-2-2.1,6.3,6.3,0,0,0-3.2-.7,5.8,5.8,0,0,0-4.5,1.8,7.8,7.8,0,0,0-1.6,5.1v6.5a7.8,7.8,0,0,0,1.6,5.1,6.1,6.1,0,0,0,4.5,1.7,6.3,6.3,0,0,0,3.2-.7,4.5,4.5,0,0,0,2-2.1,6.7,6.7,0,0,0,.7-3.3l.4,6.3a8.7,8.7,0,0,1-2.9,3.7,8.2,8.2,0,0,1-5,1.5A10.8,10.8,0,0,1,505.8,1138.8Zm13.1-41h5.9v41.9h-5.9Z"/><path class="a" d="M552.7,1136.2a45.7,45.7,0,0,1,0-30.4,37.8,37.8,0,0,1,7.7-12.5l4,3.7a31.5,31.5,0,0,0-6.5,10.8,40.7,40.7,0,0,0,0,26.4,32.9,32.9,0,0,0,6.5,10.9l-4,3.6A37.8,37.8,0,0,1,552.7,1136.2Z"/><path class="a" d="M575.5,1132a2.5,2.5,0,0,0,.4,1.6,1.8,1.8,0,0,0,1.4.6H580v5.6h-3.4a6.6,6.6,0,0,1-5.2-2.1,8.4,8.4,0,0,1-1.8-5.8v-34.1h5.9Z"/><path class="a" d="M591.5,1138.6a9.2,9.2,0,0,1-4.2-4.5,15.1,15.1,0,0,1-1.5-7v-4.9a14.7,14.7,0,0,1,1.5-6.9,9,9,0,0,1,4.2-4.4,12.4,12.4,0,0,1,6.6-1.6,12.8,12.8,0,0,1,6.7,1.6,10,10,0,0,1,4.2,4.4,14.7,14.7,0,0,1,1.5,6.9v5a15.4,15.4,0,0,1-1.5,7,10.5,10.5,0,0,1-4.2,4.4,13.8,13.8,0,0,1-6.7,1.5A13.4,13.4,0,0,1,591.5,1138.6Zm11.4-6a8.1,8.1,0,0,0,1.7-5.4v-5a8.1,8.1,0,0,0-1.7-5.4,6.2,6.2,0,0,0-4.8-1.9,6.2,6.2,0,0,0-4.7,1.9,7.6,7.6,0,0,0-1.7,5.4v5a7.6,7.6,0,0,0,1.7,5.4,5.8,5.8,0,0,0,4.7,1.9A5.9,5.9,0,0,0,602.9,1132.6Z"/><path class="a" d="M623.9,1138.6a10.1,10.1,0,0,1-4.4-4.5,14.8,14.8,0,0,1-1.5-7v-4.9a15.4,15.4,0,0,1,1.5-7,10.2,10.2,0,0,1,4.4-4.3,13.9,13.9,0,0,1,7-1.6,15.6,15.6,0,0,1,4.4.6,13.8,13.8,0,0,1,3.7,1.6,9.6,9.6,0,0,1,2.7,2.6l-4.2,3.8a9.3,9.3,0,0,0-3-2.2,8.5,8.5,0,0,0-3.5-.8,7.4,7.4,0,0,0-5.3,1.9,7.7,7.7,0,0,0-1.9,5.4v4.9a7.8,7.8,0,0,0,1.9,5.5,6.9,6.9,0,0,0,5.3,1.9,9.4,9.4,0,0,0,3.6-.8,9.6,9.6,0,0,0,2.9-2.4l4.2,4.1a9.6,9.6,0,0,1-2.7,2.6,15.3,15.3,0,0,1-3.7,1.6,21.2,21.2,0,0,1-4.4.5A15.1,15.1,0,0,1,623.9,1138.6Z"/><path class="a" d="M649.5,1137.8q-2.7-2.2-2.7-6.9c0-3,.8-5.2,2.5-6.7s4.2-2.2,7.6-2.2h8.4l.5,4.7h-8.9a5.6,5.6,0,0,0-3.5,1,4.4,4.4,0,0,0-1.1,3.2,3.7,3.7,0,0,0,1.5,3.3,7.5,7.5,0,0,0,4.6,1.1,12.6,12.6,0,0,0,5-.7,2.4,2.4,0,0,0,1.7-2.2l.6,4.2a9,9,0,0,1-1.9,2,8.1,8.1,0,0,1-2.7,1.1,11.5,11.5,0,0,1-3.3.4C654.1,1140.1,651.3,1139.3,649.5,1137.8Zm15.6-17.1a5.9,5.9,0,0,0-1.6-4.5,5.7,5.7,0,0,0-4.4-1.7,10.3,10.3,0,0,0-3.5.6,8.1,8.1,0,0,0-3.1,1.5l-4.3-2.9a11.2,11.2,0,0,1,4.5-3.2,16.5,16.5,0,0,1,12.6.1,9.4,9.4,0,0,1,4,3.9,12.1,12.1,0,0,1,1.4,6v19.2h-5.6Z"/><path class="a" d="M685.5,1132a2.1,2.1,0,0,0,.5,1.6,1.5,1.5,0,0,0,1.3.6h2.8v5.6h-3.5a6.7,6.7,0,0,1-5.2-2.1,8.4,8.4,0,0,1-1.8-5.8v-34.1h5.9Z"/><path class="a" d="M702.6,1132a2.5,2.5,0,0,0,.4,1.6,1.8,1.8,0,0,0,1.4.6h2.7v5.6h-3.4a6.6,6.6,0,0,1-5.2-2.1,8.4,8.4,0,0,1-1.8-5.8v-34.1h5.9Z"/><path class="a" d="M710.6,1109.8h6l9.2,26-3.3,6.3Zm26.5,0-12.8,36.9a7.7,7.7,0,0,1-1.8,3.2,5.5,5.5,0,0,1-2.7,1.7,12.4,12.4,0,0,1-4.1.5h-1.1v-5.6h1.1a4,4,0,0,0,2.6-.7,5,5,0,0,0,1.7-2.2l11.1-33.8Z"/><path class="a" d="M742.6,1133.5h6.1v6.2h-6.1Zm.1-35.7h5.9v31.1h-5.9Z"/><path class="a" d="M754.2,1145.1a32.9,32.9,0,0,0,6.5-10.9,40.7,40.7,0,0,0,0-26.4,31.5,31.5,0,0,0-6.5-10.8l4-3.7a37.8,37.8,0,0,1,7.7,12.5,45.7,45.7,0,0,1,0,30.4,37.8,37.8,0,0,1-7.7,12.5Z"/><path class="a" d="M403,1208.6q-2.7-2.2-2.7-6.9c0-3,.8-5.2,2.5-6.7s4.2-2.2,7.6-2.2h8.5l.4,4.7h-8.9a5.3,5.3,0,0,0-3.4,1,4.1,4.1,0,0,0-1.2,3.2,3.7,3.7,0,0,0,1.5,3.3,7.5,7.5,0,0,0,4.6,1.1,12.6,12.6,0,0,0,5-.7,2.3,2.3,0,0,0,1.7-2.2l.6,4.2a7.2,7.2,0,0,1-1.9,2,7.6,7.6,0,0,1-2.6,1.1,12.2,12.2,0,0,1-3.4.4C407.6,1210.9,404.8,1210.1,403,1208.6Zm15.6-17.1a5.9,5.9,0,0,0-1.6-4.5,5.7,5.7,0,0,0-4.4-1.7,10.3,10.3,0,0,0-3.5.6,8.1,8.1,0,0,0-3.1,1.5l-4.2-2.9a10.3,10.3,0,0,1,4.4-3.2,16.5,16.5,0,0,1,12.6.1,9.4,9.4,0,0,1,4,3.9,12.1,12.1,0,0,1,1.4,6v19.2h-5.6Z"/><path class="a" d="M439,1198.7a6.7,6.7,0,0,0,1.6,4.9,6.1,6.1,0,0,0,4.5,1.7,6.4,6.4,0,0,0,4.5-1.5,6.1,6.1,0,0,0,1.6-4.4l.4,6.3a9.8,9.8,0,0,1-3,3.7,8.5,8.5,0,0,1-5.1,1.5,9.7,9.7,0,0,1-7.7-3.2q-2.7-3.2-2.7-9v-18.1H439Zm12.2-18.1H457v29.9h-5.8Z"/><path class="a" d="M463.6,1180.6h13.5v5.3H463.6Zm4.8,28a9,9,0,0,1-1.7-5.9v-30.8h5.9v30.9a2.5,2.5,0,0,0,.4,1.6,1.5,1.5,0,0,0,1.3.6h2.8v5.6h-3.4C471.3,1210.6,469.5,1210,468.4,1208.6Z"/><path class="a" d="M490,1209.4a9.2,9.2,0,0,1-4.2-4.5,15.1,15.1,0,0,1-1.5-7V1193a14.7,14.7,0,0,1,1.5-6.9,9,9,0,0,1,4.2-4.4,12.7,12.7,0,0,1,6.6-1.6,12.8,12.8,0,0,1,6.7,1.6,9.4,9.4,0,0,1,4.2,4.4,14.7,14.7,0,0,1,1.5,6.9v5a15.4,15.4,0,0,1-1.5,7,9.9,9.9,0,0,1-4.2,4.4,15.5,15.5,0,0,1-13.3,0Zm11.4-6a8.1,8.1,0,0,0,1.7-5.4v-5a8.1,8.1,0,0,0-1.7-5.4,6.2,6.2,0,0,0-4.8-1.9,6.2,6.2,0,0,0-4.7,1.9,8.1,8.1,0,0,0-1.7,5.4v5a8.1,8.1,0,0,0,1.7,5.4,5.8,5.8,0,0,0,4.7,1.9A5.9,5.9,0,0,0,501.4,1203.4Z"/><path class="a" d="M517.3,1180.6h5.9v29.9h-5.9Zm17.9,11.8c0-2.2-.5-3.8-1.6-4.9a5.4,5.4,0,0,0-4.4-1.8,5.7,5.7,0,0,0-4.4,1.6,5.4,5.4,0,0,0-1.6,4.2l-.6-5.7a10.6,10.6,0,0,1,3.6-4.2,8.9,8.9,0,0,1,5-1.5,9.2,9.2,0,0,1,5.3,1.5,8.7,8.7,0,0,1,3.4,4.1,16.9,16.9,0,0,1,1.2,6.6v18.2h-5.9Zm17.9,0a6.6,6.6,0,0,0-1.7-4.9,5.9,5.9,0,0,0-4.6-1.8,5.4,5.4,0,0,0-4.2,1.7,6.8,6.8,0,0,0-1.5,4.7l-1.2-5.7a11.4,11.4,0,0,1,3.7-4.6,8.9,8.9,0,0,1,5.1-1.7,9.6,9.6,0,0,1,5.5,1.5,8.3,8.3,0,0,1,3.5,4.1,16.9,16.9,0,0,1,1.2,6.6v18.2h-5.8Z"/><path class="a" d="M569.2,1208.6c-1.9-1.5-2.8-3.8-2.8-6.9a8.7,8.7,0,0,1,2.5-6.7c1.7-1.5,4.2-2.2,7.6-2.2H585l.4,4.7h-8.9a5.3,5.3,0,0,0-3.4,1,4,4,0,0,0-1.1,3.2,3.7,3.7,0,0,0,1.5,3.3c1,.8,2.5,1.1,4.6,1.1a12.9,12.9,0,0,0,5-.7,2.3,2.3,0,0,0,1.6-2.2l.6,4.2a7.2,7.2,0,0,1-1.9,2,6.8,6.8,0,0,1-2.6,1.1,11.8,11.8,0,0,1-3.4.4C573.7,1210.9,571,1210.1,569.2,1208.6Zm15.5-17.1a6.3,6.3,0,0,0-1.5-4.5,6.1,6.1,0,0,0-4.5-1.7,10.7,10.7,0,0,0-3.5.6,8.5,8.5,0,0,0-3,1.5l-4.3-2.9a10,10,0,0,1,4.5-3.2,15.1,15.1,0,0,1,6.1-1.2,15.5,15.5,0,0,1,6.4,1.3,8.9,8.9,0,0,1,4,3.9,11.1,11.1,0,0,1,1.4,6v19.2h-5.6Z"/><path class="a" d="M597,1180.6h13.4v5.3H597Zm4.7,28a9,9,0,0,1-1.7-5.9v-30.8h5.9v30.9a3.4,3.4,0,0,0,.4,1.6,1.6,1.6,0,0,0,1.3.6h2.8v5.6H607C604.6,1210.6,602.8,1210,601.7,1208.6Z"/><path class="a" d="M618.5,1168.6h5.9v5.9h-5.9Zm0,12h5.9v29.9h-5.9Z"/><path class="a" d="M638.4,1209.4a10.1,10.1,0,0,1-4.4-4.5,14.8,14.8,0,0,1-1.6-7V1193a15.4,15.4,0,0,1,1.6-7,10.2,10.2,0,0,1,4.4-4.3,13.9,13.9,0,0,1,7-1.6,16.1,16.1,0,0,1,4.4.6,13.8,13.8,0,0,1,3.7,1.6,9.6,9.6,0,0,1,2.7,2.6l-4.2,3.8a10.5,10.5,0,0,0-3-2.2,8.5,8.5,0,0,0-3.5-.8,7.3,7.3,0,0,0-5.3,1.9,7.7,7.7,0,0,0-1.9,5.4v4.9a7.4,7.4,0,0,0,1.9,5.5,6.9,6.9,0,0,0,5.3,1.9,8.5,8.5,0,0,0,3.5-.8,8.9,8.9,0,0,0,3-2.4l4.2,4.1a11.1,11.1,0,0,1-2.7,2.6,14.5,14.5,0,0,1-3.8,1.6,19.5,19.5,0,0,1-4.3.5A15.1,15.1,0,0,1,638.4,1209.4Z"/><path class="a" d="M664,1208.6q-2.7-2.2-2.7-6.9c0-3,.8-5.2,2.5-6.7s4.2-2.2,7.5-2.2h8.5l.4,4.7h-8.8a5.6,5.6,0,0,0-3.5,1,4.4,4.4,0,0,0-1.1,3.2,3.7,3.7,0,0,0,1.5,3.3c1,.8,2.5,1.1,4.6,1.1a12.9,12.9,0,0,0,5-.7,2.4,2.4,0,0,0,1.7-2.2l.6,4.2a9,9,0,0,1-1.9,2,8.1,8.1,0,0,1-2.7,1.1,11.5,11.5,0,0,1-3.3.4C668.6,1210.9,665.8,1210.1,664,1208.6Zm15.6-17.1a5.9,5.9,0,0,0-1.6-4.5,5.7,5.7,0,0,0-4.4-1.7,10.3,10.3,0,0,0-3.5.6,8.1,8.1,0,0,0-3.1,1.5l-4.3-2.9a11.2,11.2,0,0,1,4.5-3.2,16.5,16.5,0,0,1,12.6.1,9.4,9.4,0,0,1,4,3.9,12.1,12.1,0,0,1,1.4,6v19.2h-5.6Z"/><path class="a" d="M700,1202.8a2.1,2.1,0,0,0,.5,1.6,1.5,1.5,0,0,0,1.3.6h2.8v5.6h-3.5a6.6,6.6,0,0,1-5.2-2.1,8.4,8.4,0,0,1-1.8-5.8v-34.1H700Z"/><path class="a" d="M717.1,1202.8a2.5,2.5,0,0,0,.4,1.6,1.8,1.8,0,0,0,1.4.6h2.7v5.6h-3.4a6.6,6.6,0,0,1-5.2-2.1,8.4,8.4,0,0,1-1.8-5.8v-34.1h5.9Z"/><path class="a" d="M725.1,1180.6h6l9.2,26-3.3,6.3Zm26.5,0-12.8,36.9a7.7,7.7,0,0,1-1.8,3.2,5.5,5.5,0,0,1-2.7,1.7,12.4,12.4,0,0,1-4.1.5H729v-5.6h1.2a4,4,0,0,0,2.6-.7,5,5,0,0,0,1.7-2.2l11.1-33.8Z"/><path class="b" d="M669,234.1H396a44.2,44.2,0,0,0-44.1,44.1V622.9A44.2,44.2,0,0,0,396,667H740.7a44.2,44.2,0,0,0,44.1-44.1v-273A115.9,115.9,0,0,0,669,234.1ZM430.8,244.3H685.2v95.3a11.9,11.9,0,0,1-11.9,11.9H442.6a11.8,11.8,0,0,1-11.8-11.9Zm293.1,413H412.8V467.6a17.1,17.1,0,0,1,17.1-17H706.8a17.1,17.1,0,0,1,17.1,17Z"/><path class="c" d="M422.4,450.6H714.3a9.6,9.6,0,0,1,9.6,9.6v55.6a0,0,0,0,1,0,0h-311a0,0,0,0,1,0,0V460.1A9.6,9.6,0,0,1,422.4,450.6Z"/><rect class="c" x="422.9" y="529.2" width="290.9" height="11.13"/><rect class="c" x="422.9" y="555.1" width="290.9" height="11.13"/><rect class="c" x="422.9" y="581.1" width="290.9" height="11.13"/><rect class="c" x="422.9" y="607.1" width="290.9" height="11.13"/><rect class="c" x="424.6" y="633.1" width="290.9" height="11.13"/><rect class="b" x="610.2" y="255.5" width="58.6" height="84.87" rx="14.6"/><polygon class="d" points="308.6 171.4 302.3 224 289.8 172.5 237.1 166.2 288.7 153.7 295 101 307.5 152.6 360.2 158.9 308.6 171.4"/><polygon class="d" points="832 195.5 784.8 226.7 815.9 179.4 784.8 132.1 832 163.3 879.3 132.1 848.2 179.4 879.3 226.7 832 195.5"/><polygon class="d" points="447.4 791.4 408.4 827.4 432.4 780.1 396.4 741.1 443.7 765.1 482.7 729.1 458.7 776.4 494.7 815.4 447.4 791.4"/><circle class="d" cx="526.4" cy="130.9" r="13"/><circle class="d" cx="563.6" cy="153.4" r="7.8"/><circle class="d" cx="464.6" cy="118.3" r="19.1"/><circle class="d" cx="575.7" cy="203.4" r="3.9"/><circle class="d" cx="580.6" cy="179.4" r="5.4"/><circle class="d" cx="903.5" cy="428.4" r="13"/><circle class="d" cx="892.9" cy="470.5" r="7.8"/><circle class="d" cx="897.4" cy="365.6" r="19.1"/><circle class="d" cx="848.6" cy="496.8" r="3.9"/><circle class="d" cx="873" cy="494.4" r="5.4"/><circle class="d" cx="796.1" cy="762.9" r="15.1"/><circle class="d" cx="747" cy="775.5" r="9.1"/><circle class="d" cx="857.1" cy="721.7" r="22.3"/><circle class="d" cx="695.4" cy="744.8" r="4.5"/><circle class="d" cx="711.4" cy="768.6" r="6.4"/><circle class="d" cx="233.2" cy="405.8" r="13"/><circle class="d" cx="253.6" cy="367.5" r="7.8"/><circle class="d" cx="224" cy="468.2" r="19.1"/><circle class="d" cx="302.8" cy="352.6" r="3.9"/><circle class="d" cx="278.6" cy="349" r="5.4"/><circle class="d" cx="269.3" cy="679.6" r="13"/><circle class="d" cx="262.1" cy="636.8" r="7.8"/><circle class="d" cx="300" cy="734.6" r="19.1"/><circle class="d" cx="292" cy="595" r="3.9"/><circle class="d" cx="270.6" cy="606.9" r="5.4"/><polygon class="d" points="235.8 252.1 216.1 278.3 225.4 246.9 199.2 227.3 230.6 236.6 250.2 210.4 241 241.8 267.2 261.4 235.8 252.1"/><polygon class="d" points="588.1 742.6 557.8 755 581.9 732.9 569.5 702.6 591.7 726.6 622 714.3 597.9 736.4 610.3 766.7 588.1 742.6"/><polygon class="d" points="709.4 128.7 678.9 140.4 703.4 118.8 691.8 88.2 713.4 112.8 744 101.2 719.4 122.8 731 153.3 709.4 128.7"/><polygon class="d" points="878.8 603.2 850.8 620.1 871.2 594.5 854.2 566.5 879.9 586.8 907.9 569.9 887.5 595.5 904.5 623.5 878.8 603.2"/></svg>