<?xml version="1.0" encoding="utf-8"?>
<svg viewBox="0 0 1133.9 881.4" xmlns="http://www.w3.org/2000/svg">
  <defs>
    <style>.a,.b{fill:#4e4d4d;}.b{opacity:0.13;}.c{fill:#ffcc03;}</style>
  </defs>
  <path class="a" d="M669,234.1H396a44.2,44.2,0,0,0-44.1,44.1V622.9A44.2,44.2,0,0,0,396,667H740.7a44.2,44.2,0,0,0,44.1-44.1v-273A115.9,115.9,0,0,0,669,234.1ZM430.8,244.3H685.2v95.3a11.9,11.9,0,0,1-11.9,11.9H442.6a11.8,11.8,0,0,1-11.8-11.9Zm293.1,413H412.8V467.6a17.1,17.1,0,0,1,17.1-17H706.8a17.1,17.1,0,0,1,17.1,17Z"/>
  <path class="b" d="M422.4,450.6H714.3a9.6,9.6,0,0,1,9.6,9.6v55.6a0,0,0,0,1,0,0h-311a0,0,0,0,1,0,0V460.1A9.6,9.6,0,0,1,422.4,450.6Z"/>
  <rect class="b" x="422.9" y="529.2" width="290.9" height="11.13"/>
  <rect class="b" x="422.9" y="555.1" width="290.9" height="11.13"/>
  <rect class="b" x="422.9" y="581.1" width="290.9" height="11.13"/>
  <rect class="b" x="422.9" y="607.1" width="290.9" height="11.13"/>
  <rect class="b" x="424.6" y="633.1" width="290.9" height="11.13"/>
  <rect class="a" x="610.2" y="255.5" width="58.6" height="84.87" rx="14.6"/>
  <polygon class="c" points="308.6 171.4 302.3 224 289.8 172.5 237.1 166.2 288.7 153.7 295 101 307.5 152.6 360.2 158.9 308.6 171.4"/>
  <polygon class="c" points="832 195.5 784.8 226.7 815.9 179.4 784.8 132.1 832 163.3 879.3 132.1 848.2 179.4 879.3 226.7 832 195.5"/>
  <polygon class="c" points="447.4 791.4 408.4 827.4 432.4 780.1 396.4 741.1 443.7 765.1 482.7 729.1 458.7 776.4 494.7 815.4 447.4 791.4"/>
  <circle class="c" cx="526.4" cy="130.9" r="13"/>
  <circle class="c" cx="563.6" cy="153.4" r="7.8"/>
  <circle class="c" cx="464.6" cy="118.3" r="19.1"/>
  <circle class="c" cx="575.7" cy="203.4" r="3.9"/>
  <circle class="c" cx="580.6" cy="179.4" r="5.4"/>
  <circle class="c" cx="903.5" cy="428.4" r="13"/>
  <circle class="c" cx="892.9" cy="470.5" r="7.8"/>
  <circle class="c" cx="897.4" cy="365.6" r="19.1"/>
  <circle class="c" cx="848.6" cy="496.8" r="3.9"/>
  <circle class="c" cx="873" cy="494.4" r="5.4"/>
  <circle class="c" cx="796.1" cy="762.9" r="15.1"/>
  <circle class="c" cx="747" cy="775.5" r="9.1"/>
  <circle class="c" cx="857.1" cy="721.7" r="22.3"/>
  <circle class="c" cx="695.4" cy="744.8" r="4.5"/>
  <circle class="c" cx="711.4" cy="768.6" r="6.4"/>
  <circle class="c" cx="233.2" cy="405.8" r="13"/>
  <circle class="c" cx="253.6" cy="367.5" r="7.8"/>
  <circle class="c" cx="224" cy="468.2" r="19.1"/>
  <circle class="c" cx="302.8" cy="352.6" r="3.9"/>
  <circle class="c" cx="278.6" cy="349" r="5.4"/>
  <circle class="c" cx="269.3" cy="679.6" r="13"/>
  <circle class="c" cx="262.1" cy="636.8" r="7.8"/>
  <circle class="c" cx="300" cy="734.6" r="19.1"/>
  <circle class="c" cx="292" cy="595" r="3.9"/>
  <circle class="c" cx="270.6" cy="606.9" r="5.4"/>
  <polygon class="c" points="235.8 252.1 216.1 278.3 225.4 246.9 199.2 227.3 230.6 236.6 250.2 210.4 241 241.8 267.2 261.4 235.8 252.1"/>
  <polygon class="c" points="588.1 742.6 557.8 755 581.9 732.9 569.5 702.6 591.7 726.6 622 714.3 597.9 736.4 610.3 766.7 588.1 742.6"/>
  <polygon class="c" points="709.4 128.7 678.9 140.4 703.4 118.8 691.8 88.2 713.4 112.8 744 101.2 719.4 122.8 731 153.3 709.4 128.7"/>
  <polygon class="c" points="878.8 603.2 850.8 620.1 871.2 594.5 854.2 566.5 879.9 586.8 907.9 569.9 887.5 595.5 904.5 623.5 878.8 603.2"/>
</svg>