<svg xmlns="http://www.w3.org/2000/svg" viewBox="0 0 1133.9 1417.3"><defs><style>.a{fill:#cdcccc;}.b{fill:#ffcc07;}.c{fill:#1d1d1b;}.d,.f,.j,.l{fill:#fff;}.e{fill:#4e4d4d;}.f,.g,.j,.k,.l,.m{stroke:#4e4d4d;}.f,.g,.h,.i,.j,.k,.l,.m,.n,.o{stroke-miterlimit:10;}.f,.g{stroke-width:22.53px;}.g,.k,.m{fill:none;}.h{fill:#010101;stroke:#010101;stroke-width:9.01px;}.i{fill:#ffd002;stroke:#3c3c3b;stroke-width:15.86px;}.j,.k{stroke-width:21.47px;}.l,.m{stroke-width:21.95px;}.n,.o{fill:#ffd003;stroke:#ffd003;}.n{stroke-width:0.32px;}.o{stroke-width:0.33px;}</style></defs><ellipse class="a" cx="557.4" cy="758.2" rx="217.8" ry="44"/><ellipse class="b" cx="534.5" cy="411.5" rx="8.6" ry="8.1"/><ellipse class="b" cx="482.9" cy="411.5" rx="8.6" ry="8.1"/><ellipse class="b" cx="498.2" cy="395.3" rx="8.6" ry="8.1"/><ellipse class="b" cx="519.2" cy="395.3" rx="8.6" ry="8.1"/><ellipse class="b" cx="637.8" cy="411.5" rx="8.6" ry="8.1"/><ellipse class="b" cx="586.2" cy="411.5" rx="8.6" ry="8.1"/><ellipse class="b" cx="601.5" cy="395.3" rx="8.6" ry="8.1"/><ellipse class="b" cx="622.5" cy="395.3" rx="8.6" ry="8.1"/><path class="c" d="M336,885.4h7.9v41.9H336Zm3.6,18H353a5.4,5.4,0,0,0,2.5-.6,4.9,4.9,0,0,0,1.6-1.9,5.4,5.4,0,0,0,.6-2.7,7.6,7.6,0,0,0-.5-2.7,5.2,5.2,0,0,0-1.7-1.9,5.1,5.1,0,0,0-2.5-.6H339.6v-7.6h13.2a14.1,14.1,0,0,1,6.9,1.6,11.7,11.7,0,0,1,4.6,4.5,13.3,13.3,0,0,1,1.6,6.7,13.7,13.7,0,0,1-1.6,6.8,10.9,10.9,0,0,1-4.6,4.4,14.1,14.1,0,0,1-6.9,1.6H339.6Z"/><path class="c" d="M378.6,915.5a4.5,4.5,0,0,0,1.2,3.4,4.7,4.7,0,0,0,3.4,1.2,4.2,4.2,0,0,0,4.7-4.7l.4,6.5a9.7,9.7,0,0,1-2.8,4.1,7.2,7.2,0,0,1-4.8,1.7,9.1,9.1,0,0,1-7.4-3.1c-1.7-2.1-2.6-5-2.6-8.8V897.4h7.9Zm9.3-18.1h7.8v29.9h-7.8Z"/><path class="c" d="M403.5,885.4h7.9v41.9h-7.9Zm10.3,41a7.8,7.8,0,0,1-2.8-3.8l.4-6.8a6.6,6.6,0,0,0,.5,2.5,4.3,4.3,0,0,0,1.5,1.5,4.8,4.8,0,0,0,2.4.6,4.3,4.3,0,0,0,3.5-1.5,6.3,6.3,0,0,0,1.2-4.1V910a6.6,6.6,0,0,0-1.2-4.2,4.3,4.3,0,0,0-3.5-1.5,4.7,4.7,0,0,0-2.4.5,4.6,4.6,0,0,0-1.5,1.6,7.1,7.1,0,0,0-.5,2.6l-.6-6.6a10,10,0,0,1,3.2-4,6.8,6.8,0,0,1,4.3-1.5,9.2,9.2,0,0,1,5.5,1.6,9.5,9.5,0,0,1,3.4,4.4,18.8,18.8,0,0,1,1.2,7.1v4.8a18.6,18.6,0,0,1-1.2,7,9.5,9.5,0,0,1-3.4,4.4,9.8,9.8,0,0,1-5.5,1.5A7.7,7.7,0,0,1,413.8,926.4Z"/><path class="c" d="M443.5,917.4a2.4,2.4,0,0,0,.6,1.7,2.4,2.4,0,0,0,1.8.6h1.3v7.6h-4a7.3,7.3,0,0,1-5.6-2.1,8.2,8.2,0,0,1-2-5.8v-34h7.9Z"/><path class="c" d="M452.2,885.4h7.9v7.9h-7.9Zm0,12h7.9v29.9h-7.9Z"/><path class="c" d="M473.7,927.2a24.3,24.3,0,0,1-4.8-1.4,18.7,18.7,0,0,1-3.9-2.2l4.9-6.1a15.7,15.7,0,0,0,4.5,2.2,15,15,0,0,0,4.5.7,11.9,11.9,0,0,0,4.3-.6c1-.4,1.5-1,1.5-1.7a1.8,1.8,0,0,0-.6-1.5,4.5,4.5,0,0,0-1.7-.8l-2.9-.4h-2.7a26.4,26.4,0,0,1-5.3-1,6.5,6.5,0,0,1-3.4-2.5c-1-1.2-1.4-2.9-1.4-5.2a9.3,9.3,0,0,1,1.4-5.1,10,10,0,0,1,4.2-3.3,18.2,18.2,0,0,1,6.6-1.1,24.9,24.9,0,0,1,4.6.5,21.3,21.3,0,0,1,4.3,1.3,23.2,23.2,0,0,1,3.8,2.1l-4.7,5.7a18.6,18.6,0,0,0-4.1-1.7,15.1,15.1,0,0,0-4.1-.6,9.2,9.2,0,0,0-3.7.6c-.9.3-1.3.8-1.3,1.5a1.3,1.3,0,0,0,.7,1.2l1.8.6,3,.4h1.6a33,33,0,0,1,5.7,1,7.7,7.7,0,0,1,3.7,2.5,9.1,9.1,0,0,1,1.5,5.6,9.5,9.5,0,0,1-1.5,5.4,9.1,9.1,0,0,1-4.3,3.3,18.6,18.6,0,0,1-7,1.2A29.6,29.6,0,0,1,473.7,927.2Z"/><path class="c" d="M498.1,885.4H506v41.9h-7.9Zm17.3,23.8a4.6,4.6,0,0,0-1.3-3.4,4.7,4.7,0,0,0-8.1,3.4l-.6-6.6a11.3,11.3,0,0,1,3.2-4.3,7.9,7.9,0,0,1,4.7-1.4,9.2,9.2,0,0,1,7.4,3.2c1.7,2.1,2.6,5.1,2.6,9v18.2h-7.9Z"/><path class="c" d="M543.7,897.4h7.4l10.1,26-5,6.3Zm27.6,0L558,934.3a10.7,10.7,0,0,1-1.8,3.2,6.2,6.2,0,0,1-2.8,1.7,11.8,11.8,0,0,1-4,.5h-1.7v-7.6h1.7a3.3,3.3,0,0,0,2.1-.6,3.5,3.5,0,0,0,1.3-1.8l11.1-32.3Z"/><path class="c" d="M579.8,926.2a10.1,10.1,0,0,1-4.4-4.5,15.1,15.1,0,0,1-1.5-7v-4.9a14.7,14.7,0,0,1,1.5-6.9,9.9,9.9,0,0,1,4.4-4.4,14.2,14.2,0,0,1,7-1.6,13.7,13.7,0,0,1,7,1.6,9.9,9.9,0,0,1,4.4,4.4,14.7,14.7,0,0,1,1.5,6.9v5a15.4,15.4,0,0,1-1.5,7,10.4,10.4,0,0,1-4.4,4.4,14.8,14.8,0,0,1-7,1.5A15.4,15.4,0,0,1,579.8,926.2Zm10.7-7.5a5.3,5.3,0,0,0,1.3-3.9v-5a5.3,5.3,0,0,0-1.3-3.9,5.6,5.6,0,0,0-7.4,0,5.7,5.7,0,0,0-1.3,3.9v5a5.7,5.7,0,0,0,1.3,3.9,5.6,5.6,0,0,0,7.4,0Z"/><path class="c" d="M614.1,915.5a4.5,4.5,0,0,0,1.2,3.4,5,5,0,0,0,3.5,1.2,4.5,4.5,0,0,0,3.4-1.2,4.8,4.8,0,0,0,1.2-3.5l.4,6.5A9.7,9.7,0,0,1,621,926a7.1,7.1,0,0,1-4.7,1.7,9.3,9.3,0,0,1-7.5-3.1c-1.7-2.1-2.6-5-2.6-8.8V897.4h7.9Zm9.3-18.1h7.9v29.9h-7.9Z"/><path class="c" d="M639,897.4h8.5v29.9H639Zm15.4,7.4a5.4,5.4,0,0,0-1.9-.3,4.7,4.7,0,0,0-3.7,1.6,6.1,6.1,0,0,0-1.3,4.3l-.6-7.8a10.7,10.7,0,0,1,3.2-4.2,7,7,0,0,1,4.3-1.5,9,9,0,0,1,3.4.6,8,8,0,0,1,2.7,1.8l-4.6,6.4A3.8,3.8,0,0,0,654.4,904.8Z"/><path class="c" d="M677.5,897.4H685l5.3,18.4,6.4-18.4h4.6l6.3,18.4,5.3-18.4h7.6l-9.2,29.9h-5.9L699,907.8l-6.4,19.5h-5.9Z"/><path class="c" d="M730.2,926.2a9.6,9.6,0,0,1-4.4-4.5,15.1,15.1,0,0,1-1.6-7v-4.9a14.6,14.6,0,0,1,1.6-6.9,9.4,9.4,0,0,1,4.4-4.4,15.9,15.9,0,0,1,13.9,0,9.4,9.4,0,0,1,4.4,4.4,13.5,13.5,0,0,1,1.6,6.9v5a14.2,14.2,0,0,1-1.6,7,9.9,9.9,0,0,1-4.4,4.4,16.9,16.9,0,0,1-13.9,0Zm10.6-7.5a5.3,5.3,0,0,0,1.4-3.9v-5a5.3,5.3,0,0,0-1.4-3.9,4.8,4.8,0,0,0-3.7-1.4,4.7,4.7,0,0,0-3.6,1.4,5.3,5.3,0,0,0-1.4,3.9v5a5.7,5.7,0,0,0,1.3,3.9,5,5,0,0,0,3.7,1.4A4.8,4.8,0,0,0,740.8,918.7Z"/><path class="c" d="M757.3,897.4h8.4v29.9h-8.4Zm15.4,7.4a6,6,0,0,0-2-.3,4.9,4.9,0,0,0-3.7,1.6,6.7,6.7,0,0,0-1.3,4.3l-.6-7.8a11.7,11.7,0,0,1,3.2-4.2,7.3,7.3,0,0,1,4.4-1.5,9.3,9.3,0,0,1,3.4.6,7.6,7.6,0,0,1,2.6,1.8l-4.6,6.4A4.2,4.2,0,0,0,772.7,904.8Z"/><path class="c" d="M782.4,885.4h7.9v41.9h-7.9Zm3.7,31.1,14-19.1h8.3l-21.2,27.8Zm7.1-4.7,6.5-3.9,10.2,19.4h-9.1Z"/><path class="c" d="M234.6,1027h29.5v5.6H234.6Zm11.8,3.4h5.9v38.5h-5.9Z"/><path class="c" d="M269.8,1067.8a9.7,9.7,0,0,1-4.2-4.5,15.1,15.1,0,0,1-1.5-7v-4.9a14.7,14.7,0,0,1,1.5-6.9,10.2,10.2,0,0,1,4.2-4.5,15.5,15.5,0,0,1,13.3,0,10.2,10.2,0,0,1,4.2,4.5,14.7,14.7,0,0,1,1.5,6.9v5a15.4,15.4,0,0,1-1.5,7,9.9,9.9,0,0,1-4.2,4.4,15.5,15.5,0,0,1-13.3,0Zm11.4-6a8.1,8.1,0,0,0,1.7-5.4v-5a8.1,8.1,0,0,0-1.7-5.4,6.2,6.2,0,0,0-4.8-1.9,6.2,6.2,0,0,0-4.7,1.9,8.1,8.1,0,0,0-1.7,5.4v5a8.1,8.1,0,0,0,1.7,5.4,5.8,5.8,0,0,0,4.7,1.9A5.9,5.9,0,0,0,281.2,1061.8Z"/><path class="c" d="M318.1,1067.8a10.9,10.9,0,0,1-4.4-4.6,14.9,14.9,0,0,1-1.6-7.3v-3.4a17.3,17.3,0,0,1,1.5-7.5,10.6,10.6,0,0,1,4.3-4.8,13.4,13.4,0,0,1,6.8-1.7,11.2,11.2,0,0,1,6.4,1.9,11.7,11.7,0,0,1,4,5.4,22,22,0,0,1,1.4,8.5v2H316.4v-4.7H331a9.9,9.9,0,0,0-1.9-5.7,5.4,5.4,0,0,0-4.4-2.1,6.8,6.8,0,0,0-5.2,2.2,9.7,9.7,0,0,0-1.8,6.2v3.8a7.7,7.7,0,0,0,2,5.7,7,7,0,0,0,5.5,2,9.2,9.2,0,0,0,3.6-.7,12.7,12.7,0,0,0,3.1-2l3.9,3.8a14.5,14.5,0,0,1-5,3.3,14.1,14.1,0,0,1-5.6,1.2A15.8,15.8,0,0,1,318.1,1067.8Z"/><path class="c" d="M344.6,1039h5.9v29.9h-5.9Zm18.2,11.8a6.6,6.6,0,0,0-1.7-4.9,5.9,5.9,0,0,0-4.6-1.8,5.7,5.7,0,0,0-4.4,1.6,5.4,5.4,0,0,0-1.6,4.2l-.6-5.7a10.6,10.6,0,0,1,3.6-4.2,8.6,8.6,0,0,1,4.9-1.5,9.5,9.5,0,0,1,7.6,3.2c1.7,2.1,2.6,5.1,2.6,9v18.2h-5.8Z"/><path class="c" d="M377.6,1027h5.8v41.9h-5.8Zm18.1,23.8c0-2.2-.5-3.8-1.6-4.9a6,6,0,0,0-4.6-1.8,6.3,6.3,0,0,0-4.5,1.5,5.8,5.8,0,0,0-1.6,4.3l-.6-5.8a11.4,11.4,0,0,1,3.7-4.1,8.4,8.4,0,0,1,4.9-1.5,9.2,9.2,0,0,1,7.5,3.2q2.7,3.1,2.7,9v18.2h-5.9Z"/><path class="c" d="M411.8,1067q-2.7-2.2-2.7-6.9c0-3,.8-5.2,2.5-6.7s4.2-2.2,7.6-2.2h8.5l.4,4.7h-8.9a5.3,5.3,0,0,0-3.4,1,4.1,4.1,0,0,0-1.2,3.2,3.7,3.7,0,0,0,1.5,3.3,7.5,7.5,0,0,0,4.6,1.1,12.6,12.6,0,0,0,5-.7,2.3,2.3,0,0,0,1.7-2.2l.6,4.2a7.2,7.2,0,0,1-1.9,2,7.6,7.6,0,0,1-2.6,1.1,12.2,12.2,0,0,1-3.4.4C416.4,1069.3,413.6,1068.5,411.8,1067Zm15.6-17.1a5.9,5.9,0,0,0-1.6-4.5,5.7,5.7,0,0,0-4.4-1.7,10.3,10.3,0,0,0-3.5.6,8.1,8.1,0,0,0-3.1,1.5l-4.2-2.9a10.3,10.3,0,0,1,4.4-3.2,16.5,16.5,0,0,1,12.6.1,9.4,9.4,0,0,1,4,3.9,12.1,12.1,0,0,1,1.4,6v19.2h-5.6Z"/><path class="c" d="M441.9,1039h5.9v29.9h-5.9Zm18.2,11.8a6.6,6.6,0,0,0-1.7-4.9,5.9,5.9,0,0,0-4.6-1.8,5.7,5.7,0,0,0-4.4,1.6,5.4,5.4,0,0,0-1.6,4.2l-.6-5.7a10.6,10.6,0,0,1,3.6-4.2,8.7,8.7,0,0,1,5-1.5,9.4,9.4,0,0,1,7.5,3.2q2.7,3.1,2.7,9v18.2h-5.9Z"/><path class="c" d="M480,1067.8a10.3,10.3,0,0,1-4.5-4.5,14.8,14.8,0,0,1-1.5-7v-4.9a15.4,15.4,0,0,1,1.5-7,11.2,11.2,0,0,1,4.5-4.4,16.5,16.5,0,0,1,11.3-.9,12.5,12.5,0,0,1,3.7,1.6,10,10,0,0,1,2.8,2.6l-4.2,3.8a10.5,10.5,0,0,0-3-2.2,8.6,8.6,0,0,0-3.6-.8,7.2,7.2,0,0,0-5.2,1.9,7.3,7.3,0,0,0-1.9,5.4v4.9a7.4,7.4,0,0,0,1.9,5.5,6.8,6.8,0,0,0,5.2,1.9,8.6,8.6,0,0,0,3.6-.8,11.3,11.3,0,0,0,3-2.4l4.2,4.1a11.6,11.6,0,0,1-2.8,2.6,13.8,13.8,0,0,1-3.7,1.6,20.2,20.2,0,0,1-4.3.5A14.8,14.8,0,0,1,480,1067.8Z"/><path class="c" d="M509.4,1067.8a11.7,11.7,0,0,1-4.5-4.6,16.1,16.1,0,0,1-1.5-7.3v-3.4a17.3,17.3,0,0,1,1.5-7.5,10.6,10.6,0,0,1,4.3-4.8,13.2,13.2,0,0,1,6.8-1.7,11.2,11.2,0,0,1,6.4,1.9,11.7,11.7,0,0,1,4,5.4,22,22,0,0,1,1.4,8.5v2H507.7v-4.7h14.5a9.9,9.9,0,0,0-1.8-5.7,5.4,5.4,0,0,0-4.4-2.1,6.6,6.6,0,0,0-5.2,2.2,9.7,9.7,0,0,0-1.8,6.2v3.8c0,2.5.6,4.4,2,5.7a7,7,0,0,0,5.5,2,9.2,9.2,0,0,0,3.6-.7,12.7,12.7,0,0,0,3.1-2l3.9,3.8a14.5,14.5,0,0,1-5,3.3,14.1,14.1,0,0,1-5.6,1.2A15.5,15.5,0,0,1,509.4,1067.8Z"/><path class="c" d="M549.4,1039h13.5v5.3H549.4Zm4.8,28a9,9,0,0,1-1.7-5.9v-30.8h5.9v30.9a2.5,2.5,0,0,0,.4,1.6,1.5,1.5,0,0,0,1.3.6h2.8v5.6h-3.4C557.1,1069,555.3,1068.3,554.2,1067Z"/><path class="c" d="M571,1039h5.9v29.9H571Zm14.5,5.6a7.8,7.8,0,0,0-2.8-.5,5.6,5.6,0,0,0-4.3,1.6,5.7,5.7,0,0,0-1.5,4.2l-.6-5.7a11.3,11.3,0,0,1,3.5-4.2,8.6,8.6,0,0,1,4.9-1.5,11,11,0,0,1,3.7.6,8.8,8.8,0,0,1,2.9,1.8l-3.9,5.2A4,4,0,0,0,585.5,1044.6Z"/><path class="c" d="M597.5,1067c-1.9-1.5-2.8-3.8-2.8-6.9a8.7,8.7,0,0,1,2.5-6.7c1.7-1.5,4.2-2.2,7.6-2.2h8.5l.4,4.7h-8.9a5.5,5.5,0,0,0-3.4,1,4,4,0,0,0-1.1,3.2,3.7,3.7,0,0,0,1.5,3.3c1,.8,2.5,1.1,4.6,1.1a12.9,12.9,0,0,0,5-.7,2.3,2.3,0,0,0,1.6-2.2l.7,4.2a9.5,9.5,0,0,1-2,2,6.8,6.8,0,0,1-2.6,1.1,11.8,11.8,0,0,1-3.4.4C602,1069.3,599.3,1068.5,597.5,1067Zm15.5-17.1a6.3,6.3,0,0,0-1.5-4.5,6.1,6.1,0,0,0-4.5-1.7,10.7,10.7,0,0,0-3.5.6,8.5,8.5,0,0,0-3,1.5l-4.3-2.9a10,10,0,0,1,4.5-3.2,15.2,15.2,0,0,1,6.2-1.2,15,15,0,0,1,6.3,1.3,9.6,9.6,0,0,1,4.1,3.9,12.1,12.1,0,0,1,1.3,6v19.2H613Z"/><path class="c" d="M627.6,1039h5.8v29.9h-5.8Zm18.1,11.8c0-2.2-.5-3.8-1.6-4.9a6,6,0,0,0-4.6-1.8,5.9,5.9,0,0,0-4.5,1.6,5.7,5.7,0,0,0-1.6,4.2l-.6-5.7a11.7,11.7,0,0,1,3.7-4.2,8.4,8.4,0,0,1,4.9-1.5,9.2,9.2,0,0,1,7.5,3.2q2.7,3.1,2.7,9v18.2h-5.9Z"/><path class="c" d="M666.1,1068.8a20.1,20.1,0,0,1-4.3-1.6,13.7,13.7,0,0,1-3.7-2.6l3.5-4.3a17.1,17.1,0,0,0,4.8,2.8,13.1,13.1,0,0,0,4.7.9,10.2,10.2,0,0,0,5.2-1,3.7,3.7,0,0,0,1.8-3.3,2.3,2.3,0,0,0-1-2.1,5.4,5.4,0,0,0-2.3-1l-4-.5h-1.5a28.7,28.7,0,0,1-4.9-.9,6.9,6.9,0,0,1-3.3-2.3,7.7,7.7,0,0,1-1.4-4.9,10.6,10.6,0,0,1,1.3-5.3,8.1,8.1,0,0,1,3.9-3.1,16.7,16.7,0,0,1,6.4-1.1,22.2,22.2,0,0,1,4.5.5,18.7,18.7,0,0,1,4,1.3,15.3,15.3,0,0,1,3.7,2.1l-3.5,4.3a18.7,18.7,0,0,0-4.5-2.2,12.3,12.3,0,0,0-4.2-.7,8.8,8.8,0,0,0-4.5,1,3.5,3.5,0,0,0-1.5,3.1,2,2,0,0,0,.9,1.8,4,4,0,0,0,2.1.8,26,26,0,0,0,3.7.4h1.1a23.8,23.8,0,0,1,5.3.8,6.7,6.7,0,0,1,3.7,2.5,8.3,8.3,0,0,1,1.5,5.4,9.3,9.3,0,0,1-1.4,5.4,8.2,8.2,0,0,1-4.1,3.1,20.2,20.2,0,0,1-7,1.1A26.5,26.5,0,0,1,666.1,1068.8Z"/><path class="c" d="M691.1,1039H697v42h-5.9Zm8.5,29a8.1,8.1,0,0,1-3-3.8l.4-6.3a6.7,6.7,0,0,0,.7,3.3,4.5,4.5,0,0,0,2,2.1,6.3,6.3,0,0,0,3.2.7,5.8,5.8,0,0,0,4.5-1.8,7.3,7.3,0,0,0,1.6-5v-6.4a7.8,7.8,0,0,0-1.6-5.1,5.5,5.5,0,0,0-4.5-1.9,7.6,7.6,0,0,0-3.2.7,4.5,4.5,0,0,0-2,2.1,6.3,6.3,0,0,0-.7,3.2l-.6-5.8a10.6,10.6,0,0,1,3.5-4,8.6,8.6,0,0,1,4.9-1.5,9.5,9.5,0,0,1,5.4,1.5,8.9,8.9,0,0,1,3.5,4.1,16.9,16.9,0,0,1,1.2,6.6v6.5a14.2,14.2,0,0,1-1.3,6.5,8.6,8.6,0,0,1-3.5,4.2,11.1,11.1,0,0,1-5.6,1.4A9,9,0,0,1,699.6,1068Z"/><path class="c" d="M724.5,1067q-2.7-2.2-2.7-6.9c0-3,.8-5.2,2.5-6.7s4.2-2.2,7.6-2.2h8.5l.4,4.7h-8.9a5.6,5.6,0,0,0-3.5,1,4.4,4.4,0,0,0-1.1,3.2,3.7,3.7,0,0,0,1.5,3.3,7.5,7.5,0,0,0,4.6,1.1,12.6,12.6,0,0,0,5-.7,2.4,2.4,0,0,0,1.7-2.2l.6,4.2a9,9,0,0,1-1.9,2,8.1,8.1,0,0,1-2.7,1.1,11.5,11.5,0,0,1-3.3.4C729.1,1069.3,726.3,1068.5,724.5,1067Zm15.6-17.1a5.9,5.9,0,0,0-1.6-4.5,5.7,5.7,0,0,0-4.4-1.7,10.3,10.3,0,0,0-3.5.6,8.1,8.1,0,0,0-3.1,1.5l-4.3-2.9a11.2,11.2,0,0,1,4.5-3.2,16.5,16.5,0,0,1,12.6.1,9.4,9.4,0,0,1,4,3.9,12.1,12.1,0,0,1,1.4,6v19.2h-5.6Z"/><path class="c" d="M754.6,1039h5.9v29.9h-5.9Zm14.5,5.6a7.6,7.6,0,0,0-2.7-.5,5.8,5.8,0,0,0-4.4,1.6,5.7,5.7,0,0,0-1.5,4.2l-.6-5.7a10.6,10.6,0,0,1,3.6-4.2,8.1,8.1,0,0,1,4.8-1.5,10.6,10.6,0,0,1,3.7.6,7.9,7.9,0,0,1,2.9,1.8l-3.8,5.2A4.8,4.8,0,0,0,769.1,1044.6Z"/><path class="c" d="M784.4,1067.8a10.5,10.5,0,0,1-4.5-4.6,16.1,16.1,0,0,1-1.5-7.3v-3.4a17.3,17.3,0,0,1,1.4-7.5,11.2,11.2,0,0,1,4.3-4.8,13.4,13.4,0,0,1,6.8-1.7,11,11,0,0,1,6.4,1.9,11.8,11.8,0,0,1,4.1,5.4,24,24,0,0,1,1.4,8.5v2H782.6v-4.7h14.6a9.9,9.9,0,0,0-1.9-5.7,5.2,5.2,0,0,0-4.4-2.1,6.4,6.4,0,0,0-5.1,2.2,9.8,9.8,0,0,0-1.9,6.2v3.8a7.7,7.7,0,0,0,2,5.7c1.3,1.4,3.2,2,5.6,2a8.7,8.7,0,0,0,3.5-.7,11,11,0,0,0,3.1-2l3.9,3.8a15.9,15.9,0,0,1-10.5,4.5A15.2,15.2,0,0,1,784.4,1067.8Z"/><path class="c" d="M810.8,1039h5.9v29.9h-5.9Zm18.2,11.8c0-2.2-.5-3.8-1.6-4.9a6.1,6.1,0,0,0-4.7-1.8,5.7,5.7,0,0,0-4.4,1.6,5.4,5.4,0,0,0-1.6,4.2l-.6-5.7a10.6,10.6,0,0,1,3.6-4.2,8.9,8.9,0,0,1,5-1.5,9.4,9.4,0,0,1,7.5,3.2q2.7,3.1,2.7,9v18.2H829Z"/><path class="c" d="M848.9,1067.8a10.1,10.1,0,0,1-4.4-4.5,14.8,14.8,0,0,1-1.6-7v-4.9a15.4,15.4,0,0,1,1.6-7,11,11,0,0,1,4.4-4.4,14.8,14.8,0,0,1,7-1.5,16.1,16.1,0,0,1,4.4.6,15.3,15.3,0,0,1,3.7,1.6,9.6,9.6,0,0,1,2.7,2.6l-4.2,3.8a10.5,10.5,0,0,0-3-2.2,8.5,8.5,0,0,0-3.5-.8,6.6,6.6,0,0,0-7.2,7.3v4.9a7.4,7.4,0,0,0,1.9,5.5,6.9,6.9,0,0,0,5.3,1.9,8.5,8.5,0,0,0,3.5-.8,9.9,9.9,0,0,0,3-2.4l4.2,4.1a10,10,0,0,1-2.8,2.6,13.8,13.8,0,0,1-3.7,1.6,19.5,19.5,0,0,1-4.3.5A14.8,14.8,0,0,1,848.9,1067.8Z"/><path class="c" d="M868.9,1039h6l9.2,26-3.3,6.3Zm26.4,0-12.7,36.9a10.7,10.7,0,0,1-1.8,3.2,6.2,6.2,0,0,1-2.8,1.7,11.8,11.8,0,0,1-4,.5h-1.2v-5.6H874a4,4,0,0,0,2.6-.7,5.8,5.8,0,0,0,1.7-2.2l11.1-33.8Z"/><path class="c" d="M896.1,1062.7h6.1v9.3l-6.1,6.4Z"/><path class="c" d="M240.2,1139.6a20.1,20.1,0,0,1-4.3-1.6,15.5,15.5,0,0,1-3.7-2.6l3.5-4.3a17.1,17.1,0,0,0,4.8,2.8,13.5,13.5,0,0,0,4.7.9,10.2,10.2,0,0,0,5.2-1,3.7,3.7,0,0,0,1.8-3.3,2.3,2.3,0,0,0-1-2.1,5.4,5.4,0,0,0-2.3-1l-4-.5h-1.5a28.7,28.7,0,0,1-4.9-.9,6.9,6.9,0,0,1-3.3-2.3,7.7,7.7,0,0,1-1.4-4.9,10.6,10.6,0,0,1,1.3-5.3,8.1,8.1,0,0,1,3.9-3.1,16.7,16.7,0,0,1,6.4-1.1,22.2,22.2,0,0,1,4.5.5,18.7,18.7,0,0,1,4,1.3,15.3,15.3,0,0,1,3.7,2.1l-3.5,4.3a20.1,20.1,0,0,0-4.4-2.2,16.8,16.8,0,0,0-4.3-.7,8.8,8.8,0,0,0-4.5,1,3.5,3.5,0,0,0-1.5,3.1,2,2,0,0,0,.9,1.8,4,4,0,0,0,2.1.8,26,26,0,0,0,3.7.4h1.1a23.8,23.8,0,0,1,5.3.8,6.7,6.7,0,0,1,3.7,2.5,8.5,8.5,0,0,1,1.5,5.4,10.1,10.1,0,0,1-1.3,5.4,8.9,8.9,0,0,1-4.2,3.1,18.1,18.1,0,0,1-7,1.1A26.5,26.5,0,0,1,240.2,1139.6Z"/><path class="c" d="M265.2,1097.8h5.9v41.9h-5.9Zm18.2,23.8a6.6,6.6,0,0,0-1.7-4.9,5.9,5.9,0,0,0-4.6-1.8,6,6,0,0,0-4.4,1.5,5.4,5.4,0,0,0-1.6,4.3l-.6-5.8a10.3,10.3,0,0,1,3.6-4.1,8.9,8.9,0,0,1,5-1.5,9.4,9.4,0,0,1,7.5,3.2q2.7,3.1,2.7,9v18.2h-5.9Z"/><path class="c" d="M299.5,1137.8c-1.8-1.5-2.8-3.8-2.8-6.9s.9-5.2,2.6-6.7,4.1-2.2,7.5-2.2h8.5l.4,4.7h-8.8a5.6,5.6,0,0,0-3.5,1,4.4,4.4,0,0,0-1.1,3.2,3.7,3.7,0,0,0,1.5,3.3c1,.8,2.5,1.1,4.6,1.1a12.9,12.9,0,0,0,5-.7,2.4,2.4,0,0,0,1.7-2.2l.6,4.2a9,9,0,0,1-1.9,2,8.1,8.1,0,0,1-2.7,1.1,11.8,11.8,0,0,1-3.4.4C304.1,1140.1,301.3,1139.3,299.5,1137.8Zm15.6-17.1a6.3,6.3,0,0,0-1.6-4.5,5.8,5.8,0,0,0-4.5-1.7,11.2,11.2,0,0,0-3.5.6,8.5,8.5,0,0,0-3,1.5l-4.3-2.9a10,10,0,0,1,4.5-3.2,15.2,15.2,0,0,1,6.2-1.2,14.7,14.7,0,0,1,6.3,1.3,9.1,9.1,0,0,1,4.1,3.9,12.1,12.1,0,0,1,1.4,6v19.2h-5.6Z"/><path class="c" d="M329.6,1109.8h5.9v29.9h-5.9Zm14.5,5.6a7.8,7.8,0,0,0-2.8-.5,5.6,5.6,0,0,0-4.3,1.6,5.7,5.7,0,0,0-1.5,4.2l-.6-5.7a11.3,11.3,0,0,1,3.5-4.2,8.6,8.6,0,0,1,4.9-1.5,11,11,0,0,1,3.7.6,8.8,8.8,0,0,1,2.9,1.8l-3.9,5.2A4,4,0,0,0,344.1,1115.4Z"/><path class="c" d="M359.3,1138.6a10.9,10.9,0,0,1-4.4-4.6,14.9,14.9,0,0,1-1.6-7.3v-3.4a17.3,17.3,0,0,1,1.5-7.5,10.6,10.6,0,0,1,4.3-4.8,13.4,13.4,0,0,1,6.8-1.7,11.2,11.2,0,0,1,6.4,1.9,12.6,12.6,0,0,1,4.1,5.4,24,24,0,0,1,1.4,8.5v2H357.6v-4.7h14.6a9.9,9.9,0,0,0-1.9-5.7,5.4,5.4,0,0,0-4.4-2.1,6.8,6.8,0,0,0-5.2,2.2,9.7,9.7,0,0,0-1.8,6.2v3.8a7.7,7.7,0,0,0,2,5.7,7,7,0,0,0,5.5,2,9.2,9.2,0,0,0,3.6-.7,12.7,12.7,0,0,0,3.1-2l3.9,3.8a14.5,14.5,0,0,1-5,3.3,14.1,14.1,0,0,1-5.6,1.2A15.8,15.8,0,0,1,359.3,1138.6Z"/><path class="c" d="M399.4,1109.8h13.4v5.3H399.4Zm4.7,28a9,9,0,0,1-1.7-5.9v-30.8h5.9V1132a2.5,2.5,0,0,0,.5,1.6,1.3,1.3,0,0,0,1.2.6h2.8v5.6h-3.4C407,1139.8,405.3,1139.2,404.1,1137.8Z"/><path class="c" d="M420.9,1097.8h5.9v41.9h-5.9Zm18.2,23.8a6.6,6.6,0,0,0-1.7-4.9,5.9,5.9,0,0,0-4.6-1.8,6,6,0,0,0-4.4,1.5,5.4,5.4,0,0,0-1.6,4.3l-.6-5.8a10.3,10.3,0,0,1,3.6-4.1,8.6,8.6,0,0,1,4.9-1.5,9.5,9.5,0,0,1,7.6,3.2c1.7,2.1,2.6,5.1,2.6,9v18.2h-5.8Z"/><path class="c" d="M459,1138.6a11.7,11.7,0,0,1-4.5-4.6,16.1,16.1,0,0,1-1.5-7.3v-3.4a17.3,17.3,0,0,1,1.5-7.5,10.6,10.6,0,0,1,4.3-4.8,13.2,13.2,0,0,1,6.8-1.7,11.2,11.2,0,0,1,6.4,1.9,11.7,11.7,0,0,1,4,5.4,22,22,0,0,1,1.4,8.5v2H457.3v-4.7h14.5a9.9,9.9,0,0,0-1.8-5.7,5.4,5.4,0,0,0-4.4-2.1,6.6,6.6,0,0,0-5.2,2.2,9.7,9.7,0,0,0-1.8,6.2v3.8c0,2.5.6,4.4,2,5.7a7,7,0,0,0,5.5,2,9.2,9.2,0,0,0,3.6-.7,12.7,12.7,0,0,0,3.1-2l3.9,3.8a14.5,14.5,0,0,1-5,3.3,14.1,14.1,0,0,1-5.6,1.2A15.5,15.5,0,0,1,459,1138.6Z"/><path class="c" d="M506.9,1139.6a22.3,22.3,0,0,1-4.3-1.6,15.5,15.5,0,0,1-3.7-2.6l3.5-4.3a17.1,17.1,0,0,0,4.8,2.8,13.5,13.5,0,0,0,4.7.9,10.2,10.2,0,0,0,5.2-1,3.7,3.7,0,0,0,1.8-3.3,2.3,2.3,0,0,0-1-2.1,5.4,5.4,0,0,0-2.3-1l-4-.5h-1.4a28.2,28.2,0,0,1-5-.9,6.9,6.9,0,0,1-3.3-2.3,7.7,7.7,0,0,1-1.4-4.9,10.6,10.6,0,0,1,1.3-5.3,8.1,8.1,0,0,1,3.9-3.1,16.7,16.7,0,0,1,6.4-1.1,21.4,21.4,0,0,1,4.5.5,18.7,18.7,0,0,1,4,1.3,15.3,15.3,0,0,1,3.7,2.1l-3.5,4.3a20.1,20.1,0,0,0-4.4-2.2,16.8,16.8,0,0,0-4.3-.7,8.8,8.8,0,0,0-4.5,1,3.5,3.5,0,0,0-1.5,3.1,2,2,0,0,0,.9,1.8,4.4,4.4,0,0,0,2.1.8,26,26,0,0,0,3.7.4h1.1a23.8,23.8,0,0,1,5.3.8,6.9,6.9,0,0,1,3.8,2.5,9.1,9.1,0,0,1,1.4,5.4,10.1,10.1,0,0,1-1.3,5.4,8.5,8.5,0,0,1-4.2,3.1,18.1,18.1,0,0,1-7,1.1A26.5,26.5,0,0,1,506.9,1139.6Z"/><path class="c" d="M529.6,1109.8h13.5v5.3H529.6Zm4.8,28a9,9,0,0,1-1.7-5.9v-30.8h5.9V1132a2.5,2.5,0,0,0,.4,1.6,1.5,1.5,0,0,0,1.3.6h2.8v5.6h-3.4C537.3,1139.8,535.5,1139.2,534.4,1137.8Z"/><path class="c" d="M552.5,1137.8c-1.8-1.5-2.8-3.8-2.8-6.9a8.7,8.7,0,0,1,2.5-6.7c1.7-1.5,4.2-2.2,7.6-2.2h8.5l.4,4.7h-8.8a5.6,5.6,0,0,0-3.5,1,4.4,4.4,0,0,0-1.1,3.2,3.7,3.7,0,0,0,1.5,3.3c1,.8,2.5,1.1,4.6,1.1a12.9,12.9,0,0,0,5-.7,2.4,2.4,0,0,0,1.7-2.2l.6,4.2a9,9,0,0,1-1.9,2,8.1,8.1,0,0,1-2.7,1.1,11.8,11.8,0,0,1-3.4.4C557.1,1140.1,554.3,1139.3,552.5,1137.8Zm15.6-17.1a6.3,6.3,0,0,0-1.6-4.5,6,6,0,0,0-4.5-1.7,11.2,11.2,0,0,0-3.5.6,8.5,8.5,0,0,0-3,1.5l-4.3-2.9a10,10,0,0,1,4.5-3.2,15.2,15.2,0,0,1,6.2-1.2,15,15,0,0,1,6.3,1.3,9.6,9.6,0,0,1,4.1,3.9,12.1,12.1,0,0,1,1.4,6v19.2h-5.6Z"/><path class="c" d="M580.3,1109.8h13.5v5.3H580.3Zm4.7,28c-1.1-1.3-1.6-3.3-1.6-5.9v-30.8h5.8V1132a2.5,2.5,0,0,0,.5,1.6,1.4,1.4,0,0,0,1.2.6h2.9v5.6h-3.4C587.9,1139.8,586.2,1139.2,585,1137.8Z"/><path class="c" d="M607,1138.6a10.5,10.5,0,0,1-4.5-4.6,16.1,16.1,0,0,1-1.5-7.3v-3.4a18.9,18.9,0,0,1,1.4-7.5,10.8,10.8,0,0,1,4.4-4.8,12.9,12.9,0,0,1,6.8-1.7,10.9,10.9,0,0,1,6.3,1.9,11.8,11.8,0,0,1,4.1,5.4,24,24,0,0,1,1.4,8.5v2H605.2v-4.7h14.6a9.9,9.9,0,0,0-1.9-5.7,5.2,5.2,0,0,0-4.3-2.1,6.5,6.5,0,0,0-5.2,2.2,9.7,9.7,0,0,0-1.8,6.2v3.8c0,2.5.6,4.4,1.9,5.7s3.2,2,5.6,2a8.7,8.7,0,0,0,3.5-.7,13.2,13.2,0,0,0,3.2-2l3.8,3.8a15.9,15.9,0,0,1-10.5,4.5A15.2,15.2,0,0,1,607,1138.6Z"/><path class="c" d="M652.8,1121.9v5.6H633.5v-5.6Z"/><path class="c" d="M658.6,1109.8h14.9v5H658.6Zm3.1-4.1a8.5,8.5,0,0,1,1.9-5.9c1.2-1.4,3.1-2,5.6-2h4.3v5.6h-4.2a1.3,1.3,0,0,0-1.2.6,2.9,2.9,0,0,0-.5,1.7v34h-5.9Z"/><path class="c" d="M680.4,1097.8h5.9v5.9h-5.9Zm0,12h5.9v29.9h-5.9Z"/><path class="c" d="M701.1,1132a2.5,2.5,0,0,0,.5,1.6,1.6,1.6,0,0,0,1.3.6h2.8v5.6h-3.4a6.4,6.4,0,0,1-5.2-2.1,8.4,8.4,0,0,1-1.8-5.8v-34.1h5.8Z"/><path class="c" d="M717.5,1138.6a10.5,10.5,0,0,1-4.5-4.6,16.1,16.1,0,0,1-1.5-7.3v-3.4a17.3,17.3,0,0,1,1.5-7.5,10.1,10.1,0,0,1,4.3-4.8,12.9,12.9,0,0,1,6.8-1.7,11.2,11.2,0,0,1,6.4,1.9,12.4,12.4,0,0,1,4,5.4,24,24,0,0,1,1.4,8.5v2H715.7v-4.7h14.6a9.9,9.9,0,0,0-1.9-5.7,5.2,5.2,0,0,0-4.3-2.1,6.5,6.5,0,0,0-5.2,2.2,9.7,9.7,0,0,0-1.8,6.2v3.8c0,2.5.6,4.4,1.9,5.7s3.2,2,5.6,2a8.4,8.4,0,0,0,3.5-.7,13.2,13.2,0,0,0,3.2-2l3.8,3.8a15.9,15.9,0,0,1-10.5,4.5A15.5,15.5,0,0,1,717.5,1138.6Z"/><path class="c" d="M757.2,1109.8h6.2l5.3,21.3,7.4-21.3h4.1l7.5,21.3,5.3-21.3h6.1l-9.2,29.9h-4.4l-7.3-20.7-7.3,20.7h-4.5Z"/><path class="c" d="M805.4,1097.8h5.9v41.9h-5.9Zm18.2,23.8a7,7,0,0,0-1.6-4.9,6.1,6.1,0,0,0-4.7-1.8,6,6,0,0,0-4.4,1.5,5.4,5.4,0,0,0-1.6,4.3l-.6-5.8a10.3,10.3,0,0,1,3.6-4.1,8.9,8.9,0,0,1,5-1.5,9.4,9.4,0,0,1,7.5,3.2q2.7,3.1,2.7,9v18.2h-5.9Z"/><path class="c" d="M838.4,1097.8h5.9v5.9h-5.9Zm0,12h5.9v29.9h-5.9Z"/><path class="c" d="M858.3,1138.6a10.1,10.1,0,0,1-4.4-4.5,14.8,14.8,0,0,1-1.6-7v-4.9a15.4,15.4,0,0,1,1.6-7,10.2,10.2,0,0,1,4.4-4.3,13.9,13.9,0,0,1,7-1.6,16.1,16.1,0,0,1,4.4.6,15.3,15.3,0,0,1,3.7,1.6,9.6,9.6,0,0,1,2.7,2.6l-4.2,3.8a10.5,10.5,0,0,0-3-2.2,8.5,8.5,0,0,0-3.5-.8,6.6,6.6,0,0,0-7.2,7.3v4.9a7.4,7.4,0,0,0,1.9,5.5,6.9,6.9,0,0,0,5.3,1.9,8.5,8.5,0,0,0,3.5-.8,8.9,8.9,0,0,0,3-2.4l4.2,4.1a10,10,0,0,1-2.8,2.6,12.5,12.5,0,0,1-3.7,1.6,19.5,19.5,0,0,1-4.3.5A15.1,15.1,0,0,1,858.3,1138.6Z"/><path class="c" d="M882.6,1097.8h5.9v41.9h-5.9Zm18.1,23.8c0-2.2-.5-3.8-1.6-4.9a5.9,5.9,0,0,0-4.6-1.8,6.4,6.4,0,0,0-4.5,1.5,5.8,5.8,0,0,0-1.5,4.3l-.6-5.8a10.3,10.3,0,0,1,3.6-4.1,8.6,8.6,0,0,1,4.9-1.5,9.5,9.5,0,0,1,7.6,3.2c1.7,2.1,2.6,5.1,2.6,9v18.2h-5.9Z"/><path class="c" d="M222.2,1209.4a10.3,10.3,0,0,1-4.5-4.5,14.8,14.8,0,0,1-1.5-7V1193a15.4,15.4,0,0,1,1.5-7,10.4,10.4,0,0,1,4.5-4.3,13.5,13.5,0,0,1,6.9-1.6,15.1,15.1,0,0,1,4.4.6,13.8,13.8,0,0,1,3.7,1.6,11.6,11.6,0,0,1,2.8,2.6l-4.3,3.8a8.6,8.6,0,0,0-6.5-3,7.2,7.2,0,0,0-5.2,1.9,7.3,7.3,0,0,0-1.9,5.4v4.9a7.8,7.8,0,0,0,1.8,5.5,7,7,0,0,0,5.3,1.9,8.6,8.6,0,0,0,3.6-.8,9.6,9.6,0,0,0,2.9-2.4l4.3,4.1a11.6,11.6,0,0,1-2.8,2.6,13.8,13.8,0,0,1-3.7,1.6,20.4,20.4,0,0,1-4.4.5A14.7,14.7,0,0,1,222.2,1209.4Z"/><path class="c" d="M251.3,1209.4a9.2,9.2,0,0,1-4.2-4.5,15.1,15.1,0,0,1-1.5-7V1193a14.7,14.7,0,0,1,1.5-6.9,9,9,0,0,1,4.2-4.4,12.4,12.4,0,0,1,6.6-1.6,13,13,0,0,1,6.7,1.6,10,10,0,0,1,4.2,4.4,14.7,14.7,0,0,1,1.5,6.9v5a15.4,15.4,0,0,1-1.5,7,10.5,10.5,0,0,1-4.2,4.4,14.1,14.1,0,0,1-6.7,1.5A13.4,13.4,0,0,1,251.3,1209.4Zm11.4-6a8.1,8.1,0,0,0,1.7-5.4v-5a8.1,8.1,0,0,0-1.7-5.4,6.2,6.2,0,0,0-4.8-1.9,6.2,6.2,0,0,0-4.7,1.9,7.6,7.6,0,0,0-1.7,5.4v5a7.6,7.6,0,0,0,1.7,5.4,5.8,5.8,0,0,0,4.7,1.9A5.9,5.9,0,0,0,262.7,1203.4Z"/><path class="c" d="M278.6,1180.6h5.9v29.9h-5.9Zm18.2,11.8a6.6,6.6,0,0,0-1.7-4.9,5.9,5.9,0,0,0-4.6-1.8,5.7,5.7,0,0,0-4.4,1.6,5.4,5.4,0,0,0-1.6,4.2l-.6-5.7a10.6,10.6,0,0,1,3.6-4.2,8.6,8.6,0,0,1,4.9-1.5,9.5,9.5,0,0,1,7.6,3.2c1.7,2.1,2.6,5.1,2.6,9v18.2h-5.8Z"/><path class="c" d="M309.3,1180.6h13.4v5.3H309.3Zm4.7,28a9,9,0,0,1-1.7-5.9v-30.8h5.9v30.9a2.5,2.5,0,0,0,.5,1.6,1.3,1.3,0,0,0,1.2.6h2.8v5.6h-3.4C316.9,1210.6,315.2,1210,314,1208.6Z"/><path class="c" d="M332.1,1208.6q-2.7-2.2-2.7-6.9c0-3,.8-5.2,2.5-6.7s4.2-2.2,7.6-2.2H348l.4,4.7h-8.9a5.6,5.6,0,0,0-3.5,1,4.4,4.4,0,0,0-1.1,3.2,3.7,3.7,0,0,0,1.5,3.3,7.5,7.5,0,0,0,4.6,1.1,12.6,12.6,0,0,0,5-.7,2.4,2.4,0,0,0,1.7-2.2l.6,4.2a9,9,0,0,1-1.9,2,8.1,8.1,0,0,1-2.7,1.1,11.5,11.5,0,0,1-3.3.4C336.7,1210.9,333.9,1210.1,332.1,1208.6Zm15.6-17.1a5.9,5.9,0,0,0-1.6-4.5,5.7,5.7,0,0,0-4.4-1.7,10.3,10.3,0,0,0-3.5.6,8.1,8.1,0,0,0-3.1,1.5l-4.3-2.9a11.2,11.2,0,0,1,4.5-3.2,16.5,16.5,0,0,1,12.6.1,9.4,9.4,0,0,1,4,3.9,12.1,12.1,0,0,1,1.4,6v19.2h-5.6Z"/><path class="c" d="M362.2,1168.6h5.9v5.9h-5.9Zm0,12h5.9v29.9h-5.9Z"/><path class="c" d="M377,1180.6h5.9v29.9H377Zm18.2,11.8a6.6,6.6,0,0,0-1.7-4.9,5.9,5.9,0,0,0-4.6-1.8,5.7,5.7,0,0,0-4.4,1.6,5.4,5.4,0,0,0-1.6,4.2l-.6-5.7a10.6,10.6,0,0,1,3.6-4.2,8.6,8.6,0,0,1,4.9-1.5,9.5,9.5,0,0,1,7.6,3.2c1.8,2.1,2.6,5.1,2.6,9v18.2h-5.8Z"/><path class="c" d="M415.6,1210.4a20.9,20.9,0,0,1-4.4-1.6,17.8,17.8,0,0,1-3.7-2.6l3.5-4.3a17.1,17.1,0,0,0,4.8,2.8,13.6,13.6,0,0,0,4.8.9,10.4,10.4,0,0,0,5.2-1,3.8,3.8,0,0,0,1.7-3.3,2.5,2.5,0,0,0-.9-2.1,6.4,6.4,0,0,0-2.4-1l-4-.5h-1.4a27,27,0,0,1-4.9-.9,6.7,6.7,0,0,1-3.4-2.3,7.7,7.7,0,0,1-1.3-4.9,9.7,9.7,0,0,1,1.3-5.3,7.4,7.4,0,0,1,3.8-3.1,17.3,17.3,0,0,1,6.5-1.1,21.2,21.2,0,0,1,4.4.5,19.6,19.6,0,0,1,4.1,1.3,17.4,17.4,0,0,1,3.7,2.1l-3.6,4.3a18.1,18.1,0,0,0-4.4-2.2,16,16,0,0,0-4.2-.7,8.8,8.8,0,0,0-4.5,1,3.5,3.5,0,0,0-1.5,3.1,1.9,1.9,0,0,0,.8,1.8,4.8,4.8,0,0,0,2.2.8,22.7,22.7,0,0,0,3.6.4h1.1a25.7,25.7,0,0,1,5.4.8,6.7,6.7,0,0,1,3.7,2.5,8.5,8.5,0,0,1,1.5,5.4,10.1,10.1,0,0,1-1.4,5.4,8,8,0,0,1-4.2,3.1,19.2,19.2,0,0,1-6.9,1.1A25.7,25.7,0,0,1,415.6,1210.4Z"/><path class="c" d="M457.7,1208.6q-2.7-2.2-2.7-6.9c0-3,.8-5.2,2.5-6.7s4.2-2.2,7.6-2.2h8.5l.4,4.7h-8.9a5.8,5.8,0,0,0-3.5,1,4.4,4.4,0,0,0-1.1,3.2,3.7,3.7,0,0,0,1.5,3.3,7.5,7.5,0,0,0,4.6,1.1,12.6,12.6,0,0,0,5-.7,2.4,2.4,0,0,0,1.7-2.2l.6,4.2a9,9,0,0,1-1.9,2,7.6,7.6,0,0,1-2.6,1.1,12.2,12.2,0,0,1-3.4.4C462.3,1210.9,459.5,1210.1,457.7,1208.6Zm15.6-17.1a5.9,5.9,0,0,0-1.6-4.5,5.7,5.7,0,0,0-4.4-1.7,10.3,10.3,0,0,0-3.5.6,8.1,8.1,0,0,0-3.1,1.5l-4.3-2.9a11.2,11.2,0,0,1,4.5-3.2,16.5,16.5,0,0,1,12.6.1,9.4,9.4,0,0,1,4,3.9,12.1,12.1,0,0,1,1.4,6v19.2h-5.6Z"/><path class="c" d="M493.7,1202.8a2.5,2.5,0,0,0,.5,1.6,1.5,1.5,0,0,0,1.3.6h2.8v5.6h-3.5a6.7,6.7,0,0,1-5.2-2.1,8.4,8.4,0,0,1-1.8-5.8v-34.1h5.9Z"/><path class="c" d="M510.8,1202.8a2.1,2.1,0,0,0,.5,1.6,1.5,1.5,0,0,0,1.3.6h2.8v5.6h-3.5a6.7,6.7,0,0,1-5.2-2.1,8.4,8.4,0,0,1-1.8-5.8v-34.1h5.9Z"/><path class="c" d="M534.7,1180.6h6l9.1,26-3.2,6.3Zm26.4,0-12.7,36.9a10.7,10.7,0,0,1-1.8,3.2,6.2,6.2,0,0,1-2.8,1.7,11.8,11.8,0,0,1-4,.5h-1.2v-5.6h1.2a4,4,0,0,0,2.6-.7,5.8,5.8,0,0,0,1.7-2.2l11-33.8Z"/><path class="c" d="M570.6,1209.4a9.9,9.9,0,0,1-4.3-4.5,16.5,16.5,0,0,1-1.4-7V1193a16,16,0,0,1,1.4-6.9,9.6,9.6,0,0,1,4.3-4.4,12.4,12.4,0,0,1,6.6-1.6,13,13,0,0,1,6.7,1.6,10,10,0,0,1,4.2,4.4,14.7,14.7,0,0,1,1.4,6.9v5a15.4,15.4,0,0,1-1.4,7,10.5,10.5,0,0,1-4.2,4.4,14.1,14.1,0,0,1-6.7,1.5A13.4,13.4,0,0,1,570.6,1209.4Zm11.4-6a8.1,8.1,0,0,0,1.7-5.4v-5a8.1,8.1,0,0,0-1.7-5.4,6.2,6.2,0,0,0-4.8-1.9,6.6,6.6,0,0,0-4.8,1.9,8.1,8.1,0,0,0-1.6,5.4v5a8.1,8.1,0,0,0,1.6,5.4,6.2,6.2,0,0,0,4.8,1.9A5.9,5.9,0,0,0,582,1203.4Z"/><path class="c" d="M603.1,1198.7a6.7,6.7,0,0,0,1.6,4.9,5.8,5.8,0,0,0,4.5,1.7,6,6,0,0,0,4.4-1.5,5.7,5.7,0,0,0,1.6-4.4l.4,6.3a8.3,8.3,0,0,1-3,3.7,8.5,8.5,0,0,1-5.1,1.5,9.5,9.5,0,0,1-7.6-3.2q-2.7-3.2-2.7-9v-18.1h5.9Zm12.1-18.1h5.9v29.9h-5.9Z"/><path class="c" d="M630,1180.6h5.9v29.9H630Zm14.5,5.6a7.8,7.8,0,0,0-2.8-.5,5.6,5.6,0,0,0-4.3,1.6,5.7,5.7,0,0,0-1.5,4.2l-.6-5.7a11.3,11.3,0,0,1,3.5-4.2,8.6,8.6,0,0,1,4.9-1.5,11,11,0,0,1,3.7.6,8.8,8.8,0,0,1,2.9,1.8l-3.9,5.2A4,4,0,0,0,644.5,1186.2Z"/><path class="c" d="M674.9,1209.6a9.1,9.1,0,0,1-3.5-4.2,16.2,16.2,0,0,1-1.3-6.6v-6.6a16.9,16.9,0,0,1,1.2-6.6,8.9,8.9,0,0,1,3.5-4.1,9.5,9.5,0,0,1,5.4-1.4,9.2,9.2,0,0,1,4.9,1.3,12,12,0,0,1,3.5,3.9l-.6,6.1a6.6,6.6,0,0,0-.7-3.2,4.5,4.5,0,0,0-2-2.1,6.3,6.3,0,0,0-3.2-.7,5.8,5.8,0,0,0-4.5,1.8,7.8,7.8,0,0,0-1.6,5.1v6.5a7.8,7.8,0,0,0,1.6,5.1,6.1,6.1,0,0,0,4.5,1.7,6.3,6.3,0,0,0,3.2-.7,4.5,4.5,0,0,0,2-2.1,6.7,6.7,0,0,0,.7-3.3l.4,6.3a8.7,8.7,0,0,1-2.9,3.7,8.2,8.2,0,0,1-5,1.5A10.8,10.8,0,0,1,674.9,1209.6Zm13.1-41h5.9v41.9H688Z"/><path class="c" d="M708,1209.4a10.5,10.5,0,0,1-4.5-4.6,16.1,16.1,0,0,1-1.5-7.3v-3.4a17.3,17.3,0,0,1,1.4-7.5,11.2,11.2,0,0,1,4.3-4.8,13.4,13.4,0,0,1,6.8-1.7,11,11,0,0,1,6.4,1.9,11.8,11.8,0,0,1,4.1,5.4,24,24,0,0,1,1.4,8.5v2H706.2v-4.7h14.6a9.9,9.9,0,0,0-1.9-5.7,5.2,5.2,0,0,0-4.4-2.1,6.4,6.4,0,0,0-5.1,2.2,9.8,9.8,0,0,0-1.9,6.2v3.8a7.7,7.7,0,0,0,2,5.7c1.3,1.4,3.2,2,5.6,2a8.7,8.7,0,0,0,3.5-.7,11,11,0,0,0,3.1-2l3.9,3.8a15.9,15.9,0,0,1-10.5,4.5A15.2,15.2,0,0,1,708,1209.4Z"/><path class="c" d="M739.5,1209.4a10.1,10.1,0,0,1-4.4-4.5,14.8,14.8,0,0,1-1.5-7V1193a15.4,15.4,0,0,1,1.5-7,10.2,10.2,0,0,1,4.4-4.3,14.2,14.2,0,0,1,7-1.6,15.6,15.6,0,0,1,4.4.6,13.8,13.8,0,0,1,3.7,1.6,11.6,11.6,0,0,1,2.8,2.6l-4.3,3.8a8.9,8.9,0,0,0-2.9-2.2,9.4,9.4,0,0,0-3.6-.8,7.4,7.4,0,0,0-5.3,1.9,7.7,7.7,0,0,0-1.8,5.4v4.9a7.8,7.8,0,0,0,1.8,5.5,7,7,0,0,0,5.3,1.9,9,9,0,0,0,3.6-.8,9.6,9.6,0,0,0,2.9-2.4l4.3,4.1a11.6,11.6,0,0,1-2.8,2.6,13.8,13.8,0,0,1-3.7,1.6,20.4,20.4,0,0,1-4.4.5A15.4,15.4,0,0,1,739.5,1209.4Z"/><path class="c" d="M763.8,1168.6h5.9v5.9h-5.9Zm0,12h5.9v29.9h-5.9Z"/><path class="c" d="M784.2,1210.4a22.3,22.3,0,0,1-4.3-1.6,15.5,15.5,0,0,1-3.7-2.6l3.5-4.3a17.1,17.1,0,0,0,4.8,2.8,13.5,13.5,0,0,0,4.7.9,10.2,10.2,0,0,0,5.2-1,3.7,3.7,0,0,0,1.8-3.3,2.3,2.3,0,0,0-1-2.1,5.4,5.4,0,0,0-2.3-1l-4-.5h-1.4a28.2,28.2,0,0,1-5-.9,6.9,6.9,0,0,1-3.3-2.3,7.7,7.7,0,0,1-1.4-4.9,10.6,10.6,0,0,1,1.3-5.3,8.1,8.1,0,0,1,3.9-3.1,16.7,16.7,0,0,1,6.4-1.1,21.4,21.4,0,0,1,4.5.5,18.7,18.7,0,0,1,4,1.3,15.3,15.3,0,0,1,3.7,2.1l-3.5,4.3a20.1,20.1,0,0,0-4.4-2.2,16.8,16.8,0,0,0-4.3-.7,8.8,8.8,0,0,0-4.5,1,3.5,3.5,0,0,0-1.5,3.1,2,2,0,0,0,.9,1.8,4.4,4.4,0,0,0,2.1.8,26,26,0,0,0,3.7.4h1.1a23.8,23.8,0,0,1,5.3.8,6.7,6.7,0,0,1,3.7,2.5,8.5,8.5,0,0,1,1.5,5.4,10.1,10.1,0,0,1-1.3,5.4,8.5,8.5,0,0,1-4.2,3.1,20.2,20.2,0,0,1-7,1.1A26.5,26.5,0,0,1,784.2,1210.4Z"/><path class="c" d="M809.2,1168.6h5.9v5.9h-5.9Zm0,12h5.9v29.9h-5.9Z"/><path class="c" d="M828.9,1209.4a9.9,9.9,0,0,1-4.3-4.5,16.5,16.5,0,0,1-1.4-7V1193a16,16,0,0,1,1.4-6.9,9.6,9.6,0,0,1,4.3-4.4,12.4,12.4,0,0,1,6.6-1.6,13,13,0,0,1,6.7,1.6,10,10,0,0,1,4.2,4.4,14.7,14.7,0,0,1,1.4,6.9v5a15.4,15.4,0,0,1-1.4,7,10.5,10.5,0,0,1-4.2,4.4,14.1,14.1,0,0,1-6.7,1.5A13.4,13.4,0,0,1,828.9,1209.4Zm11.4-6a8.1,8.1,0,0,0,1.7-5.4v-5a8.1,8.1,0,0,0-1.7-5.4,6.2,6.2,0,0,0-4.8-1.9,6.6,6.6,0,0,0-4.8,1.9,8.1,8.1,0,0,0-1.6,5.4v5a8.1,8.1,0,0,0,1.6,5.4,6.2,6.2,0,0,0,4.8,1.9A5.9,5.9,0,0,0,840.3,1203.4Z"/><path class="c" d="M856.2,1180.6h5.9v29.9h-5.9Zm18.1,11.8c0-2.2-.5-3.8-1.6-4.9a5.9,5.9,0,0,0-4.6-1.8,6.1,6.1,0,0,0-4.5,1.6,5.7,5.7,0,0,0-1.5,4.2l-.6-5.7a10.6,10.6,0,0,1,3.6-4.2,8.6,8.6,0,0,1,4.9-1.5,9.5,9.5,0,0,1,7.6,3.2c1.7,2.1,2.6,5.1,2.6,9v18.2h-5.9Z"/><path class="c" d="M894.8,1210.4a20.9,20.9,0,0,1-4.4-1.6,15.5,15.5,0,0,1-3.7-2.6l3.5-4.3a17.1,17.1,0,0,0,4.8,2.8,13.5,13.5,0,0,0,4.7.9,10.9,10.9,0,0,0,5.3-1,3.8,3.8,0,0,0,1.7-3.3,2.3,2.3,0,0,0-1-2.1,5.4,5.4,0,0,0-2.3-1l-4-.5H898a28.2,28.2,0,0,1-5-.9,6.9,6.9,0,0,1-3.3-2.3,7.7,7.7,0,0,1-1.4-4.9,10.6,10.6,0,0,1,1.3-5.3,8.1,8.1,0,0,1,3.9-3.1,17.1,17.1,0,0,1,6.4-1.1,21.4,21.4,0,0,1,4.5.5,18.7,18.7,0,0,1,4,1.3,15.3,15.3,0,0,1,3.7,2.1l-3.5,4.3a20.1,20.1,0,0,0-4.4-2.2,16.8,16.8,0,0,0-4.3-.7,8.8,8.8,0,0,0-4.5,1,3.5,3.5,0,0,0-1.5,3.1,2,2,0,0,0,.9,1.8,4.4,4.4,0,0,0,2.1.8,26,26,0,0,0,3.7.4h1.1a25.7,25.7,0,0,1,5.4.8,7,7,0,0,1,3.7,2.5,8.5,8.5,0,0,1,1.5,5.4,10.1,10.1,0,0,1-1.4,5.4,8,8,0,0,1-4.2,3.1,19.8,19.8,0,0,1-7,1.1A25.4,25.4,0,0,1,894.8,1210.4Z"/><path class="c" d="M918.7,1204.3h6.2v9.3l-6.2,6.4Z"/><path class="c" d="M225.2,1279.4q-2.7-2.2-2.7-6.9c0-3,.8-5.2,2.5-6.7s4.2-2.2,7.6-2.2h8.5l.4,4.7h-8.9a5.3,5.3,0,0,0-3.4,1,4.1,4.1,0,0,0-1.2,3.2,3.7,3.7,0,0,0,1.5,3.3,7.5,7.5,0,0,0,4.6,1.1,13.2,13.2,0,0,0,5.1-.7,2.3,2.3,0,0,0,1.6-2.2l.6,4.2a7.2,7.2,0,0,1-1.9,2,7.6,7.6,0,0,1-2.6,1.1,12.2,12.2,0,0,1-3.4.4C229.8,1281.7,227.1,1280.9,225.2,1279.4Zm15.6-17.1a5.9,5.9,0,0,0-1.6-4.5,5.7,5.7,0,0,0-4.4-1.7,10.3,10.3,0,0,0-3.5.6,7.1,7.1,0,0,0-3,1.5l-4.3-2.9a10.3,10.3,0,0,1,4.4-3.2,15.9,15.9,0,0,1,6.2-1.2,15.5,15.5,0,0,1,6.4,1.3,8.9,8.9,0,0,1,4,3.9,12.1,12.1,0,0,1,1.4,6v19.2h-5.6Z"/><path class="c" d="M260.9,1281.2a20.1,20.1,0,0,1-4.3-1.6,15.5,15.5,0,0,1-3.7-2.6l3.5-4.3a17.1,17.1,0,0,0,4.8,2.8,13.1,13.1,0,0,0,4.7.9,10.2,10.2,0,0,0,5.2-1,3.7,3.7,0,0,0,1.8-3.3,2.3,2.3,0,0,0-1-2.1,5.4,5.4,0,0,0-2.3-1l-4-.5h-1.5a28.7,28.7,0,0,1-4.9-.9,6.9,6.9,0,0,1-3.3-2.3,7.7,7.7,0,0,1-1.4-4.9,10.6,10.6,0,0,1,1.3-5.3,8.1,8.1,0,0,1,3.9-3.1,16.7,16.7,0,0,1,6.4-1.1,22.2,22.2,0,0,1,4.5.5,18.7,18.7,0,0,1,4,1.3,15.3,15.3,0,0,1,3.7,2.1l-3.5,4.3a20.1,20.1,0,0,0-4.4-2.2,16.8,16.8,0,0,0-4.3-.7,8.8,8.8,0,0,0-4.5,1,3.5,3.5,0,0,0-1.5,3.1,2,2,0,0,0,.9,1.8,4,4,0,0,0,2.1.8,26,26,0,0,0,3.7.4h1.1a23.8,23.8,0,0,1,5.3.8,6.7,6.7,0,0,1,3.7,2.5,8.5,8.5,0,0,1,1.5,5.4,10.1,10.1,0,0,1-1.3,5.4,8.9,8.9,0,0,1-4.2,3.1,20.2,20.2,0,0,1-7,1.1A26.5,26.5,0,0,1,260.9,1281.2Z"/><path class="c" d="M299.2,1251.4h6.1l5.3,21.3,7.5-21.3h4.1l7.4,21.3,5.3-21.3h6.2l-9.3,29.9h-4.4l-7.3-20.7-7.3,20.7h-4.4Z"/><path class="c" d="M352,1280.2a10.5,10.5,0,0,1-4.5-4.6,16.1,16.1,0,0,1-1.5-7.3v-3.4a18.9,18.9,0,0,1,1.4-7.5,10.8,10.8,0,0,1,4.4-4.8,12.9,12.9,0,0,1,6.8-1.7,10.7,10.7,0,0,1,6.3,1.9,11.8,11.8,0,0,1,4.1,5.4,24,24,0,0,1,1.4,8.5v2H350.2V1264h14.6a9.9,9.9,0,0,0-1.9-5.7,5.2,5.2,0,0,0-4.3-2.1,6.5,6.5,0,0,0-5.2,2.2,9.7,9.7,0,0,0-1.8,6.2v3.8c0,2.5.6,4.4,1.9,5.7s3.2,2,5.6,2a8.7,8.7,0,0,0,3.5-.7,13.2,13.2,0,0,0,3.2-2l3.8,3.8a15.9,15.9,0,0,1-10.5,4.5A15.2,15.2,0,0,1,352,1280.2Z"/><path class="c" d="M384.3,1273.6a2.5,2.5,0,0,0,.5,1.6,1.7,1.7,0,0,0,1.4.6h2.7v5.6h-3.4a6.4,6.4,0,0,1-5.2-2.1,8.4,8.4,0,0,1-1.8-5.8v-34.1h5.8Z"/><path class="c" d="M401.4,1273.6a2.5,2.5,0,0,0,.5,1.6,1.6,1.6,0,0,0,1.3.6H406v5.6h-3.5a6.4,6.4,0,0,1-5.1-2.1,8.4,8.4,0,0,1-1.9-5.8v-34.1h5.9Z"/><path class="c" d="M429.8,1279.4c-1.9-1.5-2.8-3.8-2.8-6.9a8.7,8.7,0,0,1,2.5-6.7c1.7-1.5,4.2-2.2,7.6-2.2h8.5l.4,4.7h-8.9a5.5,5.5,0,0,0-3.4,1,4,4,0,0,0-1.1,3.2,3.7,3.7,0,0,0,1.5,3.3c1,.8,2.5,1.1,4.6,1.1a12.9,12.9,0,0,0,5-.7,2.4,2.4,0,0,0,1.7-2.2l.6,4.2a9.5,9.5,0,0,1-2,2,6.8,6.8,0,0,1-2.6,1.1,11.8,11.8,0,0,1-3.4.4C434.3,1281.7,431.6,1280.9,429.8,1279.4Zm15.6-17.1a6.3,6.3,0,0,0-1.6-4.5,6,6,0,0,0-4.5-1.7,10.7,10.7,0,0,0-3.5.6,8.5,8.5,0,0,0-3,1.5l-4.3-2.9a10,10,0,0,1,4.5-3.2,15.2,15.2,0,0,1,6.2-1.2,15,15,0,0,1,6.3,1.3,9.6,9.6,0,0,1,4.1,3.9,12.1,12.1,0,0,1,1.3,6v19.2h-5.5Z"/><path class="c" d="M465.5,1281.2a20.9,20.9,0,0,1-4.4-1.6,17.8,17.8,0,0,1-3.7-2.6l3.5-4.3a17.1,17.1,0,0,0,4.8,2.8,13.5,13.5,0,0,0,4.7.9,10.6,10.6,0,0,0,5.3-1,3.8,3.8,0,0,0,1.7-3.3,2.5,2.5,0,0,0-.9-2.1,6.4,6.4,0,0,0-2.4-1l-4-.5h-1.4a25.4,25.4,0,0,1-4.9-.9,6.7,6.7,0,0,1-3.4-2.3,7.7,7.7,0,0,1-1.3-4.9,9.7,9.7,0,0,1,1.3-5.3,7.4,7.4,0,0,1,3.8-3.1,17.1,17.1,0,0,1,6.4-1.1,21.4,21.4,0,0,1,4.5.5,17,17,0,0,1,4,1.3,15.8,15.8,0,0,1,3.8,2.1l-3.6,4.3a20.1,20.1,0,0,0-4.4-2.2,16.8,16.8,0,0,0-4.3-.7,8.7,8.7,0,0,0-4.4,1,3.5,3.5,0,0,0-1.5,3.1,1.9,1.9,0,0,0,.8,1.8,4.8,4.8,0,0,0,2.2.8,22.7,22.7,0,0,0,3.6.4h1a.1.1,0,0,1,.1.1,25.7,25.7,0,0,1,5.4.8,7,7,0,0,1,3.7,2.5,8.5,8.5,0,0,1,1.5,5.4,10.1,10.1,0,0,1-1.4,5.4,8,8,0,0,1-4.2,3.1,19.4,19.4,0,0,1-7,1.1A25.4,25.4,0,0,1,465.5,1281.2Z"/><path class="c" d="M507.6,1279.4q-2.7-2.2-2.7-6.9c0-3,.8-5.2,2.5-6.7s4.2-2.2,7.6-2.2h8.5l.4,4.7H515a5.6,5.6,0,0,0-3.5,1,4.4,4.4,0,0,0-1.1,3.2,3.7,3.7,0,0,0,1.5,3.3,7.5,7.5,0,0,0,4.6,1.1,12.6,12.6,0,0,0,5-.7,2.4,2.4,0,0,0,1.7-2.2l.6,4.2a9,9,0,0,1-1.9,2,8.1,8.1,0,0,1-2.7,1.1,11.5,11.5,0,0,1-3.3.4C512.2,1281.7,509.4,1280.9,507.6,1279.4Zm15.6-17.1a5.9,5.9,0,0,0-1.6-4.5,5.7,5.7,0,0,0-4.4-1.7,10.3,10.3,0,0,0-3.5.6,8.1,8.1,0,0,0-3.1,1.5l-4.3-2.9a11.2,11.2,0,0,1,4.5-3.2,16.5,16.5,0,0,1,12.6.1,9.4,9.4,0,0,1,4,3.9,12.1,12.1,0,0,1,1.4,6v19.2h-5.6Z"/><path class="c" d="M543.6,1273.6a2.1,2.1,0,0,0,.5,1.6,1.5,1.5,0,0,0,1.3.6h2.8v5.6h-3.5a6.7,6.7,0,0,1-5.2-2.1,8.4,8.4,0,0,1-1.8-5.8v-34.1h5.9Z"/><path class="c" d="M560.7,1273.6a2.1,2.1,0,0,0,.5,1.6,1.5,1.5,0,0,0,1.3.6h2.8v5.6h-3.5a6.6,6.6,0,0,1-5.2-2.1,8.4,8.4,0,0,1-1.8-5.8v-34.1h5.9Z"/><path class="c" d="M585.4,1251.4h13.5v5.3H585.4Zm4.8,28a9,9,0,0,1-1.7-5.9v-30.8h5.9v30.9a2.5,2.5,0,0,0,.4,1.6,1.5,1.5,0,0,0,1.3.6h2.8v5.6h-3.4C593.1,1281.4,591.3,1280.8,590.2,1279.4Z"/><path class="c" d="M607,1239.4h5.8v41.9H607Zm18.1,23.8c0-2.2-.5-3.8-1.6-4.9a6,6,0,0,0-4.6-1.8,6.3,6.3,0,0,0-4.5,1.5,5.8,5.8,0,0,0-1.6,4.3l-.6-5.8a11.4,11.4,0,0,1,3.7-4.1,8.4,8.4,0,0,1,4.9-1.5,9.2,9.2,0,0,1,7.5,3.2q2.7,3.2,2.7,9v18.2h-5.9Z"/><path class="c" d="M645.1,1280.2a10.5,10.5,0,0,1-4.5-4.6,16.1,16.1,0,0,1-1.5-7.3v-3.4a18.9,18.9,0,0,1,1.4-7.5,10.8,10.8,0,0,1,4.4-4.8,12.9,12.9,0,0,1,6.8-1.7,10.7,10.7,0,0,1,6.3,1.9,11.8,11.8,0,0,1,4.1,5.4,24,24,0,0,1,1.4,8.5v2H643.3V1264h14.6a9.9,9.9,0,0,0-1.9-5.7,5.2,5.2,0,0,0-4.3-2.1,6.5,6.5,0,0,0-5.2,2.2,9.7,9.7,0,0,0-1.8,6.2v3.8c0,2.5.6,4.4,1.9,5.7s3.2,2,5.6,2a8.7,8.7,0,0,0,3.5-.7,13.2,13.2,0,0,0,3.2-2l3.8,3.8a15.9,15.9,0,0,1-10.5,4.5A15.2,15.2,0,0,1,645.1,1280.2Z"/><path class="c" d="M685.1,1251.4h13.5v5.3H685.1Zm4.8,28c-1.2-1.3-1.7-3.3-1.7-5.9v-30.8h5.9v30.9a2.5,2.5,0,0,0,.4,1.6,1.5,1.5,0,0,0,1.3.6h2.8v5.6h-3.4C692.8,1281.4,691,1280.8,689.9,1279.4Z"/><path class="c" d="M711.8,1280.2a11.1,11.1,0,0,1-4.5-4.6,16.1,16.1,0,0,1-1.5-7.3v-3.4a17.3,17.3,0,0,1,1.5-7.5,10.6,10.6,0,0,1,4.3-4.8,13.2,13.2,0,0,1,6.8-1.7,11.2,11.2,0,0,1,6.4,1.9,12.4,12.4,0,0,1,4,5.4,24,24,0,0,1,1.4,8.5v2H710V1264h14.6a9.2,9.2,0,0,0-1.9-5.7,5,5,0,0,0-4.3-2.1,6.5,6.5,0,0,0-5.2,2.2,9.7,9.7,0,0,0-1.8,6.2v3.8c0,2.5.6,4.4,1.9,5.7s3.2,2,5.6,2a8.4,8.4,0,0,0,3.5-.7,11.6,11.6,0,0,0,3.2-2l3.8,3.8a13.3,13.3,0,0,1-4.9,3.3,14.1,14.1,0,0,1-5.6,1.2A15.5,15.5,0,0,1,711.8,1280.2Z"/><path class="c" d="M743.4,1280.2a10.3,10.3,0,0,1-4.5-4.5,14.8,14.8,0,0,1-1.5-7v-4.9a15.4,15.4,0,0,1,1.5-7,10.4,10.4,0,0,1,4.5-4.3,13.7,13.7,0,0,1,7-1.6,14.9,14.9,0,0,1,4.3.6,12.5,12.5,0,0,1,3.7,1.6,10,10,0,0,1,2.8,2.6l-4.3,3.8a8.6,8.6,0,0,0-6.5-3,7.2,7.2,0,0,0-5.2,1.9,7.3,7.3,0,0,0-1.9,5.4v4.9a7.4,7.4,0,0,0,1.9,5.5,6.8,6.8,0,0,0,5.2,1.9,8.6,8.6,0,0,0,3.6-.8,9.6,9.6,0,0,0,2.9-2.4l4.3,4.1a11.6,11.6,0,0,1-2.8,2.6,13.8,13.8,0,0,1-3.7,1.6,20.2,20.2,0,0,1-4.3.5A14.8,14.8,0,0,1,743.4,1280.2Z"/><path class="c" d="M767.7,1239.4h5.8v41.9h-5.8Zm18.1,23.8c0-2.2-.5-3.8-1.6-4.9a6,6,0,0,0-4.6-1.8,6.3,6.3,0,0,0-4.5,1.5,5.8,5.8,0,0,0-1.6,4.3l-.6-5.8a11.4,11.4,0,0,1,3.7-4.1,8.4,8.4,0,0,1,4.9-1.5,9.2,9.2,0,0,1,7.5,3.2q2.7,3.2,2.7,9v18.2h-5.9Z"/><path class="c" d="M800.6,1251.4h5.9v29.9h-5.9Zm18.2,11.8a6.6,6.6,0,0,0-1.7-4.9,5.9,5.9,0,0,0-4.6-1.8,5.7,5.7,0,0,0-4.4,1.6,5.4,5.4,0,0,0-1.6,4.2l-.6-5.7a10.6,10.6,0,0,1,3.6-4.2,8.7,8.7,0,0,1,5-1.5,9.4,9.4,0,0,1,7.5,3.2c1.8,2.1,2.6,5.1,2.6,9v18.2h-5.8Z"/><path class="c" d="M833.6,1239.4h5.9v5.9h-5.9Zm0,12h5.9v29.9h-5.9Z"/><path class="c" d="M853.5,1280.2a10.3,10.3,0,0,1-4.5-4.5,14.8,14.8,0,0,1-1.5-7v-4.9a15.4,15.4,0,0,1,1.5-7,10.4,10.4,0,0,1,4.5-4.3,13.7,13.7,0,0,1,7-1.6,16.1,16.1,0,0,1,4.4.6,15.3,15.3,0,0,1,3.7,1.6,11.1,11.1,0,0,1,2.7,2.6l-4.2,3.8a10.5,10.5,0,0,0-3-2.2,8.6,8.6,0,0,0-3.6-.8,7.2,7.2,0,0,0-5.2,1.9,7.3,7.3,0,0,0-1.9,5.4v4.9a7.4,7.4,0,0,0,1.9,5.5,6.8,6.8,0,0,0,5.2,1.9,8.6,8.6,0,0,0,3.6-.8,11.3,11.3,0,0,0,3-2.4l4.2,4.1a11.6,11.6,0,0,1-2.8,2.6,13.8,13.8,0,0,1-3.7,1.6,20.2,20.2,0,0,1-4.3.5A14.8,14.8,0,0,1,853.5,1280.2Z"/><path class="c" d="M879.1,1279.4c-1.9-1.5-2.8-3.8-2.8-6.9a8.7,8.7,0,0,1,2.5-6.7c1.7-1.5,4.2-2.2,7.6-2.2h8.5l.4,4.7h-8.9a5.5,5.5,0,0,0-3.4,1,4,4,0,0,0-1.1,3.2,3.7,3.7,0,0,0,1.5,3.3c1,.8,2.5,1.1,4.6,1.1a12.9,12.9,0,0,0,5-.7,2.4,2.4,0,0,0,1.7-2.2l.6,4.2a9.5,9.5,0,0,1-2,2,6.8,6.8,0,0,1-2.6,1.1,11.8,11.8,0,0,1-3.4.4C883.6,1281.7,880.9,1280.9,879.1,1279.4Zm15.6-17.1a6.3,6.3,0,0,0-1.6-4.5,6,6,0,0,0-4.5-1.7,10.7,10.7,0,0,0-3.5.6,8.5,8.5,0,0,0-3,1.5l-4.3-2.9a10,10,0,0,1,4.5-3.2,15.2,15.2,0,0,1,6.2-1.2,15,15,0,0,1,6.3,1.3,9.6,9.6,0,0,1,4.1,3.9,12.1,12.1,0,0,1,1.3,6v19.2h-5.5Z"/><path class="c" d="M915.1,1273.6a2.5,2.5,0,0,0,.4,1.6,1.7,1.7,0,0,0,1.4.6h2.7v5.6h-3.4a6.4,6.4,0,0,1-5.2-2.1,8.4,8.4,0,0,1-1.8-5.8v-34.1h5.9Z"/><path class="c" d="M423.1,1310.2H429v5.9h-5.9Zm0,12H429v29.9h-5.9Z"/><path class="c" d="M437.9,1322.2h5.9v29.9h-5.9ZM456,1334c0-2.2-.5-3.8-1.6-4.9a5.9,5.9,0,0,0-4.6-1.8,6.1,6.1,0,0,0-4.5,1.6,5.7,5.7,0,0,0-1.5,4.2l-.6-5.7a10.6,10.6,0,0,1,3.6-4.2,8.6,8.6,0,0,1,4.9-1.5,9.5,9.5,0,0,1,7.6,3.2c1.7,2.1,2.6,5.1,2.6,9v18.2H456Z"/><path class="c" d="M468.5,1322.2h15v5h-15Zm3.2-4.1c0-2.6.6-4.6,1.8-5.9s3.1-2,5.7-2h4.3v5.6h-4.2a1.5,1.5,0,0,0-1.3.6,2.7,2.7,0,0,0-.4,1.6v34.1h-5.9Z"/><path class="c" d="M493.5,1351a9.2,9.2,0,0,1-4.2-4.5,15.1,15.1,0,0,1-1.5-7v-4.9a14.7,14.7,0,0,1,1.5-6.9,9,9,0,0,1,4.2-4.4,12.7,12.7,0,0,1,6.6-1.6,12.8,12.8,0,0,1,6.7,1.6,9.4,9.4,0,0,1,4.2,4.4,14.7,14.7,0,0,1,1.5,6.9v5a15.4,15.4,0,0,1-1.5,7,9.9,9.9,0,0,1-4.2,4.4,15.5,15.5,0,0,1-13.3,0Zm11.4-6a8.1,8.1,0,0,0,1.7-5.4v-5a8.1,8.1,0,0,0-1.7-5.4,6.2,6.2,0,0,0-4.8-1.9,6.2,6.2,0,0,0-4.7,1.9,8.1,8.1,0,0,0-1.7,5.4v5a8.1,8.1,0,0,0,1.7,5.4,5.8,5.8,0,0,0,4.7,1.9A5.9,5.9,0,0,0,504.9,1345Z"/><path class="c" d="M520.8,1322.2h5.9v29.9h-5.9Zm14.5,5.6a7.6,7.6,0,0,0-2.7-.5,5.4,5.4,0,0,0-4.3,1.6,5.4,5.4,0,0,0-1.6,4.2l-.6-5.7a10.6,10.6,0,0,1,3.6-4.2,8.1,8.1,0,0,1,4.8-1.5,10.6,10.6,0,0,1,3.7.6,7.9,7.9,0,0,1,2.9,1.8l-3.8,5.2A4.3,4.3,0,0,0,535.3,1327.8Z"/><path class="c" d="M546,1322.2h5.9v29.9H546Zm17.9,11.8c0-2.2-.5-3.8-1.6-4.9a5.4,5.4,0,0,0-4.4-1.8,5.7,5.7,0,0,0-4.4,1.6,5.4,5.4,0,0,0-1.6,4.2l-.6-5.7a10.6,10.6,0,0,1,3.6-4.2,8.6,8.6,0,0,1,4.9-1.5,9.5,9.5,0,0,1,5.4,1.5,8.7,8.7,0,0,1,3.4,4.1,16.9,16.9,0,0,1,1.1,6.6v18.2h-5.8Zm17.8,0c0-2.2-.5-3.8-1.6-4.9a5.9,5.9,0,0,0-4.6-1.8,5.6,5.6,0,0,0-4.3,1.7,6.8,6.8,0,0,0-1.5,4.7l-1.1-5.7a11.4,11.4,0,0,1,3.7-4.6,8.5,8.5,0,0,1,5.1-1.7,9.6,9.6,0,0,1,5.5,1.5,8.3,8.3,0,0,1,3.5,4.1,16.9,16.9,0,0,1,1.2,6.6v18.2h-5.9Z"/><path class="c" d="M597.8,1350.2q-2.7-2.2-2.7-6.9c0-3,.8-5.2,2.5-6.7s4.2-2.2,7.6-2.2h8.5l.4,4.7h-8.9a5.3,5.3,0,0,0-3.4,1,4.1,4.1,0,0,0-1.2,3.2,3.7,3.7,0,0,0,1.5,3.3,7.7,7.7,0,0,0,4.6,1.1,13.2,13.2,0,0,0,5.1-.7,2.3,2.3,0,0,0,1.6-2.2l.6,4.2a7.2,7.2,0,0,1-1.9,2,6.8,6.8,0,0,1-2.6,1.1,11.8,11.8,0,0,1-3.4.4C602.4,1352.5,599.7,1351.7,597.8,1350.2Zm15.6-17.1a6.3,6.3,0,0,0-1.5-4.5,6.1,6.1,0,0,0-4.5-1.7,10.3,10.3,0,0,0-3.5.6,7.7,7.7,0,0,0-3,1.5l-4.3-2.9a10,10,0,0,1,4.5-3.2,15.1,15.1,0,0,1,6.1-1.2,15.5,15.5,0,0,1,6.4,1.3,8.9,8.9,0,0,1,4,3.9,11.1,11.1,0,0,1,1.4,6v19.2h-5.6Z"/><path class="c" d="M625.6,1322.2h13.5v5.3H625.6Zm4.8,28a9,9,0,0,1-1.7-5.9v-30.8h5.9v30.9a2.5,2.5,0,0,0,.4,1.6,1.5,1.5,0,0,0,1.3.6h2.8v5.6h-3.4C633.3,1352.2,631.5,1351.5,630.4,1350.2Z"/><path class="c" d="M647.2,1310.2h5.9v5.9h-5.9Zm0,12h5.9v29.9h-5.9Z"/><path class="c" d="M666.8,1351a10.2,10.2,0,0,1-4.2-4.5,15.1,15.1,0,0,1-1.5-7v-4.9a14.7,14.7,0,0,1,1.5-6.9,10,10,0,0,1,4.2-4.4,12.8,12.8,0,0,1,6.7-1.6,12.4,12.4,0,0,1,6.6,1.6,9,9,0,0,1,4.2,4.4,14.7,14.7,0,0,1,1.5,6.9v5a15.4,15.4,0,0,1-1.5,7,9.4,9.4,0,0,1-4.2,4.4,13.4,13.4,0,0,1-6.6,1.5A13.8,13.8,0,0,1,666.8,1351Zm11.4-6a7.6,7.6,0,0,0,1.7-5.4v-5a7.6,7.6,0,0,0-1.7-5.4,6.2,6.2,0,0,0-4.7-1.9,6.2,6.2,0,0,0-4.8,1.9,8.1,8.1,0,0,0-1.7,5.4v5a8.1,8.1,0,0,0,1.7,5.4,5.9,5.9,0,0,0,4.8,1.9A5.8,5.8,0,0,0,678.2,1345Z"/><path class="c" d="M694.1,1322.2H700v29.9h-5.9Zm18.2,11.8a7,7,0,0,0-1.6-4.9,6.1,6.1,0,0,0-4.7-1.8,5.7,5.7,0,0,0-4.4,1.6,5.4,5.4,0,0,0-1.6,4.2l-.6-5.7a10.6,10.6,0,0,1,3.6-4.2,8.9,8.9,0,0,1,5-1.5,9.4,9.4,0,0,1,7.5,3.2q2.7,3.1,2.7,9v18.2h-5.9Z"/><path class="d" d="M622.3,257.7c-33.2-11.5-70.6-9.8-103.3,1.4s-60.9,31.7-83.6,56.1C379.9,374.8,358,460,378.2,537.9c12.1,46.7,39.4,91.3,80.9,120.7s97.8,42.1,146.8,27.8c36.7-10.6,66.9-35.1,89.5-63.6,44-55.9,60.8-129.7,45.3-198.4s-55.8-144.8-118-166.3"/><path class="e" d="M625.9,244.7c-47.6-16.3-101.2-7.7-144.5,16.6-38.9,22-71.2,56.3-92.5,95.5a257.1,257.1,0,0,0-31.6,125.8c.6,43.5,12.7,87,35.5,124.1a218.9,218.9,0,0,0,42.6,50.4,202.9,202.9,0,0,0,60.3,36,191.6,191.6,0,0,0,66.1,12.7,181.2,181.2,0,0,0,34.4-3.1A160.2,160.2,0,0,0,629.8,692c40.8-17.6,73.7-51.8,95.8-89.8a252.6,252.6,0,0,0,34.2-130c-.6-42.8-12.9-85.3-31.2-123.7-17.1-35.9-41.9-70.3-76.3-91.3a131.6,131.6,0,0,0-26.1-12.1c-6.6-2.4-15,2.6-16.6,9.4s2.3,14.1,9.5,16.6q3.4,1.2,6.9,2.7l-3.2-1.4a130.1,130.1,0,0,1,28.3,16.7l-2.8-2.1a175.5,175.5,0,0,1,30.8,31.3l-2.1-2.7c14,18.1,25.1,38.4,34,59.5l-1.3-3.3c10.2,24.3,18,50,21.5,76.2l-.4-3.6a237.8,237.8,0,0,1-.1,62.5l.5-3.6a243.5,243.5,0,0,1-16.8,61.6l1.3-3.3A239.6,239.6,0,0,1,685,614.3l2.1-2.8a210.2,210.2,0,0,1-37.2,37.6l2.8-2.1a169.9,169.9,0,0,1-37.2,21.9l3.2-1.3a149.8,149.8,0,0,1-37.9,10.3l3.6-.5a170.4,170.4,0,0,1-43.4-.1l3.6.4a187,187,0,0,1-47.5-13l3.2,1.3a180.2,180.2,0,0,1-40.5-23.6l2.7,2.1a201.6,201.6,0,0,1-35.7-35.8l2.1,2.7a222.2,222.2,0,0,1-28.4-48.8l1.4,3.2a230.1,230.1,0,0,1-16-58.7l.5,3.6a235.8,235.8,0,0,1,.1-62.8l-.5,3.6A242.5,242.5,0,0,1,403.1,389l-1.4,3.2a244.6,244.6,0,0,1,31.2-53.5l-2.1,2.7A234.7,234.7,0,0,1,473,299.1l-2.8,2.1a204.4,204.4,0,0,1,44.2-26l-3.2,1.4a173,173,0,0,1,44.1-12.2l-3.6.5a166.5,166.5,0,0,1,42.9-.2l-3.6-.4a139.4,139.4,0,0,1,27.7,6.5c6.7,2.3,15.1-2.7,16.6-9.5a13.8,13.8,0,0,0-9.4-16.6Z"/><path class="a" d="M745.9,424.4c-15.5-68.8-55.8-144.8-118-166.3l-.4-.4a149.9,149.9,0,0,0-57.6-7.6c4,.6,8,1.2,12,2,33.9,6.7,66.9,24.1,89.8,50.7v.5c42.9,49.9,39.4,135.8,18.2,202.9S617.2,628.6,551.1,654.6c-22,8.7-45.9,14.2-70.1,14.5,39.2,21.7,87.5,29.7,130.1,17.3,36.7-10.6,67-35.1,89.5-63.6C744.6,566.9,761.5,493.1,745.9,424.4Z"/><path class="e" d="M625.9,244.7c-47.6-16.3-101.2-7.7-144.5,16.6-38.9,22-71.2,56.3-92.5,95.5a257.1,257.1,0,0,0-31.6,125.8c.6,43.5,12.7,87,35.5,124.1a218.9,218.9,0,0,0,42.6,50.4,202.9,202.9,0,0,0,60.3,36,191.6,191.6,0,0,0,66.1,12.7,181.2,181.2,0,0,0,34.4-3.1A160.2,160.2,0,0,0,629.8,692c40.8-17.6,73.7-51.8,95.8-89.8a252.6,252.6,0,0,0,34.2-130c-.6-42.8-12.9-85.3-31.2-123.7-17.1-35.9-41.9-70.3-76.3-91.3a131.6,131.6,0,0,0-26.1-12.1c-6.6-2.4-15,2.6-16.6,9.4s2.3,14.1,9.5,16.6q3.4,1.2,6.9,2.7l-3.2-1.4a130.1,130.1,0,0,1,28.3,16.7l-2.8-2.1a175.5,175.5,0,0,1,30.8,31.3l-2.1-2.7c14,18.1,25.1,38.4,34,59.5l-1.3-3.3c10.2,24.3,18,50,21.5,76.2l-.4-3.6a237.8,237.8,0,0,1-.1,62.5l.5-3.6a243.5,243.5,0,0,1-16.8,61.6l1.3-3.3A239.6,239.6,0,0,1,685,614.3l2.1-2.8a210.2,210.2,0,0,1-37.2,37.6l2.8-2.1a169.9,169.9,0,0,1-37.2,21.9l3.2-1.3a149.8,149.8,0,0,1-37.9,10.3l3.6-.5a170.4,170.4,0,0,1-43.4-.1l3.6.4a187,187,0,0,1-47.5-13l3.2,1.3a180.2,180.2,0,0,1-40.5-23.6l2.7,2.1a201.6,201.6,0,0,1-35.7-35.8l2.1,2.7a222.2,222.2,0,0,1-28.4-48.8l1.4,3.2a230.1,230.1,0,0,1-16-58.7l.5,3.6a235.8,235.8,0,0,1,.1-62.8l-.5,3.6A242.5,242.5,0,0,1,403.1,389l-1.4,3.2a244.6,244.6,0,0,1,31.2-53.5l-2.1,2.7A234.7,234.7,0,0,1,473,299.1l-2.8,2.1a204.4,204.4,0,0,1,44.2-26l-3.2,1.4a173,173,0,0,1,44.1-12.2l-3.6.5a166.5,166.5,0,0,1,42.9-.2l-3.6-.4a139.4,139.4,0,0,1,27.7,6.5c6.7,2.3,15.1-2.7,16.6-9.5a13.8,13.8,0,0,0-9.4-16.6Z"/><ellipse class="f" cx="630.4" cy="729.4" rx="67.4" ry="40.2"/><path class="a" d="M683.6,725.3c-4.1-13.3-18.4-30-43.8-39h-.1a152.2,152.2,0,0,0-23.9-6.2l4.9,1.4c14,4,27.3,9.8,36,16.4h0c16.3,12.3,11.8,27.1.5,37.1s-34.9,15.3-63.5,14.3a199.3,199.3,0,0,1-30-3.3,169.1,169.1,0,0,0,54.1,13.9c15.8,1.2,29.3-.5,39.8-3.6C678,750.2,687.7,738.7,683.6,725.3Z"/><ellipse class="g" cx="627.4" cy="727.9" rx="67.4" ry="40.2"/><ellipse class="f" cx="491.4" cy="729.4" rx="67.4" ry="40.2"/><path class="a" d="M544.6,725.3c-4.1-13.3-18.4-30-43.8-39h-.1a152.2,152.2,0,0,0-23.9-6.2l4.9,1.4c14,4,27.3,9.8,36,16.4h0c16.3,12.3,11.8,27.1.6,37.1s-34.9,15.3-63.6,14.3a198.1,198.1,0,0,1-29.9-3.3,167.8,167.8,0,0,0,54,13.9c15.8,1.2,29.3-.5,39.8-3.6C539,750.2,548.7,738.7,544.6,725.3Z"/><ellipse class="g" cx="488.4" cy="727.9" rx="67.4" ry="40.2"/><path class="d" d="M776.2,156c-11.2-11.5-31.6-18.4-52.3-19.9s-41.8,2.2-60.5,8.3c-45.8,14.9-69,70.2-79.1,102.4l-1.4,1.8.3.3c19-16.9,48.6-39.4,75.6-41.1,20.2-1.4,40.7,1,61.1.8s42.3-3.9,55-14.3S787.4,167.5,776.2,156Z"/><path class="e" d="M785.8,146.4c-7.6-7.7-17.2-12.8-27.2-16.6s-21.1-5.9-31.9-7-23.8-.2-35.6,1.4a169,169,0,0,0-31.3,7.2,104.4,104.4,0,0,0-43.1,27.9c-11.1,11.7-20.2,25.4-27.6,39.8a279.9,279.9,0,0,0-16.6,40.1l-1.2,4,1.3-3.3-1.4,1.9-1.3,3.2a10,10,0,0,0-.3,5.4,13.9,13.9,0,0,0,3.7,7.8l.4.3a13.6,13.6,0,0,0,9.5,3.9,15,15,0,0,0,9.6-3.9c5-4.5,10.1-8.8,15.4-12.8l-2.7,2.1c11.2-8.7,23.2-16.7,36.3-22.2l-3.2,1.3a82.7,82.7,0,0,1,20.1-5.8l-3.6.5a130,130,0,0,1,18.7-.7c6.6,0,13.3.3,19.9.6,12.5.5,25.1,1.1,37.6.1s24.1-2.7,35.2-7.3a91.8,91.8,0,0,0,9.5-4.4,76.1,76.1,0,0,0,8.2-5.8,41.5,41.5,0,0,0,7.1-8,36.7,36.7,0,0,0,4.7-9c2.6-6.7,2.6-14.4.9-21.3a44.4,44.4,0,0,0-11.1-19.4,13.8,13.8,0,0,0-19.2,0c-2.3,2.6-4.1,6-3.9,9.6a15,15,0,0,0,3.9,9.6,21.8,21.8,0,0,1,2.5,2.8l-2.1-2.7a28.1,28.1,0,0,1,3.9,6.4l-1.4-3.2a25.2,25.2,0,0,1,1.8,6.5l-.5-3.6a26.6,26.6,0,0,1,.1,6.3l.4-3.6a23.6,23.6,0,0,1-1.5,5.8l1.3-3.3a25.6,25.6,0,0,1-3.3,5.8l2.1-2.8a37.7,37.7,0,0,1-5.7,5.6l2.8-2.1a54.3,54.3,0,0,1-10.5,5.9l3.2-1.3a94,94,0,0,1-24,6.1l3.6-.5c-24.3,3.2-48.8-.4-73.2.2a113.8,113.8,0,0,0-19.3,2,89.6,89.6,0,0,0-14.2,4.4,162.7,162.7,0,0,0-30.4,16.5,282.7,282.7,0,0,0-28.5,22.6h19.1l-.3-.4,2.1,16.4a13.1,13.1,0,0,0,2.7-5.1c.4-1,.7-2.1,1.1-3.2s1.5-4.6,2.3-6.9c1.8-5.1,3.8-10.2,5.9-15.2l-1.4,3.3a203.2,203.2,0,0,1,17.7-33.6c2.1-3.1,4.2-6.1,6.5-9.1l-2.1,2.8a113.8,113.8,0,0,1,20.6-21l-2.8,2.1A89.3,89.3,0,0,1,664,158.4l-3.3,1.4a130.9,130.9,0,0,1,17.1-5.5,181.3,181.3,0,0,1,20.5-4.1l-3.6.5a140.1,140.1,0,0,1,36.6-.3l-3.6-.5a106.4,106.4,0,0,1,25.9,6.8l-3.2-1.3a65.1,65.1,0,0,1,14.3,8.1l-2.7-2.1a45.8,45.8,0,0,1,4.6,4.2,14.4,14.4,0,0,0,9.6,3.9,14.3,14.3,0,0,0,9.6-3.9c2.3-2.6,4.1-6,3.9-9.6A14.4,14.4,0,0,0,785.8,146.4Z"/><path class="a" d="M767.4,144.4a29.2,29.2,0,0,1-6.3,16.8c-10.2,13.2-30.1,20.5-49.1,24s-38.4,4.3-57.1,8.9c-8.6,2.2-17,7-25.1,13.2a34.3,34.3,0,0,1,6.3,8.3c7.8-4.5,15.8-7.8,23.7-8.9,19.1-2.6,38.5-1.2,57.7-2.7s39.7-6.6,50.9-18.5S778.5,156.2,767.4,144.4Z"/><path class="e" d="M785.8,146.4c-7.6-7.7-17.2-12.8-27.2-16.6s-21.1-5.9-31.9-7-23.8-.2-35.6,1.4a169,169,0,0,0-31.3,7.2,104.4,104.4,0,0,0-43.1,27.9c-11.1,11.7-20.2,25.4-27.6,39.8a279.9,279.9,0,0,0-16.6,40.1l-1.2,4,1.3-3.3-1.4,1.9-1.3,3.2a10,10,0,0,0-.3,5.4,13.9,13.9,0,0,0,3.7,7.8l.4.3a13.6,13.6,0,0,0,9.5,3.9,15,15,0,0,0,9.6-3.9c5-4.5,10.1-8.8,15.4-12.8l-2.7,2.1c11.2-8.7,23.2-16.7,36.3-22.2l-3.2,1.3a82.7,82.7,0,0,1,20.1-5.8l-3.6.5a130,130,0,0,1,18.7-.7c6.6,0,13.3.3,19.9.6,12.5.5,25.1,1.1,37.6.1s24.1-2.7,35.2-7.3a91.8,91.8,0,0,0,9.5-4.4,76.1,76.1,0,0,0,8.2-5.8,41.5,41.5,0,0,0,7.1-8,36.7,36.7,0,0,0,4.7-9c2.6-6.7,2.6-14.4.9-21.3a44.4,44.4,0,0,0-11.1-19.4,13.8,13.8,0,0,0-19.2,0c-2.3,2.6-4.1,6-3.9,9.6a15,15,0,0,0,3.9,9.6,21.8,21.8,0,0,1,2.5,2.8l-2.1-2.7a28.1,28.1,0,0,1,3.9,6.4l-1.4-3.2a25.2,25.2,0,0,1,1.8,6.5l-.5-3.6a26.6,26.6,0,0,1,.1,6.3l.4-3.6a23.6,23.6,0,0,1-1.5,5.8l1.3-3.3a25.6,25.6,0,0,1-3.3,5.8l2.1-2.8a37.7,37.7,0,0,1-5.7,5.6l2.8-2.1a54.3,54.3,0,0,1-10.5,5.9l3.2-1.3a94,94,0,0,1-24,6.1l3.6-.5c-24.3,3.2-48.8-.4-73.2.2a113.8,113.8,0,0,0-19.3,2,89.6,89.6,0,0,0-14.2,4.4,162.7,162.7,0,0,0-30.4,16.5,282.7,282.7,0,0,0-28.5,22.6h19.1l-.3-.4,2.1,16.4a13.1,13.1,0,0,0,2.7-5.1c.4-1,.7-2.1,1.1-3.2s1.5-4.6,2.3-6.9c1.8-5.1,3.8-10.2,5.9-15.2l-1.4,3.3a203.2,203.2,0,0,1,17.7-33.6c2.1-3.1,4.2-6.1,6.5-9.1l-2.1,2.8a113.8,113.8,0,0,1,20.6-21l-2.8,2.1A89.3,89.3,0,0,1,664,158.4l-3.3,1.4a130.9,130.9,0,0,1,17.1-5.5,181.3,181.3,0,0,1,20.5-4.1l-3.6.5a140.1,140.1,0,0,1,36.6-.3l-3.6-.5a106.4,106.4,0,0,1,25.9,6.8l-3.2-1.3a65.1,65.1,0,0,1,14.3,8.1l-2.7-2.1a45.8,45.8,0,0,1,4.6,4.2,14.4,14.4,0,0,0,9.6,3.9,14.3,14.3,0,0,0,9.6-3.9c2.3-2.6,4.1-6,3.9-9.6A14.4,14.4,0,0,0,785.8,146.4Z"/><rect class="h" x="453.1" y="358.7" width="210.7" height="97.72" rx="18"/><circle class="b" cx="532.4" cy="412.7" r="8.7"/><circle class="b" cx="480.3" cy="412.7" r="8.7"/><circle class="b" cx="495.7" cy="395.3" r="8.7"/><circle class="b" cx="517" cy="395.3" r="8.7"/><circle class="b" cx="636.6" cy="412.7" r="8.7"/><circle class="b" cx="584.5" cy="412.7" r="8.7"/><circle class="b" cx="599.9" cy="395.3" r="8.7"/><circle class="b" cx="621.1" cy="395.3" r="8.7"/><rect class="i" x="425.9" y="499.9" width="265.1" height="104.13" rx="25.5"/><path class="d" d="M450.1,531.9h6.5v36.5h-6.5Zm3,16h9.1a3.1,3.1,0,0,0,1.7-.4,3.7,3.7,0,0,0,1.2-1.3,4.5,4.5,0,0,0,.4-2V542a4.2,4.2,0,0,0-.4-2,3.1,3.1,0,0,0-1.1-1.4,3.4,3.4,0,0,0-1.8-.4h-9.1v-6.3h9.1a11.2,11.2,0,0,1,5.3,1.1,8.2,8.2,0,0,1,3.5,3.4,10.4,10.4,0,0,1,1.2,5.1v3.2a10.7,10.7,0,0,1-1.2,5.1,8.6,8.6,0,0,1-3.5,3.3,11.2,11.2,0,0,1-5.3,1.1h-9.1Z"/><path class="d" d="M481.5,567.5a9.5,9.5,0,0,1-3.8-3.9,14.9,14.9,0,0,1-1.3-6.2V531.9H483v25.7a4.5,4.5,0,0,0,1.2,3.4,4.8,4.8,0,0,0,6.6,0,4.5,4.5,0,0,0,1.2-3.4V531.9h6.5v25.5a13.5,13.5,0,0,1-1.3,6.2,8.9,8.9,0,0,1-3.8,3.9,12,12,0,0,1-5.9,1.3A12.4,12.4,0,0,1,481.5,567.5Z"/><path class="d" d="M503.9,531.9h6.5v36.5h-6.5Zm3.3,30.3h8.5a3.7,3.7,0,0,0,2.7-.9,3,3,0,0,0,1-2.5v-2.5a3.8,3.8,0,0,0-.4-1.9,2.7,2.7,0,0,0-1.3-1.3,5.9,5.9,0,0,0-2-.4h-8.5v-6.2h8.4a3.1,3.1,0,0,0,3.4-3.4v-2a2.8,2.8,0,0,0-.9-2.2,3.3,3.3,0,0,0-2.5-.8h-8.4v-6.2H516a11.5,11.5,0,0,1,5.2,1,7.2,7.2,0,0,1,3.2,3,8.6,8.6,0,0,1,1.1,4.7v2a7.2,7.2,0,0,1-.7,3.3,6.1,6.1,0,0,1-2.1,2.4,11.5,11.5,0,0,1-3.4,1.3,8.1,8.1,0,0,1,3.6,1.2,7.1,7.1,0,0,1,2.3,2.6,8.7,8.7,0,0,1,.8,3.7v2.5a10,10,0,0,1-1.1,4.8,7.2,7.2,0,0,1-3.2,3,12.1,12.1,0,0,1-5.2,1h-9.3Z"/><path class="d" d="M531.3,531.9h6.5v36.5h-6.5Zm2.8,30.2h17.3v6.3H534.1Z"/><path class="d" d="M561.7,568.4H555V531.9h6.7Z"/><path class="d" d="M572.1,567.9a9.8,9.8,0,0,1-6-7.2l6.1-2.7a7.1,7.1,0,0,0,2.2,3.3,6.1,6.1,0,0,0,3.6,1.1,5.4,5.4,0,0,0,3.3-.9,3.4,3.4,0,0,0,1.2-2.7v-1.6a3.1,3.1,0,0,0-.7-2.1,4.1,4.1,0,0,0-1.8-1.2,20.8,20.8,0,0,0-3-1,.1.1,0,0,0-.1-.1h-.4a23.9,23.9,0,0,1-4.9-1.9,8.3,8.3,0,0,1-3.3-2.9,10.8,10.8,0,0,1-1.3-5.4v-1a11.3,11.3,0,0,1,1.3-5.4,8.1,8.1,0,0,1,3.9-3.4,13.8,13.8,0,0,1,6.1-1.2,14.2,14.2,0,0,1,4.8.8,8.2,8.2,0,0,1,3.4,2.7,9.6,9.6,0,0,1,2.1,4.3l-5.8,2.7a6.4,6.4,0,0,0-2-3.1,3.9,3.9,0,0,0-2.9-1.1,4.9,4.9,0,0,0-3.2.9,2.9,2.9,0,0,0-1.2,2.4v1.3a3.3,3.3,0,0,0,.8,2.2,5.9,5.9,0,0,0,1.8,1.3l3.1,1.1h1.1a24.3,24.3,0,0,1,4.5,1.9,8.5,8.5,0,0,1,3.1,2.9,9.6,9.6,0,0,1,1.2,5.1v1.6a10.3,10.3,0,0,1-1.4,5.4,8.7,8.7,0,0,1-3.9,3.4,14.9,14.9,0,0,1-6.2,1.2A15.5,15.5,0,0,1,572.1,567.9Z"/><path class="d" d="M594,531.9h6.5v36.5H594Zm3,15.3h16.8v6.3H597Zm12.6-15.3h6.5v36.5h-6.5Z"/><path class="d" d="M622.4,531.9h6.5v36.5h-6.5Zm2.6,0h17.7v6.3H625Zm0,15.2h15.7v6.3H625Zm0,15h17.7v6.3H625Z"/><path class="d" d="M647.5,531.9h6.6v36.5h-6.6Zm3.8,30.2H658a5.3,5.3,0,0,0,3.7-1.2,4.5,4.5,0,0,0,1.2-3.4V542.8a4.5,4.5,0,0,0-1.2-3.4,5.3,5.3,0,0,0-3.7-1.2h-6.7v-6.3h7a14.1,14.1,0,0,1,6.1,1.2,8.5,8.5,0,0,1,3.9,3.6,11.8,11.8,0,0,1,1.3,5.8v15.3a11,11,0,0,1-1.3,5.6,8,8,0,0,1-3.8,3.7,13.4,13.4,0,0,1-6.3,1.3h-6.9Z"/><ellipse class="j" cx="722.7" cy="548.9" rx="71.1" ry="34.6" transform="translate(-56 1014.9) rotate(-68.1)"/><path class="a" d="M696.4,610.9c-7.1-11.1-12.5-33.4-8.8-61.7V549a203.5,203.5,0,0,1,5-25.4c-.4,1.7-.7,3.5-1,5.3-2.7,15.1-3.9,30.5-2.9,42.1h.1c1.8,21.7,13,25.6,23.7,20.7s23-23.9,33.1-50.9a255.5,255.5,0,0,0,9-29.4A247.9,247.9,0,0,1,743.4,569c-5.1,15.2-11.3,26.8-17.3,34.7C714.5,619.3,703.5,621.9,696.4,610.9Z"/><ellipse class="k" cx="722.7" cy="548.9" rx="71.1" ry="34.6" transform="translate(-37.1 1045.1) rotate(-70.4)"/><ellipse class="l" cx="393.1" cy="548.9" rx="36" ry="71.5" transform="translate(-170.8 177.7) rotate(-21)"/><path class="a" d="M419.2,611.2c-12.8-2.2-31.7-12.7-47.9-33.7v-.2a160.8,160.8,0,0,1-13.2-20c.9,1.4,1.8,2.8,2.8,4.1,8.1,11.7,17.5,22.6,26,29.4h.1c15.9,12.8,26.9,7.3,31.6-3.5s1.4-31.8-9.1-56.6a203.8,203.8,0,0,0-12.9-25.5c11.3,12.8,22.7,29.5,30,45.3,6.3,13.5,9.4,25.5,10.2,34.8C438.4,603.7,431.9,613.3,419.2,611.2Z"/><ellipse class="m" cx="393.1" cy="548.9" rx="36" ry="71.5" transform="translate(-170.8 177.7) rotate(-21)"/><path class="n" d="M532.9,162.1c-1.2-10.8,5.6-20.5,15.2-21.6s18.5,6.8,19.7,17.7a22.1,22.1,0,0,1-.9,9.3l-13.2,51.6L535,169.3l-1.4-3.9A27.2,27.2,0,0,1,532.9,162.1Z"/><path class="n" d="M357.5,703.2c-7.5,8-19.3,9-26.4,2.4s-6.7-18.5.8-26.4a21.2,21.2,0,0,1,7.8-5.3l47.8-23.3L361.6,697l-2,3.6Z"/><path class="n" d="M276.7,430.3c-10.7-1.9-18.1-11.2-16.4-20.8s11.8-15.7,22.5-13.8a21.1,21.1,0,0,1,8.7,3.6l45.7,27.2-53,3.8-4.1.3A19.5,19.5,0,0,1,276.7,430.3Z"/><path class="n" d="M302.2,329.9c-9.9-4.6-14.6-15.5-10.5-24.3s15.4-12.1,25.3-7.5a22.6,22.6,0,0,1,7.5,5.7l37,38.2-52.1-10.1-4.1-.8A16.6,16.6,0,0,1,302.2,329.9Z"/><path class="n" d="M366,249c-7.8-7.6-8.6-19.4-1.8-26.4s18.6-6.3,26.4,1.4a20.3,20.3,0,0,1,5.1,7.8L418,280.1l-45.9-26.8-3.5-2.1A27.5,27.5,0,0,1,366,249Z"/><path class="n" d="M290.6,630.6c-9.6,5.3-21.1,2.8-25.9-5.6s-.8-19.7,8.7-25a23.5,23.5,0,0,1,9-2.8l52.6-7.8-38.6,36.5-3.1,2.9A25.3,25.3,0,0,1,290.6,630.6Z"/><path class="n" d="M268.2,537.7c-10.9.6-20.2-6.8-20.7-16.5s7.9-18,18.8-18.6a22,22,0,0,1,9.3,1.6l50.7,16.2-50.8,15.7-4,1.2Z"/><path class="n" d="M445.3,189.8c-4.5-9.9-1-21.2,7.8-25.2s19.6.7,24.1,10.7a20,20,0,0,1,2,9.1l3.5,53.1L449.5,196l-2.6-3.2A21.1,21.1,0,0,1,445.3,189.8Z"/><path class="o" d="M738.6,716.7c6.8,9,18.9,11.6,27,5.7s9.2-17.9,2.3-26.9a23.3,23.3,0,0,0-7.4-6.3l-47-29.6L735,709.9l1.7,3.9A18.1,18.1,0,0,0,738.6,716.7Z"/><path class="o" d="M844.4,409.5c11.1-2.5,18.3-12.3,16-21.9s-13-15.5-24.2-13.1a21.9,21.9,0,0,0-8.9,4L781,408.4l55.6,1.4h4.3A22.1,22.1,0,0,0,844.4,409.5Z"/><path class="o" d="M814,327.2c10.2-4.9,14.9-16,10.4-24.9s-16.4-12.2-26.6-7.4a23.2,23.2,0,0,0-7.7,6l-38,39.5,54.4-11.1,4.2-.9A21.9,21.9,0,0,0,814,327.2Z"/><path class="o" d="M768.9,261.6c9-6.8,11.2-18.7,5-26.5s-18.6-8.8-27.6-2a20.5,20.5,0,0,0-6.2,7.3l-28.8,46.2,50.8-21.5,3.9-1.7A17.5,17.5,0,0,0,768.9,261.6Z"/><path class="o" d="M840.3,592c10.9,3.2,22.2-1.8,25.2-11.3s-3.4-19.8-14.3-23a23.6,23.6,0,0,0-9.8-.8l-55.6,3.7,47.5,27.9,3.7,2.2Z"/><path class="o" d="M851.9,504.3c11.4.6,21-6.8,21.6-16.7s-8.3-18.4-19.7-19.1a23.6,23.6,0,0,0-9.7,1.5l-53,16.3,53.2,16.3,4.1,1.2A19.7,19.7,0,0,0,851.9,504.3Z"/><path class="o" d="M794.6,663c8.7,7.2,21,7,27.6-.5s5-19.5-3.7-26.7a23.6,23.6,0,0,0-8.7-4.6l-52.4-18.4,32.2,44.3,2.5,3.4A19.7,19.7,0,0,0,794.6,663Z"/></svg>