<svg xmlns="http://www.w3.org/2000/svg" viewBox="0 0 68 23"><defs><style>.cls-1{fill:#fc0;stroke:#000;stroke-miterlimit:10;stroke-width:0.5px;}</style></defs><g id="Layer_2" data-name="Layer 2"><g id="Layer_1-2" data-name="Layer 1"><rect class="cls-1" x="0.25" y="0.25" width="67.5" height="22.5"/><path d="M16.24,14.9a4.89,4.89,0,0,1-1.1-.36,4.46,4.46,0,0,1-.92-.57L15,12.64a3.66,3.66,0,0,0,1.13.63,4,4,0,0,0,1.33.22,2.32,2.32,0,0,0,1.22-.27.84.84,0,0,0,.43-.75h0a.76.76,0,0,0-.19-.54,1.16,1.16,0,0,0-.51-.29,6.15,6.15,0,0,0-.79-.17h-.07l-.13,0A8.21,8.21,0,0,1,16,11.1a2.16,2.16,0,0,1-1-.71A2.33,2.33,0,0,1,14.63,9h0A2.56,2.56,0,0,1,15,7.53a2.26,2.26,0,0,1,1.07-.89,4.13,4.13,0,0,1,1.7-.31,4.33,4.33,0,0,1,.93.1,5.44,5.44,0,0,1,.94.31,4.84,4.84,0,0,1,.86.48l-.67,1.36a4.58,4.58,0,0,0-1-.53,3.27,3.27,0,0,0-1-.19,2.14,2.14,0,0,0-1.14.25.76.76,0,0,0-.41.68h0a.79.79,0,0,0,.21.58,1.25,1.25,0,0,0,.52.31,6.79,6.79,0,0,0,.88.21H18l.07,0a8,8,0,0,1,1.35.38,2.12,2.12,0,0,1,.9.73,2.3,2.3,0,0,1,.36,1.37h0a2.41,2.41,0,0,1-.38,1.39,2.31,2.31,0,0,1-1.11.89,4.57,4.57,0,0,1-1.75.3A5.79,5.79,0,0,1,16.24,14.9Z" transform="translate(0 -0.1)"/><path d="M21.93,6.42h1.61V8H21.93Zm0,2.43h1.61v6.09H21.93Z" transform="translate(0 -0.1)"/><path d="M25.8,14.71a1.84,1.84,0,0,1-.7-.9,3.73,3.73,0,0,1-.24-1.42v-1A3.88,3.88,0,0,1,25.1,10a1.83,1.83,0,0,1,1.8-1.21,1.44,1.44,0,0,1,.89.29,2,2,0,0,1,.65.82l-.12,1.35a1.19,1.19,0,0,0-.11-.53.71.71,0,0,0-.31-.33.94.94,0,0,0-.49-.12.87.87,0,0,0-.7.31,1.41,1.41,0,0,0-.25.87v1a1.32,1.32,0,0,0,.25.85.87.87,0,0,0,.7.3.94.94,0,0,0,.49-.12.69.69,0,0,0,.31-.32,1.13,1.13,0,0,0,.11-.51L28.4,14a1.63,1.63,0,0,1-.58.77,1.54,1.54,0,0,1-.92.27A1.9,1.9,0,0,1,25.8,14.71Zm.09,2.44a2.18,2.18,0,0,1-.89-.71l1.08-1a1.48,1.48,0,0,0,.5.34,1.52,1.52,0,0,0,.59.12,1.21,1.21,0,0,0,.83-.28,1,1,0,0,0,.32-.76v-6h1.6v5.9a3.06,3.06,0,0,1-.32,1.44,2.1,2.1,0,0,1-.93.91,3.54,3.54,0,0,1-2.78,0Z" transform="translate(0 -0.1)"/><path d="M31.5,8.85h1.61v6.09H31.5ZM35,11.25a.9.9,0,0,0-.26-.69,1,1,0,0,0-.72-.25.94.94,0,0,0-.69.25,1,1,0,0,0-.24.7L33,9.91a2.29,2.29,0,0,1,.65-.86,1.59,1.59,0,0,1,1-.28,1.81,1.81,0,0,1,1.49.64,2.87,2.87,0,0,1,.52,1.83v3.7H35Z" transform="translate(0 -0.1)"/><path d="M43,12.55a.87.87,0,0,0,.95.93,1,1,0,0,0,.7-.25,1,1,0,0,0,.24-.71L45,13.85a1.83,1.83,0,0,1-.56.83,1.44,1.44,0,0,1-1,.34A1.88,1.88,0,0,1,42,14.39a2.7,2.7,0,0,1-.53-1.78V8.85H43Zm1.89-3.7h1.6v6.09h-1.6Z" transform="translate(0 -0.1)"/><path d="M48.1,8.85h1.61v8.56H48.1Zm2.1,5.9a1.55,1.55,0,0,1-.57-.77l.08-1.39a1.13,1.13,0,0,0,.1.51.74.74,0,0,0,.31.32,1,1,0,0,0,.49.12.87.87,0,0,0,.7-.3,1.27,1.27,0,0,0,.25-.85v-1a1.35,1.35,0,0,0-.25-.87.87.87,0,0,0-.7-.31,1,1,0,0,0-.49.12.76.76,0,0,0-.31.33,1.19,1.19,0,0,0-.1.53l-.13-1.35a2,2,0,0,1,.65-.82,1.46,1.46,0,0,1,.89-.29A1.83,1.83,0,0,1,52.92,10a3.87,3.87,0,0,1,.25,1.44v1a3.72,3.72,0,0,1-.25,1.42,1.84,1.84,0,0,1-.7.9,1.87,1.87,0,0,1-1.1.31A1.56,1.56,0,0,1,50.2,14.75Z" transform="translate(0 -0.1)"/></g></g></svg>